<svg width="56" height="44" viewBox="0 0 56 44" fill="none" xmlns="http://www.w3.org/2000/svg">
<path d="M55.2435 29.2896C55.2435 29.2896 57.9006 15.2382 50.6631 7.27204C44.2743 0.23512 34.1631 -2.49596 25.9157 3.31204C22.984 5.38444 20.839 9.41044 17.407 10.6539C13.5592 12.0491 8.61314 12.552 5.0399 18.5264C1.46666 24.5007 2.7497 32.1791 7.51358 36.2658C12.2775 40.3526 20.6146 36.3648 28.1267 36.0665C35.6388 35.7682 51.3046 46.6292 55.2435 29.2896Z" fill="#F20000"/>
<path opacity="0.8" d="M55.2435 29.2896C55.2435 29.2896 57.9006 15.2382 50.6631 7.27204C44.2743 0.23512 34.1631 -2.49596 25.9157 3.31204C22.984 5.38444 20.839 9.41044 17.407 10.6539C13.5592 12.0491 8.61314 12.552 5.0399 18.5264C1.46666 24.5007 2.7497 32.1791 7.51358 36.2658C12.2775 40.3526 20.6146 36.3648 28.1267 36.0665C35.6388 35.7682 51.3046 46.6292 55.2435 29.2896Z" fill="white"/>
<path d="M29.3728 8.06396H37.7548V10.4479H29.3728C29.1932 10.4479 29.0209 10.3765 28.894 10.2495C28.767 10.1226 28.6956 9.95032 28.6956 9.77072V8.7398C28.696 8.56044 28.7675 8.38854 28.8944 8.26183C29.0214 8.13513 29.1934 8.06396 29.3728 8.06396Z" fill="#08B29B"/>
<path d="M37.7548 5.09033H29.8876C29.5725 5.09033 29.2704 5.2155 29.0476 5.43829C28.8248 5.66108 28.6996 5.96326 28.6996 6.27833C28.6996 6.59341 28.8248 6.89558 29.0476 7.11837C29.2704 7.34117 29.5725 7.46633 29.8876 7.46633H37.7548V5.09033Z" fill="#08B29B"/>
<path d="M41.3307 2.34863H38.4702V10.3346H41.3307V2.34863Z" fill="#08B29B"/>
<path d="M44.9066 2.34863H42.0462V10.3346H44.9066V2.34863Z" fill="#08B29B"/>
<path d="M48.4824 2.34863H45.622V10.3346H48.4824V2.34863Z" fill="#08B29B"/>
<path d="M29.3728 8.06396H37.7548V10.4479H29.3728C29.1932 10.4479 29.0209 10.3765 28.894 10.2495C28.767 10.1226 28.6956 9.95032 28.6956 9.77072V8.7398C28.696 8.56044 28.7675 8.38854 28.8944 8.26183C29.0214 8.13513 29.1934 8.06396 29.3728 8.06396Z" fill="#F20000"/>
<path d="M37.7548 5.09033H29.8876C29.5725 5.09033 29.2704 5.2155 29.0476 5.43829C28.8248 5.66108 28.6996 5.96326 28.6996 6.27833C28.6996 6.59341 28.8248 6.89558 29.0476 7.11837C29.2704 7.34117 29.5725 7.46633 29.8876 7.46633H37.7548V5.09033Z" fill="#F20000"/>
<path d="M41.3307 2.34863H38.4702V10.3346H41.3307V2.34863Z" fill="#0553C8"/>
<path opacity="0.4" d="M44.9066 2.34863H42.0462V10.3346H44.9066V2.34863Z" fill="white"/>
<path opacity="0.4" d="M48.4824 2.34863H45.622V10.3346H48.4824V2.34863Z" fill="white"/>
<path d="M50.2103 10.5483H27.7465V11.8789H29.5695V15.1789H30.6545V11.8789H46.773V15.1789H47.858V11.8789H50.2103V10.5483Z" fill="#08B29B"/>
<path opacity="0.1" d="M50.2103 10.5483H27.7465V11.8789H29.5695V15.1789H30.6545V11.8789H46.773V15.1789H47.858V11.8789H50.2103V10.5483Z" fill="black"/>
<path d="M23.38 14.5081C23.1243 14.5911 22.8736 14.6885 22.6289 14.7998C22.7609 14.7008 22.8929 14.6005 23.0249 14.4962C23.6217 14.0183 24.189 13.5048 24.7237 12.9584C24.0945 13.569 23.4222 14.1336 22.7121 14.648C22.8094 14.4778 22.8954 14.3014 22.9695 14.12C23.1015 13.7873 23.1265 13.46 22.8084 13.2739C22.4124 13.0547 21.9438 13.3834 22.0692 13.9471C22.1441 14.2598 22.2915 14.5506 22.4995 14.7958C22.0382 15.1159 21.5562 15.4051 21.0568 15.6617L21.0093 15.6855C21.1149 15.5029 21.208 15.3132 21.2878 15.1179C21.4198 14.7853 21.4462 14.4513 21.1281 14.2718C20.7321 14.0513 20.2621 14.38 20.3889 14.945C20.4626 15.2538 20.6072 15.5412 20.8113 15.7845C20.2107 16.0802 19.5903 16.331 18.9725 16.6042L18.8827 16.6451C19.0034 16.5153 19.1154 16.3778 19.218 16.2333C19.4187 15.9389 19.5269 15.6208 19.2589 15.3727C18.9303 15.0677 18.3917 15.2776 18.3825 15.8558C18.3831 16.1764 18.4576 16.4926 18.6003 16.7798C18.0231 17.0472 17.4747 17.3727 16.9635 17.7513L16.9476 17.7632C17.0175 17.6541 17.0805 17.5408 17.1364 17.4239C17.2882 17.1019 17.3436 16.7639 17.04 16.5686C16.9781 16.5256 16.9073 16.4972 16.8328 16.4857C16.7583 16.4741 16.6822 16.4797 16.6102 16.502C16.5381 16.5242 16.4722 16.5626 16.4172 16.6142C16.3622 16.6657 16.3197 16.7291 16.2929 16.7996C16.2533 16.7363 16.1984 16.6841 16.1332 16.6478C15.8269 16.4709 15.526 16.6623 15.2686 16.9329C15.2013 17.0029 15.1366 17.0781 15.0772 17.1547C15.2767 16.6015 15.5272 16.0681 15.8256 15.5614C16.1089 15.6866 16.4149 15.7522 16.7245 15.7541C17.3344 15.7541 17.5918 15.2459 17.2921 14.9305C17.0493 14.6744 16.7061 14.7721 16.3827 14.9582C16.2757 15.0202 16.1715 15.0902 16.0738 15.1615C16.385 14.6944 16.7385 14.257 17.1298 13.8547C17.3847 14.0607 17.6809 14.2097 17.9983 14.2916C18.591 14.4381 18.9633 14.0078 18.7481 13.6316C18.5739 13.324 18.2201 13.3359 17.8584 13.4389C17.6895 13.49 17.5237 13.5513 17.3621 13.6223C17.5231 13.4653 17.6908 13.3135 17.8597 13.1643C18.0828 12.9742 18.3125 12.7907 18.5461 12.6125C18.7982 12.8131 19.0896 12.9584 19.4015 13.0389C19.9929 13.1854 20.3651 12.7551 20.1513 12.3789C19.977 12.0713 19.6233 12.0845 19.2616 12.1875C19.1784 12.2113 19.0939 12.2403 19.0121 12.2707C19.321 12.0502 19.6351 11.8351 19.9493 11.6199L20.2397 11.4219C20.502 11.6405 20.8094 11.7983 21.1399 11.8839C21.7326 12.0304 22.1035 11.6001 21.8897 11.2239C21.7155 10.915 21.3617 10.9282 21 11.0312C20.8596 11.0725 20.7216 11.1219 20.5869 11.179C20.6476 11.1368 20.707 11.0932 20.7664 11.047C20.8773 10.9678 20.9855 10.8873 21.0937 10.8041C21.2257 10.7038 21.3577 10.5916 21.4897 10.486C21.5637 10.4266 21.6349 10.3633 21.7062 10.2986C21.9681 10.5211 22.2774 10.681 22.6104 10.7659C23.2031 10.9124 23.5753 10.4834 23.3615 10.1059C23.1873 9.7983 22.8335 9.81018 22.4705 9.91314C22.272 9.97436 22.0776 10.048 21.8884 10.1336C22.1299 9.90918 22.3636 9.67554 22.5853 9.43134C22.6012 9.41418 22.6144 9.39702 22.6289 9.37986C22.7253 9.27426 22.819 9.16734 22.9101 9.05778C23.0011 8.94822 23.1173 8.79378 23.2176 8.66178C23.6242 8.12868 23.9584 7.54413 24.2116 6.92334C23.9473 7.53887 23.6015 8.11605 23.1833 8.63934C22.7715 9.16463 22.3119 9.6507 21.8105 10.0913L21.7564 10.1375C21.8712 9.93995 21.9726 9.73489 22.06 9.52374C22.192 9.1911 22.2184 8.85714 21.9003 8.67762C21.5043 8.4585 21.0343 8.78586 21.1611 9.35082C21.2417 9.68298 21.4026 9.99028 21.6297 10.2458L21.5122 10.3461C21.466 10.3844 21.4185 10.424 21.3709 10.4609C21.2931 10.5243 21.2139 10.585 21.1347 10.6444L21.0027 10.7421C20.8891 10.8253 20.773 10.9084 20.6568 10.9889L20.476 11.0998L20.2859 11.2318C20.3965 11.042 20.494 10.8449 20.5776 10.6418C20.7096 10.3091 20.736 9.97518 20.4179 9.79566C20.0219 9.57522 19.552 9.9039 19.6774 10.4689C19.7556 10.7904 19.9095 11.0886 20.1262 11.3387L19.9849 11.4298L19.4569 11.7704L19.3553 11.8377C19.2576 11.9011 19.1613 11.9697 19.0649 12.0317C19.0227 12.0595 18.9804 12.0872 18.9395 12.1162C18.8075 12.2086 18.6689 12.3023 18.5356 12.3987C18.6477 12.2057 18.7469 12.0055 18.8326 11.7994C18.9646 11.4668 18.991 11.1315 18.6729 10.9533C18.2769 10.7329 17.8069 11.0615 17.9323 11.6252C18.0115 11.9518 18.1686 12.2544 18.3904 12.5069C18.1633 12.6733 17.9389 12.8449 17.7198 13.0231C17.5614 13.1551 17.4043 13.295 17.2512 13.4349C17.318 13.3113 17.3775 13.1839 17.4294 13.0534C17.5614 12.7208 17.5878 12.3934 17.2697 12.2073C16.8737 11.9882 16.4038 12.3155 16.5292 12.8805C16.6042 13.1895 16.7492 13.4772 16.9529 13.7213C16.5195 14.1518 16.1292 14.6235 15.7873 15.1298C15.8264 14.984 15.856 14.8359 15.8758 14.6863C15.9193 14.3325 15.8679 13.9999 15.5167 13.9035C15.0838 13.7847 14.7023 14.2177 14.961 14.7351C15.1095 15.0192 15.3219 15.265 15.5814 15.4532C15.2451 16.0023 14.9639 16.5832 14.7419 17.1877C14.7363 17.0612 14.7236 16.9351 14.7036 16.8101C14.6442 16.459 14.5017 16.1501 14.1373 16.162C13.6885 16.1699 13.4457 16.69 13.8403 17.1164C14.0511 17.3357 14.3081 17.5053 14.5927 17.6127C14.4408 18.0806 14.3165 18.5571 14.2205 19.0396C14.206 19.1162 14.1928 19.1927 14.1796 19.2693C14.1625 19.2829 14.1466 19.2979 14.1321 19.3142C14.1162 19.2482 14.0977 19.1822 14.0766 19.1175C13.9631 18.7796 13.7757 18.5011 13.4166 18.5644C12.9744 18.6423 12.816 19.1967 13.2701 19.5531C13.5015 19.7302 13.7686 19.8549 14.0529 19.9187C14.057 19.9319 14.0623 19.9447 14.0687 19.957C14.0199 20.32 13.9829 20.6843 13.9605 21.0513C13.9437 21.3241 13.9327 21.5982 13.9275 21.8737C13.5447 21.8737 13.2675 22.2921 13.5394 22.7475C13.65 22.936 13.7919 23.1043 13.9591 23.2451C13.9921 23.7599 14.0423 24.2747 14.1109 24.7856C14.0568 24.7356 13.9906 24.7007 13.9188 24.6843C13.847 24.6678 13.7722 24.6705 13.7017 24.6919C13.4602 24.7565 13.3519 24.9559 13.3137 25.1895C13.2295 25.2783 13.1823 25.3958 13.1817 25.5182C13.0021 25.2542 12.8332 24.9783 12.6695 24.7011C12.9202 24.5085 13.1279 24.2657 13.2793 23.9883C13.5671 23.4511 13.2437 22.9838 12.8239 23.0986C12.4821 23.191 12.4068 23.5395 12.4174 23.9131C12.4231 24.0545 12.4364 24.1955 12.457 24.3355L12.292 24.0147C12.1441 23.7507 12.0187 23.4867 11.8801 23.2121C11.8445 23.1475 11.8141 23.0801 11.7851 23.0128C12.0672 22.8708 12.3167 22.6717 12.5177 22.4281C12.9005 21.9542 12.6695 21.4341 12.2365 21.4684C11.8828 21.4948 11.7442 21.8235 11.6848 22.1918C11.6608 22.3527 11.6463 22.5149 11.6412 22.6775L11.5092 22.3871C11.2411 21.7293 11.0205 21.053 10.8492 20.3636C11.167 20.2517 11.4562 20.0715 11.6967 19.8356C12.1257 19.4013 11.9488 18.8614 11.5132 18.8509C11.1594 18.8429 10.9852 19.1558 10.8915 19.5109C10.8442 19.7048 10.809 19.9014 10.7859 20.0996C10.6921 19.7036 10.6116 19.3076 10.5456 18.9023C10.4994 18.6529 10.4704 18.4007 10.4387 18.1486C10.7822 18.082 11.1056 17.937 11.3838 17.7249C11.8656 17.3513 11.7587 16.793 11.3284 16.7257C10.9799 16.6715 10.7687 16.9593 10.6261 17.3051C10.5427 17.5245 10.4731 17.7489 10.4176 17.977C10.3899 17.684 10.3595 17.3923 10.3463 17.0992C10.308 16.4943 10.3107 15.8875 10.3542 15.2829C10.2922 15.8871 10.271 16.4948 10.2909 17.1019C10.2909 17.3817 10.3146 17.6602 10.3318 17.9401C10.2569 17.7497 10.1687 17.5649 10.0678 17.387C9.88563 17.0807 9.64143 16.8497 9.30483 16.991C8.88903 17.1613 8.85339 17.7381 9.37347 17.9889C9.68007 18.1293 10.0162 18.1932 10.3529 18.175C10.3767 18.4245 10.3978 18.674 10.4347 18.9208C10.4875 19.3168 10.5549 19.7128 10.6327 20.0969C10.5477 19.9478 10.4529 19.8045 10.3489 19.6679C10.1272 19.3881 9.85659 19.1901 9.53979 19.3709C9.14379 19.594 9.18867 20.1695 9.73779 20.3504C10.049 20.4476 10.3787 20.4697 10.7001 20.4151C10.8515 21.1126 11.0522 21.7985 11.3007 22.4677L11.3799 22.6683C11.3086 22.5772 11.232 22.4835 11.1515 22.4043C10.9033 22.1482 10.6143 21.9793 10.3173 22.1905C9.95163 22.4545 10.0533 23.0207 10.6116 23.1461C10.9242 23.2098 11.2472 23.2003 11.5554 23.1184C11.5831 23.1871 11.6109 23.2504 11.6439 23.323C11.7759 23.5976 11.8973 23.8801 12.0399 24.1507C12.0795 24.2285 12.1204 24.3051 12.1613 24.3817C12.0913 24.3223 12.0187 24.2642 11.9435 24.2114C11.6531 24.0055 11.3363 23.8933 11.0842 24.1573C10.7753 24.482 10.9759 25.0232 11.5541 25.0403C11.8518 25.0443 12.1468 24.9835 12.4187 24.8621C12.5837 25.1618 12.7553 25.4575 12.9388 25.7479C13.0074 25.8587 13.0787 25.9683 13.15 26.0779C13.0452 25.9801 12.9346 25.8888 12.8187 25.8046C12.5269 25.5987 12.2101 25.4865 11.9593 25.7505C11.6491 26.0752 11.8498 26.6164 12.4279 26.6336C12.7585 26.6375 13.0853 26.5623 13.381 26.4145C13.476 26.5465 13.575 26.6785 13.678 26.8105C13.4628 27.0599 13.5328 27.4837 13.9697 27.6711C14.1841 27.7598 14.4124 27.8099 14.6442 27.8189C14.6706 27.8414 14.6983 27.8625 14.7261 27.8823L14.7406 27.8929C14.8422 28.273 14.9531 28.6505 15.0693 29.0254H13.1104V35.2439H18.0155V29.0215H15.7306C15.5339 28.3496 15.3689 27.7648 15.3346 27.749L15.2659 27.716C15.5234 27.6279 15.7627 27.4937 15.9721 27.32C16.4368 26.924 16.3048 26.3709 15.8731 26.3247C15.5207 26.2851 15.3227 26.5821 15.1973 26.9345C15.1611 27.0349 15.1303 27.1371 15.1049 27.2408C15.0798 27.1471 15.0547 27.0533 15.031 26.9596C14.9597 26.6824 14.899 26.4026 14.833 26.1241C15.1126 26.0345 15.3722 25.8915 15.5973 25.703C16.0619 25.307 15.9299 24.7552 15.4983 24.7077C15.1458 24.6694 14.9491 24.9717 14.8224 25.3175C14.786 25.4197 14.7547 25.5237 14.7287 25.6291C14.6878 25.4258 14.6495 25.2225 14.6139 25.0179C14.5875 24.8648 14.5637 24.713 14.5413 24.5612C14.532 24.3447 14.5294 24.1269 14.532 23.9104C14.532 23.7903 14.532 23.6715 14.5426 23.5514C14.8044 23.6361 15.0797 23.6714 15.3544 23.6557C15.9642 23.6161 16.1886 23.0947 15.8705 22.7977C15.6065 22.5574 15.2752 22.6762 14.9637 22.8821C14.8259 22.9774 14.6936 23.0805 14.5677 23.191C14.6051 22.6806 14.6828 22.1739 14.8 21.6757C14.8695 21.3834 14.955 21.0952 15.0561 20.8124C15.3358 20.9091 15.6317 20.9504 15.9273 20.9338C16.5358 20.8955 16.7615 20.3728 16.4434 20.0771C16.1794 19.8356 15.8481 19.9557 15.5365 20.1616C15.426 20.2366 15.3194 20.3172 15.2171 20.4032C15.3344 20.1268 15.4712 19.859 15.6263 19.6019C15.9373 19.0845 16.3264 18.6183 16.78 18.2199C17.0136 18.4339 17.2892 18.5971 17.5891 18.6991C18.1699 18.8891 18.5725 18.4879 18.3811 18.0945C18.2307 17.7751 17.8743 17.7605 17.5073 17.8305C17.3686 17.8613 17.2316 17.8992 17.0968 17.944H17.106C17.6038 17.5546 18.1403 17.2176 18.7072 16.9382C18.9078 17.2003 19.1627 17.4159 19.4543 17.5705C19.9968 17.8503 20.4588 17.5203 20.3387 17.1019C20.241 16.7613 19.8912 16.6913 19.5177 16.7059C19.3712 16.714 19.2254 16.7303 19.0807 16.7547C19.684 16.4696 20.2991 16.2003 20.8931 15.8861L20.9063 15.8795C21.1733 16.1089 21.4894 16.2737 21.8303 16.3613C22.423 16.5079 22.7952 16.0775 22.5801 15.7013C22.4071 15.3925 22.0521 15.4057 21.6904 15.5086C21.5901 15.5363 21.4911 15.5733 21.3934 15.6103C21.7895 15.3795 22.1737 15.1288 22.5444 14.8592L22.5761 14.8922C22.5754 14.8874 22.5754 14.8825 22.5761 14.8777C22.8427 15.1089 23.1588 15.276 23.5001 15.3661C24.0928 15.5113 24.465 15.0823 24.2512 14.7061C24.0901 14.3998 23.7337 14.3998 23.38 14.5081ZM14.0278 26.627C13.9077 26.4857 13.7915 26.3379 13.6793 26.1887C13.707 26.1637 13.7361 26.1359 13.7651 26.1069C13.9321 26.1594 14.1051 26.1904 14.2799 26.1993V26.227L14.3617 26.2112C14.404 26.4211 14.4489 26.6323 14.4937 26.8421C14.4387 26.7705 14.367 26.7135 14.2849 26.676C14.2027 26.6385 14.1127 26.6216 14.0225 26.627H14.0278ZM14.4647 21.5925C14.4238 21.7496 14.3881 21.908 14.3551 22.0664L14.3353 22.0387C14.3353 21.7131 14.3402 21.3879 14.3499 21.0632C14.3591 20.8348 14.3763 20.6078 14.3961 20.3821C14.5051 20.4946 14.6259 20.5951 14.7564 20.6817C14.641 20.9797 14.5418 21.2837 14.4594 21.5925H14.4647ZM15.0138 20.0943C15.0138 20.0349 15.027 19.9742 15.031 19.9161C15.031 19.8857 15.031 19.8554 15.031 19.8263C15.0785 19.8118 15.1273 19.7947 15.1762 19.7749C15.1155 19.8805 15.064 19.9861 15.0085 20.0943H15.0138ZM15.7095 18.9631C15.6863 18.9103 15.6527 18.8628 15.6107 18.8234C15.5688 18.7839 15.5193 18.7533 15.4653 18.7334C15.1353 18.6014 14.8673 18.8416 14.6548 19.1479L14.6442 19.1637L14.6231 19.1571L14.5545 19.1479C14.5545 19.1294 14.5611 19.1109 14.5637 19.0924C14.6486 18.6098 14.7628 18.1329 14.9056 17.6642C15.2126 17.7025 15.5242 17.6782 15.8217 17.5929C16.0036 17.5467 16.1629 17.4366 16.2705 17.2827C16.3303 17.5518 16.4424 17.8066 16.6005 18.0325C16.2707 18.3112 15.9704 18.6231 15.7042 18.9631H15.7095Z" fill="#08B29B"/>
<path d="M26.1072 16.6782H49.5728C49.8529 16.6782 50.1215 16.7895 50.3195 16.9875C50.5176 17.1856 50.6288 17.4542 50.6288 17.7342V34.1999H25.0551V17.7303C25.0562 17.4516 25.1674 17.1846 25.3644 16.9875C25.5615 16.7904 25.8285 16.6793 26.1072 16.6782Z" fill="white" stroke="#DDDDDD" stroke-width="0.5" stroke-linecap="round" stroke-linejoin="round"/>
<path d="M54.4608 41.9445H21.2192L25.0551 34.1987H50.6249L54.4608 41.9445Z" fill="#DDDDDD" stroke="#DDDDDD" stroke-width="0.5" stroke-linecap="round" stroke-linejoin="round"/>
<path d="M54.4753 41.9429H21.2192V42.4141H54.4753V41.9429Z" fill="#F20000" stroke="#DDDDDD" stroke-width="0.5" stroke-linecap="round" stroke-linejoin="round"/>
<path opacity="0.15" d="M46.7321 21.4289V34.1128L43.0454 38.9189L42.425 39.1512L23.512 41.9417V42.5621L16.5847 42.9343V36.1284H28.396V21.3682L46.7321 21.4289Z" fill="black"/>
<path d="M12.3369 34.7674C11.4855 34.8096 10.5628 35.4591 10.5628 35.4591L0.939993 42.9342H16.5846C16.5846 42.9342 26.4622 35.4802 26.7579 35.2664C27.2265 34.9284 28.1557 34.7568 28.1557 34.7568L27.7162 34.7674H12.3369Z" fill="white" stroke="#DDDDDD" stroke-width="0.5" stroke-linecap="round" stroke-linejoin="round"/>
<path d="M45.1705 16.9292C44.9653 16.929 44.7621 16.9693 44.5724 17.0478C44.3828 17.1263 44.2105 17.2415 44.0655 17.3866C43.9204 17.5318 43.8054 17.7042 43.7271 17.8939C43.6488 18.0836 43.6086 18.2869 43.609 18.4921V37.6862C43.6085 37.9393 43.5473 38.1887 43.4306 38.4133C43.3139 38.638 43.1451 38.8314 42.9382 38.9773C42.7314 39.1232 42.4926 39.2175 42.2418 39.2522C41.9911 39.2868 41.7356 39.2609 41.497 39.1765L29.6526 34.9696C29.0314 34.7484 28.3595 34.7108 27.7175 34.8614V18.4921C27.7175 18.0779 27.882 17.6807 28.1749 17.3879C28.4677 17.095 28.8649 16.9305 29.2791 16.9305L45.1705 16.9292Z" fill="white"/>
<path d="M31.1073 35.4868L41.4956 39.1762C41.7343 39.2606 41.9897 39.2865 42.2405 39.2519C42.4913 39.2172 42.7301 39.123 42.9369 38.977C43.1437 38.8311 43.3126 38.6377 43.4293 38.413C43.546 38.1884 43.6071 37.9391 43.6076 37.6859V35.4868H31.1073Z" fill="white"/>
<path opacity="0.6" d="M31.1073 35.4868L41.4956 39.1762C41.7343 39.2606 41.9897 39.2865 42.2405 39.2519C42.4913 39.2172 42.7301 39.123 42.9369 38.977C43.1437 38.8311 43.3126 38.6377 43.4293 38.413C43.546 38.1884 43.6071 37.9391 43.6076 37.6859V35.4868H31.1073Z" fill="white"/>
<path d="M45.1705 16.9292C44.9653 16.929 44.7621 16.9693 44.5724 17.0478C44.3828 17.1263 44.2105 17.2415 44.0655 17.3866C43.9204 17.5318 43.8054 17.7042 43.7271 17.8939C43.6488 18.0836 43.6086 18.2869 43.609 18.4921V37.6862C43.6085 37.9393 43.5473 38.1887 43.4306 38.4133C43.3139 38.638 43.1451 38.8314 42.9382 38.9773C42.7314 39.1232 42.4926 39.2175 42.2418 39.2522C41.9911 39.2868 41.7356 39.2609 41.497 39.1765L29.6526 34.9696C29.0314 34.7484 28.3595 34.7108 27.7175 34.8614V18.4921C27.7175 18.0779 27.882 17.6807 28.1749 17.3879C28.4677 17.095 28.8649 16.9305 29.2791 16.9305L45.1705 16.9292Z" stroke="#DDDDDD" stroke-width="0.5" stroke-linecap="round" stroke-linejoin="round"/>
<path d="M42.0276 39.2701H26.1348C25.9548 39.2693 25.7762 39.2376 25.6068 39.1764L22.8626 38.2114L26.2748 35.5846C26.7355 35.1963 27.2897 34.9352 27.8825 34.8273C28.4753 34.7194 29.086 34.7684 29.654 34.9695L41.4983 39.1764C41.6681 39.2377 41.8471 39.2694 42.0276 39.2701Z" fill="white"/>
<path d="M42.0277 39.2701H26.1349C25.9548 39.2693 25.7762 39.2376 25.6069 39.1764L22.6923 38.16L26.2722 35.5846C26.7329 35.1963 27.2871 34.9352 27.8799 34.8273C28.4727 34.7194 29.0834 34.7684 29.6514 34.9695L41.4957 39.1764C41.6663 39.238 41.8463 39.2697 42.0277 39.2701Z" fill="white"/>
<path opacity="0.2" d="M42.0277 39.2701H26.1349C25.9548 39.2693 25.7762 39.2376 25.6069 39.1764L22.6923 38.16L26.2722 35.5846C26.7329 35.1963 27.2871 34.9352 27.8799 34.8273C28.4727 34.7194 29.0834 34.7684 29.6514 34.9695L41.4957 39.1764C41.6663 39.238 41.8463 39.2697 42.0277 39.2701Z" fill="black"/>
<path d="M42.0276 39.2701H26.1348C25.9548 39.2693 25.7762 39.2376 25.6068 39.1764L22.8626 38.2114L26.2748 35.5846C26.7355 35.1963 27.2897 34.9352 27.8825 34.8273C28.4753 34.7194 29.086 34.7684 29.654 34.9695L41.4983 39.1764C41.6681 39.2377 41.8471 39.2694 42.0276 39.2701Z" stroke="#DDDDDD" stroke-width="0.5" stroke-linecap="round" stroke-linejoin="round"/>
<path d="M46.2741 17.3872C46.1296 17.2417 45.9577 17.1262 45.7683 17.0476C45.5788 16.969 45.3757 16.9287 45.1706 16.9292C43.5443 16.9292 43.609 18.4908 43.609 18.4908V21.4291H46.7321V18.4921C46.7326 18.2868 46.6924 18.0834 46.6138 17.8938C46.5352 17.7041 46.4197 17.532 46.2741 17.3872Z" fill="white"/>
<path d="M46.2741 17.3872C46.1296 17.2417 45.9577 17.1262 45.7683 17.0476C45.5788 16.969 45.3757 16.9287 45.1706 16.9292C43.5443 16.9292 43.609 18.4908 43.609 18.4908V21.4291H46.7321V18.4921C46.7326 18.2868 46.6924 18.0834 46.6138 17.8938C46.5352 17.7041 46.4197 17.532 46.2741 17.3872Z" fill="white"/>
<path opacity="0.2" d="M46.2741 17.3872C46.1296 17.2417 45.9577 17.1262 45.7683 17.0476C45.5788 16.969 45.3757 16.9287 45.1706 16.9292C43.5443 16.9292 43.609 18.4908 43.609 18.4908V21.4291H46.7321V18.4921C46.7326 18.2868 46.6924 18.0834 46.6138 17.8938C46.5352 17.7041 46.4197 17.532 46.2741 17.3872Z" fill="black"/>
<path d="M46.2741 17.3872C46.1296 17.2417 45.9577 17.1262 45.7683 17.0476C45.5788 16.969 45.3757 16.9287 45.1706 16.9292C43.5443 16.9292 43.609 18.4908 43.609 18.4908V21.4291H46.7321V18.4921C46.7326 18.2868 46.6924 18.0834 46.6138 17.8938C46.5352 17.7041 46.4197 17.532 46.2741 17.3872V17.3872Z" stroke="#DDDDDD" stroke-width="0.5" stroke-linecap="round" stroke-linejoin="round"/>
<g opacity="0.15">
<path opacity="0.15" d="M29.0001 20.693V20.7207V21.3873V21.415V22.0816V22.1094V22.7746V22.8024V23.469V23.4967V24.1633V24.191V24.8563V24.884V25.5506V25.5783V26.2449V26.2726V26.9379V26.9656V27.6322V27.66V28.3543H30.5088V27.66V27.6322V26.9656V26.9379V26.2726V26.2449V25.5783V25.5506V24.884V24.8563V24.191V24.1633V23.4967V23.469V22.8024V22.7746V22.1094V22.0816V21.415V21.3873V20.7207V20.693V20H29.0001V20.693Z" fill="black"/>
<path opacity="0.15" d="M40.8959 20H40.8642H39.4202H39.3872H37.9431H37.9101H36.4673H36.4343H34.9902H34.9572H33.5145H33.4815H32.0374H32.0044H30.5286V20.7207H32.0044H32.0374H33.4815H33.5145H34.9572H34.9902H36.4343H36.4673H37.9101H37.9431H39.3872H39.4202H40.8642H40.8959H42.373V20H40.8959Z" fill="black"/>
</g>
<path d="M23.1213 36.6266H10.4031L11.2809 35.96H23.9991L23.1213 36.6266Z" fill="#F20000"/>
<path d="M20.3189 38.7513H7.60198L8.59594 38.0068H21.3128L20.3189 38.7513Z" fill="#F20000"/>
<path d="M16.0382 42.0082H3.32L11.2809 35.96H23.9991L16.0382 42.0082Z" stroke="#FFC1C7" stroke-width="0.25" stroke-linecap="round" stroke-linejoin="round"/>
<path d="M12.5917 35.9824L4.66509 42.0043" stroke="#FFC1C7" stroke-width="0.25" stroke-linecap="round" stroke-linejoin="round"/>
<path d="M13.8694 35.9824L5.9428 42.0043" stroke="#FFC1C7" stroke-width="0.25" stroke-linecap="round" stroke-linejoin="round"/>
<path d="M15.1459 35.9824L7.21929 42.0043" stroke="#FFC1C7" stroke-width="0.25" stroke-linecap="round" stroke-linejoin="round"/>
<path d="M16.4236 35.9824L8.497 42.0043" stroke="#FFC1C7" stroke-width="0.25" stroke-linecap="round" stroke-linejoin="round"/>
<path d="M17.7013 35.9824L9.77471 42.0043" stroke="#FFC1C7" stroke-width="0.25" stroke-linecap="round" stroke-linejoin="round"/>
<path d="M18.9791 35.9824L11.0512 42.0043" stroke="#FFC1C7" stroke-width="0.25" stroke-linecap="round" stroke-linejoin="round"/>
<path d="M20.2555 35.9824L12.3289 42.0043" stroke="#FFC1C7" stroke-width="0.25" stroke-linecap="round" stroke-linejoin="round"/>
<path d="M21.5333 35.9824L13.6067 42.0043" stroke="#FFC1C7" stroke-width="0.25" stroke-linecap="round" stroke-linejoin="round"/>
<path d="M22.811 35.9824L14.8831 42.0043" stroke="#FFC1C7" stroke-width="0.25" stroke-linecap="round" stroke-linejoin="round"/>
<path d="M9.62432 37.2354H22.3042" stroke="#FFC1C7" stroke-width="0.25" stroke-linecap="round" stroke-linejoin="round"/>
<path d="M7.59942 38.7744H20.2793" stroke="#FFC1C7" stroke-width="0.25" stroke-linecap="round" stroke-linejoin="round"/>
<path d="M6.58697 39.542H19.2669" stroke="#FFC1C7" stroke-width="0.25" stroke-linecap="round" stroke-linejoin="round"/>
<path d="M5.57452 40.312H18.2544" stroke="#FFC1C7" stroke-width="0.25" stroke-linecap="round" stroke-linejoin="round"/>
<path d="M4.56207 41.0815H17.242" stroke="#FFC1C7" stroke-width="0.25" stroke-linecap="round" stroke-linejoin="round"/>
<path d="M36.7795 31H35.7795V33H36.7795V31Z" fill="#F20000" stroke="#B80909" stroke-width="0.1" stroke-miterlimit="10"/>
<path d="M37.7795 30H36.7795V33H37.7795V30Z" fill="#F20000" stroke="#B80909" stroke-width="0.1" stroke-miterlimit="10"/>
<path d="M38.7795 29H37.7795V33H38.7795V29Z" fill="#0553C8" stroke="#0143A5" stroke-width="0.1" stroke-miterlimit="10"/>
<path d="M41.7795 29H40.7795V33H41.7795V29Z" fill="#08B29B" stroke="#089985" stroke-width="0.1" stroke-miterlimit="10"/>
<path d="M39.7795 27H38.7795V33H39.7795V27Z" fill="#0553C8" stroke="#0143A5" stroke-width="0.1" stroke-miterlimit="10"/>
<path d="M40.7795 28H39.7795V33H40.7795V28Z" fill="#08B29B" stroke="#089985" stroke-width="0.1" stroke-miterlimit="10"/>
<path d="M31.4979 30.4978V32.9956C30.8354 32.9956 30.2001 32.7325 29.7316 32.2641C29.2632 31.7956 29.0001 31.1603 29.0001 30.4978C29.0001 29.8354 29.2632 29.2 29.7316 28.7316C30.2001 28.2632 30.8354 28 31.4979 28V30.4978Z" fill="#0553C8" stroke="black" stroke-width="0.1" stroke-miterlimit="10"/>
<path d="M31.4977 30.4979L33.8722 29.7256C33.9744 30.0377 34.014 30.3668 33.9888 30.6943C33.9636 31.0217 33.874 31.3409 33.7251 31.6336C33.5763 31.9263 33.3711 32.1868 33.1215 32.4001C32.8718 32.6134 32.5824 32.7753 32.27 32.8766C32.0211 32.9599 31.7602 33.0016 31.4977 33V30.4979Z" fill="#08B29B" stroke="black" stroke-width="0.1" stroke-miterlimit="10"/>
<path d="M31.4978 30.498V28.0002C32.0266 27.994 32.5432 28.1586 32.971 28.4695C33.3987 28.7803 33.7148 29.2209 33.8722 29.7257L31.4978 30.498Z" fill="#F20000" stroke="black" stroke-width="0.1" stroke-miterlimit="10"/>
<rect x="29" y="24" width="13" height="1" rx="0.5" fill="#FFC1C7"/>
<rect x="29" y="22" width="13" height="1" rx="0.5" fill="#F20000"/>
<rect x="29" y="20" width="13" height="1" rx="0.5" fill="#F20000"/>
</svg>
