<svg width="73" height="24" viewBox="0 0 73 24" fill="none" xmlns="http://www.w3.org/2000/svg">
<path d="M40.08 16.12C39.312 16.12 38.632 15.956 38.04 15.628C37.456 15.3 37.04 14.864 36.792 14.32C36.728 14.192 36.724 14.076 36.78 13.972C36.844 13.86 36.948 13.784 37.092 13.744C37.204 13.712 37.312 13.724 37.416 13.78C37.528 13.836 37.612 13.92 37.668 14.032C37.852 14.384 38.156 14.672 38.58 14.896C39.004 15.12 39.504 15.232 40.08 15.232C40.712 15.232 41.232 15.08 41.64 14.776C42.056 14.464 42.264 14.016 42.264 13.432C42.264 12.944 42.084 12.524 41.724 12.172C41.364 11.82 40.8 11.596 40.032 11.5C39.096 11.388 38.364 11.1 37.836 10.636C37.308 10.164 37.044 9.588 37.044 8.908C37.044 8.42 37.172 7.996 37.428 7.636C37.692 7.276 38.052 7 38.508 6.808C38.964 6.608 39.488 6.508 40.08 6.508C40.744 6.508 41.312 6.66 41.784 6.964C42.256 7.26 42.62 7.612 42.876 8.02C42.956 8.148 42.98 8.272 42.948 8.392C42.924 8.512 42.856 8.604 42.744 8.668C42.624 8.724 42.5 8.732 42.372 8.692C42.252 8.652 42.16 8.576 42.096 8.464C41.912 8.184 41.66 7.94 41.34 7.732C41.028 7.516 40.604 7.404 40.068 7.396C39.436 7.396 38.928 7.532 38.544 7.804C38.16 8.068 37.968 8.456 37.968 8.968C37.968 9.376 38.132 9.732 38.46 10.036C38.796 10.34 39.388 10.552 40.236 10.672C41.236 10.816 41.976 11.124 42.456 11.596C42.944 12.06 43.188 12.668 43.188 13.42C43.188 13.996 43.048 14.488 42.768 14.896C42.496 15.296 42.124 15.6 41.652 15.808C41.18 16.016 40.656 16.12 40.08 16.12ZM45.4933 16C45.3493 16 45.2333 15.96 45.1453 15.88C45.0653 15.792 45.0253 15.68 45.0253 15.544V9.904C45.0253 9.76 45.0653 9.648 45.1453 9.568C45.2333 9.48 45.3493 9.436 45.4933 9.436C45.6293 9.436 45.7373 9.48 45.8173 9.568C45.9053 9.648 45.9493 9.76 45.9493 9.904V10.312C46.2053 10.016 46.5213 9.784 46.8973 9.616C47.2813 9.448 47.6933 9.364 48.1333 9.364C48.7013 9.364 49.2093 9.484 49.6573 9.724C50.1053 9.956 50.4573 10.3 50.7133 10.756C50.9773 11.212 51.1093 11.768 51.1093 12.424V15.544C51.1093 15.672 51.0653 15.78 50.9773 15.868C50.8893 15.956 50.7813 16 50.6533 16C50.5173 16 50.4053 15.956 50.3173 15.868C50.2293 15.78 50.1853 15.672 50.1853 15.544V12.424C50.1853 11.68 49.9773 11.132 49.5613 10.78C49.1533 10.42 48.6453 10.24 48.0373 10.24C47.6453 10.24 47.2893 10.316 46.9693 10.468C46.6573 10.62 46.4093 10.828 46.2253 11.092C46.0413 11.356 45.9493 11.656 45.9493 11.992V15.544C45.9493 15.68 45.9053 15.792 45.8173 15.88C45.7373 15.96 45.6293 16 45.4933 16ZM45.4933 13.324C45.3493 13.324 45.2333 13.28 45.1453 13.192C45.0653 13.104 45.0253 12.992 45.0253 12.856V7.096C45.0253 6.952 45.0653 6.84 45.1453 6.76C45.2333 6.672 45.3493 6.628 45.4933 6.628C45.6293 6.628 45.7373 6.672 45.8173 6.76C45.9053 6.84 45.9493 6.952 45.9493 7.096V12.856C45.9493 12.992 45.9053 13.104 45.8173 13.192C45.7373 13.28 45.6293 13.324 45.4933 13.324ZM56.0384 16.06C55.4224 16.06 54.8704 15.916 54.3824 15.628C53.8944 15.332 53.5064 14.932 53.2184 14.428C52.9384 13.924 52.7984 13.356 52.7984 12.724C52.7984 12.084 52.9424 11.512 53.2304 11.008C53.5264 10.504 53.9264 10.108 54.4304 9.82C54.9344 9.524 55.5024 9.376 56.1344 9.376C56.7664 9.376 57.3304 9.524 57.8264 9.82C58.3304 10.108 58.7264 10.504 59.0144 11.008C59.3104 11.512 59.4624 12.084 59.4704 12.724V15.544C59.4704 15.68 59.4264 15.792 59.3384 15.88C59.2504 15.96 59.1384 16 59.0024 16C58.8664 16 58.7544 15.96 58.6664 15.88C58.5784 15.792 58.5344 15.68 58.5344 15.544V14.812C58.2624 15.196 57.9104 15.5 57.4784 15.724C57.0464 15.948 56.5664 16.06 56.0384 16.06ZM56.1344 15.22C56.5984 15.22 57.0104 15.112 57.3704 14.896C57.7384 14.68 58.0264 14.384 58.2344 14.008C58.4504 13.624 58.5584 13.196 58.5584 12.724C58.5584 12.244 58.4504 11.816 58.2344 11.44C58.0264 11.064 57.7384 10.768 57.3704 10.552C57.0104 10.328 56.5984 10.216 56.1344 10.216C55.6784 10.216 55.2664 10.328 54.8984 10.552C54.5304 10.768 54.2384 11.064 54.0224 11.44C53.8064 11.816 53.6984 12.244 53.6984 12.724C53.6984 13.196 53.8064 13.624 54.0224 14.008C54.2384 14.384 54.5304 14.68 54.8984 14.896C55.2664 15.112 55.6784 15.22 56.1344 15.22ZM61.7235 16C61.4195 16 61.2675 15.848 61.2675 15.544V9.892C61.2675 9.588 61.4195 9.436 61.7235 9.436C62.0275 9.436 62.1795 9.588 62.1795 9.892V10.408C62.4195 10.088 62.7155 9.836 63.0675 9.652C63.4195 9.46 63.8075 9.364 64.2315 9.364C64.5995 9.364 64.8835 9.416 65.0835 9.52C65.2835 9.624 65.3595 9.776 65.3115 9.976C65.2715 10.16 65.1755 10.256 65.0235 10.264C64.8795 10.264 64.7075 10.256 64.5075 10.24C64.0595 10.2 63.6595 10.248 63.3075 10.384C62.9635 10.512 62.6875 10.712 62.4795 10.984C62.2795 11.256 62.1795 11.58 62.1795 11.956V15.544C62.1795 15.848 62.0275 16 61.7235 16ZM69.2591 16.06C68.6111 16.06 68.0351 15.92 67.5311 15.64C67.0351 15.352 66.6431 14.956 66.3551 14.452C66.0751 13.948 65.9351 13.372 65.9351 12.724C65.9351 12.068 66.0671 11.492 66.3311 10.996C66.6031 10.492 66.9751 10.096 67.4471 9.808C67.9191 9.52 68.4631 9.376 69.0791 9.376C69.6871 9.376 70.2151 9.516 70.6631 9.796C71.1191 10.068 71.4711 10.448 71.7191 10.936C71.9671 11.424 72.0911 11.98 72.0911 12.604C72.0911 12.732 72.0511 12.836 71.9711 12.916C71.8911 12.988 71.7871 13.024 71.6591 13.024H66.8111C66.8591 13.456 66.9911 13.84 67.2071 14.176C67.4231 14.504 67.7071 14.764 68.0591 14.956C68.4111 15.14 68.8111 15.232 69.2591 15.232C69.5471 15.232 69.8351 15.184 70.1231 15.088C70.4191 14.984 70.6551 14.856 70.8311 14.704C70.9191 14.632 71.0191 14.596 71.1311 14.596C71.2431 14.588 71.3391 14.616 71.4191 14.68C71.5231 14.776 71.5751 14.88 71.5751 14.992C71.5831 15.104 71.5391 15.2 71.4431 15.28C71.1791 15.504 70.8431 15.692 70.4351 15.844C70.0271 15.988 69.6351 16.06 69.2591 16.06ZM69.0791 10.204C68.4631 10.204 67.9551 10.396 67.5551 10.78C67.1551 11.156 66.9151 11.648 66.8351 12.256H71.2271C71.1631 11.648 70.9391 11.156 70.5551 10.78C70.1791 10.396 69.6871 10.204 69.0791 10.204Z" fill="#0553C8"/>
<path d="M18 8C19.6569 8 21 6.65685 21 5C21 3.34315 19.6569 2 18 2C16.3431 2 15 3.34315 15 5C15 6.65685 16.3431 8 18 8Z" stroke="#0553C8" stroke-width="0.8" stroke-linecap="round" stroke-linejoin="round"/>
<path d="M6 15C7.65685 15 9 13.6569 9 12C9 10.3431 7.65685 9 6 9C4.34315 9 3 10.3431 3 12C3 13.6569 4.34315 15 6 15Z" stroke="#0553C8" stroke-width="0.8" stroke-linecap="round" stroke-linejoin="round"/>
<path d="M18 22C19.6569 22 21 20.6569 21 19C21 17.3431 19.6569 16 18 16C16.3431 16 15 17.3431 15 19C15 20.6569 16.3431 22 18 22Z" stroke="#0553C8" stroke-width="0.8" stroke-linecap="round" stroke-linejoin="round"/>
<path d="M8.58594 13.51L15.4159 17.49" stroke="#0553C8" stroke-width="0.8" stroke-linecap="round" stroke-linejoin="round"/>
<path d="M15.4059 6.51001L8.58594 10.49" stroke="#0553C8" stroke-width="0.8" stroke-linecap="round" stroke-linejoin="round"/>
</svg>
