<svg width="25" height="25" viewBox="0 0 25 25" fill="none" xmlns="http://www.w3.org/2000/svg">
<path d="M22.916 17.6253V20.7503C22.9172 21.0404 22.8578 21.3275 22.7415 21.5933C22.6253 21.8591 22.4549 22.0978 22.2411 22.2939C22.0273 22.49 21.7749 22.6393 21.5001 22.7323C21.2253 22.8252 20.9341 22.8597 20.6452 22.8336C17.4398 22.4853 14.3608 21.39 11.6556 19.6357C9.13874 18.0364 7.0049 15.9025 5.40559 13.3857C3.64515 10.6682 2.54959 7.57422 2.20767 4.35443C2.18164 4.06638 2.21588 3.77606 2.30819 3.50196C2.40051 3.22786 2.54889 2.97598 2.74389 2.76237C2.93888 2.54876 3.17622 2.37809 3.44079 2.26122C3.70536 2.14436 3.99136 2.08387 4.28059 2.0836H7.40559C7.91112 2.07862 8.40121 2.25764 8.78451 2.58728C9.16781 2.91692 9.41817 3.37469 9.48892 3.87526C9.62082 4.87533 9.86543 5.85727 10.2181 6.80235C10.3582 7.17518 10.3886 7.58038 10.3055 7.96993C10.2224 8.35948 10.0294 8.71705 9.74934 9.00026L8.42642 10.3232C9.90929 12.931 12.0686 15.0903 14.6764 16.5732L15.9993 15.2503C16.2826 14.9702 16.6401 14.7772 17.0297 14.6941C17.4192 14.611 17.8244 14.6414 18.1973 14.7815C19.1423 15.1342 20.1243 15.3788 21.1243 15.5107C21.6303 15.5821 22.0925 15.8369 22.4228 16.2268C22.7532 16.6167 22.9287 17.1144 22.916 17.6253Z" stroke="white" stroke-width="2" stroke-linecap="round" stroke-linejoin="round"/>
</svg>
