<svg width="25" height="25" viewBox="0 0 25 25" fill="none" xmlns="http://www.w3.org/2000/svg">
<path d="M22.916 17.6238V20.7488C22.9172 21.0389 22.8578 21.3261 22.7415 21.5919C22.6253 21.8577 22.4549 22.0963 22.2411 22.2924C22.0273 22.4885 21.7749 22.6378 21.5001 22.7308C21.2253 22.8237 20.9341 22.8582 20.6452 22.8321C17.4398 22.4838 14.3608 21.3885 11.6556 19.6342C9.13874 18.0349 7.0049 15.9011 5.40559 13.3842C3.64515 10.6667 2.54959 7.57275 2.20767 4.35297C2.18164 4.06491 2.21588 3.77459 2.30819 3.50049C2.40051 3.22639 2.54889 2.97452 2.74389 2.7609C2.93888 2.54729 3.17622 2.37662 3.44079 2.25976C3.70536 2.1429 3.99136 2.0824 4.28059 2.08213H7.40559C7.91112 2.07716 8.40121 2.25617 8.78451 2.58581C9.16781 2.91545 9.41817 3.37322 9.48892 3.8738C9.62082 4.87387 9.86543 5.85581 10.2181 6.80088C10.3582 7.17372 10.3886 7.57892 10.3055 7.96847C10.2224 8.35801 10.0294 8.71558 9.74934 8.9988L8.42642 10.3217C9.90929 12.9296 12.0686 15.0888 14.6764 16.5717L15.9993 15.2488C16.2826 14.9687 16.6401 14.7757 17.0297 14.6926C17.4192 14.6096 17.8244 14.6399 18.1973 14.78C19.1423 15.1327 20.1243 15.3773 21.1243 15.5092C21.6303 15.5806 22.0925 15.8355 22.4228 16.2254C22.7532 16.6152 22.9287 17.1129 22.916 17.6238Z" stroke="#0553C8" stroke-width="2" stroke-linecap="round" stroke-linejoin="round"/>
</svg>
