<svg width="35" height="35" viewBox="0 0 35 35" fill="none" xmlns="http://www.w3.org/2000/svg">
<path d="M26.442 2.28125H16.7495C15.3483 2.28125 14.2083 3.42123 14.2083 4.82244V15.9111C13.9238 15.879 13.6349 15.8619 13.342 15.8619C9.11485 15.8619 5.67578 19.3009 5.67578 23.528C5.67578 27.7552 9.11485 31.1943 13.342 31.1943C14.0995 31.1943 14.8313 31.0833 15.5229 30.8778C15.8868 31.0792 16.3049 31.1943 16.7495 31.1943H26.442C27.8432 31.1943 28.9832 30.0543 28.9832 28.6531V4.82244C28.9832 3.42123 27.8432 2.28125 26.442 2.28125ZM13.342 29.5002C10.049 29.5002 7.36991 26.8211 7.36991 23.528C7.36991 20.235 10.049 17.556 13.342 17.556C16.635 17.556 19.3141 20.235 19.3141 23.528C19.3141 26.8211 16.635 29.5002 13.342 29.5002ZM27.2891 28.6531C27.2891 29.1202 26.9091 29.5002 26.442 29.5002H18.1428C19.0193 28.7942 19.7379 27.8998 20.2362 26.8789H27.2891V28.6531ZM27.2891 25.1847H20.8274C20.9454 24.651 21.0082 24.0968 21.0082 23.5281C21.0082 23.0863 20.9702 22.6534 20.8981 22.2319H27.2891V25.1847ZM27.2891 20.5377H20.4008C19.9088 19.3807 19.1402 18.3688 18.1787 17.5848H27.2891V20.5377ZM27.2891 15.8907H15.9024V12.9378H27.2891V15.8907ZM27.2891 11.2437H15.9024V8.29082H27.2891V11.2437ZM27.2891 6.59669H15.9024V4.82244C15.9024 4.35537 16.2824 3.97537 16.7495 3.97537H26.442C26.9091 3.97537 27.2891 4.35537 27.2891 4.82244V6.59669Z" fill="url(#paint0_linear)"/>
<defs>
<linearGradient id="paint0_linear" x1="17.3295" y1="2.28125" x2="17.3295" y2="31.1943" gradientUnits="userSpaceOnUse">
<stop stop-color="#08B29B"/>
<stop offset="1" stop-color="#0553C8"/>
</linearGradient>
</defs>
</svg>
