<svg width="13" height="13" viewBox="0 0 13 13" fill="none" xmlns="http://www.w3.org/2000/svg">
<path d="M10.8333 4.875H5.95833C5.36002 4.875 4.875 5.36002 4.875 5.95833V10.8333C4.875 11.4316 5.36002 11.9167 5.95833 11.9167H10.8333C11.4316 11.9167 11.9167 11.4316 11.9167 10.8333V5.95833C11.9167 5.36002 11.4316 4.875 10.8333 4.875Z" stroke="white" stroke-linecap="round" stroke-linejoin="round"/>
<path d="M2.70801 8.12467H2.16634C1.87902 8.12467 1.60347 8.01054 1.40031 7.80737C1.19714 7.60421 1.08301 7.32866 1.08301 7.04134V2.16634C1.08301 1.87902 1.19714 1.60347 1.40031 1.40031C1.60347 1.19714 1.87902 1.08301 2.16634 1.08301H7.04134C7.32866 1.08301 7.60421 1.19714 7.80737 1.40031C8.01054 1.60347 8.12467 1.87902 8.12467 2.16634V2.70801" stroke="white" stroke-linecap="round" stroke-linejoin="round"/>
</svg>
