<svg width="41" height="41" viewBox="0 0 41 41" fill="none" xmlns="http://www.w3.org/2000/svg">
<g clip-path="url(#clip0)">
<path d="M20.5 33.1719C13.5235 33.1719 7.84766 27.496 7.84766 20.5195C7.84766 13.543 13.5235 7.86719 20.5 7.86719C27.4765 7.86719 33.1523 13.543 33.1523 20.5195C33.1523 27.496 27.4765 33.1719 20.5 33.1719ZM20.5 9.46875C14.4066 9.46875 9.44922 14.4261 9.44922 20.5195C9.44922 26.613 14.4066 31.5703 20.5 31.5703C26.5934 31.5703 31.5508 26.613 31.5508 20.5195C31.5508 14.4261 26.5934 9.46875 20.5 9.46875Z" fill="url(#paint0_linear)"/>
<path d="M20.5 29.9687C15.2896 29.9687 11.0508 25.7299 11.0508 20.5195C11.0508 15.3091 15.2896 11.0703 20.5 11.0703C25.7104 11.0703 29.9492 15.3091 29.9492 20.5195C29.9492 25.7299 25.7104 29.9687 20.5 29.9687ZM20.5 12.6719C16.173 12.6719 12.6523 16.1922 12.6523 20.5195C12.6523 24.8469 16.173 28.3672 20.5 28.3672C24.827 28.3672 28.3477 24.8469 28.3477 20.5195C28.3477 16.1922 24.827 12.6719 20.5 12.6719Z" fill="url(#paint1_linear)"/>
<path d="M20.5 26.1345C20.3427 26.1345 20.1856 26.0882 20.0499 25.9959C19.9986 25.9612 18.7849 25.1326 17.554 23.9937C15.7644 22.3383 14.8945 20.9375 14.8945 19.7114C14.8945 17.5908 16.502 15.8657 18.4783 15.8657C19.2034 15.8657 19.9091 16.1041 20.5 16.5364C21.0912 16.1041 21.7966 15.8657 22.5217 15.8657C24.498 15.8657 26.1055 17.5908 26.1055 19.7114C26.1055 20.9375 25.2356 22.3383 23.446 23.9937C22.2151 25.1326 21.0014 25.9612 20.9501 25.9962C20.8144 26.0885 20.6573 26.1345 20.5 26.1345ZM18.4783 17.4673C17.3854 17.4673 16.4961 18.4739 16.4961 19.7114C16.4961 20.9357 18.7057 23.0443 20.5 24.3537C22.2939 23.0446 24.5039 20.9357 24.5039 19.7114C24.5039 18.4739 23.6146 17.4673 22.5217 17.4673C21.9855 17.4673 21.4825 17.7072 21.1056 18.1429C20.9536 18.3187 20.7324 18.4198 20.5 18.4198C20.2676 18.4198 20.0464 18.3187 19.8944 18.1426C19.5175 17.7072 19.0148 17.4673 18.4783 17.4673Z" fill="url(#paint2_linear)"/>
<path d="M38.5977 24.2822C38.3871 24.2822 38.1804 24.1965 38.0315 24.0476C37.8826 23.8987 37.7969 23.6923 37.7969 23.4814C37.7969 23.2709 37.8826 23.0645 38.0315 22.9153C38.1804 22.7664 38.3871 22.6807 38.5977 22.6807C38.8082 22.6807 39.0149 22.7664 39.1638 22.9153C39.3127 23.0645 39.3984 23.2709 39.3984 23.4814C39.3984 23.6923 39.3127 23.8987 39.1638 24.0476C39.0149 24.1965 38.8082 24.2822 38.5977 24.2822Z" fill="url(#paint3_linear)"/>
<path d="M40.1992 4.32422C39.7569 4.32422 39.3984 4.68269 39.3984 5.125V12.5388C39.3984 13.1641 38.8901 13.6724 38.2651 13.673H37.7969V5.125C37.7969 4.68269 37.4384 4.32422 36.9961 4.32422C36.5538 4.32422 36.1953 4.68269 36.1953 5.125V13.673H35.727C35.1021 13.6727 34.5938 13.1641 34.5938 12.5388V5.125C34.5938 4.68269 34.2353 4.32422 33.793 4.32422C33.3507 4.32422 32.9922 4.68269 32.9922 5.125V12.5388C32.9922 13.6427 33.65 14.5955 34.5938 15.0275V34.2931C34.5938 35.6179 35.6714 36.6955 36.9961 36.6955C38.3208 36.6955 39.3984 35.6179 39.3984 34.2931V27.0045C39.3984 26.5622 39.04 26.2037 38.5977 26.2037C38.1553 26.2037 37.7969 26.5622 37.7969 27.0045V34.2931C37.7969 34.7348 37.4378 35.0939 36.9961 35.0939C36.5544 35.0939 36.1953 34.7348 36.1953 34.2931V15.2746H37.7969V20.0383C37.7969 20.4806 38.1553 20.8391 38.5977 20.8391C39.04 20.8391 39.3984 20.4806 39.3984 20.0383V15.0275C40.3422 14.5955 41 13.6427 41 12.5388V5.125C41 4.68269 40.6415 4.32422 40.1992 4.32422V4.32422Z" fill="url(#paint4_linear)"/>
<path d="M2.40234 36.6952C1.07761 36.6952 0 35.6176 0 34.2929V28.2861C0 27.8441 0.358475 27.4853 0.800781 27.4853C1.24309 27.4853 1.60156 27.8441 1.60156 28.2861V34.2929C1.60156 34.7346 1.96066 35.0937 2.40234 35.0937C2.84402 35.0937 3.20312 34.7346 3.20312 34.2929V22.0409C3.20312 21.8286 3.28758 21.6249 3.43773 21.4748C3.58788 21.3246 3.79151 21.2402 4.00391 21.2402H5.125V17.5172C5.125 13.7507 3.88629 10.1747 1.60156 7.25402V21.7998C1.60156 22.2421 1.24309 22.6006 0.800781 22.6006C0.358475 22.6006 0 22.2421 0 21.7998V5.14446C0 4.82071 0.19519 4.52855 0.494232 4.40468C0.793587 4.28081 1.13799 4.34931 1.36696 4.57829C3.07488 6.2862 4.4093 8.28346 5.33364 10.5147C6.25798 12.7463 6.72656 15.102 6.72656 17.5175V22.0409C6.72656 22.2533 6.64211 22.457 6.49196 22.6071C6.34181 22.7573 6.13818 22.8417 5.92578 22.8417H4.80469V34.2929C4.80469 35.6176 3.72707 36.6952 2.40234 36.6952Z" fill="url(#paint5_linear)"/>
<path d="M0.800781 25.9849C0.590263 25.9849 0.383499 25.8991 0.234604 25.7503C0.0857086 25.6014 0 25.3946 0 25.1841C0 24.9736 0.0857086 24.7668 0.234604 24.6179C0.383499 24.469 0.590263 24.3833 0.800781 24.3833C1.0113 24.3833 1.21806 24.469 1.36696 24.6179C1.51585 24.7668 1.60156 24.9736 1.60156 25.1841C1.60156 25.3946 1.51585 25.6014 1.36696 25.7503C1.21806 25.8991 1.0113 25.9849 0.800781 25.9849Z" fill="url(#paint6_linear)"/>
</g>
<defs>
<linearGradient id="paint0_linear" x1="20.5" y1="7.86719" x2="20.5" y2="33.1719" gradientUnits="userSpaceOnUse">
<stop stop-color="#F20000"/>
<stop offset="1" stop-color="#B80909"/>
</linearGradient>
<linearGradient id="paint1_linear" x1="20.5" y1="11.0703" x2="20.5" y2="29.9687" gradientUnits="userSpaceOnUse">
<stop stop-color="#F20000"/>
<stop offset="1" stop-color="#B80909"/>
</linearGradient>
<linearGradient id="paint2_linear" x1="20.5" y1="15.8657" x2="20.5" y2="26.1345" gradientUnits="userSpaceOnUse">
<stop stop-color="#F20000"/>
<stop offset="1" stop-color="#B80909"/>
</linearGradient>
<linearGradient id="paint3_linear" x1="38.5977" y1="22.6807" x2="38.5977" y2="24.2822" gradientUnits="userSpaceOnUse">
<stop stop-color="#F20000"/>
<stop offset="1" stop-color="#B80909"/>
</linearGradient>
<linearGradient id="paint4_linear" x1="36.9961" y1="4.32422" x2="36.9961" y2="36.6955" gradientUnits="userSpaceOnUse">
<stop stop-color="#F20000"/>
<stop offset="1" stop-color="#B80909"/>
</linearGradient>
<linearGradient id="paint5_linear" x1="3.36328" y1="4.34375" x2="3.36328" y2="36.6952" gradientUnits="userSpaceOnUse">
<stop stop-color="#F20000"/>
<stop offset="1" stop-color="#B80909"/>
</linearGradient>
<linearGradient id="paint6_linear" x1="0.800781" y1="24.3833" x2="0.800781" y2="25.9849" gradientUnits="userSpaceOnUse">
<stop stop-color="#F20000"/>
<stop offset="1" stop-color="#B80909"/>
</linearGradient>
<clipPath id="clip0">
<rect width="41" height="41" fill="white"/>
</clipPath>
</defs>
</svg>
