<svg width="66" height="66" viewBox="0 0 66 66" fill="none" xmlns="http://www.w3.org/2000/svg">
<path d="M60.2436 41.2896C60.2436 41.2896 62.9007 27.2382 55.6632 19.272C49.2744 12.2351 39.1632 9.50404 30.9158 15.312C27.9841 17.3844 25.8391 21.4104 22.4071 22.6539C18.5593 24.0491 13.6133 24.552 10.04 30.5264C6.46678 36.5007 7.74982 44.1791 12.5137 48.2658C17.2776 52.3526 25.6147 48.3648 33.1268 48.0665C40.6389 47.7682 56.3047 58.6292 60.2436 41.2896Z" fill="#F20000"/>
<path opacity="0.8" d="M60.2436 41.2896C60.2436 41.2896 62.9007 27.2382 55.6632 19.272C49.2744 12.2351 39.1632 9.50404 30.9158 15.312C27.9841 17.3844 25.8391 21.4104 22.4071 22.6539C18.5593 24.0491 13.6133 24.552 10.04 30.5264C6.46678 36.5007 7.74982 44.1791 12.5137 48.2658C17.2776 52.3526 25.6147 48.3648 33.1268 48.0665C40.6389 47.7682 56.3047 58.6292 60.2436 41.2896Z" fill="white"/>
<path d="M34.373 20.064H42.755V22.4479H34.373C34.1934 22.4479 34.0211 22.3765 33.8941 22.2495C33.7671 22.1226 33.6958 21.9503 33.6958 21.7707V20.7398C33.6962 20.5604 33.7676 20.3885 33.8946 20.2618C34.0216 20.1351 34.1936 20.064 34.373 20.064Z" fill="#08B29B"/>
<path d="M42.7549 17.0903H34.8877C34.5726 17.0903 34.2705 17.2155 34.0477 17.4383C33.8249 17.6611 33.6997 17.9633 33.6997 18.2783C33.6997 18.5934 33.8249 18.8956 34.0477 19.1184C34.2705 19.3412 34.5726 19.4663 34.8877 19.4663H42.7549V17.0903Z" fill="#08B29B"/>
<path d="M46.3307 14.3486H43.4702V22.3346H46.3307V14.3486Z" fill="#08B29B"/>
<path d="M49.9068 14.3486H47.0464V22.3346H49.9068V14.3486Z" fill="#08B29B"/>
<path d="M53.4825 14.3486H50.6221V22.3346H53.4825V14.3486Z" fill="#08B29B"/>
<path d="M34.373 20.064H42.755V22.4479H34.373C34.1934 22.4479 34.0211 22.3765 33.8941 22.2495C33.7671 22.1226 33.6958 21.9503 33.6958 21.7707V20.7398C33.6962 20.5604 33.7676 20.3885 33.8946 20.2618C34.0216 20.1351 34.1936 20.064 34.373 20.064Z" fill="#F20000"/>
<path d="M42.7549 17.0903H34.8877C34.5726 17.0903 34.2705 17.2155 34.0477 17.4383C33.8249 17.6611 33.6997 17.9633 33.6997 18.2783C33.6997 18.5934 33.8249 18.8956 34.0477 19.1184C34.2705 19.3412 34.5726 19.4663 34.8877 19.4663H42.7549V17.0903Z" fill="#F20000"/>
<path d="M46.3307 14.3486H43.4702V22.3346H46.3307V14.3486Z" fill="#0553C8"/>
<path opacity="0.4" d="M49.9068 14.3486H47.0464V22.3346H49.9068V14.3486Z" fill="white"/>
<path opacity="0.4" d="M53.4825 14.3486H50.6221V22.3346H53.4825V14.3486Z" fill="white"/>
<path d="M55.2103 22.5483H32.7466V23.8789H34.5695V27.1789H35.6545V23.8789H51.773V27.1789H52.8581V23.8789H55.2103V22.5483Z" fill="#08B29B"/>
<path opacity="0.1" d="M55.2103 22.5483H32.7466V23.8789H34.5695V27.1789H35.6545V23.8789H51.773V27.1789H52.8581V23.8789H55.2103V22.5483Z" fill="black"/>
<path d="M28.3802 26.5081C28.1245 26.5911 27.8738 26.6885 27.6291 26.7998C27.7611 26.7008 27.8931 26.6005 28.0251 26.4962C28.6219 26.0183 29.1892 25.5048 29.7239 24.9584C29.0947 25.569 28.4224 26.1336 27.7123 26.648C27.8096 26.4778 27.8956 26.3014 27.9697 26.12C28.1017 25.7873 28.1267 25.46 27.8086 25.2739C27.4126 25.0547 26.944 25.3834 27.0694 25.9471C27.1443 26.2598 27.2917 26.5506 27.4997 26.7958C27.0384 27.1159 26.5564 27.4051 26.057 27.6617L26.0095 27.6855C26.1151 27.5029 26.2082 27.3132 26.288 27.1179C26.42 26.7853 26.4464 26.4513 26.1283 26.2718C25.7323 26.0513 25.2623 26.38 25.3891 26.945C25.4628 27.2538 25.6074 27.5412 25.8115 27.7845C25.2109 28.0802 24.5905 28.331 23.9727 28.6042L23.8829 28.6451C24.0036 28.5153 24.1156 28.3778 24.2182 28.2333C24.4189 27.9389 24.5271 27.6208 24.2591 27.3727C23.9305 27.0677 23.3919 27.2776 23.3827 27.8558C23.3833 28.1764 23.4578 28.4926 23.6005 28.7798C23.0233 29.0472 22.4749 29.3727 21.9637 29.7513L21.9478 29.7632C22.0177 29.6541 22.0807 29.5408 22.1366 29.4239C22.2884 29.1019 22.3438 28.7639 22.0402 28.5686C21.9783 28.5256 21.9075 28.4972 21.833 28.4857C21.7585 28.4741 21.6824 28.4797 21.6104 28.502C21.5383 28.5242 21.4724 28.5626 21.4174 28.6142C21.3624 28.6657 21.3199 28.7291 21.2931 28.7996C21.2535 28.7363 21.1986 28.6841 21.1334 28.6478C20.8271 28.4709 20.5262 28.6623 20.2688 28.9329C20.2015 29.0029 20.1368 29.0781 20.0774 29.1547C20.2769 28.6015 20.5274 28.0681 20.8258 27.5614C21.1091 27.6866 21.4151 27.7522 21.7247 27.7541C22.3346 27.7541 22.592 27.2459 22.2923 26.9305C22.0495 26.6744 21.7063 26.7721 21.3829 26.9582C21.2759 27.0202 21.1717 27.0902 21.074 27.1615C21.3852 26.6944 21.7387 26.257 22.13 25.8547C22.3849 26.0607 22.6811 26.2097 22.9985 26.2916C23.5912 26.4381 23.9635 26.0078 23.7483 25.6316C23.5741 25.324 23.2203 25.3359 22.8586 25.4389C22.6896 25.49 22.5239 25.5513 22.3623 25.6223C22.5233 25.4653 22.691 25.3135 22.8599 25.1643C23.083 24.9742 23.3127 24.7907 23.5463 24.6125C23.7984 24.8131 24.0898 24.9584 24.4017 25.0389C24.9931 25.1854 25.3653 24.7551 25.1515 24.3789C24.9772 24.0713 24.6235 24.0845 24.2618 24.1875C24.1786 24.2113 24.0941 24.2403 24.0123 24.2707C24.3212 24.0502 24.6353 23.8351 24.9495 23.6199L25.2399 23.4219C25.5022 23.6405 25.8096 23.7983 26.1401 23.8839C26.7328 24.0304 27.1037 23.6001 26.8899 23.2239C26.7157 22.915 26.3619 22.9282 26.0002 23.0312C25.8598 23.0725 25.7218 23.1219 25.5871 23.179C25.6478 23.1368 25.7072 23.0932 25.7666 23.047C25.8775 22.9678 25.9857 22.8873 26.0939 22.8041C26.2259 22.7038 26.3579 22.5916 26.4899 22.486C26.5639 22.4266 26.6351 22.3633 26.7064 22.2986C26.9683 22.5211 27.2776 22.681 27.6106 22.7659C28.2033 22.9124 28.5755 22.4834 28.3617 22.1059C28.1875 21.7983 27.8337 21.8102 27.4707 21.9131C27.2722 21.9744 27.0778 22.048 26.8886 22.1336C27.1301 21.9092 27.3638 21.6755 27.5855 21.4313C27.6014 21.4142 27.6146 21.397 27.6291 21.3799C27.7255 21.2743 27.8192 21.1673 27.9103 21.0578C28.0013 20.9482 28.1175 20.7938 28.2178 20.6618C28.6244 20.1287 28.9586 19.5441 29.2118 18.9233C28.9475 19.5389 28.6017 20.1161 28.1835 20.6393C27.7717 21.1646 27.3121 21.6507 26.8107 22.0913L26.7566 22.1375C26.8714 21.9399 26.9728 21.7349 27.0602 21.5237C27.1922 21.1911 27.2186 20.8571 26.9005 20.6776C26.5045 20.4585 26.0345 20.7859 26.1613 21.3508C26.2419 21.683 26.4028 21.9903 26.6299 22.2458L26.5124 22.3461C26.4662 22.3844 26.4187 22.424 26.3711 22.4609C26.2933 22.5243 26.2141 22.585 26.1349 22.6444L26.0029 22.7421C25.8893 22.8253 25.7732 22.9084 25.657 22.9889L25.4762 23.0998L25.2861 23.2318C25.3967 23.042 25.4942 22.8449 25.5778 22.6418C25.7098 22.3091 25.7362 21.9752 25.4181 21.7957C25.0221 21.5752 24.5522 21.9039 24.6776 22.4689C24.7558 22.7904 24.9097 23.0886 25.1264 23.3387L24.9851 23.4298L24.4571 23.7704L24.3555 23.8377C24.2578 23.9011 24.1615 23.9697 24.0651 24.0317C24.0229 24.0595 23.9806 24.0872 23.9397 24.1162C23.8077 24.2086 23.6691 24.3023 23.5358 24.3987C23.6479 24.2057 23.7471 24.0055 23.8328 23.7994C23.9648 23.4668 23.9912 23.1315 23.6731 22.9533C23.2771 22.7329 22.8071 23.0615 22.9325 23.6252C23.0117 23.9518 23.1688 24.2544 23.3906 24.5069C23.1635 24.6733 22.9391 24.8449 22.72 25.0231C22.5616 25.1551 22.4045 25.295 22.2514 25.4349C22.3182 25.3113 22.3777 25.1839 22.4296 25.0534C22.5616 24.7208 22.588 24.3934 22.2699 24.2073C21.8739 23.9882 21.404 24.3155 21.5294 24.8805C21.6044 25.1895 21.7494 25.4772 21.9531 25.7213C21.5197 26.1518 21.1294 26.6235 20.7875 27.1298C20.8266 26.984 20.8562 26.8359 20.876 26.6863C20.9195 26.3325 20.8681 25.9999 20.5169 25.9035C20.084 25.7847 19.7025 26.2177 19.9612 26.7351C20.1097 27.0192 20.3221 27.265 20.5816 27.4532C20.2453 28.0023 19.9641 28.5832 19.7421 29.1877C19.7365 29.0612 19.7238 28.9351 19.7038 28.8101C19.6444 28.459 19.5019 28.1501 19.1375 28.162C18.6887 28.1699 18.4459 28.69 18.8405 29.1164C19.0513 29.3357 19.3083 29.5053 19.5929 29.6127C19.4409 30.0806 19.3167 30.5571 19.2207 31.0396C19.2062 31.1162 19.193 31.1927 19.1798 31.2693C19.1627 31.2829 19.1468 31.2979 19.1323 31.3142C19.1164 31.2482 19.0979 31.1822 19.0768 31.1175C18.9633 30.7796 18.7759 30.5011 18.4168 30.5644C17.9746 30.6423 17.8162 31.1967 18.2703 31.5531C18.5017 31.7302 18.7688 31.8549 19.0531 31.9187C19.0572 31.9319 19.0625 31.9447 19.0689 31.957C19.0201 32.32 18.9831 32.6843 18.9607 33.0513C18.9439 33.3241 18.9329 33.5982 18.9277 33.8737C18.5449 33.8737 18.2677 34.2921 18.5396 34.7475C18.6502 34.936 18.7921 35.1043 18.9593 35.2451C18.9923 35.7599 19.0425 36.2747 19.1111 36.7856C19.057 36.7356 18.9908 36.7007 18.919 36.6843C18.8472 36.6678 18.7724 36.6705 18.7019 36.6919C18.4604 36.7565 18.3521 36.9559 18.3139 37.1895C18.2297 37.2783 18.1825 37.3958 18.1819 37.5182C18.0023 37.2542 17.8334 36.9783 17.6697 36.7011C17.9204 36.5085 18.1281 36.2657 18.2795 35.9883C18.5673 35.4511 18.2439 34.9838 17.8241 35.0986C17.4823 35.191 17.407 35.5395 17.4176 35.9131C17.4233 36.0545 17.4366 36.1955 17.4572 36.3355L17.2922 36.0147C17.1443 35.7507 17.0189 35.4867 16.8803 35.2121C16.8447 35.1475 16.8143 35.0801 16.7853 35.0128C17.0674 34.8708 17.3169 34.6717 17.5179 34.4281C17.9007 33.9542 17.6697 33.4341 17.2367 33.4684C16.883 33.4948 16.7444 33.8235 16.685 34.1918C16.661 34.3527 16.6465 34.5149 16.6414 34.6775L16.5094 34.3871C16.2413 33.7293 16.0207 33.053 15.8494 32.3636C16.1672 32.2517 16.4564 32.0715 16.6969 31.8356C17.1259 31.4013 16.949 30.8614 16.5134 30.8509C16.1596 30.8429 15.9854 31.1558 15.8917 31.5109C15.8444 31.7048 15.8092 31.9014 15.7861 32.0996C15.6923 31.7036 15.6118 31.3076 15.5458 30.9023C15.4996 30.6529 15.4706 30.4007 15.4389 30.1486C15.7824 30.082 16.1058 29.937 16.384 29.7249C16.8658 29.3513 16.7589 28.793 16.3286 28.7257C15.9801 28.6715 15.7689 28.9593 15.6263 29.3051C15.5429 29.5245 15.4733 29.7489 15.4178 29.977C15.3901 29.684 15.3597 29.3923 15.3465 29.0992C15.3082 28.4943 15.3109 27.8875 15.3544 27.2829C15.2924 27.8871 15.2712 28.4948 15.2911 29.1019C15.2911 29.3817 15.3148 29.6602 15.332 29.9401C15.2571 29.7497 15.1689 29.5649 15.068 29.387C14.8858 29.0807 14.6416 28.8497 14.305 28.991C13.8892 29.1613 13.8536 29.7381 14.3737 29.9889C14.6803 30.1293 15.0164 30.1932 15.3531 30.175C15.3769 30.4245 15.398 30.674 15.4349 30.9208C15.4877 31.3168 15.5551 31.7128 15.6329 32.0969C15.5479 31.9478 15.4531 31.8045 15.3491 31.6679C15.1274 31.3881 14.8568 31.1901 14.54 31.3709C14.144 31.594 14.1889 32.1695 14.738 32.3504C15.0491 32.4476 15.3789 32.4697 15.7003 32.4151C15.8517 33.1126 16.0524 33.7985 16.3009 34.4677L16.3801 34.6683C16.3088 34.5772 16.2322 34.4835 16.1517 34.4043C15.9035 34.1482 15.6145 33.9793 15.3175 34.1905C14.9518 34.4545 15.0535 35.0207 15.6118 35.1461C15.9244 35.2098 16.2474 35.2003 16.5556 35.1184C16.5833 35.1871 16.6111 35.2504 16.6441 35.323C16.7761 35.5976 16.8975 35.8801 17.0401 36.1507C17.0797 36.2285 17.1206 36.3051 17.1615 36.3817C17.0915 36.3223 17.0189 36.2642 16.9437 36.2114C16.6533 36.0055 16.3365 35.8933 16.0844 36.1573C15.7755 36.482 15.9761 37.0232 16.5543 37.0403C16.852 37.0443 17.147 36.9835 17.4189 36.8621C17.5839 37.1618 17.7555 37.4575 17.939 37.7479C18.0076 37.8587 18.0789 37.9683 18.1502 38.0779C18.0454 37.9801 17.9348 37.8888 17.8189 37.8046C17.5271 37.5987 17.2103 37.4865 16.9595 37.7505C16.6493 38.0752 16.85 38.6164 17.4281 38.6336C17.7587 38.6375 18.0855 38.5623 18.3812 38.4145C18.4762 38.5465 18.5752 38.6785 18.6782 38.8105C18.463 39.0599 18.533 39.4837 18.9699 39.6711C19.1843 39.7598 19.4126 39.8099 19.6444 39.8189C19.6708 39.8414 19.6985 39.8625 19.7263 39.8823L19.7408 39.8929C19.8424 40.273 19.9533 40.6505 20.0695 41.0254H18.1106V47.2439H23.0157V41.0215H20.7308C20.5341 40.3496 20.3691 39.7648 20.3348 39.749L20.2661 39.716C20.5236 39.6279 20.7629 39.4937 20.9723 39.32C21.437 38.924 21.305 38.3709 20.8733 38.3247C20.5209 38.2851 20.3229 38.5821 20.1975 38.9345C20.1613 39.0349 20.1305 39.1371 20.1051 39.2408C20.08 39.1471 20.0549 39.0533 20.0312 38.9596C19.9599 38.6824 19.8992 38.4026 19.8332 38.1241C20.1128 38.0345 20.3724 37.8915 20.5975 37.703C21.0621 37.307 20.9301 36.7552 20.4985 36.7077C20.146 36.6694 19.9493 36.9717 19.8226 37.3175C19.7862 37.4197 19.7549 37.5237 19.7289 37.6291C19.688 37.4258 19.6497 37.2225 19.6141 37.0179C19.5877 36.8648 19.5639 36.713 19.5415 36.5612C19.5322 36.3447 19.5296 36.1269 19.5322 35.9104C19.5322 35.7903 19.5322 35.6715 19.5428 35.5514C19.8046 35.6361 20.0799 35.6714 20.3546 35.6557C20.9644 35.6161 21.1888 35.0947 20.8707 34.7977C20.6067 34.5574 20.2754 34.6762 19.9639 34.8821C19.826 34.9774 19.6938 35.0805 19.5679 35.191C19.6053 34.6806 19.683 34.1739 19.8002 33.6757C19.8697 33.3834 19.9552 33.0952 20.0563 32.8124C20.336 32.9091 20.6319 32.9504 20.9275 32.9338C21.536 32.8955 21.7617 32.3728 21.4436 32.0771C21.1796 31.8356 20.8483 31.9557 20.5367 32.1616C20.4262 32.2366 20.3196 32.3172 20.2173 32.4032C20.3346 32.1268 20.4714 31.859 20.6265 31.6019C20.9375 31.0845 21.3266 30.6183 21.7802 30.2199C22.0138 30.4339 22.2894 30.5971 22.5893 30.6991C23.1701 30.8891 23.5727 30.4879 23.3813 30.0945C23.2309 29.7751 22.8745 29.7605 22.5075 29.8305C22.3688 29.8613 22.2318 29.8992 22.097 29.944H22.1062C22.604 29.5546 23.1405 29.2176 23.7074 28.9382C23.908 29.2003 24.1629 29.4159 24.4545 29.5705C24.997 29.8503 25.459 29.5203 25.3389 29.1019C25.2412 28.7613 24.8914 28.6913 24.5179 28.7059C24.3714 28.714 24.2256 28.7303 24.0809 28.7547C24.6842 28.4696 25.2993 28.2003 25.8933 27.8861L25.9065 27.8795C26.1735 28.1089 26.4896 28.2737 26.8305 28.3613C27.4232 28.5079 27.7954 28.0775 27.5803 27.7013C27.4073 27.3925 27.0523 27.4057 26.6906 27.5086C26.5903 27.5363 26.4913 27.5733 26.3936 27.6103C26.7897 27.3795 27.1739 27.1288 27.5446 26.8592L27.5763 26.8922C27.5756 26.8874 27.5756 26.8825 27.5763 26.8777C27.8429 27.1089 28.159 27.276 28.5003 27.3661C29.093 27.5113 29.4652 27.0823 29.2514 26.7061C29.0903 26.3998 28.7339 26.3998 28.3802 26.5081ZM19.028 38.627C18.9079 38.4857 18.7917 38.3379 18.6795 38.1887C18.7072 38.1637 18.7363 38.1359 18.7653 38.1069C18.9323 38.1594 19.1053 38.1904 19.2801 38.1993V38.227L19.3619 38.2112C19.4042 38.4211 19.4491 38.6323 19.4939 38.8421C19.4389 38.7705 19.3672 38.7135 19.2851 38.676C19.2029 38.6385 19.1129 38.6216 19.0227 38.627H19.028ZM19.4649 33.5925C19.424 33.7496 19.3883 33.908 19.3553 34.0664L19.3355 34.0387C19.3355 33.7131 19.3404 33.3879 19.3501 33.0632C19.3593 32.8348 19.3765 32.6078 19.3963 32.3821C19.5053 32.4946 19.6261 32.5951 19.7566 32.6817C19.6412 32.9797 19.542 33.2837 19.4596 33.5925H19.4649ZM20.014 32.0943C20.014 32.0349 20.0272 31.9742 20.0312 31.9161C20.0312 31.8857 20.0312 31.8554 20.0312 31.8263C20.0787 31.8118 20.1275 31.7947 20.1764 31.7749C20.1157 31.8805 20.0642 31.9861 20.0087 32.0943H20.014ZM20.7097 30.9631C20.6865 30.9103 20.6529 30.8628 20.6109 30.8234C20.569 30.7839 20.5195 30.7533 20.4655 30.7334C20.1355 30.6014 19.8675 30.8416 19.655 31.1479L19.6444 31.1637L19.6233 31.1571L19.5547 31.1479C19.5547 31.1294 19.5613 31.1109 19.5639 31.0924C19.6488 30.6098 19.763 30.1329 19.9058 29.6642C20.2128 29.7025 20.5244 29.6782 20.8219 29.5929C21.0038 29.5467 21.1631 29.4366 21.2707 29.2827C21.3305 29.5518 21.4426 29.8066 21.6007 30.0325C21.2709 30.3112 20.9706 30.6231 20.7044 30.9631H20.7097Z" fill="#08B29B"/>
<path d="M31.1072 28.6782H54.5729C54.8529 28.6782 55.1215 28.7895 55.3196 28.9875C55.5176 29.1856 55.6289 29.4542 55.6289 29.7342V46.1999H30.0552V29.7303C30.0562 29.4516 30.1674 29.1846 30.3645 28.9875C30.5615 28.7904 30.8285 28.6793 31.1072 28.6782Z" fill="white" stroke="#DDDDDD" stroke-width="0.5" stroke-linecap="round" stroke-linejoin="round"/>
<path d="M59.4608 53.9445H26.2192L30.0552 46.1987H55.6249L59.4608 53.9445Z" fill="#DDDDDD" stroke="#DDDDDD" stroke-width="0.5" stroke-linecap="round" stroke-linejoin="round"/>
<path d="M59.4753 53.9429H26.2192V54.4141H59.4753V53.9429Z" fill="#F20000" stroke="#DDDDDD" stroke-width="0.5" stroke-linecap="round" stroke-linejoin="round"/>
<path opacity="0.15" d="M51.732 33.4289V46.1128L48.0452 50.9189L47.4248 51.1512L28.5118 53.9417V54.5621L21.5845 54.9343V48.1284H33.3958V33.3682L51.732 33.4289Z" fill="black"/>
<path d="M17.3368 46.7674C16.4854 46.8096 15.5627 47.4591 15.5627 47.4591L5.93994 54.9342H21.5846C21.5846 54.9342 31.4621 47.4802 31.7578 47.2664C32.2264 46.9284 33.1557 46.7568 33.1557 46.7568L32.7161 46.7674H17.3368Z" fill="white" stroke="#DDDDDD" stroke-width="0.5" stroke-linecap="round" stroke-linejoin="round"/>
<path d="M50.1703 28.9292C49.9651 28.929 49.7618 28.9693 49.5722 29.0478C49.3826 29.1263 49.2103 29.2415 49.0653 29.3866C48.9202 29.5318 48.8052 29.7042 48.7269 29.8939C48.6486 30.0836 48.6084 30.2869 48.6088 30.4921V49.6862C48.6083 49.9393 48.5471 50.1887 48.4304 50.4133C48.3137 50.638 48.1448 50.8314 47.938 50.9773C47.7312 51.1232 47.4924 51.2175 47.2416 51.2522C46.9908 51.2868 46.7354 51.2609 46.4968 51.1765L34.6524 46.9696C34.0312 46.7484 33.3593 46.7108 32.7173 46.8614V30.4921C32.7173 30.0779 32.8818 29.6807 33.1747 29.3879C33.4675 29.095 33.8647 28.9305 34.2788 28.9305L50.1703 28.9292Z" fill="white"/>
<path d="M36.1074 47.4868L46.4958 51.1762C46.7345 51.2606 46.9899 51.2865 47.2407 51.2519C47.4914 51.2172 47.7302 51.123 47.9371 50.977C48.1439 50.8311 48.3127 50.6377 48.4294 50.413C48.5461 50.1884 48.6073 49.9391 48.6078 49.6859V47.4868H36.1074Z" fill="white"/>
<path opacity="0.6" d="M36.1074 47.4868L46.4958 51.1762C46.7345 51.2606 46.9899 51.2865 47.2407 51.2519C47.4914 51.2172 47.7302 51.123 47.9371 50.977C48.1439 50.8311 48.3127 50.6377 48.4294 50.413C48.5461 50.1884 48.6073 49.9391 48.6078 49.6859V47.4868H36.1074Z" fill="white"/>
<path d="M50.1703 28.9292C49.9651 28.929 49.7618 28.9693 49.5722 29.0478C49.3826 29.1263 49.2103 29.2415 49.0653 29.3866C48.9202 29.5318 48.8052 29.7042 48.7269 29.8939C48.6486 30.0836 48.6084 30.2869 48.6088 30.4921V49.6862C48.6083 49.9393 48.5471 50.1887 48.4304 50.4133C48.3137 50.638 48.1448 50.8314 47.938 50.9773C47.7312 51.1232 47.4924 51.2175 47.2416 51.2522C46.9908 51.2868 46.7354 51.2609 46.4968 51.1765L34.6524 46.9696C34.0312 46.7484 33.3593 46.7108 32.7173 46.8614V30.4921C32.7173 30.0779 32.8818 29.6807 33.1747 29.3879C33.4675 29.095 33.8647 28.9305 34.2788 28.9305L50.1703 28.9292Z" stroke="#DDDDDD" stroke-width="0.5" stroke-linecap="round" stroke-linejoin="round"/>
<path d="M47.0274 51.2701H31.1346C30.9545 51.2693 30.7759 51.2376 30.6066 51.1764L27.8623 50.2114L31.2745 47.5846C31.7352 47.1963 32.2895 46.9352 32.8822 46.8273C33.475 46.7194 34.0857 46.7684 34.6537 46.9695L46.4981 51.1764C46.6678 51.2377 46.8469 51.2694 47.0274 51.2701Z" fill="white"/>
<path d="M47.0277 51.2701H31.1349C30.9549 51.2693 30.7763 51.2376 30.6069 51.1764L27.6924 50.16L31.2722 47.5846C31.7329 47.1963 32.2872 46.9352 32.88 46.8273C33.4727 46.7194 34.0834 46.7684 34.6514 46.9695L46.4958 51.1764C46.6664 51.238 46.8463 51.2697 47.0277 51.2701Z" fill="white"/>
<path opacity="0.2" d="M47.0277 51.2701H31.1349C30.9549 51.2693 30.7763 51.2376 30.6069 51.1764L27.6924 50.16L31.2722 47.5846C31.7329 47.1963 32.2872 46.9352 32.88 46.8273C33.4727 46.7194 34.0834 46.7684 34.6514 46.9695L46.4958 51.1764C46.6664 51.238 46.8463 51.2697 47.0277 51.2701Z" fill="black"/>
<path d="M47.0274 51.2701H31.1346C30.9545 51.2693 30.7759 51.2376 30.6066 51.1764L27.8623 50.2114L31.2745 47.5846C31.7352 47.1963 32.2895 46.9352 32.8822 46.8273C33.475 46.7194 34.0857 46.7684 34.6537 46.9695L46.4981 51.1764C46.6678 51.2377 46.8469 51.2694 47.0274 51.2701Z" stroke="#DDDDDD" stroke-width="0.5" stroke-linecap="round" stroke-linejoin="round"/>
<path d="M51.2738 29.3872C51.1294 29.2417 50.9574 29.1262 50.768 29.0476C50.5786 28.969 50.3754 28.9287 50.1703 28.9292C48.5441 28.9292 48.6087 30.4908 48.6087 30.4908V33.4291H51.7319V30.4921C51.7324 30.2868 51.6922 30.0834 51.6135 29.8938C51.5349 29.7041 51.4194 29.532 51.2738 29.3872Z" fill="white"/>
<path d="M51.2738 29.3872C51.1294 29.2417 50.9574 29.1262 50.768 29.0476C50.5786 28.969 50.3754 28.9287 50.1703 28.9292C48.5441 28.9292 48.6087 30.4908 48.6087 30.4908V33.4291H51.7319V30.4921C51.7324 30.2868 51.6922 30.0834 51.6135 29.8938C51.5349 29.7041 51.4194 29.532 51.2738 29.3872Z" fill="white"/>
<path opacity="0.2" d="M51.2738 29.3872C51.1294 29.2417 50.9574 29.1262 50.768 29.0476C50.5786 28.969 50.3754 28.9287 50.1703 28.9292C48.5441 28.9292 48.6087 30.4908 48.6087 30.4908V33.4291H51.7319V30.4921C51.7324 30.2868 51.6922 30.0834 51.6135 29.8938C51.5349 29.7041 51.4194 29.532 51.2738 29.3872Z" fill="black"/>
<path d="M51.2738 29.3872C51.1294 29.2417 50.9574 29.1262 50.768 29.0476C50.5786 28.969 50.3754 28.9287 50.1703 28.9292C48.5441 28.9292 48.6087 30.4908 48.6087 30.4908V33.4291H51.7319V30.4921C51.7324 30.2868 51.6922 30.0834 51.6135 29.8938C51.5349 29.7041 51.4194 29.532 51.2738 29.3872V29.3872Z" stroke="#DDDDDD" stroke-width="0.5" stroke-linecap="round" stroke-linejoin="round"/>
<g opacity="0.15">
<path opacity="0.15" d="M34 32.693V32.7207V33.3873V33.415V34.0816V34.1094V34.7746V34.8024V35.469V35.4967V36.1633V36.191V36.8563V36.884V37.5506V37.5783V38.2449V38.2726V38.9379V38.9656V39.6322V39.66V40.3543H35.5088V39.66V39.6322V38.9656V38.9379V38.2726V38.2449V37.5783V37.5506V36.884V36.8563V36.191V36.1633V35.4967V35.469V34.8024V34.7746V34.1094V34.0816V33.415V33.3873V32.7207V32.693V32H34V32.693Z" fill="black"/>
<path opacity="0.15" d="M45.8961 32H45.8644H44.4203H44.3873H42.9432H42.9102H41.4675H41.4345H39.9904H39.9574H38.5146H38.4816H37.0376H37.0046H35.5288V32.7207H37.0046H37.0376H38.4816H38.5146H39.9574H39.9904H41.4345H41.4675H42.9102H42.9432H44.3873H44.4203H45.8644H45.8961H47.3732V32H45.8961Z" fill="black"/>
</g>
<path d="M28.121 48.6266H15.4028L16.2806 47.96H28.9988L28.121 48.6266Z" fill="#F20000"/>
<path d="M25.3184 50.7513H12.6016L13.5955 50.0068H26.3124L25.3184 50.7513Z" fill="#F20000"/>
<path d="M21.038 54.0082H8.31982L16.2807 47.96H28.9989L21.038 54.0082Z" stroke="#FFC1C7" stroke-width="0.25" stroke-linecap="round" stroke-linejoin="round"/>
<path d="M17.5916 47.9824L9.66504 54.0043" stroke="#FFC1C7" stroke-width="0.25" stroke-linecap="round" stroke-linejoin="round"/>
<path d="M18.869 47.9824L10.9424 54.0043" stroke="#FFC1C7" stroke-width="0.25" stroke-linecap="round" stroke-linejoin="round"/>
<path d="M20.1458 47.9824L12.2192 54.0043" stroke="#FFC1C7" stroke-width="0.25" stroke-linecap="round" stroke-linejoin="round"/>
<path d="M21.4237 47.9824L13.4971 54.0043" stroke="#FFC1C7" stroke-width="0.25" stroke-linecap="round" stroke-linejoin="round"/>
<path d="M22.701 47.9824L14.7744 54.0043" stroke="#FFC1C7" stroke-width="0.25" stroke-linecap="round" stroke-linejoin="round"/>
<path d="M23.9787 47.9824L16.0508 54.0043" stroke="#FFC1C7" stroke-width="0.25" stroke-linecap="round" stroke-linejoin="round"/>
<path d="M25.2552 47.9824L17.3286 54.0043" stroke="#FFC1C7" stroke-width="0.25" stroke-linecap="round" stroke-linejoin="round"/>
<path d="M26.533 47.9824L18.6064 54.0043" stroke="#FFC1C7" stroke-width="0.25" stroke-linecap="round" stroke-linejoin="round"/>
<path d="M27.8107 47.9824L19.8828 54.0043" stroke="#FFC1C7" stroke-width="0.25" stroke-linecap="round" stroke-linejoin="round"/>
<path d="M14.624 49.2354H27.3039" stroke="#FFC1C7" stroke-width="0.25" stroke-linecap="round" stroke-linejoin="round"/>
<path d="M12.5991 50.7744H25.279" stroke="#FFC1C7" stroke-width="0.25" stroke-linecap="round" stroke-linejoin="round"/>
<path d="M11.5869 51.542H24.2668" stroke="#FFC1C7" stroke-width="0.25" stroke-linecap="round" stroke-linejoin="round"/>
<path d="M10.5742 52.312H23.2541" stroke="#FFC1C7" stroke-width="0.25" stroke-linecap="round" stroke-linejoin="round"/>
<path d="M9.56201 53.0815H22.2419" stroke="#FFC1C7" stroke-width="0.25" stroke-linecap="round" stroke-linejoin="round"/>
<path d="M41.7793 43H40.7793V45H41.7793V43Z" fill="#F20000" stroke="#B80909" stroke-width="0.1" stroke-miterlimit="10"/>
<path d="M42.7793 42H41.7793V45H42.7793V42Z" fill="#F20000" stroke="#B80909" stroke-width="0.1" stroke-miterlimit="10"/>
<path d="M43.7793 41H42.7793V45H43.7793V41Z" fill="#0553C8" stroke="#0143A5" stroke-width="0.1" stroke-miterlimit="10"/>
<path d="M46.7793 41H45.7793V45H46.7793V41Z" fill="#08B29B" stroke="#089985" stroke-width="0.1" stroke-miterlimit="10"/>
<path d="M44.7793 39H43.7793V45H44.7793V39Z" fill="#0553C8" stroke="#0143A5" stroke-width="0.1" stroke-miterlimit="10"/>
<path d="M45.7793 40H44.7793V45H45.7793V40Z" fill="#08B29B" stroke="#089985" stroke-width="0.1" stroke-miterlimit="10"/>
<path d="M36.4978 42.4978V44.9956C35.8354 44.9956 35.2 44.7325 34.7316 44.2641C34.2632 43.7956 34 43.1603 34 42.4978C34 41.8354 34.2632 41.2 34.7316 40.7316C35.2 40.2632 35.8354 40 36.4978 40V42.4978Z" fill="#0553C8" stroke="black" stroke-width="0.1" stroke-miterlimit="10"/>
<path d="M36.4976 42.4979L38.872 41.7256C38.9742 42.0377 39.0139 42.3668 38.9886 42.6943C38.9634 43.0217 38.8738 43.3409 38.725 43.6336C38.5761 43.9263 38.371 44.1868 38.1213 44.4001C37.8716 44.6134 37.5823 44.7753 37.2699 44.8766C37.021 44.9599 36.76 45.0016 36.4976 45V42.4979Z" fill="#08B29B" stroke="black" stroke-width="0.1" stroke-miterlimit="10"/>
<path d="M36.4976 42.498V40.0002C37.0263 39.994 37.5429 40.1586 37.9707 40.4695C38.3984 40.7803 38.7145 41.2209 38.872 41.7257L36.4976 42.498Z" fill="#F20000" stroke="black" stroke-width="0.1" stroke-miterlimit="10"/>
<rect x="34" y="36" width="13" height="1" rx="0.5" fill="#FFC1C7"/>
<rect x="34" y="34" width="13" height="1" rx="0.5" fill="#F20000"/>
<rect x="34" y="32" width="13" height="1" rx="0.5" fill="#F20000"/>
</svg>
