<svg width="44" height="44" viewBox="0 0 44 44" fill="none" xmlns="http://www.w3.org/2000/svg">
<g clip-path="url(#clip0)">
<path d="M39.1003 14.3614C38.3981 13.5914 38.3309 12.4308 38.9369 11.5389C39.8082 10.2565 40.246 8.75534 40.2028 7.19746C40.1507 5.31414 39.3818 3.53876 38.0378 2.19814C36.6931 0.856824 34.916 0.0935273 33.0337 0.0490117C31.0375 0.00166015 29.1544 0.742699 27.7275 2.13523C26.2956 3.5324 25.507 5.40421 25.507 7.40586C25.507 8.89963 25.952 10.338 26.794 11.5655C27.3814 12.4219 27.2953 13.6085 26.5893 14.3869C25.4576 15.6347 24.4747 17.2294 23.696 19.0675C21.1807 16.8319 17.873 15.472 14.2536 15.472C6.40025 15.472 0.0112305 21.8707 0.0112305 29.7359C0.0112305 37.6011 6.40025 43.9999 14.2535 43.9999C17.935 43.9999 21.2948 42.5936 23.8254 40.2892C24.342 41.4595 24.9414 42.5226 25.6179 43.4635L26.0035 43.9999H39.7089L40.0946 43.4636C42.5767 40.0121 44.0001 34.9329 44.0001 29.5281C44.0001 23.3953 42.1683 17.7256 39.1003 14.3614ZM29.5283 3.97764C30.4547 3.07393 31.6793 2.59259 32.9727 2.62361C34.1905 2.65249 35.3425 3.14861 36.2168 4.02061C37.0919 4.89357 37.5925 6.04702 37.6263 7.26862C37.6486 8.07025 37.475 8.84781 37.1223 9.54975H28.5904C28.2585 8.88829 28.0844 8.15825 28.0844 7.40569C28.0845 6.10365 28.5972 4.88618 29.5283 3.97764ZM29.7156 12.1252H36.0022C35.7856 13.5342 36.1916 14.9954 37.1951 16.0959C37.314 16.2262 37.4304 16.3632 37.5456 16.5033H28.1672C28.2764 16.3704 28.3867 16.2403 28.4993 16.1162C29.5128 14.9987 29.9274 13.5304 29.7156 12.1252ZM14.2535 41.4245C7.82149 41.4245 2.58867 36.181 2.58867 29.7359C2.58867 23.2908 7.82149 18.0473 14.2535 18.0473C20.6855 18.0473 25.9183 23.2908 25.9183 29.7359C25.9183 36.181 20.6856 41.4245 14.2535 41.4245ZM38.3674 41.4245H27.3455C26.7277 40.4686 26.191 39.373 25.742 38.156C27.4722 35.7945 28.4958 32.8829 28.4958 29.7359C28.4958 26.528 27.4327 23.5643 25.6412 21.1789C25.9035 20.4358 26.1995 19.7331 26.5257 19.0787H39.1865C39.5815 19.8708 39.9334 20.7321 40.2331 21.6513C41.0112 24.038 41.4225 26.7618 41.4225 29.5281C41.4226 34.1255 40.315 38.4151 38.3674 41.4245Z" fill="url(#paint0_linear)"/>
<path d="M12.9645 27.2515H15.5419V29.8268H12.9645V27.2515Z" fill="url(#paint1_linear)"/>
<path d="M9.31445 22.6777H11.8919V25.2531H9.31445V22.6777Z" fill="url(#paint2_linear)"/>
<path d="M16.6152 22.6777H19.1927V25.2531H16.6152V22.6777Z" fill="url(#paint3_linear)"/>
<path d="M0.537797 5.68623L2.70738 5.22371L3.17023 7.39148L5.69095 6.85403L5.22818 4.68643L7.39784 4.22391L6.85996 1.70526L4.69038 2.16769L4.22761 0L1.7068 0.537367L2.16966 2.70505L0 3.16748L0.537797 5.68623Z" fill="url(#paint4_linear)"/>
<path d="M16.9778 10.7191L16.5149 12.8868L19.0356 13.4242L19.4985 11.2565L21.6681 11.7189L22.2059 9.2002L20.0363 8.73777L20.499 6.57008L17.9783 6.03271L17.5155 8.20049L15.3459 7.73797L14.8081 10.2567L16.9778 10.7191Z" fill="url(#paint5_linear)"/>
<path d="M11.3796 4.42822L12.6676 2.1975L14.8992 3.48596L13.6113 5.71668L11.3796 4.42822Z" fill="url(#paint6_linear)"/>
<path d="M5.58325 12.3511L6.8712 10.1204L9.10281 11.4088L7.81487 13.6395L5.58325 12.3511Z" fill="url(#paint7_linear)"/>
</g>
<defs>
<linearGradient id="paint0_linear" x1="22.0056" y1="0.046875" x2="22.0056" y2="43.9999" gradientUnits="userSpaceOnUse">
<stop stop-color="#EA940B"/>
<stop offset="1" stop-color="#D1734A"/>
</linearGradient>
<linearGradient id="paint1_linear" x1="14.2532" y1="27.2515" x2="14.2532" y2="29.8268" gradientUnits="userSpaceOnUse">
<stop stop-color="#EA940B"/>
<stop offset="1" stop-color="#D1734A"/>
</linearGradient>
<linearGradient id="paint2_linear" x1="10.6032" y1="22.6777" x2="10.6032" y2="25.2531" gradientUnits="userSpaceOnUse">
<stop stop-color="#EA940B"/>
<stop offset="1" stop-color="#D1734A"/>
</linearGradient>
<linearGradient id="paint3_linear" x1="17.904" y1="22.6777" x2="17.904" y2="25.2531" gradientUnits="userSpaceOnUse">
<stop stop-color="#EA940B"/>
<stop offset="1" stop-color="#D1734A"/>
</linearGradient>
<linearGradient id="paint4_linear" x1="3.69892" y1="0" x2="3.69892" y2="7.39148" gradientUnits="userSpaceOnUse">
<stop stop-color="#EA940B"/>
<stop offset="1" stop-color="#D1734A"/>
</linearGradient>
<linearGradient id="paint5_linear" x1="18.507" y1="6.03271" x2="18.507" y2="13.4242" gradientUnits="userSpaceOnUse">
<stop stop-color="#EA940B"/>
<stop offset="1" stop-color="#D1734A"/>
</linearGradient>
<linearGradient id="paint6_linear" x1="12.0236" y1="3.31286" x2="14.2552" y2="4.60132" gradientUnits="userSpaceOnUse">
<stop stop-color="#EA940B"/>
<stop offset="1" stop-color="#D1734A"/>
</linearGradient>
<linearGradient id="paint7_linear" x1="6.22722" y1="11.2357" x2="8.45884" y2="12.5242" gradientUnits="userSpaceOnUse">
<stop stop-color="#EA940B"/>
<stop offset="1" stop-color="#D1734A"/>
</linearGradient>
<clipPath id="clip0">
<rect width="44" height="44" fill="white"/>
</clipPath>
</defs>
</svg>
