<svg width="49" height="35" viewBox="0 0 49 35" fill="none" xmlns="http://www.w3.org/2000/svg">
<path d="M40.3557 13.3946C42.3064 12.078 43.5917 9.84747 43.5917 7.32234C43.5917 3.28491 40.307 0.000191301 36.2696 0.000191301C32.2321 0.000191301 28.9474 3.28491 28.9474 7.32234C28.9474 9.84632 30.2315 12.076 32.1808 13.3929C30.7607 13.8736 29.4312 14.6056 28.2508 15.5654C27.252 14.6049 25.9116 14.0516 24.5001 14.0516C23.0887 14.0516 21.7482 14.6051 20.7501 15.5654C19.5693 14.6056 18.2396 13.8736 16.8193 13.3928C18.7686 12.0759 20.0527 9.84622 20.0527 7.32215C20.0527 3.28472 16.768 0 12.7305 0C8.69358 0 5.40933 3.28472 5.40933 7.32215C5.40933 9.84728 6.69434 12.0777 8.64477 13.3944C3.63107 15.098 0.0121543 19.8472 0.00133984 25.4274C0.00105273 25.4359 0 25.4439 0 25.4523C0 26.9274 0.838168 29.1044 4.83148 31.0988C7.67692 32.52 11.5872 33.5884 16.1396 34.1881C18.8099 34.5403 21.6228 34.719 24.5001 34.719C27.3781 34.719 30.1913 34.5404 32.8615 34.1881C37.4135 33.5884 41.3235 32.52 44.1688 31.0988C48.1618 29.1043 49 26.9274 49 25.4523C49 19.8615 45.3772 15.1008 40.3557 13.3946ZM30.869 7.32234C30.869 4.34444 33.2918 1.92181 36.2696 1.92181C39.2474 1.92181 41.6701 4.34454 41.6701 7.32234C41.6701 10.2998 39.2474 12.7219 36.2696 12.7219C33.2918 12.7219 30.869 10.2998 30.869 7.32234ZM21.6333 17.4742C22.2861 16.5344 23.3576 15.9732 24.5 15.9732C25.643 15.9732 26.7149 16.5344 27.3676 17.4742C27.3676 17.4745 27.3678 17.4747 27.3679 17.4749C27.7752 18.0605 27.9904 18.7481 27.9904 19.4637C27.9904 21.3884 26.4246 22.9542 24.4999 22.9542C22.5757 22.9542 21.0104 21.3883 21.0104 19.4636C21.0104 18.747 21.2254 18.0596 21.6333 17.4742ZM7.33076 7.32234C7.33076 4.34444 9.75301 1.92181 12.7303 1.92181C15.7082 1.92181 18.1309 4.34454 18.1309 7.32234C18.1309 10.2998 15.7081 12.7219 12.7303 12.7219C9.75301 12.7219 7.33076 10.2998 7.33076 7.32234ZM15.3047 32.1287C11.4302 31.5387 8.12271 30.5948 5.69022 29.3798C3.26702 28.1696 1.92985 26.7793 1.9221 25.4638C1.9221 25.46 1.92268 25.4563 1.92268 25.4524C1.92258 19.4924 6.771 14.6435 12.7304 14.6435C15.2658 14.6435 17.6847 15.5194 19.6204 17.1237C19.2714 17.849 19.0889 18.6442 19.0889 19.4638C19.0889 21.1364 19.8518 22.6341 21.0475 23.6277C17.6892 24.9931 15.3135 28.2879 15.3047 32.1287ZM31.7751 32.3858C29.4381 32.6585 26.9956 32.7976 24.5 32.7976C22.005 32.7976 19.5629 32.6585 17.2259 32.3858V32.1499C17.2259 28.1389 20.489 24.8758 24.5 24.8758C28.5115 24.8758 31.7751 28.1389 31.7751 32.1499V32.3858ZM43.3101 29.3797C40.8778 30.5948 37.5707 31.5386 33.6965 32.1286C33.6878 28.2878 31.3119 24.9932 27.9533 23.6276C29.1493 22.634 29.9123 21.1363 29.9123 19.4636C29.9123 18.645 29.7299 17.8496 29.3805 17.1236C31.3153 15.5192 33.7339 14.6433 36.2698 14.6433C42.2297 14.6434 47.0785 19.4923 47.0785 25.4522C47.0785 26.7712 45.7402 28.166 43.3101 29.3797Z" fill="url(#paint0_linear)"/>
<defs>
<linearGradient id="paint0_linear" x1="24.5" y1="0" x2="24.5" y2="34.719" gradientUnits="userSpaceOnUse">
<stop stop-color="#08B29B"/>
<stop offset="1" stop-color="#089985"/>
</linearGradient>
</defs>
</svg>
