<svg width="156" height="155" viewBox="0 0 156 155" fill="none" xmlns="http://www.w3.org/2000/svg">
<path d="M33.6112 21.5291L26.0149 1.76555C25.4895 0.398994 23.9259 -0.329342 22.5407 0.144822C16.5338 2.2015 12.2166 6.11972 9.58916 11.9001C8.98325 13.2331 9.55716 14.8597 10.8665 15.5147L29.8033 24.9853C32.0551 26.1113 34.5145 23.8791 33.6112 21.5291Z" fill="#FFD660"/>
<path d="M121.457 21.5292L129.054 1.76592C129.579 0.39936 131.143 -0.328975 132.528 0.145188C138.535 2.20187 142.852 6.12009 145.48 11.9005C146.086 13.2335 145.512 14.8601 144.202 15.5151L125.266 24.9857C123.013 26.1114 120.554 23.8792 121.457 21.5292Z" fill="#FFD660"/>
<path d="M33.6115 133.097L26.0152 152.86C25.4898 154.227 23.9262 154.955 22.541 154.481C16.5338 152.424 12.2166 148.506 9.58916 142.726C8.98325 141.393 9.55716 139.766 10.8665 139.111L29.8033 129.641C32.0554 128.515 34.5148 130.747 33.6115 133.097Z" fill="#F8D448"/>
<path d="M121.457 133.097L129.054 152.86C129.579 154.227 131.143 154.955 132.528 154.481C138.535 152.424 142.852 148.506 145.48 142.726C146.086 141.393 145.512 139.766 144.202 139.111L125.266 129.641C123.013 128.515 120.554 130.747 121.457 133.097Z" fill="#FFD660"/>
<path d="M1.21629 82.1038C-0.461923 78.8356 -0.359696 75.4683 1.25296 72.0171C1.69667 71.0672 2.85474 70.6906 3.79064 71.1632L12.5481 75.586C13.9572 76.2976 13.9143 78.3244 12.4766 78.976L3.67225 82.966C2.75531 83.3815 1.67616 82.9989 1.21629 82.1038Z" fill="#FFC727"/>
<path d="M153.856 82.1038C155.534 78.8356 155.432 75.4683 153.82 72.0171C153.376 71.0672 152.218 70.6906 151.282 71.1632L142.524 75.586C141.115 76.2976 141.158 78.3244 142.596 78.976L151.4 82.966C152.317 83.3815 153.396 82.9989 153.856 82.1038Z" fill="#FFD660"/>
<path d="M55.3595 16.0231C54.3434 16.0231 53.4094 15.3535 53.1186 14.3275L50.6123 5.4834C50.2615 4.24516 50.9808 2.95691 52.219 2.60579C53.4576 2.25436 54.7458 2.97431 55.0966 4.21254L57.6029 13.0567C57.9537 14.2949 57.2344 15.5831 55.9962 15.9343C55.7836 15.9945 55.5699 16.0231 55.3595 16.0231Z" fill="#FFC727"/>
<path d="M20.5424 40.8431C20.2246 40.8431 19.9017 40.7778 19.5925 40.6395L12.6417 37.5323C11.4668 37.0069 10.9398 35.6288 11.4653 34.4537C11.9907 33.2785 13.3681 32.7518 14.5439 33.2773L21.4948 36.3845C22.6696 36.9099 23.1966 38.288 22.6712 39.4631C22.2843 40.3291 21.4336 40.8431 20.5424 40.8431Z" fill="#FFC727"/>
<path d="M13.1375 107.908C12.3784 107.908 11.6339 107.538 11.1865 106.855C10.4808 105.779 10.7813 104.334 11.8576 103.629L18.225 99.4539C19.301 98.748 20.7459 99.0485 21.4515 100.125C22.1572 101.202 21.8567 102.646 20.7803 103.352L14.413 107.526C14.0193 107.785 13.5759 107.908 13.1375 107.908Z" fill="#FFC727"/>
<path d="M55.3562 148.677C54.9811 148.677 54.6008 148.586 54.2478 148.395C53.1162 147.782 52.6961 146.368 53.3094 145.236L56.9371 138.542C57.5505 137.41 58.9643 136.99 60.0962 137.604C61.2279 138.217 61.648 139.631 61.0346 140.763L57.4069 147.457C56.9853 148.235 56.1839 148.677 55.3562 148.677Z" fill="#FFC727"/>
<path d="M99.7113 16.0231C99.5009 16.0231 99.2871 15.9945 99.0746 15.9343C97.8364 15.5834 97.1167 14.2952 97.4679 13.0566L99.9741 4.21253C100.325 2.97461 101.613 2.25466 102.852 2.60578C104.09 2.95658 104.81 4.24484 104.459 5.48339L101.952 14.3275C101.662 15.3535 100.727 16.0231 99.7113 16.0231Z" fill="#FFD660"/>
<path d="M134.528 40.8431C133.637 40.8431 132.786 40.3292 132.399 39.4632C131.874 38.2881 132.4 36.91 133.575 36.3846L140.526 33.2773C141.7 32.7528 143.079 33.2786 143.604 34.4537C144.13 35.6289 143.603 37.007 142.428 37.5324L135.477 40.6396C135.169 40.7779 134.846 40.8431 134.528 40.8431Z" fill="#FFD660"/>
<path d="M141.93 107.908C141.492 107.908 141.049 107.785 140.655 107.526L134.287 103.352C133.211 102.646 132.91 101.201 133.616 100.125C134.322 99.0487 135.766 98.7483 136.843 99.4539L143.21 103.628C144.287 104.334 144.587 105.779 143.882 106.855C143.434 107.537 142.69 107.908 141.93 107.908Z" fill="#FFD660"/>
<path d="M99.7147 148.677C98.8869 148.677 98.0856 148.235 97.6636 147.457L94.0359 140.763C93.4226 139.631 93.843 138.217 94.9746 137.604C96.1066 136.99 97.521 137.41 98.1337 138.542L101.761 145.236C102.375 146.368 101.954 147.782 100.823 148.395C100.47 148.586 100.09 148.677 99.7147 148.677Z" fill="#FFD660"/>
<path d="M81.5361 18.2619L95.5936 46.7456C96.1783 47.9307 97.3091 48.7523 98.6169 48.9421L130.051 53.5098C133.344 53.9883 134.659 58.0357 132.276 60.3587L109.53 82.5301C108.584 83.4526 108.152 84.7816 108.376 86.0841L113.745 117.391C114.308 120.671 110.865 123.172 107.919 121.624L79.8045 106.843C78.6346 106.228 77.2373 106.228 76.0674 106.843L47.9525 121.624C45.0069 123.172 41.5641 120.671 42.1265 117.391L47.4961 86.0841C47.7195 84.7816 47.2876 83.4526 46.3414 82.5301L23.5959 60.3587C21.2126 58.0357 22.5279 53.9883 25.8213 53.5098L57.2547 48.9421C58.5625 48.752 59.6932 47.9307 60.278 46.7456L74.3354 18.2619C75.8076 15.2774 80.0633 15.2774 81.5361 18.2619Z" fill="#FFD660"/>
<path d="M113.743 117.391L112.923 112.611L81.0704 95.8651C79.6951 95.142 78.0523 95.142 76.677 95.8651L59.558 104.865C57.8814 105.747 55.922 104.323 56.242 102.456L60.2541 79.0633C60.4775 77.7608 60.0456 76.4318 59.0991 75.5093L47.997 64.6874C45.9157 62.6587 47.0642 59.1242 49.9402 58.7063L68.0625 56.0729C69.3704 55.8827 70.5011 55.0615 71.0859 53.8764L85.0979 25.485L81.533 18.2619C80.0602 15.2774 75.8045 15.2774 74.3317 18.2619L60.2743 46.7456C59.6892 47.931 58.5588 48.7523 57.2509 48.9421L25.8172 53.5098C22.5239 53.9883 21.2089 58.0354 23.5918 60.3587L46.3374 82.5304C47.2839 83.4526 47.7158 84.7819 47.4924 86.0844L42.1231 117.391C41.5603 120.671 45.0035 123.172 47.9494 121.624L76.0643 106.843C77.2342 106.228 78.6315 106.228 79.8014 106.843L107.917 121.624C110.862 123.172 114.305 120.671 113.743 117.391Z" fill="#FFC727"/>
</svg>
