<svg width="70" height="38" viewBox="0 0 70 38" fill="none" xmlns="http://www.w3.org/2000/svg">
<g clip-path="url(#clip0)">
<path d="M15.131 37.9179H14.9734C14.9734 35.9361 14.1929 34.0355 12.8036 32.6342C11.4144 31.2329 9.53018 30.4456 7.56549 30.4456C5.6008 30.4456 3.71658 31.2329 2.32733 32.6342C0.938084 34.0355 0.157614 35.9361 0.157614 37.9179H0C2.98991e-08 35.894 0.797075 33.9529 2.21588 32.5218C3.63468 31.0906 5.559 30.2866 7.56549 30.2866C9.57198 30.2866 11.4963 31.0906 12.9151 32.5218C14.3339 33.9529 15.131 35.894 15.131 37.9179Z" fill="#3F3D56"/>
<path d="M69.9806 37.9179H69.823C69.823 35.9361 69.0425 34.0355 67.6533 32.6342C66.264 31.2329 64.3798 30.4456 62.4151 30.4456C60.4504 30.4456 58.5662 31.2329 57.1769 32.6342C55.7877 34.0355 55.0072 35.9361 55.0072 37.9179H54.8496C54.8496 35.894 55.6467 33.9529 57.0655 32.5218C58.4843 31.0906 60.4086 30.2866 62.4151 30.2866C64.4216 30.2866 66.3459 31.0906 67.7647 32.5218C69.1835 33.9529 69.9806 35.894 69.9806 37.9179Z" fill="#3F3D56"/>
<path d="M51.461 19.714H51.3034C51.3034 12.1748 45.2227 6.04131 37.7486 6.04131C30.2744 6.04131 24.1937 12.1748 24.1937 19.714H24.0361C24.0361 12.0872 30.1875 5.88232 37.7486 5.88232C45.3097 5.88232 51.461 12.0872 51.461 19.714Z" fill="#3F3D56"/>
<path d="M11.4664 6.2799C13.1856 6.2799 14.5793 4.8741 14.5793 3.13995C14.5793 1.4058 13.1856 0 11.4664 0C9.7472 0 8.35352 1.4058 8.35352 3.13995C8.35352 4.8741 9.7472 6.2799 11.4664 6.2799Z" fill="#FFB573"/>
<path d="M12.1279 24.7525L17.4759 18.3281H27.9902L34.4157 24.6411L34.2859 24.7253H34.3322V37.8562H12.1353V24.7253L12.1279 24.7525Z" fill="#3F3D56"/>
<path d="M15.3453 21.9595H16.5576V17.7266H15.3453V21.9595Z" fill="#3F3D56"/>
<path d="M17.3925 18.2441L23.9848 26.0402V37.8564H12.1353V24.5571L17.3925 18.2441Z" fill="#0553C8"/>
<path d="M22.461 27.5874H20.041V30.0833H22.461V27.5874Z" fill="#3F3D56"/>
<path d="M22.461 30.9834H20.041V33.4793H22.461V30.9834Z" fill="#3F3D56"/>
<path d="M22.461 27.5874H20.041V30.0833H22.461V27.5874Z" fill="white"/>
<path d="M22.461 30.9834H20.041V33.4793H22.461V30.9834Z" fill="white"/>
<path d="M19.1143 27.5874H16.6943V30.0833H19.1143V27.5874Z" fill="#3F3D56"/>
<path d="M19.1143 30.9834H16.6943V33.4793H19.1143V30.9834Z" fill="#3F3D56"/>
<path d="M19.1143 27.5874H16.6943V30.0833H19.1143V27.5874Z" fill="white"/>
<path d="M19.1143 30.9834H16.6943V33.4793H19.1143V30.9834Z" fill="white"/>
<path d="M15.7676 27.5874H13.3477V30.0833H15.7676V27.5874Z" fill="#3F3D56"/>
<path d="M15.7676 30.9834H13.3477V33.4793H15.7676V30.9834Z" fill="#3F3D56"/>
<path d="M15.7676 27.5874H13.3477V30.0833H15.7676V27.5874Z" fill="white"/>
<path d="M15.7676 30.9834H13.3477V33.4793H15.7676V30.9834Z" fill="white"/>
<path d="M39.325 3.17969H38.2217V5.96192H39.325V3.17969Z" fill="#0553C8"/>
<path d="M39.2457 5.72363H29.8677V37.9181H39.2457V5.72363Z" fill="#0553C8"/>
<path d="M43.0288 5.72363H39.2461V37.9181H43.0288V5.72363Z" fill="#3F3D56"/>
<path d="M32.9805 8.50586H31.562V9.93672H32.9805V8.50586Z" fill="white"/>
<path d="M35.2662 8.50586H33.8477V9.93672H35.2662V8.50586Z" fill="white"/>
<path d="M37.5518 8.50586H36.1333V9.93672H37.5518V8.50586Z" fill="white"/>
<path d="M33.0201 11.7651H31.6016V13.196H33.0201V11.7651Z" fill="white"/>
<path d="M35.3057 11.7651H33.8872V13.196H35.3057V11.7651Z" fill="white"/>
<path d="M37.5909 11.7651H36.1724V13.196H37.5909V11.7651Z" fill="white"/>
<path d="M33.0596 15.0239H31.6411V16.4548H33.0596V15.0239Z" fill="white"/>
<path d="M35.3448 15.0239H33.9263V16.4548H35.3448V15.0239Z" fill="white"/>
<path d="M37.6304 15.0239H36.2119V16.4548H37.6304V15.0239Z" fill="white"/>
<path d="M33.0992 18.2832H31.6807V19.7141H33.0992V18.2832Z" fill="white"/>
<path d="M35.3843 18.2832H33.9658V19.7141H35.3843V18.2832Z" fill="white"/>
<path d="M37.67 18.2832H36.2515V19.7141H37.67V18.2832Z" fill="white"/>
<path d="M33.1383 21.5425H31.7197V22.9733H33.1383V21.5425Z" fill="white"/>
<path d="M35.4239 21.5425H34.0054V22.9733H35.4239V21.5425Z" fill="white"/>
<path d="M37.7091 21.5425H36.2905V22.9733H37.7091V21.5425Z" fill="white"/>
<path d="M33.1778 24.8018H31.7593V26.2326H33.1778V24.8018Z" fill="white"/>
<path d="M35.4634 24.8018H34.0449V26.2326H35.4634V24.8018Z" fill="white"/>
<path d="M37.7486 24.8018H36.3301V26.2326H37.7486V24.8018Z" fill="white"/>
<path d="M33.2174 28.061H31.7988V29.4919H33.2174V28.061Z" fill="white"/>
<path d="M35.5025 28.061H34.084V29.4919H35.5025V28.061Z" fill="white"/>
<path d="M37.7882 28.061H36.3696V29.4919H37.7882V28.061Z" fill="white"/>
<path d="M33.2564 31.3203H31.8379V32.7512H33.2564V31.3203Z" fill="white"/>
<path d="M35.5421 31.3203H34.1235V32.7512H35.5421V31.3203Z" fill="white"/>
<path d="M35.5421 35.1357H34.1235V37.8385H35.5421V35.1357Z" fill="white"/>
<path d="M37.8272 31.3203H36.4087V32.7512H37.8272V31.3203Z" fill="white"/>
<path d="M39.8765 3.17969H39.2461V5.88243H39.8765V3.17969Z" fill="#3F3D56"/>
<path d="M51.1458 17.3291H50.0425V18.9781H51.1458V17.3291Z" fill="#0553C8"/>
<path d="M51.067 18.8369H41.689V37.9178H51.067V18.8369Z" fill="#0553C8"/>
<path d="M54.8496 18.8369H51.0669V37.9178H54.8496V18.8369Z" fill="#3F3D56"/>
<path d="M44.9595 21.5425H43.541V22.9733H44.9595V21.5425Z" fill="white"/>
<path d="M47.2447 21.5425H45.8262V22.9733H47.2447V21.5425Z" fill="white"/>
<path d="M49.5303 21.5425H48.1118V22.9733H49.5303V21.5425Z" fill="white"/>
<path d="M44.9991 24.8018H43.5806V26.2326H44.9991V24.8018Z" fill="white"/>
<path d="M47.2843 24.8018H45.8657V26.2326H47.2843V24.8018Z" fill="white"/>
<path d="M49.5699 24.8018H48.1514V26.2326H49.5699V24.8018Z" fill="white"/>
<path d="M45.0382 28.061H43.6196V29.4919H45.0382V28.061Z" fill="white"/>
<path d="M47.3238 28.061H45.9053V29.4919H47.3238V28.061Z" fill="white"/>
<path d="M49.609 28.061H48.1904V29.4919H49.609V28.061Z" fill="white"/>
<path d="M45.0777 31.3203H43.6592V32.7512H45.0777V31.3203Z" fill="white"/>
<path d="M47.3629 31.3203H45.9443V32.7512H47.3629V31.3203Z" fill="white"/>
<path d="M47.3629 35.1357H45.9443V37.8385H47.3629V35.1357Z" fill="white"/>
<path d="M49.6485 31.3203H48.23V32.7512H49.6485V31.3203Z" fill="white"/>
<path d="M51.6973 17.3291H51.0669V18.931H51.6973V17.3291Z" fill="#3F3D56"/>
<path d="M70.0003 37.8218H0.0195312V37.9999H70.0003V37.8218Z" fill="#3F3D56"/>
<path d="M57.7387 34.1884C58.8721 34.1884 59.7909 33.2616 59.7909 32.1184C59.7909 30.9751 58.8721 30.0483 57.7387 30.0483C56.6053 30.0483 55.6865 30.9751 55.6865 32.1184C55.6865 33.2616 56.6053 34.1884 57.7387 34.1884Z" fill="#08B29B"/>
<path opacity="0.2" d="M59.2652 30.7354C59.4567 31.187 59.4826 31.6926 59.3385 32.1618C59.1944 32.631 58.8895 33.0332 58.4785 33.2966C58.0674 33.56 57.5769 33.6673 57.0946 33.5995C56.6123 33.5316 56.1696 33.293 55.8457 32.9262C55.9626 33.2022 56.1376 33.4492 56.3586 33.6501C56.5796 33.8511 56.8412 34.0012 57.1254 34.09C57.4096 34.1788 57.7095 34.2042 58.0044 34.1645C58.2993 34.1248 58.5821 34.0209 58.8333 33.86C59.0844 33.6991 59.2979 33.4851 59.4588 33.2327C59.6198 32.9803 59.7245 32.6957 59.7656 32.3985C59.8067 32.1012 59.7832 31.7985 59.6968 31.5114C59.6104 31.2242 59.4632 30.9594 59.2652 30.7354Z" fill="black"/>
<path d="M57.7443 32.1182H57.75L57.8514 37.987H57.6372L57.7443 32.1182Z" fill="#3F3D56"/>
<path d="M58.1181 35.3152L58.0708 35.2246L57.7316 35.4048L57.7788 35.4953L58.1181 35.3152Z" fill="#3F3D56"/>
<path d="M63.7721 32.2102C65.4956 32.2102 66.8928 30.8009 66.8928 29.0624C66.8928 27.3239 65.4956 25.9146 63.7721 25.9146C62.0486 25.9146 60.6514 27.3239 60.6514 29.0624C60.6514 30.8009 62.0486 32.2102 63.7721 32.2102Z" fill="#08B29B"/>
<path opacity="0.2" d="M66.0936 26.96C66.3847 27.6468 66.4242 28.4157 66.205 29.1292C65.9858 29.8427 65.5223 30.4543 64.8972 30.8548C64.2721 31.2553 63.5262 31.4185 62.7927 31.3153C62.0593 31.2122 61.3862 30.8493 60.8936 30.2915C61.0714 30.7112 61.3375 31.0868 61.6735 31.3924C62.0096 31.6979 62.4074 31.9262 62.8396 32.0613C63.2717 32.1963 63.7278 32.235 64.1763 32.1746C64.6247 32.1143 65.0548 31.9563 65.4367 31.7116C65.8186 31.4669 66.1432 31.1414 66.388 30.7576C66.6328 30.3739 66.7919 29.941 66.8544 29.489C66.9169 29.037 66.8812 28.5767 66.7499 28.14C66.6185 27.7033 66.3945 27.3007 66.0936 26.96Z" fill="black"/>
<path d="M63.7806 29.0625H63.7892L63.9435 37.9872H63.6177L63.7806 29.0625Z" fill="#3F3D56"/>
<path d="M64.3492 33.9234L64.2773 33.7856L63.7615 34.0596L63.8334 34.1973L64.3492 33.9234Z" fill="#3F3D56"/>
<path d="M2.1015 34.1088C3.23489 34.1088 4.15368 33.182 4.15368 32.0388C4.15368 30.8955 3.23489 29.9688 2.1015 29.9688C0.96811 29.9688 0.0493164 30.8955 0.0493164 32.0388C0.0493164 33.182 0.96811 34.1088 2.1015 34.1088Z" fill="#08B29B"/>
<path opacity="0.2" d="M3.62755 30.6562C3.81897 31.1079 3.84494 31.6135 3.70081 32.0827C3.55668 32.5519 3.25185 32.9541 2.84079 33.2175C2.42973 33.4809 1.93922 33.5882 1.45692 33.5204C0.974613 33.4525 0.531943 33.2139 0.208008 32.8471C0.324943 33.1231 0.499958 33.3701 0.720927 33.571C0.941895 33.772 1.20353 33.9221 1.48772 34.0109C1.7719 34.0997 2.07183 34.1252 2.36673 34.0854C2.66163 34.0457 2.94444 33.9418 3.19558 33.7809C3.44672 33.62 3.66017 33.406 3.82115 33.1536C3.98214 32.9012 4.0868 32.6166 4.12789 32.3194C4.16898 32.0221 4.14552 31.7194 4.05912 31.4323C3.97273 31.1451 3.82547 30.8803 3.62755 30.6562H3.62755Z" fill="black"/>
<path d="M2.10661 32.0386H2.11228L2.21371 37.9074H1.99951L2.10661 32.0386Z" fill="#3F3D56"/>
<path d="M2.48038 35.2356L2.43311 35.145L2.09387 35.3252L2.14115 35.4157L2.48038 35.2356Z" fill="#3F3D56"/>
<path d="M47.7896 2.96799L48.5151 2.38271C47.9515 2.31999 47.72 2.63003 47.6252 2.87543C47.1849 2.69101 46.7056 2.9327 46.7056 2.9327L48.1571 3.46425C48.0839 3.26695 47.9564 3.09481 47.7896 2.96799Z" fill="#3F3D56"/>
<path d="M11.3809 5.90891L12.1064 5.32363C11.5428 5.26091 11.3113 5.57095 11.2165 5.81635C10.7762 5.63193 10.2969 5.87362 10.2969 5.87362L11.7484 6.40516C11.6752 6.20787 11.5477 6.03573 11.3809 5.90891Z" fill="#3F3D56"/>
<path d="M58.8228 8.92991L59.5483 8.34462C58.9847 8.2819 58.7532 8.59194 58.6584 8.83735C58.2181 8.65292 57.7388 8.89462 57.7388 8.89462L59.1903 9.42616C59.1171 9.22887 58.9896 9.05672 58.8228 8.92991Z" fill="#3F3D56"/>
<path d="M17.3702 4.31907L18.0957 3.73378C17.5321 3.67106 17.3005 3.9811 17.2057 4.22651C16.7655 4.04208 16.2861 4.28378 16.2861 4.28378L17.7377 4.81532C17.6644 4.61803 17.537 4.44588 17.3702 4.31907Z" fill="#3F3D56"/>
<path d="M18.71 10.6784L19.4355 10.0932C18.8719 10.0304 18.6404 10.3405 18.5456 10.5859C18.1053 10.4015 17.626 10.6432 17.626 10.6432L19.0775 11.1747C19.0043 10.9774 18.8768 10.8053 18.71 10.6784Z" fill="#3F3D56"/>
<path d="M46.9229 14.0173L47.6484 13.432C47.0848 13.3693 46.8533 13.6793 46.7585 13.9247C46.3182 13.7403 45.8389 13.982 45.8389 13.982L47.2904 14.5136C47.2172 14.3163 47.0897 14.1441 46.9229 14.0173Z" fill="#3F3D56"/>
<path d="M8.35333 36.2485H3.46729V36.4075H4.22927V37.9179H4.38689V36.4075H7.35492V37.9179H7.51254V36.4075H8.35333V36.2485Z" fill="#3F3D56"/>
<path d="M13.3182 36.8846C13.1254 36.8845 12.9359 36.9358 12.769 37.0332C12.5994 36.8785 12.389 36.7769 12.1633 36.7405C11.9376 36.7041 11.7062 36.7346 11.4973 36.8283C11.2885 36.922 11.1111 37.0748 10.9866 37.2683C10.8622 37.4617 10.7961 37.6874 10.7964 37.918H14.4175C14.3978 37.6374 14.2734 37.3749 14.0694 37.1831C13.8655 36.9914 13.597 36.8847 13.3182 36.8846Z" fill="#3F3D56"/>
<path d="M31.996 36.8846C31.8031 36.8845 31.6136 36.9358 31.4467 37.0332C31.2772 36.8785 31.0667 36.7769 30.841 36.7405C30.6153 36.7041 30.3839 36.7346 30.1751 36.8283C29.9662 36.922 29.7888 37.0748 29.6644 37.2683C29.5399 37.4617 29.4738 37.6874 29.4741 37.918H33.0953C33.0755 37.6374 32.9512 37.3749 32.7472 37.1831C32.5432 36.9914 32.2748 36.8847 31.996 36.8846Z" fill="#3F3D56"/>
<path d="M44.2108 36.8846C44.0179 36.8845 43.8285 36.9358 43.6615 37.0332C43.492 36.8785 43.2816 36.7769 43.0559 36.7405C42.8301 36.7041 42.5988 36.7346 42.3899 36.8283C42.181 36.922 42.0036 37.0748 41.8792 37.2683C41.7548 37.4617 41.6887 37.6874 41.689 37.918H45.3101C45.2904 37.6374 45.166 37.3749 44.962 37.1831C44.758 36.9914 44.4896 36.8847 44.2108 36.8846Z" fill="#3F3D56"/>
<path d="M60.2875 36.8846C60.0946 36.8845 59.9051 36.9358 59.7382 37.0332C59.5687 36.8785 59.3582 36.7769 59.1325 36.7405C58.9068 36.7041 58.6754 36.7346 58.4666 36.8283C58.2577 36.922 58.0803 37.0748 57.9559 37.2683C57.8314 37.4617 57.7653 37.6874 57.7656 37.918H61.3868C61.367 37.6374 61.2427 37.3749 61.0387 37.1831C60.8347 36.9914 60.5663 36.8847 60.2875 36.8846Z" fill="#3F3D56"/>
<path d="M68.0106 36.8846C67.8177 36.8845 67.6283 36.9358 67.4613 37.0332C67.2918 36.8785 67.0814 36.7769 66.8557 36.7405C66.6299 36.7041 66.3986 36.7346 66.1897 36.8283C65.9809 36.922 65.8034 37.0748 65.679 37.2683C65.5546 37.4617 65.4885 37.6874 65.4888 37.918H69.1099C69.0902 37.6374 68.9658 37.3749 68.7618 37.1831C68.5578 36.9914 68.2894 36.8847 68.0106 36.8846Z" fill="#3F3D56"/>
<path d="M10.1662 32.3535H8.90527V33.6254H9.48979V37.911H9.6474V33.6254H10.1662V32.3535Z" fill="#F20000"/>
<path d="M8.36309 35.7729H3.47705V35.9319H8.36309V35.7729Z" fill="#3F3D56"/>
<path d="M8.36309 35.3755H3.47705V35.5345H8.36309V35.3755Z" fill="#3F3D56"/>
<path d="M8.36309 34.978H3.47705V35.137H8.36309V34.978Z" fill="#3F3D56"/>
</g>
<defs>
<clipPath id="clip0">
<rect width="70" height="38" fill="white"/>
</clipPath>
</defs>
</svg>
