<svg width="87" height="55" viewBox="0 0 87 55" fill="none" xmlns="http://www.w3.org/2000/svg">
<path d="M10.9578 13.2009C12.8741 10.6504 15.7439 8.65628 19.0221 8.0319C22.3002 7.40752 25.9438 8.28252 28.229 10.5521C31.673 13.9732 31.7218 19.8659 35.9291 22.4412C40.1538 25.0252 46.1255 22.7264 50.6936 24.7389C54.6886 26.4997 56.3776 31.4807 54.7176 35.295C53.6121 37.8379 51.8512 39.9325 49.2285 41.3984C47.2571 42.4878 45.0234 43.0985 42.7325 43.1743L35.0637 43.4649C32.9473 43.5512 30.8269 43.4651 28.7266 43.2078C24.6771 42.7001 20.9802 41.5874 17.4039 39.0057C13.2685 36.0177 9.97988 31.9009 8.62036 27.1943C7.26084 22.4877 7.95916 17.1956 10.9578 13.2009Z" fill="#F5F5F5"/>
<path d="M40.4221 13.3615C40.6854 10.6015 43.2757 8.19468 46.2406 7.96027C46.3984 7.87277 49.2566 8.22708 50.4653 9.01998C52.9013 10.6133 53.8421 13.9059 52.5812 16.4153C51.3203 18.9247 48.0003 20.3614 45.1282 19.6409C42.256 18.9204 40.1587 16.1215 40.4221 13.3615Z" fill="#F5F5F5"/>
<path d="M23.5485 40.6306L22.6078 42.6172C22.6078 42.6172 24.4638 44.1749 24.3246 44.5616L20.1231 43.0007L21.4524 39.8496L23.5485 40.6306Z" fill="#0553C8"/>
<path opacity="0.5" d="M23.5485 40.6306L22.6078 42.6172C22.6078 42.6172 24.4638 44.1749 24.3246 44.5616L20.1231 43.0007L21.4524 39.8496L23.5485 40.6306Z" fill="black"/>
<path d="M20.1214 43.0001L20.2688 42.6836L24.2429 44.304C24.2429 44.304 24.3972 44.4487 24.3241 44.5643L20.1214 43.0001Z" fill="#263238"/>
<path d="M16.1493 43.4467L14.9707 45.3209C14.9707 45.3209 16.6202 47.0644 16.4393 47.436L12.4558 45.4397L14.1622 42.4453L16.1493 43.4467Z" fill="#0553C8"/>
<path opacity="0.5" d="M16.1493 43.4467L14.9707 45.3209C14.9707 45.3209 16.6202 47.0644 16.4393 47.436L12.4558 45.4397L14.1622 42.4453L16.1493 43.4467Z" fill="black"/>
<path d="M12.4562 45.4336L12.6441 45.1387L16.3909 47.163C16.3909 47.163 16.5266 47.324 16.4396 47.4299L12.4562 45.4336Z" fill="#263238"/>
<path d="M21.2873 17.1636L23.8694 17.3516L23.9553 16.0056C23.9553 16.0056 24.9993 15.9915 25.1524 15.0442C25.3055 14.0968 25.4609 11.8953 25.4609 11.8953C24.9166 11.5877 24.2939 11.421 23.6573 11.4125C23.0206 11.4039 22.3931 11.5538 21.8394 11.8467L21.6724 11.9352L21.2873 17.1636Z" fill="#B16666"/>
<path d="M23.9609 15.9918C23.4891 15.9386 23.0449 15.7558 22.6849 15.4668C22.6849 15.4668 22.91 16.2122 23.9401 16.2597L23.9609 15.9918Z" fill="#7F3E3B"/>
<path d="M21.6484 12.9331C21.6322 12.9234 20.9768 12.6479 20.9014 13.3004C20.826 13.9529 21.544 13.888 21.5475 13.8697C21.551 13.8513 21.6484 12.9331 21.6484 12.9331Z" fill="#B16666"/>
<path d="M21.3628 13.6016C21.3628 13.6016 21.35 13.6081 21.328 13.6157C21.2979 13.6241 21.2655 13.6214 21.2375 13.6081C21.1943 13.5774 21.1607 13.5364 21.1403 13.4895C21.1199 13.4425 21.1134 13.3914 21.1215 13.3413C21.1258 13.2854 21.1436 13.2311 21.1737 13.1825C21.1827 13.1629 21.1967 13.1455 21.2145 13.132C21.2323 13.1184 21.2533 13.1091 21.2758 13.1047C21.2903 13.1027 21.305 13.1055 21.3175 13.1126C21.3301 13.1197 21.3395 13.1307 21.3442 13.1436C21.3512 13.162 21.3442 13.1749 21.3442 13.176C21.3442 13.1771 21.3605 13.1674 21.3581 13.1393C21.356 13.1228 21.3478 13.1075 21.3349 13.0961C21.3265 13.0882 21.3163 13.082 21.3051 13.0779C21.2939 13.0738 21.282 13.0719 21.27 13.0723C21.2406 13.0749 21.2124 13.0844 21.1881 13.0999C21.1637 13.1154 21.144 13.1364 21.1308 13.1609C21.0943 13.2142 21.0724 13.2751 21.067 13.3381C21.057 13.3958 21.0655 13.455 21.0915 13.5082C21.1175 13.5614 21.1598 13.6063 21.2131 13.6373C21.2316 13.6449 21.2517 13.6484 21.2718 13.6475C21.292 13.6465 21.3116 13.6412 21.3291 13.6319C21.3605 13.6178 21.3651 13.6038 21.3628 13.6016Z" fill="#7F3E3B"/>
<path d="M25.0229 13.3875C25.0177 13.4227 24.998 13.4547 24.9679 13.4767C24.9378 13.4987 24.8997 13.5089 24.8617 13.5052C24.843 13.5043 24.8247 13.4998 24.8078 13.4921C24.791 13.4844 24.7761 13.4736 24.7638 13.4604C24.7516 13.4472 24.7423 13.4318 24.7366 13.4152C24.7309 13.3986 24.7289 13.3811 24.7306 13.3637C24.7353 13.3283 24.7547 13.296 24.7846 13.2738C24.8145 13.2516 24.8526 13.2412 24.8907 13.2449C24.9095 13.2459 24.9279 13.2505 24.9448 13.2583C24.9617 13.2661 24.9767 13.277 24.989 13.2903C25.0013 13.3035 25.0107 13.319 25.0165 13.3357C25.0223 13.3524 25.0245 13.37 25.0229 13.3875Z" fill="#263238"/>
<path d="M25.0672 13.2048C25.0463 13.22 24.9512 13.1292 24.7911 13.1098C24.631 13.0903 24.5081 13.1476 24.4942 13.1271C24.4803 13.1065 24.5104 13.0882 24.5649 13.0612C24.6396 13.0267 24.7238 13.0143 24.8062 13.0255C24.8877 13.0359 24.9635 13.07 25.0231 13.1227C25.066 13.1638 25.0765 13.1984 25.0672 13.2048Z" fill="#263238"/>
<path d="M23.4995 13.2233C23.4943 13.2586 23.4745 13.2906 23.4445 13.3125C23.4144 13.3345 23.3763 13.3447 23.3383 13.341C23.3196 13.34 23.3014 13.3354 23.2846 13.3277C23.2679 13.3199 23.253 13.3091 23.2407 13.296C23.2285 13.2828 23.2193 13.2675 23.2135 13.2509C23.2077 13.2343 23.2056 13.2169 23.2072 13.1995C23.2121 13.1643 23.2316 13.1322 23.2614 13.11C23.2913 13.0878 23.3292 13.0773 23.3673 13.0807C23.3861 13.0818 23.4044 13.0864 23.4213 13.0942C23.4382 13.102 23.4533 13.1128 23.4656 13.1261C23.4779 13.1394 23.4872 13.1548 23.4931 13.1715C23.4989 13.1882 23.5011 13.2058 23.4995 13.2233Z" fill="#263238"/>
<path d="M23.5237 13.0311C23.5029 13.0473 23.4077 12.9565 23.2477 12.936C23.0876 12.9155 22.9658 12.9738 22.9507 12.9544C22.9356 12.9349 22.9669 12.9155 23.0226 12.8885C23.0966 12.8531 23.1805 12.8403 23.2627 12.8517C23.3444 12.8623 23.4204 12.8967 23.4797 12.95C23.5226 12.9911 23.5342 13.0246 23.5237 13.0311Z" fill="#263238"/>
<path d="M23.927 14.1853C24.0133 14.173 24.1009 14.1701 24.188 14.1767C24.2286 14.1767 24.268 14.1767 24.2785 14.1507C24.2865 14.1146 24.2828 14.077 24.268 14.0427C24.2448 13.9477 24.2193 13.8472 24.1926 13.7435C24.1192 13.4889 24.068 13.2291 24.0395 12.9668C24.1347 13.2151 24.2084 13.4702 24.2599 13.7294L24.3295 14.0298C24.3485 14.0779 24.3485 14.1307 24.3295 14.1788C24.3217 14.1912 24.311 14.2018 24.2981 14.2096C24.2852 14.2175 24.2706 14.2225 24.2553 14.2242C24.2326 14.2275 24.2095 14.2275 24.1868 14.2242C24.0988 14.2216 24.0115 14.2085 23.927 14.1853Z" fill="#263238"/>
<path d="M23.4537 14.2267C23.4792 14.2267 23.4537 14.3865 23.5848 14.5183C23.7159 14.6501 23.8968 14.6555 23.8945 14.6782C23.8922 14.7009 23.8493 14.7041 23.7727 14.6955C23.6731 14.6838 23.5811 14.6398 23.5129 14.5713C23.4471 14.5054 23.4117 14.4181 23.4143 14.3282C23.4178 14.2612 23.4421 14.2245 23.4537 14.2267Z" fill="#263238"/>
<path d="M23.6497 12.465C23.6276 12.5029 23.4745 12.465 23.2877 12.465C23.101 12.465 22.9397 12.4888 22.9258 12.4499C22.9177 12.4316 22.949 12.397 23.0151 12.3667C23.1018 12.3291 23.1969 12.3114 23.2924 12.3149C23.388 12.3171 23.4817 12.3401 23.5661 12.3819C23.6288 12.4121 23.6624 12.4478 23.6497 12.465Z" fill="#263238"/>
<path d="M25.0716 12.7745C25.0391 12.8036 24.9358 12.7561 24.8071 12.7367C24.6783 12.7172 24.5635 12.728 24.5438 12.6902C24.5356 12.6719 24.5577 12.6405 24.6099 12.6157C24.6799 12.5858 24.758 12.5768 24.8338 12.5898C24.91 12.6004 24.9807 12.6333 25.0356 12.6837C25.0762 12.7237 25.0866 12.7594 25.0716 12.7745Z" fill="#263238"/>
<path d="M26.0509 11.3612C26.0666 11.3032 26.0664 11.2425 26.0503 11.1846C26.0343 11.1267 26.003 11.0734 25.9593 11.0296C25.9132 10.9885 25.853 10.9638 25.7893 10.9601C25.7256 10.9563 25.6626 10.9737 25.6113 11.0091C25.6267 10.9707 25.6333 10.9297 25.6306 10.8887C25.628 10.8478 25.6162 10.8079 25.596 10.7714C25.5758 10.735 25.5476 10.7029 25.5133 10.6773C25.4789 10.6516 25.4392 10.6329 25.3967 10.6223C25.232 10.591 25.0719 10.6893 24.9048 10.7088C24.7411 10.7185 24.5783 10.6787 24.4408 10.5953C24.2982 10.5197 24.1694 10.4225 24.0244 10.3512C23.7186 10.1993 23.3607 10.1659 23.0285 10.2583C22.6964 10.3508 22.4169 10.5616 22.2508 10.8449C22.141 10.8034 22.0203 10.7942 21.9048 10.8186C21.7893 10.8429 21.6845 10.8996 21.6046 10.981C21.4468 11.1475 21.3612 11.3628 21.3645 11.5848C21.3645 11.7331 21.382 11.8809 21.4167 12.0256C21.4167 12.0375 21.4167 12.0493 21.4109 12.0623C21.3425 12.5851 21.3135 13.2063 21.5513 13.2409C21.9677 13.3013 21.9782 12.5571 21.9782 12.5571C22.5176 12.4404 22.4352 11.7015 22.579 11.6108C22.7229 11.52 23.0291 11.3029 24.0221 11.9521C24.3953 12.1704 24.8328 12.2736 25.2726 12.247H25.3004H25.3074H25.3166C25.4167 12.237 25.5146 12.2126 25.6066 12.1747C25.7153 12.134 25.8071 12.0621 25.8688 11.9694C25.8984 11.9228 25.9128 11.8692 25.9103 11.8152C25.9078 11.7611 25.8886 11.7089 25.8549 11.6648C25.9507 11.5836 26.0188 11.4781 26.0509 11.3612Z" fill="#263238"/>
<path d="M23.9609 16.8297L23.8461 20.5975L21.3289 15.5517L21.3915 15.084L23.9609 16.8297Z" fill="#EBEBEB"/>
<path d="M22.2898 28.0926C22.3815 28.1207 27.6258 33.0564 27.5098 33.9432C27.3938 34.8301 23.6621 41.3969 23.6621 41.3969L20.9941 40.1751L23.4916 34.4196L23.4591 34.0621L20.4072 31.7341L20.5707 27.9922L22.2898 28.0926Z" fill="#263238"/>
<path d="M21.1602 29.0661C21.0987 29.1515 20.1916 36.9054 19.948 37.3062C19.7044 37.707 16.0596 44.3278 16.0596 44.3278L13.3534 43.3124L16.657 36.0369L16.2812 29.1515L16.4842 27.207L20.5709 27.9924L21.1602 29.0661Z" fill="#263238"/>
<path d="M19.998 37.1734C20.0067 37.1482 20.0126 37.1221 20.0154 37.0957C20.0258 37.0395 20.0386 36.965 20.0548 36.8721C20.0873 36.6711 20.1337 36.3914 20.1894 36.0478C20.2973 35.3446 20.4458 34.3843 20.6105 33.3235C20.7752 32.2627 20.9098 31.2991 21.0142 30.5969C21.0617 30.2513 21.1012 29.9704 21.1302 29.7695L21.158 29.5437C21.1609 29.5175 21.1609 29.4911 21.158 29.4648C21.158 29.4648 21.151 29.4918 21.1406 29.5426C21.1302 29.5934 21.1174 29.6733 21.1012 29.7662L20.9678 30.5915C20.8587 31.2937 20.7102 32.254 20.5467 33.3159C20.3831 34.3778 20.2462 35.3392 20.143 36.0424C20.0943 36.387 20.0548 36.6679 20.027 36.8688C20.0154 36.9628 20.005 37.0384 19.998 37.0946C19.9952 37.1208 19.9952 37.1472 19.998 37.1734Z" fill="#455A64"/>
<path d="M16.7265 35.8145C16.7607 36.0231 16.8135 36.2286 16.8842 36.4291C16.9369 36.6343 17.0083 36.8348 17.0977 37.0286C17.0622 36.8214 17.0083 36.6172 16.9364 36.4183C16.8857 36.2116 16.8155 36.0096 16.7265 35.8145Z" fill="#455A64"/>
<path d="M16.3177 37.57C16.3783 37.5145 16.4285 37.4498 16.4662 37.3788C16.6682 37.0438 16.756 36.6595 16.7179 36.277C16.715 36.1981 16.6978 36.1203 16.6668 36.0469C16.7308 36.5763 16.6087 37.1107 16.3188 37.57H16.3177Z" fill="#455A64"/>
<path d="M24.3588 33.582C24.0342 33.7011 23.7679 33.9272 23.6106 34.2172C23.6246 34.2259 23.7545 34.0498 23.9586 33.8759C24.1628 33.7019 24.3716 33.5961 24.3588 33.582Z" fill="#455A64"/>
<path d="M23.9531 33.3535C23.8446 33.4233 23.7562 33.5167 23.6956 33.6257C23.6178 33.7252 23.5672 33.8409 23.5483 33.9628C23.6197 33.8632 23.6852 33.7601 23.7443 33.6538C23.8198 33.5574 23.8895 33.4571 23.9531 33.3535Z" fill="#455A64"/>
<path d="M23.593 22.0395L22.9236 25.1355L22.3784 29.4565C22.3784 29.4565 20.1304 29.1637 19.1722 28.8818C18.0609 28.5577 15.6435 28.2747 15.6435 28.2747L16.0518 28.6506C15.1864 28.4248 14.6354 27.6568 14.6354 27.6568C16.1249 26.3702 17.4009 23.7171 17.4009 23.7171L18.5342 18.4758C18.5342 18.4758 18.7059 17.7369 18.8103 17.4075C18.9147 17.078 20.635 16.0183 20.8739 15.8843L21.0236 15.8184L21.0711 15.3982L21.2486 15.2988L23.1092 16.8749C23.4719 17.1809 23.7025 17.5995 23.7577 18.0524C23.8363 18.7068 23.8635 19.3657 23.8389 20.0238C23.8168 20.6449 23.593 22.0395 23.593 22.0395Z" fill="#0553C8"/>
<path d="M22.3134 16.68C22.3134 16.68 23.2971 17.1715 23.4676 17.5885C23.6382 18.0055 23.1312 22.577 23.1312 22.577L26.6658 22.6397L26.6797 24.6003C26.6797 24.6003 21.0664 25.0141 20.8472 24.731C20.5526 24.3486 20.2092 20.7763 20.2092 20.7763L20.0816 18.2053C20.0816 18.2053 20.4029 16.2457 22.3134 16.68Z" fill="#0553C8"/>
<g opacity="0.3">
<path opacity="0.3" d="M22.9214 25.1356C22.4642 25.2688 21.9819 25.3104 21.5062 25.2577C21.0086 25.2155 20.5017 24.9617 20.3137 24.5296C20.1699 24.2001 20.2302 23.8274 20.2082 23.472C20.1885 23.162 20.1073 22.8595 20.0562 22.5538C20.0052 22.2481 20.1722 21.6896 20.2882 21.3926C20.2882 21.3926 20.4135 23.5142 20.7708 24.4054C20.8105 24.5298 20.8859 24.6419 20.9889 24.7294C21.1153 24.8245 21.2893 24.8375 21.4529 24.8483C21.9041 24.8926 22.9922 24.8191 22.9922 24.8191" fill="black"/>
</g>
<path d="M20.0849 18.4863C20.0834 18.5021 20.0834 18.518 20.0849 18.5339C20.0849 18.5663 20.0849 18.6116 20.0907 18.67C20.0907 18.7931 20.1058 18.9692 20.1174 19.195C20.129 19.4207 20.1464 19.7027 20.1649 20.0257C20.1835 20.3487 20.1974 20.7192 20.2403 21.1254C20.2833 21.5315 20.3239 21.9766 20.3784 22.4541C20.4329 22.9315 20.4944 23.4414 20.593 23.974C20.6162 24.1101 20.6487 24.2447 20.6904 24.3769C20.7386 24.5153 20.8269 24.6387 20.9456 24.7334C21.0675 24.8313 21.2243 24.8833 21.3853 24.8792C21.5407 24.8792 21.6973 24.8792 21.8493 24.8792C22.4803 24.8641 23.1322 24.8349 23.8004 24.8003C24.8038 24.7496 25.7724 24.6923 26.6737 24.6318H26.6992V24.6081C26.6992 23.9113 26.6911 23.2556 26.6865 22.6496V22.6269H26.6621L23.2505 22.5588L22.297 22.5437H22.0453C21.9885 22.5437 21.9595 22.5437 21.9595 22.5437C21.9595 22.5437 21.9885 22.5437 22.0453 22.5491L22.2959 22.5588L23.2505 22.5869L26.6609 22.6744L26.6366 22.6517C26.6366 23.2567 26.6366 23.9124 26.6435 24.6091L26.6702 24.5832C25.7666 24.6405 24.7991 24.6988 23.7969 24.7496C23.1299 24.7831 22.478 24.8144 21.8481 24.8295C21.6903 24.8295 21.5349 24.8349 21.3841 24.8295C21.2356 24.8347 21.0905 24.7872 20.9781 24.6966C20.8673 24.6084 20.785 24.4932 20.7403 24.3639C20.6995 24.2341 20.6673 24.1021 20.644 23.9686C20.5454 23.4382 20.4828 22.9283 20.4236 22.4562C20.3645 21.9842 20.3192 21.5359 20.2786 21.1297C20.238 20.7235 20.2183 20.3541 20.1951 20.0311C20.1719 19.7081 20.1533 19.4305 20.1383 19.2014C20.1232 18.9724 20.1093 18.7996 20.1 18.6775C20.1 18.6192 20.0919 18.5695 20.0884 18.5403C20.0895 18.5223 20.0883 18.5041 20.0849 18.4863Z" fill="#263238"/>
<path d="M25.9828 24.5711C26.0099 24.255 26.018 23.9376 26.0069 23.6205C26.0145 23.3033 26.003 22.9859 25.9724 22.6699C25.9453 22.9861 25.9373 23.3035 25.9483 23.6205C25.9407 23.9378 25.9522 24.2551 25.9828 24.5711Z" fill="#263238"/>
<path d="M26.3575 22.9671C26.3645 22.9671 26.3297 22.9261 26.2624 22.9477C26.2427 22.9541 26.2255 22.9657 26.2127 22.981C26.2 22.9963 26.1922 23.0148 26.1905 23.0341C26.1875 23.0582 26.1926 23.0826 26.2053 23.1038C26.218 23.1251 26.2376 23.142 26.2612 23.1523C26.2848 23.1626 26.3113 23.1657 26.337 23.1611C26.3626 23.1566 26.386 23.1446 26.4039 23.127C26.4188 23.1142 26.4299 23.098 26.436 23.08C26.4421 23.062 26.4431 23.0428 26.4387 23.0244C26.4225 22.9617 26.3761 22.9488 26.3749 22.9553C26.3738 22.9617 26.397 22.9844 26.3981 23.0287C26.3985 23.0403 26.396 23.0519 26.391 23.0625C26.386 23.0732 26.3785 23.0826 26.3691 23.0903C26.3578 23.099 26.3442 23.1047 26.3297 23.1068C26.3152 23.1089 26.3004 23.1073 26.2868 23.1022C26.2739 23.096 26.2632 23.0868 26.2556 23.0753C26.248 23.0639 26.244 23.0508 26.2438 23.0373C26.2442 23.026 26.2476 23.015 26.254 23.0053C26.2603 22.9957 26.2692 22.9877 26.2798 22.9823C26.3204 22.9596 26.354 22.9736 26.3575 22.9671Z" fill="#263238"/>
<path d="M18.5156 18.9258C18.5156 18.9258 16.6759 21.1651 16.452 21.7744C16.2281 22.3836 16.4009 23.2608 16.7756 23.6799C17.1503 24.0991 17.4519 23.9284 17.4519 23.9284L18.5156 18.9258Z" fill="#0553C8"/>
<path d="M17.5143 23.7502C17.6642 23.8006 17.8199 23.8343 17.9783 23.8507C18.1325 23.8846 18.2907 23.9005 18.4492 23.8982C18.2994 23.8477 18.1436 23.8139 17.9852 23.7977C17.8309 23.7639 17.6728 23.7479 17.5143 23.7502Z" fill="#263238"/>
<path d="M17.168 25.3984C17.1472 25.4361 17.1305 25.4755 17.1181 25.5162C17.0903 25.594 17.0485 25.7041 16.994 25.8403C16.8511 26.195 16.6861 26.5416 16.4998 26.8784C16.3122 27.2142 16.1062 27.5409 15.8827 27.8571C15.7969 27.9791 15.7261 28.0731 15.6762 28.1433C15.6479 28.1766 15.6237 28.2129 15.6043 28.2514C15.6382 28.2229 15.6686 28.191 15.6948 28.1563C15.7493 28.0926 15.8259 27.9986 15.9163 27.8787C16.1515 27.5683 16.3639 27.2435 16.552 26.9065C16.7402 26.5682 16.9007 26.2172 17.0323 25.8565C17.0821 25.7182 17.1193 25.6048 17.1401 25.5259C17.1554 25.4847 17.1648 25.4419 17.168 25.3984Z" fill="#263238"/>
<g opacity="0.3">
<path opacity="0.3" d="M17.0391 25.6641C16.7467 26.148 16.4475 26.6363 16.0043 27.0111C15.8367 27.1297 15.6848 27.2664 15.5519 27.4184C15.4359 27.5793 15.3814 27.804 15.4951 27.9693C15.5121 28.0001 15.5387 28.0254 15.5714 28.0418C15.6041 28.0582 15.6414 28.0649 15.6784 28.0611C15.7269 28.0438 15.7677 28.0119 15.7944 27.9704C16.3493 27.305 16.7637 26.5477 17.0159 25.7386" fill="black"/>
</g>
<g opacity="0.3">
<path opacity="0.3" d="M17.2829 23.9211C17.0312 23.7525 16.943 23.4328 16.9801 23.1454C17.0173 22.8581 17.1588 22.5945 17.2852 22.332C17.6674 21.5471 17.9669 20.7295 18.1796 19.8907L18.3594 19.2695L17.4499 23.6985L17.2829 23.9211Z" fill="black"/>
</g>
<path d="M21.8359 16.4806C21.7274 16.3675 21.6112 16.2611 21.4879 16.162C21.3792 16.0474 21.263 15.9392 21.1399 15.8379C21.2174 15.9725 21.3195 16.0935 21.4415 16.1955C21.5529 16.3124 21.6866 16.4091 21.8359 16.4806Z" fill="#263238"/>
<path d="M22.0221 16.8652C22.0221 16.875 22.1288 16.9052 22.2912 16.9797C22.7175 17.1767 23.0609 17.5006 23.2668 17.9001C23.3457 18.0524 23.3828 18.154 23.3828 18.1518C23.3831 18.1265 23.3788 18.1013 23.37 18.0773C23.3522 18.0113 23.3289 17.9466 23.3004 17.8839C23.1087 17.4643 22.7524 17.1285 22.304 16.9452C22.2371 16.9179 22.1681 16.8955 22.0975 16.8782C22.0733 16.87 22.0478 16.8656 22.0221 16.8652Z" fill="#263238"/>
<path d="M17.0824 24.3657C17.0941 24.3526 17.1039 24.338 17.1114 24.3225L17.1845 24.1939C17.2506 24.074 17.3399 23.9109 17.4501 23.7121C17.5661 23.2217 17.7274 22.5066 17.9049 21.7104C18.0696 20.9554 18.2123 20.2759 18.3283 19.7811L18.4443 19.1946C18.4559 19.1308 18.4663 19.0779 18.4744 19.0347C18.4792 19.0163 18.4812 18.9974 18.4802 18.9785C18.4724 18.9959 18.4666 19.014 18.4628 19.0325C18.4524 19.0747 18.4385 19.1276 18.4222 19.1913C18.3874 19.3361 18.3399 19.5327 18.283 19.7736C18.167 20.2726 18.0162 20.951 17.8469 21.6996C17.6694 22.4958 17.514 23.212 17.4107 23.7057C17.3075 23.9077 17.2239 24.0729 17.1625 24.195L17.0975 24.3279C17.0912 24.34 17.0861 24.3526 17.0824 24.3657Z" fill="#263238"/>
<path d="M23.1914 22.5754C23.2062 22.5223 23.2155 22.4681 23.2193 22.4134C23.232 22.2989 23.2494 22.1487 23.2703 21.9683C23.3121 21.5935 23.3654 21.0739 23.42 20.5013C23.4745 19.9288 23.5209 19.4081 23.5522 19.0311C23.5661 18.8507 23.5766 18.7006 23.5858 18.5861C23.5912 18.5315 23.5912 18.4765 23.5858 18.4219C23.5726 18.4752 23.5637 18.5294 23.5591 18.5839C23.5464 18.6984 23.529 18.8486 23.507 19.029C23.4664 19.4038 23.413 19.9223 23.3585 20.4959C23.3039 21.0695 23.2575 21.5891 23.2262 21.9651C23.2123 22.1455 23.2019 22.2956 23.1926 22.4112C23.1881 22.4658 23.1877 22.5207 23.1914 22.5754Z" fill="#263238"/>
<path d="M26.6207 22.8685C26.6207 22.8685 27.384 22.3284 27.5696 22.2971C27.7123 22.2722 28.5625 22.2863 28.9535 22.2971C29.0265 22.2965 29.0969 22.3226 29.1494 22.3699C29.2019 22.4172 29.2324 22.4818 29.2342 22.5498C29.2353 22.5584 29.2353 22.5671 29.2342 22.5758C29.2245 22.6189 29.2019 22.6586 29.1691 22.6903C29.1362 22.722 29.0945 22.7444 29.0486 22.7551C29.1079 22.7728 29.1597 22.8075 29.1965 22.8543C29.2334 22.901 29.2535 22.9574 29.2539 23.0154C29.2539 23.2207 28.9906 23.2639 28.9906 23.2639L29.0289 23.2963C29.0619 23.3274 29.0854 23.3663 29.0968 23.4087C29.1083 23.4512 29.1074 23.4957 29.0941 23.5377C29.0808 23.5797 29.0558 23.6176 29.0214 23.6476C28.9871 23.6775 28.9448 23.6983 28.8989 23.7078L28.7829 23.7338C28.8275 23.7506 28.8661 23.7786 28.8946 23.8146C28.923 23.8507 28.9402 23.8934 28.9442 23.9379C28.9442 24.208 28.2853 24.262 28.2853 24.262C28.2853 24.262 26.6694 24.5007 26.6346 24.4899C26.5998 24.4791 26.6207 22.8685 26.6207 22.8685Z" fill="#B16666"/>
<path d="M28.8042 21.9731C28.7972 22.0628 28.774 22.2529 28.6116 22.3382L27.7103 22.3058C27.7103 22.3058 28.3808 22.0898 28.4771 21.9818C28.5144 21.9375 28.5576 21.8979 28.6058 21.864C28.6258 21.8515 28.6492 21.8445 28.6733 21.8438C28.6974 21.8431 28.7212 21.8488 28.742 21.8603C28.7627 21.8717 28.7796 21.8883 28.7906 21.9083C28.8016 21.9283 28.8063 21.9508 28.8042 21.9731Z" fill="#B16666"/>
<path d="M28.1357 22.2967C28.2702 22.3264 28.4088 22.3355 28.5464 22.3237C28.6839 22.3313 28.822 22.3222 28.957 22.2967C28.822 22.2685 28.6832 22.2594 28.5452 22.2697C28.4081 22.2633 28.2706 22.2724 28.1357 22.2967Z" fill="#7F3E3B"/>
<path d="M28.3361 22.7651C28.4506 22.7994 28.5715 22.8109 28.6911 22.7986C28.8101 22.8027 28.9287 22.7832 29.0391 22.7413C28.9215 22.7295 28.8028 22.7295 28.6853 22.7413C28.5683 22.737 28.4511 22.745 28.3361 22.7651Z" fill="#7F3E3B"/>
<path d="M27.8762 22.7043C27.8623 22.7129 27.8762 22.7583 27.9307 22.7886C27.9852 22.8188 28.034 22.8156 28.0351 22.8004C28.0363 22.7853 28.0026 22.7669 27.9632 22.7432C27.9238 22.7194 27.8901 22.6978 27.8762 22.7043Z" fill="#7F3E3B"/>
<path d="M28.238 23.2968C28.4957 23.3249 28.7565 23.3169 29.0117 23.273C28.8838 23.2494 28.7528 23.2439 28.6231 23.2568C28.4933 23.2523 28.3635 23.2657 28.238 23.2968Z" fill="#7F3E3B"/>
<path d="M27.7222 23.0723C27.7153 23.0723 27.7014 23.0874 27.6967 23.1198C27.6918 23.1639 27.7055 23.2081 27.7349 23.243C27.7644 23.2779 27.8073 23.3007 27.8545 23.3067C27.8893 23.3067 27.9102 23.3067 27.9102 23.2948C27.9102 23.2829 27.8324 23.271 27.7814 23.2095C27.7304 23.1479 27.7362 23.0755 27.7222 23.0723Z" fill="#7F3E3B"/>
<path d="M28.1009 23.8159C28.2169 23.8292 28.3344 23.8248 28.4489 23.803C28.5681 23.7991 28.6858 23.7764 28.7969 23.736C28.6809 23.7227 28.5634 23.7271 28.4489 23.7489C28.3297 23.7535 28.2122 23.7761 28.1009 23.8159Z" fill="#7F3E3B"/>
<path d="M27.5979 23.5508C27.591 23.5508 27.5794 23.5681 27.5805 23.6016C27.5851 23.6412 27.602 23.6788 27.6292 23.7096C27.6942 23.7841 27.7684 23.8111 27.7766 23.8003C27.7847 23.7895 27.729 23.7387 27.6745 23.6761C27.62 23.6134 27.6072 23.554 27.5979 23.5508Z" fill="#7F3E3B"/>
<path d="M16.3571 28.6949C16.1976 28.6806 16.0439 28.6317 15.9084 28.5522C15.7728 28.4726 15.6591 28.3647 15.5764 28.2369C15.5578 28.2077 15.5416 28.1678 15.566 28.1429C15.5754 28.1356 15.5863 28.1301 15.5981 28.1268C15.6098 28.1235 15.6222 28.1223 15.6344 28.1235C15.8867 28.1217 16.1374 28.162 16.3745 28.2423C16.3884 28.2452 16.4015 28.2509 16.4129 28.2589C16.4243 28.2669 16.4337 28.2771 16.4406 28.2887C16.4469 28.307 16.4469 28.3267 16.4406 28.3449C16.4093 28.4583 16.378 28.5718 16.3455 28.6863" fill="#0553C8"/>
<g opacity="0.4">
<path opacity="0.4" d="M16.3571 28.6949C16.1976 28.6806 16.0439 28.6317 15.9084 28.5522C15.7728 28.4726 15.6591 28.3647 15.5764 28.2369C15.5578 28.2077 15.5416 28.1678 15.566 28.1429C15.5754 28.1356 15.5863 28.1301 15.5981 28.1268C15.6098 28.1235 15.6222 28.1223 15.6344 28.1235C15.8867 28.1217 16.1374 28.162 16.3745 28.2423C16.3884 28.2452 16.4015 28.2509 16.4129 28.2589C16.4243 28.2669 16.4337 28.2771 16.4406 28.2887C16.4469 28.307 16.4469 28.3267 16.4406 28.3449C16.4093 28.4583 16.378 28.5718 16.3455 28.6863" fill="black"/>
</g>
<path d="M23.9592 16.8301C23.9592 16.8301 24.3304 17.9892 24.2283 17.9233C24.1262 17.8574 23.9047 17.6748 23.9047 17.6748L23.9592 16.8301Z" fill="#EBEBEB"/>
<path d="M23.9389 17.3652L24.1407 17.8168C24.1609 17.8635 24.1742 17.9126 24.1802 17.9626C24.1976 18.089 24.2161 18.3202 24.1361 18.3364C24.0955 18.3385 24.055 18.3321 24.0175 18.3177C23.9799 18.3033 23.9463 18.2813 23.9192 18.2532L23.9389 17.3652Z" fill="#F20000"/>
<path d="M17.6523 17.4366C17.6523 17.4366 19.6347 16.7161 20.7333 17.3523C21.8318 17.9886 22.0313 19.004 22.6855 19.004C23.9615 19.004 23.9198 18.1657 23.9198 18.1657L24.1912 18.2424C24.1912 18.4142 24.4859 19.6468 23.1472 19.7969C21.8086 19.9471 21.2379 18.2435 20.0291 18.2424C19.273 18.2543 18.5358 18.4652 17.9029 18.8506L17.034 18.3397L17.6523 17.4366Z" fill="#F20000"/>
<path d="M22.7344 19.7813C22.3925 19.5916 22.1246 19.3051 21.9699 18.9635C21.6614 18.3014 21.0002 17.5463 20.448 17.3561C19.8958 17.166 18.6187 17.0321 17.7359 17.5722L17.171 18.283L17.9041 18.727C18.3164 18.5253 18.7498 18.3635 19.1975 18.2441C20.1093 18.0075 20.6638 18.2754 21.1939 18.7421C21.2264 18.7713 21.2577 18.8004 21.2832 18.8285C21.5394 19.0828 21.8206 19.3143 22.1231 19.5199C22.3864 19.6851 22.6184 19.7813 22.7344 19.7813Z" fill="#F20000"/>
<path d="M63.8025 9.72204C64.9787 9.89164 65.8406 8.96587 66.1155 8.15245C66.3695 7.39628 66.4902 6.60879 66.8463 5.88394C67.3451 4.87932 68.6652 4.41482 69.8495 4.50772C71.0339 4.60062 72.2287 5.15586 73.2773 5.67546L72.9873 11.7248C72.9873 11.7248 70.7056 9.4563 69.6083 9.41958C67.7778 9.35152 67.8775 12.1526 66.1004 12.5663C66.1004 12.5663 63.6087 13.195 61.9244 11.1696C60.8561 9.883 60.7644 8.32097 60.7644 8.32097C60.7644 8.32097 61.5834 9.40337 63.8025 9.72204Z" fill="#08B29B"/>
<path d="M73.3275 4.67773C73.3112 4.67773 72.9911 11.103 72.6129 19.0287C72.2348 26.9545 71.9401 33.3819 71.9564 33.383C71.9726 33.3841 72.2916 26.9588 72.6709 19.0309C73.0502 11.103 73.3437 4.67881 73.3275 4.67773Z" fill="#263238"/>
<g opacity="0.2">
<path opacity="0.2" d="M67.0508 7.73242C66.8515 8.3716 66.5604 8.98278 66.1854 9.54939C65.8467 10.0431 65.3328 10.459 64.7169 10.5789C64.6041 10.593 64.4935 10.6195 64.3874 10.6577C64.3345 10.6778 64.2884 10.7107 64.2539 10.7531C64.2194 10.7955 64.1978 10.8458 64.1914 10.8986C64.1914 11.0574 64.3619 11.1611 64.515 11.2313C64.7277 11.34 64.9552 11.4214 65.1913 11.4733C65.4233 11.5143 65.6159 11.5381 65.7794 11.3653C65.9376 11.2208 66.0799 11.062 66.204 10.891C66.7411 10.0387 67.0067 8.82023 67.0508 7.85665" fill="black"/>
</g>
<path d="M65.4542 11.6189C65.4542 11.6189 65.4728 11.6114 65.5064 11.5908C65.5551 11.5613 65.602 11.5292 65.6468 11.4947C65.812 11.3674 65.9579 11.2199 66.0806 11.0561C66.2623 10.813 66.4086 10.5486 66.5156 10.2697C66.6457 9.92947 66.753 9.58205 66.8369 9.22943C66.9963 8.59042 67.0968 7.93992 67.1374 7.285C67.1525 7.03438 67.1548 6.8313 67.1548 6.69087C67.1548 6.62497 67.1548 6.57204 67.1548 6.52883C67.1567 6.51015 67.1567 6.49134 67.1548 6.47266C67.1495 6.49097 67.1472 6.50989 67.1478 6.52883C67.1478 6.57204 67.1478 6.62497 67.1409 6.68978C67.1339 6.83022 67.1258 7.0333 67.1049 7.28284C67.0522 7.93386 66.9467 8.58025 66.7894 9.21647C66.7042 9.56726 66.5973 9.91315 66.4692 10.2524C66.3641 10.5278 66.2222 10.7899 66.047 11.0324C65.9291 11.1957 65.79 11.3448 65.6329 11.4763C65.5203 11.5725 65.4507 11.6157 65.4542 11.6189Z" fill="#263238"/>
<path d="M80.418 34.6582L64.8775 37.0272V34.6582H80.418Z" fill="#E0E0E0"/>
<path d="M62.3125 40.0117L46.7708 42.3807V40.0117H62.3125Z" fill="#E0E0E0"/>
<path d="M44.332 45.1309L28.7903 47.4998V45.1309H44.332Z" fill="#E0E0E0"/>
<path d="M26.375 49.2051L10.8345 51.5741V49.2051H26.375Z" fill="#E0E0E0"/>
<path d="M64.8775 32.8848H80.418V34.6596H64.8775V32.8848Z" fill="#0553C8"/>
<g opacity="0.3">
<path opacity="0.3" d="M64.8766 32.8848H69.7266V34.6596H64.8766V32.8848Z" fill="black"/>
</g>
<path d="M46.772 38.2363H62.3125V40.0112H46.772V38.2363Z" fill="#0553C8"/>
<g opacity="0.3">
<path opacity="0.3" d="M46.7711 38.2363H51.6211V40.0112H46.7711V38.2363Z" fill="black"/>
</g>
<path d="M28.7915 43.3555H44.332V45.1303H28.7915V43.3555Z" fill="#0553C8"/>
<g opacity="0.3">
<path opacity="0.3" d="M28.7907 43.3555H33.6406V45.1303H28.7907V43.3555Z" fill="black"/>
</g>
<path d="M10.8071 47.4297H26.3477V49.2045H10.8071V47.4297Z" fill="#0553C8"/>
<g opacity="0.3">
<path opacity="0.3" d="M10.8102 47.4297H15.6602V49.2045H10.8102V47.4297Z" fill="black"/>
</g>
<path d="M20.3867 40.9724C20.3865 41.0501 20.3615 41.1261 20.315 41.1906C20.2685 41.2551 20.2024 41.3053 20.1253 41.3349C20.0481 41.3645 19.9632 41.3722 19.8814 41.3569C19.7996 41.3416 19.7244 41.304 19.6655 41.249C19.6066 41.194 19.5665 41.1239 19.5503 41.0476C19.5341 40.9714 19.5425 40.8924 19.5745 40.8206C19.6065 40.7488 19.6606 40.6875 19.73 40.6443C19.7994 40.6012 19.881 40.5781 19.9645 40.5781C20.02 40.5781 20.075 40.5883 20.1263 40.6082C20.1776 40.628 20.2242 40.657 20.2635 40.6937C20.3027 40.7303 20.3338 40.7738 20.3549 40.8216C20.3761 40.8694 20.3869 40.9207 20.3867 40.9724Z" fill="#EBEBEB"/>
</svg>
