<svg width="33" height="29" viewBox="0 0 33 29" fill="none" xmlns="http://www.w3.org/2000/svg">
<path d="M32.9958 18.5132H32.9999V0.0134277H0V18.3569H12.6329C12.6267 18.5034 12.6229 18.6504 12.6229 18.798C12.6229 21.5193 13.6827 24.0779 15.6071 26.0024C17.5315 27.9267 20.0901 28.9865 22.8115 28.9865C25.5329 28.9865 28.0915 27.9268 30.0158 26.0024C31.9402 24.078 33.0001 21.5195 33.0001 18.798C32.9999 18.7028 32.9983 18.6079 32.9958 18.5132ZM31.0633 1.95005V4.40841C30.4834 4.24548 29.9516 3.93681 29.514 3.49924C29.0764 3.06167 28.7678 2.52993 28.6048 1.95005H31.0633ZM1.93662 1.95005H4.50037C4.33743 2.52993 4.02883 3.06167 3.59119 3.49924C3.12565 3.96478 2.55672 4.28434 1.93662 4.43774V1.95005ZM1.93662 16.4203V13.9327C2.55679 14.086 3.12552 14.4054 3.59119 14.8711C4.02883 15.3086 4.33743 15.8404 4.50037 16.4203H1.93662ZM12.9009 16.4203H6.48436C6.28997 15.3206 5.76661 14.3078 4.9605 13.5016C4.12557 12.6667 3.07596 12.1377 1.93656 11.9599V6.41161C3.07602 6.23392 4.12557 5.7036 4.9605 4.86874C5.76661 4.06262 6.28997 3.04981 6.48436 1.95018H26.6208C26.8153 3.04981 27.3386 4.06262 28.1447 4.86874C28.9508 5.67485 29.9637 6.19827 31.0633 6.39266V12.8195C30.7494 12.3882 30.4002 11.9782 30.0158 11.5938C28.0915 9.66939 25.5329 8.60952 22.8114 8.60952C22.5759 8.60952 22.3418 8.61797 22.109 8.63376C21.9369 7.02134 21.0601 5.55407 19.6672 4.63626C18.4413 3.8284 16.9738 3.54636 15.5358 3.84194C14.0975 4.13758 12.8606 4.97566 12.0526 6.20175C11.2448 7.42771 10.9627 8.89505 11.2583 10.3332C11.554 11.7714 12.3921 13.0083 13.6182 13.8164C13.6918 13.8648 13.7668 13.9108 13.8423 13.9556C13.4219 14.7317 13.1058 15.5591 12.9009 16.4203ZM13.1552 9.94312C12.9637 9.01165 13.1464 8.06129 13.6697 7.26716C14.7498 5.62799 16.9623 5.17308 18.6017 6.25332C19.5339 6.86768 20.1092 7.86226 20.1929 8.94803C18.4738 9.40197 16.8976 10.303 15.607 11.5937C15.3663 11.8345 15.139 12.0852 14.9257 12.3449C14.8434 12.2995 14.7626 12.2512 14.6836 12.1991C13.8896 11.6759 13.3468 10.8746 13.1552 9.94312ZM28.6464 24.633C27.0878 26.1915 25.0156 27.0499 22.8114 27.0499C20.6072 27.0499 18.5349 26.1915 16.9763 24.633C15.4178 23.0744 14.5595 21.0022 14.5595 18.798C14.5595 16.5938 15.4179 14.5215 16.9764 12.9629C18.535 11.4044 20.6072 10.5461 22.8114 10.5461C25.0156 10.5461 27.0879 11.4045 28.6464 12.963C30.205 14.5215 31.0633 16.5938 31.0633 18.798C31.0633 21.0022 30.205 23.0744 28.6464 24.633Z" fill="#08B29B"/>
</svg>
