<svg width="108" height="16" viewBox="0 0 108 16" fill="none" xmlns="http://www.w3.org/2000/svg">
<path d="M9.43486 15.3375C11.9656 15.3674 14.0795 14.1659 15.6102 12.9361C13.8925 13.8919 11.7779 14.6499 9.35845 14.6132C7.08464 14.5789 5.08734 13.8507 3.44409 12.9361C4.94417 14.1411 6.99086 15.3086 9.43486 15.3375Z" fill="#F20000"/>
<path d="M9.43486 15.3375C11.9656 15.3674 14.0795 14.1659 15.6102 12.9361C13.8925 13.8919 11.7779 14.6499 9.35845 14.6132C7.08464 14.5789 5.08734 13.8507 3.44409 12.9361C4.94417 14.1411 6.99086 15.3086 9.43486 15.3375Z" fill="#F20000"/>
<path d="M9.43486 15.9994C11.9656 16.0375 14.0795 14.5049 15.6102 12.9361C13.8925 14.1553 11.7779 15.1223 9.35845 15.0754C7.08438 15.0312 5.08734 14.1031 3.44409 12.9364C4.94417 14.4733 6.99086 15.9625 9.43486 15.9994Z" fill="#F20000"/>
<path d="M8.6041 4.97945L8.17986 4.5519C8.11206 4.48437 8.0317 4.43098 7.94338 4.3948C7.85506 4.35863 7.76052 4.34037 7.66519 4.34109C7.57059 4.33937 7.47664 4.35719 7.38914 4.39344C7.30163 4.4297 7.22242 4.48363 7.15639 4.5519L4.40676 7.32228L1.6574 4.55199C1.59137 4.48372 1.51216 4.42979 1.42465 4.39353C1.33715 4.35728 1.2432 4.33946 1.1486 4.34117C1.05325 4.34045 0.958697 4.3587 0.870362 4.39487C0.782026 4.43105 0.701648 4.48444 0.633837 4.55199L0.214866 4.97954C0.145746 5.04661 0.0910108 5.12725 0.0540439 5.21648C0.017077 5.30571 -0.00133609 5.40163 -5.75511e-05 5.49831C-0.00230046 5.59423 0.0156994 5.68953 0.0527506 5.77791C0.0898018 5.86629 0.14506 5.94574 0.214866 6.01099L3.89752 9.72186C3.96228 9.79219 4.04113 9.84787 4.12884 9.8852C4.21655 9.92253 4.31113 9.94067 4.40632 9.93842C4.50229 9.93972 4.5975 9.92117 4.68607 9.88392C4.77464 9.84667 4.85469 9.79152 4.92126 9.72186L8.60392 6.01116C8.67171 5.94464 8.72526 5.86484 8.76128 5.77666C8.79729 5.68849 8.815 5.59382 8.81332 5.49849C8.81408 5.40236 8.79599 5.30702 8.76009 5.21795C8.72418 5.12887 8.67117 5.04783 8.6041 4.97945Z" fill="#0553C8"/>
<path d="M18.863 9.0745L18.2889 9.6532C18.1971 9.74461 18.0883 9.81687 17.9688 9.86583C17.8493 9.9148 17.7213 9.9395 17.5923 9.93853C17.4641 9.94092 17.3369 9.91683 17.2184 9.86776C17.0998 9.81868 16.9925 9.74566 16.9031 9.6532L13.182 5.90361L9.46104 9.65267C9.37161 9.74515 9.26432 9.81819 9.14579 9.86728C9.02726 9.91637 8.9 9.94047 8.77188 9.93809C8.64282 9.93905 8.51484 9.91434 8.39528 9.86536C8.27573 9.81638 8.16694 9.7441 8.07517 9.65267L7.50856 9.07397C7.41509 8.98323 7.34105 8.87416 7.29102 8.75348C7.24099 8.63281 7.21603 8.50308 7.21767 8.37231C7.21458 8.24243 7.23892 8.11338 7.28907 7.9937C7.33922 7.87401 7.41403 7.76643 7.50856 7.67808L12.493 2.65574C12.5807 2.56048 12.6875 2.48509 12.8063 2.43455C12.9251 2.38402 13.0532 2.35951 13.1821 2.36263C13.3119 2.36094 13.4407 2.38608 13.5606 2.43649C13.6804 2.4869 13.7887 2.56152 13.8787 2.65574L18.8631 7.67808C18.9549 7.76816 19.0274 7.87624 19.0761 7.99564C19.1249 8.11504 19.1488 8.24323 19.1465 8.37231C19.1474 8.50239 19.1229 8.63138 19.0742 8.75188C19.0256 8.87238 18.9538 8.98202 18.863 9.0745Z" fill="#08B29B"/>
<path d="M26.889 14.6087C26.7978 14.6114 26.707 14.5953 26.6222 14.5614C26.5374 14.5275 26.4604 14.4764 26.3959 14.4113C26.3314 14.3464 26.2807 14.2688 26.247 14.1833C26.2133 14.0979 26.1973 14.0064 26.2001 13.9145V7.85696C26.196 7.76386 26.2114 7.67094 26.2451 7.58417C26.2788 7.4974 26.3302 7.4187 26.3959 7.35313C26.4614 7.2899 26.5388 7.24047 26.6234 7.20775C26.7081 7.17502 26.7984 7.15966 26.889 7.16256C26.9809 7.15837 27.0726 7.17311 27.1586 7.20588C27.2445 7.23865 27.323 7.28875 27.3891 7.35313C27.453 7.41973 27.5027 7.49876 27.5352 7.58539C27.5677 7.67203 27.5824 7.76444 27.5782 7.85696V13.9145C27.5811 14.0058 27.5658 14.0968 27.5334 14.1821C27.5009 14.2674 27.4518 14.3453 27.3891 14.4113C27.324 14.4775 27.2459 14.5293 27.1598 14.5633C27.0737 14.5973 26.9814 14.6128 26.889 14.6087ZM26.889 5.95124C26.7719 5.95261 26.6557 5.92979 26.5477 5.88418C26.4397 5.83857 26.342 5.77115 26.2608 5.68606C26.1764 5.60426 26.1095 5.50589 26.0642 5.39703C26.019 5.28816 25.9963 5.17111 25.9977 5.05308C25.9963 4.93506 26.019 4.81801 26.0642 4.70914C26.1095 4.60028 26.1764 4.50191 26.2608 4.42011C26.342 4.33502 26.4397 4.2676 26.5477 4.22199C26.6557 4.17638 26.7719 4.15356 26.889 4.15494C27.0062 4.15356 27.1223 4.17638 27.2304 4.22199C27.3384 4.2676 27.436 4.33502 27.5172 4.42011C27.6017 4.50191 27.6686 4.60028 27.7139 4.70914C27.7591 4.81801 27.7818 4.93506 27.7804 5.05308C27.7818 5.17111 27.7591 5.28816 27.7139 5.39703C27.6686 5.50589 27.6017 5.60426 27.5172 5.68606C27.436 5.77115 27.3384 5.83857 27.2304 5.88418C27.1223 5.92979 27.0062 5.95261 26.889 5.95124ZM36.089 14.6223C35.9978 14.6251 35.907 14.609 35.8222 14.575C35.7374 14.5411 35.6604 14.49 35.5959 14.4249C35.5313 14.36 35.4807 14.2824 35.447 14.1969C35.4133 14.1115 35.3973 14.02 35.4 13.9281V10.5794C35.4 10.0622 35.3055 9.64018 35.1163 9.31349C34.9402 8.99912 34.6742 8.74538 34.3531 8.58523C34.0093 8.42106 33.6324 8.33952 33.252 8.34701C32.8966 8.34187 32.545 8.42114 32.2256 8.57842C31.9346 8.71974 31.6837 8.93277 31.4961 9.19778C31.3152 9.45894 31.2207 9.77095 31.2259 10.0894H30.375C30.3663 9.54996 30.5093 9.01905 30.7873 8.558C31.0629 8.10782 31.4518 7.73915 31.9146 7.48943C32.4084 7.22214 32.9617 7.08626 33.5222 7.09467C34.103 7.08478 34.6769 7.22291 35.1906 7.49624C35.6836 7.76609 36.0875 8.1754 36.3525 8.67371C36.6362 9.19098 36.778 9.82622 36.778 10.5794V13.9281C36.7807 14.02 36.7648 14.1115 36.7311 14.1969C36.6974 14.2824 36.6467 14.36 36.5821 14.4249C36.5176 14.49 36.4406 14.5411 36.3558 14.575C36.271 14.609 36.1802 14.6251 36.089 14.6223ZM30.5366 14.6223C30.4454 14.6251 30.3546 14.609 30.2698 14.575C30.185 14.5411 30.108 14.49 30.0435 14.4249C29.9789 14.36 29.9282 14.2824 29.8946 14.1969C29.8609 14.1115 29.8449 14.02 29.8476 13.9281V7.85696C29.8436 7.76386 29.8589 7.67094 29.8927 7.58417C29.9264 7.4974 29.9778 7.4187 30.0435 7.35313C30.109 7.2899 30.1863 7.24047 30.271 7.20775C30.3557 7.17502 30.446 7.15966 30.5366 7.16256C30.6284 7.15837 30.7202 7.17311 30.8061 7.20588C30.8921 7.23865 30.9705 7.28875 31.0366 7.35313C31.1005 7.41973 31.1503 7.49876 31.1828 7.58539C31.2153 7.67203 31.2299 7.76444 31.2258 7.85696V13.9281C31.2286 14.0194 31.2134 14.1104 31.1809 14.1957C31.1484 14.281 31.0994 14.359 31.0366 14.4249C30.9716 14.4911 30.8935 14.5429 30.8073 14.5769C30.7212 14.6109 30.629 14.6264 30.5366 14.6223ZM40.8579 14.5951C40.5787 14.5951 40.3625 14.4453 40.2094 14.1459L37.3454 8.06115C37.31 7.99096 37.29 7.91398 37.2865 7.83535C37.283 7.75671 37.2962 7.67823 37.3251 7.60514C37.3904 7.44842 37.5141 7.32377 37.6696 7.25802C37.7399 7.21812 37.8179 7.19383 37.8983 7.18678C37.9787 7.17974 38.0596 7.19011 38.1357 7.21718C38.2913 7.26992 38.42 7.38244 38.4937 7.53027L41.1686 13.3427H40.5201L43.168 7.53027C43.206 7.4557 43.2585 7.38957 43.3223 7.33579C43.3861 7.28202 43.46 7.24168 43.5395 7.21718C43.7071 7.16278 43.8892 7.17746 44.0461 7.25802C44.1211 7.28832 44.1888 7.33434 44.2447 7.39301C44.3007 7.45168 44.3436 7.52167 44.3707 7.59833C44.3975 7.6733 44.409 7.75298 44.4043 7.83253C44.3997 7.91209 44.379 7.98987 44.3437 8.06115L41.4793 14.1459C41.3442 14.4453 41.1371 14.5951 40.8579 14.5951ZM48.6662 14.6631C47.9719 14.6762 47.2859 14.5099 46.6735 14.1799C46.1055 13.8703 45.6333 13.4087 45.3091 12.8459C44.9733 12.2513 44.8029 11.5764 44.816 10.8924C44.8018 10.2073 44.9623 9.52986 45.2822 8.92509C45.5821 8.36914 46.0286 7.90748 46.5724 7.59108C47.1484 7.26196 47.8017 7.09505 48.4637 7.10784C49.1662 7.10784 49.7696 7.26439 50.274 7.57747C50.7751 7.88686 51.1763 8.33607 51.4291 8.87064C51.7044 9.46453 51.8408 10.1142 51.8276 10.7696C51.8298 10.8494 51.8154 10.9289 51.7851 11.0028C51.7549 11.0766 51.7096 11.1433 51.6521 11.1984C51.5927 11.2551 51.5227 11.2994 51.4462 11.3286C51.3697 11.3578 51.2881 11.3714 51.2063 11.3685H45.7618V10.2795H51.1656L50.6117 10.6607C50.6101 10.2397 50.5179 9.82402 50.3415 9.44236C50.1811 9.09629 49.9286 8.80181 49.612 8.59159C49.2685 8.37487 48.8688 8.2659 48.4637 8.27851C48.0016 8.26495 47.5451 8.38289 47.1465 8.61881C46.7855 8.84155 46.4967 9.16561 46.3157 9.55126C46.1212 9.97067 46.0242 10.4292 46.032 10.8921C46.0238 11.3592 46.1405 11.82 46.3698 12.2261C46.5921 12.6135 46.9142 12.9333 47.3019 13.1517C47.7192 13.384 48.1898 13.5013 48.6664 13.492C48.9591 13.4896 49.2492 13.4367 49.5242 13.3355C49.7772 13.2516 50.0163 13.13 50.2335 12.9748C50.3601 12.8779 50.5136 12.8232 50.6725 12.8182C50.823 12.8111 50.9705 12.8623 51.0848 12.9612C51.1536 13.0154 51.2107 13.0832 51.2525 13.1604C51.2943 13.2377 51.32 13.3227 51.328 13.4104C51.3311 13.4935 51.3128 13.576 51.275 13.65C51.2371 13.7239 51.1809 13.7867 51.1119 13.8323C50.7686 14.0973 50.3822 14.3002 49.97 14.4319C49.5508 14.5799 49.1104 14.658 48.6662 14.6631ZM55.9748 14.6631C55.3792 14.669 54.7871 14.57 54.2254 14.3705C53.6895 14.1754 53.2729 13.9281 52.9757 13.6286C52.9116 13.5644 52.863 13.4862 52.8337 13.4C52.8044 13.3139 52.7952 13.2221 52.8069 13.1318C52.8169 13.0415 52.8456 12.9544 52.8909 12.8759C52.9362 12.7974 52.9972 12.7292 53.07 12.6757C53.1416 12.6097 53.226 12.5593 53.3178 12.5277C53.4096 12.4961 53.5069 12.4839 53.6037 12.492C53.778 12.514 53.9387 12.5986 54.0562 12.7302C54.2093 12.9026 54.4548 13.0637 54.7925 13.2134C55.1489 13.367 55.5334 13.4435 55.921 13.438C56.4433 13.438 56.8419 13.3518 57.1166 13.1794C57.3913 13.007 57.5331 12.7846 57.5421 12.5124C57.5511 12.2401 57.4228 12.0042 57.1571 11.8045C56.8914 11.6049 56.4073 11.4416 55.7048 11.3145C54.7952 11.133 54.1355 10.8608 53.7257 10.4978C53.5311 10.3355 53.375 10.1316 53.2687 9.90077C53.1623 9.66999 53.1085 9.41819 53.111 9.16375C53.0962 8.74238 53.2411 8.33113 53.5163 8.01351C53.7996 7.7008 54.1577 7.46648 54.5565 7.33289C54.982 7.18279 55.4297 7.10683 55.8804 7.10829C56.4208 7.09828 56.9579 7.19541 57.4611 7.39414C57.8862 7.55985 58.2627 7.83149 58.5553 8.18366C58.6134 8.24397 58.6588 8.31541 58.6889 8.39374C58.7191 8.47207 58.7333 8.5557 58.7308 8.63968C58.7254 8.71981 58.7019 8.79765 58.6621 8.86725C58.6223 8.93684 58.5672 8.99635 58.5011 9.04124C58.4264 9.09133 58.3424 9.1256 58.2541 9.14198C58.1659 9.15836 58.0753 9.1565 57.9878 9.13653C57.8009 9.10585 57.6271 9.02066 57.4877 8.8915C57.2829 8.68614 57.033 8.53226 56.7582 8.4423C56.4643 8.35604 56.1592 8.31474 55.8531 8.31979C55.5065 8.30934 55.1622 8.37919 54.8466 8.52397C54.5717 8.66009 54.4343 8.85974 54.4343 9.12291C54.4325 9.27996 54.4772 9.43399 54.5627 9.56532C54.6482 9.6969 54.8171 9.81476 55.0693 9.91888C55.4288 10.0537 55.7995 10.1562 56.177 10.2252C56.8525 10.3613 57.3861 10.5337 57.7779 10.7424C58.1697 10.9512 58.4513 11.1939 58.6229 11.4708C58.7973 11.7596 58.8863 12.0925 58.8796 12.4305C58.8842 12.832 58.7689 13.2257 58.5486 13.5603C58.3056 13.9147 57.9685 14.1931 57.5759 14.3634C57.1481 14.5632 56.6145 14.6631 55.975 14.6631H55.9748ZM63.0135 14.6087C62.5833 14.6145 62.1608 14.4939 61.7976 14.2616C61.4356 14.0281 61.1418 13.7017 60.9467 13.3158C60.7354 12.8989 60.6287 12.4362 60.636 11.9682V5.47507C60.6327 5.38471 60.6477 5.29462 60.6803 5.21034C60.7128 5.12607 60.7621 5.04939 60.8251 4.98502C60.889 4.92152 60.9651 4.87185 61.0487 4.83908C61.1324 4.8063 61.2218 4.79112 61.3114 4.79445C61.4011 4.79112 61.4905 4.8063 61.5742 4.83908C61.6578 4.87185 61.7339 4.92152 61.7978 4.98502C61.8608 5.04939 61.9101 5.12607 61.9426 5.21034C61.9752 5.29462 61.9902 5.38471 61.9869 5.47507V11.9682C61.9759 12.298 62.0812 12.6211 62.2841 12.8802C62.3689 12.9945 62.479 13.0872 62.6056 13.1509C62.7322 13.2147 62.8719 13.2478 63.0135 13.2475H63.4728C63.5512 13.2466 63.6288 13.2633 63.7001 13.2962C63.7714 13.3292 63.8346 13.3776 63.8851 13.438C64.0008 13.574 64.061 13.7491 64.0537 13.9281C64.056 14.0215 64.0372 14.1142 63.9985 14.1991C63.9599 14.284 63.9025 14.3589 63.8308 14.4181C63.6687 14.5498 63.4646 14.6176 63.2566 14.6087H63.0135ZM60.0144 8.60564C59.846 8.6132 59.6814 8.55464 59.555 8.4423C59.4983 8.391 59.4532 8.32794 59.423 8.25746C59.3927 8.18697 59.3779 8.11072 59.3796 8.03393C59.376 7.95288 59.3899 7.87201 59.4201 7.79684C59.4504 7.72167 59.4964 7.65396 59.555 7.59833C59.6814 7.48599 59.846 7.42743 60.0144 7.43498H63.1351C63.3034 7.42743 63.468 7.48599 63.5944 7.59833C63.653 7.65396 63.699 7.72167 63.7293 7.79684C63.7595 7.87201 63.7734 7.95288 63.7698 8.03393C63.7715 8.11072 63.7567 8.18697 63.7264 8.25746C63.6962 8.32794 63.6511 8.391 63.5944 8.4423C63.468 8.55464 63.3034 8.6132 63.1351 8.60564H60.0144Z" fill="#0553C8"/>
<path d="M26.8667 6.18742C27.4481 6.18742 27.9194 5.71252 27.9194 5.12671C27.9194 4.5409 27.4481 4.06601 26.8667 4.06601C26.2853 4.06601 25.814 4.5409 25.814 5.12671C25.814 5.71252 26.2853 6.18742 26.8667 6.18742Z" fill="#F20000"/>
<path d="M69.9808 14.5662C69.8566 14.5679 69.7334 14.544 69.6187 14.4959C69.5041 14.4478 69.4004 14.3765 69.3141 14.2864C69.2236 14.1966 69.1522 14.089 69.1044 13.9703C69.0567 13.8517 69.0336 13.7244 69.0365 13.5963V9.25073L64.0947 1.51069C63.9343 1.24958 63.8726 1.004 63.9096 0.773947C63.9418 0.552271 64.0579 0.351754 64.2336 0.214426C64.4093 0.0725555 64.6286 -0.00326125 64.8537 -1.24034e-05C65.0311 -0.00959598 65.2067 0.0395109 65.3538 0.139824C65.4936 0.25151 65.6126 0.387253 65.7054 0.540769L70.4066 8.05709H69.6662L74.4417 0.466255C74.5315 0.325945 74.6517 0.208058 74.7934 0.121527C74.9462 0.0363968 75.1189 -0.00547936 75.2934 0.00034097C75.397 -0.00227907 75.5 0.0171232 75.5957 0.057284C75.6914 0.0974449 75.7776 0.157464 75.8487 0.233431C75.9977 0.390911 76.0891 0.594819 76.1078 0.811603C76.1281 1.05926 76.0627 1.30634 75.9227 1.51096L70.9434 9.25073V13.5963C70.9463 13.7244 70.9232 13.8517 70.8754 13.9703C70.8277 14.089 70.7563 14.1966 70.6657 14.2864C70.5766 14.3777 70.4698 14.4496 70.352 14.4977C70.2342 14.5459 70.1079 14.5691 69.9808 14.5662ZM78.5879 14.5662C78.4629 14.5699 78.3386 14.5479 78.2224 14.5013C78.1062 14.4548 78.0007 14.3848 77.9124 14.2957C77.824 14.2067 77.7545 14.1004 77.7084 13.9834C77.6622 13.8663 77.6403 13.741 77.6441 13.6151V5.31508C77.6386 5.18756 77.6596 5.0603 77.7058 4.94146C77.752 4.82261 77.8224 4.71482 77.9124 4.62501C78.0021 4.53839 78.108 4.47068 78.224 4.42584C78.34 4.381 78.4637 4.35995 78.5879 4.3639C78.7137 4.35821 78.8393 4.37844 78.957 4.42333C79.0748 4.46823 79.1822 4.53685 79.2728 4.62501C79.3602 4.71623 79.4284 4.82448 79.4729 4.94313C79.5175 5.06179 79.5375 5.18835 79.5319 5.31508V13.6151C79.5358 13.7402 79.5149 13.8648 79.4704 13.9817C79.4259 14.0986 79.3587 14.2053 79.2728 14.2957C79.1836 14.3864 79.0767 14.4573 78.9587 14.5039C78.8408 14.5505 78.7145 14.5717 78.5879 14.5662ZM78.5879 2.70399C78.4274 2.70579 78.2682 2.67445 78.1202 2.61189C77.9721 2.54933 77.8384 2.45689 77.7271 2.34025C77.6114 2.22819 77.5197 2.09344 77.4576 1.94429C77.3955 1.79514 77.3644 1.63476 77.3662 1.47304C77.3644 1.3113 77.3955 1.1509 77.4576 1.00174C77.5196 0.852576 77.6114 0.717806 77.7271 0.605737C77.8384 0.489118 77.9721 0.396688 78.1202 0.334147C78.2682 0.271605 78.4274 0.240277 78.5879 0.242093C78.7484 0.240289 78.9076 0.271623 79.0556 0.334164C79.2036 0.396705 79.3373 0.489129 79.4486 0.605737C79.5643 0.717806 79.6561 0.852576 79.7181 1.00174C79.7802 1.1509 79.8113 1.3113 79.8095 1.47304C79.8113 1.63476 79.7802 1.79514 79.7181 1.94429C79.656 2.09344 79.5643 2.22819 79.4486 2.34025C79.3373 2.45688 79.2036 2.54932 79.0556 2.61187C78.9076 2.67443 78.7484 2.70578 78.5879 2.70399ZM87.3985 14.6408C86.3743 14.6408 85.4643 14.4201 84.6684 13.9786C83.8901 13.5545 83.2432 12.922 82.7989 12.1509C82.3486 11.3738 82.1234 10.4817 82.1234 9.47454C82.1234 8.45509 82.3363 7.55673 82.762 6.77947C83.1728 6.01774 83.7846 5.38521 84.5297 4.9517C85.2824 4.51027 86.1462 4.28956 87.1211 4.28956C88.0836 4.28956 88.9104 4.50406 89.6014 4.93305C90.2879 5.35697 90.8376 5.97245 91.1839 6.70487C91.5479 7.45714 91.7299 8.32447 91.7299 9.30686C91.7329 9.41631 91.7131 9.52517 91.6716 9.62638C91.6302 9.72758 91.568 9.81887 91.4893 9.89432C91.4079 9.97206 91.312 10.0327 91.2071 10.0727C91.1023 10.1128 90.9905 10.1314 90.8785 10.1275H83.4189V8.63508H90.8229L90.064 9.1573C90.0617 8.58046 89.9354 8.01096 89.6938 7.48802C89.474 7.014 89.1282 6.6106 88.6947 6.32257C88.2628 6.0366 87.7383 5.89361 87.1213 5.89361C86.418 5.89361 85.8164 6.04903 85.3167 6.35988C84.8219 6.66505 84.4263 7.10903 84.1783 7.6374C83.9116 8.2121 83.7786 8.8405 83.7891 9.47481C83.7779 10.1149 83.9378 10.7462 84.2519 11.3026C84.5566 11.8334 84.9978 12.2716 85.5291 12.5708C86.1008 12.889 86.7456 13.0498 87.3985 13.037C87.7997 13.0337 88.1973 12.9611 88.574 12.8225C88.9206 12.7075 89.2481 12.5409 89.5456 12.3281C89.7192 12.1954 89.9294 12.1204 90.1472 12.1136C90.3533 12.1039 90.5552 12.174 90.7117 12.3094C90.806 12.3836 90.8842 12.4765 90.9415 12.5824C90.9989 12.6882 91.0341 12.8048 91.0451 12.9248C91.0574 13.1488 90.9587 13.3415 90.7489 13.503C90.2786 13.8657 89.7494 14.1433 89.1849 14.3236C88.6105 14.5265 88.0071 14.6337 87.3985 14.6408ZM96.1352 14.5662C95.619 14.5745 95.1136 14.4178 94.6914 14.1186C94.2615 13.8074 93.9227 13.3854 93.7104 12.8969C93.4668 12.3358 93.3468 11.7281 93.3587 11.1158V0.932523C93.3541 0.808661 93.3748 0.68517 93.4193 0.569643C93.4639 0.454117 93.5315 0.348996 93.6178 0.260744C93.7054 0.173713 93.8097 0.105654 93.9244 0.0607503C94.0391 0.0158469 94.1616 -0.00495104 94.2845 -0.000365777C94.4075 -0.00495104 94.53 0.0158469 94.6447 0.0607503C94.7593 0.105654 94.8637 0.173713 94.9512 0.260744C95.0376 0.348996 95.1052 0.454117 95.1497 0.569643C95.1943 0.68517 95.2149 0.808661 95.2104 0.932523V11.1158C95.2104 11.5759 95.2968 11.9551 95.4695 12.2535C95.6423 12.5519 95.8645 12.7011 96.1362 12.7011H96.599C96.7121 12.6973 96.8247 12.7188 96.9287 12.7639C97.0327 12.809 97.1255 12.8768 97.2005 12.9622C97.3592 13.1486 97.4419 13.3886 97.4319 13.634C97.4331 13.7666 97.4016 13.8974 97.3402 14.0146C97.2788 14.1319 97.1895 14.2319 97.0802 14.3058C96.8135 14.4894 96.4949 14.5808 96.1722 14.5662H96.1352ZM102.91 14.6408C101.998 14.6542 101.099 14.419 100.309 13.9602C99.5466 13.5152 98.9144 12.875 98.4766 12.1045C98.0203 11.2985 97.7871 10.3839 97.8011 9.45607C97.7859 8.53802 97.9991 7.63074 98.4212 6.81704C98.8144 6.06193 99.3987 5.42494 100.115 4.97062C100.841 4.51372 101.683 4.27742 102.54 4.29C103.238 4.28325 103.929 4.43963 104.557 4.7469C105.16 5.03992 105.691 5.46331 106.112 5.98686V0.951173C106.106 0.823654 106.127 0.696387 106.174 0.577546C106.22 0.458704 106.29 0.350913 106.38 0.261097C106.47 0.174478 106.576 0.106767 106.692 0.0619305C106.808 0.0170943 106.932 -0.00396471 107.056 -1.24034e-05C107.182 -0.00569764 107.307 0.0145251 107.425 0.0594204C107.543 0.104316 107.65 0.17294 107.741 0.261097C107.828 0.352323 107.896 0.460573 107.941 0.579225C107.985 0.697877 108.005 0.824439 108 0.951173V9.45589C108.014 10.3837 107.781 11.2983 107.324 12.1043C106.888 12.873 106.26 13.5129 105.501 13.96C104.715 14.4196 103.819 14.6549 102.91 14.6408ZM102.91 12.9622C103.503 12.9722 104.086 12.8138 104.594 12.5052C105.089 12.1996 105.492 11.7645 105.76 11.2463C106.048 10.6946 106.194 10.0791 106.186 9.4558C106.197 8.83221 106.051 8.21596 105.76 7.66534C105.488 7.15509 105.085 6.72711 104.594 6.42529C104.086 6.11673 103.503 5.95836 102.91 5.9683C102.32 5.96075 101.74 6.119 101.234 6.42529C100.738 6.72644 100.33 7.1543 100.05 7.6656C99.7535 8.21434 99.6036 8.83135 99.6151 9.45607C99.6066 10.0804 99.7563 10.6967 100.05 11.2465C100.325 11.7658 100.734 12.2006 101.234 12.5055C101.74 12.8117 102.32 12.9698 102.91 12.9622Z" fill="#08B29B"/>
</svg>
