<svg width="10" height="10" viewBox="0 0 10 10" fill="none" xmlns="http://www.w3.org/2000/svg">
<path d="M8.6833 1.92062C8.47049 1.7077 8.21781 1.5388 7.9397 1.42357C7.66159 1.30833 7.3635 1.24902 7.06247 1.24902C6.76143 1.24902 6.46334 1.30833 6.18524 1.42357C5.90713 1.5388 5.65445 1.7077 5.44163 1.92062L4.99997 2.36228L4.5583 1.92062C4.12843 1.49075 3.5454 1.24925 2.93747 1.24925C2.32954 1.24925 1.74651 1.49075 1.31663 1.92062C0.886763 2.35049 0.645264 2.93352 0.645264 3.54145C0.645264 4.14938 0.886763 4.73241 1.31663 5.16228L1.7583 5.60395L4.99997 8.84562L8.24163 5.60395L8.6833 5.16228C8.89622 4.94947 9.06511 4.69679 9.18035 4.41868C9.29558 4.14057 9.35489 3.84249 9.35489 3.54145C9.35489 3.24041 9.29558 2.94233 9.18035 2.66422C9.06511 2.38611 8.89622 2.13343 8.6833 1.92062V1.92062Z" stroke="#707070" stroke-width="0.8" stroke-linecap="round" stroke-linejoin="round"/>
</svg>
