<svg width="28" height="28" viewBox="0 0 28 28" fill="none" xmlns="http://www.w3.org/2000/svg">
<path d="M19.8346 24.5V22.1667C19.8346 20.929 19.343 19.742 18.4678 18.8668C17.5926 17.9917 16.4056 17.5 15.168 17.5H5.83463C4.59696 17.5 3.40997 17.9917 2.5348 18.8668C1.65963 19.742 1.16797 20.929 1.16797 22.1667V24.5" stroke="#EA940B" stroke-width="2" stroke-linecap="round" stroke-linejoin="round"/>
<path d="M10.4987 12.8333C13.076 12.8333 15.1654 10.744 15.1654 8.16667C15.1654 5.58934 13.076 3.5 10.4987 3.5C7.92137 3.5 5.83203 5.58934 5.83203 8.16667C5.83203 10.744 7.92137 12.8333 10.4987 12.8333Z" stroke="#EA940B" stroke-width="2" stroke-linecap="round" stroke-linejoin="round"/>
<path d="M26.832 24.5007V22.1673C26.8313 21.1334 26.4871 20.1289 25.8536 19.3117C25.2201 18.4945 24.3332 17.9108 23.332 17.6523" stroke="#EA940B" stroke-width="2" stroke-linecap="round" stroke-linejoin="round"/>
<path d="M18.668 3.65234C19.6718 3.90936 20.5615 4.49316 21.1969 5.31171C21.8322 6.13025 22.1771 7.13698 22.1771 8.17318C22.1771 9.20938 21.8322 10.2161 21.1969 11.0346C20.5615 11.8532 19.6718 12.437 18.668 12.694" stroke="#EA940B" stroke-width="2" stroke-linecap="round" stroke-linejoin="round"/>
</svg>
