<svg width="13" height="11" viewBox="0 0 13 11" fill="none" xmlns="http://www.w3.org/2000/svg">
<path d="M2.93829 11C2.73296 11 2.56029 10.93 2.42029 10.79C2.28962 10.65 2.22429 10.482 2.22429 10.286C2.22429 10.09 2.28029 9.93133 2.39229 9.81L9.75629 0.345999C9.92429 0.159333 10.1156 0.0659997 10.3303 0.0659997C10.5356 0.0659997 10.7083 0.136 10.8483 0.276C10.9883 0.415999 11.0583 0.583999 11.0583 0.78C11.0583 0.938666 11.007 1.08333 10.9043 1.214L3.47029 10.776C3.33029 10.9253 3.15296 11 2.93829 11ZM3.77829 5.652C3.26496 5.652 2.79362 5.526 2.36429 5.274C1.94429 5.01267 1.60829 4.672 1.35629 4.252C1.10429 3.832 0.97829 3.37 0.97829 2.866C0.97829 2.362 1.10429 1.9 1.35629 1.48C1.60829 1.05067 1.94429 0.71 2.36429 0.458C2.79362 0.196666 3.26496 0.0659997 3.77829 0.0659997C4.29162 0.0659997 4.75829 0.196666 5.17829 0.458C5.59829 0.71 5.93429 1.05067 6.18629 1.48C6.43829 1.9 6.56429 2.362 6.56429 2.866C6.56429 3.37 6.43829 3.832 6.18629 4.252C5.93429 4.672 5.59829 5.01267 5.17829 5.274C4.75829 5.526 4.29162 5.652 3.77829 5.652ZM3.77829 4.224C4.15162 4.224 4.46896 4.09333 4.73029 3.832C5.00096 3.56133 5.13629 3.23933 5.13629 2.866C5.13629 2.49267 5.00096 2.17067 4.73029 1.9C4.45962 1.62933 4.14229 1.494 3.77829 1.494C3.39562 1.494 3.06896 1.62933 2.79829 1.9C2.53696 2.17067 2.40629 2.49267 2.40629 2.866C2.40629 3.23933 2.53696 3.56133 2.79829 3.832C3.06896 4.09333 3.39562 4.224 3.77829 4.224ZM9.46229 11C8.95829 11 8.49162 10.874 8.06229 10.622C7.64229 10.37 7.30629 10.034 7.05429 9.614C6.80229 9.18467 6.67629 8.718 6.67629 8.214C6.67629 7.70067 6.80229 7.234 7.05429 6.814C7.30629 6.394 7.64229 6.058 8.06229 5.806C8.48229 5.554 8.94896 5.428 9.46229 5.428C9.96629 5.428 10.4283 5.554 10.8483 5.806C11.2776 6.04867 11.6183 6.38 11.8703 6.8C12.1316 7.22 12.2623 7.69133 12.2623 8.214C12.2623 8.72733 12.1316 9.194 11.8703 9.614C11.6183 10.034 11.2823 10.37 10.8623 10.622C10.4423 10.874 9.97562 11 9.46229 11ZM9.46229 9.572C9.84496 9.572 10.167 9.44133 10.4283 9.18C10.699 8.90933 10.8343 8.58733 10.8343 8.214C10.8343 7.84067 10.699 7.52333 10.4283 7.262C10.167 6.99133 9.84496 6.856 9.46229 6.856C9.08896 6.856 8.76696 6.98667 8.49629 7.248C8.23496 7.50933 8.10429 7.83133 8.10429 8.214C8.10429 8.58733 8.23496 8.90933 8.49629 9.18C8.76696 9.44133 9.08896 9.572 9.46229 9.572Z" fill="#263238"/>
</svg>
