<svg width="34" height="34" viewBox="0 0 34 34" fill="none" xmlns="http://www.w3.org/2000/svg">
<path d="M17 34C7.62582 34 0 26.3742 0 17C0 7.62582 7.62582 0 17 0C26.3742 0 34 7.62582 34 17C34 26.3742 26.3742 34 17 34ZM17 2.125C8.79753 2.125 2.125 8.79753 2.125 17C2.125 25.2025 8.79753 31.875 17 31.875C25.2025 31.875 31.875 25.2025 31.875 17C31.875 8.79753 25.2025 2.125 17 2.125Z" fill="#08B29B"/>
<path d="M24.4375 18.0625H9.5625C8.976 18.0625 8.5 17.5865 8.5 17C8.5 16.4135 8.976 15.9375 9.5625 15.9375H24.4375C25.024 15.9375 25.5 16.4135 25.5 17C25.5 17.5865 25.024 18.0625 24.4375 18.0625Z" fill="#08B29B"/>
<path d="M17 25.5C16.4135 25.5 15.9375 25.024 15.9375 24.4375V9.5625C15.9375 8.976 16.4135 8.5 17 8.5C17.5865 8.5 18.0625 8.976 18.0625 9.5625V24.4375C18.0625 25.024 17.5865 25.5 17 25.5Z" fill="#08B29B"/>
</svg>
