<svg width="50" height="50" viewBox="0 0 50 50" fill="none" xmlns="http://www.w3.org/2000/svg">
<g filter="url(#filter0_d)">
<circle cx="25" cy="25" r="14" fill="url(#paint0_linear)"/>
</g>
<g clip-path="url(#clip0)">
<path d="M25 24.2495C21.915 24.2495 20.2164 25.7108 20.2164 28.3587C20.2164 28.571 20.3787 28.7334 20.5911 28.7334H29.4089C29.6212 28.7334 29.7836 28.571 29.7836 28.3587C29.7836 25.7108 28.085 24.2495 25 24.2495Z" fill="white"/>
<path d="M25 23.7C26.3739 23.7 27.4855 22.4885 27.4855 21.0022C27.4855 19.5534 26.4113 18.4668 25 18.4668C23.5887 18.4668 22.5145 19.5534 22.5145 21.0022C22.5145 22.4885 23.6261 23.7 25 23.7Z" fill="white"/>
</g>
<defs>
<filter id="filter0_d" x="0" y="0" width="50" height="50" filterUnits="userSpaceOnUse" color-interpolation-filters="sRGB">
<feFlood flood-opacity="0" result="BackgroundImageFix"/>
<feColorMatrix in="SourceAlpha" type="matrix" values="0 0 0 0 0 0 0 0 0 0 0 0 0 0 0 0 0 0 127 0"/>
<feOffset/>
<feGaussianBlur stdDeviation="5.5"/>
<feColorMatrix type="matrix" values="0 0 0 0 0.0196078 0 0 0 0 0.32549 0 0 0 0 0.784314 0 0 0 0.3 0"/>
<feBlend mode="normal" in2="BackgroundImageFix" result="effect1_dropShadow"/>
<feBlend mode="normal" in="SourceGraphic" in2="effect1_dropShadow" result="shape"/>
</filter>
<linearGradient id="paint0_linear" x1="37.9706" y1="12.4412" x2="15.5294" y2="44.5588" gradientUnits="userSpaceOnUse">
<stop stop-color="#0553C8"/>
<stop offset="1" stop-color="#08B29B"/>
</linearGradient>
<clipPath id="clip0">
<rect width="10.2667" height="10.2667" fill="white" transform="translate(19.8667 18.4668)"/>
</clipPath>
</defs>
</svg>
