<svg width="292" height="292" viewBox="0 0 292 292" fill="none" xmlns="http://www.w3.org/2000/svg">
<path d="M292 223.322H0V223.468H292V223.322Z" fill="#EBEBEB"/>
<path d="M262.741 232.718H243.399V232.864H262.741V232.718Z" fill="#EBEBEB"/>
<path d="M193.432 234.307H188.357V234.453H193.432V234.307Z" fill="#EBEBEB"/>
<path d="M242.816 227.299H231.609V227.445H242.816V227.299Z" fill="#EBEBEB"/>
<path d="M55.8597 228.28H30.6367V228.426H55.8597V228.28Z" fill="#EBEBEB"/>
<path d="M64.7597 228.28H61.063V228.426H64.7597V228.28Z" fill="#EBEBEB"/>
<path d="M131.487 230.744H76.7783V230.89H131.487V230.744Z" fill="#EBEBEB"/>
<path d="M138.408 197.275H25.6433C24.7599 197.274 23.9132 196.922 23.2891 196.297C22.665 195.671 22.3145 194.824 22.3145 193.941V35.4256C22.3221 34.5472 22.6761 33.7074 23.2993 33.0885C23.9226 32.4696 24.7649 32.1216 25.6433 32.1201H138.408C139.292 32.1201 140.14 32.4714 140.766 33.0968C141.391 33.7222 141.742 34.5704 141.742 35.4548V193.941C141.742 194.825 141.391 195.673 140.766 196.299C140.14 196.924 139.292 197.275 138.408 197.275ZM25.6433 32.2369C24.7986 32.2385 23.989 32.5751 23.3923 33.1729C22.7956 33.7707 22.4605 34.5809 22.4605 35.4256V193.941C22.4605 194.785 22.7956 195.596 23.3923 196.193C23.989 196.791 24.7986 197.128 25.6433 197.129H138.408C139.253 197.128 140.063 196.791 140.661 196.194C141.258 195.596 141.595 194.786 141.596 193.941V35.4256C141.595 34.5804 141.258 33.7702 140.661 33.1726C140.063 32.5749 139.253 32.2385 138.408 32.2369H25.6433Z" fill="#EBEBEB"/>
<path d="M264.733 197.275H151.963C151.079 197.274 150.231 196.922 149.606 196.297C148.981 195.672 148.629 194.825 148.628 193.941V35.4256C148.637 34.5467 148.992 33.7069 149.617 33.0882C150.241 32.4694 151.084 32.1216 151.963 32.1201H264.733C265.61 32.1232 266.451 32.4718 267.073 33.0906C267.695 33.7093 268.048 34.5482 268.056 35.4256V193.941C268.056 194.823 267.706 195.669 267.083 196.294C266.461 196.92 265.615 197.272 264.733 197.275ZM151.963 32.2369C151.117 32.2385 150.307 32.5749 149.71 33.1726C149.112 33.7702 148.775 34.5804 148.774 35.4256V193.941C148.775 194.786 149.112 195.596 149.71 196.194C150.307 196.791 151.117 197.128 151.963 197.129H264.733C265.578 197.128 266.388 196.791 266.986 196.194C267.584 195.596 267.92 194.786 267.922 193.941V35.4256C267.92 34.5804 267.584 33.7702 266.986 33.1726C266.388 32.5749 265.578 32.2385 264.733 32.2369H151.963Z" fill="#EBEBEB"/>
<path d="M65.0518 223.322V140.691H38.5557V223.322H65.0518Z" fill="#F0F0F0"/>
<path d="M63.5977 167.088V142.765H40.0099V167.088H63.5977Z" fill="#E6E6E6"/>
<path d="M63.5977 193.596V169.272H40.0099V193.596H63.5977Z" fill="#E6E6E6"/>
<path d="M63.5918 220.104V195.78H40.004V220.104H63.5918Z" fill="#E6E6E6"/>
<path d="M63.5977 167.088V142.765H54.3179V167.088H63.5977Z" fill="#E0E0E0"/>
<path d="M63.5977 193.596V169.272H54.3179V193.596H63.5977Z" fill="#E0E0E0"/>
<path d="M60.0588 157.371H53.6348V167.088H60.0588V157.371Z" fill="#F0F0F0"/>
<path d="M50.9133 167.088H53.6289V157.371H50.9133V167.088Z" fill="#E0E0E0"/>
<path d="M52.2739 159.899H44.022V167.088H52.2739V159.899Z" fill="#F0F0F0"/>
<path d="M40.5355 167.088H44.022V159.899H40.5355V167.088Z" fill="#E0E0E0"/>
<path d="M63.5918 220.098V195.774H54.312V220.098H63.5918Z" fill="#E0E0E0"/>
<path d="M38.5557 223.322L38.5557 140.691H31.3608L31.3608 223.322H38.5557Z" fill="#F5F5F5"/>
<path d="M60.958 205.843H43.438V220.104H60.958V205.843Z" fill="#F0F0F0"/>
<path d="M40.0099 220.098H43.438V205.837H40.0099V220.098Z" fill="#E0E0E0"/>
<path d="M57.88 182.278H42.3105V193.596H57.88V182.278Z" fill="#FAFAFA"/>
<path d="M40.0154 193.596H42.3164V182.278H40.0154V193.596Z" fill="#F0F0F0"/>
<path d="M260.703 223.322V140.691H234.207V223.322H260.703Z" fill="#F0F0F0"/>
<path d="M259.243 167.088V142.765H235.656V167.088H259.243Z" fill="#E6E6E6"/>
<path d="M259.243 193.596V169.272H235.656V193.596H259.243Z" fill="#E6E6E6"/>
<path d="M259.243 220.104V195.78H235.656V220.104H259.243Z" fill="#E6E6E6"/>
<path d="M259.243 167.088V142.765H249.964V167.088H259.243Z" fill="#E0E0E0"/>
<path d="M259.243 193.596V169.272H249.964V193.596H259.243Z" fill="#E0E0E0"/>
<path d="M245.811 186.53H239.387V193.59H245.811V186.53Z" fill="#F0F0F0"/>
<path d="M236.672 193.596H239.387V186.536H236.672V193.596Z" fill="#E0E0E0"/>
<path d="M251.628 179.469H245.204V186.53H251.628V179.469Z" fill="#F0F0F0"/>
<path d="M242.489 186.536H245.204V179.475H242.489V186.536Z" fill="#E0E0E0"/>
<path d="M256.195 186.53H249.771V193.59H256.195V186.53Z" fill="#F0F0F0"/>
<path d="M247.055 193.596H249.771V186.536H247.055V193.596Z" fill="#E0E0E0"/>
<path d="M259.243 220.104V195.78H249.964V220.104H259.243Z" fill="#E0E0E0"/>
<path d="M234.207 223.322V140.691H227.012V223.322H234.207Z" fill="#F5F5F5"/>
<path d="M252.983 200.791H238.494V220.104H252.983V200.791Z" fill="#F0F0F0"/>
<path d="M235.661 220.098H238.494V200.785H235.661V220.098Z" fill="#E0E0E0"/>
<path d="M257.643 151.758H238.494V167.088H257.643V151.758Z" fill="#FAFAFA"/>
<path d="M235.661 167.088H238.494V151.758H235.661V167.088Z" fill="#F0F0F0"/>
<path d="M211.571 47.6431H76.3462V136.464H211.571V47.6431Z" fill="#E6E6E6"/>
<path d="M213.4 47.6431H78.1743V136.464H213.4V47.6431Z" fill="#F5F5F5"/>
<path d="M210.123 132.784V51.3223L81.4447 51.3223V132.784H210.123Z" fill="white"/>
<path d="M210.123 132.784V51.3223H208.745V132.784H210.123Z" fill="#E6E6E6"/>
<path d="M212.045 107.263H79.5293V112.204H212.045V107.263Z" fill="#F5F5F5"/>
<path d="M216.974 41.5518H72.7781C72.7117 41.551 72.6457 41.5634 72.5841 41.5883C72.5225 41.6132 72.4664 41.6501 72.4192 41.6968C72.3719 41.7435 72.3344 41.7992 72.3088 41.8605C72.2832 41.9218 72.27 41.9876 72.27 42.054C72.2716 42.1878 72.3258 42.3155 72.4209 42.4095C72.516 42.5036 72.6444 42.5563 72.7781 42.5563H216.974C217.106 42.5548 217.233 42.5014 217.327 42.4075C217.421 42.3136 217.474 42.1868 217.476 42.054C217.476 41.9208 217.423 41.7931 217.329 41.6989C217.234 41.6047 217.107 41.5518 216.974 41.5518Z" fill="#E6E6E6"/>
<path d="M218.737 42.0481C218.737 42.2976 218.663 42.5414 218.525 42.7489C218.386 42.9563 218.189 43.118 217.959 43.2135C217.728 43.309 217.474 43.3339 217.23 43.2853C216.985 43.2366 216.76 43.1164 216.584 42.94C216.407 42.7636 216.287 42.5389 216.239 42.2942C216.19 42.0495 216.215 41.7958 216.31 41.5653C216.406 41.3348 216.568 41.1378 216.775 40.9992C216.982 40.8606 217.226 40.7866 217.476 40.7866C217.641 40.7866 217.805 40.8192 217.959 40.8826C218.112 40.946 218.251 41.039 218.368 41.1561C218.485 41.2732 218.578 41.4123 218.641 41.5653C218.705 41.7184 218.737 41.8824 218.737 42.0481Z" fill="#E6E6E6"/>
<path d="M77.0295 44.8807C76.8487 44.8792 76.6758 44.8067 76.548 44.6789C76.4202 44.5511 76.3477 44.3782 76.3462 44.1975V42.7316C76.3462 42.5504 76.4182 42.3766 76.5463 42.2485C76.6745 42.1203 76.8483 42.0483 77.0295 42.0483C77.2091 42.0483 77.3815 42.1197 77.5085 42.2468C77.6355 42.3738 77.7069 42.5461 77.7069 42.7258V44.1916C77.7077 44.2814 77.6908 44.3704 77.6571 44.4536C77.6235 44.5367 77.5738 44.6125 77.5109 44.6765C77.448 44.7405 77.3731 44.7915 77.2905 44.8265C77.2079 44.8615 77.1192 44.88 77.0295 44.8807Z" fill="#E6E6E6"/>
<path d="M209.364 44.8807C209.184 44.8792 209.011 44.8065 208.885 44.6786C208.758 44.5506 208.687 44.3777 208.687 44.1975V42.7316C208.686 42.6422 208.703 42.5534 208.736 42.4706C208.77 42.3877 208.82 42.3123 208.883 42.2488C208.946 42.1853 209.021 42.1349 209.103 42.1005C209.186 42.0661 209.275 42.0483 209.364 42.0483C209.544 42.0483 209.717 42.1195 209.845 42.2464C209.973 42.3733 210.046 42.5456 210.047 42.7258V44.1916C210.047 44.3734 209.975 44.5478 209.848 44.6768C209.72 44.8059 209.546 44.8792 209.364 44.8807Z" fill="#E6E6E6"/>
<path opacity="0.4" d="M216.81 42.0537H79.5293V129.327H216.81V42.0537Z" fill="#E0E0E0"/>
<path d="M86.3969 42.0481C86.3969 42.2978 86.3228 42.5419 86.1839 42.7495C86.045 42.9571 85.8477 43.1187 85.6168 43.214C85.386 43.3093 85.1321 43.334 84.8872 43.2848C84.6424 43.2357 84.4176 43.115 84.2414 42.938C84.0652 42.761 83.9456 42.5356 83.8976 42.2906C83.8495 42.0455 83.8754 41.7917 83.9717 41.5613C84.0681 41.3309 84.2307 41.1343 84.4389 40.9964C84.6471 40.8585 84.8916 40.7855 85.1413 40.7866C85.4748 40.7882 85.7942 40.9218 86.0295 41.1582C86.2648 41.3946 86.3969 41.7145 86.3969 42.0481Z" fill="#E6E6E6"/>
<path d="M95.1746 176.076L219.164 176.076V170.984L95.1746 170.984V176.076Z" fill="#F0F0F0"/>
<path d="M95.1744 170.983H80.4927V176.076H95.1744V170.983Z" fill="#E6E6E6"/>
<path d="M217.126 176.076H82.7588V179.031H217.126V176.076Z" fill="#E0E0E0"/>
<path d="M215.683 178.383V223.322H217.125V178.383H215.683Z" fill="#E0E0E0"/>
<path d="M95.1743 178.383V223.322H96.6168V178.383H95.1743Z" fill="#E0E0E0"/>
<path d="M82.7588 178.383V223.322H84.1954V178.383H82.7588Z" fill="#E0E0E0"/>
<path d="M203.273 178.383V223.322H204.715V178.383H203.273Z" fill="#E0E0E0"/>
<path d="M175.112 124.264L180.094 133.152C179.942 152.342 181.647 153.452 181.665 156.752H176.409C175.912 140.68 172.805 142.046 175.112 124.264Z" fill="#E0E0E0"/>
<path d="M178.955 147.536C177.203 129.029 148.05 131.99 145.282 140.686C142.513 149.381 179.971 158.182 178.955 147.536Z" fill="#E0E0E0"/>
<path d="M176.753 140.026C180.602 126.372 163.064 123.797 155.233 127.762C150.619 132.381 174.54 147.881 176.753 140.026Z" fill="#E0E0E0"/>
<path d="M171.924 131.4C180.953 128.48 175.107 118.996 169.716 116.566C165.272 115.971 166.732 133.111 171.924 131.4Z" fill="#E0E0E0"/>
<path d="M181.846 140.406C171.632 132.673 184.018 125.251 192.235 125.286C198.297 126.833 187.721 144.832 181.846 140.406Z" fill="#E0E0E0"/>
<path d="M180.012 132.626C166.399 129.192 174.54 119.492 182.418 117.156C188.971 116.683 187.838 134.606 180.012 132.626Z" fill="#E0E0E0"/>
<path d="M177.536 148.657C174.996 131.961 202.397 132.761 204.616 139.383C206.836 146.006 178.967 158.264 177.536 148.657Z" fill="#E0E0E0"/>
<path d="M176.076 170.984C166.148 170.984 157.791 170.546 155.759 161.138C155.266 158.641 154.557 156.193 153.639 153.82L153.481 153.44H198.665L198.507 153.82C197.589 156.192 196.881 158.641 196.393 161.138C194.355 170.528 185.992 170.984 176.076 170.984Z" fill="#FAFAFA"/>
<path d="M201.591 154.299H150.555L149.095 150.042H203.051L201.591 154.299Z" fill="#F0F0F0"/>
<path d="M146 249.695C208.536 249.695 259.232 246.735 259.232 243.084C259.232 239.433 208.536 236.473 146 236.473C83.4636 236.473 32.7681 239.433 32.7681 243.084C32.7681 246.735 83.4636 249.695 146 249.695Z" fill="#F5F5F5"/>
<path d="M222.212 238.278L217.528 238.208L217.511 227.334L222.189 227.404L222.212 238.278Z" fill="#B16666"/>
<path d="M245.992 238.296H241.303L239.913 227.439H244.602L245.992 238.296Z" fill="#B16666"/>
<path d="M240.812 237.752H246.53C246.621 237.752 246.71 237.784 246.781 237.843C246.851 237.902 246.899 237.983 246.915 238.073L247.663 242.243C247.679 242.346 247.672 242.452 247.643 242.552C247.615 242.653 247.564 242.746 247.496 242.825C247.428 242.904 247.343 242.967 247.247 243.009C247.152 243.052 247.049 243.074 246.944 243.073C245.105 243.043 243.767 242.932 241.449 242.932C240.024 242.932 235.726 243.084 233.758 243.084C231.79 243.084 231.614 241.139 232.426 240.958C236.07 240.17 238.85 239.084 240.018 238.038C240.238 237.847 240.521 237.745 240.812 237.752Z" fill="#263238"/>
<path d="M217.3 237.688L222.416 237.77C222.508 237.77 222.596 237.802 222.665 237.863C222.734 237.923 222.779 238.006 222.79 238.097L223.432 242.273C223.447 242.376 223.439 242.482 223.408 242.582C223.378 242.682 223.326 242.774 223.257 242.853C223.188 242.931 223.102 242.993 223.006 243.035C222.911 243.077 222.807 243.098 222.702 243.096C220.857 243.038 218.2 242.886 215.881 242.851C213.172 242.81 212.868 242.921 209.691 242.851C207.77 242.822 207.355 240.871 208.184 240.708C211.904 239.96 212.856 239.919 216.15 238.016C216.497 237.806 216.895 237.693 217.3 237.688Z" fill="#263238"/>
<path d="M219.38 98.772C218.121 102.153 216.689 105.467 215.087 108.7C214.287 110.312 213.446 111.918 212.523 113.495C211.608 115.105 210.606 116.665 209.522 118.167L208.64 119.335C208.097 120.026 207.42 120.6 206.648 121.022C205.844 121.457 204.947 121.694 204.032 121.711C203.283 121.735 202.536 121.636 201.819 121.419C200.701 121.081 199.643 120.57 198.683 119.907C197.863 119.341 197.083 118.721 196.347 118.05C193.644 115.519 191.287 112.643 189.339 109.494L192.118 107.328C193.316 108.496 194.577 109.664 195.85 110.761C197.079 111.85 198.372 112.864 199.722 113.798C200.338 114.233 200.984 114.623 201.655 114.966C202.176 115.241 202.735 115.438 203.314 115.55C203.438 115.586 203.569 115.586 203.693 115.55C203.734 115.521 203.652 115.515 203.582 115.55C203.512 115.585 203.495 115.55 203.536 115.504L204.149 114.528C205.852 111.663 207.383 108.699 208.733 105.651C210.141 102.574 211.496 99.3677 212.751 96.2725L219.38 98.772Z" fill="#B16666"/>
<path d="M221.132 95.7121C222.679 99.9169 214.562 112.198 214.562 112.198L205.218 107.024C206.657 103.195 208.506 99.5312 210.731 96.0976C214.112 91.1861 219.444 91.1044 221.132 95.7121Z" fill="#407BFF"/>
<path opacity="0.5" d="M221.132 95.7121C222.679 99.9169 214.562 112.198 214.562 112.198L205.218 107.024C206.657 103.195 208.506 99.5312 210.731 96.0976C214.112 91.1861 219.444 91.1044 221.132 95.7121Z" fill="white"/>
<path opacity="0.2" d="M215.951 100.32C214.164 101.225 210.111 105.675 208.891 109.051L214.562 112.198C216.499 109.214 218.212 106.091 219.689 102.854C218.416 101.616 216.898 99.8644 215.951 100.32Z" fill="#407BFF"/>
<path d="M192.422 107.404L189.572 104.822L186.88 109.43C186.88 109.43 189.619 112.642 192.65 111.083L193.059 109.915C193.212 109.48 193.234 109.01 193.12 108.563C193.007 108.116 192.764 107.713 192.422 107.404Z" fill="#FFB573"/>
<path d="M184.97 102.883L184.182 107.363L186.88 109.43L189.572 104.822L184.97 102.883Z" fill="#FFB573"/>
<path opacity="0.2" d="M217.511 227.334L217.522 232.94L222.2 233.016L222.194 227.41L217.511 227.334Z" fill="black"/>
<path opacity="0.2" d="M244.602 227.445H239.913L240.637 233.04H245.321L244.602 227.445Z" fill="black"/>
<path d="M241.864 92.4476C237.986 110.552 240.234 129.339 240.03 133.187L214.959 132.966C209.942 106.557 215.601 92.4476 215.601 92.4476C215.601 92.4476 217.184 92.033 219.35 91.6651C220.028 91.5483 220.764 91.4373 221.529 91.3497C221.949 91.2971 222.381 91.2563 222.819 91.2154C226.371 91.0457 229.929 91.0788 233.477 91.3147C234.149 91.3497 234.832 91.4081 235.492 91.4724C236.152 91.5366 236.713 91.6067 237.279 91.6826C239.86 92.0213 241.864 92.4476 241.864 92.4476Z" fill="#407BFF"/>
<path opacity="0.5" d="M241.864 92.4476C237.986 110.552 240.234 129.339 240.03 133.187L214.959 132.966C209.942 106.557 215.601 92.4476 215.601 92.4476C215.601 92.4476 217.184 92.033 219.35 91.6651C220.028 91.5483 220.764 91.4373 221.529 91.3497C221.949 91.2971 222.381 91.2563 222.819 91.2154C226.371 91.0457 229.929 91.0788 233.477 91.3147C234.149 91.3497 234.832 91.4081 235.492 91.4724C236.152 91.5366 236.713 91.6067 237.279 91.6826C239.86 92.0213 241.864 92.4476 241.864 92.4476Z" fill="white"/>
<path opacity="0.2" d="M237.04 100.448C236.701 102.2 237.729 110.008 239.65 111.825C239.726 109.296 239.884 106.656 240.141 103.946L237.04 100.448Z" fill="black"/>
<path d="M232.526 79.3018C231.825 82.724 231.095 89.002 233.477 91.3146C231.597 93.1484 229.138 95.2683 225.068 95.3734C220.997 95.4786 221.727 92.687 222.819 91.2154C226.65 90.3394 226.58 87.5011 225.938 84.8322L232.526 79.3018Z" fill="#B16666"/>
<path d="M232.782 90.0005C232.782 90.0005 231.544 93.2475 224.904 95.3733C225.976 95.8762 226.846 96.726 227.375 97.7852C227.375 97.7852 235.136 95.8113 234.546 90.8998C234.001 90.5223 233.408 90.2198 232.782 90.0005Z" fill="white"/>
<path d="M222.37 97.5283C222.954 96.554 223.845 95.8019 224.904 95.3909C224.157 94.7076 222.948 92.576 223.479 90.9175C222.953 90.9034 222.428 90.9663 221.92 91.1043C221.92 91.1043 219.146 93.7557 222.37 97.5283Z" fill="white"/>
<path d="M224.717 99.152C224.665 99.6192 224.425 99.9696 224.174 99.9404C223.923 99.9112 223.765 99.5199 223.812 99.0527C223.859 98.5855 224.11 98.2409 224.355 98.2643C224.601 98.2877 224.77 98.6965 224.717 99.152Z" fill="white"/>
<path d="M224.256 103.952C224.256 104.42 224.034 104.793 223.783 104.787C223.532 104.782 223.333 104.402 223.345 103.935C223.357 103.468 223.567 103.094 223.818 103.1C224.069 103.106 224.256 103.491 224.256 103.952Z" fill="white"/>
<path opacity="0.2" d="M229.839 81.5557L225.938 84.8261C226.097 85.4483 226.201 86.0835 226.248 86.7241C227.713 86.5255 229.752 84.937 229.903 83.407C229.994 82.791 229.972 82.1638 229.839 81.5557Z" fill="black"/>
<path d="M225.599 71.4936C224.827 72.2916 224.254 73.2609 223.927 74.3225C223.6 75.3841 223.529 76.5078 223.719 77.6022C222.638 78.5366 220.682 78.3672 220.682 78.3672L220.063 77.7482C219.768 77.4499 219.541 77.0916 219.396 76.6975C219.252 76.3035 219.195 75.883 219.228 75.4648C219.339 74.0982 219.648 72.025 220.513 70.711C221.92 68.6145 225.599 71.4936 225.599 71.4936Z" fill="#263238"/>
<path d="M232.981 74.1682C232.654 78.8402 232.701 81.5441 230.335 83.9034C226.773 87.46 221.061 85.2817 219.993 80.6331C219.035 76.4516 219.73 69.5371 224.291 67.7851C225.293 67.382 226.381 67.2414 227.452 67.3765C228.524 67.5117 229.543 67.9182 230.413 68.5574C231.283 69.1967 231.976 70.0476 232.425 71.0295C232.875 72.0113 233.066 73.0917 232.981 74.1682Z" fill="#B16666"/>
<path d="M229.103 71.3301C229.878 73.0661 229.956 75.034 229.319 76.8255C229.25 77.0065 229.219 77.1997 229.227 77.3932C229.235 77.5867 229.282 77.7766 229.366 77.9513C229.449 78.126 229.567 78.282 229.713 78.4097C229.859 78.5374 230.029 78.6342 230.213 78.6943C230.616 78.8145 231.036 78.8716 231.457 78.8637L233.693 78.4374C233.693 78.4374 234.634 75.1086 234.02 72.6733C233.407 70.238 229.103 71.3301 229.103 71.3301Z" fill="#263238"/>
<path d="M229.086 71.9432C225.655 72.2536 222.199 72.0746 218.819 71.4117C218.819 71.4117 219.917 67.9077 222.381 66.7397C224.846 65.5717 230.055 65.6476 231.661 66.3251C233.267 67.0025 235.364 69.0699 234.581 74.1156C232.917 75.9202 229.086 71.9432 229.086 71.9432Z" fill="#263238"/>
<path d="M235.276 73.3683C235.276 73.3683 222.2 71.4703 216.781 70.5183C216.699 70.5033 216.625 70.46 216.571 70.396C216.518 70.332 216.489 70.2513 216.489 70.1679C216.489 70.0846 216.518 70.0039 216.571 69.9399C216.625 69.8759 216.699 69.8326 216.781 69.8175C219.048 69.6016 221.334 69.7038 223.573 70.1212L235.276 73.3683Z" fill="#0553C8"/>
<path d="M218.912 69.8231C219.146 68.6551 221.167 62.6224 229.646 64.4561C237.501 66.1497 235.276 73.368 235.276 73.368L218.912 69.8231Z" fill="#0553C8"/>
<path d="M224.227 64.6374L227.065 63.7964L230.487 64.0767V64.6666L228.315 65.1688L224.227 64.6374Z" fill="#0553C8"/>
<path opacity="0.2" d="M224.653 70.4307C224.624 70.4315 224.595 70.4265 224.569 70.416C224.542 70.4055 224.517 70.3897 224.497 70.3696C224.476 70.3494 224.459 70.3253 224.448 70.2987C224.437 70.2721 224.431 70.2435 224.431 70.2147C224.431 70.1679 224.495 65.4726 230.055 64.2228C230.084 64.2137 230.115 64.2108 230.146 64.2143C230.177 64.2178 230.206 64.2277 230.233 64.2432C230.259 64.2587 230.282 64.2796 230.3 64.3045C230.318 64.3294 230.331 64.3578 230.338 64.3879C230.344 64.418 230.344 64.4491 230.338 64.4792C230.332 64.5094 230.32 64.5379 230.302 64.5631C230.284 64.5882 230.261 64.6093 230.235 64.6251C230.208 64.641 230.179 64.6511 230.148 64.655C224.945 65.823 224.893 70.0336 224.893 70.2147C224.893 70.2451 224.886 70.2753 224.874 70.3031C224.862 70.331 224.844 70.3559 224.821 70.3763C224.799 70.3967 224.772 70.4121 224.743 70.4215C224.714 70.4309 224.683 70.434 224.653 70.4307Z" fill="black"/>
<path d="M234.967 78.8753C234.37 79.8832 233.401 80.6155 232.269 80.9134C230.768 81.293 230.055 79.9382 230.517 78.5424C230.919 77.281 232.193 75.564 233.688 75.8093C235.183 76.0545 235.679 77.6313 234.967 78.8753Z" fill="#B16666"/>
<path d="M216.08 231.848L224.017 231.971C224.017 231.971 226.166 200.569 225.926 185.963C225.856 181.519 226.341 175.265 227.094 168.549C228.023 160.086 228.513 156.705 229.734 146.006C230.604 138.379 231.486 133.158 231.486 133.158L215.005 133.012C215.005 133.012 212.897 171.264 213.329 185.572C213.744 200.388 216.08 231.848 216.08 231.848Z" fill="#263238"/>
<path opacity="0.2" d="M226.323 143.483C223.859 151.017 224.922 168.222 226.598 172.975C226.738 171.527 226.896 170.055 227.059 168.537C227.988 160.069 228.484 156.688 229.705 145.995C229.705 145.779 229.752 145.574 229.775 145.37C228.744 144.543 227.576 143.905 226.323 143.483Z" fill="black"/>
<path d="M223.853 133.047C223.853 133.047 229.448 172.415 231.445 186.004C233.629 200.885 238.453 231.954 238.453 231.954H247.032C247.032 231.954 245.42 202.672 243.569 188.124C241.466 171.55 240.012 133.193 240.012 133.193L223.853 133.047Z" fill="#263238"/>
<path d="M237.437 232.14H247.546V229.121L236.245 228.928L237.437 232.14Z" fill="#407BFF"/>
<path d="M214.871 232L224.309 232.146L224.741 229.092L214.211 228.765L214.871 232Z" fill="#407BFF"/>
<path d="M225.926 75.3772C225.926 75.7568 225.722 76.0605 225.471 76.0605C225.219 76.0605 225.027 75.751 225.033 75.3714C225.038 74.9918 225.237 74.6881 225.488 74.6939C225.739 74.6998 225.932 75.0035 225.926 75.3772Z" fill="#263238"/>
<path d="M221.651 75.3361C221.651 75.7157 221.447 76.0194 221.202 76.0135C220.956 76.0077 220.758 75.704 220.758 75.3303C220.758 74.9565 220.962 74.647 221.213 74.647C221.464 74.647 221.657 74.9623 221.651 75.3361Z" fill="#263238"/>
<path d="M222.884 75.7393C222.422 76.8897 221.802 77.9706 221.044 78.9513C221.301 79.1383 221.595 79.2671 221.907 79.3286C222.219 79.3901 222.54 79.3829 222.849 79.3075L222.884 75.7393Z" fill="#B16666"/>
<path d="M224.565 80.4343C224.987 80.3879 225.395 80.2557 225.763 80.0458C226.132 79.8359 226.454 79.5527 226.709 79.2137C226.719 79.1899 226.721 79.163 226.714 79.1379C226.707 79.1127 226.691 79.0909 226.67 79.0762C226.648 79.0616 226.622 79.055 226.596 79.0577C226.57 79.0605 226.546 79.0723 226.528 79.0911C226.238 79.4635 225.866 79.7631 225.44 79.9659C225.014 80.1687 224.546 80.2691 224.075 80.2591C224.045 80.2591 224.017 80.2708 223.996 80.2916C223.976 80.3124 223.964 80.3406 223.964 80.37C223.964 80.3995 223.976 80.4277 223.996 80.4485C224.017 80.4693 224.045 80.481 224.075 80.481C224.239 80.4745 224.403 80.4589 224.565 80.4343Z" fill="#263238"/>
<path d="M227.258 74.0104C227.295 74.0045 227.331 73.9906 227.363 73.9695C227.41 73.9346 227.441 73.8824 227.45 73.8244C227.459 73.7664 227.444 73.7073 227.41 73.66C227.205 73.3718 226.934 73.1366 226.621 72.9741C226.307 72.8116 225.959 72.7264 225.605 72.7256C225.576 72.7271 225.548 72.7343 225.522 72.7469C225.496 72.7596 225.472 72.7773 225.453 72.7991C225.434 72.8209 225.42 72.8463 225.411 72.8738C225.402 72.9013 225.398 72.9303 225.401 72.9592C225.402 72.9883 225.409 73.0169 225.422 73.0433C225.434 73.0696 225.452 73.0933 225.474 73.1128C225.496 73.1323 225.521 73.1474 225.548 73.1571C225.576 73.1668 225.605 73.171 225.634 73.1694C225.914 73.1727 226.188 73.2428 226.435 73.3738C226.682 73.5049 226.894 73.6931 227.053 73.9228C227.075 73.9556 227.106 73.9813 227.143 73.9968C227.179 74.0124 227.219 74.0171 227.258 74.0104Z" fill="#263238"/>
<path d="M219.823 73.8528C219.86 73.8489 219.895 73.8362 219.925 73.8159C219.956 73.7956 219.981 73.7682 219.999 73.736C220.115 73.482 220.289 73.2594 220.509 73.0867C220.728 72.914 220.986 72.7962 221.26 72.7432C221.319 72.7363 221.373 72.7062 221.409 72.6597C221.446 72.6131 221.463 72.5539 221.456 72.495C221.449 72.4362 221.419 72.3825 221.372 72.3458C221.326 72.3091 221.266 72.2924 221.207 72.2994C220.86 72.361 220.532 72.5058 220.253 72.7214C219.973 72.9369 219.75 73.2169 219.601 73.5375C219.588 73.5634 219.579 73.5919 219.577 73.6211C219.574 73.6504 219.578 73.6799 219.587 73.7078C219.596 73.7357 219.611 73.7613 219.631 73.7833C219.65 73.8052 219.674 73.8229 219.701 73.8353C219.739 73.8524 219.782 73.8584 219.823 73.8528Z" fill="#263238"/>
<path d="M239.23 238.576C239.645 238.564 240.059 238.507 240.462 238.407C240.484 238.4 240.503 238.388 240.518 238.372C240.534 238.355 240.544 238.335 240.55 238.313C240.553 238.292 240.55 238.271 240.542 238.251C240.533 238.232 240.52 238.215 240.503 238.202C240.339 238.097 238.862 237.169 238.336 237.431C238.278 237.462 238.228 237.507 238.192 237.562C238.156 237.617 238.136 237.681 238.132 237.747C238.114 237.853 238.123 237.963 238.159 238.065C238.195 238.167 238.256 238.259 238.336 238.331C238.597 238.512 238.913 238.598 239.23 238.576ZM240.147 238.249C239.341 238.407 238.733 238.378 238.482 238.161C238.428 238.112 238.388 238.05 238.365 237.98C238.343 237.91 238.339 237.836 238.354 237.764C238.352 237.737 238.358 237.71 238.372 237.686C238.385 237.662 238.405 237.642 238.43 237.63C238.704 237.49 239.545 237.893 240.147 238.272V238.249Z" fill="#407BFF"/>
<path d="M240.433 238.406C240.454 238.412 240.476 238.412 240.497 238.406C240.513 238.396 240.527 238.381 240.536 238.364C240.545 238.346 240.55 238.327 240.549 238.307C240.549 238.249 240.491 236.894 239.965 236.45C239.902 236.394 239.828 236.353 239.747 236.329C239.667 236.305 239.582 236.298 239.498 236.31C239.415 236.311 239.334 236.34 239.269 236.392C239.203 236.443 239.157 236.515 239.136 236.596C239.014 237.122 239.907 238.149 240.38 238.412L240.433 238.406ZM239.568 236.52C239.615 236.519 239.661 236.528 239.704 236.545C239.747 236.562 239.786 236.587 239.819 236.619C240.133 237.044 240.305 237.557 240.31 238.085C239.843 237.717 239.282 236.917 239.352 236.637C239.352 236.608 239.352 236.538 239.522 236.52H239.568Z" fill="#407BFF"/>
<path d="M216.798 238.307C216.818 238.299 216.835 238.287 216.849 238.27C216.862 238.254 216.871 238.234 216.874 238.214C216.879 238.192 216.877 238.169 216.867 238.149C216.858 238.129 216.842 238.113 216.822 238.103C216.617 237.986 214.801 237.005 214.211 237.309C214.156 237.338 214.109 237.381 214.073 237.433C214.038 237.485 214.015 237.544 214.007 237.606C213.99 237.704 213.996 237.804 214.025 237.899C214.055 237.993 214.107 238.079 214.176 238.149C214.661 238.611 216.016 238.447 216.781 238.307H216.798ZM214.346 237.49C214.708 237.373 215.7 237.776 216.425 238.144C215.373 238.301 214.608 238.243 214.34 237.986C214.291 237.941 214.255 237.883 214.236 237.82C214.216 237.756 214.214 237.689 214.229 237.624C214.229 237.599 214.236 237.575 214.249 237.554C214.263 237.534 214.282 237.517 214.305 237.507L214.346 237.49Z" fill="#407BFF"/>
<path d="M216.798 238.307C216.814 238.296 216.827 238.281 216.836 238.264C216.845 238.246 216.85 238.227 216.851 238.208C216.851 238.155 216.81 236.888 216.267 236.392C216.189 236.319 216.096 236.265 215.996 236.23C215.895 236.196 215.789 236.183 215.683 236.193C215.379 236.193 215.28 236.368 215.251 236.497C215.128 237.022 216.179 238.056 216.728 238.319C216.752 238.322 216.776 238.318 216.798 238.307ZM215.566 236.415H215.677C215.757 236.408 215.838 236.418 215.915 236.444C215.991 236.47 216.061 236.512 216.121 236.567C216.444 236.984 216.626 237.493 216.641 238.021C216.086 237.665 215.379 236.853 215.473 236.538C215.461 236.52 215.496 236.444 215.566 236.415Z" fill="#407BFF"/>
<path d="M235.229 90.1054C234.934 90.067 234.635 90.1 234.355 90.2017C234.076 90.3033 233.825 90.4705 233.623 90.6894C232.011 92.4414 228.169 97.7966 227.374 110.294C226.741 119.733 227.61 129.213 229.95 138.379L239.936 135.541C240.257 135.451 240.534 135.25 240.72 134.974C240.905 134.697 240.985 134.364 240.947 134.034C240.678 131.698 240.1 126.074 239.936 119.784C239.825 115.358 240.158 111.369 240.141 109.558C239.043 107.409 237.069 103.899 237.805 100.074C238.599 95.8052 240.947 95.2212 242.547 94.4386C242.754 94.3304 242.927 94.1667 243.047 93.9658C243.167 93.7648 243.228 93.5346 243.225 93.3007C243.221 93.0669 243.152 92.8386 243.026 92.6415C242.901 92.4444 242.722 92.2861 242.512 92.1844C240.2 91.1373 237.746 90.4367 235.229 90.1054Z" fill="#0553C8"/>
<path d="M221.172 138.362L214.328 136.213C214.071 136.132 213.843 135.978 213.671 135.771C213.5 135.564 213.391 135.312 213.359 135.045C212.775 130.524 210.333 109.775 213.487 94.369C213.592 93.849 213.83 93.365 214.178 92.9647C214.526 92.5644 214.972 92.2615 215.473 92.0856C217.443 91.4168 219.482 90.9721 221.552 90.7599C221.612 90.7534 221.674 90.762 221.73 90.7849C221.786 90.8078 221.836 90.8444 221.875 90.8912C221.914 90.9381 221.94 90.9938 221.952 91.0535C221.964 91.1131 221.961 91.1748 221.943 91.233C220.647 95.9926 218.486 122.056 221.172 138.362Z" fill="#0553C8"/>
<path d="M212.196 122.477C212.319 124.661 212.477 126.676 212.634 128.445C215.116 128.725 217.657 128.918 220.18 129.029C220.063 127.096 219.981 125.116 219.94 123.125C217.324 122.996 214.719 122.786 212.196 122.477Z" fill="white"/>
<path d="M220.004 112.175C217.23 112.058 214.503 111.842 211.91 111.509C211.91 113.53 211.91 115.516 211.974 117.425C214.55 117.741 217.23 117.945 219.899 118.056C219.905 116.064 219.946 114.091 220.004 112.175Z" fill="white"/>
<path d="M240.024 122.746C236.374 123.102 232.035 123.33 227.468 123.33C227.632 125.473 227.853 127.447 228.105 129.205C232.572 129.205 236.795 128.942 240.415 128.586C240.281 126.804 240.141 124.819 240.024 122.746Z" fill="white"/>
<path d="M240.088 111.544C236.205 111.947 231.789 112.222 227.269 112.28C227.188 114.318 227.176 116.287 227.217 118.161C231.684 118.103 236.029 117.84 239.919 117.449C239.925 115.171 240.024 113.11 240.088 111.544Z" fill="white"/>
<path d="M258.42 141.912L231.889 146.339C231.718 146.371 231.543 146.366 231.375 146.325C231.206 146.284 231.048 146.208 230.911 146.101C230.774 145.995 230.662 145.86 230.58 145.707C230.499 145.554 230.452 145.385 230.441 145.212L229.173 128.767C229.152 128.398 229.265 128.034 229.494 127.744C229.722 127.453 230.048 127.256 230.411 127.19L256.96 122.763C257.131 122.73 257.306 122.734 257.475 122.775C257.644 122.816 257.802 122.892 257.939 122.999C258.077 123.105 258.189 123.24 258.27 123.394C258.351 123.547 258.398 123.717 258.408 123.89L259.676 140.336C259.697 140.707 259.58 141.073 259.349 141.364C259.117 141.654 258.786 141.85 258.42 141.912Z" fill="#407BFF"/>
<path opacity="0.4" d="M258.42 141.912L232.502 146.234C232.332 146.267 232.156 146.263 231.987 146.222C231.818 146.181 231.66 146.105 231.523 145.999C231.386 145.892 231.273 145.757 231.192 145.603C231.111 145.45 231.064 145.28 231.054 145.107L229.787 128.661C229.765 128.293 229.879 127.929 230.107 127.638C230.335 127.348 230.661 127.151 231.025 127.085L256.943 122.763C257.113 122.73 257.289 122.734 257.458 122.775C257.627 122.816 257.785 122.892 257.922 122.999C258.059 123.105 258.172 123.24 258.253 123.394C258.334 123.547 258.381 123.717 258.391 123.89L259.658 140.336C259.68 140.704 259.566 141.068 259.338 141.359C259.11 141.649 258.783 141.846 258.42 141.912Z" fill="black"/>
<path d="M242.944 95.4258C244.421 98.7896 245.73 102.136 246.915 105.593C247.499 107.31 248.083 109.051 248.603 110.803C248.866 111.684 249.117 112.555 249.356 113.466L249.537 114.131L249.724 114.902C249.858 115.428 249.934 115.953 250.028 116.473C250.481 120.425 250.129 124.428 248.994 128.241C248.49 130.056 247.873 131.839 247.149 133.579C246.781 134.443 246.395 135.29 245.981 136.131C245.566 136.972 245.157 137.777 244.655 138.636L241.472 137.123C241.98 135.541 242.494 133.835 242.874 132.171C243.253 130.507 243.621 128.813 243.872 127.149C244.119 125.511 244.251 123.858 244.27 122.202C244.303 120.649 244.156 119.097 243.832 117.577C243.732 117.227 243.668 116.859 243.545 116.526L243.376 116L243.16 115.416C242.874 114.599 242.576 113.787 242.255 112.969C241.671 111.328 240.987 109.693 240.345 108.052L236.397 98.2407L242.944 95.4258Z" fill="#B16666"/>
<path d="M241.858 92.4476C246.068 94.0244 248.784 106.107 248.784 106.107L239.469 112.531C239.469 112.531 236.608 105.377 235.031 99.8001C233.331 93.7324 236.765 90.5788 241.858 92.4476Z" fill="#407BFF"/>
<path opacity="0.5" d="M241.858 92.4476C246.068 94.0244 248.784 106.107 248.784 106.107L239.469 112.531C239.469 112.531 236.608 105.377 235.031 99.8001C233.331 93.7324 236.765 90.5788 241.858 92.4476Z" fill="white"/>
<path d="M241.093 137.859L240.281 141.451L245.893 141.288C245.893 141.288 246.343 136.948 244.141 136.265L242.389 136.598C242.074 136.66 241.784 136.813 241.554 137.036C241.324 137.26 241.164 137.546 241.093 137.859Z" fill="#B16666"/>
<path d="M242.039 145.936L245.414 145.247C245.613 145.207 245.789 145.095 245.912 144.934C246.034 144.773 246.094 144.573 246.08 144.371L245.893 141.288L240.281 141.451L241.052 145.276C241.096 145.495 241.224 145.687 241.409 145.81C241.594 145.934 241.821 145.979 242.039 145.936Z" fill="#B16666"/>
<path d="M193 67.1597H92.1842C91.8998 67.1603 91.6183 67.2179 91.3565 67.329C91.0947 67.4401 90.8578 67.6025 90.6597 67.8066C90.4616 68.0107 90.3063 68.2523 90.2031 68.5174C90.0998 68.7824 90.0506 69.0654 90.0584 69.3497L94.1464 208.196C94.1631 208.75 94.3951 209.276 94.793 209.662C95.191 210.048 95.7236 210.263 96.278 210.263H197.065C197.35 210.263 197.633 210.206 197.896 210.095C198.158 209.984 198.396 209.821 198.595 209.616C198.794 209.411 198.95 209.169 199.053 208.903C199.156 208.637 199.205 208.352 199.196 208.067L195.108 69.227C195.093 68.6764 194.865 68.1532 194.472 67.7676C194.078 67.3819 193.551 67.164 193 67.1597Z" fill="#407BFF"/>
<path opacity="0.2" d="M193 67.1597H92.1842C91.8998 67.1603 91.6183 67.2179 91.3565 67.329C91.0947 67.4401 90.8578 67.6025 90.6597 67.8066C90.4616 68.0107 90.3063 68.2523 90.2031 68.5174C90.0998 68.7824 90.0506 69.0654 90.0584 69.3497L94.1464 208.196C94.1631 208.75 94.3951 209.276 94.793 209.662C95.191 210.048 95.7236 210.263 96.278 210.263H197.065C197.35 210.263 197.633 210.206 197.896 210.095C198.158 209.984 198.396 209.821 198.595 209.616C198.794 209.411 198.95 209.169 199.053 208.903C199.156 208.637 199.205 208.352 199.196 208.067L195.108 69.227C195.093 68.6764 194.865 68.1532 194.472 67.7676C194.078 67.3819 193.551 67.164 193 67.1597Z" fill="black"/>
<path d="M114.324 65.1333H104.863V65.7173H114.324V65.1333Z" fill="#407BFF"/>
<path d="M101.487 65.1333H99.0869V65.7173H101.487V65.1333Z" fill="#407BFF"/>
<path d="M193.969 67.1597H93.1593C92.8744 67.1596 92.5923 67.2166 92.3298 67.3273C92.0673 67.4381 91.8297 67.6003 91.631 67.8045C91.4322 68.0087 91.2765 68.2506 91.1728 68.516C91.0692 68.7814 91.0198 69.0649 91.0277 69.3497L95.1157 208.196C95.1338 208.749 95.3662 209.274 95.7639 209.66C96.1615 210.046 96.6933 210.262 97.2473 210.263H198.04C198.325 210.262 198.607 210.205 198.869 210.093C199.131 209.982 199.368 209.819 199.566 209.614C199.765 209.409 199.92 209.167 200.023 208.901C200.126 208.636 200.174 208.352 200.166 208.067L196.078 69.227C196.061 68.6769 195.832 68.1545 195.439 67.7692C195.046 67.3839 194.52 67.1655 193.969 67.1597Z" fill="#0553C8"/>
<path opacity="0.2" d="M95.3496 74.6992L99.1339 204.014C99.1535 204.571 99.3873 205.099 99.7867 205.487C100.186 205.876 100.72 206.095 101.277 206.099H192.568C192.839 206.1 193.107 206.046 193.357 205.941C193.606 205.836 193.832 205.681 194.02 205.486C194.208 205.292 194.355 205.061 194.452 204.808C194.549 204.555 194.593 204.285 194.583 204.014L190.799 74.6992C190.779 74.1429 190.545 73.6158 190.145 73.2283C189.746 72.8408 189.212 72.6228 188.655 72.6202H97.3644C97.0938 72.6184 96.8257 72.6714 96.5762 72.7761C96.3268 72.8808 96.1011 73.0349 95.9128 73.2292C95.7245 73.4235 95.5775 73.6539 95.4807 73.9066C95.3839 74.1592 95.3393 74.4288 95.3496 74.6992Z" fill="black"/>
<path d="M95.98 74.0683L99.7643 203.383C99.7839 203.94 100.018 204.467 100.417 204.854C100.817 205.242 101.351 205.46 101.908 205.463H193.198C193.469 205.464 193.737 205.411 193.987 205.307C194.236 205.202 194.462 205.048 194.65 204.853C194.838 204.659 194.985 204.429 195.082 204.176C195.179 203.923 195.223 203.654 195.213 203.383L191.429 74.0683C191.409 73.5121 191.175 72.985 190.776 72.5974C190.376 72.2099 189.842 71.992 189.286 71.9893H97.9948C97.7242 71.9875 97.4561 72.0406 97.2066 72.1453C96.9571 72.2499 96.7315 72.4041 96.5432 72.5984C96.3549 72.7926 96.2079 73.0231 96.1111 73.2757C96.0143 73.5284 95.9697 73.798 95.98 74.0683Z" fill="white"/>
<path d="M124.047 115.72H106.504L105.99 98.1704H123.533L124.047 115.72Z" fill="#F5F5F5"/>
<path d="M181.162 105.138H131.557L131.464 101.867H181.069L181.162 105.138Z" fill="#E0E0E0"/>
<path d="M170.575 112.023H131.762L131.663 108.752H170.481L170.575 112.023Z" fill="#E0E0E0"/>
<path d="M124.97 147.191H107.427L106.913 129.648H124.456L124.97 147.191Z" fill="#F5F5F5"/>
<path d="M150.707 136.615H132.48L132.387 133.339H150.608L150.707 136.615Z" fill="#E0E0E0"/>
<path d="M167.964 136.615H154.561L154.462 133.339H167.871L167.964 136.615Z" fill="#E0E0E0"/>
<path d="M176.088 143.5H132.679L132.585 140.224H175.994L176.088 143.5Z" fill="#E0E0E0"/>
<path d="M125.893 178.669H108.349L107.835 161.12H125.379L125.893 178.669Z" fill="#F5F5F5"/>
<path d="M183.113 171.696H133.508L133.601 174.972H183.206L183.113 171.696Z" fill="#E0E0E0"/>
<path d="M172.122 164.816H133.304L133.403 168.087H172.216L172.122 164.816Z" fill="#E0E0E0"/>
<path d="M116.146 111.158C116.072 111.263 115.973 111.347 115.858 111.403C115.743 111.459 115.615 111.485 115.488 111.479C115.36 111.474 115.235 111.436 115.126 111.369C115.017 111.303 114.925 111.211 114.861 111.1C113.693 109.231 111.544 107.526 110.294 106.679C110.132 106.571 110.016 106.406 109.969 106.217C109.923 106.028 109.949 105.828 110.043 105.657C110.095 105.567 110.166 105.489 110.25 105.428C110.334 105.367 110.43 105.324 110.532 105.302C110.633 105.28 110.739 105.279 110.84 105.3C110.942 105.321 111.039 105.363 111.124 105.423C112.507 106.352 113.776 107.442 114.902 108.67C114.973 108.757 115.062 108.827 115.163 108.875C115.264 108.923 115.374 108.948 115.486 108.948C115.598 108.948 115.708 108.923 115.809 108.875C115.91 108.827 115.999 108.757 116.07 108.67C118.691 105.56 121.682 102.781 124.976 100.395C125.14 100.275 125.346 100.225 125.547 100.255C125.748 100.286 125.929 100.395 126.051 100.559C126.112 100.638 126.158 100.728 126.184 100.824C126.211 100.921 126.218 101.022 126.206 101.121C126.193 101.22 126.161 101.316 126.112 101.403C126.062 101.49 125.996 101.566 125.916 101.627C121.431 105.02 118.242 108.145 116.175 111.158H116.146Z" fill="#08B29B"/>
<path d="M117.068 142.636C116.993 142.738 116.893 142.821 116.778 142.876C116.663 142.93 116.536 142.956 116.409 142.949C116.281 142.943 116.158 142.905 116.049 142.839C115.939 142.773 115.848 142.681 115.784 142.572C114.645 140.703 112.466 138.997 111.211 138.156C111.049 138.048 110.935 137.883 110.889 137.693C110.844 137.504 110.871 137.305 110.966 137.134C111.019 137.045 111.091 136.968 111.176 136.908C111.261 136.848 111.357 136.806 111.459 136.785C111.561 136.763 111.666 136.763 111.768 136.784C111.87 136.805 111.967 136.847 112.052 136.907C113.435 137.832 114.702 138.92 115.824 140.148C115.896 140.234 115.985 140.303 116.086 140.35C116.187 140.397 116.297 140.422 116.408 140.422C116.52 140.422 116.63 140.397 116.731 140.35C116.832 140.303 116.921 140.234 116.992 140.148C119.607 137.041 122.59 134.264 125.875 131.878C125.956 131.818 126.048 131.775 126.147 131.75C126.245 131.726 126.347 131.721 126.446 131.736C126.546 131.751 126.642 131.786 126.729 131.839C126.815 131.891 126.89 131.96 126.95 132.042C127.072 132.201 127.127 132.402 127.102 132.601C127.077 132.8 126.974 132.981 126.815 133.105C122.33 136.504 119.142 139.628 117.074 142.642L117.068 142.636Z" fill="#08B29B"/>
<path d="M117.968 174.178C117.892 174.28 117.793 174.363 117.677 174.418C117.562 174.472 117.435 174.498 117.308 174.491C117.181 174.485 117.057 174.447 116.948 174.381C116.839 174.315 116.748 174.223 116.683 174.114C115.515 172.245 113.366 170.539 112.116 169.698C111.955 169.59 111.84 169.425 111.793 169.236C111.747 169.047 111.772 168.848 111.865 168.676C111.917 168.586 111.988 168.508 112.072 168.447C112.156 168.386 112.252 168.343 112.354 168.321C112.455 168.299 112.56 168.298 112.662 168.319C112.764 168.34 112.861 168.382 112.945 168.443C114.328 169.371 115.596 170.459 116.724 171.684C116.795 171.77 116.884 171.839 116.985 171.886C117.086 171.934 117.196 171.958 117.308 171.958C117.419 171.958 117.53 171.934 117.63 171.886C117.731 171.839 117.821 171.77 117.892 171.684C120.502 168.576 123.483 165.799 126.769 163.415C126.85 163.354 126.942 163.311 127.04 163.286C127.138 163.262 127.24 163.257 127.34 163.272C127.44 163.288 127.536 163.322 127.622 163.375C127.709 163.427 127.784 163.496 127.843 163.578C127.906 163.656 127.951 163.746 127.978 163.842C128.005 163.938 128.013 164.039 128 164.138C127.988 164.237 127.956 164.333 127.906 164.419C127.856 164.505 127.789 164.581 127.709 164.641C123.23 168.04 120.035 171.164 117.968 174.178Z" fill="#08B29B"/>
<path d="M158.503 197.608C156.544 197.626 154.64 196.965 153.113 195.739C151.898 194.898 150.777 194.11 148.482 194.11C146.821 194.079 145.206 194.659 143.944 195.739C142.472 196.97 140.607 197.633 138.688 197.608C136.727 197.626 134.821 196.966 133.292 195.739C132.077 194.898 130.956 194.11 128.661 194.11C127.001 194.078 125.388 194.658 124.129 195.739C122.656 196.969 120.792 197.632 118.873 197.608C116.914 197.626 115.01 196.965 113.483 195.739C112.268 194.898 111.147 194.11 108.851 194.11L108.811 192.796C110.771 192.777 112.678 193.437 114.207 194.664C115.509 195.738 117.15 196.315 118.838 196.294C120.497 196.326 122.11 195.746 123.37 194.664C124.85 193.427 126.726 192.763 128.655 192.796C130.613 192.778 132.518 193.438 134.045 194.664C135.26 195.505 136.381 196.294 138.676 196.294C140.336 196.326 141.949 195.746 143.208 194.664C144.689 193.429 146.565 192.765 148.493 192.796C150.454 192.777 152.36 193.437 153.889 194.664C155.104 195.505 156.225 196.294 158.521 196.294L158.503 197.608Z" fill="#EBEBEB"/>
<path d="M167.193 71.1777H167.082C165.733 66.897 162.498 64.0588 158.965 64.0588H151.77C151.213 64.0379 150.676 63.8447 150.234 63.5058C149.791 63.1668 149.465 62.6989 149.299 62.1666C148.336 59.4393 145.971 57.4946 143.255 57.4946C140.539 57.4946 138.279 59.4393 137.456 62.1666C137.318 62.696 137.013 63.1666 136.586 63.5077C136.158 63.8489 135.632 64.0422 135.085 64.0588H127.896C124.363 64.0588 121.273 66.897 120.152 71.1777H120.047C119.842 71.1917 119.641 71.2465 119.457 71.3392C119.274 71.4318 119.11 71.5602 118.977 71.717C118.843 71.8737 118.743 72.0556 118.681 72.2518C118.619 72.4481 118.597 72.6548 118.616 72.8597C118.606 73.2805 118.758 73.6891 119.04 74.001C119.323 74.313 119.715 74.5044 120.134 74.5357H167.292C167.498 74.5225 167.698 74.4684 167.882 74.3765C168.066 74.2845 168.23 74.1567 168.364 74.0005C168.498 73.8443 168.599 73.6629 168.662 73.467C168.725 73.2711 168.747 73.0646 168.729 72.8597C168.741 72.435 168.587 72.0225 168.3 71.7089C168.014 71.3952 167.617 71.2048 167.193 71.1777Z" fill="#0553C8"/>
<path d="M113.716 85.6432L114.026 85.8476L114.318 85.9819L113.997 86.6769C113.814 86.591 113.638 86.4915 113.471 86.3791C113.346 86.2976 113.225 86.2099 113.109 86.1163C112.785 86.248 112.436 86.3097 112.087 86.2973C111.557 86.3264 111.036 86.1555 110.627 85.8184C110.409 85.6177 110.237 85.3725 110.122 85.0995C110.007 84.8264 109.952 84.5319 109.961 84.2358C109.921 83.9593 109.945 83.6775 110.031 83.4116C110.117 83.1458 110.262 82.9031 110.456 82.702C110.649 82.5009 110.887 82.3467 111.149 82.2512C111.412 82.1557 111.692 82.1214 111.97 82.1509C112.251 82.133 112.533 82.1708 112.8 82.262C113.066 82.3532 113.312 82.496 113.524 82.6824C113.869 83.0897 114.075 83.5976 114.11 84.1309C114.144 84.6642 114.006 85.1944 113.716 85.6432ZM112.753 85.0067C112.859 84.7564 112.902 84.4833 112.875 84.2124C112.891 83.9043 112.803 83.5998 112.624 83.3481C112.545 83.2608 112.447 83.192 112.338 83.1466C112.229 83.1011 112.111 83.0802 111.993 83.0853C111.882 83.0817 111.771 83.104 111.67 83.1507C111.568 83.1973 111.479 83.2669 111.409 83.3539C111.239 83.5947 111.166 83.8909 111.205 84.1832C111.183 84.5102 111.272 84.8351 111.456 85.1059C111.533 85.193 111.629 85.2618 111.736 85.3072C111.843 85.3527 111.959 85.3737 112.075 85.3687C112.155 85.378 112.235 85.378 112.315 85.3687C112.167 85.2429 111.996 85.1458 111.812 85.0826L111.993 84.6387C112.082 84.6496 112.169 84.6732 112.25 84.7088C112.378 84.7793 112.5 84.8573 112.618 84.9424L112.753 85.0067Z" fill="#263238"/>
<path d="M117.331 82.2153H118.552L118.622 84.6097C118.636 84.8301 118.612 85.0514 118.552 85.2638C118.49 85.4726 118.377 85.663 118.225 85.8186C118.088 85.9644 117.92 86.0781 117.734 86.1515C117.456 86.2469 117.164 86.2924 116.87 86.2858C116.657 86.2854 116.444 86.2718 116.233 86.2449C116.031 86.2247 115.833 86.1694 115.649 86.0814C115.484 85.9929 115.336 85.8763 115.211 85.7368C115.091 85.6019 114.998 85.4453 114.937 85.2755C114.859 85.0575 114.813 84.8292 114.802 84.598L114.732 82.2036H115.97L116.041 84.6506C116.037 84.7452 116.053 84.8395 116.087 84.9279C116.121 85.0162 116.173 85.0967 116.239 85.1645C116.307 85.2283 116.387 85.2778 116.474 85.3099C116.561 85.342 116.654 85.3561 116.747 85.3514C116.838 85.3563 116.93 85.3422 117.015 85.31C117.1 85.2778 117.178 85.2283 117.244 85.1645C117.351 85.027 117.401 84.8534 117.384 84.6798L117.331 82.2153Z" fill="#263238"/>
<path d="M121.764 85.5675H120.357L120.181 86.2274H118.914L120.304 82.2153H121.653L123.282 86.2274H121.98L121.764 85.5675ZM121.472 84.6798L120.987 83.2373L120.596 84.6798H121.472Z" fill="#263238"/>
<path d="M123.557 82.2153H124.795L124.882 85.2405H126.821L126.85 86.2274H123.673L123.557 82.2153Z" fill="#263238"/>
<path d="M127.341 82.2153H128.585L128.702 86.2274H127.458L127.341 82.2153Z" fill="#263238"/>
<path d="M129.192 82.2153H132.959L132.988 83.2081H131.727L131.815 86.2274H130.576L130.483 83.2081H129.222L129.192 82.2153Z" fill="#263238"/>
<path d="M133.117 82.2153H134.495L135.342 83.5702L136.113 82.2153H137.479L135.99 84.5513L136.037 86.2274H134.793L134.746 84.5513L133.117 82.2153Z" fill="#263238"/>
<path d="M142.309 85.5675H140.901L140.726 86.2274H139.465L140.855 82.2153H142.204L143.827 86.2274H142.531L142.309 85.5675ZM142.029 84.6798L141.544 83.2373L141.147 84.6798H142.029Z" fill="#263238"/>
<path d="M143.967 84.9018L145.135 84.8258C145.153 84.9831 145.209 85.1336 145.299 85.2638C145.369 85.3488 145.459 85.4155 145.561 85.4582C145.662 85.501 145.773 85.5184 145.883 85.5091C146.03 85.5213 146.176 85.4775 146.292 85.3865C146.334 85.3506 146.368 85.3059 146.391 85.2554C146.414 85.205 146.426 85.15 146.426 85.0945C146.422 85.0402 146.408 84.9872 146.382 84.9389C146.357 84.8907 146.322 84.8482 146.28 84.8142C146.084 84.6935 145.865 84.6158 145.638 84.5864C145.215 84.5162 144.815 84.3482 144.47 84.0958C144.275 83.9347 144.146 83.7079 144.107 83.4583C144.069 83.2087 144.123 82.9535 144.259 82.741C144.384 82.5446 144.568 82.3932 144.785 82.3088C145.098 82.1899 145.432 82.1362 145.766 82.1511C146.175 82.1265 146.582 82.2263 146.934 82.4373C147.078 82.5438 147.197 82.6795 147.285 82.8355C147.373 82.9915 147.426 83.1643 147.442 83.3425L146.274 83.4126C146.254 83.2621 146.182 83.1235 146.07 83.0213C145.949 82.935 145.803 82.8918 145.655 82.8986C145.539 82.8896 145.424 82.9205 145.328 82.9863C145.295 83.0125 145.268 83.0464 145.251 83.085C145.234 83.1237 145.226 83.1659 145.229 83.2082C145.23 83.2426 145.239 83.2764 145.255 83.3068C145.271 83.3372 145.294 83.3634 145.322 83.3834C145.45 83.4613 145.594 83.5111 145.743 83.5294C146.145 83.6019 146.537 83.7214 146.911 83.8856C147.124 83.9817 147.306 84.1355 147.436 84.3294C147.545 84.5052 147.606 84.7067 147.611 84.9134C147.619 85.1629 147.552 85.4091 147.419 85.6201C147.281 85.8432 147.077 86.017 146.835 86.1165C146.528 86.2382 146.201 86.2958 145.871 86.2858C145.361 86.3375 144.851 86.1958 144.44 85.8887C144.172 85.625 144.005 85.2759 143.967 84.9018Z" fill="#263238"/>
<path d="M148.015 84.902L149.183 84.8261C149.202 84.9839 149.26 85.1345 149.352 85.2641C149.419 85.3449 149.504 85.4091 149.601 85.4516C149.697 85.4942 149.802 85.5139 149.907 85.5093C150.054 85.5215 150.2 85.4777 150.316 85.3867C150.358 85.3508 150.392 85.3061 150.415 85.2556C150.438 85.2052 150.45 85.1502 150.45 85.0947C150.446 85.0404 150.432 84.9874 150.407 84.9391C150.381 84.8909 150.346 84.8484 150.304 84.8144C150.108 84.6937 149.889 84.616 149.662 84.5866C149.239 84.5175 148.839 84.3494 148.494 84.0961C148.378 84.0036 148.284 83.8864 148.219 83.753C148.155 83.6196 148.121 83.4734 148.12 83.3252C148.113 83.1191 148.168 82.9158 148.277 82.7412C148.406 82.5457 148.591 82.3948 148.809 82.309C149.122 82.1901 149.456 82.1364 149.79 82.1513C150.199 82.1278 150.606 82.2275 150.958 82.4375C151.102 82.544 151.221 82.6797 151.309 82.8357C151.397 82.9917 151.45 83.1645 151.466 83.3427L150.298 83.4128C150.279 83.2608 150.204 83.1214 150.088 83.0215C149.968 82.9335 149.822 82.8901 149.673 82.8988C149.559 82.8907 149.446 82.9216 149.352 82.9865C149.319 83.0133 149.293 83.0472 149.274 83.0856C149.256 83.1239 149.247 83.1659 149.247 83.2084C149.25 83.2428 149.261 83.2762 149.278 83.3064C149.295 83.3365 149.318 83.3628 149.346 83.3836C149.474 83.4615 149.618 83.5113 149.767 83.5296C150.169 83.6021 150.561 83.7216 150.935 83.8858C151.147 83.9835 151.328 84.1369 151.46 84.3296C151.569 84.5054 151.63 84.7069 151.635 84.9136C151.643 85.1632 151.576 85.4093 151.443 85.6203C151.306 85.8439 151.101 86.0179 150.859 86.1167C150.555 86.2384 150.228 86.296 149.901 86.286C149.391 86.3377 148.88 86.196 148.47 85.8889C148.209 85.6226 148.048 85.2738 148.015 84.902Z" fill="#263238"/>
<path d="M154.806 82.2153H156.044L156.115 84.6097C156.123 84.8353 156.091 85.0607 156.021 85.2754C155.959 85.4842 155.847 85.6747 155.694 85.8302C155.557 85.976 155.39 86.0897 155.203 86.1631C154.925 86.2581 154.633 86.3036 154.339 86.2974C154.126 86.2973 153.914 86.2836 153.703 86.2565C153.5 86.2364 153.302 86.1811 153.119 86.093C152.954 86.0046 152.805 85.888 152.681 85.7485C152.564 85.6051 152.477 85.4405 152.424 85.2637C152.346 85.0458 152.3 84.8175 152.289 84.5863L152.219 82.1919H153.451L153.527 84.6389C153.521 84.8289 153.59 85.0137 153.72 85.1528C153.789 85.2162 153.87 85.2654 153.958 85.2975C154.047 85.3296 154.14 85.3439 154.234 85.3397C154.325 85.3445 154.416 85.3305 154.502 85.2983C154.587 85.2661 154.665 85.2166 154.73 85.1528C154.793 85.0837 154.839 85.0021 154.868 84.9135C154.896 84.8248 154.905 84.7312 154.894 84.6389L154.806 82.2153Z" fill="#263238"/>
<path d="M156.997 86.2276L156.88 82.2155H158.947C159.244 82.2058 159.541 82.2392 159.829 82.3148C160.031 82.3815 160.207 82.5103 160.331 82.6827C160.462 82.8738 160.533 83.0994 160.536 83.331C160.548 83.5338 160.504 83.7362 160.407 83.915C160.317 84.0763 160.186 84.2113 160.028 84.3062C159.893 84.3823 159.747 84.4355 159.595 84.4639C159.711 84.4955 159.822 84.5447 159.923 84.6099C160.069 84.7475 160.199 84.9024 160.308 85.0713L160.945 86.2393H159.543L158.848 85.0129C158.789 84.8968 158.71 84.792 158.614 84.7034C158.522 84.6437 158.415 84.6113 158.305 84.6099H158.194L158.246 86.2393L156.997 86.2276ZM158.165 83.8449H158.684C158.795 83.8369 158.905 83.8173 159.011 83.7865C159.09 83.7704 159.16 83.727 159.21 83.6638C159.257 83.5949 159.281 83.5134 159.28 83.4302C159.281 83.3737 159.27 83.3177 159.247 83.2661C159.223 83.2146 159.189 83.1689 159.146 83.1324C159.008 83.0479 158.846 83.011 158.684 83.0273H158.135L158.165 83.8449Z" fill="#263238"/>
<path d="M163.788 85.5675H162.381L162.206 86.2274H160.938L162.328 82.2153H163.677L165.307 86.2274H164.004L163.788 85.5675ZM163.52 84.6798L163.035 83.2373L162.644 84.6798H163.52Z" fill="#263238"/>
<path d="M165.587 82.2153H166.755L168.326 84.4345L168.262 82.2153H169.43L169.546 86.2274H168.378L166.813 84.0257L166.878 86.2274H165.71L165.587 82.2153Z" fill="#263238"/>
<path d="M172.987 84.5863L174.085 84.9133C174.034 85.1885 173.924 85.4494 173.763 85.6784C173.612 85.8798 173.41 86.0387 173.179 86.1397C172.9 86.2543 172.599 86.3081 172.298 86.2974C171.93 86.3105 171.563 86.2448 171.223 86.1047C170.934 85.952 170.693 85.7214 170.528 85.4389C170.304 85.0693 170.187 84.6448 170.189 84.2125C170.163 83.938 170.193 83.6611 170.276 83.3982C170.359 83.1354 170.495 82.8919 170.674 82.6825C170.871 82.4965 171.105 82.3533 171.36 82.2618C171.615 82.1704 171.887 82.1326 172.157 82.151C172.58 82.1278 173 82.2337 173.36 82.4547C173.677 82.6907 173.911 83.0193 174.032 83.3949L172.946 83.6402C172.913 83.546 172.87 83.4559 172.817 83.3716C172.747 83.2807 172.657 83.2069 172.554 83.1555C172.45 83.1017 172.334 83.0737 172.216 83.0737C172.089 83.0691 171.964 83.0979 171.852 83.1574C171.74 83.2169 171.646 83.3049 171.579 83.4125C171.456 83.658 171.406 83.9335 171.433 84.2067C171.41 84.5269 171.49 84.8461 171.661 85.1177C171.733 85.2013 171.823 85.2673 171.924 85.3108C172.025 85.3543 172.135 85.3742 172.245 85.3688C172.343 85.3758 172.442 85.3611 172.533 85.3258C172.625 85.2904 172.708 85.2354 172.776 85.1645C172.897 84.994 172.969 84.7943 172.987 84.5863Z" fill="#263238"/>
<path d="M174.616 82.2153H177.939V83.0738H175.86V83.7104H177.787V84.528H175.86V85.3222H178.003V86.2274H174.622L174.616 82.2153Z" fill="#263238"/>
<path d="M73.4381 132.703C73.4381 132.703 71.7795 169.045 71.4642 183.762C71.1313 199.074 70.9853 234.827 70.9853 234.827H67.125C67.125 234.827 60.958 205.113 62.7859 183.762C60.0236 167.369 58.1606 132.703 58.1606 132.703H73.4381Z" fill="#985555"/>
<path d="M68.328 132.703C68.328 132.703 59.1242 170.762 55.3632 184.994C51.392 199.939 46.0543 233.717 46.0192 234.827H42.6788C42.6788 234.827 41.6275 195.804 46.9186 182.535C46.9186 165.909 53.8331 132.703 53.8331 132.703H68.328Z" fill="#985555"/>
<path d="M42.5969 232.8C41.9604 233.524 41.4289 237.274 42.4101 238.944C43.3912 240.614 42.4101 243.084 45.6221 243.084C48.8341 243.084 49.1261 242.384 48.3377 240.889C47.5493 239.394 46.5857 236.585 46.6207 234.827C46.6557 232.561 47.5259 231.393 42.5969 232.8Z" fill="#263238"/>
<path d="M42.1997 236.707C42.1297 238.634 42.1705 241.782 42.1705 241.782H42.6786C42.6786 241.782 43.0582 238.336 43.3794 237.057L42.1997 236.707Z" fill="#263238"/>
<path d="M76.726 109.454C77.1406 112.42 77.5086 115.387 77.8473 118.36C78.186 121.332 78.5189 124.311 78.8401 127.312C78.916 128.054 78.9744 128.837 79.1029 129.456C79.1554 129.777 79.2197 130.11 79.2956 130.466C79.3715 130.822 79.4299 131.161 79.5175 131.505C79.8329 132.895 80.2358 134.291 80.6855 135.687C81.1352 137.083 81.5674 138.478 82.0813 139.862C82.5952 141.247 83.1091 142.648 83.6464 143.997L81.4914 145.165C79.8074 142.562 78.3349 139.828 77.0881 136.989C76.4598 135.559 75.9062 134.097 75.4295 132.609C75.301 132.241 75.1959 131.85 75.085 131.47C74.974 131.091 74.863 130.705 74.7696 130.302C74.5866 129.541 74.4424 128.771 74.3374 127.996C73.8702 125.017 73.4303 122.035 73.0176 119.049C72.5854 116.064 72.1883 113.08 71.8496 110.084L76.726 109.454Z" fill="#B16666"/>
<path d="M75.8792 105.12C77.1056 107.415 77.7422 116.473 78.77 122.693C78.8033 122.912 78.7591 123.137 78.6451 123.327C78.5311 123.518 78.3544 123.663 78.1451 123.738C76.7747 124.283 75.5069 125.057 74.3958 126.027C74.2706 126.134 74.1196 126.207 73.9577 126.237C73.7958 126.268 73.6288 126.256 73.473 126.202C73.3173 126.149 73.1782 126.055 73.0697 125.931C72.9611 125.807 72.8868 125.657 72.8541 125.496L69.9341 112L71.2014 109.442C71.5142 108.365 72.1144 107.394 72.9375 106.632C73.7606 105.871 74.7756 105.348 75.8734 105.12H75.8792Z" fill="#263238"/>
<path d="M83.553 143.506L87.8046 145.895L83.2085 147.647C83.2085 147.647 80.8725 145.632 81.2871 143.67L83.553 143.506Z" fill="#B16666"/>
<path d="M89.3639 149.644L85.4394 150.877L83.2085 147.618L87.8046 145.895L89.3639 149.644Z" fill="#B16666"/>
<path d="M81.6782 148.605L126.681 143.296L126.734 143.723L81.8067 149.627L81.6782 148.605Z" fill="#263238"/>
<path d="M76.3112 106.802C76.3871 110.306 76.171 120.188 73.7124 135.313H53.2198C53.5527 127.312 54.5513 119.72 50.7378 103.368C53.3567 102.835 56.0114 102.495 58.6802 102.352C61.6451 102.142 64.6213 102.142 67.5862 102.352C69.5017 102.527 71.5457 102.837 73.1108 103.106C73.9895 103.257 74.7887 103.707 75.3722 104.382C75.9557 105.056 76.2876 105.911 76.3112 106.802Z" fill="#263238"/>
<path opacity="0.2" d="M65.7991 135.383C65.7806 135.379 65.7641 135.369 65.7523 135.354C65.7406 135.339 65.7344 135.32 65.7349 135.301C67.6037 117.916 65.9626 110.984 65.9451 110.913C65.9414 110.895 65.9448 110.876 65.9545 110.859C65.9642 110.843 65.9796 110.831 65.9977 110.826C66.0069 110.822 66.0168 110.821 66.0266 110.821C66.0365 110.822 66.046 110.825 66.0545 110.83C66.063 110.836 66.0702 110.843 66.0755 110.851C66.0808 110.859 66.0842 110.869 66.0853 110.878C66.0853 110.948 67.7497 117.886 65.8809 135.319C65.8802 135.329 65.8775 135.338 65.8729 135.347C65.8683 135.355 65.862 135.363 65.8543 135.369C65.8466 135.375 65.8377 135.38 65.8282 135.382C65.8187 135.384 65.8088 135.385 65.7991 135.383Z" fill="white"/>
<path d="M67.5862 102.334H58.6802C58.6802 102.334 61.7403 107.474 65.7991 110.183C67.3104 107.863 67.944 105.08 67.5862 102.334Z" fill="#F20000"/>
<path d="M62.5347 89.6792C64.5378 93.0606 63.7377 97.2362 60.7477 99.0232C57.7576 100.81 53.7397 99.4787 51.7132 96.1032C49.6867 92.7277 50.5101 88.5112 53.5002 86.7592C56.4903 85.0072 60.5316 86.292 62.5347 89.6792Z" fill="#263238"/>
<path d="M49.9555 93.376C49.8462 91.5055 50.4235 89.6593 51.579 88.1843C52.1021 87.49 52.7715 86.9193 53.5397 86.5126C54.3079 86.1059 55.1562 85.8731 56.0244 85.8308C56.8926 85.7884 57.7595 85.9375 58.5637 86.2675C59.3678 86.5976 60.0896 87.1004 60.6777 87.7404C61.9755 89.1014 62.7314 90.8895 62.8035 92.7687H62.5115C62.4428 90.9597 61.716 89.2381 60.4675 87.9273C59.9085 87.3163 59.2216 86.8361 58.4558 86.521C57.69 86.2059 56.864 86.0637 56.0369 86.1044C55.2098 86.1451 54.4018 86.3678 53.6706 86.7566C52.9394 87.1454 52.303 87.6907 51.8068 88.3536C50.6858 89.7727 50.1229 91.5529 50.2241 93.3585L49.9555 93.376Z" fill="#263238"/>
<path d="M72.9174 95.0487C74.5059 91.7685 73.2663 87.8854 70.1487 86.3755C67.031 84.8657 63.2159 86.3009 61.6273 89.5811C60.0388 92.8614 61.2783 96.7445 64.396 98.2543C67.5137 99.7641 71.3288 98.3289 72.9174 95.0487Z" fill="#263238"/>
<path d="M59.5679 92.313C60.1519 95.1746 60.6892 100.425 58.686 102.334C58.686 102.334 60.2336 105.365 64.8122 106.422C67.6563 104.67 67.592 102.334 67.592 102.334C64.3976 101.569 64.4793 99.2042 65.0341 96.9791L59.5679 92.313Z" fill="#985555"/>
<path d="M62.9375 105.833L58.9488 101.131L57.5705 101.861L57.3428 108.659L60.2978 104.781L62.9375 105.833Z" fill="white"/>
<path d="M65.6416 105.833L66.9381 101.604L68.5674 102.334L70.3545 108.058L67.6914 104.781L65.6416 105.833Z" fill="white"/>
<path opacity="0.2" d="M61.7932 94.2168L65.0285 96.9733C64.8895 97.4915 64.7976 98.0212 64.754 98.5559C63.5335 98.3807 61.834 97.0375 61.7289 95.7586C61.6523 95.2452 61.6741 94.722 61.7932 94.2168Z" fill="black"/>
<path d="M56.543 87.0568C57.6643 91.7288 58.0439 93.7085 60.8471 95.7058C65.0694 98.7076 70.5415 96.2898 70.8335 91.4076C71.0963 86.9984 69.2158 80.1247 64.2752 79.0677C63.187 78.8295 62.056 78.8734 60.9895 79.1952C59.9231 79.5171 58.9566 80.1062 58.1819 80.9067C57.4072 81.7071 56.85 82.6923 56.5631 83.7687C56.2763 84.8451 56.2694 85.977 56.543 87.0568Z" fill="#B16666"/>
<path d="M57.6059 89.2059C60.5259 87.4539 60.1405 82.1979 60.1405 82.1979C65.1921 82.1337 67.1485 82.1979 68.6844 82.414C70.2203 82.6301 69.2684 80.5744 67.02 78.91C64.7716 77.2456 58.6746 77.742 56.7766 80.9248C54.4406 81.8592 52.2098 87.1619 57.6059 89.2059Z" fill="#263238"/>
<path d="M53.6401 84.68C53.6401 84.68 70.0797 81.176 73.537 80.1774C73.537 78.1158 65.0807 80.6679 65.0807 80.6679L53.6401 84.68Z" fill="#0553C8"/>
<path d="M69.7293 80.0547C69.414 78.8867 66.9904 73.0175 58.6333 75.4236C50.9362 77.672 53.6401 84.68 53.6401 84.68L69.7293 80.0547Z" fill="#0553C8"/>
<path d="M64.0763 75.2368L61.1505 74.5068L57.7925 75.1025L57.8334 75.6924L60.035 76.0486L64.0763 75.2368Z" fill="#0553C8"/>
<path opacity="0.4" d="M64.0297 81.1237C63.9561 81.124 63.8852 81.0964 63.831 81.0466C63.7769 80.9968 63.7435 80.9284 63.7377 80.8551C63.7377 80.6741 63.3697 76.5277 58.1546 75.7276C58.0786 75.7147 58.0105 75.6727 57.9648 75.6106C57.9191 75.5486 57.8992 75.4712 57.9093 75.3947C57.9236 75.3193 57.9658 75.2522 58.0276 75.2067C58.0893 75.1612 58.166 75.1407 58.2422 75.1494C63.9304 76.0254 64.3158 80.7675 64.3217 80.8142C64.324 80.8526 64.3188 80.891 64.3063 80.9274C64.2938 80.9637 64.2742 80.9972 64.2487 81.026C64.2232 81.0547 64.1923 81.0782 64.1577 81.0949C64.1231 81.1117 64.0855 81.1215 64.0472 81.1237H64.0297Z" fill="black"/>
<path opacity="0.2" d="M71.575 179.37L61.8105 176.987C61.5418 174.914 61.2966 172.706 61.0571 170.435L71.8027 172.315C71.7151 174.838 71.6392 177.227 71.575 179.37Z" fill="black"/>
<path opacity="0.2" d="M47.9581 168.151L59.1359 170.102C58.6278 172.14 58.1314 174.108 57.6642 175.977L47.3975 173.448C47.5551 171.749 47.742 169.944 47.9581 168.151Z" fill="black"/>
<path d="M64.7831 87.1097C64.8474 87.4952 65.1102 87.7697 65.3672 87.7229C65.6241 87.6762 65.7701 87.3317 65.7 86.9462C65.63 86.5608 65.373 86.2921 65.116 86.3622C64.8591 86.4323 64.7131 86.7243 64.7831 87.1097Z" fill="#263238"/>
<path d="M69.1162 86.3446C69.1804 86.7242 69.4432 86.9987 69.7002 86.9578C69.9571 86.917 70.1031 86.5666 70.033 86.1811C69.9629 85.7957 69.706 85.5212 69.449 85.5971C69.1921 85.6731 69.0461 85.9592 69.1162 86.3446Z" fill="#263238"/>
<path d="M69.3384 85.6084L70.2144 85.1821C70.2144 85.1821 69.8698 85.9822 69.3384 85.6084Z" fill="#263238"/>
<path d="M68.0884 87.2031C68.5837 88.0181 69.1889 88.761 69.8871 89.4106C69.7164 89.5843 69.5099 89.7187 69.2819 89.8044C69.054 89.8901 68.8101 89.9251 68.5673 89.907L68.0884 87.2031Z" fill="#B16666"/>
<path d="M66.2724 91.688C66.4917 91.6881 66.7106 91.6686 66.9265 91.6296C66.9411 91.6275 66.9552 91.6225 66.9679 91.6148C66.9805 91.6072 66.9916 91.597 67.0003 91.5851C67.009 91.5731 67.0152 91.5595 67.0186 91.5451C67.0219 91.5307 67.0224 91.5157 67.0199 91.5011C67.0142 91.4711 66.997 91.4444 66.9718 91.427C66.9467 91.4095 66.9158 91.4026 66.8856 91.4077C66.4105 91.5015 65.9201 91.4827 65.4536 91.3529C64.9871 91.2231 64.5575 90.9859 64.1992 90.6602C64.1791 90.6385 64.1511 90.6257 64.1216 90.6246C64.092 90.6235 64.0632 90.6342 64.0415 90.6543C64.0198 90.6745 64.007 90.7024 64.0059 90.732C64.0048 90.7615 64.0155 90.7903 64.0357 90.812C64.6375 91.386 65.4408 91.7006 66.2724 91.688Z" fill="#263238"/>
<path d="M55.8947 89.7141C56.0748 90.1397 56.3372 90.5254 56.667 90.8492C56.9967 91.1729 57.3872 91.4282 57.8161 91.6004C58.9841 92.0559 59.6615 91.069 59.4571 89.9243C59.2702 88.8965 58.4585 87.4131 57.2613 87.4423C56.997 87.4489 56.7387 87.5221 56.5102 87.6551C56.2818 87.788 56.0905 87.9765 55.9543 88.203C55.818 88.4295 55.7411 88.6868 55.7307 88.9509C55.7203 89.215 55.7767 89.4775 55.8947 89.7141Z" fill="#B16666"/>
<path d="M62.8734 85.3632C62.9042 85.3601 62.9341 85.3507 62.9613 85.3356C62.9884 85.3206 63.0121 85.3001 63.0311 85.2756C63.2045 85.0469 63.4289 84.8619 63.6864 84.7352C63.9439 84.6084 64.2274 84.5435 64.5144 84.5456C64.5444 84.5488 64.5746 84.5461 64.6035 84.5375C64.6324 84.529 64.6593 84.5148 64.6826 84.4958C64.706 84.4768 64.7253 84.4533 64.7396 84.4268C64.7538 84.4002 64.7626 84.3711 64.7655 84.3412C64.7704 84.2801 64.7511 84.2196 64.7118 84.1726C64.6725 84.1256 64.6163 84.096 64.5553 84.0901C64.1925 84.0811 63.8329 84.1585 63.5059 84.3159C63.1789 84.4733 62.8941 84.7061 62.6748 84.9952C62.6381 85.043 62.6213 85.103 62.6278 85.1629C62.6344 85.2227 62.6637 85.2777 62.7098 85.3164C62.757 85.351 62.815 85.3676 62.8734 85.3632Z" fill="#263238"/>
<path d="M69.9225 83.9443C69.9783 83.9258 70.0245 83.8859 70.0509 83.8333C70.0648 83.8062 70.0731 83.7765 70.0753 83.7461C70.0776 83.7157 70.0736 83.6852 70.0638 83.6563C70.054 83.6275 70.0385 83.6009 70.0183 83.5781C69.998 83.5553 69.9734 83.5369 69.9458 83.5238C69.6235 83.3574 69.2661 83.2705 68.9034 83.2705C68.5407 83.2705 68.1832 83.3574 67.8609 83.5238C67.8089 83.5554 67.7713 83.606 67.756 83.6649C67.7407 83.7238 67.7491 83.7863 67.7792 83.8392C67.7943 83.8655 67.8145 83.8886 67.8386 83.907C67.8627 83.9254 67.8903 83.9388 67.9196 83.9464C67.949 83.954 67.9796 83.9557 68.0097 83.9513C68.0397 83.9469 68.0686 83.9366 68.0945 83.9209C68.35 83.7888 68.6333 83.7199 68.9209 83.7199C69.2085 83.7199 69.4918 83.7888 69.7473 83.9209C69.7729 83.9377 69.8019 83.9485 69.8322 83.9525C69.8625 83.9566 69.8934 83.9538 69.9225 83.9443Z" fill="#263238"/>
<path d="M65.0049 86.3736L65.8809 85.9473C65.8809 85.9473 65.5363 86.7473 65.0049 86.3736Z" fill="#263238"/>
<path d="M73.7122 135.313L72.8713 175.977L46.6555 172.239C45.6043 150.976 49.2835 139.816 53.2197 135.313H73.7122Z" fill="#263238"/>
<path opacity="0.2" d="M66.8328 159.105L60.5898 151.595V145.667L66.8328 159.105Z" fill="black"/>
<path d="M53.3075 108.624C52.5249 110.96 51.7716 113.401 51.0591 115.79C50.3466 118.178 49.7159 120.613 49.2078 123.014C48.9684 124.182 48.7348 125.408 48.6238 126.57V126.792V126.897C48.6238 126.932 48.6238 126.897 48.6238 126.897C48.6108 126.979 48.6252 127.064 48.6647 127.137C48.8361 127.501 49.0737 127.829 49.3655 128.106C50.1554 128.893 51.0311 129.588 51.976 130.179C52.9804 130.822 54.0842 131.441 55.1471 131.996L54.3996 134.332C53.0642 134.076 51.7532 133.707 50.4809 133.228C49.1213 132.734 47.8377 132.052 46.6674 131.201C45.9606 130.675 45.3535 130.026 44.8745 129.286C44.5751 128.808 44.3597 128.283 44.238 127.732C44.1723 127.427 44.139 127.116 44.1387 126.804V126.453V126.191C44.1796 125.502 44.238 124.812 44.3197 124.147C44.4015 123.481 44.5008 122.815 44.6 122.155C45.0411 119.564 45.6142 116.997 46.317 114.464C46.6479 113.203 47.012 111.951 47.4091 110.709C47.8004 109.465 48.1916 108.244 48.653 106.983L53.3075 108.624Z" fill="#B16666"/>
<path d="M68.4798 124.783L65.3262 122.453L58.1021 133.263L49.8735 143.331L53.033 145.667L60.2512 134.851L68.4798 124.783Z" fill="#FAFAFA"/>
<path d="M65.3203 122.453C66.0319 123.611 67.1642 124.448 68.4798 124.789C67.7682 123.631 66.6359 122.794 65.3203 122.453Z" fill="#E6E6E6"/>
<path d="M49.8735 143.331C50.5851 144.489 51.7174 145.326 53.033 145.667C52.3214 144.509 51.1891 143.672 49.8735 143.331Z" fill="#E6E6E6"/>
<path d="M54.6098 131.821L59.8132 132.165L56.4085 135.699C56.4085 135.699 53.4184 134.893 52.9629 132.942L54.6098 131.821Z" fill="#B16666"/>
<path d="M61.5012 134.904L60.0354 136.971C59.9069 137.151 59.7168 137.277 59.5014 137.325C59.2861 137.374 59.0604 137.341 58.8674 137.234L55.6787 135.447L59.8251 132.171L61.4078 133.736C61.5593 133.888 61.6518 134.089 61.669 134.303C61.6861 134.517 61.6266 134.73 61.5012 134.904Z" fill="#B16666"/>
<path d="M54.96 107.678C54.5921 105.418 52.9044 104.086 50.7377 103.351C47.5491 105.657 45.9898 113.279 44.2261 122.167C44.1803 122.424 44.2221 122.69 44.3449 122.921C44.4677 123.151 44.6644 123.334 44.9036 123.44C46.2993 124.024 47.4907 124.608 48.2908 124.982C48.43 125.052 48.5823 125.093 48.7381 125.101C48.8939 125.11 49.0497 125.086 49.1957 125.031C49.3417 124.976 49.4747 124.891 49.5864 124.783C49.698 124.674 49.7858 124.543 49.8442 124.398L55.544 110.253L54.96 107.678Z" fill="#263238"/>
<path d="M78.3259 242.132C77.7336 241.701 77.0747 241.37 76.3753 241.151C76.3753 241.151 72.918 239.195 71.1193 233.326L67.1248 232.327C67.0254 232.302 66.9219 232.299 66.8211 232.317C66.7203 232.335 66.6245 232.375 66.5401 232.433C66.4556 232.491 66.3845 232.566 66.3312 232.653C66.278 232.741 66.2439 232.839 66.2312 232.94C66.1904 233.256 66.167 233.618 66.1261 233.91C66.0882 234.546 66.0882 235.183 66.1261 235.819C66.1612 237.799 66.3831 242.243 66.3831 242.243H66.8503C66.8502 240.891 66.9321 239.539 67.0956 238.196C67.3233 236.888 68.2636 238.436 68.7658 239.913C69.268 241.391 71.3646 242.973 74.3839 243.044C77.9171 243.149 79.3537 242.991 78.3259 242.132Z" fill="#263238"/>
</svg>
