<svg width="61" height="24" viewBox="0 0 61 24" fill="none" xmlns="http://www.w3.org/2000/svg">
<path d="M37.668 15C37.54 15 37.428 14.956 37.332 14.868C37.244 14.78 37.2 14.668 37.2 14.532V6.096C37.2 5.968 37.244 5.86 37.332 5.772C37.428 5.676 37.54 5.628 37.668 5.628C37.796 5.628 37.904 5.676 37.992 5.772C38.088 5.86 38.136 5.968 38.136 6.096V14.112H42.828C42.956 14.112 43.064 14.156 43.152 14.244C43.248 14.324 43.296 14.428 43.296 14.556C43.296 14.684 43.248 14.792 43.152 14.88C43.064 14.96 42.956 15 42.828 15H37.668ZM45.3338 15C45.1898 15 45.0738 14.96 44.9858 14.88C44.9058 14.792 44.8658 14.676 44.8658 14.532V8.904C44.8658 8.76 44.9058 8.648 44.9858 8.568C45.0738 8.48 45.1898 8.436 45.3338 8.436C45.4698 8.436 45.5778 8.48 45.6578 8.568C45.7458 8.648 45.7898 8.76 45.7898 8.904V14.532C45.7898 14.676 45.7458 14.792 45.6578 14.88C45.5778 14.96 45.4698 15 45.3338 15ZM45.3218 7.188C45.1458 7.188 44.9938 7.124 44.8658 6.996C44.7378 6.868 44.6738 6.712 44.6738 6.528C44.6738 6.328 44.7378 6.172 44.8658 6.06C45.0018 5.94 45.1578 5.88 45.3338 5.88C45.5018 5.88 45.6498 5.94 45.7778 6.06C45.9138 6.172 45.9818 6.328 45.9818 6.528C45.9818 6.712 45.9178 6.868 45.7898 6.996C45.6618 7.124 45.5058 7.188 45.3218 7.188ZM48.5985 15C48.4625 15 48.3505 14.96 48.2625 14.88C48.1825 14.792 48.1425 14.68 48.1425 14.544V6.084C48.1425 5.948 48.1825 5.84 48.2625 5.76C48.3505 5.672 48.4625 5.628 48.5985 5.628C48.7345 5.628 48.8425 5.672 48.9225 5.76C49.0105 5.84 49.0545 5.948 49.0545 6.084V11.544L52.4385 8.484C52.6465 8.3 52.8425 8.308 53.0265 8.508C53.1145 8.604 53.1545 8.708 53.1465 8.82C53.1465 8.924 53.0985 9.016 53.0025 9.096L50.6025 11.268L53.0985 14.34C53.2745 14.556 53.2545 14.756 53.0385 14.94C52.9345 15.028 52.8265 15.064 52.7145 15.048C52.6025 15.04 52.5065 14.984 52.4265 14.88L49.9545 11.844L49.0545 12.672V14.544C49.0545 14.68 49.0105 14.792 48.9225 14.88C48.8425 14.96 48.7345 15 48.5985 15ZM57.388 15.06C56.74 15.06 56.164 14.92 55.66 14.64C55.164 14.352 54.772 13.956 54.484 13.452C54.204 12.948 54.064 12.372 54.064 11.724C54.064 11.068 54.196 10.492 54.46 9.996C54.732 9.492 55.104 9.096 55.576 8.808C56.048 8.52 56.592 8.376 57.208 8.376C57.816 8.376 58.344 8.516 58.792 8.796C59.248 9.068 59.6 9.448 59.848 9.936C60.096 10.424 60.22 10.98 60.22 11.604C60.22 11.732 60.18 11.836 60.1 11.916C60.02 11.988 59.916 12.024 59.788 12.024H54.94C54.988 12.456 55.12 12.84 55.336 13.176C55.552 13.504 55.836 13.764 56.188 13.956C56.54 14.14 56.94 14.232 57.388 14.232C57.676 14.232 57.964 14.184 58.252 14.088C58.548 13.984 58.784 13.856 58.96 13.704C59.048 13.632 59.148 13.596 59.26 13.596C59.372 13.588 59.468 13.616 59.548 13.68C59.652 13.776 59.704 13.88 59.704 13.992C59.712 14.104 59.668 14.2 59.572 14.28C59.308 14.504 58.972 14.692 58.564 14.844C58.156 14.988 57.764 15.06 57.388 15.06ZM57.208 9.204C56.592 9.204 56.084 9.396 55.684 9.78C55.284 10.156 55.044 10.648 54.964 11.256H59.356C59.292 10.648 59.068 10.156 58.684 9.78C58.308 9.396 57.816 9.204 57.208 9.204Z" fill="#F20000"/>
<path d="M20.8382 4.60999C20.3274 4.099 19.721 3.69364 19.0535 3.41708C18.3861 3.14052 17.6707 2.99817 16.9482 2.99817C16.2257 2.99817 15.5103 3.14052 14.8428 3.41708C14.1754 3.69364 13.5689 4.099 13.0582 4.60999L11.9982 5.66999L10.9382 4.60999C9.90647 3.5783 8.5072 2.9987 7.04817 2.9987C5.58913 2.9987 4.18986 3.5783 3.15817 4.60999C2.12647 5.64169 1.54688 7.04096 1.54688 8.49999C1.54687 9.95903 2.12647 11.3583 3.15817 12.39L4.21817 13.45L11.9982 21.23L19.7782 13.45L20.8382 12.39C21.3492 11.8792 21.7545 11.2728 22.0311 10.6054C22.3076 9.93789 22.45 9.22248 22.45 8.49999C22.45 7.77751 22.3076 7.0621 22.0311 6.39464C21.7545 5.72718 21.3492 5.12075 20.8382 4.60999V4.60999Z" stroke="#F20000" stroke-width="0.8" stroke-linecap="round" stroke-linejoin="round"/>
</svg>
