<svg width="414" height="414" viewBox="0 0 414 414" fill="none" xmlns="http://www.w3.org/2000/svg">
<path d="M83.8954 123.645C114.951 116.651 136.112 130.353 151.287 145.222C161.713 155.433 172.243 167.11 190.303 173.073C211.28 179.998 236.574 173.57 257.981 170.98C283.644 167.874 307.393 172.731 323.683 185.607C359.364 213.787 337.17 258.898 290.94 277.532C286.863 279.169 282.637 280.664 278.282 282.01C214.841 301.643 123.239 302.159 75.1978 266.035C71.7103 263.409 68.5337 260.636 65.6918 257.737C59.5523 251.482 55.091 244.613 51.4175 237.706C39.9469 216.104 32.2827 192.607 35.5469 169.831C38.2074 151.229 54.5793 130.26 83.8954 123.645Z" fill="#407BFF"/>
<path opacity="0.9" d="M83.8954 123.645C114.951 116.651 136.112 130.353 151.287 145.222C161.713 155.433 172.243 167.11 190.303 173.073C211.28 179.998 236.574 173.57 257.981 170.98C283.644 167.874 307.393 172.731 323.683 185.607C359.364 213.787 337.17 258.898 290.94 277.532C286.863 279.169 282.637 280.664 278.282 282.01C214.841 301.643 123.239 302.159 75.1978 266.035C71.7103 263.409 68.5337 260.636 65.6918 257.737C59.5523 251.482 55.091 244.613 51.4175 237.706C39.9469 216.104 32.2827 192.607 35.5469 169.831C38.2074 151.229 54.5793 130.26 83.8954 123.645Z" fill="white"/>
<path d="M207.001 354.019C295.665 354.019 367.542 349.823 367.542 344.646C367.542 339.47 295.665 335.273 207.001 335.273C118.337 335.273 46.46 339.47 46.46 344.646C46.46 349.823 118.337 354.019 207.001 354.019Z" fill="#F5F5F5"/>
<path d="M178.02 136.172L178.434 129.929C178.434 129.929 176.944 128.099 177.051 127.031C177.159 125.963 179.734 120.042 180.595 119.844C181.456 119.645 185.729 122.253 185.671 123.628C185.613 125.002 182.657 129.788 182.202 130.136L182.16 136.809L178.02 136.172Z" fill="#E4897B"/>
<path d="M121.716 116.689C117.94 117.749 115.986 124.63 117.783 137.464C119.579 150.298 114.611 167.338 114.611 167.338C114.611 167.338 135.237 173.755 148.212 165.541C161.186 157.328 142.689 141.049 142.689 141.049C142.689 141.049 150.215 146.158 152.766 153.055C153.269 151.858 153.413 150.54 153.18 149.263C151.52 145.889 149.113 142.938 146.142 140.635C141.033 136.561 145.314 126.973 141.728 121.798C138.143 116.623 136.272 112.607 121.716 116.689Z" fill="#263238"/>
<path d="M142.622 129.523C142.622 129.523 142.208 136.975 144.833 138.772C147.458 140.569 152.906 142.018 154.695 145.462" stroke="#263238" stroke-width="0.488465" stroke-linecap="round" stroke-linejoin="round"/>
<path d="M146.424 147.499C154.008 148.062 168.912 160.044 173.052 160.872C177.192 161.7 177.747 132.479 177.747 132.479H183.816C183.816 132.479 182.715 164.548 178.294 168.083C173.872 171.619 145.679 160.896 145.679 160.896L146.424 147.499Z" fill="#407BFF"/>
<path opacity="0.3" d="M183.816 132.479C183.816 132.479 182.715 164.548 178.294 168.083C175.412 170.402 162.388 166.61 153.694 163.72C150.473 162.644 147.848 161.683 146.556 161.236L145.679 160.905L146.432 147.508C154.008 148.062 168.912 160.052 173.052 160.88C177.192 161.708 177.747 132.479 177.747 132.479H183.816Z" fill="black"/>
<path d="M177.191 131.651H183.815L184.544 134.135H177.191V131.651Z" fill="#407BFF"/>
<path opacity="0.2" d="M153.693 163.72C150.472 162.644 147.847 161.692 146.556 161.236V155.308C146.556 155.308 151.764 158.893 153.693 163.72Z" fill="black"/>
<path d="M138.375 303.628C133.092 310.252 128.34 316.296 124.2 320.684C120.06 325.131 117.923 327.888 117.923 327.888L113.833 325.536C113.833 325.536 117.617 319.55 122.751 311.295C127.114 304.29 132.455 295.646 137.307 287.639C143.583 277.289 149.04 268.007 150.48 264.687C151.507 262.327 148.725 253.26 145.653 244.715C142.531 236.013 139.104 227.841 139.104 227.841L150.273 208.921C150.273 208.921 154.819 221.515 158.86 234.804C161.518 243.498 163.935 252.499 164.755 258.477C165.898 266.831 151.524 287.125 138.375 303.628Z" fill="#E4897B"/>
<path opacity="0.2" d="M138.408 303.627C133.125 310.251 128.05 316.295 124.274 320.684C123.736 317.984 123.189 314.788 122.759 311.302C127.122 304.298 132.463 295.653 137.315 287.646C137.212 292.995 137.578 298.342 138.408 303.627Z" fill="black"/>
<path opacity="0.2" d="M158.86 234.812L145.612 244.748C142.49 236.045 139.062 227.873 139.062 227.873L150.232 208.953C150.232 208.953 154.836 221.522 158.86 234.812Z" fill="black"/>
<path d="M135.792 337.559L131.031 338.18C131.031 338.18 124.2 304.555 124.407 276.808C121.87 267.627 119.89 258.3 118.478 248.88C116.822 237.52 115.994 224.868 118.197 215.429L134.757 222.881L135.096 247.721L135.378 268.421L135.792 337.559Z" fill="#E4897B"/>
<path opacity="0.2" d="M135.096 247.721L118.478 248.88C116.822 237.52 115.994 224.868 118.197 215.429L134.757 222.881L135.096 247.721Z" fill="black"/>
<path d="M114.105 322.919C114.594 322.563 118.717 328.715 118.717 328.715C118.717 328.715 117.798 335.149 119.661 339.305C121.524 343.462 117.906 343.106 114.9 339.173L107.448 329.436C105.329 326.687 109.046 326.612 114.105 322.919Z" fill="#263238"/>
<path d="M120.117 333.418C119.173 333.194 118.569 330.528 118.461 329.998V329.915V329.857V329.808L118.527 329.766C118.618 329.766 120.357 329.187 121.301 329.766C121.445 329.848 121.57 329.96 121.667 330.095C121.764 330.229 121.831 330.382 121.864 330.545C121.939 330.909 121.864 331.166 121.657 331.307C121.45 331.447 120.705 331.348 120.084 331.066C120.5 331.452 120.801 331.945 120.953 332.491C120.968 332.6 120.962 332.711 120.933 332.818C120.905 332.924 120.855 333.024 120.788 333.112C120.724 333.214 120.637 333.3 120.533 333.362C120.429 333.424 120.312 333.46 120.191 333.468L120.117 333.418ZM120.2 333.037C120.241 333.037 120.357 333.037 120.539 332.838C120.575 332.793 120.601 332.741 120.615 332.686C120.63 332.63 120.632 332.572 120.622 332.515C120.539 331.903 119.62 331.008 118.966 330.462C119.231 331.605 119.761 332.929 120.2 333.037ZM119.123 330.031C120.125 330.652 121.226 331.141 121.5 330.95C121.583 330.893 121.558 330.702 121.5 330.594C121.481 330.485 121.438 330.381 121.373 330.291C121.309 330.201 121.224 330.126 121.127 330.073C120.85 329.934 120.542 329.868 120.233 329.882C119.859 329.891 119.486 329.941 119.123 330.031Z" fill="#407BFF"/>
<path d="M129.342 335.174C129.342 334.569 136.794 335.025 136.794 335.025C136.794 335.025 141.348 339.687 145.777 340.73C150.207 341.773 147.731 344.448 142.78 344.448H130.517C126.998 344.448 129.168 341.425 129.342 335.174Z" fill="#263238"/>
<path d="M137.596 335.968L137.53 335.927V335.877C137.53 335.877 137.53 335.836 137.53 335.819C137.526 335.795 137.526 335.769 137.53 335.745C137.53 335.654 138.184 333.94 139.186 333.526C139.337 333.456 139.501 333.42 139.666 333.42C139.832 333.42 139.996 333.456 140.147 333.526C140.486 333.683 140.652 333.89 140.635 334.147C140.635 334.536 140.089 334.925 139.484 335.248C140.043 335.157 140.615 335.22 141.14 335.43C141.235 335.484 141.319 335.557 141.385 335.644C141.452 335.73 141.501 335.83 141.529 335.935C141.585 336.068 141.597 336.215 141.566 336.356C141.535 336.497 141.462 336.624 141.356 336.722C141.163 336.853 140.934 336.917 140.701 336.904C139.619 336.779 138.568 336.462 137.596 335.968ZM138.275 335.844C139.368 336.308 140.718 336.714 141.074 336.432C141.074 336.432 141.198 336.324 141.124 336.035C141.107 335.98 141.079 335.929 141.042 335.884C141.005 335.84 140.96 335.804 140.908 335.778C140.633 335.653 140.332 335.597 140.031 335.612C139.439 335.629 138.851 335.706 138.275 335.844ZM139.302 333.865C138.713 334.243 138.265 334.805 138.027 335.463C139.128 335.041 140.188 334.47 140.205 334.13C140.205 334.031 140.039 333.931 139.94 333.89C139.84 333.844 139.731 333.82 139.621 333.82C139.511 333.82 139.402 333.844 139.302 333.89V333.865Z" fill="#407BFF"/>
<path d="M142.416 240.061L160.326 230.68C154.695 213.557 149.611 203.853 149.611 203.853C132.008 206.866 133.614 220.785 133.614 220.785C133.614 220.785 138.135 230.067 142.416 240.061Z" fill="#407BFF"/>
<path opacity="0.6" d="M141.298 237.42C141.679 238.289 142.068 239.175 142.449 240.061L160.358 230.68C154.728 213.565 149.644 203.853 149.644 203.853C138.781 205.724 135.237 211.735 134.111 216.057C133.694 217.596 133.538 219.194 133.647 220.785C133.647 220.785 137.365 228.527 141.298 237.42Z" fill="white"/>
<path opacity="0.2" d="M141.298 237.42C137.365 228.494 133.647 220.785 133.647 220.785C133.538 219.194 133.694 217.596 134.111 216.057C134.673 215.694 135.295 215.433 135.949 215.287C135.949 215.287 140.76 222.797 141.298 237.42Z" fill="black"/>
<path d="M136.902 243.928L136.289 215.279L150.481 211.139C150.481 211.139 149.363 197.999 147.707 191.516C147.707 191.516 124.656 185.778 121.137 193.594C121.137 193.594 121.137 193.718 121.087 193.76L121.037 193.834C121.037 193.834 114.413 205.484 116.384 243.92L136.902 243.928Z" fill="#407BFF"/>
<path opacity="0.6" d="M136.902 243.928L136.289 215.279L150.481 211.139C150.481 211.139 149.363 197.999 147.707 191.516C147.707 191.516 124.656 185.778 121.137 193.594C121.137 193.594 121.137 193.718 121.087 193.76L121.037 193.834C121.037 193.834 114.413 205.484 116.384 243.92L136.902 243.928Z" fill="white"/>
<path d="M120.888 189.636V193.544L147.384 191.499V186.879L120.888 189.636Z" fill="#263238"/>
<path d="M129.85 188.36L128.525 188.426L128.863 195.182L130.188 195.116L129.85 188.36Z" fill="#407BFF"/>
<path d="M141.438 187.822L135.599 188.345L135.995 192.773L141.834 192.25L141.438 187.822Z" fill="white"/>
<path d="M146.165 186.212L144.842 186.279L145.186 193.027L146.509 192.96L146.165 186.212Z" fill="#407BFF"/>
<path opacity="0.6" d="M129.85 188.36L128.525 188.426L128.863 195.182L130.188 195.116L129.85 188.36Z" fill="white"/>
<path opacity="0.6" d="M146.165 186.212L144.842 186.279L145.186 193.027L146.509 192.96L146.165 186.212Z" fill="white"/>
<path d="M147.706 187.343L121.012 189.654C120.374 179.718 119.745 173.325 113.866 155.639C113.358 154.088 112.806 152.446 112.21 150.713C115.834 149.557 119.536 148.663 123.289 148.038C127.25 147.335 131.257 146.911 135.278 146.771C140.47 146.771 146.431 147.318 146.431 147.318C146.431 147.318 147.259 147.525 147.822 153.031C148.303 158.198 148.783 168.54 147.706 187.343Z" fill="#407BFF"/>
<path opacity="0.3" d="M147.706 187.343L121.012 189.653C120.738 182.84 119.739 176.075 118.031 169.474C117.344 166.808 116.482 163.811 115.389 160.366C114.926 158.893 114.421 157.336 113.866 155.672C113.311 154.007 112.806 152.476 112.21 150.745C115.834 149.589 119.536 148.695 123.289 148.071C127.25 147.367 131.257 146.944 135.278 146.804C140.47 146.804 146.44 147.35 146.44 147.35C146.44 147.35 147.268 147.557 147.822 153.055C148.303 158.197 148.783 168.539 147.706 187.343Z" fill="black"/>
<path d="M114.678 242.752L138.069 242.545L137.655 246.064L115.713 245.857L114.678 242.752Z" fill="#407BFF"/>
<path d="M140.967 239.854L160.425 229.297L161.46 232.402L142.623 241.717L140.967 239.854Z" fill="#407BFF"/>
<path d="M129.897 147.134C129.897 147.134 122.544 146.845 122.958 150.604C123.372 154.363 141.298 165.268 141.298 165.268C141.298 165.268 140.504 145.454 129.897 147.134Z" stroke="#407BFF" stroke-miterlimit="10"/>
<path d="M133.067 152.674C126.443 151.846 124.506 149.014 124.506 149.014C127.197 146.48 126.708 142.738 126.021 140.403C125.808 139.663 125.531 138.942 125.193 138.25L133.117 139.732C132.934 140.827 132.832 141.934 132.811 143.044C132.781 143.878 132.856 144.713 133.034 145.528C133.572 147.896 134.922 147.929 134.922 147.929C136.33 150.521 133.067 152.674 133.067 152.674Z" fill="#E4897B"/>
<path opacity="0.2" d="M132.827 143.069C132.797 143.903 132.872 144.738 133.05 145.553C129.904 145.139 127.519 142.622 126.02 140.436C125.807 139.696 125.53 138.976 125.192 138.283L133.116 139.765C132.94 140.858 132.843 141.962 132.827 143.069Z" fill="black"/>
<path d="M131.518 117.799C138.407 118.048 140.494 121.823 140.734 128.944C141.032 137.837 138.83 144.072 130.285 141.853C118.684 138.847 120.059 117.369 131.518 117.799Z" fill="#E4897B"/>
<path d="M136.288 128.389C136.804 129.438 137.443 130.422 138.192 131.32C137.98 131.597 137.695 131.81 137.37 131.936C137.044 132.061 136.69 132.095 136.346 132.032L136.288 128.389Z" fill="#DE5753"/>
<path d="M132.099 127.669C132.099 128.24 131.776 128.696 131.395 128.687C131.014 128.679 130.725 128.215 130.725 127.652C130.725 127.089 131.048 126.634 131.428 126.634C131.809 126.634 132.107 127.106 132.099 127.669Z" fill="#263238"/>
<path d="M131.271 126.683L132.504 126.22C132.504 126.22 131.875 127.222 131.271 126.683Z" fill="#263238"/>
<path d="M139.104 127.652C139.104 128.215 138.789 128.671 138.408 128.662C138.027 128.654 137.729 128.199 137.737 127.627C137.746 127.056 138.06 126.609 138.433 126.617C138.806 126.626 139.145 127.081 139.104 127.652Z" fill="#263238"/>
<path d="M138.275 126.683L139.517 126.211C139.517 126.211 138.921 127.205 138.275 126.683Z" fill="#263238"/>
<path d="M132.206 122.908C131.663 122.822 131.108 122.861 130.582 123.023C130.057 123.185 129.576 123.466 129.176 123.843" stroke="#263238" stroke-width="0.707962" stroke-linecap="round" stroke-linejoin="round"/>
<path d="M137.224 122.808C137.698 122.706 138.19 122.713 138.662 122.828C139.133 122.942 139.573 123.162 139.948 123.471" stroke="#263238" stroke-width="0.707962" stroke-linecap="round" stroke-linejoin="round"/>
<path d="M135.236 134.706C134.887 135.474 134.591 136.265 134.35 137.074L133.903 137.016C131.908 136.735 131.072 135.948 130.749 135.162C130.603 134.771 130.551 134.351 130.6 133.936C130.617 133.701 130.67 133.469 130.757 133.249C131.912 133.969 133.208 134.432 134.557 134.607C134.963 134.681 135.236 134.706 135.236 134.706Z" fill="#263238"/>
<path d="M134.557 134.607L134.276 135.294C132.396 135.029 131.113 134.59 130.6 133.936C130.617 133.701 130.67 133.469 130.757 133.249C131.912 133.969 133.208 134.432 134.557 134.607Z" fill="white"/>
<path d="M133.904 137.017C131.908 136.735 131.072 135.949 130.749 135.162C131.508 135.279 132.24 135.531 132.91 135.907C133.352 136.16 133.701 136.549 133.904 137.017Z" fill="#DE5753"/>
<path d="M123.563 129.168C123.563 129.168 126.991 123.628 126.668 119.232C126.668 119.232 140.528 114.156 140.686 128.042C140.686 128.042 142.474 115.787 130.642 115.075C118.81 114.363 118.222 131.693 124.142 137.083C124.142 137.05 121.435 132.596 123.563 129.168Z" fill="#263238"/>
<path d="M124.63 130.624C124.591 129.825 124.237 129.073 123.646 128.533C123.055 127.993 122.275 127.709 121.475 127.743C119.33 127.892 118.163 132.239 123.429 133.489C124.199 133.671 124.638 132.943 124.63 130.624Z" fill="#E4897B"/>
<path d="M127.652 113.245C131.378 112.21 141.314 112.069 143.658 122.353L142.275 123.04C139.942 121.867 137.419 121.118 134.823 120.829C134.272 119.849 133.625 118.926 132.894 118.072C132.97 118.945 132.97 119.824 132.894 120.697C132.894 120.697 126.41 121.641 123.512 124.282C118.958 128.422 118.677 131.047 118.677 131.047C118.677 131.047 115.522 116.607 127.652 113.245Z" fill="#263238"/>
<path d="M127.098 113.999C127.098 113.999 140.412 109.379 144.626 122.006" stroke="#263238" stroke-width="0.488465" stroke-linecap="round" stroke-linejoin="round"/>
<path d="M142.598 168.788C143.809 168.788 144.792 167.805 144.792 166.594C144.792 165.382 143.809 164.399 142.598 164.399C141.386 164.399 140.403 165.382 140.403 166.594C140.403 167.805 141.386 168.788 142.598 168.788Z" fill="white"/>
<path opacity="0.2" d="M118.032 169.474C117.345 166.808 116.484 163.811 115.391 160.366L116.517 158.015C116.517 158.015 119.44 164.829 118.032 169.474Z" fill="black"/>
<path d="M77.6245 136.536L75.3309 130.74C75.3309 130.74 76.1589 128.546 75.7615 127.561C75.364 126.576 71.0916 121.724 70.2056 121.765C69.3196 121.806 66.0656 125.623 66.521 126.915C66.9764 128.207 71.2654 131.883 71.8036 132.057L73.8736 138.408L77.6245 136.536Z" fill="#E4897B"/>
<path d="M112.202 150.695C108.674 151.656 94.8136 165.111 92.5283 165.111C90.243 165.111 77.4173 134.268 77.4173 134.268L73.0703 137.017C73.0703 137.017 81.9713 171.544 87.3533 174.442C92.7353 177.34 116.598 164.307 116.598 164.307C116.598 164.307 116.954 157.617 115.919 154.537C115.639 153.653 115.158 152.845 114.512 152.179C113.867 151.512 113.076 151.004 112.202 150.695Z" fill="#407BFF"/>
<path opacity="0.3" d="M112.202 150.695C108.674 151.656 94.8136 165.111 92.5283 165.111C90.243 165.111 77.4173 134.268 77.4173 134.268L73.0703 137.017C73.0703 137.017 81.9713 171.544 87.3533 174.442C92.7353 177.34 116.598 164.307 116.598 164.307C116.598 164.307 116.954 157.617 115.919 154.537C115.639 153.653 115.158 152.845 114.512 152.179C113.867 151.512 113.076 151.004 112.202 150.695Z" fill="black"/>
<path d="M72.0518 136.809L77.6242 133.249L79.0649 135.294L73.0702 139.045L72.0518 136.809Z" fill="#407BFF"/>
<path d="M266.89 128.713C266.89 128.713 245.362 149.024 235.426 152.419C225.49 155.813 199.946 168.391 199.946 168.391L196.029 165.302C196.029 165.128 193.173 167.339 193.14 168.871C193.14 169.98 195.947 179.279 196.534 179.271C199.267 179.271 202.33 173.011 202.33 173.011C202.33 173.011 235.036 164.491 240.899 161.924C246.761 159.357 270.922 140.512 270.922 140.512L266.89 128.713Z" fill="#B97964"/>
<path d="M271.658 123.844C265.374 125.4 257.301 136.413 257.301 136.413L263.097 146.705L272.478 143.244L271.658 123.844Z" fill="#0553C8"/>
<path opacity="0.6" d="M272.478 143.244L264.198 146.332L263.097 146.746L257.301 136.463C257.301 136.463 265.374 125.442 271.658 123.877L272.039 132.861L272.478 143.244Z" fill="white"/>
<path d="M257.301 134.518L264.132 146.706L261.789 148.42L256.184 136.29L257.301 134.518Z" fill="#0553C8"/>
<path opacity="0.2" d="M272.479 143.244L264.199 146.333C264.961 139.643 270.442 134.302 272.04 132.861L272.479 143.244Z" fill="black"/>
<path d="M272.794 338.089L265.863 338.818L264.563 323.872L271.494 323.144L272.794 338.089Z" fill="#B97964"/>
<path d="M307.363 337.584H300.648L300.093 322.034H306.816L307.363 337.584Z" fill="#B97964"/>
<path d="M299.736 336.807H307.892C308.026 336.807 308.155 336.854 308.259 336.938C308.363 337.022 308.435 337.14 308.463 337.27L309.788 343.249C309.815 343.375 309.816 343.506 309.792 343.633C309.768 343.76 309.72 343.882 309.649 343.99C309.578 344.099 309.487 344.192 309.38 344.265C309.273 344.338 309.153 344.389 309.026 344.416C308.952 344.424 308.877 344.424 308.803 344.416C306.17 344.375 304.249 344.209 300.928 344.209C298.891 344.209 292.731 344.424 289.916 344.424C287.101 344.424 286.728 341.642 287.879 341.386C293.054 340.259 296.987 338.695 298.643 337.204C298.947 336.944 299.336 336.803 299.736 336.807Z" fill="#263238"/>
<path d="M297.501 337.982C297.044 338.02 296.588 337.9 296.21 337.642C296.09 337.543 295.997 337.415 295.939 337.27C295.881 337.126 295.86 336.969 295.878 336.814C295.875 336.721 295.899 336.629 295.947 336.549C295.996 336.47 296.067 336.406 296.152 336.367C296.897 335.986 299.066 337.319 299.298 337.468C299.326 337.483 299.349 337.506 299.364 337.534C299.379 337.562 299.384 337.594 299.381 337.626C299.376 337.658 299.362 337.688 299.34 337.712C299.317 337.735 299.288 337.752 299.257 337.758C298.682 337.898 298.093 337.973 297.501 337.982ZM296.499 336.591C296.428 336.584 296.356 336.598 296.292 336.632C296.292 336.632 296.201 336.69 296.193 336.822C296.179 336.928 296.191 337.035 296.229 337.135C296.266 337.235 296.328 337.324 296.408 337.394C297.164 337.73 298.017 337.771 298.801 337.51C298.099 337.061 297.318 336.749 296.499 336.591Z" fill="#0553C8"/>
<path d="M299.214 337.742H299.14C298.444 337.369 297.103 335.895 297.244 335.183C297.267 335.064 297.331 334.957 297.424 334.88C297.518 334.803 297.636 334.761 297.757 334.761C297.877 334.744 297.999 334.754 298.115 334.79C298.231 334.826 298.338 334.886 298.428 334.968C299.206 335.597 299.372 337.535 299.38 337.626C299.386 337.647 299.385 337.67 299.377 337.69C299.369 337.711 299.356 337.729 299.338 337.742C299.319 337.754 299.298 337.761 299.276 337.761C299.254 337.761 299.232 337.754 299.214 337.742ZM297.865 335.018H297.79C297.583 335.018 297.567 335.142 297.558 335.183C297.476 335.614 298.328 336.74 299.016 337.261C298.963 336.492 298.674 335.757 298.188 335.158C298.1 335.075 297.985 335.026 297.865 335.018Z" fill="#0553C8"/>
<path d="M265.134 336.591H273.29C273.424 336.592 273.553 336.638 273.657 336.722C273.761 336.807 273.833 336.924 273.861 337.055L275.186 343.033C275.238 343.291 275.186 343.558 275.042 343.778C274.898 343.998 274.673 344.153 274.416 344.208H274.201C271.56 344.167 269.639 344.001 266.327 344.001C264.29 344.001 258.13 344.217 255.314 344.217C252.499 344.217 252.127 341.435 253.277 341.178C258.452 340.052 262.344 338.487 264.041 337.038C264.338 336.76 264.727 336.6 265.134 336.591Z" fill="#263238"/>
<path d="M262.907 337.766C262.452 337.806 261.998 337.686 261.623 337.426C261.502 337.328 261.407 337.201 261.349 337.056C261.291 336.911 261.272 336.753 261.292 336.598C261.288 336.505 261.312 336.413 261.361 336.333C261.409 336.254 261.481 336.19 261.565 336.151C262.302 335.77 264.471 337.103 264.712 337.252C264.74 337.266 264.763 337.29 264.776 337.318C264.79 337.347 264.793 337.379 264.786 337.41C264.783 337.442 264.77 337.472 264.749 337.497C264.729 337.522 264.701 337.541 264.67 337.55C264.092 337.684 263.5 337.756 262.907 337.766ZM261.913 336.375C261.842 336.371 261.771 336.386 261.706 336.416C261.665 336.416 261.615 336.482 261.607 336.607C261.591 336.711 261.602 336.819 261.638 336.918C261.674 337.018 261.734 337.107 261.814 337.178C262.568 337.516 263.421 337.561 264.207 337.302C263.51 336.846 262.731 336.531 261.913 336.375Z" fill="#0553C8"/>
<path d="M264.629 337.535H264.555C263.859 337.154 262.518 335.68 262.659 334.968C262.679 334.85 262.741 334.743 262.834 334.666C262.927 334.59 263.044 334.55 263.164 334.554C263.285 334.535 263.408 334.543 263.526 334.577C263.643 334.612 263.751 334.672 263.843 334.753C264.621 335.39 264.778 337.32 264.787 337.411C264.789 337.44 264.784 337.47 264.771 337.496C264.758 337.522 264.737 337.544 264.712 337.56C264.683 337.56 264.654 337.552 264.629 337.535ZM263.305 334.811H263.23C263.023 334.811 263.006 334.927 262.998 334.968C262.907 335.407 263.768 336.525 264.455 337.046C264.403 336.277 264.114 335.542 263.627 334.943C263.539 334.863 263.424 334.816 263.305 334.811Z" fill="#0553C8"/>
<path opacity="0.2" d="M271.494 323.144L264.563 323.872L265.242 331.581L272.173 330.852L271.494 323.144Z" fill="black"/>
<path opacity="0.2" d="M306.816 322.043H300.093L300.383 330.058H307.106L306.816 322.043Z" fill="black"/>
<path d="M304.042 185.621H268.438C265.051 204.119 254.444 269.589 262.054 327.921L274.118 326.431C274.118 326.431 273 248.988 283.648 220.356C284.873 235.682 286.331 251.985 287.589 260.654C290.694 282.009 297.327 328.666 297.327 328.666H309.606C309.606 328.666 307.122 284.004 305.938 263.023C304.638 240.244 304.091 190.299 304.042 185.621Z" fill="#0553C8"/>
<path opacity="0.2" d="M283.623 220.306C281.867 225.325 280.535 230.482 279.641 235.723C278.647 222.086 282.63 207.621 282.63 207.621L283.623 220.306Z" fill="black"/>
<path d="M260.647 330.736L275.576 328.509L275.12 324.377L259.587 326.414L260.647 330.736Z" fill="#0553C8"/>
<path opacity="0.6" d="M260.647 330.736L275.576 328.509L275.12 324.377L259.587 326.414L260.647 330.736Z" fill="white"/>
<path d="M295.829 328.766H310.31V324.436L295.282 324.154L295.829 328.766Z" fill="#0553C8"/>
<path opacity="0.6" d="M295.829 328.766H310.31V324.436L295.282 324.154L295.829 328.766Z" fill="white"/>
<path d="M271.658 123.845C271.658 123.845 294.329 122.735 311.212 127C311.212 127 305.457 178.6 305.739 200.128L264.132 198.721C264.132 198.721 265.788 145.878 271.658 123.845Z" fill="#0553C8"/>
<path opacity="0.6" d="M311.212 127.008C311.212 127.008 310.541 133.019 309.664 141.812C308.786 150.606 307.701 162.314 306.906 173.45C306.161 183.626 305.648 193.364 305.739 200.128L264.132 198.721C264.132 198.721 265.788 145.919 271.658 123.878C271.658 123.836 294.329 122.735 311.212 127.008Z" fill="white"/>
<path d="M194.97 156.079L195.152 156.07L195.136 156.045H195.161L195.152 155.987L194.97 156.079Z" fill="#263238"/>
<path d="M265.292 146.516L264.646 146.557H218.038L195.541 155.665H195.16L199.275 198.721H243.59L268.446 188.76L265.292 146.516Z" fill="#08B29B"/>
<path opacity="0.2" d="M200.559 159.043L202.364 160.716L204.765 160.177L203.73 162.405L204.989 164.524L202.546 164.235L200.923 166.081L200.443 163.671L198.183 162.694L200.327 161.494L200.559 159.043Z" fill="white"/>
<path opacity="0.2" d="M225.796 162.586L225.631 165.045L227.552 166.569L225.167 167.173L224.314 169.475L223.006 167.388L220.547 167.289L222.128 165.401L221.466 163.033L223.743 163.952L225.796 162.586Z" fill="white"/>
<path opacity="0.2" d="M224.967 189.082L224.802 191.541L226.723 193.065L224.338 193.669L223.485 195.971L222.177 193.884L219.718 193.785L221.299 191.897L220.637 189.529L222.914 190.448L224.967 189.082Z" fill="white"/>
<path opacity="0.2" d="M214.204 182.458L214.038 184.917L215.959 186.441L213.574 187.045L212.721 189.347L211.413 187.26L208.954 187.161L210.536 185.273L209.873 182.905L212.15 183.824L214.204 182.458Z" fill="white"/>
<path opacity="0.2" d="M226.451 181.646L226.351 183.079L227.486 183.973L226.086 184.329L225.581 185.679L224.82 184.462L223.379 184.395L224.306 183.294L223.917 181.903L225.25 182.441L226.451 181.646Z" fill="white"/>
<path opacity="0.2" d="M205.751 191.582L205.651 193.014L206.786 193.909L205.386 194.265L204.881 195.614L204.119 194.397L202.679 194.331L203.606 193.23L203.217 191.839L204.55 192.377L205.751 191.582Z" fill="white"/>
<path opacity="0.2" d="M204.094 177.507L203.995 178.939L205.129 179.834L203.73 180.19L203.225 181.539L202.463 180.322L201.022 180.256L201.95 179.155L201.561 177.764L202.894 178.302L204.094 177.507Z" fill="white"/>
<path opacity="0.2" d="M234.73 156.807L234.631 158.239L235.765 159.133L234.366 159.489L233.861 160.839L233.099 159.622L231.658 159.556L232.586 158.454L232.196 157.063L233.529 157.602L234.73 156.807Z" fill="white"/>
<path opacity="0.2" d="M208.69 166.594L210.131 169.517L213.352 169.98L211.017 172.249L211.571 175.462L208.69 173.946L205.809 175.462L206.363 172.249L204.028 169.98L207.249 169.517L208.69 166.594Z" fill="white"/>
<path opacity="0.2" d="M229.944 172.531L232.884 173.914L235.699 172.274L235.285 175.504L237.711 177.673L234.515 178.277L233.207 181.258L231.642 178.402L228.404 178.079L230.632 175.711L229.944 172.531Z" fill="white"/>
<path opacity="0.2" d="M236.014 186.466L237.455 189.389L240.676 189.852L238.341 192.121L238.896 195.334L236.014 193.818L233.133 195.334L233.688 192.121L231.353 189.852L234.573 189.389L236.014 186.466Z" fill="white"/>
<path opacity="0.2" d="M244.07 157.568L245.097 159.001L246.298 158.156L245.9 160.516L246.67 162.47L245.403 162.495L244.675 164.54L244.286 162.197L243.068 161.51L244.103 160.044L244.07 157.568Z" fill="white"/>
<path opacity="0.2" d="M257.252 157.892L257.31 160.359L258.394 161.642L257.202 162.545L256.896 164.954L256.101 163.042L254.834 163.249L255.529 161.17L255.049 158.885L256.275 159.514L257.252 157.892Z" fill="white"/>
<path opacity="0.2" d="M258.394 184.445L258.452 186.913L259.537 188.196L258.345 189.099L258.047 191.508L257.252 189.595L255.977 189.811L256.68 187.724L256.2 185.439L257.426 186.068L258.394 184.445Z" fill="white"/>
<path opacity="0.2" d="M252.473 179.204L252.531 181.672L253.616 182.955L252.424 183.857L252.117 186.267L251.322 184.354L250.056 184.561L250.751 182.483L250.271 180.198L251.496 180.819L252.473 179.204Z" fill="white"/>
<path opacity="0.2" d="M258.717 176.828L258.75 178.277L259.387 179.022L258.692 179.552L258.51 180.968L258.046 179.85L257.301 179.966L257.715 178.749L257.425 177.416L258.145 177.78L258.717 176.828Z" fill="white"/>
<path opacity="0.2" d="M248.674 189.381L248.707 190.83L249.336 191.583L248.641 192.113L248.467 193.521L247.995 192.403L247.258 192.527L247.664 191.302L247.382 189.969L248.102 190.333L248.674 189.381Z" fill="white"/>
<path opacity="0.2" d="M246.985 175.545L247.018 176.994L247.656 177.739L246.96 178.269L246.778 179.677L246.315 178.559L245.569 178.683L245.975 177.466L245.694 176.125L246.414 176.497L246.985 175.545Z" fill="white"/>
<path opacity="0.2" d="M261.499 150.978L261.532 152.427L262.17 153.172L261.474 153.702L261.292 155.118L260.828 154L260.083 154.116L260.489 152.899L260.207 151.565L260.928 151.93L261.499 150.978Z" fill="white"/>
<path opacity="0.2" d="M248.698 164.068L249.609 166.801L251.29 166.859L250.23 169.417L250.702 172.547L249.137 171.404L247.746 173.284L247.837 170.013L246.504 168.043L248.135 167.165L248.698 164.068Z" fill="white"/>
<path opacity="0.2" d="M259.975 167.282L261.565 168.292L262.915 166.305L262.89 169.575L264.273 171.43L262.666 172.44L262.17 175.578L261.193 172.937L259.512 173.02L260.514 170.37L259.975 167.282Z" fill="white"/>
<path opacity="0.2" d="M263.917 180.43L264.828 183.154L266.517 183.212L265.449 185.779L265.921 188.908L264.356 187.766L262.965 189.637L263.056 186.366L261.723 184.404L263.354 183.526L263.917 180.43Z" fill="white"/>
<path opacity="0.2" d="M239.45 155.788L265.292 146.705L268.447 189.099L243.59 199.217L239.45 155.788Z" fill="black"/>
<path opacity="0.2" d="M194.97 155.829L218.038 146.556H264.961L239.45 155.506L194.97 155.829Z" fill="white"/>
<path d="M259.852 192.7L256.888 149.04H211.141L206.818 151.284L248.608 152.427L253.948 194.862L259.852 192.7Z" fill="#0553C8"/>
<path d="M240.808 146.556L219.354 155.457L221.905 198.72H215.281L210.727 155.589L234.739 146.556H240.808Z" fill="#0553C8"/>
<g opacity="0.2">
<path opacity="0.2" d="M259.852 192.7L256.888 149.04H211.141L206.818 151.284L248.608 152.427L253.948 194.862L259.852 192.7Z" fill="white"/>
<path opacity="0.2" d="M240.808 146.556L219.354 155.457L221.905 198.72H215.281L210.727 155.589L234.739 146.556H240.808Z" fill="white"/>
</g>
<path opacity="0.2" d="M256.886 149.421L248.606 152.526L253.947 195.002L259.851 192.891L256.886 149.421Z" fill="black"/>
<path opacity="0.1" d="M210.727 155.78L219.354 155.557L221.905 198.72H215.281L210.727 155.78Z" fill="black"/>
<path d="M227.104 149.942C227.104 149.942 214.684 140.553 209.286 142.904C205.022 144.759 205.643 150.315 216.432 151.731C212.383 152.095 207.589 152.741 204.724 153.834L212.863 154.794C217.747 153.463 222.732 152.53 227.767 152.004C227.975 152.922 227.975 153.876 227.767 154.794L233.339 154.314C233.339 154.314 231.683 152.749 230.359 151.598C236.742 150.961 250.413 148.915 251.787 142.904C253.584 135.038 233.886 140.279 227.104 149.942ZM209.286 144.486C210.594 142.416 226.326 150.629 226.326 150.629C218.94 151.664 207.969 146.556 209.286 144.486ZM228.52 150.282C228.52 150.282 245.37 138.209 249.444 140.9C253.518 143.591 233.613 150.77 228.529 150.282H228.52Z" fill="#0553C8"/>
<path opacity="0.1" d="M227.104 149.942C227.104 149.942 214.684 140.553 209.286 142.904C205.022 144.759 205.643 150.315 216.432 151.731C212.383 152.095 207.589 152.741 204.724 153.834L212.863 154.794C217.747 153.463 222.732 152.53 227.767 152.004C227.975 152.922 227.975 153.876 227.767 154.794L233.339 154.314C233.339 154.314 231.683 152.749 230.359 151.598C236.742 150.961 250.413 148.915 251.787 142.904C253.584 135.038 233.886 140.279 227.104 149.942ZM209.286 144.486C210.594 142.416 226.326 150.629 226.326 150.629C218.94 151.664 207.969 146.556 209.286 144.486ZM228.52 150.282C228.52 150.282 245.37 138.209 249.444 140.9C253.518 143.591 233.613 150.77 228.529 150.282H228.52Z" fill="white"/>
<path opacity="0.2" d="M309.672 141.812C308.795 150.655 307.71 162.313 306.915 173.45C288.467 152.129 301.666 136.463 301.666 136.463L309.672 141.812Z" fill="black"/>
<path d="M281.006 123.711C281.006 123.711 280.832 128.439 287.042 128.679C293.252 128.92 301.574 125.136 301.574 125.136C301.574 125.136 289.733 122.544 281.006 123.711Z" fill="#0553C8"/>
<path d="M298.329 124.714C295.058 127.686 287.043 126.585 287.043 126.585C287.043 126.585 282.075 125.219 283.094 123.654C286.041 123.165 287.466 121.791 288.062 120.035C288.381 118.942 288.482 117.797 288.36 116.665C288.314 116.037 288.231 115.412 288.111 114.794L298.047 107.458C296.714 112.294 295.125 121.203 298.329 124.714Z" fill="#B97964"/>
<path opacity="0.2" d="M295.721 112.12C295.332 118.065 290.447 119.705 288.054 120.036C288.373 118.943 288.474 117.798 288.352 116.666L295.721 112.12Z" fill="black"/>
<path d="M278.63 93.3328C278.63 93.3328 277.223 102.582 282.133 106.142C287.043 109.702 287.043 92.4717 287.043 92.4717L278.63 93.3328Z" fill="#263238"/>
<path d="M296.424 113.494C295.391 115.023 293.883 116.17 292.134 116.758C290.385 117.346 288.491 117.343 286.745 116.748C284.479 116.031 282.572 114.476 281.412 112.401C281.243 112.113 281.094 111.815 280.965 111.507C278.547 105.86 277.777 95.9655 283.755 92.2643C285.072 91.4397 286.577 90.9655 288.129 90.8867C289.68 90.8079 291.226 91.1273 292.619 91.8143C294.012 92.5013 295.206 93.5333 296.088 94.812C296.97 96.0908 297.51 97.5738 297.658 99.1202C298.394 105.728 299.14 109.578 296.424 113.494Z" fill="#B97964"/>
<path d="M288.028 102.673C288.153 103.194 287.912 103.683 287.556 103.749C287.2 103.815 286.853 103.418 286.728 102.921C286.604 102.424 286.844 101.903 287.192 101.845C287.54 101.787 287.929 102.168 288.028 102.673Z" fill="#263238"/>
<path d="M281.993 103.74C282.117 104.262 281.868 104.75 281.521 104.808C281.173 104.866 280.817 104.477 280.693 103.98C280.568 103.483 280.817 102.97 281.156 102.912C281.496 102.854 281.902 103.235 281.993 103.74Z" fill="#263238"/>
<path d="M283.956 103.674C283.596 105.403 282.999 107.075 282.184 108.642C282.596 108.84 283.046 108.947 283.504 108.954C283.961 108.961 284.415 108.869 284.833 108.683L283.956 103.674Z" fill="#A24E3F"/>
<path d="M289.56 100.437C289.504 100.453 289.445 100.455 289.389 100.441C289.332 100.428 289.28 100.401 289.237 100.362C288.953 100.083 288.607 99.8734 288.227 99.7512C287.848 99.629 287.445 99.5972 287.051 99.6583C286.97 99.6761 286.885 99.6619 286.814 99.6187C286.743 99.5755 286.692 99.5067 286.67 99.4265C286.66 99.3863 286.658 99.3445 286.665 99.3035C286.671 99.2626 286.685 99.2233 286.707 99.1879C286.729 99.1525 286.757 99.1217 286.79 99.0973C286.824 99.0729 286.862 99.0553 286.902 99.0456C287.396 98.9515 287.905 98.9776 288.386 99.1217C288.867 99.2659 289.307 99.5238 289.668 99.8736C289.697 99.9029 289.721 99.9377 289.737 99.9761C289.753 100.014 289.761 100.056 289.761 100.097C289.761 100.139 289.753 100.18 289.737 100.218C289.721 100.257 289.697 100.291 289.668 100.321C289.638 100.365 289.602 100.404 289.56 100.437Z" fill="#263238"/>
<path d="M286.165 111.333C286.949 111.318 287.717 111.114 288.406 110.74C289.095 110.365 289.684 109.83 290.123 109.181C290.144 109.142 290.151 109.096 290.14 109.053C290.129 109.01 290.102 108.973 290.065 108.949C290.028 108.927 289.985 108.919 289.943 108.929C289.901 108.938 289.865 108.963 289.841 108.998C289.423 109.592 288.872 110.08 288.233 110.423C287.593 110.767 286.882 110.957 286.157 110.977C286.114 110.98 286.074 110.998 286.045 111.029C286.015 111.06 285.999 111.1 285.999 111.143C285.998 111.164 286.001 111.186 286.009 111.206C286.016 111.226 286.028 111.244 286.042 111.26C286.057 111.275 286.075 111.287 286.094 111.296C286.114 111.304 286.135 111.309 286.157 111.309L286.165 111.333Z" fill="#263238"/>
<path d="M279.036 102.101C278.977 102.121 278.913 102.121 278.854 102.101C278.814 102.09 278.776 102.072 278.743 102.047C278.71 102.021 278.682 101.99 278.661 101.953C278.64 101.917 278.627 101.877 278.622 101.836C278.616 101.794 278.62 101.752 278.631 101.712C278.761 101.222 279.007 100.77 279.349 100.395C279.69 100.021 280.117 99.7338 280.593 99.5591C280.673 99.5361 280.759 99.5458 280.832 99.5862C280.905 99.6266 280.959 99.6942 280.982 99.7744C281.006 99.8534 280.997 99.9385 280.958 100.011C280.92 100.084 280.854 100.139 280.775 100.164C280.404 100.314 280.074 100.548 279.809 100.849C279.545 101.149 279.354 101.507 279.252 101.894C279.233 101.942 279.204 101.985 279.167 102.021C279.13 102.057 279.085 102.084 279.036 102.101Z" fill="#263238"/>
<path d="M291.456 91.8173V94.7733C291.977 94.9485 292.412 95.3132 292.676 95.795C292.94 96.2767 293.013 96.8402 292.88 97.3732C292.234 99.9317 294.089 103.558 296.151 104.825C296.151 104.825 296.085 103.757 296.979 103.898C297.873 104.039 298.337 109.594 296.913 112.443C296.913 112.443 299.256 109.735 300.042 103.757C300.763 98.2343 300.39 93.7383 299.041 91.8008L291.456 91.8173Z" fill="#263238"/>
<path d="M301.509 102.44C299.997 100.202 297.98 98.35 295.622 97.0336C291.655 94.7566 285.561 93.1751 276.967 95.8661C276.967 95.8661 280.072 80.8379 293.593 85.9301L293.924 86.0626C307.031 91.2376 301.509 102.44 301.509 102.44Z" fill="#0553C8"/>
<path opacity="0.2" d="M295.596 97.0336C291.63 94.7566 285.536 93.1751 276.941 95.8661C276.941 95.8661 280.046 80.8379 293.568 85.9301L293.899 86.0626C294.701 86.4845 295.393 87.0885 295.919 87.8262C297.145 89.7141 296.267 94.3923 295.596 97.0336Z" fill="white"/>
<path d="M278.449 96.6691C276.636 97.0334 270.657 92.852 273.034 90.9559C274.946 89.4324 280.312 88.9853 284.526 89.954C292.335 91.7591 295.738 96.9755 295.738 96.9755C295.738 96.9755 285.76 93.7711 278.449 96.6691Z" fill="#0553C8"/>
<path opacity="0.2" d="M278.449 96.6691C276.636 97.0334 270.657 92.852 273.034 90.9559C274.946 89.4324 280.312 88.9853 284.526 89.954C292.335 91.7591 295.738 96.9755 295.738 96.9755C295.738 96.9755 285.76 93.7711 278.449 96.6691Z" fill="black"/>
<path d="M301.442 104.063C301.208 104.859 300.819 105.6 300.297 106.245C299.776 106.89 299.132 107.426 298.404 107.822C296.45 108.874 294.992 107.243 295.092 105.14C295.224 103.277 296.383 100.428 298.553 100.263C300.722 100.097 301.997 102.084 301.442 104.063Z" fill="#B97964"/>
<path d="M273.084 143.244L270.865 158.728L275.005 158.645L274.466 165.716L270.459 165.608L269.217 168.473L276.263 169.169L280.9 143.981L273.084 143.244ZM274.069 155.349L276.106 147.127L277.555 147.243L276.139 155.308L274.069 155.349Z" fill="#0553C8"/>
<path d="M284.004 144.072L281.777 159.365L285.917 159.283L285.387 166.544H281.38L280.138 169.467L287.184 170.179L291.821 144.909L284.004 144.072ZM285.023 155.987L287.06 147.947H288.509L287.093 155.913L285.023 155.987Z" fill="#0553C8"/>
<path d="M311.841 145.728C311.841 145.728 304.762 165.26 302.667 169.359C300.572 173.457 259.338 177.498 259.338 177.498C259.338 177.498 250.23 183.393 248.574 183.12C246.918 182.847 243.126 175.113 244.782 174.285C246.438 173.457 251.472 167.761 254.196 167.852C256.92 167.943 259.305 170.973 259.305 170.973C259.305 170.973 293.253 161.244 295.083 160.524C296.391 160.002 301.756 141.091 301.756 141.091L311.841 145.728Z" fill="#B97964"/>
<path d="M311.212 126.999C319.674 130.559 311.212 154.894 311.212 154.894L298.328 149.413C298.328 149.413 302.551 123.372 311.212 126.999Z" fill="#0553C8"/>
<path opacity="0.6" d="M311.212 126.999C319.674 130.559 311.212 154.894 311.212 154.894L298.328 149.413C298.328 149.413 302.551 123.372 311.212 126.999Z" fill="white"/>
<path d="M297.666 147.459L312.777 154L311.22 157.287L296.838 150.771L297.666 147.459Z" fill="#0553C8"/>
<path d="M181.381 314.64L180.553 312.446C169.4 312.959 168.133 308.761 168.034 307.42C167.827 304.936 170.062 302.684 173.002 302.386C177.084 301.963 179.808 305.449 181.199 307.867C183.302 305.333 187.376 303.056 190.448 303.056C191.506 302.997 192.551 303.319 193.391 303.965C194.231 304.611 194.812 305.537 195.027 306.575C195.214 307.21 195.237 307.883 195.092 308.529C194.947 309.175 194.639 309.774 194.199 310.268C191.607 313.191 184.13 312.669 181.878 312.438L181.381 314.64ZM182.706 310.012C186.092 310.31 190.986 310.177 192.402 308.62C192.57 308.426 192.683 308.189 192.726 307.935C192.77 307.681 192.744 307.42 192.65 307.18C192.576 306.675 192.308 306.22 191.903 305.91C191.497 305.601 190.987 305.462 190.481 305.524C187.765 305.532 183.94 308.016 182.706 310.003V310.012ZM173.664 304.837H173.275C171.619 305.01 170.427 306.219 170.51 307.196C170.592 308.173 172.654 310.152 179.551 309.978C178.698 308.273 176.628 304.828 173.664 304.828V304.837Z" fill="#263238"/>
<path d="M205.343 311.188H156.938V344.44H205.343V311.188Z" fill="#F20000"/>
<path opacity="0.2" d="M205.343 322.68H156.938V344.439H205.343V322.68Z" fill="black"/>
<path opacity="0.2" d="M176.173 311.188H156.938V344.44H176.173V311.188Z" fill="black"/>
<g opacity="0.3">
<path opacity="0.3" d="M176.156 337.203V339.422L178.201 344.448H179.104L176.156 337.203Z" fill="#0553C8"/>
<path opacity="0.3" d="M176.156 322.953V325.156L183.997 344.448H184.9L176.156 322.953Z" fill="#0553C8"/>
<path opacity="0.3" d="M190.695 344.448L177.166 311.171H176.271L189.793 344.448H190.695Z" fill="#0553C8"/>
<path opacity="0.3" d="M196.492 344.448L182.963 311.171H182.068L195.59 344.448H196.492Z" fill="#0553C8"/>
<path opacity="0.3" d="M202.288 344.448L188.758 311.171H187.864L201.386 344.448H202.288Z" fill="#0553C8"/>
<path opacity="0.3" d="M193.652 311.171L205.344 340.722V338.503L194.547 311.171H193.652Z" fill="#0553C8"/>
<path opacity="0.3" d="M199.448 311.171L205.344 326.423V324.204L200.342 311.171H199.448Z" fill="#0553C8"/>
</g>
<g opacity="0.2">
<path opacity="0.2" d="M156.972 323.84V326.042L161.161 344.449H161.666L156.972 323.84Z" fill="#0553C8"/>
<path opacity="0.2" d="M157.336 311.171H156.972V311.784L164.399 344.448H164.904L157.336 311.171Z" fill="#0553C8"/>
<path opacity="0.2" d="M168.15 344.448L160.582 311.171H160.077L167.645 344.448H168.15Z" fill="#0553C8"/>
<path opacity="0.2" d="M171.395 344.448L163.819 311.171H163.322L170.882 344.448H171.395Z" fill="#0553C8"/>
<path opacity="0.2" d="M174.633 344.448L167.065 311.171H166.568L174.128 344.448H174.633Z" fill="#0553C8"/>
<path opacity="0.2" d="M176.156 337.65L170.302 311.171H169.806L176.156 339.869V337.65Z" fill="#0553C8"/>
<path opacity="0.2" d="M176.157 323.326L173.549 311.171H173.052L176.157 325.545V323.326Z" fill="#0553C8"/>
</g>
<path d="M193.13 311.188H189.197V344.44H193.13V311.188Z" fill="#263238"/>
<path d="M166.626 311.188H163.736V344.44H166.626V311.188Z" fill="#263238"/>
<path d="M212.522 322.861C210.998 323.019 205.898 323.4 204.184 321.421C203.889 321.139 203.68 320.779 203.584 320.383C203.487 319.987 203.505 319.571 203.637 319.185C204.018 317.67 205.144 317.123 206.734 317.123C209.124 317.233 211.372 318.288 212.985 320.055C213.929 318.399 215.767 315.848 218.533 316.13C220.545 316.329 222.06 317.786 221.919 319.483C221.837 320.394 220.992 323.209 213.449 322.861L212.886 324.327L212.522 322.861ZM206.726 318.779C205.898 318.779 205.45 318.846 205.252 319.607C205.119 320.146 205.252 320.22 205.426 320.394C206.361 321.446 209.69 321.735 211.983 321.537C211.345 320.743 210.55 320.089 209.648 319.615C208.747 319.141 207.758 318.856 206.742 318.779H206.726ZM214.12 321.172C218.781 321.297 220.172 320.03 220.23 319.293C220.288 318.556 219.502 317.811 218.359 317.703H218.102C216.107 317.687 214.707 320.013 214.136 321.172H214.12Z" fill="#08B29B"/>
<path d="M196.683 344.448H229.431V321.951H196.683V344.448Z" fill="black"/>
<path opacity="0.6" d="M196.683 344.448H229.431V321.951H196.683V344.448Z" fill="#0553C8"/>
<path opacity="0.1" d="M196.683 344.448H229.431V329.726H196.683V344.448Z" fill="black"/>
<path opacity="0.2" d="M216.423 344.448H229.431V321.951H216.423V344.448Z" fill="#0553C8"/>
<g opacity="0.4">
<path opacity="0.4" d="M197.478 324.163C197.697 324.163 197.875 323.896 197.875 323.567C197.875 323.238 197.697 322.971 197.478 322.971C197.258 322.971 197.08 323.238 197.08 323.567C197.08 323.896 197.258 324.163 197.478 324.163Z" fill="#0553C8"/>
<path opacity="0.4" d="M200.69 323.566C200.69 323.898 200.508 324.163 200.293 324.163C200.078 324.163 199.896 323.898 199.896 323.566C199.896 323.235 200.069 322.962 200.293 322.962C200.517 322.962 200.69 323.235 200.69 323.566Z" fill="#0553C8"/>
<path opacity="0.4" d="M203.108 324.163C203.328 324.163 203.506 323.896 203.506 323.567C203.506 323.238 203.328 322.971 203.108 322.971C202.889 322.971 202.711 323.238 202.711 323.567C202.711 323.896 202.889 324.163 203.108 324.163Z" fill="#0553C8"/>
<path opacity="0.4" d="M206.312 323.566C206.312 323.898 206.138 324.163 205.923 324.163C205.708 324.163 205.525 323.898 205.525 323.566C205.525 323.235 205.699 322.962 205.923 322.962C206.146 322.962 206.312 323.235 206.312 323.566Z" fill="#0553C8"/>
<path opacity="0.4" d="M208.73 324.163C208.95 324.163 209.128 323.896 209.128 323.567C209.128 323.238 208.95 322.971 208.73 322.971C208.511 322.971 208.333 323.238 208.333 323.567C208.333 323.896 208.511 324.163 208.73 324.163Z" fill="#0553C8"/>
<path opacity="0.4" d="M211.968 323.566C211.968 323.898 211.794 324.163 211.57 324.163C211.347 324.163 211.173 323.898 211.173 323.566C211.173 323.235 211.355 322.962 211.57 322.962C211.786 322.962 211.968 323.235 211.968 323.566Z" fill="#0553C8"/>
<path opacity="0.4" d="M214.36 324.163C214.58 324.163 214.758 323.896 214.758 323.567C214.758 323.238 214.58 322.971 214.36 322.971C214.141 322.971 213.963 323.238 213.963 323.567C213.963 323.896 214.141 324.163 214.36 324.163Z" fill="#0553C8"/>
<path opacity="0.4" d="M199.282 325.76C199.282 326.091 199.1 326.356 198.885 326.356C198.669 326.356 198.487 326.091 198.487 325.76C198.487 325.429 198.669 325.164 198.885 325.164C199.1 325.164 199.282 325.404 199.282 325.76Z" fill="#0553C8"/>
<path opacity="0.4" d="M202.089 325.76C202.089 326.091 201.915 326.356 201.7 326.356C201.485 326.356 201.303 326.091 201.303 325.76C201.303 325.429 201.477 325.164 201.7 325.164C201.924 325.164 202.089 325.404 202.089 325.76Z" fill="#0553C8"/>
<path opacity="0.4" d="M204.905 325.76C204.905 326.091 204.731 326.356 204.516 326.356C204.3 326.356 204.118 326.091 204.118 325.76C204.118 325.429 204.292 325.164 204.516 325.164C204.739 325.164 204.905 325.404 204.905 325.76Z" fill="#0553C8"/>
<path opacity="0.4" d="M207.72 325.76C207.72 326.091 207.546 326.356 207.323 326.356C207.099 326.356 206.934 326.091 206.934 325.76C206.934 325.429 207.107 325.164 207.323 325.164C207.538 325.164 207.72 325.404 207.72 325.76Z" fill="#0553C8"/>
<path opacity="0.4" d="M210.536 325.76C210.536 326.091 210.362 326.356 210.138 326.356C209.915 326.356 209.749 326.091 209.749 325.76C209.749 325.429 209.923 325.164 210.138 325.164C210.354 325.164 210.536 325.404 210.536 325.76Z" fill="#0553C8"/>
<path opacity="0.4" d="M213.351 325.76C213.351 326.091 213.168 326.356 212.953 326.356C212.738 326.356 212.556 326.091 212.556 325.76C212.556 325.429 212.738 325.164 212.953 325.164C213.168 325.164 213.351 325.404 213.351 325.76Z" fill="#0553C8"/>
<path opacity="0.4" d="M216.166 325.76C216.166 326.091 215.984 326.356 215.769 326.356C215.553 326.356 215.371 326.091 215.371 325.76C215.371 325.429 215.553 325.164 215.769 325.164C215.984 325.164 216.166 325.404 216.166 325.76Z" fill="#0553C8"/>
<path opacity="0.4" d="M197.478 328.981C197.697 328.981 197.875 328.714 197.875 328.385C197.875 328.056 197.697 327.789 197.478 327.789C197.258 327.789 197.08 328.056 197.08 328.385C197.08 328.714 197.258 328.981 197.478 328.981Z" fill="#0553C8"/>
<path opacity="0.4" d="M200.69 328.386C200.69 328.717 200.508 328.982 200.293 328.982C200.078 328.982 199.896 328.717 199.896 328.386C199.896 328.054 200.069 327.781 200.293 327.781C200.517 327.781 200.69 328.054 200.69 328.386Z" fill="#0553C8"/>
<path opacity="0.4" d="M203.108 328.981C203.328 328.981 203.506 328.714 203.506 328.385C203.506 328.056 203.328 327.789 203.108 327.789C202.889 327.789 202.711 328.056 202.711 328.385C202.711 328.714 202.889 328.981 203.108 328.981Z" fill="#0553C8"/>
<path opacity="0.4" d="M206.312 328.386C206.312 328.717 206.138 328.982 205.923 328.982C205.708 328.982 205.525 328.717 205.525 328.386C205.525 328.054 205.699 327.781 205.923 327.781C206.146 327.781 206.312 328.054 206.312 328.386Z" fill="#0553C8"/>
<path opacity="0.4" d="M208.73 328.981C208.95 328.981 209.128 328.714 209.128 328.385C209.128 328.056 208.95 327.789 208.73 327.789C208.511 327.789 208.333 328.056 208.333 328.385C208.333 328.714 208.511 328.981 208.73 328.981Z" fill="#0553C8"/>
<path opacity="0.4" d="M211.968 328.386C211.968 328.717 211.794 328.982 211.57 328.982C211.347 328.982 211.173 328.717 211.173 328.386C211.173 328.054 211.355 327.781 211.57 327.781C211.786 327.781 211.968 328.054 211.968 328.386Z" fill="#0553C8"/>
<path opacity="0.4" d="M214.36 328.981C214.58 328.981 214.758 328.714 214.758 328.385C214.758 328.056 214.58 327.789 214.36 327.789C214.141 327.789 213.963 328.056 213.963 328.385C213.963 328.714 214.141 328.981 214.36 328.981Z" fill="#0553C8"/>
<path opacity="0.4" d="M199.282 330.58C199.282 330.911 199.1 331.176 198.885 331.176C198.669 331.176 198.487 330.911 198.487 330.58C198.487 330.248 198.669 329.983 198.885 329.983C199.1 329.983 199.282 330.248 199.282 330.58Z" fill="#0553C8"/>
<path opacity="0.4" d="M202.089 330.58C202.089 330.911 201.915 331.176 201.7 331.176C201.485 331.176 201.303 330.911 201.303 330.58C201.303 330.248 201.477 329.983 201.7 329.983C201.924 329.983 202.089 330.248 202.089 330.58Z" fill="#0553C8"/>
<path opacity="0.4" d="M204.905 330.58C204.905 330.911 204.731 331.176 204.516 331.176C204.3 331.176 204.118 330.911 204.118 330.58C204.118 330.248 204.292 329.983 204.516 329.983C204.739 329.983 204.905 330.248 204.905 330.58Z" fill="#0553C8"/>
<path opacity="0.4" d="M207.72 330.58C207.72 330.911 207.546 331.176 207.323 331.176C207.099 331.176 206.934 330.911 206.934 330.58C206.934 330.248 207.107 329.983 207.323 329.983C207.538 329.983 207.72 330.248 207.72 330.58Z" fill="#0553C8"/>
<path opacity="0.4" d="M210.536 330.58C210.536 330.911 210.362 331.176 210.138 331.176C209.915 331.176 209.749 330.911 209.749 330.58C209.749 330.248 209.923 329.983 210.138 329.983C210.354 329.983 210.536 330.248 210.536 330.58Z" fill="#0553C8"/>
<path opacity="0.4" d="M213.351 330.58C213.351 330.911 213.168 331.176 212.953 331.176C212.738 331.176 212.556 330.911 212.556 330.58C212.556 330.248 212.738 329.983 212.953 329.983C213.168 329.983 213.351 330.248 213.351 330.58Z" fill="#0553C8"/>
<path opacity="0.4" d="M216.166 330.58C216.166 330.911 215.984 331.176 215.769 331.176C215.553 331.176 215.371 330.911 215.371 330.58C215.371 330.248 215.553 329.983 215.769 329.983C215.984 329.983 216.166 330.248 216.166 330.58Z" fill="#0553C8"/>
<path opacity="0.4" d="M197.478 333.801C197.697 333.801 197.875 333.534 197.875 333.205C197.875 332.875 197.697 332.608 197.478 332.608C197.258 332.608 197.08 332.875 197.08 333.205C197.08 333.534 197.258 333.801 197.478 333.801Z" fill="#0553C8"/>
<path opacity="0.4" d="M200.69 333.204C200.69 333.535 200.508 333.8 200.293 333.8C200.078 333.8 199.896 333.535 199.896 333.204C199.896 332.873 200.069 332.6 200.293 332.6C200.517 332.6 200.69 332.856 200.69 333.204Z" fill="#0553C8"/>
<path opacity="0.4" d="M203.108 333.801C203.328 333.801 203.506 333.534 203.506 333.205C203.506 332.875 203.328 332.608 203.108 332.608C202.889 332.608 202.711 332.875 202.711 333.205C202.711 333.534 202.889 333.801 203.108 333.801Z" fill="#0553C8"/>
<path opacity="0.4" d="M206.312 333.204C206.312 333.535 206.138 333.8 205.923 333.8C205.708 333.8 205.525 333.535 205.525 333.204C205.525 332.873 205.699 332.6 205.923 332.6C206.146 332.6 206.312 332.856 206.312 333.204Z" fill="#0553C8"/>
<path opacity="0.4" d="M208.73 333.801C208.95 333.801 209.128 333.534 209.128 333.205C209.128 332.875 208.95 332.608 208.73 332.608C208.511 332.608 208.333 332.875 208.333 333.205C208.333 333.534 208.511 333.801 208.73 333.801Z" fill="#0553C8"/>
<path opacity="0.4" d="M211.968 333.204C211.968 333.535 211.794 333.8 211.57 333.8C211.347 333.8 211.173 333.535 211.173 333.204C211.173 332.873 211.355 332.6 211.57 332.6C211.786 332.6 211.968 332.856 211.968 333.204Z" fill="#0553C8"/>
<path opacity="0.4" d="M214.36 333.801C214.58 333.801 214.758 333.534 214.758 333.205C214.758 332.875 214.58 332.608 214.36 332.608C214.141 332.608 213.963 332.875 213.963 333.205C213.963 333.534 214.141 333.801 214.36 333.801Z" fill="#0553C8"/>
<path opacity="0.4" d="M199.282 335.399C199.282 335.73 199.1 335.995 198.885 335.995C198.669 335.995 198.487 335.73 198.487 335.399C198.487 335.068 198.669 334.803 198.885 334.803C199.1 334.803 199.282 335.068 199.282 335.399Z" fill="#0553C8"/>
<path opacity="0.4" d="M202.089 335.399C202.089 335.73 201.915 335.995 201.7 335.995C201.485 335.995 201.303 335.73 201.303 335.399C201.303 335.068 201.477 334.803 201.7 334.803C201.924 334.803 202.089 335.068 202.089 335.399Z" fill="#0553C8"/>
<path opacity="0.4" d="M204.905 335.399C204.905 335.73 204.731 335.995 204.516 335.995C204.3 335.995 204.118 335.73 204.118 335.399C204.118 335.068 204.292 334.803 204.516 334.803C204.739 334.803 204.905 335.068 204.905 335.399Z" fill="#0553C8"/>
<path opacity="0.4" d="M207.72 335.399C207.72 335.73 207.546 335.995 207.323 335.995C207.099 335.995 206.934 335.73 206.934 335.399C206.934 335.068 207.107 334.803 207.323 334.803C207.538 334.803 207.72 335.068 207.72 335.399Z" fill="#0553C8"/>
<path opacity="0.4" d="M210.536 335.399C210.536 335.73 210.362 335.995 210.138 335.995C209.915 335.995 209.749 335.73 209.749 335.399C209.749 335.068 209.923 334.803 210.138 334.803C210.354 334.803 210.536 335.068 210.536 335.399Z" fill="#0553C8"/>
<path opacity="0.4" d="M213.351 335.399C213.351 335.73 213.168 335.995 212.953 335.995C212.738 335.995 212.556 335.73 212.556 335.399C212.556 335.068 212.738 334.803 212.953 334.803C213.168 334.803 213.351 335.068 213.351 335.399Z" fill="#0553C8"/>
<path opacity="0.4" d="M216.166 335.399C216.166 335.73 215.984 335.995 215.769 335.995C215.553 335.995 215.371 335.73 215.371 335.399C215.371 335.068 215.553 334.803 215.769 334.803C215.984 334.803 216.166 335.068 216.166 335.399Z" fill="#0553C8"/>
<path opacity="0.4" d="M197.478 338.619C197.697 338.619 197.875 338.352 197.875 338.023C197.875 337.694 197.697 337.427 197.478 337.427C197.258 337.427 197.08 337.694 197.08 338.023C197.08 338.352 197.258 338.619 197.478 338.619Z" fill="#0553C8"/>
<path opacity="0.4" d="M200.69 338.023C200.69 338.355 200.508 338.62 200.293 338.62C200.078 338.62 199.896 338.355 199.896 338.023C199.896 337.692 200.069 337.419 200.293 337.419C200.517 337.419 200.69 337.692 200.69 338.023Z" fill="#0553C8"/>
<path opacity="0.4" d="M203.108 338.619C203.328 338.619 203.506 338.352 203.506 338.023C203.506 337.694 203.328 337.427 203.108 337.427C202.889 337.427 202.711 337.694 202.711 338.023C202.711 338.352 202.889 338.619 203.108 338.619Z" fill="#0553C8"/>
<path opacity="0.4" d="M206.312 338.023C206.312 338.355 206.138 338.62 205.923 338.62C205.708 338.62 205.525 338.355 205.525 338.023C205.525 337.692 205.699 337.419 205.923 337.419C206.146 337.419 206.312 337.692 206.312 338.023Z" fill="#0553C8"/>
<path opacity="0.4" d="M208.73 338.619C208.95 338.619 209.128 338.352 209.128 338.023C209.128 337.694 208.95 337.427 208.73 337.427C208.511 337.427 208.333 337.694 208.333 338.023C208.333 338.352 208.511 338.619 208.73 338.619Z" fill="#0553C8"/>
<path opacity="0.4" d="M211.968 338.023C211.968 338.355 211.794 338.62 211.57 338.62C211.347 338.62 211.173 338.355 211.173 338.023C211.173 337.692 211.355 337.419 211.57 337.419C211.786 337.419 211.968 337.692 211.968 338.023Z" fill="#0553C8"/>
<path opacity="0.4" d="M214.36 338.619C214.58 338.619 214.758 338.352 214.758 338.023C214.758 337.694 214.58 337.427 214.36 337.427C214.141 337.427 213.963 337.694 213.963 338.023C213.963 338.352 214.141 338.619 214.36 338.619Z" fill="#0553C8"/>
<path opacity="0.4" d="M199.282 340.217C199.282 340.548 199.1 340.813 198.885 340.813C198.669 340.813 198.487 340.548 198.487 340.217C198.487 339.886 198.669 339.621 198.885 339.621C199.1 339.621 199.282 339.886 199.282 340.217Z" fill="#0553C8"/>
<path opacity="0.4" d="M202.089 340.217C202.089 340.548 201.915 340.813 201.7 340.813C201.485 340.813 201.303 340.548 201.303 340.217C201.303 339.886 201.477 339.621 201.7 339.621C201.924 339.621 202.089 339.886 202.089 340.217Z" fill="#0553C8"/>
<path opacity="0.4" d="M204.905 340.217C204.905 340.548 204.731 340.813 204.516 340.813C204.3 340.813 204.118 340.548 204.118 340.217C204.118 339.886 204.292 339.621 204.516 339.621C204.739 339.621 204.905 339.886 204.905 340.217Z" fill="#0553C8"/>
<path opacity="0.4" d="M207.72 340.217C207.72 340.548 207.546 340.813 207.323 340.813C207.099 340.813 206.934 340.548 206.934 340.217C206.934 339.886 207.107 339.621 207.323 339.621C207.538 339.621 207.72 339.886 207.72 340.217Z" fill="#0553C8"/>
<path opacity="0.4" d="M210.536 340.217C210.536 340.548 210.362 340.813 210.138 340.813C209.915 340.813 209.749 340.548 209.749 340.217C209.749 339.886 209.923 339.621 210.138 339.621C210.354 339.621 210.536 339.886 210.536 340.217Z" fill="#0553C8"/>
<path opacity="0.4" d="M213.351 340.217C213.351 340.548 213.168 340.813 212.953 340.813C212.738 340.813 212.556 340.548 212.556 340.217C212.556 339.886 212.738 339.621 212.953 339.621C213.168 339.621 213.351 339.886 213.351 340.217Z" fill="#0553C8"/>
<path opacity="0.4" d="M216.166 340.217C216.166 340.548 215.984 340.813 215.769 340.813C215.553 340.813 215.371 340.548 215.371 340.217C215.371 339.886 215.553 339.621 215.769 339.621C215.984 339.621 216.166 339.886 216.166 340.217Z" fill="#0553C8"/>
<path opacity="0.4" d="M197.478 343.438C197.697 343.438 197.875 343.171 197.875 342.842C197.875 342.513 197.697 342.246 197.478 342.246C197.258 342.246 197.08 342.513 197.08 342.842C197.08 343.171 197.258 343.438 197.478 343.438Z" fill="#0553C8"/>
<path opacity="0.4" d="M200.69 342.843C200.69 343.174 200.508 343.439 200.293 343.439C200.078 343.439 199.896 343.174 199.896 342.843C199.896 342.512 200.069 342.238 200.293 342.238C200.517 342.238 200.69 342.512 200.69 342.843Z" fill="#0553C8"/>
<path opacity="0.4" d="M203.108 343.438C203.328 343.438 203.506 343.171 203.506 342.842C203.506 342.513 203.328 342.246 203.108 342.246C202.889 342.246 202.711 342.513 202.711 342.842C202.711 343.171 202.889 343.438 203.108 343.438Z" fill="#0553C8"/>
<path opacity="0.4" d="M206.312 342.843C206.312 343.174 206.138 343.439 205.923 343.439C205.708 343.439 205.525 343.174 205.525 342.843C205.525 342.512 205.699 342.238 205.923 342.238C206.146 342.238 206.312 342.512 206.312 342.843Z" fill="#0553C8"/>
<path opacity="0.4" d="M208.73 343.438C208.95 343.438 209.128 343.171 209.128 342.842C209.128 342.513 208.95 342.246 208.73 342.246C208.511 342.246 208.333 342.513 208.333 342.842C208.333 343.171 208.511 343.438 208.73 343.438Z" fill="#0553C8"/>
<path opacity="0.4" d="M211.968 342.843C211.968 343.174 211.794 343.439 211.57 343.439C211.347 343.439 211.173 343.174 211.173 342.843C211.173 342.512 211.355 342.238 211.57 342.238C211.786 342.238 211.968 342.512 211.968 342.843Z" fill="#0553C8"/>
<path opacity="0.4" d="M214.36 343.438C214.58 343.438 214.758 343.171 214.758 342.842C214.758 342.513 214.58 342.246 214.36 342.246C214.141 342.246 213.963 342.513 213.963 342.842C213.963 343.171 214.141 343.438 214.36 343.438Z" fill="#0553C8"/>
</g>
<g opacity="0.6">
<path opacity="0.6" d="M217.259 324.163C217.419 324.163 217.548 323.896 217.548 323.567C217.548 323.238 217.419 322.971 217.259 322.971C217.099 322.971 216.969 323.238 216.969 323.567C216.969 323.896 217.099 324.163 217.259 324.163Z" fill="#0553C8"/>
<path opacity="0.6" d="M219.338 324.163C219.498 324.163 219.627 323.896 219.627 323.567C219.627 323.238 219.498 322.971 219.338 322.971C219.178 322.971 219.048 323.238 219.048 323.567C219.048 323.896 219.178 324.163 219.338 324.163Z" fill="#0553C8"/>
<path opacity="0.6" d="M221.407 324.163C221.567 324.163 221.697 323.896 221.697 323.567C221.697 323.238 221.567 322.971 221.407 322.971C221.247 322.971 221.117 323.238 221.117 323.567C221.117 323.896 221.247 324.163 221.407 324.163Z" fill="#0553C8"/>
<path opacity="0.6" d="M223.485 324.163C223.645 324.163 223.775 323.896 223.775 323.567C223.775 323.238 223.645 322.971 223.485 322.971C223.325 322.971 223.195 323.238 223.195 323.567C223.195 323.896 223.325 324.163 223.485 324.163Z" fill="#0553C8"/>
<path opacity="0.6" d="M225.555 324.163C225.716 324.163 225.845 323.896 225.845 323.567C225.845 323.238 225.716 322.971 225.555 322.971C225.395 322.971 225.266 323.238 225.266 323.567C225.266 323.896 225.395 324.163 225.555 324.163Z" fill="#0553C8"/>
<path opacity="0.6" d="M227.923 323.566C227.923 323.898 227.791 324.163 227.634 324.163C227.476 324.163 227.344 323.898 227.344 323.566C227.344 323.235 227.476 322.962 227.634 322.962C227.791 322.962 227.923 323.235 227.923 323.566Z" fill="#0553C8"/>
<path opacity="0.6" d="M218.294 326.356C218.454 326.356 218.583 326.089 218.583 325.76C218.583 325.431 218.454 325.164 218.294 325.164C218.134 325.164 218.004 325.431 218.004 325.76C218.004 326.089 218.134 326.356 218.294 326.356Z" fill="#0553C8"/>
<path opacity="0.6" d="M220.372 326.356C220.532 326.356 220.662 326.089 220.662 325.76C220.662 325.431 220.532 325.164 220.372 325.164C220.212 325.164 220.082 325.431 220.082 325.76C220.082 326.089 220.212 326.356 220.372 326.356Z" fill="#0553C8"/>
<path opacity="0.6" d="M222.442 326.356C222.602 326.356 222.732 326.089 222.732 325.76C222.732 325.431 222.602 325.164 222.442 325.164C222.282 325.164 222.152 325.431 222.152 325.76C222.152 326.089 222.282 326.356 222.442 326.356Z" fill="#0553C8"/>
<path opacity="0.6" d="M224.52 326.356C224.68 326.356 224.81 326.089 224.81 325.76C224.81 325.431 224.68 325.164 224.52 325.164C224.36 325.164 224.23 325.431 224.23 325.76C224.23 326.089 224.36 326.356 224.52 326.356Z" fill="#0553C8"/>
<path opacity="0.6" d="M226.598 326.356C226.758 326.356 226.888 326.089 226.888 325.76C226.888 325.431 226.758 325.164 226.598 325.164C226.438 325.164 226.309 325.431 226.309 325.76C226.309 326.089 226.438 326.356 226.598 326.356Z" fill="#0553C8"/>
<path opacity="0.6" d="M228.669 326.356C228.829 326.356 228.958 326.089 228.958 325.76C228.958 325.431 228.829 325.164 228.669 325.164C228.509 325.164 228.379 325.431 228.379 325.76C228.379 326.089 228.509 326.356 228.669 326.356Z" fill="#0553C8"/>
<path opacity="0.6" d="M217.259 328.981C217.419 328.981 217.548 328.714 217.548 328.385C217.548 328.056 217.419 327.789 217.259 327.789C217.099 327.789 216.969 328.056 216.969 328.385C216.969 328.714 217.099 328.981 217.259 328.981Z" fill="#0553C8"/>
<path opacity="0.6" d="M219.338 328.981C219.498 328.981 219.627 328.714 219.627 328.385C219.627 328.056 219.498 327.789 219.338 327.789C219.178 327.789 219.048 328.056 219.048 328.385C219.048 328.714 219.178 328.981 219.338 328.981Z" fill="#0553C8"/>
<path opacity="0.6" d="M221.407 328.981C221.567 328.981 221.697 328.714 221.697 328.385C221.697 328.056 221.567 327.789 221.407 327.789C221.247 327.789 221.117 328.056 221.117 328.385C221.117 328.714 221.247 328.981 221.407 328.981Z" fill="#0553C8"/>
<path opacity="0.6" d="M223.485 328.981C223.645 328.981 223.775 328.714 223.775 328.385C223.775 328.056 223.645 327.789 223.485 327.789C223.325 327.789 223.195 328.056 223.195 328.385C223.195 328.714 223.325 328.981 223.485 328.981Z" fill="#0553C8"/>
<path opacity="0.6" d="M225.555 328.981C225.716 328.981 225.845 328.714 225.845 328.385C225.845 328.056 225.716 327.789 225.555 327.789C225.395 327.789 225.266 328.056 225.266 328.385C225.266 328.714 225.395 328.981 225.555 328.981Z" fill="#0553C8"/>
<path opacity="0.6" d="M227.923 328.386C227.923 328.717 227.791 328.982 227.634 328.982C227.476 328.982 227.344 328.717 227.344 328.386C227.344 328.054 227.476 327.781 227.634 327.781C227.791 327.781 227.923 328.054 227.923 328.386Z" fill="#0553C8"/>
<path opacity="0.6" d="M218.294 331.176C218.454 331.176 218.583 330.909 218.583 330.58C218.583 330.25 218.454 329.983 218.294 329.983C218.134 329.983 218.004 330.25 218.004 330.58C218.004 330.909 218.134 331.176 218.294 331.176Z" fill="#0553C8"/>
<path opacity="0.6" d="M220.372 331.176C220.532 331.176 220.662 330.909 220.662 330.58C220.662 330.25 220.532 329.983 220.372 329.983C220.212 329.983 220.082 330.25 220.082 330.58C220.082 330.909 220.212 331.176 220.372 331.176Z" fill="#0553C8"/>
<path opacity="0.6" d="M222.442 331.176C222.602 331.176 222.732 330.909 222.732 330.58C222.732 330.25 222.602 329.983 222.442 329.983C222.282 329.983 222.152 330.25 222.152 330.58C222.152 330.909 222.282 331.176 222.442 331.176Z" fill="#0553C8"/>
<path opacity="0.6" d="M224.52 331.176C224.68 331.176 224.81 330.909 224.81 330.58C224.81 330.25 224.68 329.983 224.52 329.983C224.36 329.983 224.23 330.25 224.23 330.58C224.23 330.909 224.36 331.176 224.52 331.176Z" fill="#0553C8"/>
<path opacity="0.6" d="M226.598 331.176C226.758 331.176 226.888 330.909 226.888 330.58C226.888 330.25 226.758 329.983 226.598 329.983C226.438 329.983 226.309 330.25 226.309 330.58C226.309 330.909 226.438 331.176 226.598 331.176Z" fill="#0553C8"/>
<path opacity="0.6" d="M228.669 331.176C228.829 331.176 228.958 330.909 228.958 330.58C228.958 330.25 228.829 329.983 228.669 329.983C228.509 329.983 228.379 330.25 228.379 330.58C228.379 330.909 228.509 331.176 228.669 331.176Z" fill="#0553C8"/>
<path opacity="0.6" d="M217.259 333.801C217.419 333.801 217.548 333.534 217.548 333.205C217.548 332.875 217.419 332.608 217.259 332.608C217.099 332.608 216.969 332.875 216.969 333.205C216.969 333.534 217.099 333.801 217.259 333.801Z" fill="#0553C8"/>
<path opacity="0.6" d="M219.338 333.801C219.498 333.801 219.627 333.534 219.627 333.205C219.627 332.875 219.498 332.608 219.338 332.608C219.178 332.608 219.048 332.875 219.048 333.205C219.048 333.534 219.178 333.801 219.338 333.801Z" fill="#0553C8"/>
<path opacity="0.6" d="M221.407 333.801C221.567 333.801 221.697 333.534 221.697 333.205C221.697 332.875 221.567 332.608 221.407 332.608C221.247 332.608 221.117 332.875 221.117 333.205C221.117 333.534 221.247 333.801 221.407 333.801Z" fill="#0553C8"/>
<path opacity="0.6" d="M223.485 333.801C223.645 333.801 223.775 333.534 223.775 333.205C223.775 332.875 223.645 332.608 223.485 332.608C223.325 332.608 223.195 332.875 223.195 333.205C223.195 333.534 223.325 333.801 223.485 333.801Z" fill="#0553C8"/>
<path opacity="0.6" d="M225.555 333.801C225.716 333.801 225.845 333.534 225.845 333.205C225.845 332.875 225.716 332.608 225.555 332.608C225.395 332.608 225.266 332.875 225.266 333.205C225.266 333.534 225.395 333.801 225.555 333.801Z" fill="#0553C8"/>
<path opacity="0.6" d="M227.923 333.204C227.923 333.535 227.791 333.8 227.634 333.8C227.476 333.8 227.344 333.535 227.344 333.204C227.344 332.873 227.476 332.6 227.634 332.6C227.791 332.6 227.923 332.856 227.923 333.204Z" fill="#0553C8"/>
<path opacity="0.6" d="M218.294 335.995C218.454 335.995 218.583 335.728 218.583 335.399C218.583 335.07 218.454 334.803 218.294 334.803C218.134 334.803 218.004 335.07 218.004 335.399C218.004 335.728 218.134 335.995 218.294 335.995Z" fill="#0553C8"/>
<path opacity="0.6" d="M220.372 335.995C220.532 335.995 220.662 335.728 220.662 335.399C220.662 335.07 220.532 334.803 220.372 334.803C220.212 334.803 220.082 335.07 220.082 335.399C220.082 335.728 220.212 335.995 220.372 335.995Z" fill="#0553C8"/>
<path opacity="0.6" d="M222.442 335.995C222.602 335.995 222.732 335.728 222.732 335.399C222.732 335.07 222.602 334.803 222.442 334.803C222.282 334.803 222.152 335.07 222.152 335.399C222.152 335.728 222.282 335.995 222.442 335.995Z" fill="#0553C8"/>
<path opacity="0.6" d="M224.52 335.995C224.68 335.995 224.81 335.728 224.81 335.399C224.81 335.07 224.68 334.803 224.52 334.803C224.36 334.803 224.23 335.07 224.23 335.399C224.23 335.728 224.36 335.995 224.52 335.995Z" fill="#0553C8"/>
<path opacity="0.6" d="M226.598 335.995C226.758 335.995 226.888 335.728 226.888 335.399C226.888 335.07 226.758 334.803 226.598 334.803C226.438 334.803 226.309 335.07 226.309 335.399C226.309 335.728 226.438 335.995 226.598 335.995Z" fill="#0553C8"/>
<path opacity="0.6" d="M228.669 335.995C228.829 335.995 228.958 335.728 228.958 335.399C228.958 335.07 228.829 334.803 228.669 334.803C228.509 334.803 228.379 335.07 228.379 335.399C228.379 335.728 228.509 335.995 228.669 335.995Z" fill="#0553C8"/>
<path opacity="0.6" d="M217.259 338.619C217.419 338.619 217.548 338.352 217.548 338.023C217.548 337.694 217.419 337.427 217.259 337.427C217.099 337.427 216.969 337.694 216.969 338.023C216.969 338.352 217.099 338.619 217.259 338.619Z" fill="#0553C8"/>
<path opacity="0.6" d="M219.338 338.619C219.498 338.619 219.627 338.352 219.627 338.023C219.627 337.694 219.498 337.427 219.338 337.427C219.178 337.427 219.048 337.694 219.048 338.023C219.048 338.352 219.178 338.619 219.338 338.619Z" fill="#0553C8"/>
<path opacity="0.6" d="M221.407 338.619C221.567 338.619 221.697 338.352 221.697 338.023C221.697 337.694 221.567 337.427 221.407 337.427C221.247 337.427 221.117 337.694 221.117 338.023C221.117 338.352 221.247 338.619 221.407 338.619Z" fill="#0553C8"/>
<path opacity="0.6" d="M223.485 338.619C223.645 338.619 223.775 338.352 223.775 338.023C223.775 337.694 223.645 337.427 223.485 337.427C223.325 337.427 223.195 337.694 223.195 338.023C223.195 338.352 223.325 338.619 223.485 338.619Z" fill="#0553C8"/>
<path opacity="0.6" d="M225.555 338.619C225.716 338.619 225.845 338.352 225.845 338.023C225.845 337.694 225.716 337.427 225.555 337.427C225.395 337.427 225.266 337.694 225.266 338.023C225.266 338.352 225.395 338.619 225.555 338.619Z" fill="#0553C8"/>
<path opacity="0.6" d="M227.923 338.023C227.923 338.355 227.791 338.62 227.634 338.62C227.476 338.62 227.344 338.355 227.344 338.023C227.344 337.692 227.476 337.419 227.634 337.419C227.791 337.419 227.923 337.692 227.923 338.023Z" fill="#0553C8"/>
<path opacity="0.6" d="M218.294 340.813C218.454 340.813 218.583 340.546 218.583 340.217C218.583 339.888 218.454 339.621 218.294 339.621C218.134 339.621 218.004 339.888 218.004 340.217C218.004 340.546 218.134 340.813 218.294 340.813Z" fill="#0553C8"/>
<path opacity="0.6" d="M220.372 340.813C220.532 340.813 220.662 340.546 220.662 340.217C220.662 339.888 220.532 339.621 220.372 339.621C220.212 339.621 220.082 339.888 220.082 340.217C220.082 340.546 220.212 340.813 220.372 340.813Z" fill="#0553C8"/>
<path opacity="0.6" d="M222.442 340.813C222.602 340.813 222.732 340.546 222.732 340.217C222.732 339.888 222.602 339.621 222.442 339.621C222.282 339.621 222.152 339.888 222.152 340.217C222.152 340.546 222.282 340.813 222.442 340.813Z" fill="#0553C8"/>
<path opacity="0.6" d="M224.52 340.813C224.68 340.813 224.81 340.546 224.81 340.217C224.81 339.888 224.68 339.621 224.52 339.621C224.36 339.621 224.23 339.888 224.23 340.217C224.23 340.546 224.36 340.813 224.52 340.813Z" fill="#0553C8"/>
<path opacity="0.6" d="M226.598 340.813C226.758 340.813 226.888 340.546 226.888 340.217C226.888 339.888 226.758 339.621 226.598 339.621C226.438 339.621 226.309 339.888 226.309 340.217C226.309 340.546 226.438 340.813 226.598 340.813Z" fill="#0553C8"/>
<path opacity="0.6" d="M228.669 340.813C228.829 340.813 228.958 340.546 228.958 340.217C228.958 339.888 228.829 339.621 228.669 339.621C228.509 339.621 228.379 339.888 228.379 340.217C228.379 340.546 228.509 340.813 228.669 340.813Z" fill="#0553C8"/>
<path opacity="0.6" d="M217.259 343.438C217.419 343.438 217.548 343.171 217.548 342.842C217.548 342.513 217.419 342.246 217.259 342.246C217.099 342.246 216.969 342.513 216.969 342.842C216.969 343.171 217.099 343.438 217.259 343.438Z" fill="#0553C8"/>
<path opacity="0.6" d="M219.338 343.438C219.498 343.438 219.627 343.171 219.627 342.842C219.627 342.513 219.498 342.246 219.338 342.246C219.178 342.246 219.048 342.513 219.048 342.842C219.048 343.171 219.178 343.438 219.338 343.438Z" fill="#0553C8"/>
<path opacity="0.6" d="M221.407 343.438C221.567 343.438 221.697 343.171 221.697 342.842C221.697 342.513 221.567 342.246 221.407 342.246C221.247 342.246 221.117 342.513 221.117 342.842C221.117 343.171 221.247 343.438 221.407 343.438Z" fill="#0553C8"/>
<path opacity="0.6" d="M223.485 343.438C223.645 343.438 223.775 343.171 223.775 342.842C223.775 342.513 223.645 342.246 223.485 342.246C223.325 342.246 223.195 342.513 223.195 342.842C223.195 343.171 223.325 343.438 223.485 343.438Z" fill="#0553C8"/>
<path opacity="0.6" d="M225.555 343.438C225.716 343.438 225.845 343.171 225.845 342.842C225.845 342.513 225.716 342.246 225.555 342.246C225.395 342.246 225.266 342.513 225.266 342.842C225.266 343.171 225.395 343.438 225.555 343.438Z" fill="#0553C8"/>
<path opacity="0.6" d="M227.923 342.843C227.923 343.174 227.791 343.439 227.634 343.439C227.476 343.439 227.344 343.174 227.344 342.843C227.344 342.512 227.476 342.238 227.634 342.238C227.791 342.238 227.923 342.512 227.923 342.843Z" fill="#0553C8"/>
</g>
<path d="M204.953 344.448H207.611V321.951H204.953V344.448Z" fill="#08B29B"/>
<path d="M222.881 344.448H224.835V321.951H222.881V344.448Z" fill="#08B29B"/>
</svg>
