<svg width="73" height="40" viewBox="0 0 73 40" fill="none" xmlns="http://www.w3.org/2000/svg">
<g clip-path="url(#clip0)">
<path d="M28.4268 7.95476L25.2637 11.8831L27.7849 7.50328C27.3999 7.26606 26.9907 7.07092 26.5643 6.92121C26.6493 6.05993 26.5564 5.19033 26.2915 4.36661C26.0267 3.54288 25.5954 2.78269 25.0247 2.13339C24.4539 1.4841 23.7559 0.959626 22.9742 0.592654C22.1924 0.225681 21.3437 0.0240768 20.4808 0.000404939C19.618 -0.023267 18.7595 0.131501 17.9589 0.455063C17.1583 0.778625 16.4327 1.26405 15.8274 1.88108C15.2221 2.49811 14.7501 3.23352 14.4407 4.04149C14.1313 4.84946 13.9911 5.71266 14.029 6.57731L19.7425 6.95417L14.1295 7.45975C14.2877 8.3042 14.6161 9.10737 15.0948 9.82007C15.5734 10.5328 16.1921 11.14 16.913 11.6045L20.0408 9.56976L17.4396 11.908C17.6976 12.0411 17.9646 12.1563 18.2384 12.2525C18.1006 13.6586 18.438 15.0704 19.1966 16.2612C19.9551 17.4519 21.0908 18.3525 22.4212 18.8182C22.3152 19.892 22.486 20.975 22.9171 21.9636C23.3482 22.9522 24.0252 23.8132 24.8833 24.4643C25.7414 25.1154 26.7519 25.5347 27.8179 25.682C28.8839 25.8293 29.9698 25.6997 30.9716 25.3056C31.0272 25.5524 31.1257 25.7875 31.2625 26.0002C31.4572 26.3134 31.7319 26.5687 32.0582 26.7396C32.0792 27.1077 32.194 27.4641 32.3918 27.7749C32.5895 28.0857 32.8636 28.3403 33.1876 28.5144C33.209 28.8823 33.3241 29.2385 33.5218 29.5491C33.7195 29.8597 33.9933 30.1143 34.317 30.2886C34.3381 30.6567 34.4529 31.0131 34.6505 31.324C34.8482 31.6348 35.122 31.8896 35.4459 32.0641C35.4634 32.4326 35.5786 32.7898 35.7795 33.0989C36.29 33.9005 37.1992 34.2338 37.8101 33.8451C38.4211 33.4565 38.5023 32.4876 37.9919 31.6854C37.7973 31.3722 37.523 31.1166 37.1974 30.9447C37.1762 30.5763 37.061 30.2194 36.8629 29.9084C36.6649 29.5973 36.3905 29.3424 36.0661 29.168C36.0447 28.8001 35.9296 28.4438 35.7318 28.1332C35.5339 27.8226 35.26 27.568 34.936 27.3938C34.915 27.0259 34.8001 26.6696 34.6023 26.3589C34.4045 26.0483 34.1306 25.7937 33.8066 25.6196C33.7889 25.251 33.6735 24.8939 33.4723 24.5848C33.34 24.3737 33.1721 24.1873 32.9761 24.0339C33.7641 23.2925 34.3481 22.36 34.6718 21.3264C34.9954 20.2928 35.0479 19.1929 34.824 18.1331C34.6001 17.0732 34.1075 16.0891 33.3937 15.2758C32.6798 14.4625 31.7689 13.8474 30.7489 13.49C30.8513 12.4467 30.6926 11.3943 30.2873 10.4279C29.8819 9.46155 29.2427 8.61175 28.4274 7.95538L28.4268 7.95476Z" fill="#08B29B"/>
<path d="M41.4043 4.80163L40.8399 5.16045L41.1828 4.53547C41.086 4.45693 40.9657 4.41315 40.8411 4.41109H40.8324C40.7932 4.41164 40.7539 4.40873 40.7152 4.40238L40.5235 4.52676L40.606 4.37689C40.4705 4.32954 40.3533 4.24054 40.2711 4.12254L39.9288 4.3402L40.1452 3.94593C40.0541 3.82807 39.938 3.73199 39.8053 3.66466C39.6726 3.59733 39.5267 3.56043 39.378 3.55664C39.0214 3.55664 38.7044 3.76932 38.4998 4.10016C38.4389 4.1987 38.3532 4.27936 38.2512 4.33396C38.1493 4.38857 38.0347 4.41518 37.9192 4.41109H37.9C37.5068 4.41109 37.188 4.85822 37.188 5.40609C37.188 5.95395 37.5068 6.40419 37.9 6.40419C37.9865 6.40389 38.0716 6.38255 38.1481 6.342C38.2819 6.27681 38.4282 6.24154 38.577 6.23865C38.7257 6.23575 38.8733 6.26528 39.0096 6.32521C39.1249 6.37666 39.2496 6.40325 39.3758 6.40325C39.502 6.40325 39.6268 6.37666 39.7421 6.32521C39.8773 6.26648 40.0236 6.23759 40.1709 6.24048C40.3183 6.24338 40.4633 6.278 40.5961 6.342C40.6726 6.38257 40.7577 6.40391 40.8442 6.40419C41.2374 6.40419 41.5562 5.95768 41.5562 5.40609C41.5568 5.19502 41.5046 4.98719 41.4043 4.80163Z" fill="#F2F2F2"/>
<path opacity="0.03" d="M40.3402 6.26205C40.1349 6.22317 39.9227 6.24633 39.7305 6.32859C39.6153 6.38004 39.4905 6.40663 39.3643 6.40663C39.2381 6.40663 39.1133 6.38004 38.9981 6.32859C38.8617 6.26865 38.714 6.23911 38.5652 6.24201C38.4163 6.24491 38.2699 6.28018 38.1359 6.34538C38.0596 6.38609 37.9744 6.40744 37.8879 6.40757C37.5381 6.40757 37.2478 6.05497 37.187 5.58981C37.2566 5.53929 37.3159 5.47598 37.3619 5.40324C37.5666 5.07241 37.8841 4.86035 38.2401 4.86035C38.5962 4.86035 38.9094 5.06992 39.114 5.39703C39.1751 5.49597 39.2606 5.5774 39.3624 5.63341C39.4641 5.68942 39.5785 5.7181 39.6946 5.71667H39.7039C39.9823 5.71232 40.2211 5.93619 40.3402 6.26205Z" fill="black"/>
<path d="M62.3056 2.37633L61.7412 2.73515L62.0842 2.11017C61.9873 2.03164 61.867 1.98786 61.7425 1.9858H61.7338C61.6945 1.98635 61.6553 1.98344 61.6166 1.97709L61.4249 2.10147L61.5074 1.9516C61.3719 1.90425 61.2547 1.81525 61.1725 1.69725L60.8301 1.91491L61.0466 1.52064C60.9555 1.40277 60.8394 1.3067 60.7067 1.23937C60.574 1.17204 60.428 1.13514 60.2794 1.13135C59.9227 1.13135 59.6058 1.34403 59.4011 1.67486C59.3403 1.7734 59.2545 1.85406 59.1526 1.90867C59.0506 1.96328 58.9361 1.98988 58.8206 1.9858H58.8014C58.4081 1.9858 58.0894 2.43292 58.0894 2.98079C58.0894 3.52866 58.4081 3.9789 58.8014 3.9789C58.8879 3.97859 58.973 3.95726 59.0495 3.91671C59.1833 3.85152 59.3296 3.81625 59.4784 3.81335C59.6271 3.81045 59.7747 3.83999 59.911 3.89992C60.0262 3.95137 60.151 3.97796 60.2772 3.97796C60.4034 3.97796 60.5282 3.95137 60.6434 3.89992C60.7787 3.84119 60.9249 3.8123 61.0723 3.81519C61.2196 3.81809 61.3646 3.85271 61.4975 3.91671C61.5739 3.95728 61.6591 3.97862 61.7456 3.9789C62.1388 3.9789 62.4576 3.53239 62.4576 2.98079C62.4582 2.76973 62.4059 2.5619 62.3056 2.37633Z" fill="#F2F2F2"/>
<path opacity="0.03" d="M61.2421 3.83676C61.0368 3.79788 60.8246 3.82104 60.6324 3.9033C60.5171 3.95475 60.3923 3.98134 60.2662 3.98134C60.14 3.98134 60.0152 3.95475 59.8999 3.9033C59.7636 3.84336 59.6159 3.81381 59.467 3.81671C59.3182 3.81961 59.1717 3.85488 59.0378 3.92009C58.9614 3.9608 58.8762 3.98215 58.7897 3.98227C58.4399 3.98227 58.1496 3.62967 58.0889 3.16451C58.1584 3.114 58.2178 3.05069 58.2638 2.97795C58.4684 2.64712 58.786 2.43506 59.142 2.43506C59.498 2.43506 59.8112 2.64463 60.0159 2.97173C60.077 3.07068 60.1625 3.15211 60.2642 3.20812C60.3659 3.26413 60.4804 3.29281 60.5964 3.29138H60.6057C60.8842 3.28702 61.123 3.5109 61.2421 3.83676Z" fill="black"/>
<path d="M48.3671 8.24678L49.2763 8.82637L48.7256 7.82205C48.8817 7.6974 49.0749 7.62848 49.2745 7.62616H49.2887C49.351 7.62709 49.4133 7.62251 49.4748 7.61248L49.7818 7.80774L49.6485 7.5677C49.866 7.49102 50.054 7.34791 50.1862 7.15851L50.7363 7.508L50.3927 6.87431C50.7146 6.48751 51.1482 6.25244 51.6251 6.25244C52.1976 6.25244 52.7068 6.59323 53.0361 7.12306C53.1331 7.28183 53.2703 7.41208 53.4336 7.50065C53.597 7.58921 53.7808 7.63293 53.9664 7.6274H53.9974C54.6288 7.6274 55.1405 8.34504 55.1405 9.23059C55.1405 10.1161 54.6288 10.8344 53.9974 10.8344C53.8584 10.8338 53.7215 10.7995 53.5986 10.7343C53.3837 10.6296 53.1486 10.5729 52.9097 10.5683C52.6708 10.5637 52.4337 10.6112 52.2149 10.7075C52.0296 10.7906 51.8288 10.8336 51.6257 10.8336C51.4227 10.8336 51.2219 10.7906 51.0365 10.7075C50.8193 10.6132 50.5843 10.5667 50.3476 10.5713C50.1109 10.576 49.878 10.6315 49.6646 10.7343C49.5429 10.7978 49.4079 10.8312 49.2707 10.8319C48.6387 10.8319 48.1271 10.1143 48.1271 9.2281C48.1237 8.88598 48.2062 8.54851 48.3671 8.24678Z" fill="#F2F2F2"/>
<path opacity="0.03" d="M50.0762 10.5956C50.4062 10.5332 50.7472 10.5705 51.0561 10.7026C51.2415 10.7856 51.4423 10.8286 51.6453 10.8286C51.8484 10.8286 52.0492 10.7856 52.2345 10.7026C52.4534 10.6062 52.6906 10.5587 52.9296 10.5633C53.1686 10.5679 53.4038 10.6246 53.6189 10.7293C53.7415 10.7945 53.8782 10.8289 54.017 10.8294C54.5783 10.8294 55.0447 10.2629 55.1421 9.5154C55.0301 9.43321 54.9349 9.33018 54.8618 9.21193C54.5324 8.68085 54.0232 8.34131 53.4508 8.34131C52.8783 8.34131 52.3759 8.67836 52.0466 9.20447C51.9486 9.36296 51.8115 9.49345 51.6485 9.58332C51.4856 9.67318 51.3023 9.7194 51.1163 9.71751H51.102C50.6517 9.71316 50.2647 10.0726 50.0762 10.5956Z" fill="black"/>
<path d="M37 40C54.1208 40 68 39.3284 68 38.5C68 37.6716 54.1208 37 37 37C19.8792 37 6 37.6716 6 38.5C6 39.3284 19.8792 40 37 40Z" fill="#DDDDDD"/>
<path d="M61.0967 9.69922H11.9032C11.2037 9.69922 10.6367 10.2678 10.6367 10.9691V36.7867C10.6367 37.488 11.2037 38.0565 11.9032 38.0565H61.0967C61.7961 38.0565 62.3631 37.488 62.3631 36.7867V10.9691C62.3631 10.2678 61.7961 9.69922 61.0967 9.69922Z" fill="#F2F2F2"/>
<path d="M62.3631 10.9691V11.6892H10.6367V10.9691C10.6367 10.6323 10.7702 10.3093 11.0077 10.0712C11.2452 9.83301 11.5673 9.69922 11.9032 9.69922H61.0967C61.4325 9.69922 61.7547 9.83301 61.9922 10.0712C62.2297 10.3093 62.3631 10.6323 62.3631 10.9691Z" fill="#0553C8"/>
<path d="M11.9703 11.0983C12.1758 11.0983 12.3424 10.9312 12.3424 10.7252C12.3424 10.5191 12.1758 10.3521 11.9703 10.3521C11.7648 10.3521 11.5981 10.5191 11.5981 10.7252C11.5981 10.9312 11.7648 11.0983 11.9703 11.0983Z" fill="white"/>
<path d="M12.9005 11.0983C13.106 11.0983 13.2726 10.9312 13.2726 10.7252C13.2726 10.5191 13.106 10.3521 12.9005 10.3521C12.6949 10.3521 12.5283 10.5191 12.5283 10.7252C12.5283 10.9312 12.6949 11.0983 12.9005 11.0983Z" fill="white"/>
<path d="M13.8311 11.0983C14.0366 11.0983 14.2033 10.9312 14.2033 10.7252C14.2033 10.5191 14.0366 10.3521 13.8311 10.3521C13.6256 10.3521 13.459 10.5191 13.459 10.7252C13.459 10.9312 13.6256 11.0983 13.8311 11.0983Z" fill="white"/>
<path d="M23.8916 14.9854H19.0899C18.7716 14.9854 18.5137 15.244 18.5137 15.5631V19.2582C18.5137 19.5773 18.7716 19.8359 19.0899 19.8359H23.8916C24.2098 19.8359 24.4678 19.5773 24.4678 19.2582V15.5631C24.4678 15.244 24.2098 14.9854 23.8916 14.9854Z" fill="white"/>
<path d="M30.8379 14.9854H26.0361C25.7179 14.9854 25.46 15.244 25.46 15.5631V19.2582C25.46 19.5773 25.7179 19.8359 26.0361 19.8359H30.8379C31.1561 19.8359 31.4141 19.5773 31.4141 19.2582V15.5631C31.4141 15.244 31.1561 14.9854 30.8379 14.9854Z" fill="#BDD6FD"/>
<path d="M37.7847 14.9854H32.9829C32.6647 14.9854 32.4067 15.244 32.4067 15.5631V19.2582C32.4067 19.5773 32.6647 19.8359 32.9829 19.8359H37.7847C38.1029 19.8359 38.3609 19.5773 38.3609 19.2582V15.5631C38.3609 15.244 38.1029 14.9854 37.7847 14.9854Z" fill="white"/>
<path d="M44.731 14.9854H39.9292C39.611 14.9854 39.353 15.244 39.353 15.5631V19.2582C39.353 19.5773 39.611 19.8359 39.9292 19.8359H44.731C45.0492 19.8359 45.3072 19.5773 45.3072 19.2582V15.5631C45.3072 15.244 45.0492 14.9854 44.731 14.9854Z" fill="white"/>
<path d="M51.6773 14.9854H46.8755C46.5573 14.9854 46.2993 15.244 46.2993 15.5631V19.2582C46.2993 19.5773 46.5573 19.8359 46.8755 19.8359H51.6773C51.9955 19.8359 52.2534 19.5773 52.2534 19.2582V15.5631C52.2534 15.244 51.9955 14.9854 51.6773 14.9854Z" fill="#BDD6FD"/>
<path d="M23.8916 23.1318H19.0899C18.7716 23.1318 18.5137 23.3905 18.5137 23.7096V27.4047C18.5137 27.7238 18.7716 27.9824 19.0899 27.9824H23.8916C24.2098 27.9824 24.4678 27.7238 24.4678 27.4047V23.7096C24.4678 23.3905 24.2098 23.1318 23.8916 23.1318Z" fill="white"/>
<path d="M30.8379 23.1318H26.0361C25.7179 23.1318 25.46 23.3905 25.46 23.7096V27.4047C25.46 27.7238 25.7179 27.9824 26.0361 27.9824H30.8379C31.1561 27.9824 31.4141 27.7238 31.4141 27.4047V23.7096C31.4141 23.3905 31.1561 23.1318 30.8379 23.1318Z" fill="white"/>
<path d="M37.7847 23.1318H32.9829C32.6647 23.1318 32.4067 23.3905 32.4067 23.7096V27.4047C32.4067 27.7238 32.6647 27.9824 32.9829 27.9824H37.7847C38.1029 27.9824 38.3609 27.7238 38.3609 27.4047V23.7096C38.3609 23.3905 38.1029 23.1318 37.7847 23.1318Z" fill="#BDD6FD"/>
<path d="M44.731 23.1318H39.9292C39.611 23.1318 39.353 23.3905 39.353 23.7096V27.4047C39.353 27.7238 39.611 27.9824 39.9292 27.9824H44.731C45.0492 27.9824 45.3072 27.7238 45.3072 27.4047V23.7096C45.3072 23.3905 45.0492 23.1318 44.731 23.1318Z" fill="white"/>
<path d="M51.6773 23.1318H46.8755C46.5573 23.1318 46.2993 23.3905 46.2993 23.7096V27.4047C46.2993 27.7238 46.5573 27.9824 46.8755 27.9824H51.6773C51.9955 27.9824 52.2534 27.7238 52.2534 27.4047V23.7096C52.2534 23.3905 51.9955 23.1318 51.6773 23.1318Z" fill="white"/>
<path d="M23.8916 31.2783H19.0899C18.7716 31.2783 18.5137 31.537 18.5137 31.856V35.5512C18.5137 35.8703 18.7716 36.1289 19.0899 36.1289H23.8916C24.2098 36.1289 24.4678 35.8703 24.4678 35.5512V31.856C24.4678 31.537 24.2098 31.2783 23.8916 31.2783Z" fill="white"/>
<path d="M30.8379 31.2783H26.0361C25.7179 31.2783 25.46 31.537 25.46 31.856V35.5512C25.46 35.8703 25.7179 36.1289 26.0361 36.1289H30.8379C31.1561 36.1289 31.4141 35.8703 31.4141 35.5512V31.856C31.4141 31.537 31.1561 31.2783 30.8379 31.2783Z" fill="white"/>
<path d="M37.7847 31.2783H32.9829C32.6647 31.2783 32.4067 31.537 32.4067 31.856V35.5512C32.4067 35.8703 32.6647 36.1289 32.9829 36.1289H37.7847C38.1029 36.1289 38.3609 35.8703 38.3609 35.5512V31.856C38.3609 31.537 38.1029 31.2783 37.7847 31.2783Z" fill="white"/>
<path d="M44.731 31.2783H39.9292C39.611 31.2783 39.353 31.537 39.353 31.856V35.5512C39.353 35.8703 39.611 36.1289 39.9292 36.1289H44.731C45.0492 36.1289 45.3072 35.8703 45.3072 35.5512V31.856C45.3072 31.537 45.0492 31.2783 44.731 31.2783Z" fill="#BDD6FD"/>
<path d="M51.6773 31.2783H46.8755C46.5573 31.2783 46.2993 31.537 46.2993 31.856V35.5512C46.2993 35.8703 46.5573 36.1289 46.8755 36.1289H51.6773C51.9955 36.1289 52.2534 35.8703 52.2534 35.5512V31.856C52.2534 31.537 51.9955 31.2783 51.6773 31.2783Z" fill="white"/>
<path d="M32.7922 14.092L32.4784 13.7755C32.4629 13.7598 32.4445 13.7474 32.4243 13.7389C32.404 13.7304 32.3822 13.7261 32.3602 13.7261C32.3383 13.7261 32.3165 13.7304 32.2962 13.7389C32.276 13.7474 32.2576 13.7598 32.2421 13.7755L30.2723 15.7338L29.4393 14.8918C29.424 14.8762 29.4057 14.8639 29.3856 14.8555C29.3655 14.8471 29.3439 14.8428 29.3221 14.8428C29.3003 14.8428 29.2787 14.8471 29.2586 14.8555C29.2385 14.8639 29.2202 14.8762 29.2049 14.8918L28.8879 15.2058C28.8568 15.2375 28.8394 15.2801 28.8394 15.3246C28.8394 15.369 28.8568 15.4117 28.8879 15.4434L30.1526 16.7213C30.1841 16.7525 30.2267 16.77 30.271 16.77C30.3154 16.77 30.3579 16.7525 30.3895 16.7213L32.7922 14.3296C32.8079 14.3141 32.8204 14.2956 32.8289 14.2752C32.8375 14.2548 32.8419 14.2329 32.8419 14.2108C32.8419 14.1887 32.8375 14.1668 32.8289 14.1464C32.8204 14.126 32.8079 14.1076 32.7922 14.092Z" fill="#08B29B"/>
<path d="M53.8796 14.092L53.5658 13.7755C53.5503 13.7598 53.5319 13.7474 53.5117 13.7389C53.4914 13.7304 53.4696 13.7261 53.4477 13.7261C53.4257 13.7261 53.4039 13.7304 53.3836 13.7389C53.3634 13.7474 53.345 13.7598 53.3295 13.7755L51.3597 15.7338L50.5267 14.8918C50.5114 14.8762 50.4931 14.8639 50.473 14.8555C50.4529 14.8471 50.4313 14.8428 50.4095 14.8428C50.3877 14.8428 50.3661 14.8471 50.346 14.8555C50.3259 14.8639 50.3076 14.8762 50.2923 14.8918L49.9753 15.2058C49.9442 15.2375 49.9268 15.2801 49.9268 15.3246C49.9268 15.369 49.9442 15.4117 49.9753 15.4434L51.24 16.7213C51.2715 16.7525 51.3141 16.77 51.3584 16.77C51.4028 16.77 51.4453 16.7525 51.4769 16.7213L53.8796 14.3296C53.8954 14.3141 53.9078 14.2956 53.9164 14.2752C53.9249 14.2548 53.9293 14.2329 53.9293 14.2108C53.9293 14.1887 53.9249 14.1668 53.9164 14.1464C53.9078 14.126 53.8954 14.1076 53.8796 14.092Z" fill="#08B29B"/>
<path d="M39.739 22.1765L39.4252 21.86C39.4097 21.8443 39.3913 21.8319 39.371 21.8234C39.3508 21.8149 39.329 21.8105 39.307 21.8105C39.2851 21.8105 39.2633 21.8149 39.243 21.8234C39.2227 21.8319 39.2043 21.8443 39.1889 21.86L37.2191 23.8182L36.3861 22.9762C36.3708 22.9607 36.3525 22.9484 36.3324 22.94C36.3123 22.9316 36.2907 22.9272 36.2689 22.9272C36.2471 22.9272 36.2255 22.9316 36.2054 22.94C36.1853 22.9484 36.167 22.9607 36.1517 22.9762L35.8347 23.2903C35.8036 23.3219 35.7861 23.3646 35.7861 23.4091C35.7861 23.4535 35.8036 23.4962 35.8347 23.5278L37.0994 24.8058C37.1309 24.837 37.1735 24.8545 37.2178 24.8545C37.2622 24.8545 37.3047 24.837 37.3363 24.8058L39.739 22.4141C39.7547 22.3986 39.7672 22.3801 39.7757 22.3597C39.7842 22.3393 39.7886 22.3174 39.7886 22.2953C39.7886 22.2732 39.7842 22.2513 39.7757 22.2309C39.7672 22.2105 39.7547 22.192 39.739 22.1765Z" fill="#08B29B"/>
<path d="M46.6233 30.634L46.3095 30.3175C46.294 30.3018 46.2756 30.2894 46.2553 30.2809C46.235 30.2724 46.2133 30.2681 46.1913 30.2681C46.1693 30.2681 46.1476 30.2724 46.1273 30.2809C46.107 30.2894 46.0886 30.3018 46.0732 30.3175L44.1033 32.2758L43.2704 31.4338C43.255 31.4182 43.2368 31.4059 43.2167 31.3975C43.1965 31.3891 43.175 31.3847 43.1532 31.3847C43.1314 31.3847 43.1098 31.3891 43.0897 31.3975C43.0695 31.4059 43.0513 31.4182 43.0359 31.4338L42.719 31.7447C42.6879 31.7764 42.6704 31.819 42.6704 31.8635C42.6704 31.9079 42.6879 31.9506 42.719 31.9823L43.9836 33.2602C44.0152 33.2914 44.0578 33.3089 44.1021 33.3089C44.1464 33.3089 44.189 33.2914 44.2206 33.2602L46.6233 30.8685C46.6541 30.8373 46.6714 30.7952 46.6714 30.7513C46.6714 30.7074 46.6541 30.6652 46.6233 30.634Z" fill="#08B29B"/>
<path d="M62.7911 38.4558C62.605 38.1132 62.8159 37.6928 63.0571 37.3874C63.2984 37.0821 63.5911 36.7656 63.5849 36.3744C63.5756 35.8147 62.9833 35.4839 62.5101 35.1873C62.1587 34.9673 61.8347 34.7062 61.545 34.4093C61.4236 34.2952 61.3233 34.1604 61.2486 34.0113C61.1506 33.7924 61.1531 33.5436 61.1593 33.3042C61.1803 32.5057 61.2198 31.7079 61.2777 30.9106" stroke="#3F3D56" stroke-width="4" stroke-miterlimit="10"/>
<path d="M60.3788 30.867C60.3854 30.7208 60.4286 30.5786 60.5045 30.4536C60.5804 30.3286 60.6864 30.2248 60.8129 30.1518L61.0077 30.5386L61.0015 30.0704C61.0946 30.043 61.1916 30.0312 61.2886 30.0355C61.46 30.0439 61.625 30.103 61.7629 30.2054C61.9008 30.3077 62.0053 30.4487 62.0634 30.6106C62.1214 30.7724 62.1303 30.9479 62.089 31.1149C62.0477 31.2818 61.9579 31.4327 61.8311 31.5486C61.7043 31.6645 61.5462 31.7401 61.3766 31.7659C61.2069 31.7917 61.0335 31.7666 60.8781 31.6936C60.7228 31.6207 60.5924 31.5033 60.5035 31.3562C60.4147 31.209 60.3712 31.0388 60.3788 30.867Z" fill="#08B29B"/>
<path d="M61.9293 36.7742C62.0206 36.9516 62.1699 37.0922 62.3523 37.1724C62.5347 37.2525 62.739 37.2674 62.931 37.2145C63.1231 37.1616 63.2911 37.0441 63.407 36.8818C63.5229 36.7194 63.5796 36.522 63.5677 36.3227C63.5557 36.1234 63.4758 35.9343 63.3413 35.787C63.2068 35.6398 63.0259 35.5434 62.829 35.5139C62.632 35.4845 62.4309 35.5238 62.2595 35.6253C62.088 35.7268 61.9565 35.8844 61.8871 36.0715L62.431 36.5149L61.8325 36.3762C61.8327 36.5147 61.8659 36.6511 61.9293 36.7742Z" fill="#08B29B"/>
<path d="M62.363 35.0797C62.577 35.0908 62.7875 35.0222 62.954 34.8871C63.1206 34.752 63.2315 34.5599 63.2653 34.3478C63.2992 34.1357 63.2536 33.9186 63.1375 33.7381C63.0213 33.5576 62.8427 33.4266 62.6359 33.3702L62.6409 33.7296L62.4437 33.3384C62.3295 33.3328 62.2153 33.3499 62.1077 33.3887C62.0001 33.4274 61.9011 33.4871 61.8166 33.5643C61.7321 33.6415 61.6636 33.7347 61.615 33.8385C61.5665 33.9423 61.5389 34.0547 61.5338 34.1693C61.5287 34.27 61.5413 34.3708 61.571 34.4671C61.6239 34.6387 61.7284 34.7896 61.8702 34.8992C62.012 35.0089 62.1842 35.0719 62.363 35.0797Z" fill="#08B29B"/>
<path d="M60.2472 33.6699C60.3808 33.6748 60.5138 33.6487 60.6357 33.5936C60.7576 33.5386 60.8652 33.456 60.95 33.3525C61.0349 33.2489 61.0948 33.127 61.125 32.9964C61.1552 32.8658 61.1549 32.73 61.1241 32.5995C61.0934 32.4691 61.033 32.3475 60.9476 32.2443C60.8623 32.141 60.7544 32.059 60.6322 32.0045C60.5101 31.9499 60.377 31.9244 60.2434 31.9299C60.1098 31.9354 59.9793 31.9718 59.8621 32.0362L60.0159 32.4591L59.6996 32.1544C59.53 32.31 59.429 32.5267 59.4186 32.7569C59.4145 32.8378 59.4218 32.9188 59.4403 32.9976C59.4833 33.1826 59.5854 33.3484 59.7311 33.4697C59.8767 33.5911 60.058 33.6614 60.2472 33.6699Z" fill="#08B29B"/>
<path opacity="0.1" d="M60.4951 31.0997C60.6961 31.1215 60.8914 31.1843 61.093 31.1968C61.2946 31.2092 61.516 31.1613 61.6438 31.004C61.712 30.9194 61.7467 30.8124 61.8044 30.7198C61.8595 30.6337 61.9349 30.5626 62.024 30.5127C62.0765 30.6228 62.1053 30.7427 62.1086 30.8647C62.112 30.9866 62.0897 31.108 62.0432 31.2207C61.9968 31.3335 61.9272 31.4353 61.839 31.5193C61.7508 31.6034 61.646 31.668 61.5313 31.7088C61.4166 31.7497 61.2946 31.7659 61.1733 31.7564C61.052 31.7469 60.934 31.712 60.827 31.6539C60.72 31.5957 60.6264 31.5157 60.5522 31.419C60.478 31.3222 60.425 31.2109 60.3965 31.0923C60.4296 31.0935 60.4624 31.096 60.4951 31.0997Z" fill="black"/>
<path opacity="0.1" d="M60.2469 33.67C60.3971 33.6776 60.5466 33.6461 60.6809 33.5784C60.8152 33.5107 60.9297 33.4092 61.0132 33.2839C61.0966 33.1585 61.1462 33.0136 61.157 32.8632C61.1678 32.7129 61.1396 32.5624 61.0749 32.4263C61.0059 32.4728 60.9465 32.5324 60.9 32.6016C60.838 32.6955 60.8002 32.8044 60.7276 32.8902C60.5918 33.05 60.3604 33.1022 60.1502 33.0929C59.9399 33.0836 59.7371 33.0233 59.53 33.004C59.5008 33.004 59.4717 32.9996 59.4419 32.999C59.485 33.1834 59.5869 33.3487 59.7322 33.4698C59.8775 33.5909 60.0582 33.6612 60.2469 33.67Z" fill="black"/>
<path opacity="0.1" d="M62.363 35.0799C62.5118 35.0874 62.6599 35.0565 62.7933 34.9901C62.9267 34.9236 63.0408 34.8239 63.1246 34.7005C63.2084 34.5771 63.2592 34.4342 63.272 34.2854C63.2849 34.1366 63.2593 33.9871 63.1979 33.8511C63.1256 33.8984 63.0626 33.9584 63.0118 34.0283C62.9442 34.1241 62.902 34.2341 62.8257 34.3225C62.6787 34.4866 62.4319 34.5445 62.2099 34.5395C61.9878 34.5345 61.7862 34.4817 61.5723 34.4649C61.6247 34.6367 61.7288 34.788 61.8704 34.8981C62.012 35.0082 62.1841 35.0717 62.363 35.0799Z" fill="black"/>
<path opacity="0.1" d="M61.9292 36.7745C62.0234 36.9856 62.1973 37.1504 62.4127 37.2329C62.6281 37.3154 62.8674 37.3086 63.0779 37.2142C63.2883 37.1198 63.4528 36.9454 63.535 36.7294C63.6172 36.5134 63.6105 36.2735 63.5163 36.0625C63.4444 36.1094 63.3799 36.1671 63.3253 36.2335C63.2422 36.3343 63.1876 36.4493 63.0921 36.5444C62.9141 36.7198 62.6269 36.7932 62.3708 36.7988C62.2232 36.7995 62.0758 36.7914 61.9292 36.7745Z" fill="black"/>
<path d="M64.1042 38.0611C64.1042 38.0611 63.417 38.04 63.2099 37.892C63.0027 37.744 62.1555 37.568 62.1022 37.8049C62.0488 38.0418 61.0695 38.9865 61.8448 38.9902C62.62 38.9939 63.6471 38.8658 63.8543 38.7415C64.0614 38.6171 64.1042 38.0611 64.1042 38.0611Z" fill="#656380"/>
<path opacity="0.2" d="M61.8309 38.9079C62.6068 38.9142 63.6333 38.7867 63.8398 38.6592C63.9974 38.5628 64.06 38.2183 64.0811 38.0591H64.104C64.104 38.0591 64.0606 38.615 63.856 38.7431C63.6513 38.8712 62.6223 38.9969 61.8464 38.9919C61.6225 38.9919 61.5456 38.9104 61.55 38.7923C61.5791 38.8619 61.6641 38.9048 61.8309 38.9079Z" fill="black"/>
<path d="M11.4301 38.1499C11.1578 37.645 11.4667 37.0256 11.8214 36.5747C12.1762 36.1239 12.6091 35.6556 12.6004 35.0822C12.5868 34.257 11.7135 33.7701 11.0151 33.3323C10.4974 33.0077 10.0198 32.6228 9.59235 32.1855C9.41454 32.0168 9.2676 31.8181 9.15819 31.5985C9.01368 31.2758 9.01802 30.9088 9.02733 30.555C9.0571 29.3776 9.11498 28.2012 9.20099 27.0259" stroke="#3F3D56" stroke-width="4" stroke-miterlimit="10"/>
<path d="M7.87103 26.9606C7.88058 26.7446 7.94429 26.5345 8.05627 26.3497C8.16826 26.1649 8.3249 26.0114 8.51172 25.9034L8.7995 26.4737L8.79082 25.7834C9.0519 25.7063 9.33065 25.7144 9.58684 25.8065C9.84303 25.8986 10.0634 26.07 10.2161 26.2958C10.3689 26.5217 10.4461 26.7904 10.4366 27.0631C10.4271 27.3358 10.3314 27.5985 10.1633 27.8131C9.99526 28.0278 9.76351 28.1833 9.50154 28.2573C9.23957 28.3313 8.96093 28.3199 8.70585 28.2247C8.45076 28.1296 8.23243 27.9556 8.08238 27.7279C7.93233 27.5003 7.85832 27.2307 7.87103 26.9581V26.9606Z" fill="#08B29B"/>
<path d="M10.1605 35.6711C10.2952 35.9336 10.5158 36.1417 10.7853 36.2605C11.0548 36.3792 11.3569 36.4015 11.6408 36.3234C11.9248 36.2454 12.1733 36.0718 12.3448 35.8319C12.5162 35.5919 12.6002 35.3001 12.5825 35.0055C12.5649 34.7108 12.4467 34.4312 12.2479 34.2135C12.049 33.9958 11.7816 33.8533 11.4904 33.8099C11.1991 33.7665 10.9019 33.8248 10.6485 33.975C10.3951 34.1253 10.2009 34.3583 10.0985 34.6351L10.8998 35.2887L10.0166 35.0841C10.0172 35.2885 10.0665 35.4897 10.1605 35.6711Z" fill="#08B29B"/>
<path d="M10.7942 33.1726C11.1089 33.1868 11.4178 33.0846 11.6622 32.8854C11.9066 32.6861 12.0694 32.4037 12.1196 32.0919C12.1699 31.7801 12.104 31.4607 11.9347 31.1944C11.7653 30.9281 11.5042 30.7336 11.2011 30.6478L11.2079 31.1776L10.917 30.6011H10.9139C10.744 30.5905 10.5736 30.6139 10.4128 30.6699C10.2519 30.726 10.1038 30.8135 9.97703 30.9275C9.85026 31.0415 9.74737 31.1796 9.67435 31.3339C9.60132 31.4881 9.55963 31.6553 9.55169 31.8259C9.54375 31.9964 9.56973 32.1669 9.6281 32.3272C9.68648 32.4876 9.77609 32.6347 9.89172 32.7601C10.0074 32.8854 10.1467 32.9864 10.3016 33.0572C10.4566 33.128 10.624 33.1672 10.7942 33.1726Z" fill="#08B29B"/>
<path d="M7.67813 31.0935C8.01816 31.1092 8.35051 30.9889 8.60217 30.7591C8.85383 30.5293 9.00421 30.2087 9.02028 29.8678C9.03001 29.6573 8.98739 29.4476 8.89624 29.2577C8.82119 29.098 8.71412 28.9554 8.5817 28.839C8.44927 28.7225 8.29434 28.6347 8.12657 28.581C7.95879 28.5272 7.78177 28.5087 7.60655 28.5266C7.43133 28.5445 7.26167 28.5984 7.10814 28.685L7.33452 29.3068L6.86812 28.8579C6.6814 29.0296 6.54954 29.2529 6.48915 29.4996C6.42876 29.7464 6.44253 30.0055 6.52874 30.2444C6.61495 30.4833 6.76974 30.6913 6.97361 30.8422C7.17748 30.993 7.42131 31.0801 7.6744 31.0922L7.67813 31.0935Z" fill="#08B29B"/>
<path opacity="0.1" d="M8.04419 27.303C8.34003 27.336 8.62844 27.4274 8.92552 27.4467C9.22261 27.4659 9.54947 27.3938 9.73739 27.1618C9.83849 27.0375 9.88935 26.8795 9.97494 26.7433C10.056 26.6165 10.167 26.5117 10.2981 26.438C10.3807 26.6012 10.4277 26.7801 10.436 26.9629C10.4442 27.1457 10.4135 27.3282 10.3458 27.4982C10.2781 27.6682 10.1751 27.8217 10.0436 27.9486C9.91206 28.0755 9.75506 28.1728 9.58307 28.234C9.41107 28.2953 9.22803 28.319 9.04615 28.3037C8.86427 28.2885 8.68773 28.2345 8.52831 28.1454C8.36889 28.0562 8.23025 27.9341 8.12163 27.787C8.01302 27.6399 7.93693 27.4713 7.89844 27.2924C7.94681 27.2943 7.99581 27.298 8.04419 27.303Z" fill="black"/>
<path opacity="0.1" d="M7.67839 31.0936C8.01843 31.1093 8.35078 30.989 8.60243 30.7592C8.85409 30.5294 9.00448 30.2088 9.02055 29.8679C9.03028 29.6573 8.98765 29.4477 8.89651 29.2578C8.79471 29.3266 8.70711 29.4144 8.63849 29.5165C8.54732 29.6552 8.4915 29.815 8.3842 29.9419C8.18449 30.1776 7.84275 30.2528 7.53326 30.2404C7.22377 30.2279 6.9242 30.1384 6.61595 30.1098C6.57316 30.106 6.52974 30.1029 6.48633 30.1017C6.55011 30.3747 6.70107 30.6193 6.91625 30.7983C7.13143 30.9774 7.39905 31.081 7.67839 31.0936Z" fill="black"/>
<path opacity="0.1" d="M10.7942 33.1725C11.0133 33.1828 11.2314 33.1367 11.4276 33.0385C11.6239 32.9404 11.7917 32.7934 11.9152 32.6116C12.0387 32.4299 12.1136 32.2194 12.1329 32.0004C12.1522 31.7813 12.1152 31.561 12.0253 31.3604C11.9198 31.4303 11.8279 31.519 11.7543 31.6222C11.6545 31.7633 11.5924 31.9256 11.4752 32.0575C11.2588 32.2994 10.8947 32.3846 10.5666 32.3771C10.249 32.3697 9.94265 32.2919 9.62695 32.2677C9.70519 32.5205 9.85923 32.743 10.0681 32.9049C10.2769 33.0668 10.5305 33.1602 10.7942 33.1725Z" fill="black"/>
<path opacity="0.1" d="M10.1606 35.6709C10.311 35.9636 10.5675 36.1874 10.8773 36.2963C11.1872 36.4052 11.5269 36.3909 11.8265 36.2564C12.1262 36.1219 12.3631 35.8774 12.4885 35.5731C12.6139 35.2689 12.6183 34.928 12.5007 34.6206C12.3951 34.6893 12.3001 34.7731 12.2185 34.8694C12.0945 35.0186 12.0163 35.1878 11.8749 35.3271C11.6126 35.5851 11.189 35.6915 10.8119 35.7002C10.5944 35.7033 10.377 35.6935 10.1606 35.6709Z" fill="black"/>
<path d="M13.3658 37.5683C13.3658 37.5683 12.3529 37.5372 12.0472 37.3195C11.7414 37.1019 10.4892 36.8413 10.4135 37.1908C10.3378 37.5403 8.89086 38.932 10.0345 38.9389C11.1782 38.9457 12.6922 38.7604 12.9967 38.5738C13.3013 38.3873 13.3658 37.5683 13.3658 37.5683Z" fill="#656380"/>
<path opacity="0.2" d="M10.0168 38.8167C11.1605 38.826 12.6744 38.6382 12.9789 38.4523C13.2109 38.3105 13.3039 37.8018 13.3343 37.5674H13.3684C13.3684 37.5674 13.3064 38.3864 12.9994 38.5723C12.6924 38.7583 11.1809 38.9454 10.0372 38.9374C9.70728 38.9374 9.59316 38.8167 9.59936 38.6426C9.64464 38.7489 9.76868 38.8148 10.0168 38.8167Z" fill="black"/>
<path d="M53.4174 35.0493C53.407 35.0754 53.4003 35.1028 53.3975 35.1307C53.2989 35.7818 52.7314 36.2626 52.5242 36.8875C52.3914 37.2938 52.4176 37.7355 52.5974 38.1232C52.6298 38.1775 52.6491 38.2386 52.6539 38.3017C52.6539 38.3639 52.6043 38.4316 52.5416 38.426C52.3915 38.4161 52.2731 38.3017 52.1478 38.2208C51.9911 38.124 51.855 37.9972 51.7471 37.8477C51.6937 37.7726 51.6556 37.6875 51.6353 37.5975C51.615 37.5075 51.6127 37.4144 51.6286 37.3235C51.7031 36.9839 51.9617 36.6811 52.0423 36.3428L52.2538 35.4653C52.2827 35.2999 52.3415 35.1412 52.4275 34.997C52.4607 34.94 52.5123 34.8962 52.5739 34.8727C52.61 34.8638 52.6472 34.8609 52.6843 34.864C52.9293 34.8745 53.1842 34.9666 53.4174 35.0493Z" fill="#B16666"/>
<path d="M52.5485 38.0199C52.5708 38.015 52.5941 38.0167 52.6155 38.0249C52.6439 38.0444 52.6655 38.0722 52.6775 38.1045C52.7444 38.2289 52.8459 38.3311 52.9696 38.3986C53.0197 38.4209 53.0674 38.448 53.1123 38.4795C53.1346 38.4956 53.1525 38.5169 53.1645 38.5417C53.1766 38.5664 53.1823 38.5938 53.1811 38.6213C53.1712 38.7027 53.0825 38.7457 53.0043 38.7699C52.8366 38.8191 52.6608 38.8345 52.4871 38.8153C52.422 38.8115 52.3586 38.7937 52.301 38.7631C52.2446 38.7239 52.196 38.6746 52.1577 38.6175C52.0219 38.4292 51.8682 38.2545 51.6988 38.0958C51.6126 38.0277 51.5321 37.9526 51.4581 37.8713C51.4214 37.8304 51.3934 37.7823 51.376 37.7301C51.3587 37.6779 51.3522 37.6227 51.357 37.5678C51.3812 37.4061 51.5338 37.3004 51.6299 37.168C51.7844 37.367 51.94 37.5691 52.0343 37.8029C52.0653 37.8969 52.1039 37.9882 52.1497 38.0759C52.1937 38.1487 52.257 38.2326 52.3357 38.1853C52.4145 38.1381 52.4337 38.0398 52.5485 38.0199Z" fill="#F20000"/>
<path d="M54.4124 30.2778C54.4587 30.3947 54.4776 30.5206 54.4676 30.646L54.462 31.5744C54.4655 31.755 54.456 31.9356 54.4335 32.1148C54.3845 32.4376 54.2524 32.7429 54.1947 33.0644C54.1401 33.366 54.1506 33.6795 54.0619 33.973C53.9243 34.4276 53.5596 34.7876 53.4312 35.2453C53.4264 35.2731 53.4137 35.2988 53.3946 35.3193C53.3796 35.3314 53.3616 35.3391 53.3425 35.3417C53.2398 35.3513 53.1365 35.3319 53.0442 35.2858L52.3774 35.0233C52.3315 35.0432 52.2999 34.9904 52.3024 34.9394C52.3102 34.8894 52.3334 34.8431 52.3687 34.8069C52.4499 34.703 52.5218 34.5921 52.5833 34.4755C52.7695 34.1018 52.8751 33.6931 52.8935 33.2759C52.9103 32.8609 52.8981 32.4453 52.8569 32.0321C52.8341 31.7328 52.8114 31.4339 52.7886 31.1354C52.7781 30.993 52.77 30.8388 52.8507 30.72C52.9313 30.6012 53.0684 30.5521 53.2005 30.511C53.5948 30.3894 54.0012 30.3113 54.4124 30.2778Z" fill="#3C354C"/>
<path opacity="0.1" d="M54.4124 30.2778C54.4587 30.3947 54.4776 30.5206 54.4676 30.646L54.462 31.5744C54.4655 31.755 54.456 31.9356 54.4335 32.1148C54.3845 32.4376 54.2524 32.7429 54.1947 33.0644C54.1401 33.366 54.1506 33.6795 54.0619 33.973C53.9243 34.4276 53.5596 34.7876 53.4312 35.2453C53.4264 35.2731 53.4137 35.2988 53.3946 35.3193C53.3796 35.3314 53.3616 35.3391 53.3425 35.3417C53.2398 35.3513 53.1365 35.3319 53.0442 35.2858L52.3774 35.0233C52.3315 35.0432 52.2999 34.9904 52.3024 34.9394C52.3102 34.8894 52.3334 34.8431 52.3687 34.8069C52.4499 34.703 52.5218 34.5921 52.5833 34.4755C52.7695 34.1018 52.8751 33.6931 52.8935 33.2759C52.9103 32.8609 52.8981 32.4453 52.8569 32.0321C52.8341 31.7328 52.8114 31.4339 52.7886 31.1354C52.7781 30.993 52.77 30.8388 52.8507 30.72C52.9313 30.6012 53.0684 30.5521 53.2005 30.511C53.5948 30.3894 54.0012 30.3113 54.4124 30.2778Z" fill="black"/>
<path d="M55.8725 31.6845C55.7806 31.8178 55.7058 31.9622 55.6499 32.1142C55.6158 32.2286 55.5908 32.3454 55.5748 32.4637C55.488 33.0128 55.4005 33.5669 55.434 34.1216C55.38 34.1345 55.3236 34.1342 55.2696 34.1208C55.2157 34.1073 55.1657 34.0812 55.1239 34.0445C55.0404 33.9704 54.9716 33.8811 54.9211 33.7814C54.8581 33.6738 54.8024 33.562 54.7543 33.4469C54.6478 33.1884 54.594 32.9112 54.5961 32.6316C54.5944 32.6088 54.5982 32.586 54.6073 32.565C54.616 32.5502 54.6271 32.537 54.6401 32.5259C55.0042 32.1801 55.2138 31.7056 55.4142 31.2448C55.486 31.0942 55.5417 30.9364 55.5804 30.774C55.6133 30.6099 55.6158 30.4283 55.7193 30.2971C55.8124 30.1802 55.9674 30.131 56.1126 30.1105C56.2181 30.0918 56.3265 30.0962 56.4301 30.1236C56.543 30.1584 56.8103 30.2909 56.8258 30.4246C56.8413 30.5583 56.6032 30.7293 56.5256 30.8182C56.2875 31.0909 56.0693 31.3804 55.8725 31.6845Z" fill="#B16666"/>
<path d="M55.6511 34.1165C55.7305 34.2502 55.8415 34.3994 55.7851 34.5437C55.7286 34.688 55.5221 34.7203 55.3981 34.6314C55.3624 34.6041 55.33 34.5728 55.3013 34.5381C54.9588 34.1547 54.6476 33.7442 54.371 33.3105C54.268 33.1495 54.1675 32.9778 54.1502 32.7876C54.147 32.7664 54.15 32.7448 54.1589 32.7254C54.171 32.7076 54.1877 32.6934 54.2072 32.6843C54.3766 32.5882 54.557 32.513 54.7444 32.4604C54.7399 32.6734 54.7948 32.8835 54.9031 33.0668C54.9823 33.1995 55.0508 33.3385 55.1078 33.4822C55.15 33.5867 55.1934 33.5947 55.3019 33.596C55.3894 33.596 55.452 33.5854 55.4942 33.6743C55.5612 33.8136 55.5661 33.9735 55.6511 34.1165Z" fill="#F20000"/>
<path d="M53.3266 28.7062C54.1242 28.7186 54.9205 28.7746 55.7163 28.8306L56.2335 28.8673C56.3859 28.8717 56.5373 28.8943 56.6844 28.9344C56.8246 28.9853 56.9586 29.0518 57.0839 29.1328C57.1268 29.1546 57.1648 29.1851 57.1955 29.2223C57.2193 29.2602 57.2354 29.3025 57.2426 29.3467C57.2719 29.4395 57.2818 29.5373 57.2718 29.634C57.2564 29.7032 57.2307 29.7697 57.1955 29.8312L56.8333 30.5488C56.7173 30.5109 56.6274 30.435 56.5139 30.3902C56.3772 30.344 56.2349 30.3168 56.0909 30.3094L55.7138 30.2721C55.7014 30.2493 55.6977 30.2228 55.7032 30.1974C55.372 30.3131 55.0421 30.4207 54.7109 30.5364C54.1031 30.7484 53.494 30.9611 52.9085 31.2297C52.8217 31.2695 52.7225 31.3112 52.6338 31.2776C52.6018 31.264 52.5726 31.2446 52.5476 31.2204C52.4026 31.0821 52.3086 30.8986 52.2809 30.6999C52.2534 30.5027 52.2563 30.3024 52.2895 30.106C52.3454 29.7012 52.4675 29.2777 52.7764 29.0109C52.9395 28.866 53.1107 28.7006 53.3266 28.7062Z" fill="#3C354C"/>
<path opacity="0.1" d="M56.4995 29.4053C56.3212 29.4921 56.1499 29.5927 55.9872 29.7063C55.9628 29.7223 55.9401 29.7408 55.9196 29.7616C55.9045 29.7789 55.8906 29.7972 55.878 29.8163C55.7979 29.9205 55.7386 30.0392 55.7031 30.1658" stroke="black" stroke-miterlimit="10"/>
<path d="M48.2902 28.4358C48.1786 28.5297 48.1129 28.6652 48.0341 28.7884C47.8449 29.0868 47.5733 29.3269 47.3866 29.6273C47.3066 29.7566 47.2402 29.8996 47.1261 30.0004C46.9896 30.1248 46.8011 30.1677 46.6187 30.182C46.4544 30.1938 46.2807 30.1857 46.1356 30.2647C46.0115 30.3331 45.9247 30.4568 45.8453 30.5756V30.5793C45.8288 30.6042 45.8206 30.6337 45.8219 30.6636C45.8232 30.6934 45.834 30.7221 45.8527 30.7454C45.8713 30.7686 45.8969 30.7854 45.9257 30.7931C45.9545 30.8008 45.985 30.7991 46.0128 30.7883C46.1462 30.7365 46.2838 30.6964 46.424 30.6683C46.5478 30.6493 46.6701 30.6215 46.7899 30.5849C46.9051 30.5388 47.0149 30.4802 47.1174 30.4102C47.2075 30.3563 47.2936 30.2958 47.3748 30.2292C47.4746 30.144 47.5609 30.0427 47.6551 29.9525C47.7933 29.8384 47.9383 29.7329 48.0893 29.6366C48.4863 29.3578 48.8174 28.995 49.0593 28.5738C49.0884 28.5325 49.1038 28.4832 49.1033 28.4326C49.0945 28.3862 49.0731 28.3432 49.0413 28.3083C48.9315 28.1683 48.8317 28.0539 48.6791 28.1839C48.5588 28.284 48.4081 28.3331 48.2902 28.4358Z" fill="#B16666"/>
<path d="M51.4109 25.4056C51.4122 25.4454 51.4261 25.4837 51.4506 25.515C51.4916 25.5567 51.5592 25.548 51.6175 25.5443C51.6971 25.5363 51.7775 25.5458 51.8531 25.5721C51.9288 25.5984 51.9978 25.6409 52.0553 25.6966C52.1614 25.8079 52.203 25.9653 52.2278 26.1176C52.2558 26.2443 52.2519 26.3759 52.2166 26.5007C52.1578 26.645 52.0442 26.7599 51.9009 26.8203C51.7591 26.8799 51.6088 26.9168 51.4556 26.9298C51.3284 26.9522 51.1983 26.9522 51.071 26.9298C50.9203 26.895 50.7895 26.8054 50.6536 26.7302C50.5586 26.6847 50.4668 26.6328 50.3789 26.5747C50.2903 26.5154 50.2265 26.4256 50.1996 26.3222C50.1918 26.2961 50.1919 26.2682 50.2 26.2422C50.2081 26.2162 50.2237 26.1931 50.2449 26.1761C50.267 26.1658 50.2903 26.1587 50.3144 26.1549C50.3649 26.1421 50.4111 26.1161 50.4482 26.0795C50.4854 26.0429 50.5122 25.997 50.5259 25.9466C50.5674 25.7855 50.4676 25.6232 50.4576 25.4572C50.4527 25.4091 50.4629 25.3606 50.4868 25.3185C50.5228 25.2726 50.5713 25.2381 50.6264 25.219L50.9365 25.0797C51.0299 25.0281 51.1277 24.9846 51.2286 24.9498C51.3272 24.9243 51.334 24.9927 51.3526 25.0741C51.3756 25.1854 51.396 25.2955 51.4109 25.4056Z" fill="#FFC1C7"/>
<path d="M51.4109 25.4056C51.4122 25.4454 51.4261 25.4837 51.4506 25.515C51.4916 25.5567 51.5592 25.548 51.6175 25.5443C51.6971 25.5363 51.7775 25.5458 51.8531 25.5721C51.9288 25.5984 51.9978 25.6409 52.0553 25.6966C52.1614 25.8079 52.203 25.9653 52.2278 26.1176C52.2558 26.2443 52.2519 26.3759 52.2166 26.5007C52.1578 26.645 52.0442 26.7599 51.9009 26.8203C51.7591 26.8799 51.6088 26.9168 51.4556 26.9298C51.3284 26.9522 51.1983 26.9522 51.071 26.9298C50.9203 26.895 50.7895 26.8054 50.6536 26.7302C50.5586 26.6847 50.4668 26.6328 50.3789 26.5747C50.2903 26.5154 50.2265 26.4256 50.1996 26.3222C50.1918 26.2961 50.1919 26.2682 50.2 26.2422C50.2081 26.2162 50.2237 26.1931 50.2449 26.1761C50.267 26.1658 50.2903 26.1587 50.3144 26.1549C50.3649 26.1421 50.4111 26.1161 50.4482 26.0795C50.4854 26.0429 50.5122 25.997 50.5259 25.9466C50.5674 25.7855 50.4676 25.6232 50.4576 25.4572C50.4527 25.4091 50.4629 25.3606 50.4868 25.3185C50.5228 25.2726 50.5713 25.2381 50.6264 25.219L50.9365 25.0797C51.0299 25.0281 51.1277 24.9846 51.2286 24.9498C51.3272 24.9243 51.334 24.9927 51.3526 25.0741C51.3756 25.1854 51.396 25.2955 51.4109 25.4056Z" fill="#985555"/>
<path d="M50.604 25.6652C51.0311 25.6652 51.3774 25.318 51.3774 24.8897C51.3774 24.4614 51.0311 24.1143 50.604 24.1143C50.1768 24.1143 49.8306 24.4614 49.8306 24.8897C49.8306 25.318 50.1768 25.6652 50.604 25.6652Z" fill="#B16666"/>
<path d="M51.5028 25.5967C51.6175 25.5447 51.7406 25.5136 51.8662 25.5047C51.929 25.5009 51.9919 25.5109 52.0504 25.5341C52.1089 25.5573 52.1617 25.5931 52.2049 25.639C52.2774 25.7242 52.3016 25.8393 52.3593 25.9344C52.4734 26.121 52.6961 26.2062 52.8741 26.3337C52.916 26.3612 52.9523 26.3967 52.9807 26.4381C53.0428 26.5327 53.026 26.6539 53.0248 26.7659C53.0308 27.0429 53.1093 27.3135 53.2524 27.5507C53.3956 27.7869 53.5596 28.0098 53.7424 28.2167C53.7854 28.2641 53.8213 28.3175 53.8491 28.3753C53.8925 28.4797 53.8801 28.606 53.9446 28.6986C53.7894 28.6792 53.6319 28.7007 53.4875 28.7608C53.2636 28.8535 53.253 29.1818 53.1476 29.4007C52.9528 29.8056 52.6824 30.1681 52.425 30.5363C52.3573 30.6241 52.2999 30.7195 52.2539 30.8204C52.208 30.7228 52.2396 30.6065 52.234 30.4989C52.2216 30.2583 52.0827 30.0425 52.0436 29.8049C52.0302 29.686 52.0234 29.5664 52.0231 29.4467C52.0126 29.2655 51.9735 29.0871 51.9071 28.9181C51.8304 28.7378 51.7383 28.5645 51.6318 28.4001C51.582 28.3027 51.511 28.2177 51.424 28.1514C51.321 28.0842 51.179 28.0649 51.1139 27.9605C51.0981 27.9241 51.0772 27.8902 51.0519 27.8597C51.0302 27.8434 51.0059 27.831 50.9799 27.823C50.8532 27.7633 50.7305 27.6951 50.6127 27.6191C50.4887 27.5513 50.3479 27.5009 50.2108 27.5314C49.9568 27.827 49.6689 28.0917 49.3531 28.3199C49.2551 28.392 49.1496 28.466 49.1013 28.578C48.9468 28.5039 48.8084 28.4001 48.6938 28.2726C48.6756 28.2548 48.6609 28.2337 48.6504 28.2105C48.6187 28.1197 48.7124 28.0382 48.7868 27.981C49.0654 27.7704 49.2791 27.4852 49.4033 27.1583C49.4833 26.9474 49.536 26.7049 49.7184 26.5725C49.7762 26.5392 49.8308 26.5007 49.8815 26.4574C49.9264 26.3951 49.9678 26.3303 50.0055 26.2634C50.045 26.2121 50.0988 26.1736 50.16 26.1528C50.2213 26.132 50.2873 26.1298 50.3498 26.1465C50.4206 26.1742 50.4892 26.2073 50.5551 26.2453C50.7269 26.3231 50.9241 26.3075 51.1133 26.2864L51.8395 26.2124C51.8515 26.1717 51.8528 26.1286 51.8435 26.0873C51.8342 26.0459 51.8144 26.0076 51.7862 25.9761C51.7564 25.9479 51.7242 25.9223 51.6901 25.8996C51.595 25.823 51.5289 25.7162 51.5028 25.5967Z" fill="#F20000"/>
<path d="M51.0131 23.5495C51.101 23.5823 51.181 23.6332 51.248 23.699C51.315 23.7648 51.3675 23.8439 51.4019 23.9314C51.4238 24.0061 51.4511 24.079 51.4838 24.1496C51.5417 24.2325 51.6094 24.3081 51.6854 24.3748C51.7549 24.4488 51.8144 24.5452 51.7983 24.6453C51.7921 24.6826 51.7759 24.7174 51.771 24.7541C51.7493 24.9152 51.9316 25.0259 51.9874 25.1782C52.06 25.3785 51.9018 25.6173 51.9986 25.8063C52.0352 25.8772 52.1015 25.9307 52.1431 25.9929C52.1847 26.0551 52.189 26.167 52.1189 26.2049C52.0098 26.264 51.8832 26.0911 51.7673 26.1365C51.7375 26.1483 51.7145 26.1738 51.6854 26.1869C51.6041 26.2236 51.5092 26.1514 51.4826 26.0663C51.4656 25.9786 51.4673 25.8883 51.4875 25.8013C51.4974 25.7578 51.4981 25.7127 51.4895 25.6689C51.481 25.6251 51.4634 25.5836 51.4379 25.547C51.3908 25.4929 51.3139 25.4717 51.2649 25.4226C51.1756 25.3318 51.1923 25.1857 51.2029 25.0588C51.2221 24.8026 51.1762 24.5221 50.9932 24.3418C50.9893 24.3367 50.9843 24.3324 50.9787 24.3293C50.973 24.3262 50.9668 24.3243 50.9604 24.3238C50.9472 24.3262 50.9354 24.3335 50.9275 24.3443C50.8442 24.4318 50.7509 24.5093 50.6496 24.575C50.621 24.597 50.5864 24.6096 50.5504 24.6111C50.515 24.6111 50.4797 24.575 50.4884 24.5408C50.4005 24.5816 50.3217 24.6395 50.2564 24.7112C50.2422 24.6774 50.2359 24.6408 50.2378 24.6042C50.2038 24.6722 50.1622 24.736 50.1138 24.7945C50.0644 24.8476 50.0188 24.9042 49.9773 24.9637C49.9568 24.9936 49.9431 25.0276 49.9371 25.0634C49.9311 25.0991 49.933 25.1358 49.9426 25.1708C50.012 25.3704 50.3662 25.3244 50.4431 25.5215C50.4598 25.5656 50.4592 25.6142 50.4766 25.6577C50.5107 25.7423 50.6006 25.7821 50.6751 25.838C50.7495 25.894 50.814 25.9891 50.7693 26.0681C50.7303 26.1359 50.6391 26.1434 50.5634 26.1608C50.4987 26.1769 50.4379 26.2059 50.3846 26.246C50.3313 26.2862 50.2867 26.3367 50.2533 26.3946C50.2356 26.4371 50.2082 26.4748 50.1733 26.5047C50.142 26.5208 50.1074 26.5293 50.0722 26.5295C49.9668 26.5383 49.8458 26.5407 49.7733 26.4674C49.6759 26.3648 49.7218 26.1782 49.6225 26.0774C49.5996 26.0551 49.5711 26.0389 49.5494 26.0153C49.5268 25.986 49.5102 25.9525 49.5008 25.9167C49.4913 25.8809 49.489 25.8436 49.4942 25.8069C49.5041 25.5999 49.5804 25.3971 49.5686 25.19C49.5503 25.053 49.524 24.9172 49.4898 24.7833C49.4595 24.627 49.4635 24.466 49.5017 24.3115C49.5398 24.1569 49.6111 24.0125 49.7106 23.8885C49.8793 23.6901 50.0995 23.6124 50.3488 23.5775C50.5709 23.5446 50.7855 23.4668 51.0131 23.5495Z" fill="#3C354C"/>
</g>
<defs>
<clipPath id="clip0">
<rect width="73" height="40" fill="white"/>
</clipPath>
</defs>
</svg>
