<svg width="28" height="28" viewBox="0 0 28 28" fill="none" xmlns="http://www.w3.org/2000/svg">
<path d="M22.1667 12.832H5.83333C4.54467 12.832 3.5 13.8767 3.5 15.1654V23.332C3.5 24.6207 4.54467 25.6654 5.83333 25.6654H22.1667C23.4553 25.6654 24.5 24.6207 24.5 23.332V15.1654C24.5 13.8767 23.4553 12.832 22.1667 12.832Z" stroke="#F20000" stroke-width="2" stroke-linecap="round" stroke-linejoin="round"/>
<path d="M8.16797 12.832V8.16536C8.16797 6.61827 8.78255 5.13454 9.87651 4.04058C10.9705 2.94661 12.4542 2.33203 14.0013 2.33203C15.5484 2.33203 17.0321 2.94661 18.1261 4.04058C19.2201 5.13454 19.8346 6.61827 19.8346 8.16536V12.832" stroke="#F20000" stroke-width="2" stroke-linecap="round" stroke-linejoin="round"/>
</svg>
