<svg width="50" height="50" viewBox="0 0 50 50" fill="none" xmlns="http://www.w3.org/2000/svg">
<path d="M40.9949 40.366L40.2153 34.4265C40.2057 34.3535 40.1818 34.2831 40.1451 34.2193C40.1083 34.1555 40.0593 34.0996 40.0009 34.0547C39.9425 34.0099 39.8759 33.977 39.8048 33.9579C39.7337 33.9388 39.6595 33.9339 39.5865 33.9434C39.5135 33.953 39.4431 33.9769 39.3793 34.0136C39.3155 34.0504 39.2596 34.0994 39.2148 34.1578C39.1699 34.2162 39.137 34.2828 39.1179 34.3539C39.0988 34.425 39.0939 34.4992 39.1035 34.5722L39.7998 39.8782H17.9331L19.0052 31.7109L19.5308 27.707L20.9914 16.5771H36.7418L37.4343 21.8555C37.4536 22.0029 37.5307 22.1367 37.6487 22.2272C37.7666 22.3178 37.9157 22.3579 38.0631 22.3385C38.2105 22.3192 38.3442 22.2421 38.4348 22.1242C38.5254 22.0063 38.5654 21.8572 38.5461 21.7098L37.7895 15.9442C37.7718 15.8093 37.7057 15.6855 37.6034 15.5958C37.5012 15.5061 37.3698 15.4566 37.2338 15.4566H26.4422L25.6686 7.5254C25.655 7.38683 25.5904 7.25828 25.4872 7.16474C25.3841 7.0712 25.2499 7.01936 25.1106 7.01931H22.5751V5.04523C22.5736 3.7077 22.0417 2.42536 21.096 1.47953C20.1503 0.533698 18.868 0.0016109 17.5305 0L11.0185 0C10.8699 0 10.7273 0.0590573 10.6222 0.16418C10.517 0.269303 10.458 0.41188 10.458 0.560545C10.458 0.709211 10.517 0.851788 10.6222 0.956911C10.7273 1.06203 10.8699 1.12109 11.0185 1.12109H17.5305C18.5708 1.12228 19.5681 1.53606 20.3037 2.27166C21.0393 3.00726 21.4531 4.00461 21.4543 5.04491V10.7573H20.0129V5.04523C20.0122 4.38703 19.7505 3.75598 19.2851 3.29053C18.8197 2.82508 18.1887 2.56326 17.5305 2.56249H11.0185C10.3604 2.56326 9.72942 2.82504 9.26404 3.29042C8.79867 3.7558 8.53688 4.38677 8.53612 5.04491V10.7573H7.09472V5.04523C7.09315 4.22653 7.3497 3.42817 7.82791 2.76365C7.87539 2.70425 7.9103 2.63581 7.9305 2.5625C7.95069 2.48919 7.95576 2.41253 7.94539 2.33719C7.93503 2.26186 7.90944 2.18942 7.87019 2.12429C7.83094 2.05916 7.77884 2.00269 7.71708 1.95833C7.65531 1.91397 7.58516 1.88264 7.51091 1.86625C7.43665 1.84986 7.35983 1.84875 7.28513 1.86299C7.21043 1.87722 7.13941 1.90651 7.07639 1.94907C7.01337 1.99163 6.95966 2.04656 6.91854 2.11053C6.30328 2.96521 5.97319 3.99213 5.97523 5.04523V7.01931H3.43868C3.29942 7.01929 3.16515 7.0711 3.062 7.16465C2.95885 7.25821 2.89422 7.38681 2.8807 7.5254L0.924231 27.5788L0.43992 32.5437L0.0180698 36.8679C-0.033345 37.3907 0.0252546 37.9185 0.190098 38.4172C0.354942 38.916 0.622379 39.3748 0.975201 39.764C1.32802 40.1532 1.75842 40.4642 2.23869 40.6771C2.71896 40.89 3.23847 40.9999 3.76379 40.9999H40.4395C40.5193 40.9999 40.5981 40.9829 40.6708 40.9499C40.7435 40.917 40.8083 40.869 40.8609 40.809C40.9135 40.749 40.9527 40.6785 40.9758 40.6022C40.999 40.5258 41.0056 40.4454 40.9952 40.3663L40.9949 40.366ZM1.75384 30.624L1.99087 28.1945H18.3357L17.8312 32.0382H1.61578L1.75384 30.624ZM11.0185 3.68358H17.5305C17.8914 3.68401 18.2374 3.82757 18.4926 4.08278C18.7478 4.33798 18.8914 4.68399 18.8918 5.04491V7.01899H9.65721V5.04523C9.65755 4.68426 9.80107 4.33816 10.0563 4.08289C10.3115 3.82761 10.6576 3.68401 11.0185 3.68358ZM3.94701 8.1404H5.97362V11.3179C5.97362 11.4666 6.03268 11.6091 6.1378 11.7143C6.24293 11.8194 6.3855 11.8784 6.53417 11.8784H9.09666C9.24533 11.8784 9.38791 11.8194 9.49303 11.7143C9.59815 11.6091 9.65721 11.4666 9.65721 11.3179V8.1404H18.8918V11.3179C18.8918 11.4666 18.9509 11.6091 19.056 11.7143C19.1611 11.8194 19.3037 11.8784 19.4523 11.8784H22.0148C22.1635 11.8784 22.3061 11.8194 22.4112 11.7143C22.5163 11.6091 22.5754 11.4666 22.5754 11.3179V8.1404H24.602L25.316 15.4547H20.4998C20.3638 15.4548 20.2324 15.5043 20.1302 15.594C20.028 15.6836 19.9618 15.8074 19.944 15.9422L18.4818 27.0731H2.1001L3.94701 8.1404ZM1.80669 39.0111C1.5574 38.739 1.36856 38.4173 1.25262 38.067C1.13668 37.7166 1.09627 37.3458 1.13404 36.9787L1.50528 33.159H17.6842L16.8024 39.8788H3.76379C3.39479 39.8806 3.02959 39.8042 2.69225 39.6547C2.35491 39.5051 2.0531 39.2858 1.80669 39.0111ZM38.6233 26.6032C38.6963 26.5936 38.7705 26.5985 38.8416 26.6176C38.9127 26.6367 38.9794 26.6696 39.0378 26.7144C39.0962 26.7593 39.1451 26.8152 39.1819 26.879C39.2187 26.9428 39.2425 27.0132 39.2521 27.0862L39.5083 29.0491C39.5276 29.1965 39.4875 29.3455 39.397 29.4634C39.3064 29.5813 39.1727 29.6585 39.0253 29.6778C39.001 29.681 38.9765 29.6826 38.952 29.6826C38.8161 29.6824 38.6849 29.6329 38.5828 29.5432C38.4807 29.4535 38.4146 29.3298 38.3969 29.1951L38.1406 27.2323C38.1212 27.0848 38.1612 26.9357 38.2517 26.8178C38.3422 26.6998 38.4759 26.6226 38.6233 26.6032ZM26.5255 19.0182H23.963C23.8143 19.0182 23.6717 19.0772 23.5666 19.1824C23.4615 19.2875 23.4024 19.4301 23.4024 19.5787V22.9023C23.4037 23.985 23.8344 25.0231 24.6 25.7887C25.3656 26.5543 26.4036 26.985 27.4864 26.9863H30.2468C31.3296 26.985 32.3676 26.5543 33.1332 25.7887C33.8989 25.0231 34.3295 23.985 34.3308 22.9023V19.5787C34.3308 19.4301 34.2718 19.2875 34.1666 19.1824C34.0615 19.0772 33.9189 19.0182 33.7703 19.0182H31.2078C31.0591 19.0182 30.9165 19.0772 30.8114 19.1824C30.7063 19.2875 30.6472 19.4301 30.6472 19.5787V22.9023C30.6471 23.0084 30.6049 23.1102 30.5299 23.1853C30.4548 23.2604 30.353 23.3026 30.2468 23.3027H27.4864C27.3802 23.3026 27.2784 23.2604 27.2034 23.1853C27.1283 23.1102 27.0861 23.0084 27.086 22.9023V19.5787C27.086 19.4301 27.027 19.2875 26.9218 19.1824C26.8167 19.0772 26.6741 19.0182 26.5255 19.0182ZM27.4864 24.4234H30.2468C30.6502 24.423 31.037 24.2626 31.3222 23.9773C31.6075 23.6921 31.7679 23.3054 31.7683 22.902V20.1393H33.2097V22.9023C33.2089 23.6878 32.8964 24.441 32.341 24.9964C31.7855 25.5519 31.0324 25.8643 30.2468 25.8652H27.4864C26.7008 25.8643 25.9477 25.5519 25.3923 24.9964C24.8368 24.441 24.5244 23.6878 24.5235 22.9023V20.1393H25.9649V22.9023C25.9654 23.3056 26.1259 23.6923 26.4111 23.9775C26.6964 24.2626 27.0831 24.423 27.4864 24.4234Z" fill="url(#paint0_linear)"/>
<defs>
<linearGradient id="paint0_linear" x1="36.6396" y1="45.0313" x2="0.31244" y2="8.70415" gradientUnits="userSpaceOnUse">
<stop stop-color="#EA940B"/>
<stop offset="1" stop-color="#B80909"/>
</linearGradient>
</defs>
</svg>
