<svg width="24" height="30" viewBox="0 0 24 30" fill="none" xmlns="http://www.w3.org/2000/svg">
<path d="M21.4417 0.282593H11.7492C10.348 0.282593 9.20799 1.42257 9.20799 2.82378V13.9124C8.92354 13.8803 8.63458 13.8632 8.34173 13.8632C4.11455 13.8632 0.675476 17.3022 0.675476 21.5294C0.675476 25.7566 4.11455 29.1956 8.34173 29.1956C9.09917 29.1956 9.83103 29.0847 10.5226 28.8791C10.8865 29.0806 11.3046 29.1956 11.7492 29.1956H21.4417C22.8429 29.1956 23.9829 28.0557 23.9829 26.6545V2.82378C23.9829 1.42257 22.8429 0.282593 21.4417 0.282593ZM8.34173 27.5015C5.04869 27.5015 2.3696 24.8224 2.3696 21.5294C2.3696 18.2364 5.04869 15.5573 8.34173 15.5573C11.6347 15.5573 14.3138 18.2364 14.3138 21.5294C14.3138 24.8224 11.6347 27.5015 8.34173 27.5015ZM22.2888 26.6545C22.2888 27.1215 21.9088 27.5015 21.4417 27.5015H13.1425C14.019 26.7955 14.7376 25.9012 15.2358 24.8802H22.2888V26.6545ZM22.2888 23.1861H15.8271C15.9451 22.6524 16.0079 22.0981 16.0079 21.5294C16.0079 21.0877 15.9699 20.6547 15.8978 20.2332H22.2888V23.1861ZM22.2888 18.5391H15.4005C14.9085 17.3821 14.1399 16.3702 13.1784 15.5862H22.2888V18.5391ZM22.2888 13.8921H10.9021V10.9391H22.2888V13.8921ZM22.2888 9.24502H10.9021V6.29216H22.2888V9.24502ZM22.2888 4.59803H10.9021V2.82378C10.9021 2.35671 11.2821 1.97672 11.7492 1.97672H21.4417C21.9088 1.97672 22.2888 2.35671 22.2888 2.82378V4.59803Z" fill="#EA940B"/>
</svg>
