<svg width="14" height="9" viewBox="0 0 14 9" fill="none" xmlns="http://www.w3.org/2000/svg">
<g clip-path="url(#clip0_1294:467)">
<path d="M11.7398 8.41415L12.9817 6.73422L11.7423 8.59488L11.7449 8.78391C11.6543 8.78454 11.5645 8.78317 11.4756 8.77979L11.5372 6.34988L11.5355 6.33113L11.5378 6.32751L11.5437 6.09789L10.1836 4.30174L11.5421 5.92604L11.5469 5.97458L11.5934 4.13868L10.4187 2.27647L11.5967 3.81616L11.5845 0.012659L11.5845 0L11.5849 0.0124501L11.6629 3.01012L12.7335 1.79247L11.6664 3.26837L11.6897 4.91054L12.6749 3.30784L11.6934 5.15196L11.7064 6.06509L13.1391 3.83256L11.7107 6.38364L11.7398 8.41415Z" fill="#D0CDE1"/>
<path d="M6.99157 8.99978C9.89935 8.99978 12.2566 8.89052 12.2566 8.75575C12.2566 8.62097 9.89935 8.51172 6.99157 8.51172C4.08378 8.51172 1.72656 8.62097 1.72656 8.75575C1.72656 8.89052 4.08378 8.99978 6.99157 8.99978Z" fill="#D0CDE1"/>
<path d="M10.0656 8.92665C10.1536 8.92665 10.225 8.86175 10.225 8.78168C10.225 8.70162 10.1536 8.63672 10.0656 8.63672C9.9776 8.63672 9.90625 8.70162 9.90625 8.78168C9.90625 8.86175 9.9776 8.92665 10.0656 8.92665Z" fill="#3F3D56"/>
<path d="M10.0898 5.76949L9.66968 4.75473C9.66968 4.75473 9.73488 4.56364 9.56102 4.57682C9.38716 4.59 8.92353 4.73497 8.92353 4.73497C8.92353 4.73497 8.76416 4.74815 8.98149 4.95241L9.35818 6.02647L9.48133 5.97376L9.07566 4.90629C9.07566 4.90629 9.05393 4.83381 9.13361 4.81404C9.2133 4.79427 9.51755 4.67566 9.54653 4.74815C9.57551 4.82063 9.9522 5.86174 9.9522 5.86174L10.0898 5.76949Z" fill="#3F3D56"/>
<path d="M8.95875 6.46963L9.77009 8.67705C9.83573 8.71663 9.90696 8.74796 9.98184 8.77015C10.0495 8.79132 10.1193 8.80648 10.1903 8.81542C10.2167 8.81731 10.2432 8.8154 10.269 8.80975C10.6862 8.73398 12.1172 8.03788 12.1172 8.03788C12.1172 8.03788 11.3855 5.96225 11.2624 5.71186C11.1392 5.46146 10.864 5.55371 10.864 5.55371C10.864 5.55371 9.47345 5.89524 9.27387 5.95869C9.26974 5.96001 9.26612 5.9612 9.263 5.96225C9.17511 5.99109 9.0992 6.04402 9.04575 6.11374L9.04568 6.1138C8.84284 6.22582 8.95875 6.46963 8.95875 6.46963Z" fill="#08B29B"/>
<path opacity="0.2" d="M9.53906 5.87853L9.54298 5.89121C9.60577 5.87522 9.65927 6.00262 9.6598 6.0039L10.5508 8.25077L10.5644 8.24631L10.4515 7.96141L11.665 7.47385L11.7605 7.72357L11.7742 7.71923L10.9771 5.6363L10.9767 5.63567C10.9738 5.63159 10.9066 5.53606 10.8269 5.55529L10.8306 5.56803C10.8972 5.55191 10.9583 5.63419 10.964 5.64209L11.1327 6.08296L9.85697 6.46229L9.6734 5.99935C9.671 5.99355 9.61464 5.85927 9.53906 5.87853ZM11.1375 6.09541L11.2617 6.42017L10.0058 6.83767L9.86189 6.47469L11.1375 6.09541ZM10.1541 7.2116L10.0107 6.85007L11.2665 6.43262L11.3899 6.75505L10.1541 7.2116ZM11.3947 6.76751L11.5299 7.12098L10.2963 7.57003L10.159 7.22401L11.3947 6.76751ZM10.4465 7.94897L10.3012 7.58244L11.5347 7.13344L11.6602 7.46136L10.4465 7.94897Z" fill="black"/>
<path opacity="0.2" d="M9.04391 6.38889C9.11636 6.49432 9.9277 8.70174 9.9277 8.70174C9.94274 8.72549 9.96028 8.74784 9.98008 8.76849C10.0478 8.78966 10.1176 8.80482 10.1885 8.81376C10.2149 8.81565 10.2415 8.81374 10.2672 8.80809C10.2174 8.79175 10.1061 8.73884 10.0509 8.58314C9.97841 8.37887 9.18155 6.22416 9.18155 6.22416C9.18155 6.22416 9.20647 6.06167 9.27211 5.95703C9.26798 5.95835 9.26436 5.95954 9.26124 5.96059C9.17334 5.98943 9.09744 6.04236 9.04399 6.11208L9.04392 6.11214C9.04392 6.11214 8.97147 6.28347 9.04391 6.38889Z" fill="black"/>
<path d="M9.19077 6.87695L9.27045 7.10099C9.27045 7.10099 9.20525 7.54247 9.54573 7.8324L9.61817 8.05644L9.54331 8.05829L9.46426 7.8432C9.46426 7.8432 9.20164 7.55505 9.19982 7.12375L9.13281 6.87695H9.19077Z" fill="#3F3D56"/>
<path d="M10.5539 8.93055C10.6419 8.93055 10.7133 8.86565 10.7133 8.78559C10.7133 8.70553 10.6419 8.64062 10.5539 8.64062C10.4659 8.64062 10.3945 8.70553 10.3945 8.78559C10.3945 8.86565 10.4659 8.93055 10.5539 8.93055Z" fill="#3F3D56"/>
<path d="M12.1008 8.32118C12.1888 8.32118 12.2601 8.25628 12.2601 8.17621C12.2601 8.09615 12.1888 8.03125 12.1008 8.03125C12.0128 8.03125 11.9414 8.09615 11.9414 8.17621C11.9414 8.25628 12.0128 8.32118 12.1008 8.32118Z" fill="#3F3D56"/>
<path d="M6.37722 2.00781C6.37722 2.00781 6.00834 2.06882 5.99157 2.20609C5.98198 2.30248 5.98198 2.39947 5.99157 2.49587L6.37722 2.00781Z" fill="#0553C8"/>
<path d="M8.49106 5.21014C8.49106 5.21014 7.41794 5.56093 6.71371 5.2559C6.00947 4.95086 5.15433 4.56957 5.15433 4.56957C5.15433 4.56957 4.73514 4.60007 4.78544 4.37129C4.83574 4.14251 5.17109 2.81561 5.9424 2.3733C5.9424 2.3733 6.41189 1.82424 6.68017 1.85474C6.94845 1.88524 7.98804 4.14251 7.98804 4.14251L8.49106 5.21014Z" fill="#575A89"/>
<path opacity="0.2" d="M8.49106 5.21014C8.49106 5.21014 7.41794 5.56093 6.71371 5.2559C6.00947 4.95086 5.15433 4.56957 5.15433 4.56957C5.15433 4.56957 4.73514 4.60007 4.78544 4.37129C4.83574 4.14251 5.17109 2.81561 5.9424 2.3733C5.9424 2.3733 6.41189 1.82424 6.68017 1.85474C6.94845 1.88524 7.98804 4.14251 7.98804 4.14251L8.49106 5.21014Z" fill="black"/>
<path d="M9.06011 4.38672L9.12718 4.53924C9.12718 4.53924 9.56313 4.78327 9.37869 4.95104C9.19425 5.11881 8.91661 4.66888 8.91661 4.66888L8.80859 4.47823L9.06011 4.38672Z" fill="#A0616A"/>
<path d="M5.38738 7.11727L5.32031 8.16965L5.67243 8.30692L5.80657 7.04102L5.38738 7.11727Z" fill="#A0616A"/>
<path d="M6.8125 7.11719L7.28199 7.66625L7.41613 8.0323L7.75148 8.01705L7.83532 7.651L7.36583 7.22395L6.8125 7.11719Z" fill="#A0616A"/>
<path d="M6.77304 1.72399C7.02307 1.72399 7.22576 1.53962 7.22576 1.31219C7.22576 1.08476 7.02307 0.900391 6.77304 0.900391C6.523 0.900391 6.32031 1.08476 6.32031 1.31219C6.32031 1.53962 6.523 1.72399 6.77304 1.72399Z" fill="#A0616A"/>
<path d="M6.67969 1.62555L6.71322 2.00684L7.24978 1.85432C7.24978 1.85432 7.04857 1.56454 7.09888 1.48828L6.67969 1.62555Z" fill="#A0616A"/>
<path d="M6.67851 1.85481C6.67851 1.85481 6.9962 1.93107 7.18109 1.74805L7.56719 1.91582L7.06417 3.62402L6.00781 3.36474L6.17549 3.0292C6.17549 3.0292 5.95751 2.80042 6.19226 2.5869C6.19226 2.5869 6.24256 2.15985 6.39347 2.06834C6.49501 2.0047 6.59038 1.93326 6.67851 1.85481Z" fill="#F20000"/>
<path d="M7.1766 1.74023C7.1766 1.74023 6.60651 2.15203 7.22691 3.37218C7.84731 4.59233 8.3671 5.62945 8.56831 5.56845C8.76952 5.50744 9.45699 5.03463 9.22225 4.86686C8.9875 4.69909 7.99821 4.16528 7.86407 3.46369C7.72993 2.76211 8.04852 2.04527 8.04852 2.04527L7.1766 1.74023Z" fill="#0553C8"/>
<path d="M7.80277 2.20508L9.24478 4.41659L8.84236 4.56911L7.60156 3.04393L7.80277 2.20508Z" fill="#0553C8"/>
<path d="M6.09398 3.31836H5.97661L5.54065 4.17246C5.54065 4.17246 4.71904 6.42973 4.80288 6.88729C4.88672 7.34484 8.00554 7.28327 7.8378 7.26858C7.67821 7.25461 6.84794 3.77672 7.09165 3.58527L6.09398 3.31836Z" fill="#0553C8"/>
<path d="M5.43955 8.04584C5.43955 8.04584 5.40602 7.92383 5.27188 7.92383C5.13774 7.92383 5.13774 8.0916 5.13774 8.0916L4.75208 8.41189C4.75208 8.41189 4.41673 8.79318 4.85269 8.79318C5.28864 8.79318 5.28864 8.70167 5.28864 8.70167C5.28864 8.70167 5.40602 8.59491 5.50662 8.65591C5.60723 8.71692 5.84197 8.59491 5.80844 8.5339C5.7749 8.47289 5.72481 8.07822 5.69117 8.14592C5.65753 8.21361 5.43955 8.04584 5.43955 8.04584Z" fill="#2F2E41"/>
<path d="M7.66967 7.86322C7.66967 7.86322 7.7032 7.84797 7.53553 7.86322C7.36785 7.87847 7.30078 7.86322 7.30078 7.86322L7.41815 8.27502C7.41815 8.27502 7.31755 8.9766 7.6529 8.9156C7.98825 8.85459 7.98825 8.42754 7.98825 8.42754C7.98825 8.42754 7.93795 8.04624 7.97148 8.01574C8.00502 7.98524 7.98825 7.57344 7.93795 7.57344C7.88765 7.57344 7.64486 7.47461 7.64486 7.47461C7.64486 7.47461 7.80381 7.86322 7.66967 7.86322Z" fill="#2F2E41"/>
<path d="M6.78512 1.33697C6.75695 1.29754 6.77119 1.24391 6.75143 1.20045C6.72041 1.1322 6.624 1.11621 6.5431 1.10999C6.48951 1.10373 6.43524 1.10386 6.38169 1.11038C6.35802 1.11396 6.33558 1.12249 6.31615 1.1353C6.29673 1.14812 6.28084 1.16486 6.26974 1.18421C6.25777 1.20605 6.26079 1.13763 6.26846 1.04981C6.27622 0.960191 6.31506 0.875127 6.37939 0.806875C6.44371 0.738623 6.53019 0.690707 6.62637 0.670031C6.62752 0.669787 6.62865 0.669547 6.62977 0.669311C6.72827 0.648643 6.82984 0.633432 6.93023 0.644161C7.03063 0.65489 7.1307 0.694311 7.19335 0.766467C7.22199 0.799446 7.24224 0.838335 7.27421 0.868676C7.33037 0.921986 7.41364 0.941384 7.49012 0.96612C7.57781 0.991841 7.6585 1.03419 7.72687 1.09036C7.79303 1.14826 7.83993 1.22759 7.84131 1.31109C7.84293 1.40848 7.77481 1.509 7.66506 1.5282C7.64597 1.53123 7.62794 1.53831 7.61243 1.54886C7.50763 1.62277 7.62718 1.70015 7.62635 1.78335C7.62566 1.85279 7.54068 1.89804 7.46443 1.90127C7.39314 1.90244 7.32363 1.88102 7.2678 1.84067C7.21197 1.80033 7.17331 1.74358 7.15844 1.68016C7.14694 1.62318 7.15582 1.56465 7.1633 1.50712C7.17186 1.44127 7.01595 1.2862 7.11894 1.39986C7.13904 1.42146 7.15261 1.44745 7.15831 1.47528C7.17545 1.56608 7.08461 1.59662 7.02733 1.64693C6.99588 1.67539 6.97382 1.7113 6.96367 1.75058C6.95351 1.78986 6.95566 1.83094 6.96987 1.86917C6.92263 1.83024 6.89182 1.77754 6.88274 1.72015C6.87366 1.66277 6.88688 1.6043 6.92014 1.55483C6.93859 1.52909 6.96237 1.5067 6.97986 1.48041C7.00717 1.43939 7.0147 1.35017 6.93827 1.35262C6.88372 1.35437 6.82705 1.39568 6.78512 1.33697Z" fill="#2F2E41"/>
<path d="M2.97687 8.56878C2.97687 8.56878 2.30372 7.43858 0.675781 7.92728L2.97687 8.56878Z" fill="#D0CDE1"/>
<path d="M3.01913 8.54219C3.01913 8.54219 2.18664 7.57967 3.38822 6.37891L3.01913 8.54219Z" fill="#D0CDE1"/>
</g>
<defs>
<clipPath id="clip0_1294:467">
<rect width="12.4642" height="9" fill="white" transform="translate(0.675781)"/>
</clipPath>
</defs>
</svg>
