<svg width="14" height="9" viewBox="0 0 14 9" fill="none" xmlns="http://www.w3.org/2000/svg">
<g clip-path="url(#clip0)">
<path d="M11.7407 8.41415L12.9826 6.73422L11.7432 8.59488L11.7458 8.78391C11.6551 8.78454 11.5653 8.78317 11.4764 8.77979L11.538 6.34988L11.5363 6.33113L11.5386 6.32751L11.5445 6.09789L10.1844 4.30174L11.5429 5.92604L11.5477 5.97458L11.5943 4.13868L10.4195 2.27647L11.5976 3.81616L11.5853 0.012659L11.5853 0L11.5857 0.0124501L11.6637 3.01012L12.7343 1.79247L11.6672 3.26837L11.6906 4.91054L12.6758 3.30784L11.6942 5.15196L11.7072 6.06509L13.14 3.83256L11.7116 6.38364L11.7407 8.41415Z" fill="#D0CDE1"/>
<path d="M6.99022 8.99978C9.898 8.99978 12.2552 8.89052 12.2552 8.75575C12.2552 8.62097 9.898 8.51172 6.99022 8.51172C4.08244 8.51172 1.72522 8.62097 1.72522 8.75575C1.72522 8.89052 4.08244 8.99978 6.99022 8.99978Z" fill="#D0CDE1"/>
<path d="M10.0666 8.92665C10.1546 8.92665 10.2259 8.86175 10.2259 8.78168C10.2259 8.70162 10.1546 8.63672 10.0666 8.63672C9.97855 8.63672 9.9072 8.70162 9.9072 8.78168C9.9072 8.86175 9.97855 8.92665 10.0666 8.92665Z" fill="#3F3D56"/>
<path d="M10.0882 5.77047L9.66806 4.75571C9.66806 4.75571 9.73326 4.56462 9.5594 4.5778C9.38554 4.59098 8.92191 4.73594 8.92191 4.73594C8.92191 4.73594 8.76254 4.74912 8.97987 4.95339L9.35656 6.02745L9.47971 5.97473L9.07404 4.90727C9.07404 4.90727 9.05231 4.83478 9.132 4.81502C9.21168 4.79525 9.51593 4.67664 9.54491 4.74912C9.57389 4.8216 9.95058 5.86272 9.95058 5.86272L10.0882 5.77047Z" fill="#3F3D56"/>
<path d="M8.95823 6.46865L9.76957 8.67607C9.83521 8.71566 9.90644 8.74698 9.98132 8.76918C10.049 8.79034 10.1188 8.8055 10.1897 8.81445C10.2161 8.81633 10.2427 8.81442 10.2685 8.80878C10.6857 8.733 12.1167 8.03691 12.1167 8.03691C12.1167 8.03691 11.385 5.96127 11.2619 5.71088C11.1387 5.46049 10.8634 5.55274 10.8634 5.55274C10.8634 5.55274 9.47293 5.89426 9.27335 5.95772C9.26922 5.95903 9.2656 5.96022 9.26249 5.96127C9.17459 5.99012 9.09869 6.04304 9.04524 6.11276L9.04516 6.11283C8.84232 6.22485 8.95823 6.46865 8.95823 6.46865Z" fill="#08B29B"/>
<path opacity="0.2" d="M9.54059 5.87804L9.54451 5.89073C9.60729 5.87473 9.6608 6.00213 9.66133 6.00341L10.5523 8.25029L10.566 8.24582L10.453 7.96092L11.6665 7.47336L11.7621 7.72308L11.7758 7.71874L10.9786 5.63581L10.9782 5.63518C10.9754 5.6311 10.9082 5.53557 10.8284 5.5548L10.8321 5.56754C10.8987 5.55142 10.9598 5.6337 10.9655 5.6416L11.1342 6.08248L9.8585 6.4618L9.67492 5.99887C9.67252 5.99306 9.61617 5.85878 9.54059 5.87804ZM11.139 6.09492L11.2633 6.41968L10.0074 6.83718L9.86342 6.4742L11.139 6.09492ZM10.1556 7.21111L10.0123 6.84958L11.268 6.43213L11.3914 6.75456L10.1556 7.21111ZM11.3962 6.76702L11.5315 7.12049L10.2978 7.56955L10.1606 7.22352L11.3962 6.76702ZM10.448 7.94849L10.3027 7.58195L11.5362 7.13295L11.6617 7.46087L10.448 7.94849Z" fill="black"/>
<path opacity="0.2" d="M9.04514 6.38987C9.11758 6.4953 9.92892 8.70272 9.92892 8.70272C9.94396 8.72646 9.9615 8.74882 9.9813 8.76947C10.049 8.79064 10.1188 8.8058 10.1897 8.81474C10.2161 8.81663 10.2427 8.81471 10.2685 8.80907C10.2186 8.79273 10.1073 8.73982 10.0521 8.58411C9.97963 8.37984 9.18278 6.22514 9.18278 6.22514C9.18278 6.22514 9.20769 6.06265 9.27333 5.95801C9.2692 5.95933 9.26558 5.96051 9.26246 5.96157C9.17456 5.99041 9.09866 6.04334 9.04521 6.11305L9.04514 6.11312C9.04514 6.11312 8.97269 6.28444 9.04514 6.38987Z" fill="black"/>
<path d="M9.19003 6.87744L9.26972 7.10148C9.26972 7.10148 9.20452 7.54296 9.545 7.83289L9.61744 8.05693L9.54258 8.05877L9.46352 7.84368C9.46352 7.84368 9.2009 7.55554 9.19909 7.12424L9.13208 6.87744H9.19003Z" fill="#3F3D56"/>
<path d="M10.5555 8.93007C10.6435 8.93007 10.7149 8.86516 10.7149 8.7851C10.7149 8.70504 10.6435 8.64014 10.5555 8.64014C10.4675 8.64014 10.3961 8.70504 10.3961 8.7851C10.3961 8.86516 10.4675 8.93007 10.5555 8.93007Z" fill="#3F3D56"/>
<path d="M12.1021 8.3202C12.1902 8.3202 12.2615 8.2553 12.2615 8.17524C12.2615 8.09518 12.1902 8.03027 12.1021 8.03027C12.0141 8.03027 11.9428 8.09518 11.9428 8.17524C11.9428 8.2553 12.0141 8.3202 12.1021 8.3202Z" fill="#3F3D56"/>
<path d="M6.3782 2.00684C6.3782 2.00684 6.00931 2.06784 5.99255 2.20511C5.98295 2.30151 5.98295 2.3985 5.99255 2.49489L6.3782 2.00684Z" fill="#0553C8"/>
<path d="M8.49097 5.21014C8.49097 5.21014 7.41785 5.56093 6.71361 5.2559C6.00938 4.95086 5.15423 4.56957 5.15423 4.56957C5.15423 4.56957 4.73505 4.60007 4.78535 4.37129C4.83565 4.14251 5.171 2.81561 5.94231 2.3733C5.94231 2.3733 6.4118 1.82424 6.68008 1.85474C6.94836 1.88524 7.98795 4.14251 7.98795 4.14251L8.49097 5.21014Z" fill="#575A89"/>
<path opacity="0.2" d="M8.49097 5.21014C8.49097 5.21014 7.41785 5.56093 6.71361 5.2559C6.00938 4.95086 5.15423 4.56957 5.15423 4.56957C5.15423 4.56957 4.73505 4.60007 4.78535 4.37129C4.83565 4.14251 5.171 2.81561 5.94231 2.3733C5.94231 2.3733 6.4118 1.82424 6.68008 1.85474C6.94836 1.88524 7.98795 4.14251 7.98795 4.14251L8.49097 5.21014Z" fill="black"/>
<path d="M9.06105 4.38623L9.12812 4.53875C9.12812 4.53875 9.56408 4.78278 9.37963 4.95055C9.19519 5.11832 8.91756 4.66839 8.91756 4.66839L8.80954 4.47774L9.06105 4.38623Z" fill="#A0616A"/>
<path d="M5.38897 7.1163L5.3219 8.16868L5.67402 8.30594L5.80816 7.04004L5.38897 7.1163Z" fill="#A0616A"/>
<path d="M6.81418 7.11621L7.28367 7.66528L7.41781 8.03132L7.75316 8.01607L7.837 7.65002L7.36751 7.22297L6.81418 7.11621Z" fill="#A0616A"/>
<path d="M6.77224 1.72497C7.02227 1.72497 7.22497 1.5406 7.22497 1.31317C7.22497 1.08574 7.02227 0.901367 6.77224 0.901367C6.52221 0.901367 6.31952 1.08574 6.31952 1.31317C6.31952 1.5406 6.52221 1.72497 6.77224 1.72497Z" fill="#A0616A"/>
<path d="M6.68005 1.62555L6.71359 2.00684L7.25015 1.85432C7.25015 1.85432 7.04894 1.56454 7.09924 1.48828L6.68005 1.62555Z" fill="#A0616A"/>
<path d="M6.68004 1.85432C6.68004 1.85432 6.99772 1.93058 7.18261 1.74756L7.56872 1.91533L7.06569 3.62353L6.00934 3.36425L6.17701 3.02871C6.17701 3.02871 5.95904 2.79994 6.19378 2.58641C6.19378 2.58641 6.24408 2.15936 6.39499 2.06785C6.49654 2.00421 6.59191 1.93277 6.68004 1.85432Z" fill="#F20000"/>
<path d="M7.17468 1.74023C7.17468 1.74023 6.60459 2.15203 7.22498 3.37218C7.84538 4.59233 8.36518 5.62945 8.56639 5.56845C8.7676 5.50744 9.45507 5.03463 9.22032 4.86686C8.98558 4.69909 7.99629 4.16528 7.86215 3.46369C7.72801 2.76211 8.04659 2.04527 8.04659 2.04527L7.17468 1.74023Z" fill="#0553C8"/>
<path d="M7.80351 2.20508L9.24551 4.41659L8.84309 4.56911L7.60229 3.04393L7.80351 2.20508Z" fill="#0553C8"/>
<path d="M6.09319 3.31885H5.97581L5.53986 4.17295C5.53986 4.17295 4.71825 6.43022 4.80209 6.88778C4.88593 7.34533 8.00475 7.28376 7.83701 7.26907C7.67742 7.2551 6.84715 3.77721 7.09086 3.58575L6.09319 3.31885Z" fill="#0553C8"/>
<path d="M5.43922 8.04682C5.43922 8.04682 5.40568 7.9248 5.27154 7.9248C5.1374 7.9248 5.1374 8.09257 5.1374 8.09257L4.75175 8.41286C4.75175 8.41286 4.4164 8.79416 4.85235 8.79416C5.28831 8.79416 5.28831 8.70265 5.28831 8.70265C5.28831 8.70265 5.40568 8.59588 5.50629 8.65689C5.60689 8.7179 5.84164 8.59588 5.8081 8.53488C5.77457 8.47387 5.72447 8.0792 5.69083 8.14689C5.6572 8.21459 5.43922 8.04682 5.43922 8.04682Z" fill="#2F2E41"/>
<path d="M7.66936 7.86371C7.66936 7.86371 7.7029 7.84846 7.53522 7.86371C7.36755 7.87896 7.30048 7.86371 7.30048 7.86371L7.41785 8.27551C7.41785 8.27551 7.31724 8.97709 7.65259 8.91609C7.98795 8.85508 7.98795 8.42803 7.98795 8.42803C7.98795 8.42803 7.93764 8.04673 7.97118 8.01623C8.00471 7.98572 7.98795 7.57393 7.93764 7.57393C7.88734 7.57393 7.64455 7.4751 7.64455 7.4751C7.64455 7.4751 7.8035 7.86371 7.66936 7.86371Z" fill="#2F2E41"/>
<path d="M6.78601 1.33795C6.75784 1.29851 6.77207 1.24489 6.75232 1.20143C6.7213 1.13318 6.62489 1.11719 6.54399 1.11096C6.49039 1.10471 6.43613 1.10484 6.38257 1.11136C6.3589 1.11494 6.33647 1.12347 6.31704 1.13628C6.29761 1.14909 6.28172 1.16584 6.27062 1.18519C6.25865 1.20702 6.26167 1.13861 6.26934 1.05079C6.27711 0.961168 6.31595 0.876104 6.38027 0.807852C6.44459 0.7396 6.53108 0.691684 6.62726 0.671008C6.6284 0.670764 6.62953 0.670524 6.63066 0.670288C6.72916 0.649619 6.83072 0.634409 6.93112 0.645138C7.03151 0.655867 7.13158 0.695287 7.19424 0.767444C7.22288 0.800422 7.24313 0.839312 7.27509 0.869653C7.33126 0.922962 7.41452 0.942361 7.49101 0.967097C7.57869 0.992818 7.65939 1.03516 7.72776 1.09134C7.79392 1.14923 7.84081 1.22857 7.8422 1.31206C7.84381 1.40946 7.7757 1.50997 7.66594 1.52918C7.64686 1.5322 7.62883 1.53928 7.61331 1.54984C7.50851 1.62375 7.62806 1.70112 7.62723 1.78433C7.62654 1.85376 7.54157 1.89901 7.46532 1.90225C7.39403 1.90342 7.32451 1.88199 7.26869 1.84165C7.21286 1.80131 7.1742 1.74456 7.15932 1.68113C7.14783 1.62415 7.1567 1.56563 7.16418 1.5081C7.17274 1.44224 7.01683 1.28718 7.11982 1.40084C7.13992 1.42244 7.15349 1.44843 7.1592 1.47625C7.17634 1.56705 7.0855 1.59759 7.02821 1.64791C6.99676 1.67637 6.97471 1.71227 6.96455 1.75155C6.9544 1.79083 6.95655 1.83192 6.97076 1.87015C6.92352 1.83122 6.8927 1.77852 6.88362 1.72113C6.87454 1.66374 6.88777 1.60527 6.92102 1.55581C6.93948 1.53007 6.96325 1.50767 6.98075 1.48139C7.00805 1.44037 7.01558 1.35115 6.93916 1.3536C6.88461 1.35535 6.82794 1.39666 6.78601 1.33795Z" fill="#2F2E41"/>
<path d="M2.9769 8.56926C2.9769 8.56926 2.30375 7.43906 0.675812 7.92777L2.9769 8.56926Z" fill="#D0CDE1"/>
<path d="M3.01749 8.54122C3.01749 8.54122 2.18499 7.57869 3.38657 6.37793L3.01749 8.54122Z" fill="#D0CDE1"/>
</g>
<defs>
<clipPath id="clip0">
<rect width="12.4642" height="9" fill="white" transform="translate(0.675812)"/>
</clipPath>
</defs>
</svg>
