<svg width="21" height="21" viewBox="0 0 21 21" fill="none" xmlns="http://www.w3.org/2000/svg">
<path d="M14 1.3125H7C6.53587 1.3125 6.09075 1.49687 5.76256 1.82506C5.43437 2.15325 5.25 2.59837 5.25 3.0625V17.0625C5.25 17.5266 5.43437 17.9717 5.76256 18.2999C6.09075 18.6281 6.53587 18.8125 7 18.8125H17.5C17.9641 18.8125 18.4092 18.6281 18.7374 18.2999C19.0656 17.9717 19.25 17.5266 19.25 17.0625V6.5625L14 1.3125Z" stroke="#0553C8" stroke-width="2" stroke-linecap="round" stroke-linejoin="round"/>
<path d="M14 1.3125V6.5625H19.25" stroke="#0553C8" stroke-width="2" stroke-linecap="round" stroke-linejoin="round"/>
<path d="M15.75 10.9375H8.75" stroke="#0553C8" stroke-width="2" stroke-linecap="round" stroke-linejoin="round"/>
<path d="M15.75 14.4375H8.75" stroke="#0553C8" stroke-width="2" stroke-linecap="round" stroke-linejoin="round"/>
<path d="M10.5 7.4375H9.625H8.75" stroke="#0553C8" stroke-width="2" stroke-linecap="round" stroke-linejoin="round"/>
</svg>
