<svg width="13" height="13" viewBox="0 0 13 13" fill="none" xmlns="http://www.w3.org/2000/svg">
<path d="M1.625 3.25H2.70833H11.375" stroke="#089985" stroke-linecap="round" stroke-linejoin="round"/>
<path d="M4.33301 3.25016V2.16683C4.33301 1.87951 4.44714 1.60396 4.65031 1.4008C4.85347 1.19763 5.12902 1.0835 5.41634 1.0835H7.58301C7.87033 1.0835 8.14588 1.19763 8.34904 1.4008C8.5522 1.60396 8.66634 1.87951 8.66634 2.16683V3.25016M10.2913 3.25016V10.8335C10.2913 11.1208 10.1772 11.3964 9.97404 11.5995C9.77088 11.8027 9.49533 11.9168 9.20801 11.9168H3.79134C3.50402 11.9168 3.22847 11.8027 3.02531 11.5995C2.82214 11.3964 2.70801 11.1208 2.70801 10.8335V3.25016H10.2913Z" stroke="#089985" stroke-linecap="round" stroke-linejoin="round"/>
</svg>
