<svg width="13" height="13" viewBox="0 0 13 13" fill="none" xmlns="http://www.w3.org/2000/svg">
<path d="M8.66671 8.66667L6.50004 6.5L4.33337 8.66667" stroke="#08B29B" stroke-width="2" stroke-linecap="round" stroke-linejoin="round"/>
<path d="M6.5 6.5V11.375" stroke="#08B29B" stroke-width="2" stroke-linecap="round" stroke-linejoin="round"/>
<path d="M11.0446 9.9609C11.5729 9.67288 11.9903 9.21712 12.2308 8.66557C12.4713 8.11401 12.5213 7.49806 12.3729 6.91494C12.2245 6.33181 11.8861 5.81471 11.4111 5.44526C10.9362 5.07581 10.3517 4.87504 9.75001 4.87465H9.06751C8.90356 4.24048 8.59797 3.65174 8.17373 3.15268C7.74949 2.65362 7.21763 2.25723 6.61815 1.99331C6.01866 1.72938 5.36714 1.6048 4.71257 1.62892C4.058 1.65303 3.41742 1.82522 2.83898 2.13255C2.26054 2.43987 1.75929 2.87433 1.37293 3.40325C0.986564 3.93218 0.725133 4.54181 0.60829 5.18632C0.491447 5.83082 0.522233 6.49343 0.698333 7.12433C0.874433 7.75522 1.19127 8.33799 1.62501 8.82881" stroke="#08B29B" stroke-linecap="round" stroke-linejoin="round"/>
<path d="M8.66671 8.66667L6.50004 6.5L4.33337 8.66667" stroke="#08B29B" stroke-width="2" stroke-linecap="round" stroke-linejoin="round"/>
</svg>
