<svg width="71" height="71" viewBox="0 0 71 71" fill="none" xmlns="http://www.w3.org/2000/svg">
<path d="M27.5083 43.036C35.5611 52.834 45.4883 53.7357 54.5309 49.196C67.1078 42.8841 71.4914 29.7789 55.6924 22.882C40.4289 16.2165 28.9013 2.46381 17.6947 11.6285C6.97083 20.397 17.6918 31.0981 27.5083 43.036Z" fill="#F8DF59"/>
<path opacity="0.9" d="M27.5083 43.036C35.5611 52.834 45.4883 53.7357 54.5309 49.196C67.1078 42.8841 71.4914 29.7789 55.6924 22.882C40.4289 16.2165 28.9013 2.46381 17.6947 11.6285C6.97083 20.397 17.6918 31.0981 27.5083 43.036Z" fill="white"/>
<path d="M53.9779 47.2177C62.357 38.8386 62.357 25.2532 53.9779 16.8741C45.5987 8.4949 32.0134 8.4949 23.6342 16.8741C15.2551 25.2532 15.2551 38.8386 23.6342 47.2177C32.0134 55.5969 45.5987 55.5969 53.9779 47.2177Z" fill="#F8DF59"/>
<path opacity="0.7" d="M53.9779 47.2177C62.357 38.8386 62.357 25.2532 53.9779 16.8741C45.5987 8.4949 32.0134 8.4949 23.6342 16.8741C15.2551 25.2532 15.2551 38.8386 23.6342 47.2177C32.0134 55.5969 45.5987 55.5969 53.9779 47.2177Z" fill="white"/>
<g opacity="0.2">
<path opacity="0.2" d="M59.7652 36.657L59.4315 35.9186L58.2075 35.7851L57.2262 35.1717L56.201 34.6193L55.349 33.4166L54.169 32.4098L53.5811 34.0953L54.2031 35.068L55.2496 35.6488L55.7778 36.7422L56.6526 37.4153L57.5898 37.8172L57.2703 38.9446L56.9422 40.163L56.7051 41.512L55.4001 41.4296L54.4317 42.1865L53.361 42.5727L52.2747 42.239L51.3375 41.4012L50.1873 40.6117L48.9221 39.9415L48.2121 38.7458L47.7506 37.7433L47.167 36.6911L47.1457 35.4983L47.1158 34.3069L46.5933 33.276L46.19 35.0013L45.7796 36.0478L45.8038 37.2009L45.365 38.2772L44.8254 39.5552L44.5414 40.8332L45.2911 41.2947L46.4896 41.3856L45.5553 42.5301L44.7033 43.5895L43.7987 44.6133L42.6627 45.4852L41.362 46.0319L40.1067 46.6652L38.6555 46.9236L37.6146 47.9829L36.162 48.2258L34.857 48.8903L33.5122 49.4157L32.0681 49.4299L31.0599 48.923L29.6257 48.9045L30.2491 47.7941L30.5899 46.8114L31.0159 45.4113L31.2402 43.9203L31.5242 42.4847L31.919 41.2891L32.3805 40.0679L31.9545 38.7416L32.5679 37.4721L31.8721 36.3886L31.0982 35.4543L30.1042 34.6875L29.4823 33.6424L29.0094 32.5788L28.6629 31.4513L28.4869 30.2301L28.0708 28.9336L29.194 27.8729L29.8643 26.5821L31.0414 25.8437L32.1689 25.9531L33.4469 26.1036L34.7079 26.3535L36.0867 26.1291L37.1574 27.2495L38.539 27.6897L39.7702 28.4082L40.9928 29.1452L42.2296 29.8794L43.1043 31.1091L44.4391 31.7126L45.6859 31.5706L46.8972 31.6828L48.09 31.9412L49.5213 32.397L49.0698 30.6447L48.621 29.1765L47.7122 28.7221L46.9682 27.7096L45.8975 27.3077L44.9035 26.8562L44.7771 25.7784L44.4462 24.7077L44.1878 23.5717L42.8189 22.9242L41.3592 22.6075L40.0528 22.3576L39.0985 23.0676L37.8461 23.1557L36.4673 23.3658L34.9053 22.0111L35.851 21.0995L35.8183 19.8542L36.4559 18.9099L37.9568 18.2354L38.9934 17.0766L40.2061 17.3337L41.3521 18.0579H42.7408L44.0572 17.5381L45.4317 17.7327L46.5166 17.1235L47.2735 16.2062L48.1042 15.3854L49.3694 15.2051L50.5622 15.793H51.8146L52.9804 16.0287L53.3255 16.2417C56.0903 18.7844 58.1399 22.0077 59.2699 25.5899C60.3999 29.1722 60.5706 32.9881 59.7652 36.657V36.657Z" fill="#F8DF59"/>
<path opacity="0.2" d="M40.412 48.0073L39.7844 48.9048L38.4098 49.203L37.332 49.592L38.8727 50.1004H40.2033L41.3094 49.264L41.4585 48.6051L40.412 48.0073Z" fill="#F8DF59"/>
<path opacity="0.2" d="M24.3377 47.8537L24.3122 47.8665C21.6537 45.4288 19.6515 42.361 18.4902 38.9461V38.9461L18.3837 38.388L18.2062 38.0415C17.1334 34.381 17.0618 30.4998 17.9989 26.8022L18.2587 27.7451L18.5711 29.0686L19.3621 30.3068L19.3124 31.7538L19.9869 33.019L20.1289 34.3992L20.2169 35.5352L20.0536 36.6599L19.399 37.7093L19.8108 39.071L20.4796 40.2454L20.8914 41.2621L21.0632 42.6622L21.7732 43.6392L22.0572 44.8377L22.8581 45.7706L23.4119 46.8313L24.3377 47.8537Z" fill="#F8DF59"/>
<path opacity="0.2" d="M41.9147 11.5799L41.074 11.9278L40.0005 12.544L38.9085 13.1234L37.7967 13.6417L36.5641 13.8448L35.4068 14.2182L34.2452 13.832L33.0411 13.5806L31.8838 13.1404L30.6995 13.264L29.4769 13.8022L28.4829 14.7436L27.7132 15.9378L26.3302 16.4419L25.6017 17.6575L24.8122 18.6586L24.6134 19.982L23.6733 20.9362L23.2743 22.1518L22.4465 23.1614L22.117 24.2974L21.0478 24.1412L19.872 23.9182L19.0654 23.6456C20.9015 19.3304 24.1002 15.7353 28.1727 13.4099C32.2451 11.0846 36.967 10.157 41.6165 10.769L41.9147 11.5799Z" fill="#F8DF59"/>
</g>
<path d="M60.5117 24.9549C57.2542 27.731 49.9497 26.649 48.1719 26.064C46.394 25.4789 49.234 25.7956 50.6626 25.496C52.0911 25.1963 52.6236 23.9538 54.772 24.928C56.9205 25.9021 56.9134 26.1861 57.8265 25.1154C58.7395 24.0447 62.3577 23.383 60.5117 24.9549Z" fill="white"/>
<path d="M17.6496 38.8084C19.7044 44.2811 29.1516 47.824 31.6565 48.3011C34.1614 48.7782 30.566 47.2787 29.0537 45.9808C27.5414 44.6829 27.7331 42.8383 24.5224 42.5728C21.3118 42.3073 21.1315 42.658 20.7495 40.7751C20.3675 38.8922 16.4852 35.7085 17.6496 38.8084Z" fill="white"/>
<path d="M32.606 24.7536C26.8664 23.585 21.3965 20.1244 20.8896 18.2415C20.59 17.1311 21.4164 18.2571 22.3493 18.605C23.2823 18.9529 25.2831 17.719 25.8511 19.2C26.4191 20.6811 25.9334 21.4891 27.5153 22.023C29.0972 22.5569 30.1182 21.8369 31.0227 23.1007C31.9273 24.3645 34.1737 25.0731 32.606 24.7536Z" fill="white"/>
<path d="M46.8841 43.8327C39.0656 43.357 31.1761 39.7971 30.1523 37.3987C29.5488 35.9787 30.8537 37.322 32.1545 37.6075C33.4552 37.8929 35.8734 35.8864 36.9029 37.7409C37.9324 39.5955 37.4383 40.757 39.6322 41.1688C41.8261 41.5806 43.0402 40.4347 44.48 41.9399C45.9199 43.4451 49.0198 43.962 46.8841 43.8327Z" fill="white"/>
<path d="M51.7732 49.9515C48.3652 52.3072 41.7437 52.1411 40.4813 51.0761C39.7372 50.4485 41.4483 50.4442 42.2861 50.3533C43.1239 50.2624 44.1705 48.5712 45.1631 49.4758C46.1556 50.3803 45.5564 50.8958 46.9139 50.5095C48.2715 50.1233 48.635 49.1236 49.8746 49.5666C51.1143 50.0097 52.8865 49.1818 51.7732 49.9515Z" fill="white"/>
<path d="M47.4906 18.8701C51.6086 19.9578 56.0475 18.9894 56.8058 17.5637C57.2531 16.7231 56.4493 17.3848 55.745 17.3436C55.0407 17.3024 53.9714 15.5189 53.26 16.5782C52.5486 17.6376 52.692 18.5066 51.5163 18.3873C50.3405 18.268 49.8123 17.2811 48.9205 18.0337C48.0287 18.7863 46.3659 18.5733 47.4906 18.8701Z" fill="white"/>
<path d="M27.409 35.1821L26.7246 34.597L28.0182 32.9541L28.7041 33.5391L27.409 35.1821Z" fill="#7F3E3B"/>
<path d="M26.9804 34.3202L27.7401 34.9464C27.7538 34.9573 27.7631 34.9728 27.7662 34.99C27.7693 35.0073 27.7661 35.0251 27.7571 35.0401L27.3538 35.7501C27.3433 35.7671 27.3293 35.7817 27.3128 35.793C27.2962 35.8042 27.2775 35.8118 27.2578 35.8153C27.238 35.8188 27.2178 35.8181 27.1984 35.8132C27.179 35.8083 27.1608 35.7994 27.1451 35.787C26.8767 35.5556 26.4947 35.219 26.1511 34.935C25.7492 34.6027 25.7762 34.651 25.2991 34.2634C25.0151 34.0276 25.1869 33.6854 25.3289 33.7593C25.9764 34.093 26.0389 34.1327 26.7603 34.2421C26.8395 34.2471 26.9157 34.2741 26.9804 34.3202V34.3202Z" fill="#263238"/>
<path opacity="0.2" d="M28.018 32.9556L27.3521 33.8019L28.0365 34.3869L28.7039 33.5392L28.018 32.9556Z" fill="black"/>
<path d="M32.5948 30.4536C37.3106 30.7958 38.5275 31.7202 40.7129 30.9435L40.9188 28.9058L38.103 27.8394C38.103 27.8394 34.7063 27.3708 32.0864 28.0694C29.3629 28.795 27.5098 33.1544 27.5098 33.1544L28.6855 34.0064C28.6855 34.0064 29.5886 31.4944 32.5948 30.4536Z" fill="black"/>
<path d="M27.5726 32.7241L27.2729 33.2822L28.4927 34.3117L28.913 33.897L27.5726 32.7241Z" fill="#263238"/>
<path d="M28.0492 44.605L23.846 43.9674C23.484 43.9121 23.1381 43.7796 22.8318 43.579C22.5255 43.3784 22.2659 43.1143 22.0705 42.8046C21.8751 42.4949 21.7486 42.1469 21.6994 41.784C21.6502 41.4211 21.6796 41.052 21.7855 40.7014V40.7014C21.893 40.3511 22.0746 40.0279 22.3179 39.7539C22.5613 39.4798 22.8607 39.2613 23.196 39.1132C23.5312 38.965 23.8943 38.8907 24.2608 38.8952C24.6273 38.8998 24.9885 38.983 25.3199 39.1394L29.1639 40.9556C29.3935 41.0642 29.5763 41.2518 29.6791 41.4841C29.7818 41.7164 29.7975 41.9779 29.7233 42.2208L29.2192 43.8737C29.144 44.1155 28.9845 44.3222 28.7698 44.4564C28.5551 44.5906 28.2994 44.6433 28.0492 44.605V44.605Z" fill="#F8DF59"/>
<path opacity="0.4" d="M28.0492 44.605L23.846 43.9674C23.484 43.9121 23.1381 43.7796 22.8318 43.579C22.5255 43.3784 22.2659 43.1143 22.0705 42.8046C21.8751 42.4949 21.7486 42.1469 21.6994 41.784C21.6502 41.4211 21.6796 41.052 21.7855 40.7014V40.7014C21.893 40.3511 22.0746 40.0279 22.3179 39.7539C22.5613 39.4798 22.8607 39.2613 23.196 39.1132C23.5312 38.965 23.8943 38.8907 24.2608 38.8952C24.6273 38.8998 24.9885 38.983 25.3199 39.1394L29.1639 40.9556C29.3935 41.0642 29.5763 41.2518 29.6791 41.4841C29.7818 41.7164 29.7975 41.9779 29.7233 42.2208L29.2192 43.8737C29.144 44.1155 28.9845 44.3222 28.7698 44.4564C28.5551 44.5906 28.2994 44.6433 28.0492 44.605V44.605Z" fill="black"/>
<path d="M26.7316 33.3087C27.5097 33.4777 28.6457 33.5927 28.8616 33.2037C30.1239 30.9075 31.9856 27.2397 32.3917 26.4189C32.4542 26.2968 32.3775 26.186 32.1758 26.0994L29.4196 24.9109C28.8431 24.6993 28.1416 24.8853 27.6134 25.0884C24.3715 26.3436 18.3749 28.9224 16.9946 29.959C18.4601 31.2994 24.0847 32.7322 26.7316 33.3087Z" fill="#F8DF59"/>
<path opacity="0.2" d="M26.7316 33.3087C27.5097 33.4777 28.6457 33.5927 28.8616 33.2037C30.1239 30.9075 31.9856 27.2397 32.3917 26.4189C32.4542 26.2968 32.3775 26.186 32.1758 26.0994L29.4196 24.9109C28.8431 24.6993 28.1416 24.8853 27.6134 25.0884C24.3715 26.3436 18.3749 28.9224 16.9946 29.959C18.4601 31.2994 24.0847 32.7322 26.7316 33.3087Z" fill="black"/>
<path d="M50.4374 36.8917C50.7413 36.8988 51.0721 36.8207 50.8023 36.5367C49.1849 34.8412 46.5665 32.1517 45.9843 31.5553C45.9003 31.4671 45.7937 31.4038 45.6761 31.3721L44.1141 30.9547C43.8173 30.8908 43.8216 31.1094 43.877 31.3153C44.2192 32.5848 45.0641 35.1039 45.6236 35.98C47.0379 36.6716 49.4065 36.8661 50.4374 36.8917Z" fill="#F8DF59"/>
<path opacity="0.2" d="M50.4374 36.8917C50.7413 36.8988 51.0721 36.8207 50.8023 36.5367C49.1849 34.8412 46.5665 32.1517 45.9843 31.5553C45.9003 31.4671 45.7937 31.4038 45.6761 31.3721L44.1141 30.9547C43.8173 30.8908 43.8216 31.1094 43.877 31.3153C44.2192 32.5848 45.0641 35.1039 45.6236 35.98C47.0379 36.6716 49.4065 36.8661 50.4374 36.8917Z" fill="black"/>
<path d="M24.4949 25.7532C24.0561 25.6567 23.6216 25.5672 23.2056 25.4877L23.2325 25.3457C23.65 25.4252 24.0846 25.5147 24.5248 25.6112L24.4949 25.7532Z" fill="#F8DF59"/>
<path d="M22.1701 25.3C20.6409 25.0251 19.0917 24.877 17.5381 24.8569C16.9136 24.8543 16.2895 24.8899 15.6694 24.9634L15.6523 24.8214C16.2783 24.7486 16.908 24.7131 17.5381 24.7149C19.0997 24.7354 20.657 24.884 22.1943 25.1594L22.1701 25.3Z" fill="#F8DF59"/>
<path d="M12.4804 26.3468C19.1885 22.2288 37.3304 30.5145 47.0972 32.6772C51.6327 33.6825 48.8566 37.3717 46.6826 37.8545C44.5085 38.3373 17.8764 40.1265 9.1193 36.1505C0.362165 32.1745 9.3394 28.278 12.4804 26.3468Z" fill="#F8DF59"/>
<path d="M46.1229 37.9422C47.2747 37.8572 48.3766 37.4376 49.2933 36.7351C50.21 36.0325 50.9016 35.0776 51.2832 33.9875C52.0244 31.9186 52.5498 30.4375 52.5498 30.4375C51.9698 30.1049 51.3172 29.9192 50.649 29.8964C49.9808 29.8737 49.3171 30.0146 48.7158 30.3069L43.6904 32.7521L46.1229 37.9422Z" fill="#F8DF59"/>
<path opacity="0.2" d="M45.8804 35.0386C46.2169 35.8778 47.1882 36.8746 47.9053 37.5321C48.6667 37.2254 49.3544 36.7608 49.9231 36.1689L45.8804 35.0386Z" fill="black"/>
<path opacity="0.2" d="M48.7583 35.7016C47.8574 35.7859 46.9522 35.8177 46.0476 35.7968C45.1416 35.7812 44.2356 35.7073 43.3325 35.615C42.4294 35.5227 41.5305 35.3793 40.6345 35.2259C37.049 34.5827 33.543 33.5432 30.0853 32.3561C29.2206 32.0608 28.3572 31.7555 27.4867 31.4473C27.048 31.2968 26.6191 31.142 26.1534 31C25.9105 30.9375 25.6706 30.858 25.4221 30.8126L25.0486 30.7444C24.9248 30.7193 24.7996 30.7013 24.6737 30.6905C23.6583 30.5754 22.6303 30.6525 21.6434 30.9177C21.1565 31.0554 20.6816 31.2326 20.2234 31.4473C19.7678 31.6624 19.3296 31.9126 18.9128 32.1957L18.6018 32.4143L18.3022 32.6444L18.0182 32.8787C17.9358 32.9483 17.852 33.0207 17.7654 33.086C17.4275 33.3586 17.0725 33.6213 16.7118 33.8755C15.9864 34.3817 15.2341 34.8481 14.4582 35.2728C13.6996 35.6949 12.9086 36.0558 12.0925 36.352C11.713 36.4906 11.3225 36.5975 10.9253 36.6715C10.8145 36.6914 10.7052 36.707 10.6001 36.7155C11.7877 37.0872 12.9988 37.3789 14.2254 37.5888C14.6272 37.3843 15.0177 37.1628 15.4025 36.9385C16.223 36.4526 17.0157 35.9212 17.7768 35.3466C18.1588 35.0626 18.5322 34.7602 18.8986 34.4449C18.9895 34.3668 19.0803 34.2845 19.1698 34.205L19.4112 33.9905L19.6498 33.7932L19.8983 33.6043C20.2335 33.3599 20.5867 33.1411 20.9547 32.9497C21.3199 32.7622 21.6998 32.605 22.0907 32.4797C22.8757 32.2389 23.6989 32.1478 24.5175 32.2113C24.6204 32.2157 24.7229 32.2271 24.8242 32.2454L25.131 32.288C25.3354 32.322 25.5371 32.3803 25.7401 32.43C26.1576 32.5407 26.5921 32.6799 27.0323 32.8134C27.9071 33.0874 28.7875 33.3657 29.6707 33.6341C33.2037 34.7076 36.8034 35.6392 40.4812 36.1646C41.4013 36.2895 42.3272 36.3974 43.2502 36.467C44.1732 36.5366 45.1075 36.5707 46.0405 36.5536C46.9747 36.542 47.9074 36.4747 48.8336 36.352C49.199 36.3018 49.5621 36.2417 49.9227 36.1717C50.1452 35.9457 50.3485 35.7015 50.5305 35.4418C49.9455 35.5554 49.3533 35.642 48.7583 35.7016Z" fill="white"/>
<path opacity="0.2" d="M32.8503 37.9425C32.8503 37.9425 26.1905 37.907 19.8616 37.3035C19.7196 37.2893 19.3121 36.5693 18.879 36.3904C18.8321 36.8903 18.9201 37.2083 18.6688 37.1814C15.008 36.7852 10.5748 35.8778 8.84524 34.9605C7.96484 31.8109 6.0237 30.8638 6.0237 30.8638C4.81102 32.484 5.06094 34.3101 9.1193 36.149C17.8764 40.125 44.5085 38.3358 46.6826 37.853L32.8503 37.9425Z" fill="black"/>
<path d="M19.863 35.2642C19.6594 35.2651 19.4611 35.3285 19.2947 35.4458C19.1283 35.5631 19.002 35.7287 18.9328 35.9201C18.8636 36.1115 18.8548 36.3196 18.9076 36.5162C18.9604 36.7127 19.0724 36.8884 19.2282 37.0193C23.6061 40.5437 31.7853 46.1612 33.8116 47.5457C34.1199 47.7549 34.4671 47.8997 34.8326 47.9717L39.8026 48.9359C40.3976 49.0509 40.6333 48.7172 40.3834 48.2401C38.8384 45.2936 35.2799 39.3097 33.2138 37.2791C28.5988 35.6745 23.0636 35.321 19.863 35.2642Z" fill="#F8DF59"/>
<path opacity="0.2" d="M33.1855 46.3632L19.8049 35.9645C19.3675 35.6251 18.7299 36.0526 18.9103 36.5751C18.972 36.7504 19.0823 36.9046 19.2283 37.0196C23.6062 40.544 31.7854 46.1615 33.8117 47.546C34.12 47.7552 34.4672 47.9001 34.8327 47.972L39.8027 48.9362C40.1009 48.9944 40.3082 48.9362 40.4105 48.8098L35.9446 47.7065C34.9413 47.456 34.0015 46.9984 33.1855 46.3632V46.3632Z" fill="black"/>
<path d="M45.4867 34.286C45.4157 34.2957 45.3494 34.3272 45.2971 34.3762C45.2448 34.4252 45.209 34.4893 45.1948 34.5596C45.1806 34.6298 45.1887 34.7028 45.2178 34.7683C45.247 34.8338 45.2958 34.8886 45.3575 34.925C47.053 35.919 50.1699 37.4441 50.9424 37.819C51.0597 37.8753 51.1872 37.9072 51.3172 37.9127L53.0866 37.9908C53.2981 38.0008 53.3635 37.873 53.2513 37.721C52.5668 36.781 51.029 34.8938 50.2111 34.2974C48.5298 33.9793 46.5972 34.1412 45.4867 34.286Z" fill="#F8DF59"/>
<path opacity="0.2" d="M50.6657 37.4413L45.5026 34.5303C45.466 34.51 45.4239 34.5018 45.3823 34.5068C45.3407 34.5119 45.3018 34.53 45.2711 34.5585C45.2404 34.587 45.2195 34.6244 45.2113 34.6655C45.2032 34.7066 45.2082 34.7492 45.2257 34.7873C45.2546 34.8467 45.3006 34.8962 45.3578 34.9293C47.0533 35.9233 50.1702 37.4484 50.9426 37.8232C51.06 37.8796 51.1875 37.9114 51.3175 37.917L53.0869 37.9951C53.1244 38.0026 53.1633 37.9996 53.1994 37.9866C53.2354 37.9736 53.2672 37.951 53.2913 37.9212L51.6881 37.7636C51.3285 37.7289 50.9802 37.6191 50.6657 37.4413V37.4413Z" fill="black"/>
<path d="M12.8213 26.1548C12.7049 26.2144 12.5913 26.2783 12.4805 26.3465C12.0545 26.6049 11.5376 26.8974 10.9668 27.2212C11.2323 27.9852 12.0701 28.8769 13.1337 29.6778L15.1004 28.1698C14.1149 27.5478 13.2771 26.8279 12.8213 26.1548Z" fill="white"/>
<path d="M15.8016 28.5791L14.0479 30.2987C14.4947 30.5799 14.958 30.834 15.4352 31.0598C15.5821 31.1282 15.7415 31.1656 15.9035 31.1699C16.0655 31.1742 16.2267 31.1453 16.377 31.0849C16.5274 31.0244 16.6638 30.9339 16.7778 30.8187C16.8918 30.7035 16.981 30.5662 17.0398 30.4152V30.4152C17.1479 30.1368 17.147 29.8278 17.0372 29.5501C16.9274 29.2724 16.7169 29.0463 16.4477 28.9171C16.2332 28.8106 16.016 28.697 15.8016 28.5791Z" fill="white"/>
<path d="M54.0451 33.7959C57.3864 34.5059 66.003 35.9259 61.5967 30.6406C66.6945 35.8392 61.2772 36.6245 56.6267 36.8886C56.1938 36.9137 55.7608 36.8405 55.3602 36.6745C54.9597 36.5085 54.6018 36.254 54.3135 35.9301C53.9735 35.5485 53.6662 35.1391 53.3948 34.7061C53.3333 34.6042 53.303 34.4866 53.3076 34.3677C53.3122 34.2488 53.3515 34.1339 53.4207 34.0371C53.4898 33.9403 53.5858 33.8659 53.6968 33.823C53.8078 33.7801 53.9289 33.7707 54.0451 33.7959V33.7959Z" fill="#F8DF59"/>
<path opacity="0.2" d="M54.0451 33.7959C57.3864 34.5059 66.003 35.9259 61.5967 30.6406C66.6945 35.8392 61.2772 36.6245 56.6267 36.8886C56.1938 36.9137 55.7608 36.8405 55.3602 36.6745C54.9597 36.5085 54.6018 36.254 54.3135 35.9301C53.9735 35.5485 53.6662 35.1391 53.3948 34.7061C53.3333 34.6042 53.303 34.4866 53.3076 34.3677C53.3122 34.2488 53.3515 34.1339 53.4207 34.0371C53.4898 33.9403 53.5858 33.8659 53.6968 33.823C53.8078 33.7801 53.9289 33.7707 54.0451 33.7959V33.7959Z" fill="white"/>
<path d="M41.3663 17.6493C41.3963 17.8714 41.3377 18.0964 41.203 18.2755C41.0212 18.5112 40.75 18.392 40.6506 18.1335C40.5611 17.8964 40.5469 17.4888 40.8025 17.3468C40.8584 17.3171 40.9207 17.3016 40.9839 17.3018C41.0472 17.3019 41.1095 17.3176 41.1652 17.3475C41.2209 17.3774 41.2684 17.4206 41.3035 17.4732C41.3386 17.5259 41.3601 17.5863 41.3663 17.6493V17.6493Z" fill="#7F3E3B"/>
<path opacity="0.2" d="M41.3663 17.6493C41.3963 17.8714 41.3377 18.0964 41.203 18.2755C41.0212 18.5112 40.75 18.392 40.6506 18.1335C40.5611 17.8964 40.5469 17.4888 40.8025 17.3468C40.8584 17.3171 40.9207 17.3016 40.9839 17.3018C41.0472 17.3019 41.1095 17.3176 41.1652 17.3475C41.2209 17.3774 41.2684 17.4206 41.3035 17.4732C41.3386 17.5259 41.3601 17.5863 41.3663 17.6493V17.6493Z" fill="black"/>
<path d="M40.8963 17.733C40.3099 17.5044 40.8338 16.2576 41.4643 16.2931C41.5495 15.7961 42.4413 15.7706 43.0263 16.0929C43.4916 16.3542 43.8721 16.7435 44.1226 17.2147C44.5415 17.9148 45.2472 17.9801 45.2046 18.2314C45.1478 18.5594 44.4818 18.0994 44.2745 18.2059C44.0672 18.3124 45.1975 18.5396 45.1861 18.8818C45.1748 19.224 44.4406 18.7895 44.2106 18.6958C43.9806 18.602 43.8031 18.7966 44.3327 19.1076C45.0299 19.5151 44.6238 19.7224 44.3469 19.5151C43.8045 19.1061 43.228 19.2652 43.6483 19.6315C44.0686 19.9979 43.5773 20.1229 43.2521 19.7267C42.9269 19.3305 42.6841 20.0107 42.0096 19.4725C41.3351 18.9343 41.1122 18.744 40.8963 17.733Z" fill="#263238"/>
<path d="M30.2897 37.1189L28.8555 38.6426L28.1611 37.9226L29.5953 36.4004L30.2897 37.1189Z" fill="#7F3E3B"/>
<path d="M28.4074 37.7466L29.2452 38.2592C29.2601 38.2677 29.2713 38.2814 29.2766 38.2977C29.2818 38.314 29.2808 38.3317 29.2736 38.3473L28.9384 39.0843C28.9301 39.103 28.9177 39.1198 28.9023 39.1333C28.8868 39.1468 28.8686 39.1568 28.8489 39.1626C28.8292 39.1684 28.8084 39.1699 28.7881 39.1669C28.7678 39.1639 28.7483 39.1566 28.7311 39.1453C28.4315 38.955 28.3506 38.8741 27.97 38.6412C27.5255 38.37 27.2131 38.3246 26.6835 38.0207C26.3626 37.8375 26.4918 37.4811 26.6451 37.5294C27.135 37.6714 27.8763 37.758 28.1787 37.6898C28.2594 37.6785 28.3414 37.6988 28.4074 37.7466V37.7466Z" fill="#263238"/>
<path opacity="0.2" d="M30.2902 37.1203L29.5503 37.9056L28.856 37.1856L29.5944 36.4004L30.2902 37.1203Z" fill="black"/>
<path d="M35.1949 33.4836C38.015 31.8974 42.9694 32.4512 42.9694 29.5814L39.8454 28.4951C39.8454 28.4951 35.7274 29.5715 33.6656 31.4175C31.52 33.3373 29.1216 36.5295 29.1216 36.5295L30.1298 37.5746C30.1298 37.5746 32.8022 35.5823 35.1949 33.4836Z" fill="#263238"/>
<path d="M29.1072 36.1875L28.7905 36.7314L30.0401 37.7765L30.4817 37.376L29.1072 36.1875Z" fill="white"/>
<path d="M40.4414 21.7444C40.1304 21.8623 39.8322 21.9532 39.5241 22.0469C39.2159 22.1406 38.9078 22.2187 38.5911 22.2883C38.271 22.3628 37.9473 22.4206 37.6213 22.4615C37.2653 22.5129 36.9046 22.5229 36.5463 22.4914H36.5108C36.4198 22.4817 36.3328 22.449 36.2581 22.3962C36.1162 22.2973 35.9994 22.1665 35.9173 22.0142C35.8483 21.8935 35.8003 21.7619 35.7753 21.6252C35.7406 21.4181 35.7368 21.2071 35.7639 20.9989C35.8082 20.6561 35.8911 20.3193 36.011 19.995C36.1193 19.6904 36.245 19.3922 36.3873 19.1018C36.5293 18.8178 36.6713 18.5338 36.8474 18.2612C36.8908 18.1896 36.9591 18.1365 37.0392 18.112C37.1193 18.0876 37.2056 18.0935 37.2816 18.1286C37.3577 18.1637 37.4181 18.2256 37.4514 18.3024C37.4847 18.3793 37.4886 18.4657 37.4622 18.5452V18.5551C37.3756 18.8391 37.2847 19.1231 37.2095 19.4171C37.1342 19.711 37.0589 19.9851 37.0036 20.2691C36.9463 20.5338 36.914 20.8034 36.907 21.0742C36.9038 21.173 36.9158 21.2716 36.9425 21.3667C36.9496 21.3781 36.9524 21.398 36.9581 21.3994C36.9638 21.4008 36.9581 21.4136 36.9666 21.3994C36.9605 21.3817 36.9484 21.3667 36.9326 21.3568L36.6486 21.2574C36.9092 21.2524 37.1688 21.223 37.4239 21.1693C37.7079 21.1154 37.9919 21.0472 38.2759 20.9705C38.5599 20.8939 38.8439 20.8115 39.135 20.7235C39.4261 20.6354 39.7115 20.5417 39.987 20.4551H39.9969C40.1667 20.4002 40.3512 20.4139 40.511 20.4932C40.6708 20.5726 40.7932 20.7114 40.852 20.8798C40.9108 21.0483 40.9014 21.2331 40.8257 21.3946C40.75 21.5562 40.6141 21.6818 40.4471 21.7444H40.4414Z" fill="#7F3E3B"/>
<path d="M37.2396 19.0025L38.1172 18.6305L37.3873 17.814C37.3873 17.814 36.5665 18.2201 36.771 18.7043L37.2396 19.0025Z" fill="#7F3E3B"/>
<path d="M38.4655 18.0168L38.1488 17.6405C38.1101 17.5937 38.0563 17.562 37.9967 17.5506C37.9372 17.5392 37.8754 17.5488 37.8222 17.578L37.3877 17.8137L38.1176 18.6302L38.4243 18.3931C38.4523 18.3715 38.4756 18.3444 38.4929 18.3136C38.5102 18.2828 38.5211 18.2488 38.5249 18.2137C38.5288 18.1785 38.5255 18.143 38.5153 18.1091C38.5051 18.0753 38.4881 18.0439 38.4655 18.0168V18.0168Z" fill="#7F3E3B"/>
<path d="M40.5639 20.1638C39.6807 20.0474 38.2593 20.8937 38.2593 20.8937C38.2713 21.558 38.3892 22.2162 38.6086 22.8434C39.1477 22.7619 39.668 22.585 40.145 22.3208C40.4092 22.1817 41.6062 20.3058 40.5639 20.1638Z" fill="#F0F0F0"/>
<path d="M40.4697 20.1543C41.649 20.2679 42.8099 20.5264 43.926 20.9239C44.1822 21.0212 44.4008 21.1974 44.5501 21.4272C44.6995 21.657 44.7718 21.9283 44.7567 22.2019C44.6459 24.7421 44.1637 27.2523 43.3253 29.6526C42.8255 29.6711 40.6784 29.4624 39.6333 29.0846C39.5183 29.0435 39.4714 28.5365 39.4714 28.5365C39.2864 28.5276 39.1014 28.5561 38.9276 28.6203C38.573 28.4456 38.2683 28.1843 38.0415 27.8606C38.5541 27.0498 38.7955 25.1882 38.946 23.6134C38.9631 22.9928 38.9901 21.8654 39.284 21.2335C39.551 20.6385 39.8051 20.1031 40.4697 20.1543Z" fill="white"/>
<path d="M41.3222 21.9177C41.3037 21.9731 41.2597 22.0086 41.227 21.9958C41.1943 21.983 41.1801 21.9305 41.1986 21.8765C41.2171 21.8226 41.2611 21.7857 41.2952 21.7984C41.3293 21.8112 41.3364 21.868 41.3222 21.9177Z" fill="#F8DF59"/>
<path d="M42.8285 18.8945C42.7235 19.5619 42.634 20.3458 42.9791 20.8456C42.678 21.239 42.0163 21.5215 41.3688 21.6436C40.9911 21.1325 41.0706 20.6724 41.2708 20.4154C41.6599 20.174 41.6272 19.7678 41.6315 19.4867L42.8285 18.8945Z" fill="#7F3E3B"/>
<path d="M41.369 21.6437C41.293 21.5272 41.2475 21.3933 41.237 21.2546C41.237 21.0515 40.8706 21.1637 40.8706 21.1637C40.9933 21.3635 41.1648 21.5287 41.369 21.6437V21.6437Z" fill="#E0E0E0"/>
<path d="M41.3691 21.6437C41.3935 21.5724 41.439 21.5103 41.4997 21.4656C41.5603 21.4209 41.6332 21.3959 41.7085 21.3938C41.8862 21.3818 42.0643 21.4099 42.2297 21.4762C42.2297 21.4762 41.7156 21.675 41.3691 21.6437Z" fill="#E0E0E0"/>
<path opacity="0.2" d="M42.5448 19.1518C42.5533 19.1092 42.559 19.0666 42.5633 19.0254L41.6317 19.4883C41.6444 19.6828 41.6223 19.8781 41.5664 20.0648C42.0009 19.9299 42.4738 19.5551 42.5448 19.1518Z" fill="black"/>
<path d="M43.3452 18.0339C42.986 18.8518 42.8156 19.3488 42.2362 19.6186C41.3629 20.0248 40.4726 19.2494 40.5819 18.3406C40.6799 17.5199 41.2521 16.3214 42.1922 16.2973C42.4004 16.2921 42.6065 16.3398 42.7912 16.4359C42.976 16.5321 43.1333 16.6735 43.2485 16.847C43.3637 17.0205 43.433 17.2204 43.4499 17.428C43.4668 17.6356 43.4308 17.8441 43.3452 18.0339V18.0339Z" fill="#7F3E3B"/>
<path d="M41.5664 16.3769C41.4358 16.9136 42.9793 17.182 42.9793 17.182C42.9793 17.182 42.1373 18.602 43.1213 18.5409C44.1054 18.4799 44.1565 17.297 43.3926 16.5728C42.8558 16.0645 41.9498 15.8898 41.5664 16.3769Z" fill="#263238"/>
<path d="M41.0067 18.4375C41.348 18.4522 41.6871 18.4997 42.0192 18.5795C41.9445 18.6993 41.8322 18.7909 41.6999 18.84C41.5675 18.8891 41.4226 18.8928 41.2879 18.8507C41.2409 18.845 41.1957 18.8292 41.1553 18.8046C41.1149 18.7799 41.0803 18.747 41.0537 18.7078C41.027 18.6687 41.0091 18.6244 41.001 18.5777C40.9929 18.5311 40.9949 18.4833 41.0067 18.4375V18.4375Z" fill="#263238"/>
<path d="M41.5096 18.7182C41.3646 18.6792 41.211 18.6872 41.0708 18.741C41.1284 18.8026 41.2048 18.8435 41.2881 18.8574C41.4325 18.8965 41.5855 18.8891 41.7254 18.8361C41.6685 18.774 41.5926 18.7325 41.5096 18.7182V18.7182Z" fill="#FF5652"/>
<path d="M41.0381 18.439C41.0356 18.4686 41.0425 18.4982 41.0578 18.5237C41.0731 18.5491 41.096 18.5692 41.1233 18.581C41.3426 18.6266 41.5654 18.6536 41.7893 18.6619C41.8254 18.666 41.8621 18.6614 41.8961 18.6486C41.9302 18.6357 41.9607 18.615 41.9852 18.5881C41.674 18.5132 41.3573 18.4634 41.0381 18.439V18.439Z" fill="white"/>
<path d="M43.3923 18.7612C43.312 18.8378 43.2173 18.8976 43.1138 18.9374C43.0102 18.9771 42.8997 18.9959 42.7888 18.9927C42.4906 18.9813 42.4296 18.6916 42.5858 18.4588C42.742 18.2259 43.0515 17.9987 43.3142 18.1251C43.3712 18.1532 43.4203 18.1951 43.4571 18.2469C43.4939 18.2988 43.5172 18.359 43.5249 18.4221C43.5327 18.4852 43.5246 18.5492 43.5015 18.6084C43.4783 18.6676 43.4408 18.7201 43.3923 18.7612Z" fill="#7F3E3B"/>
<path d="M42.2268 17.8081C42.2026 17.8762 42.1458 17.9174 42.1004 17.9018C42.055 17.8862 42.0408 17.8152 42.0663 17.747C42.0919 17.6789 42.1473 17.6377 42.1927 17.6547C42.2381 17.6718 42.2523 17.7399 42.2268 17.8081Z" fill="#263238"/>
<path d="M41.3788 17.4886C41.3532 17.5568 41.2964 17.598 41.2524 17.5809C41.2084 17.5639 41.1928 17.4957 41.2169 17.4276C41.241 17.3594 41.2993 17.3168 41.3433 17.3338C41.3873 17.3509 41.4029 17.4205 41.3788 17.4886Z" fill="#263238"/>
<path d="M41.6587 17.5981C41.4941 17.7692 41.3068 17.9168 41.1021 18.0369C41.1345 18.0886 41.1776 18.1327 41.2286 18.1663C41.2795 18.1999 41.3371 18.2221 41.3974 18.2315L41.6587 17.5981Z" fill="#630F0F"/>
<path d="M42.5436 17.5174C42.5506 17.5195 42.558 17.5195 42.5649 17.5174C42.5708 17.5168 42.5765 17.5149 42.5815 17.5119C42.5866 17.5089 42.591 17.5048 42.5943 17.5C42.5977 17.4951 42.6 17.4896 42.601 17.4838C42.6021 17.478 42.6019 17.472 42.6004 17.4663C42.5888 17.399 42.5612 17.3355 42.5199 17.2812C42.4787 17.2268 42.4249 17.1832 42.3633 17.1539C42.3529 17.1502 42.3415 17.1506 42.3314 17.1551C42.3214 17.1596 42.3134 17.1678 42.3093 17.178C42.307 17.1831 42.3058 17.1887 42.3057 17.1943C42.3056 17.1999 42.3066 17.2054 42.3087 17.2106C42.3109 17.2158 42.314 17.2205 42.318 17.2244C42.322 17.2283 42.3268 17.2314 42.332 17.2334V17.2334C42.3802 17.2576 42.422 17.2926 42.4543 17.3358C42.4866 17.3789 42.5084 17.4289 42.5181 17.4819C42.5187 17.4896 42.5214 17.4969 42.5259 17.5032C42.5304 17.5094 42.5365 17.5144 42.5436 17.5174V17.5174Z" fill="#263238"/>
<path d="M41.1897 17.0403C41.1958 17.0433 41.2026 17.0449 41.2095 17.0449C41.2164 17.0449 41.2232 17.0433 41.2294 17.0403C41.2711 17.0068 41.3202 16.9839 41.3725 16.9732C41.4249 16.9626 41.479 16.9647 41.5305 16.9792C41.5357 16.9812 41.5412 16.9822 41.5468 16.982C41.5524 16.9818 41.5579 16.9804 41.5629 16.978C41.568 16.9756 41.5725 16.9722 41.5762 16.9681C41.5799 16.9639 41.5827 16.959 41.5844 16.9537C41.5864 16.9485 41.5874 16.9429 41.5872 16.9373C41.587 16.9317 41.5856 16.9262 41.5832 16.9212C41.5808 16.9162 41.5774 16.9116 41.5732 16.9079C41.5691 16.9043 41.5642 16.9014 41.5589 16.8997C41.4944 16.8799 41.4261 16.8761 41.3598 16.8884C41.2936 16.9008 41.2313 16.929 41.1783 16.9707C41.1737 16.9739 41.1697 16.9781 41.1668 16.9829C41.1638 16.9877 41.1619 16.9931 41.1611 16.9987C41.1603 17.0043 41.1606 17.01 41.1621 17.0154C41.1636 17.0209 41.1662 17.0259 41.1698 17.0303C41.1752 17.0356 41.1822 17.0391 41.1897 17.0403Z" fill="#263238"/>
<path d="M44.8299 21.9757C44.9095 22.4017 44.9634 22.7993 45.0188 23.2126C45.0742 23.6258 45.1083 24.039 45.1395 24.4565C45.1707 24.874 45.1878 25.2957 45.1835 25.7245C45.1846 26.1745 45.1418 26.6234 45.0557 27.065L45.0486 27.0977C45.0313 27.1812 44.9938 27.2592 44.9393 27.3249C44.7255 27.5763 44.4954 27.8135 44.2506 28.0349C44.0163 28.2507 43.7692 28.4467 43.5235 28.6412C43.2779 28.8358 43.0223 29.0118 42.7653 29.1865C42.5082 29.3612 42.2484 29.5245 41.9715 29.6807C41.8994 29.7221 41.8146 29.7357 41.7331 29.719C41.6516 29.7022 41.5791 29.6563 41.5292 29.5897C41.4793 29.5232 41.4554 29.4407 41.462 29.3578C41.4687 29.2749 41.5054 29.1973 41.5654 29.1396V29.1396L42.2058 28.5106C42.4174 28.3004 42.6318 28.0846 42.8348 27.8773C43.2399 27.473 43.6148 27.0397 43.9566 26.5808L43.8388 26.8407C43.8813 26.4783 43.8932 26.113 43.8743 25.7487C43.8572 25.3639 43.8274 24.9719 43.7891 24.58C43.7507 24.1881 43.6996 23.7919 43.6471 23.3972C43.5945 23.0024 43.5349 22.6034 43.4781 22.22V22.2115C43.4548 22.036 43.5005 21.8584 43.6056 21.7159C43.7107 21.5735 43.867 21.4775 44.0415 21.448C44.216 21.4185 44.3952 21.458 44.5412 21.558C44.6872 21.6581 44.7887 21.8109 44.8243 21.9843L44.8299 21.9757Z" fill="#7F3E3B"/>
<path d="M43.9728 20.9463C45.3076 21.4972 45.1571 23.3872 45.1571 23.3872C44.67 24.0035 44.129 24.4849 43.4233 24.5445C43.0439 24.1281 42.8404 23.5811 42.8553 23.018C42.8609 22.264 42.9973 20.5444 43.9728 20.9463Z" fill="white"/>
<path d="M42.0704 28.8345L41.1616 28.8899L41.5308 29.9194C41.5308 29.9194 42.3487 29.7688 42.3388 29.3215L42.0704 28.8345Z" fill="#7F3E3B"/>
<path d="M40.5282 29.5959L40.7185 29.9338C40.7551 29.9992 40.8138 30.0494 40.8841 30.0754C40.9543 30.1014 41.0316 30.1016 41.1019 30.0758L41.5279 29.9196L41.1587 28.8901L40.6518 29.1614C40.6149 29.1815 40.5823 29.2088 40.5561 29.2417C40.5298 29.2745 40.5104 29.3123 40.4989 29.3527C40.4874 29.3932 40.4841 29.4355 40.4891 29.4772C40.4941 29.519 40.5074 29.5593 40.5282 29.5959Z" fill="#7F3E3B"/>
<path d="M42.8331 20.4551C42.7948 20.6596 42.623 21.3397 41.7085 21.3937C42.0266 21.4917 42.0422 22.3124 42.0422 22.3124C42.0422 22.3124 43.0362 21.4803 43.12 20.7377C43.0916 20.5431 42.8331 20.4551 42.8331 20.4551Z" fill="#F8DF59"/>
<path d="M41.5207 20.1255C41.4838 20.3243 41.1813 20.6608 41.2367 21.2615C40.9172 21.1692 40.4443 21.6534 40.4443 21.6534C40.5556 21.1268 40.794 20.6354 41.1387 20.222C41.2573 20.1621 41.3878 20.1291 41.5207 20.1255V20.1255Z" fill="#F8DF59"/>
</svg>
