<svg width="37" height="51" viewBox="0 0 37 51" fill="none" xmlns="http://www.w3.org/2000/svg">
<path opacity="0.15" d="M28.2114 40.3118C26.4408 39.2902 24.102 38.7285 21.6416 38.7285C19.1812 38.7285 16.9147 39.2705 15.1605 40.2527C13.2161 40.2806 11.3072 40.7776 9.59595 41.7013C7.88124 42.6868 6.93848 44.0369 6.93848 45.4921C6.93848 46.9473 7.88124 48.2941 9.59595 49.2829C11.222 50.2223 13.3736 50.7381 15.6566 50.7381C17.1354 50.7486 18.6059 50.5156 20.009 50.0482C20.5546 50.1053 21.1029 50.1338 21.6515 50.1336C24.1283 50.1336 26.4704 49.5719 28.2212 48.5503C30.0838 47.4762 31.1087 46.0111 31.1087 44.4311C31.1087 42.8511 30.0739 41.386 28.2114 40.3118ZM20.7744 47.6634C20.551 47.7915 20.3145 47.9098 20.0649 48.0215C18.6551 47.8893 17.287 47.4713 16.0442 46.7929C14.8321 46.0932 14.1619 45.249 14.1619 44.4179C14.1619 43.5869 14.8189 42.7755 15.9686 42.089C17.6444 42.0934 19.2939 42.506 20.7744 43.2912C21.8913 43.9482 22.5055 44.7136 22.5055 45.479C22.5055 46.2443 21.8913 47.0327 20.7744 47.6634ZM15.6401 48.8722C13.8536 48.9144 12.086 48.4982 10.5059 47.6634C9.389 47.0064 8.77473 46.2443 8.77473 45.479C8.77473 44.7136 9.389 43.9383 10.5059 43.2912C11.2081 42.9044 11.9611 42.618 12.7429 42.4404C12.3704 43.038 12.1703 43.7269 12.1647 44.4311C12.1647 46.0111 13.1929 47.4762 15.0554 48.5503C15.2591 48.6686 15.4726 48.7803 15.6894 48.8788L15.6401 48.8722ZM27.2029 46.7929C25.9978 47.4519 24.6733 47.864 23.3071 48.005C23.963 47.3254 24.3383 46.4233 24.3582 45.479C24.3582 44.0238 23.4122 42.6769 21.7007 41.6882C21.0916 41.3417 20.4475 41.061 19.7791 40.8506C20.3911 40.7697 21.0078 40.7291 21.6252 40.729C23.7538 40.729 25.7379 41.1955 27.2095 42.043C28.4249 42.7427 29.0917 43.5869 29.0917 44.4179C29.0917 45.249 28.4183 46.1064 27.1964 46.8061L27.2029 46.7929Z" fill="black"/>
<path d="M30.5502 41.1367V44.1424C30.5502 45.4563 29.6797 46.7703 27.9223 47.7886C24.437 49.799 18.7837 49.799 15.3017 47.7886C13.5575 46.7834 12.6738 45.4629 12.6738 44.1424V41.1367C12.6738 42.4507 13.5443 43.7646 15.3017 44.7797C18.7837 46.7933 24.437 46.7933 27.9223 44.7797C29.6797 43.7745 30.5502 42.4572 30.5502 41.1367Z" fill="#B80953"/>
<path opacity="0.55" d="M30.5502 41.1367V44.1424C30.5502 45.4563 29.6797 46.7703 27.9223 47.7886C24.437 49.799 18.7837 49.799 15.3017 47.7886C13.5575 46.7834 12.6738 45.4629 12.6738 44.1424V41.1367C12.6738 42.4507 13.5443 43.7646 15.3017 44.7797C18.7837 46.7933 24.437 46.7933 27.9223 44.7797C29.6797 43.7745 30.5502 42.4572 30.5502 41.1367Z" fill="white"/>
<path opacity="0.1" d="M28.2077 47.6213C23.2804 49.5758 18.4418 48.6067 18.3531 47.8381C18.2644 47.0694 19.2926 46.1102 19.2926 46.1102C17.8987 45.9177 16.5518 45.4724 15.3178 44.7963C13.5736 43.7911 12.6899 42.4738 12.6899 41.1533V44.159C12.6899 45.4729 13.5604 46.7869 15.3178 47.8052C18.7998 49.8156 24.4531 49.8156 27.9384 47.8052L28.2077 47.6213Z" fill="black"/>
<path d="M29.6346 41.1364C29.6224 41.6846 29.4296 42.2135 29.0861 42.6409C28.6459 42.0893 28.0997 41.6314 27.4798 41.2941C25.9293 40.4006 23.85 39.9079 21.6228 39.9079C19.3957 39.9079 17.3196 40.4006 15.7724 41.2941C15.1508 41.6302 14.6034 42.0883 14.1628 42.6409C13.8208 42.2126 13.6282 41.6843 13.6143 41.1364C13.6143 40.1017 14.3796 39.0899 15.7724 38.2851C17.3196 37.3917 19.3858 36.8989 21.6228 36.8989C23.8598 36.8989 25.9293 37.3917 27.4798 38.2851C28.8693 39.0899 29.6346 40.1083 29.6346 41.1364Z" fill="#B80953"/>
<path opacity="0.5" d="M29.6346 41.1364C29.6224 41.6846 29.4296 42.2135 29.0861 42.6409C28.6459 42.0893 28.0997 41.6314 27.4798 41.2941C25.9293 40.4006 23.85 39.9079 21.6228 39.9079C19.3957 39.9079 17.3196 40.4006 15.7724 41.2941C15.1508 41.6302 14.6034 42.0883 14.1628 42.6409C13.8208 42.2126 13.6282 41.6843 13.6143 41.1364C13.6143 40.1017 14.3796 39.0899 15.7724 38.2851C17.3196 37.3917 19.3858 36.8989 21.6228 36.8989C23.8598 36.8989 25.9293 37.3917 27.4798 38.2851C28.8693 39.0899 29.6346 40.1083 29.6346 41.1364Z" fill="white"/>
<path opacity="0.1" d="M29.6346 41.1364C29.6224 41.6846 29.4296 42.2135 29.0861 42.6409C28.6459 42.0893 28.0997 41.6314 27.4798 41.2941C25.9293 40.4006 23.85 39.9079 21.6228 39.9079C19.3957 39.9079 17.3196 40.4006 15.7724 41.2941C15.1508 41.6302 14.6034 42.0883 14.1628 42.6409C13.8208 42.2126 13.6282 41.6843 13.6143 41.1364C13.6143 40.1017 14.3796 39.0899 15.7724 38.2851C17.3196 37.3917 19.3858 36.8989 21.6228 36.8989C23.8598 36.8989 25.9293 37.3917 27.4798 38.2851C28.8693 39.0899 29.6346 40.1083 29.6346 41.1364Z" fill="black"/>
<path opacity="0.1" d="M14.6293 40.2788V39.1226C14.3305 39.3701 14.086 39.6768 13.9113 40.0233C13.7367 40.3698 13.6355 40.7487 13.6143 41.1362C13.6282 41.6841 13.8208 42.2124 14.1628 42.6407C14.6034 42.0881 15.1508 41.63 15.7724 41.2939C17.3686 40.4358 19.1443 39.9655 20.956 39.9208C17.1455 39.4313 14.6293 41.1986 14.6293 40.2788Z" fill="black"/>
<path d="M27.9365 37.4804C24.4512 35.4668 18.7979 35.4668 15.3127 37.4804C13.5717 38.4856 12.7012 39.8061 12.7012 41.1234C12.7012 42.4406 13.5717 43.7513 15.3127 44.7696C18.8012 46.7799 24.4512 46.7799 27.9365 44.7696C29.6807 43.7611 30.5644 42.4439 30.5644 41.1234C30.5644 39.8029 29.6775 38.4988 27.9365 37.4804ZM27.4799 43.9747C25.9294 44.8846 23.8501 45.3642 21.6131 45.3642C19.3761 45.3642 17.3066 44.8747 15.7594 43.9779C14.3666 43.1764 13.6012 42.1647 13.6012 41.1267C13.6012 40.0886 14.3666 39.0802 15.7594 38.2754C17.3066 37.3819 19.3728 36.8892 21.6131 36.8892C23.8534 36.8892 25.9163 37.3819 27.4667 38.2754C28.8562 39.0802 29.6216 40.0919 29.6216 41.1267C29.6216 42.1614 28.8694 43.1863 27.4799 43.9878V43.9747Z" fill="#B80953"/>
<path opacity="0.8" d="M27.9365 37.4804C24.4512 35.4668 18.7979 35.4668 15.3127 37.4804C13.5717 38.4856 12.7012 39.8061 12.7012 41.1234C12.7012 42.4406 13.5717 43.7513 15.3127 44.7696C18.8012 46.7799 24.4512 46.7799 27.9365 44.7696C29.6807 43.7611 30.5644 42.4439 30.5644 41.1234C30.5644 39.8029 29.6775 38.4988 27.9365 37.4804ZM27.4799 43.9747C25.9294 44.8846 23.8501 45.3642 21.6131 45.3642C19.3761 45.3642 17.3066 44.8747 15.7594 43.9779C14.3666 43.1764 13.6012 42.1647 13.6012 41.1267C13.6012 40.0886 14.3666 39.0802 15.7594 38.2754C17.3066 37.3819 19.3728 36.8892 21.6131 36.8892C23.8534 36.8892 25.9163 37.3819 27.4667 38.2754C28.8562 39.0802 29.6216 40.0919 29.6216 41.1267C29.6216 42.1614 28.8694 43.1863 27.4799 43.9878V43.9747Z" fill="white"/>
<path d="M15.3125 44.7829C16.6311 45.4641 18.0624 45.9004 19.5369 46.0706C21.0034 46.2651 22.4903 46.2474 23.9517 46.0181C24.6817 45.91 25.4006 45.7374 26.1001 45.5023C26.7998 45.2734 27.4727 44.9694 28.1071 44.5957C28.7461 44.2268 29.3108 43.7422 29.7726 43.1668C30.2462 42.5929 30.5196 41.8801 30.5511 41.1367C30.5482 41.8902 30.3003 42.6224 29.8448 43.2226C29.3874 43.8161 28.8238 44.3196 28.1827 44.7074C27.5453 45.101 26.8639 45.4185 26.1526 45.6534C25.445 45.8965 24.7173 46.0767 23.978 46.1921C22.4993 46.4139 20.9958 46.4139 19.5171 46.1921C18.7796 46.0868 18.0522 45.9198 17.3426 45.6929C16.6376 45.457 15.9576 45.1522 15.3125 44.7829Z" fill="white"/>
<g opacity="0.1">
<path opacity="0.75" d="M14.355 38.1375C15.8784 37.4626 17.5242 37.1082 19.1903 37.0962C19.9943 36.9577 20.8086 36.8884 21.6244 36.8892C21.8642 36.8892 22.1073 36.8892 22.3438 36.9089C21.5885 36.5106 20.7583 36.2746 19.9064 36.2158C19.6535 36.1928 19.394 36.1797 19.1312 36.1797C17.7901 36.3883 16.4966 36.8332 15.3109 37.4936C14.9769 37.6845 14.6574 37.8997 14.355 38.1375Z" fill="black"/>
<path opacity="0.75" d="M19.1026 45.1543C18.7248 45.3908 18.3241 45.6175 17.9102 45.8113C18.3647 45.9308 18.8252 46.0262 19.2898 46.0971C19.6965 45.8575 20.0901 45.5966 20.4691 45.3153C20.0026 45.2923 19.546 45.2331 19.1026 45.1543Z" fill="black"/>
</g>
<path d="M22.4003 35.2236L23.6617 37.9534C24.2168 39.1491 23.9902 40.7127 22.8175 42.3584C20.5016 45.6433 15.3706 48.0215 11.3631 47.6569C9.35928 47.4763 8.01247 46.6452 7.46061 45.4495L6.19922 42.7362C6.75108 43.9351 8.09788 44.7662 10.1017 44.9436C14.1092 45.3082 19.2402 42.9333 21.556 39.6451C22.7156 37.9829 22.9521 36.4193 22.4003 35.2236Z" fill="#B80953"/>
<path opacity="0.55" d="M22.4003 35.2236L23.6617 37.9534C24.2168 39.1491 23.9902 40.7127 22.8175 42.3584C20.5016 45.6433 15.3706 48.0215 11.3631 47.6569C9.35928 47.4763 8.01247 46.6452 7.46061 45.4495L6.19922 42.7362C6.75108 43.9351 8.09788 44.7662 10.1017 44.9436C14.1092 45.3082 19.2402 42.9333 21.556 39.6451C22.7156 37.9829 22.9521 36.4193 22.4003 35.2236Z" fill="white"/>
<path opacity="0.1" d="M8.97823 45.8601C8.85669 45.5644 8.62675 45.0093 8.45593 44.5888C7.9718 44.4485 7.52167 44.2102 7.13346 43.8886C6.74526 43.5671 6.42727 43.1693 6.19922 42.7197L7.46061 45.4495C8.01247 46.6452 9.35928 47.4762 11.3631 47.6569C13.3478 47.775 15.3324 47.4216 17.1543 46.6254C11.2547 48.3566 9.19175 46.3725 8.97823 45.8601Z" fill="black"/>
<path d="M21.5692 35.6079C21.7852 36.1116 21.8314 36.672 21.7006 37.2043C21.0697 36.8874 20.3816 36.7008 19.6771 36.6557C17.8934 36.4948 15.8009 36.9185 13.7643 37.8547C11.7276 38.7909 10.0655 40.1114 9.03405 41.5699C8.61239 42.1376 8.30961 42.7845 8.14384 43.4719C7.65313 43.2255 7.2555 42.8267 7.01056 42.3353C6.57695 41.3958 6.84631 40.1574 7.77265 38.8435C8.80082 37.3817 10.4827 36.0612 12.5029 35.125C14.5231 34.1888 16.6156 33.765 18.396 33.926C20.0154 34.0705 21.1323 34.6684 21.5692 35.6079Z" fill="#B80953"/>
<path opacity="0.5" d="M21.5692 35.6079C21.7852 36.1116 21.8314 36.672 21.7006 37.2043C21.0697 36.8874 20.3816 36.7008 19.6771 36.6557C17.8934 36.4948 15.8009 36.9185 13.7643 37.8547C11.7276 38.7909 10.0655 40.1114 9.03405 41.5699C8.61239 42.1376 8.30961 42.7845 8.14384 43.4719C7.65313 43.2255 7.2555 42.8267 7.01056 42.3353C6.57695 41.3958 6.84631 40.1574 7.77265 38.8435C8.80082 37.3817 10.4827 36.0612 12.5029 35.125C14.5231 34.1888 16.6156 33.765 18.396 33.926C20.0154 34.0705 21.1323 34.6684 21.5692 35.6079Z" fill="white"/>
<path opacity="0.1" d="M21.5692 35.6079C21.7852 36.1116 21.8314 36.672 21.7006 37.2043C21.0697 36.8874 20.3816 36.7008 19.6771 36.6557C17.8934 36.4948 15.8009 36.9185 13.7643 37.8547C11.7276 38.7909 10.0655 40.1114 9.03405 41.5699C8.61239 42.1376 8.30961 42.7845 8.14384 43.4719C7.65313 43.2255 7.2555 42.8267 7.01056 42.3353C6.57695 41.3958 6.84631 40.1574 7.77265 38.8435C8.80082 37.3817 10.4827 36.0612 12.5029 35.125C14.5231 34.1888 16.6156 33.765 18.396 33.926C20.0154 34.0705 21.1323 34.6684 21.5692 35.6079Z" fill="black"/>
<path opacity="0.1" d="M8.10804 41.8032C7.54633 41.9905 7.05031 40.8867 7.20142 39.852C6.7711 40.7816 6.70868 41.6423 7.0306 42.3354C7.27332 42.8273 7.67012 43.2264 8.1606 43.4719C8.32637 42.7845 8.62915 42.1376 9.0508 41.57C10.2031 40.0458 11.711 38.8267 13.4427 38.019C9.69136 39.5498 8.67304 41.6127 8.10804 41.8032Z" fill="black"/>
<path d="M18.4977 33.0164C14.4869 32.6518 9.3592 35.0268 7.04007 38.315C5.8805 39.9574 5.64399 41.5243 6.19914 42.72C6.75428 43.9157 8.0978 44.75 10.1016 44.9307C14.1091 45.2921 19.2368 42.9204 21.556 39.6289C22.7155 37.9865 22.952 36.4196 22.4002 35.2239C21.8483 34.0282 20.5015 33.2103 18.4977 33.0164ZM20.7972 39.1033C19.769 40.5651 18.0871 41.8823 16.0669 42.8185C14.0467 43.7547 11.9543 44.1785 10.1738 44.0175C8.57411 43.873 7.45396 43.2751 7.02036 42.3357C6.58675 41.3962 6.85283 40.1545 7.77917 38.8438C8.80733 37.3821 10.4892 36.0615 12.5094 35.1253C14.5296 34.1891 16.6221 33.7654 18.4025 33.9264C20.0022 34.0709 21.1224 34.6687 21.5593 35.6082C21.9961 36.5477 21.7333 37.7894 20.807 39.1033H20.7972Z" fill="#B80953"/>
<path opacity="0.8" d="M18.4977 33.0164C14.4869 32.6518 9.3592 35.0268 7.04007 38.315C5.8805 39.9574 5.64399 41.5243 6.19914 42.72C6.75428 43.9157 8.0978 44.75 10.1016 44.9307C14.1091 45.2921 19.2368 42.9204 21.556 39.6289C22.7155 37.9865 22.952 36.4196 22.4002 35.2239C21.8483 34.0282 20.5015 33.2103 18.4977 33.0164ZM20.7972 39.1033C19.769 40.5651 18.0871 41.8823 16.0669 42.8185C14.0467 43.7547 11.9543 44.1785 10.1738 44.0175C8.57411 43.873 7.45396 43.2751 7.02036 42.3357C6.58675 41.3962 6.85283 40.1545 7.77917 38.8438C8.80733 37.3821 10.4892 36.0615 12.5094 35.1253C14.5296 34.1891 16.6221 33.7654 18.4025 33.9264C20.0022 34.0709 21.1224 34.6687 21.5593 35.6082C21.9961 36.5477 21.7333 37.7894 20.807 39.1033H20.7972Z" fill="white"/>
<path d="M10.1147 44.9305C11.5967 44.9955 13.0782 44.7907 14.4869 44.326C15.8999 43.8876 17.242 43.247 18.4715 42.4241C19.0884 42.0189 19.6688 41.5606 20.2059 41.0543C20.7442 40.5518 21.2276 39.9935 21.648 39.3889C22.0724 38.7865 22.381 38.1103 22.5579 37.3949C22.7474 36.6747 22.6967 35.9124 22.4134 35.2236C22.7262 35.9083 22.808 36.6761 22.6466 37.4114C22.483 38.1449 22.1832 38.8413 21.7629 39.4644C21.3507 40.0892 20.8667 40.6636 20.3209 41.1758C19.7812 41.6934 19.1964 42.1617 18.5733 42.5752C17.3267 43.4014 15.9638 44.0369 14.5296 44.4607C13.8147 44.674 13.0827 44.8257 12.3419 44.914C11.6019 44.9934 10.8558 44.9989 10.1147 44.9305Z" fill="white"/>
<path d="M16.9451 24.4197L12.9573 22.0743C11.343 21.1058 9.79159 20.0361 8.31244 18.8715C5.4316 16.5721 1.59814 12.9587 1.59814 7.81461C1.61447 5.95283 2.28918 4.15691 3.50278 2.74494C4.71638 1.33297 6.39054 0.396072 8.22873 0.100199C10.0669 -0.195674 11.9505 0.168569 13.5459 1.12841C15.1412 2.08826 16.3454 3.58176 16.9451 5.34438C17.5465 3.58408 18.751 2.09313 20.3455 1.13517C21.9401 0.177209 23.822 -0.186053 25.6586 0.109619C27.4951 0.40529 29.168 1.34085 30.3813 2.75086C31.5946 4.16087 32.2703 5.95451 32.2888 7.81461C32.2888 12.9489 28.4586 16.5853 25.5745 18.8715C24.0969 20.0365 22.5465 21.1063 20.933 22.0743L16.9451 24.4197Z" fill="#B80953"/>
<path d="M32.318 21.6507C32.4644 21.3704 32.707 21.1523 33.0012 21.0364C33.1698 20.9708 33.3505 20.9419 33.5312 20.9515C33.7119 20.9611 33.8884 21.0091 34.0491 21.0923C34.5418 21.3485 34.7061 22.0285 34.624 22.6C34.624 22.6559 34.6765 22.7282 34.7061 22.6953C35.1167 22.2716 35.7999 22.0022 36.3058 22.265C36.4677 22.3478 36.61 22.4641 36.7233 22.6063C36.8366 22.7485 36.9182 22.9132 36.9628 23.0895C37.0387 23.3973 36.9989 23.7222 36.8511 24.0027C36.3781 24.9126 35.2842 24.9882 34.2758 25.2181L33.241 25.3725L32.8074 24.4527C32.4165 23.5001 31.845 22.5639 32.318 21.6507Z" fill="#B80953"/>
<path d="M0.286905 25.0863C0.0895353 24.839 -0.0119418 24.5287 0.00112076 24.2125C0.00861301 24.0318 0.0547009 23.8547 0.136288 23.6932C0.217876 23.5318 0.333073 23.3896 0.474144 23.2763C0.907748 22.9314 1.60414 23.0431 2.08702 23.3618C2.13629 23.3946 2.22499 23.3618 2.20856 23.3256C1.98519 22.7803 2.01475 22.0445 2.4615 21.6832C2.602 21.5693 2.76544 21.4872 2.94063 21.4424C3.11583 21.3976 3.29863 21.3912 3.47653 21.4237C3.78928 21.4774 4.07119 21.6446 4.26819 21.8934C4.92516 22.6949 4.53098 23.7231 4.33717 24.7414L4.06124 25.7531L3.04292 25.7761C1.99833 25.7466 0.914318 25.8878 0.286905 25.0863Z" fill="#B80953"/>
</svg>
