<svg width="185" height="185" viewBox="0 0 185 185" fill="none" xmlns="http://www.w3.org/2000/svg">
<path d="M130.91 145.38C139.327 142.22 147.493 134.339 152.688 126.999C166.833 107.019 170.604 91.4785 169.231 71.6872C168.421 59.9508 163.707 48.4364 155.115 40.4C147.849 33.6031 136.856 31.4497 127.251 34.0397C117.645 36.6297 109.528 43.6597 104.625 52.3103C100.603 59.4143 98.0798 68.1685 90.9721 72.1793C85.0521 75.5093 77.6521 74.4733 71.2511 72.3051C64.8501 70.1369 58.6711 66.929 51.9482 66.1002C37.0816 64.2502 22.3926 75.5722 18.2597 89.9689C14.1268 104.366 19.4918 120.475 29.837 131.313C35.979 137.747 43.6454 142.468 51.9667 145.68C59.8787 148.69 68.2555 150.295 76.7197 150.423C90.0397 150.69 118.652 150.586 130.91 145.38Z" fill="#EBEBEB"/>
<path d="M176.279 170.133C176.279 170.189 138.768 170.233 92.5035 170.233C46.2387 170.233 8.7207 170.2 8.7207 170.133C8.7207 170.067 46.2239 170.037 92.5035 170.037C138.783 170.037 176.279 170.082 176.279 170.133Z" fill="#263238"/>
<path d="M84.0603 88.9296C83.4968 87.713 83.0544 86.4439 82.7394 85.1408C82.4243 83.827 82.5054 82.4494 82.9725 81.1818C83.2124 80.5537 83.6015 79.9934 84.1062 79.5493C84.6109 79.1052 85.2161 78.7905 85.8696 78.6325C86.6799 78.4734 87.5494 78.6066 88.3264 78.3217C89.2255 77.9887 89.8249 77.1636 90.5242 76.5087C91.6304 75.4827 93.0385 74.8416 94.5387 74.6809C95.3219 74.5703 96.1203 74.6859 96.8401 75.0139C97.1962 75.1818 97.5041 75.4372 97.735 75.7561C97.966 76.075 98.1125 76.4472 98.161 76.838C99.0648 76.4906 100.01 76.2629 100.973 76.1609C101.946 76.0626 102.919 76.351 103.681 76.9638C104.051 77.2766 104.312 77.6996 104.424 78.1709C104.537 78.6422 104.495 79.1371 104.307 79.5834C104.717 79.3813 105.187 79.3383 105.627 79.4626C106.067 79.587 106.446 79.8699 106.689 80.2568C106.917 80.6571 107.023 81.1146 106.996 81.5742C106.969 82.0337 106.81 82.4757 106.538 82.8468C105.861 83.656 104.918 84.1978 103.877 84.3749C102.975 84.5007 101.924 84.5858 101.062 84.2972" fill="#263238"/>
<path d="M86.2694 114.996L99.2194 113.96C99.3008 112.447 99.1935 106.597 99.1935 106.597C99.1935 106.597 104.581 105.757 104.647 100.37C104.714 94.9828 103.781 82.61 103.781 82.61C100.718 81.293 97.3591 80.8178 94.0509 81.2335C90.7427 81.6491 87.6054 82.9405 84.9633 84.9743L84.1641 85.5885L86.2694 114.996Z" fill="#B78876"/>
<path d="M99.2048 106.519C96.715 106.567 94.2675 105.871 92.1748 104.521C92.1748 104.521 93.8361 108.399 99.2048 107.914V106.519Z" fill="#AA6550"/>
<path d="M84.8305 91.1715C84.7417 91.1308 81.1305 90.0615 81.2489 93.7615C81.3673 97.4615 85.0377 96.5698 85.0414 96.4625C85.0451 96.3552 84.8305 91.1715 84.8305 91.1715Z" fill="#B78876"/>
<path d="M83.8715 95.0903C83.8715 95.0903 83.8086 95.1347 83.7013 95.1902C83.5512 95.2593 83.38 95.2672 83.224 95.2124C82.8281 95.0829 82.484 94.4724 82.4433 93.8138C82.4233 93.4983 82.4739 93.1823 82.5913 92.8888C82.6225 92.7724 82.6816 92.6654 82.7635 92.5771C82.8454 92.4887 82.9476 92.4217 83.0612 92.3819C83.1322 92.364 83.2072 92.3703 83.2742 92.3998C83.3412 92.4293 83.3964 92.4803 83.4312 92.5447C83.483 92.6446 83.4608 92.7186 83.4793 92.726C83.4978 92.7334 83.557 92.6594 83.5237 92.5114C83.5002 92.4201 83.4468 92.3393 83.372 92.282C83.264 92.2077 83.1313 92.1785 83.002 92.2006C82.8522 92.2358 82.7137 92.3087 82.5998 92.4122C82.4859 92.5158 82.4002 92.6467 82.3508 92.7926C82.2029 93.1169 82.138 93.4729 82.1621 93.8286C82.2065 94.5686 82.6098 95.2531 83.1463 95.39C83.2464 95.4159 83.351 95.4187 83.4523 95.3982C83.5536 95.3777 83.6489 95.3344 83.7309 95.2716C83.8678 95.1902 83.8863 95.0903 83.8715 95.0903Z" fill="#AA6550"/>
<path d="M102.017 90.961C102.018 91.1607 101.942 91.353 101.803 91.4973C101.665 91.6416 101.477 91.7266 101.277 91.7342C101.179 91.7418 101.081 91.7298 100.988 91.699C100.895 91.6682 100.808 91.6192 100.734 91.5548C100.66 91.4904 100.6 91.412 100.556 91.324C100.513 91.236 100.488 91.1403 100.481 91.0424C100.479 90.842 100.556 90.6487 100.694 90.5036C100.832 90.3585 101.021 90.2731 101.221 90.2654C101.32 90.2578 101.418 90.2699 101.512 90.301C101.605 90.332 101.691 90.3813 101.765 90.4461C101.839 90.5109 101.9 90.5898 101.943 90.6782C101.986 90.7666 102.011 90.8627 102.017 90.961Z" fill="#263238"/>
<path d="M102.765 90.1878C102.669 90.2914 102.088 89.8585 101.259 89.8622C100.43 89.8659 99.8234 90.2766 99.7346 90.1767C99.6458 90.0768 99.7864 89.951 100.053 89.7549C100.412 89.5089 100.838 89.3797 101.274 89.3849C101.702 89.3804 102.121 89.5098 102.473 89.7549C102.724 89.9621 102.813 90.1434 102.765 90.1878Z" fill="#263238"/>
<path d="M93.8773 90.961C93.8784 91.1607 93.8019 91.353 93.6638 91.4973C93.5257 91.6416 93.3369 91.7266 93.1373 91.7342C93.0395 91.7418 92.9412 91.7298 92.848 91.699C92.7549 91.6682 92.6688 91.6192 92.5948 91.5548C92.5207 91.4904 92.4603 91.412 92.4168 91.324C92.3734 91.236 92.3479 91.1403 92.3418 91.0424C92.3398 90.842 92.4159 90.6487 92.5541 90.5036C92.6923 90.3585 92.8816 90.2731 93.0818 90.2654C93.1799 90.2578 93.2786 90.2699 93.3719 90.301C93.4653 90.332 93.5516 90.3813 93.6256 90.4461C93.6997 90.5109 93.7601 90.5898 93.8033 90.6782C93.8466 90.7666 93.8717 90.8627 93.8773 90.961Z" fill="#263238"/>
<path d="M94.6247 90.3432C94.5285 90.4431 93.9476 90.0139 93.1188 90.0139C92.29 90.0139 91.6832 90.432 91.5944 90.3284C91.55 90.284 91.6462 90.1027 91.9126 89.9103C92.2711 89.6628 92.698 89.5334 93.1336 89.5403C93.5622 89.5341 93.9818 89.6636 94.3324 89.9103C94.584 90.1175 94.6728 90.2988 94.6247 90.3432Z" fill="#263238"/>
<path d="M97.6286 96.4849C98.0654 96.3468 98.518 96.2648 98.9754 96.2407C99.1863 96.2185 99.3861 96.1778 99.4231 96.0335C99.4388 95.8158 99.3899 95.5983 99.2825 95.4082L98.6572 93.795C97.7877 91.5047 97.1587 89.6177 97.2512 89.5844C97.3437 89.5511 98.1244 91.3826 98.9902 93.6544C99.1999 94.2193 99.3997 94.7595 99.5896 95.275C99.7233 95.5295 99.7627 95.8231 99.7006 96.1038C99.67 96.1786 99.6228 96.2455 99.5625 96.2993C99.5023 96.3532 99.4306 96.3926 99.3528 96.4146C99.2323 96.4477 99.1078 96.4638 98.9828 96.4627C98.5343 96.5286 98.0791 96.5361 97.6286 96.4849Z" fill="#263238"/>
<path d="M95.1937 97.0583C95.3269 97.0583 95.3306 97.9463 96.1002 98.5864C96.8698 99.2265 97.8244 99.1266 97.8318 99.2524C97.8318 99.3079 97.6172 99.4263 97.2139 99.4374C96.6872 99.4433 96.1751 99.2639 95.7672 98.9305C95.3759 98.6109 95.1239 98.152 95.0642 97.6503C95.0309 97.2729 95.1308 97.0509 95.1937 97.0583Z" fill="#263238"/>
<path d="M102.461 88.7337C102.313 88.9187 101.743 88.7337 101.058 88.7337C100.374 88.7337 99.7891 88.8595 99.6559 88.6634C99.5967 88.5672 99.6892 88.3785 99.9445 88.2009C100.285 87.988 100.682 87.881 101.084 87.8936C101.485 87.9061 101.874 88.0375 102.202 88.2712C102.446 88.4303 102.523 88.6412 102.461 88.7337Z" fill="#263238"/>
<path d="M93.5477 87.3499C93.4552 87.4535 93.2443 87.4091 92.9668 87.3499C92.295 87.1898 91.5978 87.1671 90.917 87.2833C90.6358 87.3166 90.4212 87.3462 90.3361 87.2389C90.251 87.1316 90.3361 86.9022 90.6247 86.6654C91.017 86.3805 91.493 86.2346 91.9775 86.2507C92.462 86.2668 92.9273 86.444 93.2998 86.7542C93.5699 87.0169 93.6365 87.2574 93.5477 87.3499Z" fill="#263238"/>
<path d="M104.051 84.2637C101.458 84.9683 98.7081 84.8283 96.2 83.8641C93.4065 82.8059 90.243 82.4729 89.614 83.076C88.985 83.6791 89.1182 86.4319 86.5652 87.4975C86.5652 87.4975 87.2756 92.7034 85.174 92.7256C83.0724 92.7478 83.5571 84.5264 83.5571 84.5264L88.4004 81.522L93.8468 79.9199L99.0564 79.3945L104.051 80.3935V84.2637Z" fill="#263238"/>
<path d="M117.968 127.38C117.968 127.38 127.351 137.041 130.659 135.605C139.653 131.72 146.964 123.491 149.48 120.542C149.588 119.987 149.695 119.336 149.788 118.559C149.865 117.888 149.828 117.208 149.677 116.55C149.524 115.721 149.258 114.916 148.885 114.16C148.474 113.497 149.066 112.702 149.714 112.972C150.361 113.242 151.934 114.992 152.263 117.456C152.303 117.597 152.373 117.728 152.468 117.839C152.563 117.95 152.681 118.039 152.814 118.1C152.947 118.16 153.092 118.192 153.238 118.191C153.384 118.191 153.529 118.158 153.661 118.097C155.289 117.56 160.821 115.414 161.801 115.185C162.678 114.981 163.725 115.033 163.141 115.673C162.556 116.313 158.479 118.7 158.479 118.7C158.479 118.7 163.762 115.466 164.199 116.258C164.499 116.805 163.385 118.063 159.678 119.854C159.678 119.854 164.051 117.223 164.798 117.308C166.478 117.505 161.246 120.724 161.246 120.724C164.946 118.504 164.758 118.352 165.157 118.785C165.457 119.107 164.81 119.843 162.993 121.323C161.513 122.525 160.233 124.065 158.087 126.015C158.087 126.015 135.887 156.891 121.919 147.415C114.39 142.306 112.321 139.73 108.048 135.86" fill="#B78876"/>
<path d="M159.056 122.1C159.111 122.193 160.269 121.56 161.646 120.683C163.022 119.806 164.088 119.022 164.025 118.933C163.962 118.844 162.804 119.481 161.435 120.354C160.066 121.227 159.004 122.019 159.056 122.1Z" fill="#AA6550"/>
<path d="M158.053 120.786C158.105 120.879 159.381 120.272 160.898 119.428C162.415 118.585 163.603 117.826 163.551 117.73C163.5 117.634 162.227 118.244 160.706 119.088C159.185 119.932 157.99 120.69 158.053 120.786Z" fill="#AA6550"/>
<path d="M157.021 119.403C157.073 119.499 158.287 118.944 159.733 118.167C161.18 117.39 162.323 116.687 162.26 116.584C162.198 116.48 160.995 117.042 159.548 117.819C158.102 118.596 156.969 119.307 157.021 119.403Z" fill="#AA6550"/>
<path d="M62.4158 135.05C62.4158 135.05 57.6872 147.659 54.0834 147.671C44.2784 147.7 34.2921 143.101 30.8067 141.406C30.4885 140.94 30.1259 140.385 29.73 139.712C29.3914 139.128 29.1537 138.491 29.027 137.829C28.8377 137.007 28.7606 136.163 28.7976 135.32C28.9086 134.55 28.0576 134.055 27.5618 134.58C27.066 135.105 26.3334 137.322 27.0216 139.712C27.0414 139.857 27.0296 140.004 26.9868 140.144C26.9441 140.284 26.8715 140.413 26.774 140.522C26.6766 140.631 26.5566 140.718 26.4224 140.776C26.2881 140.834 26.1429 140.862 25.9967 140.859C24.291 141.018 18.3636 141.266 17.3683 141.451C16.484 141.617 15.5442 142.084 16.336 142.435C16.9132 142.69 19.5476 143.053 20.9462 143.231C19.2479 143.038 15.6626 142.709 15.6034 143.393C15.5664 143.797 16.1954 144.233 17.7457 144.533C16.6875 144.463 15.7329 144.448 15.4776 144.6C13.9976 145.451 20.0989 146.302 20.0989 146.302C15.8291 145.743 15.929 145.539 15.7366 146.094C15.5923 146.509 16.4766 146.927 18.7373 147.574C20.5873 148.085 22.3633 148.977 25.1124 149.905C25.1124 149.905 57.8278 169.301 66.8225 155.026C71.6732 147.33 72.539 144.141 74.9033 138.879L62.4158 135.05Z" fill="#B78876"/>
<path d="M22.6592 146.672C22.6592 146.779 21.3309 146.672 19.6992 146.409C18.0675 146.146 16.7984 145.869 16.8206 145.761C16.8428 145.654 18.16 145.761 19.7806 146.024C21.4012 146.287 22.6703 146.564 22.6592 146.672Z" fill="#AA6550"/>
<path d="M23.0476 145.04C23.0476 145.147 21.6268 145.103 19.8989 144.94C18.171 144.777 16.7761 144.57 16.7872 144.444C16.7983 144.319 18.2043 144.385 19.9359 144.548C21.6675 144.711 23.055 144.948 23.0476 145.04Z" fill="#AA6550"/>
<path d="M23.4393 143.375C23.4393 143.482 22.0962 143.464 20.4571 143.327C18.818 143.19 17.4971 142.998 17.4971 142.89C17.4971 142.783 18.8402 142.805 20.4793 142.938C22.1184 143.072 23.4467 143.268 23.4393 143.375Z" fill="#AA6550"/>
<path d="M129.038 135.634L113.561 118.363C109.25 114.126 106.949 112.861 100.951 112.151C99.9705 112.036 99.1898 111.962 98.6311 111.892C94.1367 113.312 89.3134 113.312 84.819 111.892C82.6841 111.98 80.9155 112.632 79.1025 113.002C73.3823 114.112 69.2679 118.263 68.1246 122.107L55.2227 147.308L66.1192 156.466L76.0722 140.667L76.679 157.483L76.0611 170.063L114.264 170.174L112.528 140.674L122.811 149.043L129.038 135.634Z" fill="#0553C8"/>
<path d="M76.2465 130.081C76.2849 130.266 76.301 130.455 76.2946 130.643C76.2946 131.013 76.3205 131.524 76.3316 132.172C76.3316 133.459 76.3575 135.243 76.3316 137.211C76.3057 139.179 76.2983 140.963 76.2687 142.25C76.2687 142.898 76.2354 143.42 76.2206 143.778C76.2254 143.966 76.2068 144.154 76.1651 144.337C76.1243 144.154 76.1069 143.966 76.1133 143.778C76.1133 143.408 76.0874 142.894 76.0763 142.25C76.0578 140.959 76.0504 139.179 76.0763 137.207C76.1022 135.235 76.1096 133.459 76.1392 132.168C76.1392 131.524 76.1725 131.002 76.191 130.64C76.1843 130.452 76.203 130.264 76.2465 130.081Z" fill="#263238"/>
<path d="M113.175 151.7C113.116 151.415 113.079 151.125 113.064 150.834C113.009 150.228 112.939 149.428 112.85 148.466C112.683 146.465 112.48 143.697 112.258 140.641C112.036 137.585 111.858 134.832 111.74 132.83C111.692 131.864 111.647 131.062 111.618 130.455C111.594 130.164 111.594 129.872 111.618 129.582C111.68 129.867 111.718 130.156 111.732 130.447C111.788 131.054 111.858 131.853 111.943 132.815C112.11 134.817 112.313 137.585 112.539 140.641C112.765 143.697 112.935 146.465 113.053 148.47C113.105 149.436 113.146 150.239 113.179 150.845C113.2 151.13 113.199 151.416 113.175 151.7Z" fill="#263238"/>
<g opacity="0.3">
<path opacity="0.3" d="M118.841 124.176C118.841 124.228 107.249 124.272 92.941 124.272C78.6331 124.272 67.041 124.228 67.041 124.176C67.041 124.124 78.6331 124.08 92.941 124.08C107.249 124.08 118.841 124.12 118.841 124.176Z" fill="#EBEBEB"/>
</g>
<g opacity="0.3">
<path opacity="0.3" d="M122.84 139.523C122.84 139.579 108.714 139.62 91.294 139.62C73.8744 139.62 59.7441 139.579 59.7441 139.523C59.7441 139.468 73.867 139.427 91.294 139.427C108.721 139.427 122.84 139.49 122.84 139.523Z" fill="#EBEBEB"/>
</g>
<g opacity="0.3">
<path opacity="0.3" d="M113.487 157.024C113.487 157.08 105.284 157.121 95.1642 157.121C85.0447 157.121 76.8418 157.08 76.8418 157.024C76.8418 156.969 85.0447 156.928 95.1642 156.928C105.284 156.928 113.487 156.973 113.487 157.024Z" fill="#EBEBEB"/>
</g>
<g opacity="0.3">
<path opacity="0.3" d="M80.9419 170.134C80.8901 170.134 80.8457 157.243 80.8457 141.348C80.8457 125.452 80.8901 112.554 80.9419 112.554C80.9937 112.554 81.0307 125.43 81.0307 141.34C81.0307 157.25 80.9974 170.134 80.9419 170.134Z" fill="#EBEBEB"/>
</g>
<g opacity="0.3">
<path opacity="0.3" d="M103.082 170.137C103.082 170.137 103.082 170.085 103.082 169.989C103.082 169.893 103.082 169.734 103.082 169.549C103.082 169.156 103.082 168.59 103.064 167.869C103.064 166.389 103.034 164.284 103.016 161.682C102.968 156.447 102.901 149.236 102.831 141.27C102.761 133.303 102.709 126.077 102.705 120.853C102.705 118.263 102.705 116.139 102.705 114.667C102.705 113.927 102.705 113.379 102.724 112.987C102.724 112.802 102.724 112.654 102.724 112.546C102.719 112.497 102.719 112.448 102.724 112.398C102.724 112.398 102.724 112.45 102.724 112.546C102.724 112.643 102.724 112.802 102.724 112.987C102.724 113.379 102.724 113.945 102.742 114.667C102.742 116.147 102.772 118.248 102.79 120.853C102.838 126.085 102.905 133.3 102.975 141.27C103.045 149.239 103.097 156.44 103.101 161.679C103.101 164.269 103.101 166.396 103.101 167.869C103.101 168.59 103.101 169.156 103.101 169.549C103.101 169.734 103.101 169.878 103.101 169.989C103.1 170.039 103.093 170.088 103.082 170.137Z" fill="#EBEBEB"/>
</g>
<g opacity="0.3">
<path opacity="0.3" d="M118.745 145.529C118.693 145.529 118.648 140.867 118.648 135.117C118.648 129.367 118.693 124.705 118.745 124.705C118.796 124.705 118.841 129.363 118.841 135.117C118.841 140.87 118.8 145.529 118.745 145.529Z" fill="#EBEBEB"/>
</g>
<g opacity="0.3">
<path opacity="0.3" d="M63.6108 149.795C63.5553 149.795 63.5146 145.399 63.5146 139.975C63.5146 134.551 63.5553 130.151 63.6108 130.151C63.6663 130.151 63.707 134.547 63.707 139.975C63.707 145.403 63.6626 149.795 63.6108 149.795Z" fill="#EBEBEB"/>
</g>
<path d="M83.3906 112.398L85.4996 107.966L92.4075 112.835L99.2229 108.254L101.621 112.147L94.7903 116.587H90.2245L83.3906 112.913" fill="#0553C8"/>
<path d="M92.408 112.85C92.3666 112.868 92.3231 112.88 92.2785 112.887C92.1511 112.903 92.0266 112.937 91.9085 112.987C91.4822 113.16 91.122 113.465 90.8799 113.856C90.5054 114.442 90.187 115.061 89.929 115.706C89.7662 116.076 89.6034 116.446 89.3962 116.842C89.1926 117.253 88.924 117.628 88.6007 117.952L88.5341 118.015L88.4675 117.945L88.0753 117.538C86.7063 116.102 85.5408 114.737 84.7453 113.723C84.3383 113.216 84.0053 112.802 83.8055 112.51C83.6841 112.365 83.5775 112.209 83.4873 112.043C83.624 112.17 83.748 112.31 83.8573 112.462L84.8415 113.638C85.6777 114.626 86.858 115.977 88.2196 117.405L88.6118 117.812H88.4786C88.79 117.503 89.0476 117.144 89.2408 116.75C89.4443 116.38 89.6108 115.991 89.7773 115.64C90.049 114.991 90.3849 114.372 90.78 113.79C91.0444 113.388 91.4348 113.084 91.89 112.928C92.0092 112.887 92.134 112.864 92.26 112.861C92.3599 112.828 92.408 112.828 92.408 112.85Z" fill="#263238"/>
<path d="M101.499 112.232C101.403 112.392 101.29 112.54 101.162 112.676C100.929 112.953 100.589 113.346 100.145 113.808C98.9781 115.012 97.7037 116.107 96.3375 117.079C96.0378 117.29 95.7381 117.493 95.4495 117.682L95.3163 117.767V117.604C95.2321 116.825 95.0429 116.061 94.7539 115.333C94.5395 114.742 94.2309 114.189 93.84 113.697C93.5875 113.365 93.2482 113.109 92.8595 112.957C92.5857 112.865 92.4192 112.854 92.4229 112.835C92.4266 112.817 92.4636 112.835 92.5413 112.835C92.6567 112.839 92.7712 112.857 92.8817 112.891C93.2952 113.025 93.6613 113.275 93.9362 113.612C94.3525 114.106 94.6828 114.666 94.913 115.27C95.2173 116.014 95.4178 116.798 95.5087 117.597L95.3607 117.523C95.6456 117.331 95.9416 117.131 96.2413 116.92C97.5989 115.956 98.8759 114.883 100.06 113.712C100.519 113.264 100.874 112.887 101.122 112.628C101.236 112.486 101.362 112.353 101.499 112.232Z" fill="#263238"/>
<path d="M95.0355 170.137C95.0355 170.137 95.0355 170.085 95.0355 169.989C95.0355 169.893 95.0355 169.741 95.0355 169.556C95.0355 169.168 95.0355 168.609 95.0133 167.895C95.0133 166.441 94.9726 164.354 94.9393 161.779C94.8653 156.617 94.6988 149.487 94.3399 141.617C93.981 133.748 93.4852 126.632 93.0893 121.486C92.8821 118.918 92.7193 116.839 92.6009 115.388C92.5454 114.678 92.501 114.123 92.4677 113.734C92.4677 113.549 92.4455 113.409 92.4418 113.301C92.4361 113.252 92.4361 113.202 92.4418 113.153C92.4418 113.153 92.4418 113.201 92.464 113.298C92.4862 113.394 92.4899 113.549 92.5121 113.731C92.5528 114.119 92.6083 114.674 92.6786 115.384C92.8229 116.82 93.0116 118.899 93.2299 121.475C93.6628 126.618 94.1734 133.736 94.536 141.61C94.8986 149.484 95.0392 156.614 95.0799 161.779C95.1021 164.369 95.1021 166.452 95.0799 167.895C95.0799 168.609 95.0799 169.168 95.0799 169.556C95.0799 169.741 95.0799 169.882 95.0799 169.989C95.07 170.04 95.0551 170.089 95.0355 170.137Z" fill="#263238"/>
<g opacity="0.2">
<path opacity="0.2" d="M92.2451 112.85C93.085 113.327 93.3958 114.389 93.3995 115.351C93.4032 116.313 93.1738 117.275 93.2552 118.237C93.2546 118.49 93.3124 118.739 93.4241 118.966C93.5358 119.192 93.6983 119.39 93.899 119.543C94.4836 119.913 95.2273 119.565 95.8267 119.236C97.1143 118.529 98.4167 117.808 99.4712 116.779C99.9759 116.26 100.368 115.642 100.622 114.964C100.877 114.286 100.989 113.562 100.951 112.839C99.1752 114.744 97.3844 115.895 95.4419 117.397C95.3027 116.383 94.9712 115.405 94.4651 114.515C93.9619 113.642 93.2478 112.739 92.2451 112.85Z" fill="black"/>
</g>
<g opacity="0.2">
<path opacity="0.2" d="M85.8994 115.041C86.5543 116.324 87.2425 117.631 88.371 118.544C88.8705 118.94 89.6031 119.24 90.1248 118.87C90.5429 118.57 90.6132 117.989 90.6465 117.475C90.7353 116.173 91.1201 114.674 91.2089 113.368C90.1766 114.534 89.6105 116.587 88.5227 117.997C87.4127 117.298 86.7726 116.102 85.9734 115.063" fill="black"/>
</g>
<g opacity="0.2">
<path opacity="0.2" d="M119.51 146.15L124.664 136.563C123.14 136.715 122.115 138.154 121.334 139.472C120.554 140.789 119.595 142.25 118.082 142.513C117.031 142.694 115.98 142.224 115.063 141.677C114.145 141.129 113.257 140.482 112.214 140.252L119.51 146.15Z" fill="black"/>
</g>
<g opacity="0.2">
<path opacity="0.2" d="M74.2331 143.56C74.2331 143.56 70.6441 147.338 68.2243 147.893C67.0076 148.161 65.7478 148.167 64.5282 147.912C63.3087 147.657 62.1572 147.146 61.15 146.413C60.9956 146.278 60.8119 146.18 60.6135 146.128C60.5131 146.107 60.4087 146.126 60.3215 146.179C60.2342 146.233 60.1706 146.318 60.1436 146.416C60.1475 146.507 60.1723 146.595 60.216 146.674C60.2596 146.752 60.3209 146.82 60.3952 146.872C62.8618 149.168 65.4321 151.353 68.106 153.428L74.2331 143.56Z" fill="black"/>
</g>
<g opacity="0.2">
<path opacity="0.2" d="M91.1358 117.808C89.7742 128.684 88.885 139.604 88.4681 150.568C88.4052 152.281 88.3608 154.046 88.9713 155.648C89.6817 157.498 91.1913 158.941 92.6713 160.295C93.2966 160.872 94.1513 161.494 94.9135 161.135C95.2043 160.971 95.4517 160.741 95.635 160.462C96.5601 159.27 97.4258 157.983 97.7699 156.51C98.843 151.9 94.4917 147.338 95.4722 142.705" fill="black"/>
</g>
<path d="M90.7838 114.023L94.0509 113.938L94.9241 115.695L93.877 118.633H91.2093L89.7959 116.003L90.7838 114.023Z" fill="#F20000"/>
<path d="M91.2088 118.633L89.6807 156.025L94.1207 160.854L98.224 155.023L93.8765 118.633H91.2088Z" fill="#F20000"/>
<path d="M93.7218 118.685C93.3108 118.725 92.897 118.725 92.486 118.685C92.075 118.711 91.6623 118.698 91.2539 118.644C92.0643 118.428 92.919 118.442 93.7218 118.685Z" fill="#263238"/>
<path d="M94.4241 114.571C94.3169 114.78 94.177 114.971 94.0098 115.137C93.6371 115.561 93.2259 115.95 92.7813 116.299C92.3405 116.649 91.8686 116.959 91.3717 117.224C91.1728 117.351 90.9538 117.443 90.7242 117.498C90.6983 117.446 91.6455 116.957 92.663 116.147C93.6805 115.337 94.3797 114.53 94.4241 114.571Z" fill="#263238"/>
<path d="M94.2802 122.285C93.7959 122.9 93.2626 123.474 92.6855 124.002C92.1518 124.576 91.5714 125.104 90.9502 125.582C91.4352 124.967 91.9698 124.393 92.5486 123.865C93.0805 123.291 93.6598 122.762 94.2802 122.285Z" fill="#FF725E"/>
<path d="M94.5062 124.979C93.9585 125.656 93.3612 126.292 92.7191 126.88C92.1242 127.517 91.4823 128.108 90.7988 128.649C91.3469 127.971 91.9443 127.334 92.5859 126.743C93.1814 126.108 93.8233 125.518 94.5062 124.979Z" fill="#EBEBEB"/>
<path d="M94.9283 127.465C94.2825 128.241 93.588 128.975 92.8489 129.663C92.1528 130.397 91.4113 131.086 90.6289 131.727C91.2741 130.95 91.9686 130.214 92.7083 129.526C93.4026 128.791 94.1442 128.103 94.9283 127.465Z" fill="#FF725E"/>
<path d="M95.2202 130.084C94.5096 130.923 93.7524 131.721 92.9521 132.475C92.1951 133.27 91.3933 134.021 90.5508 134.724C91.2577 133.885 92.0139 133.088 92.8152 132.338C93.5723 131.541 94.3754 130.788 95.2202 130.084Z" fill="#EBEBEB"/>
<path d="M95.4974 132.723C94.7268 133.621 93.9092 134.478 93.048 135.29C92.2304 136.149 91.3657 136.962 90.458 137.725C91.2275 136.818 92.0452 135.954 92.9074 135.135C93.725 134.283 94.5897 133.478 95.4974 132.723Z" fill="#FF725E"/>
<path d="M95.8306 135.302C95.8713 135.339 94.6613 136.6 93.1369 138.121C91.6125 139.642 90.3397 140.84 90.3027 140.803C91.1532 139.818 92.0535 138.877 93 137.984C94.5245 136.463 95.7899 135.265 95.8306 135.302Z" fill="#EBEBEB"/>
<path d="M96.1079 137.936C96.1449 137.973 94.8462 139.324 93.2108 140.956C91.5754 142.587 90.2175 143.871 90.1805 143.834C90.1435 143.797 91.4385 142.447 93.0739 140.819C94.7093 139.191 96.0672 137.899 96.1079 137.936Z" fill="#FF725E"/>
<path d="M96.4342 140.526C96.4712 140.563 95.0837 142.006 93.3373 143.741C91.5909 145.477 90.1442 146.857 90.1072 146.82C90.0702 146.783 91.454 145.34 93.2041 143.605C94.9542 141.869 96.3935 140.489 96.4342 140.526Z" fill="#EBEBEB"/>
<path d="M96.6372 143.234C96.6742 143.271 95.2016 144.799 93.3479 146.642C91.4942 148.485 89.9624 149.954 89.9217 149.917C89.881 149.88 91.3573 148.351 93.211 146.509C95.0647 144.666 96.6002 143.19 96.6372 143.234Z" fill="#FF725E"/>
<path d="M96.9965 145.78C97.0335 145.817 95.4795 147.427 93.5259 149.373C91.5723 151.319 89.9517 152.869 89.9147 152.832C89.8777 152.795 91.4317 151.186 93.389 149.236C95.3463 147.286 96.9595 145.751 96.9965 145.78Z" fill="#EBEBEB"/>
<path d="M97.5622 148.133C97.5992 148.174 95.8602 149.965 93.6809 152.137C91.5016 154.309 89.6997 156.044 89.6627 156.007C89.6257 155.97 91.361 154.175 93.544 152C95.727 149.824 97.5252 148.096 97.5622 148.133Z" fill="#FF725E"/>
<path d="M91.072 157.538C91.035 157.501 92.5039 155.962 94.3576 154.101C96.2113 152.24 97.7394 150.771 97.7801 150.801C97.8208 150.83 96.3445 152.377 94.4945 154.238C92.6445 156.099 91.109 157.575 91.072 157.538Z" fill="#EBEBEB"/>
<path d="M92.7704 159.241C92.7334 159.204 93.8804 157.931 95.3604 156.395C96.2187 155.445 97.1252 154.54 98.0762 153.683C97.2612 154.674 96.3968 155.624 95.4862 156.528C94.6279 157.478 93.7214 158.383 92.7704 159.241Z" fill="#FF725E"/>
<path d="M93.951 119.78C93.5275 120.334 93.0544 120.848 92.5376 121.316C92.0654 121.83 91.5464 122.3 90.9873 122.718C91.4113 122.164 91.8844 121.649 92.4007 121.179C92.8734 120.666 93.3923 120.198 93.951 119.78Z" fill="#EBEBEB"/>
<path d="M55.5449 147.227C55.0047 147.179 54.8049 146.446 54.9751 145.932C55.1453 145.418 55.556 145.003 55.7151 144.485C55.815 144.193 55.8594 143.841 56.1147 143.664C56.2542 143.574 56.418 143.53 56.5837 143.537C56.7493 143.545 56.9086 143.603 57.0397 143.705C58.5456 144.992 59.6556 146.246 61.2984 147.641C62.882 148.981 64.5877 150.701 66.2601 151.933C67.1999 152.629 68.3506 153.347 68.4801 154.523C68.5118 155.004 68.3573 155.478 68.0487 155.848C67.7401 156.218 67.3011 156.455 66.8225 156.51C65.8679 156.577 65.0428 155.9 64.3287 155.263C61.349 152.604 58.368 149.946 55.3858 147.29" fill="#0553C8"/>
<path d="M67.8806 153.272C67.7187 153.176 67.5652 153.066 67.4218 152.943C67.1332 152.721 66.7077 152.418 66.1749 152.04C65.5475 151.605 64.9481 151.13 64.3804 150.62L62.3121 148.74C60.8321 147.397 59.5297 146.176 58.5825 145.284L57.4725 144.219C57.336 144.095 57.2121 143.959 57.1025 143.812C57.2601 143.921 57.4075 144.045 57.5428 144.182L58.7009 145.199C59.6703 146.065 60.9986 147.271 62.4638 148.61C63.2038 149.284 63.8846 149.92 64.5173 150.505C65.0764 151.019 65.6644 151.501 66.2785 151.948C66.8002 152.34 67.2146 152.666 67.4921 152.902C67.6331 153.013 67.7632 153.137 67.8806 153.272Z" fill="#263238"/>
<path d="M66.8967 154.135C66.7279 154.059 66.5669 153.967 66.4157 153.861C66.116 153.676 65.6757 153.395 65.1614 153.039C64.1106 152.329 62.6861 151.304 61.1765 150.079C59.6669 148.855 58.3534 147.704 57.4321 146.834C56.9696 146.402 56.5996 146.043 56.3554 145.787C56.219 145.664 56.095 145.528 55.9854 145.38C56.1365 145.493 56.2787 145.616 56.4109 145.75L57.5209 146.749C58.4681 147.593 59.789 148.736 61.2949 149.946C62.8008 151.156 64.2105 152.192 65.2391 152.928L66.4564 153.798C66.6123 153.898 66.7596 154.01 66.8967 154.135Z" fill="white"/>
<g opacity="0.3">
<path opacity="0.3" d="M60.31 146.79C59.9643 147.269 59.5686 147.709 59.1297 148.104C58.7345 148.543 58.2928 148.939 57.8125 149.284C58.5526 148.365 59.39 147.529 60.31 146.79Z" fill="#EBEBEB"/>
</g>
<g opacity="0.3">
<path opacity="0.3" d="M66.1081 151.985C65.7303 152.481 65.3026 152.938 64.8316 153.346C64.4037 153.801 63.9315 154.211 63.4219 154.571C63.7984 154.074 64.2262 153.617 64.6984 153.21C65.1253 152.754 65.5976 152.344 66.1081 151.985Z" fill="#EBEBEB"/>
</g>
<g opacity="0.5">
<path opacity="0.5" d="M88.1825 110.057C87.8173 110.798 87.3955 111.511 86.9208 112.188C86.5011 112.9 86.026 113.578 85.5 114.215C85.8671 113.475 86.2888 112.762 86.7617 112.084C87.1799 111.371 87.655 110.693 88.1825 110.057Z" fill="#EBEBEB"/>
</g>
<g opacity="0.5">
<path opacity="0.5" d="M99.1603 114.352C98.7358 113.652 98.3647 112.921 98.0504 112.166C97.6789 111.435 97.3659 110.677 97.1143 109.897C97.914 111.321 98.5995 112.806 99.164 114.337L99.1603 114.352Z" fill="#EBEBEB"/>
</g>
<path d="M123.303 148.148C123.201 148.382 123.027 148.577 122.805 148.703C122.584 148.829 122.327 148.879 122.074 148.847C121.534 148.788 121.042 148.477 120.498 148.437C120.191 148.403 119.839 148.437 119.61 148.226C119.51 148.1 119.443 147.951 119.414 147.793C119.385 147.635 119.395 147.472 119.443 147.319C119.788 145.273 120.898 143.442 122.089 141.743C123.28 140.045 124.586 138.413 125.419 136.5C125.885 135.427 126.329 134.147 127.435 133.762C127.899 133.623 128.399 133.669 128.83 133.889C129.261 134.11 129.59 134.489 129.748 134.946C130.025 135.864 129.548 136.819 129.086 137.655L123.303 148.148Z" fill="#0553C8"/>
<path d="M127.003 135.672C126.96 135.85 126.902 136.025 126.829 136.194C126.707 136.523 126.518 136.996 126.281 137.577C125.804 138.739 125.112 140.334 124.294 142.069C123.477 143.804 122.677 145.351 122.074 146.457C121.778 147.009 121.53 147.453 121.353 147.756C121.27 147.919 121.172 148.074 121.061 148.219C121.122 148.047 121.198 147.882 121.286 147.723L121.956 146.391C122.522 145.281 123.295 143.719 124.113 141.988C124.931 140.256 125.645 138.658 126.152 137.522C126.396 136.974 126.599 136.519 126.755 136.164C126.822 135.993 126.905 135.828 127.003 135.672Z" fill="white"/>
<path d="M126.381 133.622C126.302 133.797 126.208 133.964 126.1 134.122L125.297 135.446C124.62 136.556 123.706 138.118 122.751 139.886C121.796 141.655 120.99 143.253 120.416 144.426L119.743 145.821C119.668 145.996 119.579 146.164 119.477 146.324C119.525 146.141 119.591 145.962 119.673 145.791C119.813 145.451 120.024 144.966 120.294 144.371C120.834 143.179 121.626 141.551 122.581 139.794C123.535 138.036 124.475 136.49 125.171 135.387C125.541 134.836 125.818 134.395 126.026 134.096C126.127 133.926 126.246 133.767 126.381 133.622Z" fill="#263238"/>
<g opacity="0.5">
<path opacity="0.5" d="M124.59 145.521C123.892 145.427 123.214 145.215 122.585 144.896C121.928 144.638 121.318 144.275 120.779 143.819C120.809 143.771 121.612 144.256 122.663 144.722C123.713 145.188 124.605 145.469 124.59 145.521Z" fill="#EBEBEB"/>
</g>
<g opacity="0.5">
<path opacity="0.5" d="M129.13 137.877C128.452 137.551 127.797 137.181 127.169 136.767C126.507 136.405 125.869 135.999 125.26 135.553C125.963 135.834 126.637 136.186 127.269 136.604C127.931 136.963 128.555 137.39 129.13 137.877Z" fill="#EBEBEB"/>
</g>
<path d="M134.938 20.3574L134.198 21.7079L132.852 22.4442L134.198 23.1842L134.938 24.531L135.675 23.1842L137.025 22.4442L135.675 21.7079L134.938 20.3574Z" fill="#455A64"/>
<path d="M161.379 100.381L160.639 101.728L159.292 102.468L160.639 103.204L161.379 104.551L162.115 103.204L163.466 102.468L162.115 101.728L161.379 100.381Z" fill="#455A64"/>
<path d="M42.1981 24.5532L41.4581 25.9L40.1113 26.64L41.4581 27.3763L42.1981 28.7231L42.9344 27.3763L44.2849 26.64L42.9344 25.9L42.1981 24.5532Z" fill="#455A64"/>
<path d="M151.666 63.0889L151.211 63.9177L150.382 64.3691L151.211 64.8242L151.666 65.653L152.121 64.8242L152.946 64.3691L152.121 63.9177L151.666 63.0889Z" fill="#455A64"/>
<path d="M91.5075 39.5605L91.0524 40.393L90.2236 40.8444L91.0524 41.2959L91.5075 42.1284L91.9589 41.2959L92.7877 40.8444L91.9589 40.393L91.5075 39.5605Z" fill="#455A64"/>
<path d="M65.6709 60.9058L65.2639 61.6421L64.5312 62.0454L65.2639 62.4487L65.6709 63.185L66.0742 62.4487L66.8068 62.0454L66.0742 61.6421L65.6709 60.9058Z" fill="#455A64"/>
<path d="M114.474 96.3999L114.07 97.1399L113.334 97.5432L114.07 97.9465L114.474 98.6828L114.881 97.9465L115.613 97.5432L114.881 97.1399L114.474 96.3999Z" fill="#455A64"/>
<path d="M43.5009 103.352L43.0976 104.088L42.3613 104.492L43.0976 104.895L43.5009 105.631L43.9042 104.895L44.6405 104.492L43.9042 104.088L43.5009 103.352Z" fill="#455A64"/>
<path d="M26.7988 40.748C26.7988 40.748 29.0188 39.5714 31.5052 41.3474C33.037 42.4574 36.2893 44.1446 37.292 43.1123L38.5241 39.1348C36.9056 38.7942 35.3813 38.1034 34.0582 37.1109C32.0935 35.5569 28.1789 35.6309 28.1789 35.6309L26.7988 40.748Z" fill="#08B29B"/>
<g opacity="0.4">
<path opacity="0.4" d="M33.7405 37.6141C33.9894 37.7557 34.2048 37.9494 34.372 38.1818C34.5392 38.4142 34.6543 38.68 34.7095 38.961C34.7646 39.242 34.7585 39.5315 34.6915 39.8099C34.6245 40.0883 34.4983 40.349 34.3214 40.5741C33.6517 41.3659 32.1014 41.1587 31.3133 40.4853C31.1251 40.326 30.9702 40.1312 30.8574 39.912C30.7445 39.6928 30.676 39.4535 30.6558 39.2078C30.6355 38.9621 30.6638 38.7149 30.7392 38.4801C30.8146 38.2454 30.9355 38.0278 31.095 37.8398C31.7647 37.0406 32.8451 37.0924 33.7405 37.6141Z" fill="white"/>
</g>
<path d="M33.6997 38.4057C33.6997 38.4316 33.6035 38.4057 33.4814 38.3576C33.3203 38.2856 33.1515 38.2322 32.9782 38.1985C32.8731 38.1782 32.7651 38.1782 32.66 38.1985C32.5616 38.2194 32.4738 38.2745 32.4121 38.3539C32.3867 38.395 32.3708 38.4413 32.3657 38.4893C32.3606 38.5373 32.3663 38.5859 32.3825 38.6314C32.4121 38.7128 32.5083 38.7868 32.6637 38.8645C32.7377 38.9015 32.8228 38.9385 32.9116 38.9866C33.0117 39.0366 33.102 39.1043 33.178 39.1864C33.22 39.2323 33.2561 39.2833 33.2853 39.3381C33.3155 39.3959 33.3355 39.4585 33.3445 39.5231C33.3671 39.6488 33.349 39.7785 33.2927 39.8931C33.2458 39.9951 33.1731 40.083 33.0818 40.1484C32.999 40.2067 32.9042 40.2459 32.8043 40.2631C32.6467 40.2888 32.4853 40.2748 32.3344 40.2224C32.2209 40.1842 32.1137 40.1293 32.0162 40.0596C31.9452 40.0124 31.8784 39.9591 31.8164 39.9005C31.7165 39.8006 31.6721 39.734 31.6906 39.7081C31.7091 39.6822 31.7831 39.7081 31.9089 39.7525C32.0696 39.8267 32.2385 39.8813 32.4121 39.9153C32.5146 39.9373 32.6205 39.9373 32.7229 39.9153C32.7662 39.9043 32.8062 39.8831 32.8397 39.8535C32.8732 39.8239 32.8991 39.7867 32.9153 39.7451C32.9281 39.7054 32.9281 39.6627 32.9153 39.623C32.9174 39.6058 32.9174 39.5884 32.9153 39.5712C32.9028 39.551 32.8879 39.5324 32.8709 39.5157C32.7499 39.4238 32.6166 39.349 32.475 39.2937C32.3766 39.2479 32.2846 39.1894 32.2012 39.1198C32.1556 39.0791 32.1135 39.0345 32.0754 38.9866C32.0372 38.9348 32.0072 38.8774 31.9866 38.8164C31.938 38.701 31.921 38.5747 31.9373 38.4506C31.9535 38.3264 32.0025 38.2088 32.0791 38.1097C32.1425 38.0308 32.2209 37.9653 32.3098 37.917C32.3988 37.8687 32.4964 37.8387 32.5971 37.8285C32.7517 37.8111 32.9083 37.8275 33.0559 37.8766C33.2518 37.9433 33.4301 38.0534 33.5776 38.1985C33.6701 38.3132 33.7182 38.3835 33.6997 38.4057Z" fill="#08B29B"/>
<path d="M32.956 37.5474C32.9073 38.0564 32.7826 38.5553 32.586 39.0274C32.4638 39.5219 32.2693 39.9956 32.0088 40.4334C32.0622 39.9251 32.1868 39.4269 32.3788 38.9534C32.5031 38.4595 32.6974 37.9861 32.956 37.5474Z" fill="#08B29B"/>
<path d="M33.2559 37.7397C33.2216 38.2019 33.1129 38.6554 32.934 39.0828C32.6972 39.8229 32.4567 40.3742 32.3975 40.352C32.4366 39.8914 32.5464 39.4396 32.7231 39.0126C32.8321 38.5627 33.012 38.1331 33.2559 37.7397Z" fill="#08B29B"/>
<g opacity="0.5">
<path opacity="0.5" d="M38.0255 39.39L36.8896 43.0012H36.8526C35.0729 43.3712 32.8159 41.8172 31.3248 40.7812C31.0658 40.6036 30.8216 40.4371 30.6107 40.3002C30.13 40.0118 29.5844 39.8494 29.0243 39.8281C28.4641 39.8067 27.9077 39.9271 27.4065 40.1781L27.2881 40.13L28.4499 36.2117H28.4906C29.5583 36.0683 30.6442 36.1485 31.6793 36.4473C32.7143 36.746 33.676 37.2567 34.5031 37.947C35.6131 38.9201 37.9293 39.3567 37.9515 39.3604L38.0255 39.39ZM36.786 42.8865L37.8553 39.4899C37.4409 39.4085 35.4577 38.9719 34.418 38.0617C33.6111 37.3879 32.6736 36.8883 31.6644 36.5941C30.6552 36.3 29.596 36.2176 28.5535 36.3523L27.4657 40.0116C27.5781 39.9585 27.6944 39.914 27.8135 39.8784C28.2884 39.7319 28.7886 39.6859 29.2823 39.7432C29.7759 39.8005 30.2523 39.96 30.681 40.2114L31.3988 40.6924C32.8603 41.6951 35.0692 43.2047 36.786 42.8865Z" fill="white"/>
</g>
<path d="M165.93 72.7603C165.93 72.7603 165.904 77.0745 161.246 79.3759C158.36 80.8004 153.18 84.3598 153.945 86.6797L158.948 91.7301C158.948 91.7301 161.601 88.3705 165.586 86.6241C169.504 84.911 172.516 78.9393 172.516 78.9393L165.93 72.7603Z" fill="#08B29B"/>
<g opacity="0.4">
<path opacity="0.4" d="M165.079 85.74C164.667 86 164.205 86.1686 163.723 86.2343C163.241 86.3001 162.75 86.2615 162.284 86.1212C161.818 85.9808 161.388 85.742 161.022 85.4209C160.657 85.0998 160.364 84.7039 160.165 84.26C159.51 82.6135 161.064 80.4527 162.707 79.7978C163.495 79.4837 164.376 79.4946 165.156 79.8281C165.936 80.1617 166.552 80.7907 166.869 81.5775C167.528 83.2203 166.585 84.8076 165.079 85.74Z" fill="white"/>
</g>
<path d="M163.91 85.0446C163.888 84.9928 163.984 84.8966 164.158 84.7523C164.397 84.5677 164.614 84.3567 164.805 84.1233C164.915 83.9756 164.997 83.8087 165.046 83.6312C165.094 83.4665 165.079 83.29 165.005 83.1354C164.965 83.0629 164.908 83.0009 164.839 82.9546C164.77 82.9083 164.692 82.879 164.609 82.869C164.398 82.8759 164.195 82.9586 164.039 83.1021C163.921 83.1872 163.799 83.2871 163.669 83.3796C163.512 83.4879 163.339 83.5703 163.155 83.6238C163.051 83.6509 162.944 83.6633 162.837 83.6608C162.726 83.6615 162.615 83.6415 162.511 83.6016C162.313 83.5302 162.14 83.4014 162.016 83.2316C161.908 83.085 161.837 82.9148 161.809 82.7352C161.781 82.5556 161.796 82.3719 161.853 82.1993C161.941 81.9412 162.091 81.7087 162.289 81.5222C162.44 81.3823 162.609 81.264 162.793 81.1707C162.922 81.1017 163.057 81.0448 163.196 81.0005C163.422 80.9265 163.566 80.9154 163.566 80.9598C163.566 81.0042 163.499 81.1115 163.325 81.2595C163.086 81.4435 162.868 81.6532 162.674 81.8848C162.565 82.0271 162.488 82.1911 162.448 82.3658C162.43 82.4407 162.43 82.5189 162.449 82.5937C162.468 82.6685 162.504 82.7376 162.556 82.795C162.602 82.8477 162.662 82.8862 162.73 82.906C162.761 82.9118 162.794 82.9118 162.826 82.906C162.865 82.905 162.903 82.8987 162.941 82.8875C163.179 82.7797 163.4 82.6389 163.599 82.4694C163.746 82.3576 163.907 82.2644 164.076 82.1919C164.175 82.156 164.276 82.13 164.38 82.1142C164.489 82.0957 164.6 82.0957 164.709 82.1142C164.909 82.1436 165.099 82.2227 165.26 82.3442C165.422 82.4657 165.55 82.6258 165.634 82.8098C165.701 82.9691 165.736 83.1402 165.736 83.313C165.736 83.4858 165.701 83.6569 165.634 83.8162C165.536 84.0636 165.386 84.287 165.194 84.4711C164.935 84.7107 164.627 84.8912 164.291 85.0002C164.08 85.1001 163.94 85.1001 163.91 85.0446Z" fill="#08B29B"/>
<path d="M165.808 84.6112C165.734 84.6852 164.872 83.9082 163.884 82.8759C162.896 81.8436 162.153 80.9519 162.227 80.8779C162.301 80.8039 163.167 81.5809 164.158 82.6132C165.15 83.6455 165.886 84.5372 165.808 84.6112Z" fill="#08B29B"/>
<path d="M165.301 84.9185C165.227 84.9925 164.435 84.2932 163.54 83.3571C162.645 82.421 161.975 81.6033 162.06 81.5293C162.145 81.4553 162.926 82.1583 163.821 83.0944C164.717 84.0305 165.39 84.8482 165.301 84.9185Z" fill="#08B29B"/>
<g opacity="0.5">
<path opacity="0.5" d="M158.966 90.7721L154.434 86.1619L154.456 86.099C155.336 83.139 159.477 80.9671 162.226 79.5352C162.696 79.291 163.143 79.0579 163.521 78.847C166.048 77.441 166.385 74.3589 166.274 74.1184L166.447 73.9741L171.417 78.8692L171.394 78.9358C170.756 80.6614 169.765 82.235 168.484 83.5562C167.204 84.8775 165.662 85.9174 163.957 86.6096C161.597 87.5124 159.084 90.6426 159.059 90.6796L158.966 90.7721ZM154.689 86.099L158.951 90.4317C159.406 89.8767 161.66 87.2386 163.865 86.3987C165.528 85.723 167.034 84.7105 168.287 83.4249C169.54 82.1394 170.514 80.6084 171.146 78.9284L166.499 74.37C166.487 74.5802 166.46 74.7891 166.418 74.9953C166.285 75.6576 165.678 77.8998 163.613 79.0653C163.243 79.2762 162.788 79.513 162.315 79.7572C159.632 81.141 155.588 83.25 154.689 86.099Z" fill="white"/>
</g>
<path d="M168.298 36.4855C168.298 36.4855 165.556 37.0923 163.421 34.469C162.104 32.841 159.111 30.0697 157.734 30.8874L155.248 34.7798C156.884 35.6196 158.318 36.8066 159.448 38.2578C161.101 40.4778 165.323 41.5471 165.323 41.5471L168.298 36.4855Z" fill="#08B29B"/>
<g opacity="0.4">
<path opacity="0.4" d="M159.936 37.8177C159.714 37.5928 159.542 37.323 159.433 37.0265C159.324 36.73 159.279 36.4135 159.302 36.0982C159.324 35.783 159.414 35.4762 159.565 35.1985C159.716 34.9207 159.924 34.6784 160.176 34.4877C161.127 33.8328 162.722 34.5099 163.377 35.4571C163.69 35.914 163.809 36.4766 163.708 37.0211C163.607 37.5657 163.293 38.0478 162.837 38.3616C161.89 39.0091 160.746 38.6391 159.936 37.8177Z" fill="white"/>
</g>
<path d="M160.21 36.9998C160.239 36.9776 160.313 37.0257 160.432 37.1145C160.583 37.2397 160.748 37.3466 160.924 37.4327C161.033 37.4844 161.151 37.5121 161.272 37.5141C161.383 37.5227 161.492 37.4883 161.579 37.4179C161.619 37.3822 161.651 37.3374 161.67 37.2873C161.69 37.2372 161.698 37.183 161.693 37.1293C161.658 36.9952 161.575 36.8784 161.46 36.8C161.39 36.7371 161.309 36.6742 161.231 36.5965C161.139 36.5127 161.061 36.4138 161.001 36.3042C160.969 36.2425 160.945 36.1765 160.931 36.1081C160.92 36.037 160.92 35.9646 160.931 35.8935C160.947 35.7565 161.004 35.6275 161.094 35.5235C161.174 35.4281 161.277 35.3553 161.394 35.3126C161.499 35.2727 161.612 35.2587 161.723 35.2719C161.899 35.2911 162.068 35.352 162.215 35.4495C162.326 35.524 162.425 35.6137 162.511 35.7159C162.574 35.7884 162.629 35.8664 162.678 35.949C162.759 36.0822 162.785 36.1673 162.759 36.1895C162.733 36.2117 162.655 36.1673 162.533 36.0785C162.382 35.9529 162.217 35.8449 162.041 35.7566C161.937 35.7085 161.823 35.6833 161.708 35.6826C161.658 35.6809 161.607 35.6919 161.562 35.7145C161.517 35.7371 161.478 35.7707 161.449 35.8121C161.423 35.8489 161.407 35.8926 161.405 35.9379C161.399 35.9585 161.399 35.9802 161.405 36.0008C161.412 36.0252 161.422 36.0488 161.434 36.0711C161.538 36.2129 161.663 36.3377 161.804 36.4411C161.897 36.5192 161.979 36.6088 162.049 36.7075C162.087 36.7643 162.119 36.825 162.145 36.8888C162.172 36.9549 162.188 37.0248 162.193 37.096C162.202 37.2275 162.179 37.3592 162.124 37.4793C162.07 37.5995 161.987 37.7042 161.882 37.7842C161.791 37.8506 161.688 37.8982 161.579 37.9243C161.47 37.9503 161.357 37.9543 161.246 37.9359C161.074 37.9123 160.911 37.8489 160.768 37.7509C160.576 37.6231 160.417 37.452 160.302 37.2514C160.21 37.0886 160.184 36.9998 160.21 36.9998Z" fill="#08B29B"/>
<path d="M160.758 38.1096C160.702 38.0726 161.068 37.414 161.579 36.6296C162.09 35.8452 162.552 35.2532 162.611 35.2902C162.67 35.3272 162.3 35.9895 161.786 36.7702C161.272 37.5509 160.813 38.1577 160.758 38.1096Z" fill="#08B29B"/>
<path d="M160.488 37.8395C160.432 37.8025 160.761 37.1994 161.228 36.4964C161.694 35.7934 162.116 35.2495 162.171 35.2902C162.227 35.3309 161.897 35.9303 161.431 36.6333C160.965 37.3363 160.547 37.8765 160.488 37.8395Z" fill="#08B29B"/>
<g opacity="0.5">
<path opacity="0.5" d="M155.858 34.6652L158.134 31.1206H158.175C160.187 31.2538 162.156 33.57 163.462 35.1018C163.684 35.3645 163.898 35.6124 164.083 35.8418C164.515 36.2913 165.052 36.6246 165.647 36.8109C166.241 36.9972 166.873 37.0304 167.484 36.9074L167.598 36.9962L165.208 40.859H165.164C163.976 40.7024 162.834 40.2997 161.811 39.6766C160.788 39.0535 159.906 38.2238 159.222 37.2404C158.308 35.8751 155.958 34.7318 155.932 34.7207L155.858 34.6652ZM158.208 31.276L156.073 34.606C156.491 34.8132 158.489 35.864 159.344 37.1405C160.01 38.1022 160.869 38.9151 161.866 39.5277C162.862 40.1404 163.975 40.5396 165.134 40.6999L167.354 37.0961C167.219 37.1187 167.081 37.1311 166.944 37.1331C166.392 37.1529 165.841 37.0571 165.329 36.852C164.816 36.6468 164.351 36.3368 163.965 35.9417C163.776 35.7308 163.562 35.4792 163.336 35.2017C162.06 33.6995 160.143 31.4499 158.208 31.276Z" fill="white"/>
</g>
<path d="M134.717 39.3272C134.717 39.3272 131.28 41.9172 126.618 39.6454C123.732 38.2246 117.771 36.2821 116.376 38.306L115.422 45.336C115.422 45.336 119.703 45.3915 123.514 47.4894C127.262 49.5503 133.829 48.2997 133.829 48.2997L134.717 39.3272Z" fill="#08B29B"/>
<g opacity="0.4">
<path opacity="0.4" d="M123.909 46.5609C123.451 46.3928 123.035 46.128 122.689 45.7845C122.343 45.441 122.075 45.0269 121.903 44.5703C121.731 44.1138 121.66 43.6257 121.694 43.1391C121.728 42.6526 121.866 42.1791 122.1 41.7509C123.003 40.2302 125.667 40.1451 127.187 41.0479C127.917 41.484 128.444 42.1919 128.652 43.016C128.86 43.8402 128.733 44.7133 128.297 45.4435C127.398 46.9679 125.563 47.1899 123.909 46.5609Z" fill="white"/>
</g>
<path d="M123.754 45.2176C123.777 45.1695 123.914 45.1843 124.124 45.2361C124.416 45.3134 124.715 45.3556 125.016 45.3619C125.2 45.3624 125.383 45.3259 125.553 45.2546C125.713 45.1936 125.845 45.0748 125.923 44.9216C125.955 44.8451 125.969 44.7622 125.964 44.6795C125.958 44.5967 125.934 44.5162 125.893 44.4443C125.756 44.2819 125.566 44.1732 125.357 44.1372C125.22 44.0965 125.068 44.0558 124.905 44.0003C124.724 43.9401 124.553 43.8528 124.398 43.7413C124.314 43.6743 124.238 43.5972 124.173 43.5119C124.105 43.4226 124.054 43.3225 124.021 43.2159C123.962 43.0154 123.962 42.8021 124.021 42.6017C124.073 42.4175 124.171 42.2495 124.306 42.1133C124.429 41.9935 124.576 41.9025 124.739 41.8469C124.996 41.7574 125.273 41.7345 125.542 41.7803C125.744 41.8124 125.941 41.8734 126.126 41.9616C126.255 42.0228 126.379 42.0945 126.496 42.1762C126.692 42.3131 126.785 42.413 126.763 42.4611C126.74 42.5092 126.603 42.4981 126.393 42.4611C126.101 42.3835 125.802 42.3388 125.501 42.3279C125.322 42.3272 125.146 42.3651 124.983 42.4389C124.912 42.4704 124.851 42.5185 124.803 42.5791C124.755 42.6397 124.723 42.7109 124.709 42.7867C124.688 42.8529 124.688 42.9239 124.709 42.9902C124.72 43.0211 124.736 43.0499 124.757 43.0753C124.784 43.1039 124.814 43.1299 124.846 43.153C125.078 43.2775 125.328 43.3673 125.586 43.4194C125.763 43.4684 125.933 43.5393 126.093 43.6303C126.183 43.6857 126.267 43.7502 126.344 43.8227C126.422 43.8996 126.49 43.9867 126.544 44.0817C126.64 44.2604 126.69 44.4599 126.69 44.6626C126.69 44.8652 126.64 45.0647 126.544 45.2435C126.46 45.3941 126.347 45.5264 126.211 45.6325C126.075 45.7387 125.919 45.8165 125.752 45.8614C125.497 45.9378 125.228 45.9555 124.964 45.9132C124.616 45.8543 124.285 45.7191 123.995 45.5173C123.817 45.3693 123.729 45.262 123.754 45.2176Z" fill="#08B29B"/>
<path d="M125.245 46.4533C125.141 46.4533 125.245 45.2804 125.448 43.8633C125.652 42.4462 125.918 41.3177 126.022 41.3362C126.125 41.3547 126.022 42.5091 125.822 43.9262C125.622 45.3433 125.352 46.4681 125.245 46.4533Z" fill="#08B29B"/>
<path d="M124.69 46.2496C124.587 46.2496 124.661 45.1803 124.853 43.9001C125.046 42.6199 125.294 41.5913 125.397 41.6061C125.501 41.6209 125.427 42.6754 125.231 43.9556C125.035 45.2358 124.798 46.2496 124.69 46.2496Z" fill="#08B29B"/>
<g opacity="0.5">
<path opacity="0.5" d="M116.18 44.7698L117.075 38.3688L117.138 38.3429C120.031 37.2329 124.264 39.1976 127.069 40.4963C127.553 40.722 128.009 40.9329 128.404 41.1031C131.057 42.2501 133.71 40.6406 133.832 40.4075L134.051 40.4556L133.2 47.3931L133.133 47.4153C131.376 47.9602 129.524 48.1327 127.696 47.9219C125.869 47.711 124.105 47.1214 122.518 46.1906C120.361 44.8697 116.35 44.7846 116.309 44.7846L116.18 44.7698ZM117.29 38.5316L116.446 44.5515C117.168 44.5737 120.631 44.7513 122.64 45.9871C124.189 46.8948 125.909 47.4723 127.692 47.683C129.475 47.8938 131.282 47.7334 133 47.2118L133.795 40.7442C133.621 40.864 133.438 40.9704 133.248 41.0624C132.645 41.3584 130.506 42.2575 128.323 41.314C127.923 41.1401 127.465 40.944 126.98 40.7035C124.238 39.4418 120.094 37.5215 117.29 38.5427V38.5316Z" fill="white"/>
</g>
<path d="M131.143 87.2901C131.143 87.2901 127.724 86.5501 126.677 82.4801C126.03 79.953 124.087 75.2577 122.104 75.4501L117.261 78.5729C118.674 80.3762 119.676 82.4659 120.199 84.6964C120.905 88.0893 125.138 91.4785 125.138 91.4785L131.143 87.2901Z" fill="#08B29B"/>
<g opacity="0.4">
<path opacity="0.4" d="M120.99 84.4412C120.852 84.0707 120.797 83.6749 120.826 83.2809C120.855 82.8869 120.969 82.5038 121.16 82.1577C121.35 81.8116 121.613 81.5106 121.931 81.2751C122.248 81.0396 122.612 80.8752 122.999 80.793C124.412 80.5488 125.87 82.1435 126.114 83.5569C126.173 83.8935 126.166 84.2386 126.091 84.5722C126.017 84.9058 125.877 85.2213 125.68 85.5006C125.483 85.7799 125.232 86.0174 124.943 86.1995C124.654 86.3815 124.331 86.5045 123.994 86.5613C122.573 86.8055 121.474 85.7917 120.99 84.4412Z" fill="white"/>
</g>
<path d="M121.73 83.6383C121.771 83.6383 121.834 83.7197 121.919 83.8825C122.026 84.1024 122.157 84.3097 122.311 84.5004C122.408 84.6132 122.526 84.7062 122.659 84.7742C122.782 84.8399 122.926 84.8571 123.062 84.8223C123.126 84.8028 123.184 84.7685 123.232 84.7222C123.281 84.676 123.317 84.619 123.339 84.5559C123.367 84.3861 123.334 84.2121 123.247 84.0638C123.199 83.9565 123.143 83.8418 123.091 83.7123C123.033 83.5695 122.997 83.4185 122.984 83.2646C122.98 83.1777 122.988 83.0906 123.006 83.0056C123.036 82.8791 123.094 82.7611 123.176 82.6604C123.258 82.5598 123.362 82.4792 123.48 82.4247C123.623 82.3599 123.779 82.3319 123.935 82.3433C124.073 82.357 124.207 82.3999 124.327 82.4691C124.517 82.5815 124.676 82.7391 124.79 82.9279C124.875 83.0701 124.941 83.2232 124.986 83.383C125.018 83.4967 125.041 83.6131 125.052 83.7308C125.075 83.9269 125.052 84.0342 125.019 84.0453C124.986 84.0564 124.912 83.9676 124.823 83.8048C124.718 83.5835 124.587 83.3749 124.435 83.1832C124.342 83.0726 124.226 82.9841 124.094 82.9242C124.037 82.8937 123.974 82.8778 123.909 82.8778C123.845 82.8778 123.781 82.8937 123.724 82.9242C123.675 82.9542 123.634 82.9962 123.606 83.0463C123.594 83.0694 123.587 83.0945 123.584 83.1203C123.578 83.1521 123.578 83.1847 123.584 83.2165C123.629 83.4223 123.704 83.6204 123.806 83.8048C123.87 83.9412 123.916 84.0855 123.942 84.234C123.952 84.3176 123.952 84.402 123.942 84.4856C123.937 84.5754 123.919 84.664 123.887 84.7483C123.829 84.9019 123.733 85.0387 123.609 85.1466C123.486 85.2544 123.337 85.3298 123.177 85.3662C123.04 85.3938 122.899 85.3936 122.762 85.3657C122.626 85.3377 122.496 85.2825 122.381 85.2034C122.2 85.0856 122.047 84.9288 121.933 84.7446C121.786 84.5002 121.695 84.2258 121.667 83.9417C121.674 83.7567 121.693 83.6457 121.73 83.6383Z" fill="#08B29B"/>
<path d="M121.76 85.2108C121.712 85.1368 122.474 84.5818 123.458 83.9713C124.442 83.3608 125.275 82.9205 125.308 82.9908C125.342 83.0611 124.594 83.6198 123.61 84.234C122.626 84.8482 121.804 85.2811 121.76 85.2108Z" fill="#08B29B"/>
<path d="M121.601 84.7558C121.553 84.6818 122.241 84.1749 123.133 83.6199C124.025 83.0649 124.787 82.6727 124.835 82.743C124.883 82.8133 124.191 83.3276 123.299 83.8789C122.408 84.4302 121.645 84.8261 121.601 84.7558Z" fill="#08B29B"/>
<g opacity="0.5">
<path opacity="0.5" d="M118.03 78.7508L122.448 75.9277L122.496 75.9536C124.716 77.1487 125.726 80.7932 126.403 83.2056C126.518 83.6237 126.629 84.0159 126.733 84.3489C127.425 86.5911 129.815 87.3755 130.026 87.3274L130.107 87.4865L125.393 90.613L125.345 90.5834C124.083 89.7883 123 88.7386 122.166 87.5014C121.332 86.2642 120.765 84.8666 120.502 83.398C120.18 81.3741 118.119 78.8544 118.097 78.8285L118.03 78.7508ZM122.47 76.1386L118.289 78.81C118.659 79.2651 120.369 81.4925 120.668 83.3832C120.924 84.8167 121.475 86.1815 122.285 87.3915C123.095 88.6015 124.147 89.6304 125.375 90.4132L129.778 87.4976C129.613 87.4512 129.451 87.3944 129.293 87.3274C128.794 87.1091 127.11 86.2655 126.544 84.4229C126.44 84.0862 126.329 83.6829 126.211 83.2759C125.549 80.8931 124.546 77.33 122.441 76.1386H122.47Z" fill="white"/>
</g>
<path d="M98.712 60.4021C98.712 60.4021 95.9925 60.9164 93.9686 58.2635C92.718 56.6244 89.8505 53.8013 88.4704 54.5635L85.9062 58.3338C87.4926 59.2109 88.8688 60.423 89.9393 61.8858C91.5007 64.1428 95.6299 65.3046 95.6299 65.3046L98.712 60.4021Z" fill="#08B29B"/>
<g opacity="0.4">
<path opacity="0.4" d="M90.4321 61.4643C90.2179 61.2364 90.0551 60.965 89.9549 60.6686C89.8547 60.3722 89.8193 60.0578 89.8512 59.7465C89.8832 59.4353 89.9816 59.1346 90.1399 58.8647C90.2983 58.5948 90.5127 58.3622 90.7688 58.1824C91.7234 57.5682 93.2774 58.2823 93.8953 59.2369C94.19 59.6958 94.2904 60.2528 94.1745 60.7856C94.0586 61.3185 93.736 61.7835 93.2774 62.0785C92.3191 62.6964 91.2054 62.2968 90.4321 61.4643Z" fill="white"/>
</g>
<path d="M90.7279 60.6467C90.7575 60.6245 90.8315 60.6726 90.9425 60.7651C91.0877 60.8938 91.2479 61.0043 91.4198 61.0944C91.5251 61.1462 91.6394 61.1776 91.7565 61.1869C91.8665 61.1979 91.9765 61.1661 92.0636 61.0981C92.105 61.0644 92.1377 61.0213 92.1589 60.9724C92.1801 60.9234 92.1893 60.8701 92.1857 60.8169C92.1519 60.6857 92.075 60.5697 91.9674 60.4876C91.8971 60.4247 91.8231 60.3581 91.7454 60.2804C91.6573 60.194 91.5836 60.094 91.5271 59.9844C91.4978 59.9219 91.4767 59.8561 91.4642 59.7883C91.453 59.7184 91.453 59.6472 91.4642 59.5774C91.4852 59.4505 91.5404 59.3318 91.6238 59.234C91.7073 59.1362 91.8158 59.0631 91.9378 59.0224C92.0427 58.9884 92.154 58.9782 92.2634 58.9928C92.4369 59.0147 92.6022 59.0795 92.7444 59.1815C92.8503 59.2593 92.945 59.3514 93.0256 59.4553C93.0856 59.528 93.1389 59.606 93.1847 59.6884C93.2587 59.8216 93.2809 59.9067 93.255 59.9252C93.2291 59.9437 93.1551 59.903 93.0404 59.8105C92.8931 59.6834 92.7332 59.5718 92.5631 59.4775C92.4599 59.4284 92.3479 59.4007 92.2338 59.3961C92.1847 59.3927 92.1356 59.4018 92.0909 59.4225C92.0463 59.4432 92.0076 59.4749 91.9785 59.5145C91.9498 59.5504 91.933 59.5944 91.9304 59.6403C91.9268 59.6599 91.9268 59.6799 91.9304 59.6995C91.9364 59.7244 91.9464 59.7481 91.96 59.7698C92.0548 59.9102 92.1709 60.0351 92.3041 60.1398C92.3915 60.2199 92.4686 60.3106 92.5335 60.4099C92.5712 60.466 92.6011 60.527 92.6223 60.5912C92.6464 60.6564 92.6602 60.7251 92.663 60.7947C92.6691 60.9246 92.6425 61.0541 92.5856 61.1711C92.5287 61.2881 92.4434 61.3889 92.3374 61.4644C92.2462 61.5278 92.1431 61.572 92.0343 61.5942C91.9256 61.6165 91.8134 61.6164 91.7047 61.5939C91.5362 61.5653 91.3767 61.4982 91.2385 61.3978C91.0557 61.2643 90.9041 61.0926 90.7945 60.8946C90.7205 60.7503 90.702 60.68 90.7279 60.6467Z" fill="#08B29B"/>
<path d="M91.2349 61.7897C91.1794 61.7527 91.5605 61.1126 92.0896 60.3652C92.6187 59.6178 93.0886 59.0369 93.1441 59.0739C93.1996 59.1109 92.8147 59.7547 92.2894 60.5021C91.764 61.2495 91.2867 61.823 91.2349 61.7897Z" fill="#08B29B"/>
<path d="M90.9756 61.5012C90.9201 61.4642 91.2642 60.8796 91.7452 60.1988C92.2262 59.518 92.6554 59 92.7109 59.037C92.7664 59.074 92.4223 59.6586 91.945 60.3394C91.4677 61.0202 91.02 61.5419 90.9756 61.5012Z" fill="#08B29B"/>
<g opacity="0.5">
<path opacity="0.5" d="M86.5098 58.234L88.8556 54.8115H88.9C90.8795 55.0002 92.748 57.3423 93.9875 58.8815C94.2021 59.1479 94.4019 59.4032 94.5795 59.6215C94.9922 60.0789 95.5141 60.4243 96.0964 60.6255C96.6786 60.8267 97.3024 60.8772 97.9095 60.7722L98.0205 60.8647L95.5489 64.598H95.5045C94.339 64.4091 93.2258 63.9787 92.2363 63.3346C91.2468 62.6904 90.4028 61.8466 89.7584 60.8573C88.9 59.4846 86.6171 58.2858 86.5949 58.2673L86.5098 58.234ZM88.9259 54.9632L86.7059 58.1785C87.1129 58.4005 89.0517 59.492 89.8546 60.7685C90.4848 61.735 91.3081 62.5606 92.2728 63.1935C93.2374 63.8264 94.3226 64.253 95.4601 64.4463L97.7689 60.9572C97.6352 60.9757 97.5004 60.9844 97.3656 60.9831C96.8199 60.9865 96.2797 60.8756 95.7794 60.6577C95.2792 60.4398 94.8301 60.1196 94.4611 59.7177C94.2835 59.5068 94.0911 59.2515 93.8654 58.9777C92.6592 57.4681 90.8314 55.1778 88.9259 54.9632Z" fill="white"/>
</g>
<path d="M30.4991 110.663C30.4991 110.663 27.7796 111.177 25.7557 108.524C24.5051 106.885 21.6376 104.062 20.2575 104.824L17.6934 108.595C19.2797 109.472 20.6559 110.684 21.7264 112.147C23.2878 114.404 27.417 115.565 27.417 115.565L30.4991 110.663Z" fill="#08B29B"/>
<g opacity="0.4">
<path opacity="0.4" d="M22.2221 111.74C22.0073 111.512 21.844 111.241 21.7435 110.944C21.6429 110.648 21.6074 110.333 21.6393 110.022C21.6713 109.71 21.7699 109.409 21.9286 109.14C22.0873 108.87 22.3022 108.637 22.5588 108.458C23.5134 107.844 25.0674 108.558 25.6816 109.512C25.9763 109.971 26.0767 110.528 25.9608 111.061C25.845 111.594 25.5223 112.059 25.0637 112.354C24.1091 112.957 22.9917 112.557 22.2221 111.74Z" fill="white"/>
</g>
<path d="M22.5179 110.907C22.5438 110.885 22.6178 110.933 22.7288 111.026C22.874 111.154 23.0343 111.265 23.2061 111.355C23.3127 111.407 23.4282 111.439 23.5465 111.448C23.6564 111.457 23.766 111.426 23.8536 111.359C23.8939 111.324 23.9256 111.281 23.9461 111.232C23.9667 111.183 23.9755 111.13 23.972 111.078C23.94 110.946 23.8627 110.829 23.7537 110.748C23.6871 110.685 23.6094 110.619 23.5317 110.541C23.4435 110.46 23.3686 110.365 23.3097 110.26C23.2789 110.198 23.2577 110.132 23.2468 110.064C23.2339 109.994 23.2339 109.923 23.2468 109.853C23.2632 109.715 23.3213 109.586 23.4133 109.483C23.4959 109.39 23.602 109.321 23.7204 109.283C23.824 109.248 23.9342 109.238 24.0423 109.253C24.2159 109.275 24.3812 109.34 24.5233 109.442C24.6312 109.519 24.7272 109.611 24.8082 109.716C24.8673 109.789 24.9193 109.867 24.9636 109.949C25.0376 110.082 25.0635 110.167 25.0376 110.19C25.0117 110.212 24.934 110.164 24.8193 110.071C24.6735 109.944 24.5148 109.832 24.3457 109.738C24.2423 109.69 24.1304 109.662 24.0164 109.657C23.967 109.654 23.9176 109.664 23.8726 109.685C23.8275 109.705 23.788 109.736 23.7574 109.775C23.7304 109.812 23.7138 109.856 23.7093 109.901C23.7056 109.921 23.7056 109.941 23.7093 109.96C23.7153 109.985 23.7253 110.009 23.7389 110.03C23.8337 110.171 23.9498 110.296 24.083 110.4C24.1717 110.48 24.25 110.571 24.3161 110.671C24.3509 110.728 24.3806 110.789 24.4049 110.852C24.4279 110.917 24.4404 110.986 24.4419 111.055C24.4511 111.187 24.4267 111.319 24.3711 111.439C24.3154 111.558 24.2303 111.662 24.1237 111.74C23.9393 111.864 23.7133 111.911 23.4947 111.869C23.326 111.84 23.1664 111.771 23.0285 111.67C22.8364 111.535 22.6791 111.356 22.5697 111.148C22.5105 111 22.4883 110.926 22.5179 110.907Z" fill="#08B29B"/>
<path d="M23.021 112.043C22.9655 112.006 23.3466 111.366 23.8757 110.619C24.4048 109.871 24.8747 109.29 24.9302 109.327C24.9857 109.364 24.6046 110.008 24.0755 110.756C23.5464 111.503 23.0765 112.084 23.021 112.043Z" fill="#08B29B"/>
<path d="M22.7657 111.762C22.7102 111.725 23.0506 111.14 23.5316 110.46C24.0126 109.779 24.4455 109.261 24.4973 109.298C24.5491 109.335 24.2124 109.919 23.7314 110.6C23.2504 111.281 22.8175 111.803 22.7657 111.762Z" fill="#08B29B"/>
<g opacity="0.5">
<path opacity="0.5" d="M18.2969 108.495L20.6464 105.08H20.6871C22.6666 105.268 24.5388 107.61 25.7746 109.15C25.9892 109.42 26.189 109.671 26.3703 109.89C26.7826 110.348 27.3044 110.693 27.8868 110.895C28.4692 111.096 29.0932 111.146 29.7003 111.04L29.8113 111.133L27.3434 114.866H27.2953C26.1262 114.678 25.0096 114.247 24.0174 113.6C23.0252 112.954 22.1793 112.107 21.5344 111.114C20.676 109.742 18.3931 108.543 18.3709 108.524L18.2969 108.495ZM20.7204 105.224L18.5004 108.439C18.9074 108.661 20.8425 109.753 21.6454 111.029C22.2765 111.996 23.1011 112.821 24.0672 113.453C25.0333 114.084 26.1198 114.509 27.2583 114.7L29.5634 111.21C29.4298 111.229 29.295 111.238 29.1601 111.236C28.6174 111.239 28.0802 111.129 27.5826 110.912C27.0851 110.695 26.6381 110.377 26.2704 109.978C26.0891 109.767 25.9004 109.512 25.6747 109.238C24.45 107.729 22.6185 105.45 20.7204 105.224Z" fill="white"/>
</g>
<path d="M70.3781 75.7905C70.3781 75.7905 69.368 79.0835 65.2758 79.7754C62.7413 80.2009 57.9683 81.7216 58.009 83.6863L60.673 88.6998C62.5607 87.4611 64.6959 86.6491 66.9297 86.3207C70.3226 85.91 73.9967 82.0324 73.9967 82.0324L70.3781 75.7905Z" fill="#08B29B"/>
<g opacity="0.4">
<path opacity="0.4" d="M66.744 85.5254C66.369 85.63 65.976 85.6525 65.5915 85.5915C65.207 85.5304 64.8403 85.3872 64.5162 85.1716C64.1921 84.956 63.9182 84.6731 63.7133 84.3421C63.5085 84.0111 63.3773 83.6398 63.3289 83.2536C63.2031 81.8439 64.8903 80.5452 66.2889 80.4231C66.9659 80.3646 67.6385 80.5773 68.1588 81.0143C68.6791 81.4514 69.0047 82.0771 69.0639 82.7541C69.1897 84.1638 68.1093 85.1591 66.744 85.5254Z" fill="white"/>
</g>
<path d="M66.0154 84.7298C66.0154 84.6854 66.1042 84.6336 66.2744 84.5633C66.4989 84.4778 66.7125 84.366 66.9108 84.2303C67.0304 84.1444 67.1312 84.0348 67.2068 83.9084C67.2846 83.7949 67.3151 83.6556 67.2919 83.5199C67.277 83.456 67.2476 83.3963 67.2059 83.3456C67.1642 83.2949 67.1113 83.2545 67.0514 83.2276C66.8869 83.1842 66.7122 83.2013 66.5593 83.2757C66.452 83.3127 66.3336 83.3608 66.1893 83.3978C66.0451 83.4461 65.8935 83.4687 65.7416 83.4644C65.6563 83.462 65.5717 83.4484 65.49 83.4237C65.4043 83.3977 65.3241 83.3563 65.2532 83.3016C65.1186 83.2031 65.0168 83.0665 64.9609 82.9094C64.906 82.7656 64.8907 82.6098 64.9165 82.458C64.9407 82.3249 64.9937 82.1986 65.0719 82.088C65.1973 81.9102 65.3652 81.7664 65.5603 81.6699C65.7081 81.5976 65.8648 81.5454 66.0265 81.5145C66.1412 81.4931 66.2575 81.4807 66.3743 81.4775C66.563 81.4775 66.6703 81.496 66.6777 81.5367C66.6851 81.5774 66.5926 81.6366 66.4261 81.7106C66.1994 81.7951 65.9834 81.9056 65.7823 82.0399C65.6662 82.1225 65.5702 82.2299 65.5011 82.3544C65.469 82.4069 65.4506 82.4665 65.4473 82.5278C65.4441 82.5892 65.4562 82.6504 65.4826 82.7059C65.5049 82.7577 65.5423 82.8015 65.5899 82.8317C65.6115 82.8453 65.6353 82.8553 65.6602 82.8613C65.6921 82.8655 65.7244 82.8655 65.7564 82.8613C65.962 82.8333 66.1626 82.7759 66.3521 82.6911C66.4917 82.6402 66.6371 82.6067 66.785 82.5912C66.8673 82.582 66.9505 82.582 67.0329 82.5912C67.1203 82.6036 67.2053 82.6298 67.2845 82.6689C67.4302 82.7373 67.5568 82.8406 67.653 82.9697C67.7492 83.0988 67.812 83.2497 67.8358 83.4089C67.851 83.5458 67.8389 83.6843 67.8001 83.8164C67.7614 83.9485 67.6968 84.0716 67.6101 84.1785C67.4801 84.3475 67.313 84.4842 67.1217 84.5781C66.87 84.7043 66.5929 84.7714 66.3114 84.7742C66.1301 84.7964 66.0228 84.7668 66.0154 84.7298Z" fill="#08B29B"/>
<path d="M67.5619 84.8295C67.4879 84.8702 67.0069 84.0895 66.4852 83.0609C65.9635 82.0323 65.6046 81.1887 65.6786 81.1517C65.7526 81.1147 66.2373 81.8917 66.7553 82.9203C67.2733 83.9489 67.6359 84.7925 67.5619 84.8295Z" fill="#08B29B"/>
<path d="M67.1037 84.9481C67.0297 84.9888 66.5857 84.2711 66.1158 83.3498C65.6459 82.4284 65.3203 81.6478 65.3943 81.6108C65.4683 81.5738 65.9123 82.2878 66.3859 83.2091C66.8595 84.1305 67.1777 84.9111 67.1037 84.9481Z" fill="#08B29B"/>
<g opacity="0.5">
<path opacity="0.5" d="M60.9097 87.9747L58.501 83.4015L58.5306 83.3571C59.8885 81.2888 63.5552 80.5858 65.9787 80.1196C66.3968 80.0382 66.789 79.9642 67.1257 79.8902C69.3827 79.3944 70.3521 77.1152 70.3225 76.9043L70.489 76.834L73.1678 81.7217L73.1345 81.7698C72.2485 82.9437 71.1277 83.9201 69.8434 84.6368C68.5591 85.3535 67.1395 85.7947 65.6753 85.9323C63.6625 86.0766 61.0207 87.897 60.9948 87.9155L60.9097 87.9747ZM58.7119 83.4126L60.9763 87.7083C61.4536 87.3901 63.7809 85.8879 65.6642 85.751C67.0921 85.6165 68.4767 85.1881 69.7311 84.4928C70.9854 83.7975 72.0824 82.8502 72.9532 81.7106L70.452 77.1448C70.3937 77.3036 70.3245 77.4581 70.2448 77.6073C69.9932 78.0809 69.0238 79.6608 67.1664 80.0678C66.826 80.1418 66.4264 80.2158 66.012 80.2972C63.6403 80.756 60.0513 81.4405 58.7119 83.4126Z" fill="white"/>
</g>
<path d="M48.1886 66.4666C48.1886 66.4666 44.8031 69.138 40.0967 66.9328C37.1848 65.5675 31.1908 63.736 29.8329 65.7821L29.0078 72.8417C29.0078 72.8417 33.2887 72.8195 37.1478 74.8471C40.9292 76.8377 47.4745 75.4687 47.4745 75.4687L48.1886 66.4666Z" fill="#08B29B"/>
<g opacity="0.4">
<path opacity="0.4" d="M37.5146 73.9002C37.0544 73.74 36.6341 73.4828 36.2821 73.1458C35.9302 72.8089 35.6548 72.4002 35.4748 71.9474C35.2947 71.4947 35.2142 71.0085 35.2387 70.5219C35.2631 70.0353 35.3919 69.5596 35.6165 69.1272C36.4971 67.588 39.1574 67.4548 40.6929 68.3317C41.0587 68.5402 41.3798 68.8188 41.6378 69.1515C41.8959 69.4842 42.0858 69.8645 42.1968 70.2707C42.3078 70.6768 42.3377 71.1009 42.2847 71.5186C42.2317 71.9363 42.0969 72.3395 41.888 72.7051C41.0111 74.2406 39.1833 74.4959 37.5146 73.9002Z" fill="white"/>
</g>
<path d="M37.3364 72.5566C37.3586 72.5085 37.4955 72.5233 37.7064 72.5566C37.9993 72.6295 38.2999 72.6668 38.6018 72.6676C38.7855 72.6642 38.9667 72.6239 39.1346 72.5492C39.2966 72.4867 39.4289 72.3651 39.5046 72.2088C39.5355 72.1324 39.5482 72.0498 39.5418 71.9676C39.5353 71.8854 39.5099 71.8059 39.4676 71.7352C39.3281 71.5751 39.137 71.469 38.9274 71.4355C38.7868 71.3948 38.6351 71.3615 38.4723 71.306C38.29 71.2508 38.1177 71.1672 37.9617 71.0581C37.8763 70.9924 37.7993 70.9167 37.7323 70.8324C37.6648 70.7435 37.6112 70.6449 37.5732 70.5401C37.5081 70.3415 37.5004 70.1286 37.551 69.9259C37.5976 69.7505 37.6859 69.589 37.8083 69.455C37.9307 69.3211 38.0835 69.2186 38.254 69.1563C38.5107 69.0628 38.7866 69.0348 39.0569 69.0749C39.2601 69.1053 39.4581 69.1639 39.6452 69.2488C39.7733 69.3088 39.897 69.3781 40.0152 69.456C40.215 69.5892 40.3075 69.6891 40.2853 69.7335C40.2631 69.7779 40.1299 69.7742 39.9153 69.7335C39.6218 69.663 39.3216 69.6245 39.0199 69.6188C38.8416 69.6214 38.666 69.6631 38.5056 69.7409C38.4361 69.7726 38.3754 69.8209 38.329 69.8815C38.2825 69.9422 38.2517 70.0133 38.2392 70.0887C38.2194 70.1563 38.2194 70.2282 38.2392 70.2959C38.2542 70.3252 38.2728 70.3526 38.2947 70.3773C38.3194 70.4069 38.3481 70.433 38.3798 70.455C38.6132 70.5736 38.8624 70.6583 39.1198 70.7066C39.2973 70.7543 39.4687 70.8226 39.6304 70.9101C39.721 70.9638 39.8064 71.0257 39.8857 71.0951C39.9656 71.1711 40.0342 71.2584 40.0892 71.3541C40.1905 71.5291 40.2466 71.7267 40.2524 71.9289C40.2582 72.1311 40.2136 72.3316 40.1225 72.5122C40.0414 72.665 39.9306 72.8001 39.7965 72.9094C39.6624 73.0187 39.5078 73.1 39.3418 73.1486C39.088 73.2262 38.8203 73.2477 38.5574 73.2115C38.2084 73.1619 37.8748 73.0355 37.5806 72.8415C37.403 72.7083 37.3142 72.601 37.3364 72.5566Z" fill="#08B29B"/>
<path d="M38.8502 73.7665C38.7429 73.7665 38.8132 72.5936 39.0019 71.1765C39.1906 69.7594 39.4274 68.6235 39.531 68.6383C39.6346 68.6531 39.568 69.8112 39.3793 71.2283C39.1906 72.6454 38.9575 73.7813 38.8502 73.7665Z" fill="#08B29B"/>
<path d="M38.2953 73.5595C38.1917 73.5595 38.2435 72.4939 38.4174 71.21C38.5913 69.9261 38.8133 68.8938 38.9169 68.9049C39.0205 68.916 38.965 69.9742 38.7948 71.2581C38.6246 72.542 38.3989 73.5743 38.2953 73.5595Z" fill="#08B29B"/>
<g opacity="0.5">
<path opacity="0.5" d="M29.7705 72.2611L30.5475 65.86L30.6067 65.8378C33.4779 64.6723 37.7514 66.5778 40.5967 67.8062C41.0814 68.0245 41.5439 68.2243 41.9435 68.3908C44.6149 69.5008 47.2382 67.8321 47.3566 67.5916L47.5749 67.6397L46.8349 74.5772L46.7683 74.5994C45.0213 75.177 43.1731 75.3842 41.3416 75.2077C39.5101 75.0313 37.7354 74.475 36.1308 73.5746C33.9552 72.2907 29.9407 72.2796 29.9 72.2796L29.7705 72.2611ZM30.7547 66.0043L30.0147 72.0354C30.7325 72.0354 34.1994 72.1612 36.2307 73.36C37.7978 74.239 39.5297 74.7844 41.3176 74.9621C43.1056 75.1397 44.9109 74.9457 46.6203 74.3923L47.2974 67.9135C47.1245 68.0356 46.9427 68.1444 46.7535 68.2391C46.1578 68.5499 44.034 69.4824 41.8325 68.5795C41.4329 68.4167 40.9704 68.2095 40.482 67.9949C37.7144 66.7739 33.5371 64.9276 30.7547 66.0043Z" fill="white"/>
</g>
<path d="M75.3432 21.1157C75.3432 21.1157 75.8168 24.8897 72.0132 27.4353C69.6526 29.0152 65.5382 32.7041 66.4632 34.6651L71.4101 38.502C72.7493 36.4015 74.5295 34.6176 76.6271 33.2739C79.8572 31.3277 81.8071 25.7592 81.8071 25.7592L75.3432 21.1157Z" fill="#08B29B"/>
<g opacity="0.4">
<path opacity="0.4" d="M76.0906 32.5601C75.7599 32.8345 75.3742 33.0347 74.9595 33.1469C74.5447 33.2592 74.1107 33.281 73.6868 33.2108C73.2629 33.1406 72.859 32.9801 72.5026 32.7402C72.1461 32.5002 71.8455 32.1864 71.621 31.8201C70.8588 30.4548 71.991 28.3865 73.3341 27.6243C73.9888 27.259 74.7616 27.1684 75.483 27.3724C76.2044 27.5763 76.8155 28.0581 77.1821 28.7121C77.9443 30.0774 77.3005 31.5722 76.0906 32.5601Z" fill="white"/>
</g>
<path d="M74.9949 32.0825C74.969 32.0455 75.043 31.9493 75.1799 31.8013C75.3672 31.6123 75.5323 31.4025 75.672 31.176C75.7516 31.0356 75.8031 30.881 75.8237 30.7209C75.8479 30.5713 75.8149 30.4181 75.7312 30.2917C75.6885 30.2336 75.6329 30.1862 75.5686 30.1535C75.5044 30.1207 75.4334 30.1034 75.3612 30.103C75.1766 30.1347 75.009 30.2303 74.8876 30.3731C74.7951 30.4619 74.6989 30.5618 74.5842 30.6617C74.4579 30.7722 74.3157 30.8633 74.1624 30.9318C74.0743 30.966 73.9824 30.9896 73.8886 31.0021C73.7919 31.0188 73.6931 31.0188 73.5963 31.0021C73.4163 30.9625 73.2517 30.8712 73.1227 30.7394C73.0036 30.6193 72.9181 30.47 72.8748 30.3065C72.8438 30.1589 72.8438 30.0064 72.8748 29.8588C72.9221 29.6227 73.0262 29.4017 73.1782 29.215C73.2934 29.0735 73.428 28.949 73.5778 28.845C73.6832 28.7705 73.7946 28.7049 73.9108 28.6489C74.1032 28.5564 74.2179 28.5305 74.2438 28.5675C74.2697 28.6045 74.2031 28.7081 74.0662 28.8561C73.8792 29.0463 73.713 29.2559 73.5704 29.4814C73.4912 29.6171 73.4432 29.7688 73.4298 29.9254C73.4206 29.9939 73.4286 30.0636 73.4531 30.1283C73.4777 30.1929 73.518 30.2503 73.5704 30.2954C73.6174 30.3366 73.6752 30.3635 73.7369 30.3731C73.7652 30.3767 73.7938 30.3767 73.822 30.3731C73.8553 30.3677 73.8877 30.3577 73.9182 30.3435C74.1137 30.2214 74.2907 30.0719 74.4436 29.8995C74.5561 29.7879 74.6801 29.6887 74.8136 29.6035C74.8955 29.5614 74.9809 29.5267 75.0689 29.4999C75.1627 29.4731 75.26 29.4606 75.3575 29.4629C75.5362 29.4665 75.7112 29.5143 75.8668 29.6022C76.0224 29.69 76.1538 29.815 76.2492 29.9661C76.3275 30.0966 76.3786 30.2415 76.3996 30.3921C76.4205 30.5428 76.4109 30.6961 76.3713 30.843C76.3171 31.0707 76.2121 31.2832 76.0642 31.4646C75.8619 31.7051 75.6093 31.8984 75.3242 32.0307C75.1392 32.1047 75.0208 32.1232 74.9949 32.0825Z" fill="#08B29B"/>
<path d="M76.5898 31.4905C76.5306 31.5608 75.687 30.9836 74.7028 30.1955C73.7186 29.4074 72.9675 28.7155 73.0267 28.6378C73.0859 28.5601 73.9295 29.1447 74.9137 29.9328C75.8979 30.7209 76.6564 31.4165 76.5898 31.4905Z" fill="#08B29B"/>
<path d="M76.1901 31.82C76.1346 31.894 75.3613 31.3723 74.4696 30.6582C73.5779 29.9441 72.8897 29.3003 72.96 29.23C73.0303 29.1597 73.7888 29.6814 74.6805 30.3955C75.5722 31.1096 76.2493 31.746 76.1901 31.82Z" fill="#08B29B"/>
<g opacity="0.5">
<path opacity="0.5" d="M71.3248 37.6658L66.833 34.1545V34.0953C67.2659 31.398 70.6329 29.03 72.864 27.4649C73.234 27.1948 73.604 26.9395 73.9185 26.7249C75.9646 25.2042 75.9054 22.4699 75.7685 22.2849L75.9017 22.1406L80.8116 25.8406V25.8998C80.4526 27.4826 79.7674 28.9731 78.7996 30.2759C77.8319 31.5788 76.6029 32.6654 75.1913 33.4663C73.2303 34.5245 71.3951 37.5363 71.3766 37.5807L71.3248 37.6658ZM67.0476 34.0694L71.273 37.3698C71.606 36.8296 73.271 34.2655 75.1025 33.2739C76.4803 32.4919 77.6811 31.4329 78.6293 30.1638C79.5775 28.8946 80.2525 27.4428 80.6118 25.8998L76.0275 22.4366C76.0429 22.6225 76.0429 22.8094 76.0275 22.9953C75.9905 23.5873 75.7278 25.6186 74.0443 26.8655C73.7372 27.0949 73.3709 27.3502 72.9861 27.6055C70.7994 29.1632 67.5064 31.4794 67.0476 34.0694Z" fill="white"/>
</g>
<path d="M159.759 157.498H140.274V161.712H159.759V157.498Z" fill="#263238"/>
<path d="M148.012 157.498L148.334 161.712H151.083L151.227 157.498H148.012Z" fill="#E0E0E0"/>
<path d="M155.034 157.498H135.55V161.712H155.034V157.498Z" fill="#455A64"/>
<path d="M154.971 158.157C154.971 158.212 150.639 158.253 145.292 158.253C139.946 158.253 135.609 158.212 135.609 158.157C135.609 158.101 139.942 158.061 145.292 158.061C150.642 158.061 154.971 158.105 154.971 158.157Z" fill="#263238"/>
<path d="M154.964 159.122C154.964 159.174 150.631 159.218 145.284 159.218C139.938 159.218 135.602 159.174 135.602 159.122C135.602 159.07 139.938 159.026 145.284 159.026C150.631 159.026 154.964 159.07 154.964 159.122Z" fill="#263238"/>
<path d="M154.964 160.088C154.964 160.14 150.631 160.184 145.284 160.184C139.938 160.184 135.602 160.14 135.602 160.088C135.602 160.036 139.938 159.992 145.284 159.992C150.631 159.992 154.964 160.032 154.964 160.088Z" fill="#263238"/>
<path d="M154.964 161.05C154.964 161.106 150.631 161.146 145.284 161.146C139.938 161.146 135.602 161.106 135.602 161.05C135.602 160.995 139.938 160.954 145.284 160.954C150.631 160.954 154.964 160.998 154.964 161.05Z" fill="#263238"/>
<path d="M143.283 157.498L143.605 161.712H146.358L146.499 157.498H143.283Z" fill="#E0E0E0"/>
<path d="M162.124 153.328H142.64V157.542H162.124V153.328Z" fill="#263238"/>
<path d="M150.376 153.328L150.698 157.542H153.447L153.591 153.328H150.376Z" fill="#E0E0E0"/>
<path d="M157.398 153.328H137.914V157.542H157.398V153.328Z" fill="#455A64"/>
<path d="M157.336 153.99C157.336 154.042 152.999 154.086 147.657 154.086C142.314 154.086 137.974 154.042 137.974 153.99C137.974 153.938 142.306 153.894 147.657 153.894C153.007 153.894 157.336 153.92 157.336 153.99Z" fill="#263238"/>
<path d="M157.328 154.953C157.328 155.008 152.995 155.049 147.649 155.049C142.302 155.049 137.966 155.008 137.966 154.953C137.966 154.897 142.302 154.856 147.649 154.856C152.995 154.856 157.328 154.901 157.328 154.953Z" fill="#263238"/>
<path d="M157.328 155.918C157.328 155.97 152.995 156.014 147.649 156.014C142.302 156.014 137.966 155.97 137.966 155.918C137.966 155.866 142.302 155.822 147.649 155.822C152.995 155.822 157.328 155.866 157.328 155.918Z" fill="#263238"/>
<path d="M157.328 156.88C157.328 156.932 152.995 156.977 147.649 156.977C142.302 156.977 137.966 156.932 137.966 156.88C137.966 156.829 142.302 156.784 147.649 156.784C152.995 156.784 157.328 156.829 157.328 156.88Z" fill="#263238"/>
<path d="M145.647 153.328L145.969 157.542H148.718L148.863 153.328H145.647Z" fill="#E0E0E0"/>
<path d="M160.803 165.882H141.318V170.097H160.803V165.882Z" fill="#263238"/>
<path d="M149.052 165.878L149.374 170.096H152.126L152.267 165.878H149.052Z" fill="#E0E0E0"/>
<path d="M156.074 165.878H136.59V170.093H156.074V165.878Z" fill="#455A64"/>
<path d="M156.012 166.541C156.012 166.597 151.679 166.637 146.332 166.637C140.986 166.637 136.649 166.597 136.649 166.541C136.649 166.486 140.986 166.445 146.332 166.445C151.679 166.445 156.012 166.5 156.012 166.541Z" fill="#263238"/>
<path d="M156.008 167.506C156.008 167.558 151.671 167.603 146.325 167.603C140.978 167.603 136.646 167.558 136.646 167.506C136.646 167.455 140.978 167.41 146.325 167.41C151.671 167.41 156.008 167.451 156.008 167.506Z" fill="#263238"/>
<path d="M156.008 168.468C156.008 168.524 151.671 168.568 146.325 168.568C140.978 168.568 136.646 168.524 136.646 168.468C136.646 168.413 140.978 168.372 146.325 168.372C151.671 168.372 156.008 168.416 156.008 168.468Z" fill="#263238"/>
<path d="M156.008 169.434C156.008 169.49 151.671 169.53 146.325 169.53C140.978 169.53 136.646 169.49 136.646 169.434C136.646 169.379 140.978 169.338 146.325 169.338C151.671 169.338 156.008 169.382 156.008 169.434Z" fill="#263238"/>
<path d="M144.327 165.878L144.649 170.096H147.398L147.539 165.878H144.327Z" fill="#E0E0E0"/>
<path d="M163.167 161.712H143.683V165.927H163.167V161.712Z" fill="#263238"/>
<path d="M151.416 161.712L151.738 165.927H154.491L154.631 161.712H151.416Z" fill="#E0E0E0"/>
<path d="M158.438 161.712H138.954V165.927H158.438V161.712Z" fill="#455A64"/>
<path d="M158.36 162.371C158.36 162.427 154.027 162.471 148.681 162.471C143.334 162.471 138.998 162.427 138.998 162.371C138.998 162.316 143.334 162.275 148.681 162.275C154.027 162.275 158.36 162.319 158.36 162.371Z" fill="#263238"/>
<path d="M158.36 163.336C158.36 163.392 154.028 163.433 148.681 163.433C143.335 163.433 139.002 163.392 139.002 163.336C139.002 163.281 143.335 163.24 148.681 163.24C154.028 163.24 158.36 163.285 158.36 163.336Z" fill="#263238"/>
<path d="M158.36 164.302C158.36 164.354 154.028 164.398 148.681 164.398C143.335 164.398 139.002 164.354 139.002 164.302C139.002 164.25 143.335 164.206 148.681 164.206C154.028 164.206 158.36 164.247 158.36 164.302Z" fill="#263238"/>
<path d="M158.36 165.264C158.36 165.32 154.028 165.364 148.681 165.364C143.335 165.364 139.002 165.32 139.002 165.264C139.002 165.209 143.335 165.168 148.681 165.168C154.028 165.168 158.36 165.212 158.36 165.264Z" fill="#263238"/>
<path d="M146.687 161.712L147.008 165.927H149.761L149.902 161.712H146.687Z" fill="#E0E0E0"/>
<path d="M147.693 161.668H128.209V165.882H147.693V161.668Z" fill="#08B29B"/>
<path opacity="0.2" d="M147.693 161.668H128.209V165.882H147.693V161.668Z" fill="black"/>
<path d="M135.946 161.668L136.268 165.882H139.017L139.162 161.668H135.946Z" fill="#E0E0E0"/>
<path d="M145.555 165.882H126.071V170.097H145.555V165.882Z" fill="#08B29B"/>
<path opacity="0.2" d="M145.555 165.882H126.071V170.097H145.555V165.882Z" fill="black"/>
<path d="M133.808 165.878L134.126 170.096H136.879L137.019 165.878H133.808Z" fill="#E0E0E0"/>
<path d="M140.826 165.882H121.342V170.097H140.826V165.882Z" fill="#08B29B"/>
<g opacity="0.2">
<path opacity="0.2" d="M140.766 166.541C140.766 166.597 136.43 166.637 131.083 166.637C125.737 166.637 121.404 166.597 121.404 166.541C121.404 166.486 125.737 166.445 131.083 166.445C136.43 166.445 140.766 166.5 140.766 166.541Z" fill="black"/>
</g>
<g opacity="0.2">
<path opacity="0.2" d="M140.76 167.506C140.76 167.558 136.423 167.603 131.08 167.603C125.738 167.603 121.397 167.558 121.397 167.506C121.397 167.455 125.73 167.41 131.08 167.41C136.431 167.41 140.76 167.451 140.76 167.506Z" fill="black"/>
</g>
<g opacity="0.2">
<path opacity="0.2" d="M140.76 168.468C140.76 168.524 136.423 168.568 131.08 168.568C125.738 168.568 121.397 168.524 121.397 168.468C121.397 168.413 125.73 168.372 131.08 168.372C136.431 168.372 140.76 168.416 140.76 168.468Z" fill="black"/>
</g>
<g opacity="0.2">
<path opacity="0.2" d="M140.76 169.434C140.76 169.49 136.423 169.53 131.08 169.53C125.738 169.53 121.397 169.49 121.397 169.434C121.397 169.379 125.73 169.338 131.08 169.338C136.431 169.338 140.76 169.382 140.76 169.434Z" fill="black"/>
</g>
<path d="M129.079 165.878L129.401 170.096H132.15L132.294 165.878H129.079Z" fill="#E0E0E0"/>
<path d="M143.639 161.668H124.154V165.882H143.639V161.668Z" fill="#08B29B"/>
<g opacity="0.2">
<path opacity="0.2" d="M143.579 162.327C143.579 162.382 139.243 162.423 133.9 162.423C128.557 162.423 124.217 162.382 124.217 162.327C124.217 162.271 128.55 162.23 133.9 162.23C139.25 162.23 143.579 162.275 143.579 162.327Z" fill="black"/>
</g>
<g opacity="0.2">
<path opacity="0.2" d="M143.56 163.292C143.56 163.344 139.228 163.388 133.881 163.388C128.535 163.388 124.198 163.344 124.198 163.292C124.198 163.24 128.531 163.196 133.881 163.196C139.231 163.196 143.56 163.236 143.56 163.292Z" fill="black"/>
</g>
<g opacity="0.2">
<path opacity="0.2" d="M143.56 164.258C143.56 164.31 139.228 164.354 133.881 164.354C128.535 164.354 124.198 164.31 124.198 164.258C124.198 164.206 128.531 164.162 133.881 164.162C139.231 164.162 143.56 164.202 143.56 164.258Z" fill="black"/>
</g>
<g opacity="0.2">
<path opacity="0.2" d="M143.56 165.22C143.56 165.275 139.228 165.316 133.881 165.316C128.535 165.316 124.198 165.275 124.198 165.22C124.198 165.164 128.531 165.124 133.881 165.124C139.231 165.124 143.56 165.168 143.56 165.22Z" fill="black"/>
</g>
<path d="M131.891 161.668L132.213 165.882H134.962L135.106 161.668H131.891Z" fill="#E0E0E0"/>
<path d="M55.4481 165.882H35.9639V170.097H55.4481V165.882Z" fill="#263238"/>
<path d="M43.6973 165.878L44.0192 170.096H46.772L46.9126 165.878H43.6973Z" fill="#E0E0E0"/>
<path d="M50.7205 165.878H31.2363V170.093H50.7205V165.878Z" fill="#455A64"/>
<path d="M50.657 166.541C50.657 166.597 46.3243 166.637 40.9778 166.637C35.6313 166.637 31.2949 166.597 31.2949 166.541C31.2949 166.486 35.6313 166.445 40.9778 166.445C46.3243 166.445 50.657 166.5 50.657 166.541Z" fill="#263238"/>
<path d="M50.6504 167.506C50.6504 167.558 46.3177 167.603 40.9712 167.603C35.6247 167.603 31.292 167.558 31.292 167.506C31.292 167.455 35.6247 167.41 40.9712 167.41C46.3177 167.41 50.6504 167.451 50.6504 167.506Z" fill="#263238"/>
<path d="M50.6504 168.468C50.6504 168.524 46.3177 168.568 40.9712 168.568C35.6247 168.568 31.292 168.524 31.292 168.468C31.292 168.413 35.6247 168.372 40.9712 168.372C46.3177 168.372 50.6504 168.416 50.6504 168.468Z" fill="#263238"/>
<path d="M50.6504 169.434C50.6504 169.49 46.3177 169.53 40.9712 169.53C35.6247 169.53 31.292 169.49 31.292 169.434C31.292 169.379 35.6247 169.338 40.9712 169.338C46.3177 169.338 50.6504 169.382 50.6504 169.434Z" fill="#263238"/>
<path d="M38.9688 165.878L39.2907 170.096H42.0434L42.184 165.878H38.9688Z" fill="#F5F5F5"/>
<path d="M53.077 161.712H33.5928V165.927H53.077V161.712Z" fill="#263238"/>
<path d="M41.3291 161.712L41.6473 165.927H44.4001L44.5444 161.712H41.3291Z" fill="#E0E0E0"/>
<path d="M48.3485 161.712H28.8643V165.927H48.3485V161.712Z" fill="#455A64"/>
<path d="M48.2889 162.371C48.2889 162.427 43.9525 162.471 38.606 162.471C33.2595 162.471 28.9268 162.427 28.9268 162.371C28.9268 162.316 33.2595 162.275 38.606 162.275C43.9525 162.275 48.2889 162.319 48.2889 162.371Z" fill="#263238"/>
<path d="M48.282 163.336C48.282 163.392 43.9456 163.433 38.5991 163.433C33.2526 163.433 28.9199 163.392 28.9199 163.336C28.9199 163.281 33.2526 163.24 38.5991 163.24C43.9456 163.24 48.282 163.285 48.282 163.336Z" fill="#263238"/>
<path d="M48.282 164.302C48.282 164.354 43.9456 164.398 38.5991 164.398C33.2526 164.398 28.9199 164.354 28.9199 164.302C28.9199 164.25 33.2526 164.206 38.5991 164.206C43.9456 164.206 48.282 164.247 48.282 164.302Z" fill="#263238"/>
<path d="M48.282 165.264C48.282 165.32 43.9456 165.364 38.5991 165.364C33.2526 165.364 28.9199 165.32 28.9199 165.264C28.9199 165.209 33.2526 165.168 38.5991 165.168C43.9456 165.168 48.282 165.212 48.282 165.264Z" fill="#263238"/>
<path d="M36.6006 161.712L36.9225 165.927H39.6716L39.8159 161.712H36.6006Z" fill="#F5F5F5"/>
</svg>
