<svg width="41" height="41" viewBox="0 0 41 41" fill="none" xmlns="http://www.w3.org/2000/svg">
<path d="M32.1167 0H3.4167C2.2845 0 1.3667 0.917802 1.3667 2.05V10.25C1.3667 11.3822 2.2845 12.3 3.4167 12.3H6.15003V40.3167C6.15003 40.694 6.456 41 6.83337 41H28.7C29.0774 41 29.3834 40.694 29.3834 40.3167V12.3H32.1167C33.2489 12.3 34.1667 11.3822 34.1667 10.25V2.05C34.1667 0.917802 33.2489 0 32.1167 0ZM28.0167 39.6333H7.5167V6.83333H28.0167V39.6333ZM28.7 5.46667H6.83337C6.456 5.46667 6.15003 5.77263 6.15003 6.15V8.2H5.4667V4.1H30.0667V8.2H29.3834V6.15C29.3834 5.77263 29.0774 5.46667 28.7 5.46667ZM32.8 10.25C32.8 10.6274 32.4941 10.9333 32.1167 10.9333H29.3834V9.56667H30.75C31.1274 9.56667 31.4334 9.2607 31.4334 8.88333V3.41667C31.4334 3.0393 31.1274 2.73333 30.75 2.73333H4.78337C4.406 2.73333 4.10003 3.0393 4.10003 3.41667V8.88333C4.10003 9.2607 4.406 9.56667 4.78337 9.56667H6.15003V10.9333H3.4167C3.03933 10.9333 2.73337 10.6274 2.73337 10.25V2.05C2.73337 1.67263 3.03933 1.36667 3.4167 1.36667H32.1167C32.4941 1.36667 32.8 1.67263 32.8 2.05V10.25Z" fill="url(#paint0_linear)"/>
<path d="M9.29672 34.6842C10.7191 35.2981 11.8533 36.432 12.4674 37.8542C12.5761 38.1034 12.8222 38.2644 13.094 38.2642H22.442C22.7138 38.2644 22.9599 38.1034 23.0686 37.8542C23.6827 36.432 24.8169 35.2981 26.2393 34.6842C26.4886 34.5754 26.6497 34.329 26.6493 34.0569V12.4089C26.6501 12.1373 26.4899 11.8911 26.2413 11.7816C24.819 11.1678 23.6847 10.0339 23.0707 8.61166C22.9619 8.3625 22.7158 8.20149 22.4441 8.20166H13.094C12.8222 8.20149 12.5761 8.3625 12.4674 8.61166C11.8533 10.0339 10.7191 11.1678 9.29672 11.7816C9.04739 11.8905 8.88629 12.1369 8.88672 12.4089V34.0569C8.88629 34.329 9.04739 34.5754 9.29672 34.6842ZM10.2513 12.8463C11.6669 12.1313 12.8163 10.9818 13.5313 9.56628H22.0115C22.7247 10.9808 23.8716 12.1301 25.2847 12.8463V33.623C23.8691 34.3381 22.7197 35.4875 22.0047 36.903H13.5313C12.8163 35.4875 11.6669 34.3381 10.2513 33.623V12.8463Z" fill="url(#paint1_linear)"/>
<path d="M17.766 28.6999C20.7851 28.6999 23.2327 26.2524 23.2327 23.2333C23.2292 20.2155 20.7838 17.77 17.766 17.7666C14.7468 17.7666 12.2993 20.2141 12.2993 23.2333C12.2993 26.2524 14.7468 28.6999 17.766 28.6999ZM17.766 19.1333C20.0304 19.1333 21.866 20.9689 21.866 23.2333C21.8638 25.4967 20.0294 27.331 17.766 27.3333C15.5016 27.3333 13.666 25.4977 13.666 23.2333C13.666 20.9689 15.5016 19.1333 17.766 19.1333Z" fill="url(#paint2_linear)"/>
<path d="M17.7649 16.4003C18.1422 16.4003 18.4482 16.0943 18.4482 15.717V12.9836C18.4482 12.6063 18.1422 12.3003 17.7649 12.3003C17.3875 12.3003 17.0815 12.6063 17.0815 12.9836V15.717C17.0815 16.0943 17.3875 16.4003 17.7649 16.4003Z" fill="url(#paint3_linear)"/>
<path d="M17.7649 30.0664C17.3875 30.0664 17.0815 30.3724 17.0815 30.7497V33.4831C17.0815 33.8604 17.3875 34.1664 17.7649 34.1664C18.1422 34.1664 18.4482 33.8604 18.4482 33.4831V30.7497C18.4482 30.3724 18.1422 30.0664 17.7649 30.0664Z" fill="url(#paint4_linear)"/>
<defs>
<linearGradient id="paint0_linear" x1="17.7667" y1="0" x2="17.7667" y2="41" gradientUnits="userSpaceOnUse">
<stop stop-color="#0553C8"/>
<stop offset="1" stop-color="#08B29B"/>
</linearGradient>
<linearGradient id="paint1_linear" x1="17.768" y1="8.20166" x2="17.768" y2="38.2642" gradientUnits="userSpaceOnUse">
<stop stop-color="#0553C8"/>
<stop offset="1" stop-color="#08B29B"/>
</linearGradient>
<linearGradient id="paint2_linear" x1="17.766" y1="17.7666" x2="17.766" y2="28.6999" gradientUnits="userSpaceOnUse">
<stop stop-color="#0553C8"/>
<stop offset="1" stop-color="#08B29B"/>
</linearGradient>
<linearGradient id="paint3_linear" x1="17.7649" y1="12.3003" x2="17.7649" y2="16.4003" gradientUnits="userSpaceOnUse">
<stop stop-color="#0553C8"/>
<stop offset="1" stop-color="#08B29B"/>
</linearGradient>
<linearGradient id="paint4_linear" x1="17.7649" y1="30.0664" x2="17.7649" y2="34.1664" gradientUnits="userSpaceOnUse">
<stop stop-color="#0553C8"/>
<stop offset="1" stop-color="#08B29B"/>
</linearGradient>
</defs>
</svg>
