<svg width="35" height="35" viewBox="0 0 35 35" fill="none" xmlns="http://www.w3.org/2000/svg">
<path d="M26.4417 2.28271H16.7492C15.348 2.28271 14.208 3.42269 14.208 4.8239V15.9126C13.9236 15.8804 13.6346 15.8633 13.3418 15.8633C9.11458 15.8633 5.67551 19.3023 5.67551 23.5295C5.67551 27.7567 9.11458 31.1958 13.3418 31.1958C14.0992 31.1958 14.8311 31.0848 15.5227 30.8792C15.8866 31.0807 16.3047 31.1958 16.7492 31.1958H26.4417C27.8429 31.1958 28.9829 30.0558 28.9829 28.6546V4.8239C28.9829 3.42269 27.8429 2.28271 26.4417 2.28271ZM13.3418 29.5016C10.0487 29.5016 7.36963 26.8225 7.36963 23.5295C7.36963 20.2365 10.0487 17.5574 13.3418 17.5574C16.6347 17.5574 19.3138 20.2365 19.3138 23.5295C19.3138 26.8225 16.6347 29.5016 13.3418 29.5016ZM27.2888 28.6546C27.2888 29.1216 26.9088 29.5016 26.4417 29.5016H18.1426C19.019 28.7956 19.7376 27.9013 20.2359 26.8803H27.2888V28.6546ZM27.2888 25.1862H20.8271C20.9452 24.6525 21.0079 24.0982 21.0079 23.5296C21.0079 23.0878 20.9699 22.6548 20.8978 22.2333H27.2888V25.1862ZM27.2888 20.5392H20.4005C19.9086 19.3822 19.1399 18.3703 18.1784 17.5863H27.2888V20.5392ZM27.2888 15.8922H15.9021V12.9393H27.2888V15.8922ZM27.2888 11.2451H15.9021V8.29228H27.2888V11.2451ZM27.2888 6.59816H15.9021V4.8239C15.9021 4.35683 16.2821 3.97684 16.7492 3.97684H26.4417C26.9088 3.97684 27.2888 4.35683 27.2888 4.8239V6.59816Z" fill="url(#paint0_linear)"/>
<defs>
<linearGradient id="paint0_linear" x1="17.3292" y1="2.28271" x2="17.3292" y2="31.1958" gradientUnits="userSpaceOnUse">
<stop stop-color="#08B29B"/>
<stop offset="1" stop-color="#0553C8"/>
</linearGradient>
</defs>
</svg>
