<svg width="45" height="37" viewBox="0 0 45 37" fill="none" xmlns="http://www.w3.org/2000/svg">
<path d="M43.9863 31.4258H42.116C41.9289 26.8557 40.1546 22.4937 37.0986 19.0905C34.0426 15.6873 29.896 13.4556 25.3723 12.7797C25.3536 12.0303 25.0428 11.3178 24.5062 10.7944C23.9696 10.271 23.2496 9.97803 22.5 9.97803C21.7504 9.97803 21.0304 10.271 20.4938 10.7944C19.9572 11.3178 19.6464 12.0303 19.6277 12.7797C15.104 13.4556 10.9574 15.6873 7.90137 19.0905C4.84537 22.4937 3.07113 26.8557 2.88399 31.4258H1.01367C0.911317 31.4257 0.809954 31.4458 0.715379 31.485C0.620804 31.5241 0.534871 31.5815 0.462495 31.6539C0.390119 31.7263 0.332719 31.8122 0.293576 31.9068C0.254434 32.0014 0.234317 32.1027 0.234375 32.2051V36.0735C0.234317 36.1759 0.254434 36.2772 0.293576 36.3718C0.332719 36.4664 0.390119 36.5523 0.462495 36.6247C0.534871 36.6971 0.620804 36.7545 0.715379 36.7936C0.809954 36.8327 0.911317 36.8529 1.01367 36.8528H43.9863C44.0887 36.8529 44.19 36.8327 44.2846 36.7936C44.3792 36.7545 44.4651 36.6971 44.5375 36.6247C44.6099 36.5523 44.6673 36.4664 44.7064 36.3718C44.7456 36.2772 44.7657 36.1759 44.7656 36.0735V32.2051C44.7657 32.1027 44.7456 32.0014 44.7064 31.9068C44.6673 31.8122 44.6099 31.7263 44.5375 31.6539C44.4651 31.5815 44.3792 31.5241 44.2846 31.485C44.19 31.4458 44.0887 31.4257 43.9863 31.4258ZM22.5 11.5203C22.8101 11.521 23.1101 11.6312 23.3469 11.8315C23.5838 12.0317 23.7423 12.3092 23.7945 12.6149C23.3661 12.5868 22.9355 12.5677 22.5 12.5677C22.0645 12.5677 21.6339 12.5868 21.2055 12.6149C21.2577 12.3092 21.4162 12.0317 21.6531 11.8315C21.8899 11.6312 22.1899 11.521 22.5 11.5203ZM22.5 14.1263C27.1579 14.132 31.6342 15.9333 34.9979 19.1555C38.3615 22.3776 40.3534 26.7724 40.5592 31.4258H4.4408C4.64662 26.7724 6.63852 22.3776 10.0021 19.1555C13.3658 15.9333 17.8421 14.132 22.5 14.1263ZM43.207 35.2942H1.79297V32.9844H43.207V35.2942Z" fill="#08B29B"/>
<path d="M25.9757 6.27749C25.8342 6.42489 25.7562 6.62199 25.7585 6.82635C25.7609 7.03071 25.8435 7.22596 25.9884 7.37004C26.1334 7.51411 26.3291 7.59548 26.5335 7.59661C26.7378 7.59774 26.9345 7.51854 27.081 7.37608C27.5816 6.81578 27.879 6.10325 27.9252 5.35333C27.9714 4.6034 27.7637 3.85976 27.3357 3.24224C26.6646 2.14766 27.1238 1.69122 27.2845 1.57499C27.4523 1.45999 27.5685 1.28392 27.6083 1.0844C27.648 0.884876 27.6082 0.677718 27.4973 0.507181C27.3863 0.336645 27.2131 0.216253 27.0146 0.171727C26.8161 0.127202 26.608 0.162072 26.4349 0.268888C25.7509 0.703958 24.7805 2.05593 26.0069 4.05627C26.7951 5.34278 26.055 6.19199 25.9757 6.27749Z" fill="#08B29B"/>
<path d="M21.8 6.27749C21.6585 6.42489 21.5804 6.62199 21.5828 6.82635C21.5852 7.03071 21.6677 7.22596 21.8127 7.37004C21.9576 7.51411 22.1534 7.59548 22.3578 7.59661C22.5621 7.59774 22.7588 7.51854 22.9053 7.37608C23.4059 6.81578 23.7032 6.10325 23.7494 5.35333C23.7957 4.6034 23.588 3.85976 23.16 3.24224C22.4894 2.14766 22.948 1.69122 23.1088 1.57499C23.2766 1.45999 23.3928 1.28392 23.4326 1.0844C23.4723 0.884876 23.4325 0.677718 23.3215 0.507181C23.2106 0.336645 23.0374 0.216253 22.8389 0.171727C22.6403 0.127202 22.4323 0.162072 22.2591 0.268888C21.5751 0.703958 20.6048 2.05593 21.8312 4.05627C22.6198 5.34278 21.8793 6.19199 21.8 6.27749Z" fill="#08B29B"/>
<path d="M17.6244 6.27749C17.4828 6.42489 17.4048 6.62199 17.4072 6.82635C17.4095 7.03071 17.4921 7.22596 17.637 7.37004C17.782 7.51411 17.9777 7.59548 18.1821 7.59661C18.3865 7.59774 18.5831 7.51854 18.7296 7.37608C19.2302 6.81578 19.5276 6.10325 19.5738 5.35333C19.62 4.6034 19.4124 3.85976 18.9844 3.24224C18.3137 2.14766 18.7724 1.69122 18.9331 1.57499C19.101 1.45999 19.2172 1.28392 19.2569 1.0844C19.2967 0.884876 19.2568 0.677718 19.1459 0.507181C19.0349 0.336645 18.8617 0.216253 18.6632 0.171727C18.4647 0.127202 18.2566 0.162072 18.0835 0.268888C17.3995 0.703958 16.4291 2.05593 17.6555 4.05627C18.4442 5.34278 17.7036 6.19199 17.6244 6.27749Z" fill="#08B29B"/>
<path d="M14.81 17.5893C11.5484 19.3151 8.95334 22.0767 7.43341 25.4392C7.38886 25.5329 7.36347 25.6345 7.3587 25.7381C7.35394 25.8417 7.3699 25.9452 7.40566 26.0426C7.44143 26.14 7.49626 26.2292 7.56696 26.3051C7.63765 26.381 7.72279 26.442 7.81737 26.4846C7.91195 26.5271 8.01408 26.5504 8.11777 26.553C8.22145 26.5555 8.32461 26.5374 8.4212 26.4996C8.51778 26.4618 8.60585 26.4051 8.68024 26.3328C8.75463 26.2605 8.81384 26.1741 8.8544 26.0787C10.2314 23.0326 12.5824 20.5311 15.5372 18.9679C15.7203 18.8715 15.8575 18.7063 15.9188 18.5087C15.98 18.311 15.9603 18.0972 15.8638 17.9141C15.7674 17.731 15.6022 17.5938 15.4046 17.5325C15.2069 17.4713 14.9931 17.491 14.81 17.5875V17.5893Z" fill="#08B29B"/>
</svg>
