<svg width="57" height="57" viewBox="0 0 57 57" fill="none" xmlns="http://www.w3.org/2000/svg">
<path d="M49.9863 41.4258H48.116C47.9289 36.8557 46.1546 32.4937 43.0986 29.0905C40.0426 25.6873 35.896 23.4556 31.3723 22.7797C31.3536 22.0303 31.0428 21.3178 30.5062 20.7944C29.9696 20.271 29.2496 19.978 28.5 19.978C27.7504 19.978 27.0304 20.271 26.4938 20.7944C25.9572 21.3178 25.6464 22.0303 25.6277 22.7797C21.104 23.4556 16.9574 25.6873 13.9014 29.0905C10.8454 32.4937 9.07113 36.8557 8.88399 41.4258H7.01367C6.91132 41.4257 6.80995 41.4458 6.71538 41.485C6.6208 41.5241 6.53487 41.5815 6.4625 41.6539C6.39012 41.7263 6.33272 41.8122 6.29358 41.9068C6.25443 42.0014 6.23432 42.1027 6.23438 42.2051V46.0735C6.23432 46.1759 6.25443 46.2772 6.29358 46.3718C6.33272 46.4664 6.39012 46.5523 6.4625 46.6247C6.53487 46.6971 6.6208 46.7545 6.71538 46.7936C6.80995 46.8327 6.91132 46.8529 7.01367 46.8528H49.9863C50.0887 46.8529 50.19 46.8327 50.2846 46.7936C50.3792 46.7545 50.4651 46.6971 50.5375 46.6247C50.6099 46.5523 50.6673 46.4664 50.7064 46.3718C50.7456 46.2772 50.7657 46.1759 50.7656 46.0735V42.2051C50.7657 42.1027 50.7456 42.0014 50.7064 41.9068C50.6673 41.8122 50.6099 41.7263 50.5375 41.6539C50.4651 41.5815 50.3792 41.5241 50.2846 41.485C50.19 41.4458 50.0887 41.4257 49.9863 41.4258ZM28.5 21.5203C28.8101 21.521 29.1101 21.6312 29.3469 21.8315C29.5838 22.0317 29.7423 22.3092 29.7945 22.6149C29.3661 22.5868 28.9355 22.5677 28.5 22.5677C28.0645 22.5677 27.6339 22.5868 27.2055 22.6149C27.2577 22.3092 27.4162 22.0317 27.6531 21.8315C27.8899 21.6312 28.1899 21.521 28.5 21.5203ZM28.5 24.1263C33.1579 24.132 37.6342 25.9333 40.9979 29.1555C44.3615 32.3776 46.3534 36.7724 46.5592 41.4258H10.4408C10.6466 36.7724 12.6385 32.3776 16.0021 29.1555C19.3658 25.9333 23.8421 24.132 28.5 24.1263ZM49.207 45.2942H7.79297V42.9844H49.207V45.2942Z" fill="#08B29B"/>
<path d="M31.9758 16.2775C31.8342 16.4249 31.7562 16.622 31.7586 16.8264C31.7609 17.0307 31.8435 17.226 31.9884 17.37C32.1334 17.5141 32.3291 17.5955 32.5335 17.5966C32.7379 17.5977 32.9345 17.5185 33.081 17.3761C33.5816 16.8158 33.879 16.1033 33.9252 15.3533C33.9714 14.6034 33.7638 13.8598 33.3358 13.2422C32.6647 12.1477 33.1238 11.6912 33.2845 11.575C33.4524 11.46 33.5686 11.2839 33.6083 11.0844C33.6481 10.8849 33.6082 10.6777 33.4973 10.5072C33.3864 10.3366 33.2131 10.2163 33.0146 10.1717C32.8161 10.1272 32.608 10.1621 32.4349 10.2689C31.7509 10.704 30.7806 12.0559 32.0069 14.0563C32.7951 15.3428 32.055 16.192 31.9758 16.2775Z" fill="#08B29B"/>
<path d="M27.8 16.2775C27.6584 16.4249 27.5804 16.622 27.5828 16.8264C27.5852 17.0307 27.6677 17.226 27.8127 17.37C27.9576 17.5141 28.1534 17.5955 28.3577 17.5966C28.5621 17.5977 28.7587 17.5185 28.9053 17.3761C29.4059 16.8158 29.7032 16.1033 29.7494 15.3533C29.7956 14.6034 29.588 13.8598 29.16 13.2422C28.4893 12.1477 28.948 11.6912 29.1088 11.575C29.2766 11.46 29.3928 11.2839 29.4325 11.0844C29.4723 10.8849 29.4324 10.6777 29.3215 10.5072C29.2106 10.3366 29.0373 10.2163 28.8388 10.1717C28.6403 10.1272 28.4323 10.1621 28.2591 10.2689C27.5751 10.704 26.6048 12.0559 27.8312 14.0563C28.6198 15.3428 27.8793 16.192 27.8 16.2775Z" fill="#08B29B"/>
<path d="M23.6243 16.2775C23.4828 16.4249 23.4048 16.622 23.4071 16.8264C23.4095 17.0307 23.492 17.226 23.637 17.37C23.7819 17.5141 23.9777 17.5955 24.1821 17.5966C24.3864 17.5977 24.5831 17.5185 24.7296 17.3761C25.2302 16.8158 25.5276 16.1033 25.5738 15.3533C25.62 14.6034 25.4123 13.8598 24.9843 13.2422C24.3137 12.1477 24.7724 11.6912 24.9331 11.575C25.1009 11.46 25.2171 11.2839 25.2569 11.0844C25.2966 10.8849 25.2568 10.6777 25.1459 10.5072C25.0349 10.3366 24.8617 10.2163 24.6632 10.1717C24.4647 10.1272 24.2566 10.1621 24.0835 10.2689C23.3995 10.704 22.4291 12.0559 23.6555 14.0563C24.4442 15.3428 23.7036 16.192 23.6243 16.2775Z" fill="#08B29B"/>
<path d="M20.81 27.5893C17.5484 29.3151 14.9534 32.0767 13.4334 35.4392C13.3889 35.5329 13.3635 35.6345 13.3587 35.7381C13.354 35.8417 13.3699 35.9452 13.4057 36.0426C13.4415 36.14 13.4963 36.2292 13.567 36.3051C13.6377 36.381 13.7228 36.442 13.8174 36.4846C13.912 36.5271 14.0141 36.5504 14.1178 36.553C14.2215 36.5555 14.3246 36.5374 14.4212 36.4996C14.5178 36.4618 14.6059 36.4051 14.6803 36.3328C14.7547 36.2605 14.8139 36.1741 14.8544 36.0787C16.2314 33.0326 18.5824 30.5311 21.5372 28.9679C21.7203 28.8715 21.8576 28.7063 21.9188 28.5087C21.9801 28.311 21.9603 28.0972 21.8639 27.9141C21.7674 27.731 21.6022 27.5938 21.4046 27.5325C21.207 27.4713 20.9931 27.491 20.81 27.5875V27.5893Z" fill="#08B29B"/>
</svg>
