<svg width="319" height="48" viewBox="0 0 319 48" fill="none" xmlns="http://www.w3.org/2000/svg">
<path d="M27.8539 45.2729C35.3236 45.3611 41.5629 41.8147 46.0808 38.1849C41.0108 41.006 34.7695 43.2434 27.6284 43.1351C20.9172 43.0336 15.022 40.8844 10.1719 38.1849C14.5994 41.7417 20.6404 45.1876 27.8539 45.2729Z" fill="#F20000"/>
<path d="M27.8539 45.2729C35.3236 45.3611 41.5629 41.8147 46.0808 38.1849C41.0108 41.006 34.7695 43.2434 27.6284 43.1351C20.9172 43.0336 15.022 40.8844 10.1719 38.1849C14.5994 41.7417 20.6404 45.1876 27.8539 45.2729Z" fill="#F20000"/>
<path d="M27.8539 47.2265C35.3236 47.3389 41.5629 42.8153 46.0808 38.1849C41.0108 41.7834 34.7695 44.6376 27.6284 44.4993C20.9164 44.3689 15.022 41.6295 10.1719 38.1857C14.5994 42.7221 20.6404 47.1174 27.8539 47.2265Z" fill="#F20000"/>
<path d="M25.3962 14.7007L24.144 13.4387C23.9439 13.2394 23.7067 13.0818 23.446 12.975C23.1854 12.8683 22.9063 12.8144 22.6249 12.8165C22.3457 12.8114 22.0684 12.864 21.8102 12.971C21.5519 13.078 21.3181 13.2372 21.1232 13.4387L13.0075 21.6157L4.89263 13.439C4.69772 13.2375 4.46393 13.0783 4.20566 12.9713C3.94738 12.8643 3.67009 12.8117 3.39088 12.8168C3.10945 12.8146 2.83037 12.8685 2.56964 12.9753C2.30891 13.082 2.07167 13.2396 1.87152 13.439L0.634911 14.7009C0.430897 14.8989 0.269344 15.1369 0.160234 15.4003C0.0511244 15.6636 -0.00322296 15.9468 0.000550729 16.2321C-0.00606933 16.5152 0.0470581 16.7965 0.156417 17.0574C0.265776 17.3182 0.428872 17.5527 0.634911 17.7453L11.5045 28.6981C11.6956 28.9057 11.9283 29.0701 12.1872 29.1803C12.4461 29.2904 12.7253 29.344 13.0062 29.3373C13.2895 29.3412 13.5705 29.2864 13.8319 29.1765C14.0933 29.0665 14.3296 28.9037 14.5261 28.6981L25.3957 17.7458C25.5957 17.5495 25.7538 17.3139 25.8601 17.0537C25.9664 16.7934 26.0187 16.514 26.0137 16.2326C26.016 15.9489 25.9626 15.6675 25.8566 15.4046C25.7506 15.1417 25.5941 14.9025 25.3962 14.7007Z" fill="#0553C8"/>
<path d="M55.6774 26.7873L53.9828 28.4954C53.7119 28.7652 53.3909 28.9784 53.038 29.123C52.6852 29.2675 52.3075 29.3404 51.9266 29.3375C51.5485 29.3446 51.1729 29.2735 50.8231 29.1286C50.4732 28.9838 50.1565 28.7683 49.8926 28.4954L38.9096 17.4283L27.9269 28.4938C27.6629 28.7668 27.3462 28.9823 26.9964 29.1272C26.6466 29.2721 26.271 29.3433 25.8928 29.3362C25.5119 29.3391 25.1341 29.2661 24.7813 29.1216C24.4284 28.977 24.1073 28.7637 23.8364 28.4938L22.164 26.7857C21.8881 26.5179 21.6696 26.196 21.522 25.8398C21.3743 25.4836 21.3006 25.1007 21.3055 24.7148C21.2963 24.3314 21.3682 23.9505 21.5162 23.5972C21.6642 23.244 21.885 22.9265 22.164 22.6657L36.8758 7.84198C37.1346 7.56082 37.4499 7.33829 37.8005 7.18914C38.1512 7.04 38.5293 6.96764 38.9098 6.97686C39.293 6.97187 39.6732 7.04606 40.0268 7.19485C40.3805 7.34365 40.7001 7.56389 40.9659 7.84198L55.6777 22.6657C55.9486 22.9316 56.1625 23.2506 56.3064 23.603C56.4502 23.9554 56.5209 24.3338 56.514 24.7148C56.5168 25.0987 56.4444 25.4794 56.3008 25.8351C56.1572 26.1907 55.9454 26.5143 55.6774 26.7873Z" fill="#08B29B"/>
<path d="M79.3576 43.1218C79.0884 43.13 78.8204 43.0825 78.5701 42.9823C78.3198 42.8821 78.0925 42.7313 77.9022 42.5393C77.7116 42.3475 77.562 42.1185 77.4626 41.8663C77.3632 41.6141 77.316 41.344 77.3241 41.0728V23.1938C77.3122 22.919 77.3575 22.6447 77.457 22.3886C77.5566 22.1325 77.7083 21.9002 77.9022 21.7067C78.0955 21.52 78.3237 21.3741 78.5737 21.2776C78.8236 21.181 79.0901 21.1356 79.3576 21.1442C79.6287 21.1318 79.8994 21.1753 80.1531 21.272C80.4069 21.3688 80.6384 21.5167 80.8335 21.7067C81.0221 21.9032 81.1689 22.1365 81.2648 22.3922C81.3608 22.6479 81.404 22.9207 81.3917 23.1938V41.0728C81.4002 41.3424 81.3552 41.6109 81.2594 41.8627C81.1635 42.1146 81.0187 42.3446 80.8335 42.5393C80.6414 42.7347 80.4109 42.8875 80.1567 42.9879C79.9026 43.0882 79.6304 43.1338 79.3576 43.1218ZM79.3576 17.5689C79.0119 17.5729 78.669 17.5056 78.3502 17.371C78.0313 17.2364 77.7431 17.0374 77.5035 16.7862C77.2543 16.5448 77.0568 16.2544 76.9232 15.9331C76.7896 15.6118 76.7227 15.2663 76.7267 14.918C76.7227 14.5696 76.7896 14.2241 76.9232 13.9028C77.0568 13.5815 77.2543 13.2911 77.5035 13.0497C77.7431 12.7986 78.0313 12.5995 78.3502 12.4649C78.669 12.3303 79.0119 12.263 79.3576 12.267C79.7034 12.263 80.0462 12.3303 80.3651 12.4649C80.684 12.5995 80.9722 12.7986 81.2118 13.0497C81.461 13.2911 81.6585 13.5815 81.7921 13.9028C81.9257 14.2241 81.9926 14.5696 81.9886 14.918C81.9926 15.2663 81.9257 15.6118 81.7921 15.9331C81.6585 16.2544 81.461 16.5448 81.2118 16.7862C80.9722 17.0374 80.684 17.2364 80.3651 17.371C80.0462 17.5056 79.7034 17.5729 79.3576 17.5689ZM106.512 43.162C106.243 43.1701 105.975 43.1226 105.724 43.0224C105.474 42.9223 105.247 42.7715 105.056 42.5795C104.866 42.3877 104.716 42.1587 104.617 41.9065C104.517 41.6543 104.47 41.3842 104.478 41.113V31.2293C104.478 29.7025 104.199 28.457 103.641 27.4928C103.121 26.5649 102.336 25.816 101.388 25.3433C100.374 24.8587 99.261 24.618 98.1383 24.6402C97.0893 24.625 96.0515 24.859 95.1089 25.3232C94.25 25.7403 93.5094 26.369 92.9557 27.1513C92.4217 27.9221 92.1427 28.843 92.1582 29.7829H89.6467C89.6211 28.1907 90.0429 26.6237 90.8636 25.2629C91.6771 23.9342 92.825 22.846 94.1908 22.109C95.6483 21.32 97.2815 20.919 98.9358 20.9438C100.65 20.9146 102.344 21.3223 103.86 22.1291C105.315 22.9255 106.507 24.1336 107.289 25.6044C108.127 27.1312 108.545 29.0061 108.545 31.2293V41.113C108.553 41.3842 108.506 41.6543 108.407 41.9065C108.307 42.1587 108.158 42.3877 107.967 42.5795C107.777 42.7715 107.55 42.9223 107.299 43.0224C107.049 43.1226 106.781 43.1701 106.512 43.162ZM90.1236 43.162C89.8544 43.1701 89.5864 43.1226 89.3361 43.0224C89.0858 42.9223 88.8585 42.7715 88.6682 42.5795C88.4776 42.3877 88.328 42.1587 88.2286 41.9065C88.1291 41.6543 88.082 41.3842 88.0901 41.113V23.1938C88.0782 22.919 88.1235 22.6447 88.223 22.3886C88.3226 22.1325 88.4743 21.9002 88.6682 21.7067C88.8615 21.52 89.0897 21.3741 89.3396 21.2776C89.5896 21.181 89.8561 21.1356 90.1236 21.1442C90.3947 21.1318 90.6654 21.1753 90.9191 21.272C91.1729 21.3688 91.4044 21.5167 91.5995 21.7067C91.7881 21.9032 91.9348 22.1365 92.0308 22.3922C92.1268 22.6479 92.17 22.9207 92.1577 23.1938V41.113C92.1662 41.3825 92.1212 41.6511 92.0254 41.9029C91.9295 42.1547 91.7847 42.3847 91.5995 42.5795C91.4074 42.7749 91.1769 42.9277 90.9227 43.028C90.6685 43.1284 90.3964 43.174 90.1236 43.162ZM120.587 43.0817C119.763 43.0817 119.125 42.6397 118.673 41.7558L110.22 23.7964C110.116 23.5893 110.056 23.362 110.046 23.1299C110.036 22.8979 110.075 22.6662 110.16 22.4505C110.353 21.9879 110.718 21.62 111.177 21.4259C111.385 21.3082 111.615 21.2365 111.852 21.2157C112.089 21.1949 112.328 21.2255 112.553 21.3054C113.012 21.4611 113.392 21.7932 113.609 22.2295L121.505 39.3853H119.591L127.406 22.2295C127.518 22.0094 127.673 21.8142 127.861 21.6555C128.05 21.4968 128.268 21.3777 128.502 21.3054C128.997 21.1448 129.535 21.1882 129.998 21.4259C130.219 21.5154 130.419 21.6512 130.584 21.8244C130.749 21.9975 130.876 22.2041 130.956 22.4304C131.035 22.6517 131.069 22.8868 131.055 23.1216C131.041 23.3565 130.98 23.586 130.876 23.7964L122.422 41.7558C122.023 42.6397 121.411 43.0817 120.587 43.0817ZM143.634 43.2826C141.585 43.3212 139.56 42.8302 137.753 41.8563C136.076 40.9425 134.682 39.5799 133.725 37.9188C132.734 36.1639 132.231 34.172 132.27 32.1531C132.228 30.1308 132.702 28.1314 133.646 26.3464C134.531 24.7055 135.849 23.3429 137.454 22.409C139.154 21.4376 141.082 20.9449 143.036 20.9827C145.11 20.9827 146.891 21.4447 148.38 22.3688C149.859 23.282 151.043 24.6079 151.789 26.1857C152.602 27.9386 153.004 29.8561 152.965 31.7905C152.972 32.0262 152.929 32.2607 152.84 32.4788C152.751 32.6968 152.617 32.8935 152.447 33.0561C152.272 33.2235 152.065 33.3542 151.839 33.4404C151.614 33.5266 151.373 33.5667 151.131 33.5583H135.062V30.3441H151.011L149.376 31.469C149.372 30.2264 149.1 28.9996 148.579 27.8731C148.105 26.8517 147.36 25.9825 146.426 25.362C145.412 24.7224 144.232 24.4008 143.036 24.438C141.673 24.3979 140.325 24.7461 139.149 25.4424C138.083 26.0998 137.231 27.0563 136.697 28.1946C136.123 29.4325 135.836 30.7859 135.859 32.1521C135.835 33.5309 136.179 34.8908 136.856 36.0895C137.512 37.2331 138.463 38.177 139.607 38.8215C140.839 39.507 142.228 39.8534 143.635 39.826C144.499 39.8188 145.355 39.6625 146.167 39.3639C146.913 39.1164 147.619 38.7575 148.26 38.2992C148.634 38.0134 149.087 37.8519 149.556 37.8372C150 37.8162 150.435 37.9671 150.773 38.2591C150.976 38.4191 151.144 38.6192 151.268 38.8472C151.391 39.0752 151.467 39.3263 151.491 39.5849C151.5 39.8303 151.446 40.0739 151.334 40.2921C151.222 40.5104 151.056 40.6958 150.853 40.8304C149.839 41.6124 148.699 42.2112 147.482 42.6001C146.245 43.0369 144.945 43.2674 143.634 43.2826ZM165.206 43.2826C163.448 43.3 161.7 43.0076 160.042 42.4187C158.461 41.8429 157.231 41.113 156.354 40.2291C156.165 40.0396 156.021 39.8088 155.935 39.5545C155.848 39.3001 155.821 39.0292 155.855 38.7626C155.885 38.4962 155.97 38.239 156.103 38.0073C156.237 37.7756 156.417 37.5744 156.632 37.4166C156.843 37.2217 157.092 37.073 157.364 36.9796C157.635 36.8863 157.922 36.8504 158.207 36.8742C158.722 36.9392 159.196 37.1888 159.543 37.5773C159.995 38.0863 160.719 38.5617 161.716 39.0036C162.768 39.4569 163.903 39.6827 165.047 39.6666C166.589 39.6666 167.765 39.4121 168.576 38.9032C169.387 38.3943 169.805 37.738 169.832 36.9345C169.858 36.1309 169.48 35.4345 168.695 34.8453C167.911 34.256 166.482 33.7739 164.409 33.3989C161.724 32.8632 159.777 32.0596 158.567 30.9882C157.993 30.5093 157.532 29.9074 157.219 29.2262C156.905 28.545 156.746 27.8018 156.753 27.0508C156.709 25.8071 157.137 24.5933 157.949 23.6558C158.786 22.7328 159.843 22.0412 161.02 21.6469C162.275 21.2039 163.597 20.9797 164.927 20.984C166.522 20.9545 168.107 21.2411 169.593 21.8277C170.847 22.3168 171.959 23.1186 172.822 24.158C172.994 24.336 173.128 24.5469 173.217 24.7781C173.306 25.0093 173.348 25.2561 173.34 25.504C173.324 25.7405 173.255 25.9702 173.137 26.1757C173.02 26.3811 172.857 26.5567 172.662 26.6892C172.442 26.837 172.194 26.9382 171.933 26.9865C171.673 27.0349 171.405 27.0294 171.147 26.9705C170.596 26.8799 170.083 26.6285 169.671 26.2473C169.067 25.6411 168.329 25.1869 167.518 24.9214C166.651 24.6668 165.75 24.5449 164.847 24.5598C163.824 24.529 162.807 24.7351 161.876 25.1625C161.065 25.5642 160.659 26.1535 160.659 26.9303C160.654 27.3938 160.785 27.8484 161.038 28.236C161.29 28.6244 161.789 28.9723 162.533 29.2796C163.594 29.6775 164.689 29.98 165.803 30.1836C167.796 30.5854 169.371 31.0943 170.528 31.7104C171.684 32.3264 172.515 33.043 173.022 33.8601C173.537 34.7125 173.799 35.6951 173.779 36.6926C173.793 37.8778 173.453 39.0397 172.802 40.0274C172.085 41.0736 171.09 41.8951 169.932 42.3979C168.669 42.9877 167.094 43.2826 165.206 43.2826H165.206ZM185.981 43.1218C184.711 43.1389 183.464 42.7829 182.392 42.0973C181.324 41.4083 180.457 40.4447 179.881 39.3058C179.257 38.0753 178.942 36.7096 178.964 35.3282V16.1635C178.954 15.8968 178.998 15.6309 179.094 15.3821C179.19 15.1334 179.336 14.9071 179.522 14.7171C179.71 14.5296 179.935 14.383 180.182 14.2863C180.429 14.1896 180.693 14.1447 180.957 14.1546C181.222 14.1447 181.486 14.1896 181.733 14.2863C181.98 14.383 182.204 14.5296 182.393 14.7171C182.579 14.9071 182.724 15.1334 182.82 15.3821C182.916 15.6309 182.961 15.8968 182.951 16.1635V35.3282C182.918 36.3017 183.229 37.2554 183.828 38.0201C184.078 38.3573 184.403 38.631 184.777 38.8192C185.151 39.0074 185.563 39.105 185.981 39.1041H187.337C187.568 39.1016 187.797 39.1508 188.008 39.2481C188.218 39.3453 188.404 39.4882 188.553 39.6666C188.895 40.0679 189.073 40.5848 189.051 41.113C189.058 41.3886 189.002 41.6622 188.888 41.9129C188.774 42.1636 188.605 42.3847 188.393 42.5594C187.915 42.9481 187.312 43.1481 186.699 43.1218H185.981ZM177.129 25.4035C176.632 25.4258 176.146 25.253 175.773 24.9214C175.606 24.77 175.473 24.5839 175.383 24.3758C175.294 24.1678 175.25 23.9427 175.255 23.7161C175.245 23.4769 175.286 23.2382 175.375 23.0163C175.464 22.7944 175.6 22.5946 175.773 22.4304C176.146 22.0988 176.632 21.9259 177.129 21.9483H186.34C186.837 21.9259 187.323 22.0988 187.695 22.4304C187.868 22.5946 188.004 22.7944 188.094 23.0163C188.183 23.2382 188.224 23.4769 188.213 23.7161C188.218 23.9427 188.175 24.1678 188.085 24.3758C187.996 24.5839 187.863 24.77 187.695 24.9214C187.323 25.253 186.837 25.4258 186.34 25.4035H177.129Z" fill="#0553C8"/>
<path d="M79.2946 18.266C81.0106 18.266 82.4016 16.8644 82.4016 15.1353C82.4016 13.4063 81.0106 12.0046 79.2946 12.0046C77.5786 12.0046 76.1875 13.4063 76.1875 15.1353C76.1875 16.8644 77.5786 18.266 79.2946 18.266Z" fill="#F20000"/>
<path d="M206.552 42.9964C206.185 43.0016 205.821 42.931 205.483 42.7889C205.145 42.6469 204.839 42.4365 204.584 42.1707C204.317 41.9055 204.106 41.588 203.965 41.2377C203.824 40.8874 203.756 40.5118 203.764 40.1339V27.3076L189.179 4.46241C188.705 3.69173 188.523 2.96688 188.632 2.28786C188.727 1.63357 189.07 1.04174 189.588 0.636403C190.107 0.217664 190.754 -0.00611285 191.419 0.00347629C191.942 -0.0248101 192.461 0.120132 192.895 0.41621C193.307 0.745859 193.659 1.14651 193.933 1.59962L207.808 23.7844H205.623L219.718 1.37969C219.983 0.965556 220.338 0.617608 220.756 0.362205C221.207 0.11094 221.717 -0.0126597 222.232 0.00451929C222.538 -0.00321391 222.842 0.0540528 223.124 0.17259C223.407 0.291127 223.661 0.468277 223.871 0.692498C224.311 1.15731 224.581 1.75915 224.636 2.399C224.696 3.12997 224.503 3.85925 224.09 4.46319L209.393 27.3076V40.1339C209.401 40.5118 209.333 40.8874 209.192 41.2377C209.051 41.588 208.841 41.9055 208.573 42.1707C208.31 42.4401 207.995 42.6524 207.647 42.7944C207.3 42.9364 206.927 43.0051 206.552 42.9964ZM231.956 42.9964C231.587 43.0074 231.22 42.9423 230.877 42.805C230.534 42.6677 230.223 42.4612 229.962 42.1981C229.701 41.9354 229.496 41.6216 229.36 41.2762C229.224 40.9307 229.159 40.5608 229.17 40.1892V15.6913C229.154 15.3149 229.216 14.9393 229.352 14.5885C229.489 14.2377 229.697 13.9196 229.962 13.6545C230.227 13.3988 230.54 13.199 230.882 13.0666C231.224 12.9343 231.589 12.8721 231.956 12.8838C232.327 12.867 232.698 12.9267 233.045 13.0592C233.393 13.1917 233.71 13.3943 233.977 13.6545C234.236 13.9237 234.437 14.2432 234.568 14.5934C234.7 14.9436 234.759 15.3172 234.742 15.6913V40.1892C234.754 40.5585 234.692 40.9263 234.561 41.2713C234.429 41.6163 234.231 41.9313 233.977 42.1981C233.714 42.4658 233.399 42.6751 233.05 42.8126C232.702 42.9501 232.329 43.0127 231.956 42.9964ZM231.956 7.98447C231.482 7.9898 231.012 7.89729 230.575 7.71265C230.138 7.52801 229.744 7.25515 229.415 6.91089C229.074 6.58015 228.803 6.18241 228.62 5.74219C228.437 5.30197 228.345 4.82861 228.35 4.35127C228.345 3.87388 228.436 3.40047 228.62 2.9602C228.803 2.51994 229.074 2.12215 229.415 1.79138C229.744 1.44717 230.138 1.17436 230.575 0.989765C231.012 0.80517 231.482 0.712704 231.956 0.718063C232.43 0.71274 232.899 0.805223 233.336 0.989817C233.773 1.17441 234.168 1.4472 234.496 1.79138C234.838 2.12215 235.109 2.51994 235.292 2.9602C235.475 3.40047 235.567 3.87388 235.562 4.35127C235.567 4.82861 235.475 5.30197 235.292 5.74219C235.109 6.18241 234.838 6.58015 234.496 6.91089C234.168 7.25512 233.773 7.52796 233.336 7.71259C232.899 7.89723 232.43 7.98976 231.956 7.98447ZM257.961 43.2166C254.938 43.2166 252.252 42.5651 249.903 41.2622C247.606 40.0102 245.696 38.1434 244.385 35.8675C243.056 33.5739 242.391 30.9408 242.391 27.9681C242.391 24.9592 243.02 22.3076 244.276 20.0135C245.489 17.7652 247.294 15.8983 249.494 14.6187C251.715 13.3158 254.265 12.6644 257.142 12.6644C259.983 12.6644 262.423 13.2975 264.463 14.5637C266.489 15.8149 268.112 17.6315 269.134 19.7933C270.208 22.0137 270.745 24.5736 270.745 27.4732C270.754 27.7963 270.696 28.1176 270.573 28.4163C270.451 28.715 270.268 28.9844 270.035 29.2071C269.795 29.4366 269.512 29.6156 269.202 29.7337C268.893 29.8519 268.563 29.9068 268.232 29.8954H246.215V25.4904H268.068L265.828 27.0318C265.822 25.3292 265.449 23.6483 264.735 22.1048C264.087 20.7057 263.066 19.5151 261.787 18.6649C260.512 17.8209 258.964 17.3988 257.143 17.3988C255.067 17.3988 253.291 17.8576 251.816 18.775C250.356 19.6758 249.188 20.9862 248.456 22.5457C247.669 24.242 247.276 26.0967 247.308 27.9689C247.275 29.858 247.746 31.7214 248.674 33.3637C249.573 34.9306 250.875 36.2238 252.443 37.107C254.131 38.046 256.034 38.5206 257.961 38.4829C259.145 38.4731 260.318 38.2589 261.431 37.8497C262.453 37.5104 263.42 37.0186 264.298 36.3906C264.81 35.9989 265.431 35.7776 266.074 35.7574C266.682 35.7289 267.278 35.9356 267.74 36.3353C268.018 36.5544 268.249 36.8286 268.418 37.141C268.588 37.4535 268.692 37.7974 268.724 38.1519C268.76 38.8128 268.469 39.3816 267.85 39.8584C266.462 40.9288 264.9 41.7483 263.233 42.2805C261.538 42.8793 259.757 43.1955 257.961 43.2166ZM283.748 42.9964C282.224 43.021 280.732 42.5585 279.486 41.6752C278.217 40.7569 277.217 39.5114 276.591 38.0694C275.872 36.4133 275.518 34.6197 275.553 32.8124V2.7559C275.539 2.39032 275.6 2.02583 275.732 1.68485C275.863 1.34386 276.063 1.03359 276.318 0.773111C276.576 0.516236 276.884 0.315356 277.222 0.182821C277.561 0.0502859 277.923 -0.0111004 278.285 0.00243329C278.648 -0.0111004 279.01 0.0502859 279.348 0.182821C279.687 0.315356 279.995 0.516236 280.253 0.773111C280.508 1.03359 280.708 1.34386 280.839 1.68485C280.971 2.02583 281.032 2.39032 281.018 2.7559V32.8124C281.018 34.1703 281.273 35.2896 281.783 36.1704C282.293 37.0511 282.949 37.4915 283.751 37.4915H285.117C285.451 37.4803 285.783 37.5436 286.09 37.6768C286.397 37.81 286.671 38.0099 286.892 38.2622C287.361 38.8122 287.605 39.5208 287.575 40.245C287.579 40.6363 287.486 41.0223 287.304 41.3684C287.123 41.7145 286.86 42.0098 286.537 42.2278C285.75 42.7699 284.809 43.0396 283.857 42.9964H283.748ZM303.743 43.2166C301.052 43.2561 298.399 42.562 296.067 41.2077C293.817 39.8943 291.951 38.0048 290.659 35.7305C289.312 33.3515 288.623 30.652 288.665 27.9136C288.62 25.2039 289.249 22.5261 290.495 20.1244C291.656 17.8956 293.38 16.0155 295.494 14.6746C297.638 13.326 300.123 12.6285 302.651 12.6657C304.713 12.6457 306.751 13.1073 308.606 14.0142C310.384 14.8791 311.951 16.1288 313.195 17.6741V2.81095C313.178 2.43457 313.24 2.05894 313.377 1.70817C313.513 1.3574 313.721 1.03925 313.987 0.774154C314.251 0.518493 314.564 0.31864 314.906 0.186304C315.249 0.0539676 315.614 -0.00818916 315.98 0.00347629C316.352 -0.013304 316.722 0.0463844 317.07 0.178896C317.417 0.311407 317.735 0.513955 318.002 0.774154C318.26 1.04341 318.461 1.36292 318.593 1.71313C318.724 2.06333 318.783 2.43689 318.767 2.81095V27.9131C318.808 30.6515 318.12 33.351 316.773 35.73C315.486 37.9988 313.63 39.8875 311.392 41.2072C309.07 42.5637 306.426 43.2583 303.743 43.2166ZM303.743 38.2622C305.493 38.2915 307.216 37.8241 308.714 36.9134C310.174 36.0112 311.364 34.727 312.156 33.1975C313.006 31.5692 313.438 29.7524 313.413 27.9128C313.447 26.0723 313.014 24.2534 312.156 22.6282C311.352 21.1222 310.164 19.8589 308.715 18.9681C307.216 18.0574 305.493 17.5899 303.743 17.6193C302.003 17.597 300.29 18.0641 298.798 18.9681C297.333 19.857 296.127 21.1198 295.303 22.6289C294.427 24.2486 293.985 26.0697 294.019 27.9136C293.994 29.7565 294.436 31.5754 295.303 33.1983C296.115 34.7308 297.323 36.0144 298.798 36.9142C300.29 37.8179 302.002 38.2847 303.743 38.2622Z" fill="#08B29B"/>
</svg>
