<svg width="236" height="35" viewBox="0 0 236 35" fill="none" xmlns="http://www.w3.org/2000/svg">
<g clip-path="url(#clip0)">
<path d="M20.6169 33.5507C26.147 33.6161 30.7663 30.9878 34.1111 28.2976C30.3576 30.3884 25.7368 32.0466 20.4499 31.9664C15.4812 31.8912 11.1167 30.2983 7.52594 28.2976C10.8039 30.9336 15.2763 33.4875 20.6169 33.5507Z" fill="#F20000"/>
<path d="M20.6169 33.5507C26.147 33.6161 30.7663 30.9878 34.1111 28.2976C30.3576 30.3884 25.7368 32.0466 20.4499 31.9664C15.4812 31.8912 11.1167 30.2983 7.52594 28.2976C10.8039 30.9336 15.2763 33.4875 20.6169 33.5507Z" fill="#F20000"/>
<path d="M20.6169 34.9986C26.147 35.0819 30.7663 31.7293 34.1111 28.2976C30.3576 30.9646 25.7368 33.0799 20.4499 32.9774C15.4806 32.8808 11.1167 30.8505 7.52594 28.2982C10.8039 31.6603 15.2763 34.9178 20.6169 34.9986Z" fill="#F20000"/>
<path d="M18.8015 10.8923L17.8745 9.95701C17.7263 9.80928 17.5507 9.69249 17.3577 9.61336C17.1647 9.53422 16.9582 9.49429 16.7498 9.49585C16.5431 9.4921 16.3378 9.53107 16.1466 9.61039C15.9554 9.6897 15.7823 9.80766 15.638 9.95701L9.62958 16.0172L3.62171 9.9572C3.47741 9.80785 3.30433 9.68989 3.11311 9.61058C2.9219 9.53127 2.71661 9.49229 2.50989 9.49605C2.30153 9.49446 2.09491 9.53438 1.90189 9.61352C1.70886 9.69265 1.53321 9.80945 1.38503 9.9572L0.469507 10.8925C0.318466 11.0392 0.19886 11.2156 0.11808 11.4108C0.0373007 11.606 -0.00293544 11.8158 -0.000141584 12.0273C-0.00504275 12.2371 0.0342902 12.4456 0.115254 12.6389C0.196218 12.8322 0.316966 13.006 0.469507 13.1488L8.5168 21.2663C8.65831 21.4202 8.8306 21.5419 9.02227 21.6236C9.21393 21.7053 9.42061 21.745 9.62862 21.74C9.83832 21.7429 10.0464 21.7023 10.2399 21.6208C10.4335 21.5393 10.6084 21.4187 10.7539 21.2663L18.8011 13.1492C18.9493 13.0036 19.0663 12.8291 19.145 12.6362C19.2237 12.4433 19.2624 12.2362 19.2587 12.0277C19.2604 11.8174 19.2208 11.6088 19.1424 11.414C19.0639 11.2191 18.9481 11.0418 18.8015 10.8923Z" fill="#0553C8"/>
<path d="M41.2192 19.8503L39.9646 21.1162C39.7641 21.3161 39.5264 21.4742 39.2652 21.5813C39.0039 21.6884 38.7243 21.7425 38.4424 21.7403C38.1624 21.7456 37.8843 21.6929 37.6253 21.5855C37.3663 21.4782 37.1319 21.3184 36.9364 21.1162L28.8052 12.914L20.6741 21.115C20.4787 21.3173 20.2442 21.4771 19.9852 21.5845C19.7262 21.6919 19.4481 21.7446 19.1682 21.7394C18.8861 21.7415 18.6065 21.6874 18.3452 21.5803C18.084 21.4731 17.8463 21.315 17.6457 21.115L16.4076 19.8491C16.2033 19.6506 16.0415 19.412 15.9322 19.1481C15.8229 18.8841 15.7683 18.6003 15.7719 18.3142C15.7652 18.0301 15.8184 17.7478 15.928 17.486C16.0375 17.2242 16.201 16.9889 16.4076 16.7956L27.2994 5.80923C27.4911 5.60085 27.7244 5.43593 27.9841 5.32539C28.2437 5.21486 28.5236 5.16123 28.8054 5.16806C29.0891 5.16436 29.3705 5.21935 29.6323 5.32962C29.8941 5.4399 30.1308 5.60313 30.3276 5.80923L41.2194 16.7956C41.42 16.9927 41.5784 17.2291 41.6849 17.4903C41.7914 17.7514 41.8437 18.0319 41.8386 18.3142C41.8407 18.5988 41.787 18.881 41.6808 19.1445C41.5745 19.4081 41.4176 19.648 41.2192 19.8503Z" fill="#08B29B"/>
<path d="M58.7576 31.9564C58.5582 31.9624 58.3598 31.9272 58.1745 31.8529C57.9892 31.7786 57.8209 31.6669 57.68 31.5246C57.5389 31.3825 57.4282 31.2127 57.3546 31.0258C57.2809 30.8389 57.246 30.6388 57.252 30.4377V17.1869C57.2432 16.9833 57.2767 16.78 57.3504 16.5902C57.4242 16.4004 57.5364 16.2282 57.68 16.0848C57.8231 15.9465 57.9921 15.8384 58.1771 15.7668C58.3622 15.6952 58.5595 15.6616 58.7576 15.6679C58.9582 15.6588 59.1586 15.691 59.3465 15.7627C59.5344 15.8344 59.7058 15.944 59.8502 16.0848C59.9898 16.2305 60.0985 16.4034 60.1695 16.5929C60.2406 16.7824 60.2726 16.9845 60.2635 17.1869V30.4377C60.2698 30.6375 60.2365 30.8366 60.1655 31.0232C60.0945 31.2098 59.9873 31.3803 59.8502 31.5246C59.708 31.6694 59.5373 31.7827 59.3492 31.857C59.161 31.9314 58.9595 31.9652 58.7576 31.9564ZM58.7576 13.0182C58.5016 13.0212 58.2477 12.9712 58.0117 12.8715C57.7756 12.7717 57.5622 12.6242 57.3848 12.4381C57.2003 12.2591 57.0541 12.044 56.9552 11.8058C56.8563 11.5677 56.8068 11.3116 56.8098 11.0535C56.8068 10.7953 56.8563 10.5392 56.9552 10.3011C57.0541 10.0629 57.2003 9.84777 57.3848 9.66882C57.5622 9.4827 57.7756 9.3352 58.0117 9.23544C58.2477 9.13567 58.5016 9.08575 58.7576 9.08875C59.0135 9.08575 59.2674 9.13567 59.5034 9.23544C59.7395 9.3352 59.9529 9.4827 60.1303 9.66882C60.3148 9.84777 60.461 10.0629 60.5599 10.3011C60.6588 10.5392 60.7083 10.7953 60.7053 11.0535C60.7083 11.3116 60.6588 11.5677 60.5599 11.8058C60.461 12.044 60.3148 12.2591 60.1303 12.4381C59.9529 12.6242 59.7395 12.7717 59.5034 12.8715C59.2674 12.9712 59.0135 13.0212 58.7576 13.0182ZM78.8612 31.9861C78.6619 31.9921 78.4635 31.9569 78.2782 31.8827C78.0929 31.8084 77.9246 31.6967 77.7837 31.5544C77.6426 31.4123 77.5318 31.2425 77.4582 31.0556C77.3846 30.8687 77.3497 30.6685 77.3556 30.4675V23.1423C77.3556 22.0108 77.149 21.0877 76.7357 20.3731C76.3507 19.6854 75.7697 19.1304 75.068 18.78C74.3167 18.4209 73.493 18.2425 72.6618 18.2589C71.8852 18.2477 71.1168 18.4211 70.419 18.7651C69.7831 19.0743 69.2348 19.5403 68.8249 20.12C68.4296 20.6913 68.2229 21.3738 68.2345 22.0704H66.3751C66.3561 20.8904 66.6684 19.729 67.276 18.7205C67.8782 17.7357 68.7281 16.9292 69.7393 16.383C70.8183 15.7983 72.0275 15.501 73.2523 15.5194C74.5215 15.4978 75.7756 15.7999 76.8981 16.3979C77.9754 16.9882 78.8579 17.8835 79.4369 18.9736C80.0568 20.1051 80.3668 21.4947 80.3668 23.1423V30.4675C80.3727 30.6685 80.3378 30.8687 80.2642 31.0556C80.1906 31.2425 80.0798 31.4123 79.9387 31.5544C79.7978 31.6967 79.6295 31.8084 79.4442 31.8827C79.2589 31.9569 79.0605 31.9921 78.8612 31.9861ZM66.7282 31.9861C66.5289 31.9921 66.3304 31.9569 66.1451 31.8827C65.9598 31.8084 65.7915 31.6967 65.6507 31.5544C65.5095 31.4123 65.3988 31.2425 65.3252 31.0556C65.2515 30.8687 65.2166 30.6685 65.2226 30.4675V17.1869C65.2138 16.9833 65.2473 16.78 65.321 16.5902C65.3948 16.4004 65.507 16.2282 65.6507 16.0848C65.7937 15.9465 65.9627 15.8384 66.1477 15.7668C66.3328 15.6952 66.5301 15.6616 66.7282 15.6679C66.9288 15.6588 67.1292 15.691 67.3171 15.7627C67.505 15.8344 67.6764 15.944 67.8208 16.0848C67.9604 16.2305 68.0691 16.4034 68.1402 16.5929C68.2112 16.7824 68.2432 16.9845 68.2341 17.1869V30.4675C68.2404 30.6673 68.2071 30.8663 68.1361 31.053C68.0651 31.2396 67.9579 31.4101 67.8208 31.5544C67.6786 31.6992 67.5079 31.8125 67.3198 31.8868C67.1316 31.9612 66.9301 31.995 66.7282 31.9861ZM89.282 31.9266C88.6719 31.9266 88.1996 31.599 87.865 30.9439L81.6066 17.6336C81.5294 17.4801 81.4855 17.3117 81.4778 17.1396C81.4702 16.9676 81.499 16.796 81.5623 16.6361C81.7049 16.2932 81.9753 16.0206 82.3151 15.8768C82.4688 15.7895 82.6391 15.7363 82.8148 15.7209C82.9904 15.7055 83.1673 15.7282 83.3336 15.7874C83.6737 15.9028 83.9548 16.1489 84.1159 16.4723L89.961 29.1871H88.544L94.3301 16.4723C94.4131 16.3092 94.5277 16.1645 94.6672 16.0469C94.8066 15.9292 94.9681 15.841 95.1419 15.7874C95.5081 15.6684 95.9061 15.7005 96.2489 15.8768C96.4127 15.943 96.5606 16.0437 96.6829 16.172C96.8052 16.3004 96.899 16.4535 96.9582 16.6212C97.0168 16.7852 97.0418 16.9595 97.0317 17.1335C97.0215 17.3075 96.9764 17.4777 96.8992 17.6336L90.64 30.9439C90.3448 31.599 89.8921 31.9266 89.282 31.9266ZM106.345 32.0755C104.828 32.1041 103.328 31.7402 101.99 31.0184C100.749 30.3411 99.7173 29.3313 99.0087 28.1002C98.2749 26.7996 97.9026 25.3233 97.9312 23.827C97.9001 22.3282 98.2509 20.8464 98.9501 19.5235C99.6053 18.3073 100.581 17.2975 101.769 16.6053C103.028 15.8854 104.456 15.5202 105.902 15.5482C107.437 15.5482 108.756 15.8907 109.858 16.5755C110.953 17.2523 111.83 18.235 112.382 19.4044C112.984 20.7035 113.282 22.1246 113.253 23.5583C113.258 23.733 113.226 23.9068 113.16 24.0684C113.094 24.23 112.995 24.3757 112.87 24.4962C112.74 24.6203 112.587 24.7172 112.419 24.7811C112.252 24.845 112.074 24.8747 111.895 24.8684H99.9981V22.4863H111.806L110.596 23.32C110.592 22.3991 110.391 21.4899 110.006 20.655C109.655 19.898 109.103 19.2538 108.411 18.7939C107.661 18.3199 106.787 18.0815 105.902 18.1091C104.893 18.0794 103.895 18.3374 103.024 18.8535C102.235 19.3407 101.604 20.0496 101.208 20.8932C100.783 21.8107 100.571 22.8138 100.588 23.8263C100.571 24.8481 100.826 25.856 101.327 26.7444C101.812 27.592 102.516 28.2915 103.363 28.7692C104.275 29.2772 105.304 29.534 106.345 29.5137C106.985 29.5083 107.619 29.3925 108.22 29.1712C108.772 28.9878 109.295 28.7218 109.769 28.3821C110.046 28.1703 110.382 28.0506 110.729 28.0397C111.058 28.0242 111.38 28.136 111.63 28.3524C111.78 28.471 111.905 28.6193 111.996 28.7883C112.088 28.9573 112.144 29.1433 112.161 29.335C112.168 29.5169 112.128 29.6974 112.045 29.8592C111.963 30.0209 111.84 30.1583 111.689 30.2581C110.939 30.8376 110.094 31.2814 109.194 31.5696C108.278 31.8934 107.315 32.0643 106.345 32.0755ZM122.315 32.0755C121.014 32.0884 119.72 31.8717 118.492 31.4353C117.321 31.0084 116.411 30.4675 115.762 29.8124C115.622 29.672 115.515 29.5009 115.451 29.3124C115.387 29.1239 115.367 28.9231 115.393 28.7255C115.415 28.5281 115.477 28.3375 115.576 28.1658C115.675 27.9941 115.809 27.845 115.968 27.728C116.124 27.5836 116.309 27.4733 116.509 27.4041C116.71 27.335 116.923 27.3084 117.134 27.326C117.515 27.3742 117.866 27.5592 118.123 27.8471C118.457 28.2243 118.994 28.5767 119.732 28.9042C120.511 29.2401 121.351 29.4075 122.198 29.3955C123.339 29.3955 124.21 29.2069 124.81 28.8298C125.411 28.4526 125.72 27.9662 125.74 27.3707C125.76 26.7751 125.479 26.259 124.899 25.8223C124.318 25.3855 123.26 25.0282 121.725 24.7503C119.738 24.3533 118.296 23.7577 117.401 22.9637C116.975 22.6088 116.634 22.1626 116.402 21.6578C116.17 21.1529 116.052 20.6021 116.057 20.0455C116.025 19.1238 116.342 18.2242 116.943 17.5294C117.562 16.8453 118.345 16.3327 119.216 16.0405C120.146 15.7122 121.124 15.546 122.109 15.5492C123.29 15.5273 124.464 15.7398 125.563 16.1745C126.492 16.537 127.315 17.1312 127.954 17.9016C128.081 18.0335 128.18 18.1898 128.246 18.3611C128.312 18.5325 128.343 18.7154 128.338 18.8991C128.326 19.0744 128.274 19.2447 128.188 19.3969C128.101 19.5492 127.98 19.6794 127.836 19.7775C127.673 19.8871 127.489 19.9621 127.296 19.9979C127.103 20.0337 126.905 20.0297 126.714 19.986C126.306 19.9189 125.926 19.7325 125.621 19.45C125.174 19.0008 124.628 18.6641 124.027 18.4674C123.385 18.2787 122.718 18.1883 122.049 18.1994C121.292 18.1765 120.54 18.3293 119.85 18.646C119.249 18.9438 118.949 19.3805 118.949 19.9562C118.945 20.2997 119.043 20.6367 119.23 20.924C119.416 21.2118 119.785 21.4696 120.337 21.6974C121.122 21.9923 121.932 22.2165 122.757 22.3674C124.233 22.6651 125.399 23.0423 126.255 23.4989C127.112 23.9555 127.727 24.4866 128.102 25.0922C128.483 25.7239 128.678 26.4521 128.663 27.1914C128.673 28.0698 128.421 28.931 127.939 29.6629C127.409 30.4383 126.672 31.0472 125.814 31.4198C124.879 31.8569 123.713 32.0755 122.316 32.0755H122.315ZM137.696 31.9564C136.756 31.969 135.833 31.7051 135.039 31.197C134.248 30.6864 133.606 29.9722 133.18 29.1281C132.718 28.2162 132.485 27.204 132.501 26.1802V11.9765C132.494 11.7789 132.527 11.5818 132.598 11.3975C132.669 11.2131 132.776 11.0454 132.914 10.9046C133.054 10.7656 133.22 10.657 133.403 10.5853C133.586 10.5136 133.781 10.4804 133.977 10.4877C134.173 10.4804 134.368 10.5136 134.551 10.5853C134.734 10.657 134.9 10.7656 135.04 10.9046C135.177 11.0454 135.285 11.2131 135.356 11.3975C135.427 11.5818 135.46 11.7789 135.453 11.9765V26.1802C135.429 26.9017 135.659 27.6085 136.102 28.1752C136.288 28.4252 136.528 28.628 136.805 28.7675C137.082 28.907 137.387 28.9793 137.696 28.9786H138.7C138.871 28.9768 139.041 29.0133 139.197 29.0853C139.352 29.1574 139.49 29.2633 139.601 29.3955C139.854 29.693 139.985 30.076 139.969 30.4675C139.974 30.6718 139.933 30.8746 139.849 31.0603C139.764 31.2461 139.639 31.41 139.482 31.5395C139.128 31.8276 138.682 31.9758 138.227 31.9564H137.696ZM131.142 18.8247C130.775 18.8412 130.415 18.7131 130.139 18.4674C130.015 18.3551 129.916 18.2172 129.85 18.063C129.784 17.9088 129.752 17.742 129.755 17.574C129.748 17.3968 129.778 17.2199 129.844 17.0554C129.91 16.891 130.011 16.7429 130.139 16.6212C130.415 16.3754 130.775 16.2473 131.142 16.2639H137.962C138.33 16.2473 138.689 16.3754 138.965 16.6212C139.094 16.7429 139.194 16.891 139.26 17.0554C139.326 17.2199 139.357 17.3968 139.349 17.574C139.353 17.742 139.32 17.9088 139.254 18.063C139.188 18.2172 139.089 18.3551 138.965 18.4674C138.689 18.7131 138.33 18.8412 137.962 18.8247H131.142Z" fill="#0553C8"/>
<path d="M58.7088 13.5349C59.9792 13.5349 61.0091 12.496 61.0091 11.2146C61.0091 9.93312 59.9792 8.89429 58.7088 8.89429C57.4383 8.89429 56.4084 9.93312 56.4084 11.2146C56.4084 12.496 57.4383 13.5349 58.7088 13.5349Z" fill="#F20000"/>
<path d="M152.921 31.8634C152.65 31.8673 152.38 31.8149 152.13 31.7097C151.879 31.6044 151.653 31.4485 151.464 31.2515C151.266 31.055 151.11 30.8197 151.006 30.5601C150.902 30.3004 150.851 30.022 150.858 29.7419V20.2359L140.059 3.30456C139.708 2.73338 139.574 2.19617 139.654 1.69293C139.725 1.20801 139.978 0.769381 140.362 0.468975C140.746 0.158633 141.225 -0.007216 141.717 -0.000109148C142.105 -0.0210732 142.489 0.0863481 142.81 0.305782C143.116 0.550097 143.376 0.847035 143.579 1.18285L153.851 17.6248H152.234L162.669 1.01985C162.865 0.712922 163.128 0.455046 163.437 0.265757C163.771 0.079536 164.149 -0.0120681 164.53 0.000663856C164.756 -0.00506749 164.982 0.0373749 165.191 0.125227C165.4 0.213079 165.588 0.344371 165.743 0.510549C166.069 0.855036 166.269 1.30109 166.31 1.7753C166.354 2.31705 166.211 2.85754 165.905 3.30514L155.024 20.2359V29.7419C155.031 30.022 154.98 30.3004 154.876 30.5601C154.772 30.8197 154.616 31.055 154.418 31.2515C154.223 31.4512 153.99 31.6085 153.732 31.7137C153.475 31.819 153.199 31.8699 152.921 31.8634ZM171.729 31.8634C171.456 31.8716 171.184 31.8234 170.93 31.7216C170.677 31.6198 170.446 31.4668 170.253 31.2718C170.06 31.0771 169.908 30.8446 169.807 30.5885C169.706 30.3325 169.659 30.0583 169.667 29.7829V11.6267C169.655 11.3477 169.701 11.0693 169.802 10.8094C169.903 10.5494 170.056 10.3136 170.253 10.1171C170.449 9.92764 170.681 9.77952 170.934 9.68144C171.187 9.58337 171.458 9.5373 171.729 9.54594C172.004 9.53351 172.278 9.57775 172.536 9.67595C172.793 9.77416 173.028 9.92428 173.226 10.1171C173.417 10.3167 173.566 10.5535 173.663 10.813C173.76 11.0726 173.804 11.3494 173.792 11.6267V29.7829C173.8 30.0566 173.755 30.3293 173.658 30.5849C173.56 30.8406 173.414 31.0741 173.226 31.2718C173.031 31.4702 172.797 31.6253 172.539 31.7272C172.282 31.8291 172.006 31.8755 171.729 31.8634ZM171.729 5.91489C171.378 5.91883 171.03 5.85027 170.707 5.71343C170.384 5.57658 170.091 5.37436 169.848 5.11922C169.595 4.87409 169.395 4.57931 169.259 4.25305C169.123 3.92679 169.056 3.57596 169.059 3.22219C169.055 2.86838 169.123 2.51752 169.259 2.19122C169.395 1.86493 169.595 1.57012 169.848 1.32497C170.091 1.06986 170.384 0.867674 170.707 0.730864C171.031 0.594054 171.378 0.525524 171.729 0.529496C172.08 0.525551 172.428 0.594094 172.751 0.730902C173.075 0.867711 173.367 1.06989 173.61 1.32497C173.863 1.57012 174.063 1.86493 174.199 2.19122C174.335 2.51752 174.403 2.86838 174.399 3.22219C174.403 3.57596 174.335 3.92679 174.199 4.25305C174.063 4.57931 173.863 4.87409 173.61 5.11922C173.367 5.37434 173.075 5.57655 172.751 5.71339C172.428 5.85023 172.08 5.91881 171.729 5.91489ZM190.982 32.0266C188.744 32.0266 186.755 31.5438 185.016 30.5782C183.315 29.6503 181.902 28.2667 180.931 26.58C179.947 24.8801 179.455 22.9286 179.455 20.7255C179.455 18.4954 179.92 16.5303 180.85 14.83C181.748 13.1637 183.085 11.7801 184.713 10.8318C186.358 9.86614 188.245 9.38333 190.376 9.38333C192.479 9.38333 194.286 9.85254 195.796 10.791C197.296 11.7183 198.497 13.0646 199.254 14.6668C200.049 16.3124 200.447 18.2097 200.447 20.3587C200.453 20.5981 200.41 20.8362 200.319 21.0576C200.229 21.279 200.093 21.4787 199.921 21.6437C199.743 21.8138 199.534 21.9465 199.304 22.034C199.075 22.1216 198.831 22.1623 198.586 22.1538H182.286V18.8892H198.465L196.806 20.0315C196.802 18.7697 196.526 17.5239 195.997 16.38C195.517 15.343 194.762 14.4606 193.814 13.8305C192.871 13.205 191.725 12.8922 190.376 12.8922C188.839 12.8922 187.525 13.2322 186.433 13.9121C185.352 14.5797 184.487 15.5509 183.945 16.7067C183.362 17.9639 183.072 19.3385 183.095 20.7261C183.07 22.1262 183.42 23.5071 184.106 24.7243C184.772 25.8856 185.736 26.8441 186.897 27.4986C188.146 28.1946 189.555 28.5463 190.982 28.5184C191.859 28.5111 192.727 28.3524 193.551 28.0491C194.308 27.7976 195.024 27.4331 195.674 26.9676C196.053 26.6773 196.512 26.5133 196.988 26.4984C197.439 26.4773 197.88 26.6305 198.222 26.9266C198.428 27.0891 198.599 27.2923 198.724 27.5238C198.849 27.7554 198.926 28.0103 198.95 28.273C198.977 28.7628 198.762 29.1844 198.303 29.5377C197.275 30.3311 196.119 30.9384 194.885 31.3329C193.63 31.7767 192.312 32.011 190.982 32.0266ZM210.073 31.8634C208.945 31.8817 207.841 31.5389 206.918 30.8843C205.979 30.2037 205.238 29.2806 204.775 28.2119C204.242 26.9845 203.98 25.6552 204.006 24.3157V2.03981C203.996 1.76886 204.041 1.49873 204.139 1.24601C204.236 0.993298 204.384 0.763346 204.572 0.570294C204.764 0.379915 204.992 0.231035 205.242 0.132809C205.493 0.0345831 205.761 -0.0109124 206.029 -0.000882153C206.298 -0.0109124 206.566 0.0345831 206.816 0.132809C207.067 0.231035 207.295 0.379915 207.486 0.570294C207.675 0.763346 207.822 0.993298 207.92 1.24601C208.017 1.49873 208.062 1.76886 208.052 2.03981V24.3157C208.052 25.3221 208.241 26.1517 208.619 26.8044C208.996 27.4572 209.482 27.7836 210.075 27.7836H211.087C211.334 27.7753 211.58 27.8222 211.807 27.9209C212.034 28.0197 212.237 28.1678 212.401 28.3548C212.748 28.7624 212.929 29.2876 212.907 29.8243C212.909 30.1143 212.841 30.4004 212.706 30.6569C212.572 30.9134 212.377 31.1323 212.138 31.2938C211.556 31.6956 210.859 31.8955 210.154 31.8634H210.073ZM224.877 32.0266C222.884 32.0559 220.921 31.5415 219.194 30.5378C217.528 29.5644 216.146 28.164 215.19 26.4784C214.193 24.7153 213.683 22.7146 213.714 20.6851C213.68 18.6768 214.146 16.6922 215.069 14.9122C215.928 13.2604 217.205 11.867 218.77 10.8731C220.357 9.87367 222.197 9.35677 224.068 9.3843C225.595 9.36952 227.104 9.71162 228.477 10.3838C229.794 11.0248 230.953 11.9509 231.874 13.0962V2.08061C231.862 1.80166 231.908 1.52327 232.009 1.2633C232.11 1.00333 232.264 0.767541 232.461 0.571067C232.657 0.381588 232.888 0.23347 233.142 0.135391C233.395 0.0373117 233.665 -0.00875482 233.937 -0.000109148C234.212 -0.0125456 234.486 0.0316915 234.743 0.1299C235.001 0.228109 235.235 0.378224 235.433 0.571067C235.624 0.770625 235.773 1.00742 235.871 1.26697C235.968 1.52652 236.012 1.80338 235.999 2.08061V20.6847C236.03 22.7142 235.52 24.7149 234.523 26.4781C233.571 28.1596 232.197 29.5594 230.539 30.5374C228.821 31.5428 226.863 32.0576 224.877 32.0266ZM224.877 28.3548C226.172 28.3765 227.448 28.0301 228.557 27.3551C229.638 26.6865 230.519 25.7347 231.106 24.6011C231.735 23.3943 232.055 22.0479 232.036 20.6845C232.061 19.3204 231.741 17.9723 231.106 16.7678C230.51 15.6517 229.63 14.7155 228.558 14.0552C227.448 13.3803 226.173 13.0338 224.877 13.0556C223.588 13.0391 222.32 13.3852 221.216 14.0552C220.131 14.714 219.239 15.65 218.628 16.7684C217.98 17.9688 217.652 19.3185 217.677 20.6851C217.659 22.0509 217.986 23.3989 218.628 24.6017C219.23 25.7375 220.124 26.6888 221.216 27.3557C222.32 28.0255 223.588 28.3714 224.877 28.3548Z" fill="#08B29B"/>
</g>
<defs>
<clipPath id="clip0">
<rect width="236" height="35" fill="white"/>
</clipPath>
</defs>
</svg>
