<svg width="39" height="39" viewBox="0 0 39 39" fill="none" xmlns="http://www.w3.org/2000/svg">
<g clip-path="url(#clip0)">
<path d="M17.9199 13.0672C18.0962 13.0672 18.2724 13.0208 18.4331 12.928L22.895 10.3519C23.2163 10.1663 23.4082 9.83413 23.4082 9.46302C23.4082 9.09191 23.2163 8.75972 22.895 8.57417L18.4331 5.99811C18.1118 5.81248 17.7281 5.81248 17.4067 5.99811C17.0854 6.18359 16.8936 6.51585 16.8936 6.88688V12.0391C16.8936 12.4101 17.0854 12.7424 17.4067 12.9279C17.5674 13.0209 17.7436 13.0672 17.9199 13.0672ZM18.0339 7.08455L22.1538 9.46309L18.0339 11.8417V7.08455Z" fill="url(#paint0_linear)"/>
<path d="M23.6259 17.0849C24.0299 17.0849 24.3573 16.7574 24.3573 16.3535C24.3573 15.9495 24.0299 15.6221 23.6259 15.6221C23.222 15.6221 22.8945 15.9495 22.8945 16.3535C22.8945 16.7574 23.222 17.0849 23.6259 17.0849Z" fill="url(#paint1_linear)"/>
<path d="M26.7604 17.8912C27.1591 17.8266 27.4299 17.451 27.3653 17.0523C27.3006 16.6536 26.925 16.3828 26.5263 16.4474C26.1276 16.5121 25.8568 16.8877 25.9215 17.2863C25.9861 17.685 26.3617 17.9558 26.7604 17.8912Z" fill="url(#paint2_linear)"/>
<path d="M36.9095 1.98926H6.46517C6.15027 1.98926 5.89502 2.24451 5.89502 2.5594C5.89502 2.8743 6.15027 3.12955 6.46517 3.12955H36.9095C37.4335 3.12955 37.8599 3.55581 37.8599 4.07987V12.829C37.8599 13.144 38.1151 13.3992 38.43 13.3992C38.7449 13.3992 39.0002 13.1439 39.0002 12.829V4.07987C39.0002 2.92716 38.0623 1.98926 36.9095 1.98926Z" fill="url(#paint3_linear)"/>
<path d="M38.4299 15.2448C38.115 15.2448 37.8597 15.5001 37.8597 15.815V22.0255H35.9771L36.1793 20.3501C36.2226 19.9912 36.1317 19.631 35.9298 19.3358C36.1701 18.8744 36.2708 18.3492 36.2145 17.8211C36.0832 16.5877 35.0915 15.599 33.8564 15.4703C33.7722 15.4615 33.688 15.4568 33.6039 15.4558C33.6142 15.3606 33.6194 15.2645 33.6194 15.1681C33.6194 13.7973 32.5749 12.6659 31.2376 12.5278C30.9407 11.2355 29.7381 10.3567 28.3819 10.492C27.1946 10.6105 26.2293 11.5157 26.0344 12.6933C26.0184 12.79 26.0077 12.8871 26.0023 12.9843C25.9491 12.9811 25.8958 12.9796 25.8425 12.9796C25.1779 12.9796 24.5457 13.2264 24.0603 13.6666C23.5749 13.2264 22.9427 12.9796 22.2781 12.9796C20.8661 12.9796 19.7081 14.0876 19.628 15.4799C19.3054 15.5507 18.998 15.6815 18.7229 15.8641H11.7775C11.526 14.9343 10.6755 14.2481 9.6672 14.2481C8.65891 14.2481 7.8083 14.9343 7.55686 15.8641H5.93935C5.62445 15.8641 5.3692 16.1194 5.3692 16.4343C5.3692 16.7492 5.62445 17.0044 5.93935 17.0044H7.55671C7.80823 17.9342 8.65884 18.6205 9.66705 18.6205C10.6753 18.6205 11.5259 17.9342 11.7774 17.0044H17.7623C17.5933 17.3879 17.5171 17.8093 17.5444 18.2435C17.5681 18.6192 17.6739 18.9846 17.8513 19.3166C17.6403 19.6152 17.5454 19.9836 17.5897 20.3501L17.7918 22.0255H1.14037V4.07987C1.14037 3.55588 1.56663 3.12955 2.09069 3.12955H3.60879C3.92369 3.12955 4.17894 2.8743 4.17894 2.5594C4.17894 2.24451 3.92369 1.98926 3.60879 1.98926H2.09069C0.937828 1.98926 0 2.92716 0 4.07987V26.1602C0 27.313 0.937828 28.2508 2.09061 28.2508H14.5886V32.7069H12.8673C12.5524 32.7069 12.2972 32.9622 12.2972 33.2771C12.2972 33.5921 12.5524 33.8472 12.8673 33.8472H19.2186L19.4429 35.7061C19.5327 36.4499 20.1654 37.0109 20.9147 37.0109H32.8543C33.6036 37.0109 34.2363 36.4499 34.3261 35.7061L35.2258 28.2508H36.9095C38.0622 28.2508 39.0001 27.3129 39.0001 26.1602V15.8151C39 15.5001 38.7448 15.2448 38.4299 15.2448ZM20.192 16.5588C20.5458 16.5881 20.8559 16.2416 20.7863 15.8926C20.6193 14.98 21.3501 14.1112 22.2779 14.1199C22.7271 14.1199 23.1504 14.3177 23.4392 14.6623C23.7429 15.044 24.3773 15.0439 24.681 14.6624C25.0363 14.2323 25.622 14.0336 26.1655 14.1544C26.6858 14.2817 27.212 13.8124 27.1455 13.281C27.0518 12.4754 27.6888 11.6997 28.4949 11.6268C29.3237 11.5436 30.0535 12.1235 30.1546 12.9457C30.2043 13.3497 30.5513 13.6541 30.9639 13.6541H30.9649C31.7999 13.6541 32.4791 14.3333 32.4791 15.1682C32.4791 15.3121 32.4589 15.4543 32.4192 15.591C32.2405 16.1389 32.7588 16.7295 33.3252 16.6168C34.1622 16.4638 35.0011 17.0938 35.0805 17.9419C35.109 18.2094 35.0666 18.4744 34.9624 18.7142C34.8787 18.6995 34.7937 18.6901 34.7075 18.6901H19.0615C18.9808 18.6901 18.9013 18.6987 18.8227 18.7116C18.7426 18.5417 18.6943 18.3589 18.6825 18.172C18.6559 17.7478 18.8004 17.3446 19.0895 17.0367C19.3789 16.7285 19.7709 16.5588 20.192 16.5588ZM29.9093 35.8706L30.1085 30.022C30.217 29.9561 30.323 29.8873 30.4249 29.8142C31.0473 29.3681 31.4966 28.8242 31.7506 28.2253L31.2381 35.8706H29.9093ZM22.5308 35.8706L22.0184 28.2254C22.2724 28.8242 22.7218 29.3681 23.3441 29.8142C23.446 29.8873 23.552 29.9561 23.6606 30.022L23.8597 35.8706H22.5308ZM26.8845 29.7333C24.6971 29.7333 22.9174 28.5301 22.9174 27.051C22.9174 25.572 24.6971 24.3687 26.8845 24.3687C29.0719 24.3687 30.8515 25.572 30.8515 27.051C30.8515 28.5301 29.0719 29.7333 26.8845 29.7333ZM27.4546 23.2525V19.8304H29.3145L29.185 23.6335C28.6469 23.4316 28.0623 23.3024 27.4546 23.2525ZM26.3143 23.2525C25.7066 23.3024 25.1222 23.4316 24.584 23.6335L24.4545 19.8304H26.3144V23.2525H26.3143ZM23.3134 19.8304L23.4625 24.2068C23.4228 24.2335 23.3827 24.2599 23.344 24.2877C22.5932 24.826 22.0937 25.5062 21.8862 26.254L21.4556 19.8304H23.3134ZM24.8195 30.551C25.2911 30.7058 25.7942 30.8068 26.3143 30.8495V35.8706H25.0006L24.8195 30.551ZM27.4546 30.8495C27.9747 30.8068 28.4778 30.7059 28.9495 30.551L28.7684 35.8706H27.4546V30.8495ZM31.8828 26.2542C31.6754 25.5063 31.1758 24.826 30.4249 24.2877C30.3863 24.26 30.3462 24.2336 30.3065 24.2068L30.4555 19.8305H32.3133L31.8828 26.2542ZM9.66705 17.4802C9.09035 17.4802 8.62113 17.011 8.62113 16.4343C8.62113 15.8576 9.09035 15.3883 9.66705 15.3883C10.2437 15.3883 10.713 15.8576 10.713 16.4343C10.713 17.011 10.2437 17.4802 9.66705 17.4802ZM1.14037 26.1603V23.166H17.9296L18.4056 27.1106H2.09061C1.56663 27.1105 1.14037 26.6843 1.14037 26.1603ZM15.729 32.707V28.2509H18.5432L19.081 32.707H15.729ZM20.5751 35.5696L18.7219 20.2136C18.7058 20.0806 18.7675 19.9887 18.8056 19.9456C18.8437 19.9026 18.9277 19.8304 19.0616 19.8304H20.3128L21.3879 35.8706H20.9148C20.7418 35.8706 20.5957 35.7412 20.5751 35.5696ZM33.194 35.5696C33.1732 35.7412 33.0272 35.8706 32.8543 35.8706H32.3812L33.4564 19.8304H34.7075C34.8414 19.8304 34.9253 19.9025 34.9634 19.9456C35.0016 19.9886 35.0631 20.0806 35.0471 20.2136L33.194 35.5696ZM36.9094 27.1105H35.3634L35.8395 23.1659H37.8597V26.1602C37.8596 26.6843 37.4334 27.1105 36.9094 27.1105Z" fill="url(#paint4_linear)"/>
</g>
<defs>
<linearGradient id="paint0_linear" x1="20.1509" y1="5.85889" x2="20.1509" y2="13.0672" gradientUnits="userSpaceOnUse">
<stop stop-color="#EA940B"/>
<stop offset="1" stop-color="#B80909"/>
</linearGradient>
<linearGradient id="paint1_linear" x1="23.6259" y1="15.6221" x2="23.6259" y2="17.0849" gradientUnits="userSpaceOnUse">
<stop stop-color="#EA940B"/>
<stop offset="1" stop-color="#B80909"/>
</linearGradient>
<linearGradient id="paint2_linear" x1="26.5263" y1="16.4474" x2="26.7604" y2="17.8912" gradientUnits="userSpaceOnUse">
<stop stop-color="#EA940B"/>
<stop offset="1" stop-color="#B80909"/>
</linearGradient>
<linearGradient id="paint3_linear" x1="22.4476" y1="1.98926" x2="22.4476" y2="13.3992" gradientUnits="userSpaceOnUse">
<stop stop-color="#EA940B"/>
<stop offset="1" stop-color="#B80909"/>
</linearGradient>
<linearGradient id="paint4_linear" x1="19.5" y1="1.98926" x2="19.5" y2="37.0109" gradientUnits="userSpaceOnUse">
<stop stop-color="#EA940B"/>
<stop offset="1" stop-color="#B80909"/>
</linearGradient>
<clipPath id="clip0">
<rect width="39" height="39" fill="white"/>
</clipPath>
</defs>
</svg>
