<svg width="40" height="31" viewBox="0 0 40 31" fill="none" xmlns="http://www.w3.org/2000/svg">
<path d="M38.0069 10.9864L36.1921 10.7591C35.6404 9.40931 34.8477 8.16072 33.8626 7.0804L35.1969 1.42776C35.2517 1.19542 35.1974 0.950807 35.0492 0.76362C34.9011 0.576433 34.6756 0.467214 34.4369 0.467058L34.2662 0.46698C34.2652 0.46698 34.2645 0.46698 34.2634 0.46698C32.0485 0.46698 30.0524 1.86057 29.2672 3.90463C28.7119 3.68393 28.141 3.50213 27.5589 3.3644C27.1389 3.2651 26.7181 3.52487 26.6188 3.94486C26.5195 4.36479 26.7793 4.78564 27.1992 4.88494C29.1879 5.35533 30.9619 6.36095 32.3602 7.7565C32.4113 7.83134 32.4749 7.89759 32.5498 7.95118C33.5691 9.02103 34.3748 10.3046 34.8974 11.7431C34.9975 12.0187 35.2437 12.2151 35.5346 12.2515L37.8129 12.5367C38.1691 12.5813 38.4376 12.8856 38.4376 13.2445V17.1834C38.4376 17.5423 38.169 17.8466 37.8129 17.8912L35.7017 18.1555C35.3981 18.1934 35.1445 18.4052 35.0531 18.6973C34.4268 20.6985 33.2368 22.4681 31.6116 23.8147C31.4324 23.9631 31.3288 24.1837 31.3288 24.4162V28.7345C31.3288 29.1221 31.0135 29.4374 30.626 29.4374H26.0942C25.7066 29.4374 25.3913 29.1221 25.3913 28.7345V27.0887C25.3913 26.6572 25.0414 26.3075 24.61 26.3075H18.0464C17.615 26.3075 17.2652 26.6572 17.2652 27.0887V28.7345C17.2652 29.1221 16.9499 29.4374 16.5623 29.4374H12.0304C11.6429 29.4374 11.3276 29.1221 11.3276 28.7345V25.6854C11.3276 25.3989 11.1708 25.1354 10.9191 24.9988C7.41272 23.0951 5.23436 19.4364 5.23436 15.4506C5.23436 9.46407 10.1047 4.59369 16.0913 4.59369H17.0703C17.5017 4.59369 17.8515 4.24393 17.8515 3.81244C17.8515 3.38096 17.5017 3.03119 17.0703 3.03119H16.0913C10.2919 3.03119 5.40874 7.02704 4.04898 12.4101H3.47656C2.42109 12.4101 1.5625 11.5514 1.5625 10.496C1.5625 9.44064 2.42109 8.58196 3.47656 8.58196C3.90796 8.58196 4.2578 8.2322 4.2578 7.80072C4.2578 7.36923 3.90796 7.01947 3.47656 7.01947C1.55961 7.01947 0 8.579 0 10.496C0 12.4131 1.55961 13.9726 3.47656 13.9726H3.76023C3.70241 14.4574 3.67187 14.9505 3.67187 15.4506C3.67187 19.8529 5.99483 23.9062 9.76506 26.1402V28.7346C9.76506 29.9837 10.7813 31 12.0304 31H16.5622C17.8113 31 18.8275 29.9837 18.8275 28.7346V27.8701H23.8286V28.7346C23.8286 29.9837 24.8449 31 26.094 31H30.6258C31.8749 31 32.8911 29.9837 32.8911 28.7346V24.7765C34.4774 23.3814 35.6744 21.6216 36.3828 19.6449L38.0068 19.4416C39.143 19.2994 39.9999 18.3285 39.9999 17.1834V13.2445C39.9999 12.0995 39.1431 11.1286 38.0069 10.9864ZM32.5506 5.8372C31.9677 5.36049 31.3435 4.93814 30.687 4.57549C31.1186 3.33526 32.1714 2.41244 33.427 2.12432L32.5506 5.8372Z" fill="#0553C8"/>
</svg>
