<svg width="10" height="10" viewBox="0 0 10 10" fill="none" xmlns="http://www.w3.org/2000/svg">
<path d="M7.5 3.3335C8.19036 3.3335 8.75 2.77385 8.75 2.0835C8.75 1.39314 8.19036 0.833496 7.5 0.833496C6.80964 0.833496 6.25 1.39314 6.25 2.0835C6.25 2.77385 6.80964 3.3335 7.5 3.3335Z" stroke="#707070" stroke-width="0.8" stroke-linecap="round" stroke-linejoin="round"/>
<path d="M2.5 6.25C3.19036 6.25 3.75 5.69036 3.75 5C3.75 4.30964 3.19036 3.75 2.5 3.75C1.80964 3.75 1.25 4.30964 1.25 5C1.25 5.69036 1.80964 6.25 2.5 6.25Z" stroke="#707070" stroke-width="0.8" stroke-linecap="round" stroke-linejoin="round"/>
<path d="M7.5 9.1665C8.19036 9.1665 8.75 8.60686 8.75 7.9165C8.75 7.22615 8.19036 6.6665 7.5 6.6665C6.80964 6.6665 6.25 7.22615 6.25 7.9165C6.25 8.60686 6.80964 9.1665 7.5 9.1665Z" stroke="#707070" stroke-width="0.8" stroke-linecap="round" stroke-linejoin="round"/>
<path d="M3.5791 5.62939L6.42493 7.28773" stroke="#707070" stroke-width="0.8" stroke-linecap="round" stroke-linejoin="round"/>
<path d="M6.42077 2.7124L3.5791 4.37074" stroke="#707070" stroke-width="0.8" stroke-linecap="round" stroke-linejoin="round"/>
</svg>
