<svg width="38" height="38" viewBox="0 0 38 38" fill="none" xmlns="http://www.w3.org/2000/svg">
<path d="M4.75 28.5V19C4.75 15.2207 6.25133 11.5961 8.92373 8.92373C11.5961 6.25134 15.2207 4.75 19 4.75C22.7793 4.75 26.4039 6.25134 29.0763 8.92373C31.7487 11.5961 33.25 15.2207 33.25 19V28.5" stroke="#08B29B" stroke-width="2" stroke-linecap="round" stroke-linejoin="round"/>
<path d="M33.25 30.0846C33.25 30.9245 32.9164 31.7299 32.3225 32.3238C31.7286 32.9177 30.9232 33.2513 30.0833 33.2513H28.5C27.6601 33.2513 26.8547 32.9177 26.2608 32.3238C25.667 31.7299 25.3333 30.9245 25.3333 30.0846V25.3346C25.3333 24.4948 25.667 23.6893 26.2608 23.0955C26.8547 22.5016 27.6601 22.168 28.5 22.168H33.25V30.0846ZM4.75 30.0846C4.75 30.9245 5.08363 31.7299 5.6775 32.3238C6.27136 32.9177 7.07681 33.2513 7.91667 33.2513H9.5C10.3399 33.2513 11.1453 32.9177 11.7392 32.3238C12.333 31.7299 12.6667 30.9245 12.6667 30.0846V25.3346C12.6667 24.4948 12.333 23.6893 11.7392 23.0955C11.1453 22.5016 10.3399 22.168 9.5 22.168H4.75V30.0846Z" stroke="#08B29B" stroke-width="2" stroke-linecap="round" stroke-linejoin="round"/>
</svg>
