<svg width="40" height="40" viewBox="0 0 40 40" fill="none" xmlns="http://www.w3.org/2000/svg">
<g clip-path="url(#clip0)">
<path d="M31.3718 29.7164C32.7579 29.3459 33.9162 28.4587 34.6335 27.2185C35.3508 25.9786 35.5413 24.5339 35.1698 23.1508L30.7505 6.68901C30.6967 6.48881 30.5655 6.31822 30.3857 6.21446C30.2059 6.11101 29.9925 6.08293 29.7919 6.13634L20.9272 8.50694C20.7266 8.56065 20.5557 8.69157 20.4521 8.87102C20.3481 9.05046 20.32 9.26378 20.3738 9.46367L24.7934 25.9258C25.1646 27.3088 26.0535 28.4648 27.2962 29.1808C28.1236 29.6578 29.0421 29.9013 29.9729 29.9013C30.4395 29.9013 30.9092 29.84 31.3718 29.7164ZM29.4409 7.84776L30.8728 13.1813L23.5205 15.1476L22.0885 9.81401L29.4409 7.84776ZM26.3055 25.5214L23.9256 16.6567L31.2779 14.6904L33.6578 23.5552C33.9207 24.5351 33.7859 25.5586 33.2777 26.4375C32.7695 27.3161 31.9485 27.9448 30.9667 28.2073C29.9845 28.4697 28.9593 28.3351 28.0786 27.8279C27.1983 27.3204 26.5687 26.5013 26.3055 25.5214Z" fill="url(#paint0_linear)"/>
<path d="M31.3048 30.9745C31.1592 31.1201 31.0754 31.3215 31.0754 31.5269C31.0754 31.7322 31.1592 31.934 31.3048 32.0792C31.4503 32.2254 31.6515 32.3081 31.8582 32.3081C32.064 32.3081 32.2658 32.2254 32.4117 32.0792C32.5572 31.934 32.641 31.7322 32.641 31.5269C32.641 31.3215 32.5572 31.1201 32.4117 30.9745C32.2658 30.8292 32.064 30.7456 31.8582 30.7456C31.6515 30.7456 31.4503 30.8292 31.3048 30.9745Z" fill="url(#paint1_linear)"/>
<path d="M37.401 37.3579C37.2891 36.9413 36.8601 36.6938 36.4424 36.8055L34.2436 37.3936L33.3578 34.0943C33.2459 33.6778 32.8166 33.4303 32.3992 33.5419C31.9815 33.6536 31.7338 34.0821 31.8455 34.4987L32.7313 37.7979L30.5325 38.386C30.1151 38.4977 29.8671 38.9259 29.979 39.3427C30.0729 39.6918 30.3891 39.922 30.7346 39.922C30.8015 39.922 30.87 39.9134 30.9379 39.8951L36.8473 38.3149C37.265 38.2032 37.513 37.7747 37.401 37.3579Z" fill="url(#paint2_linear)"/>
<path d="M30.496 20.7456C30.496 20.5393 30.4122 20.3385 30.2666 20.1932C30.1211 20.0471 29.919 19.9644 29.7132 19.9644C29.5074 19.9644 29.3053 20.0471 29.1597 20.1932C29.0142 20.3385 28.9304 20.5393 28.9304 20.7456C28.9304 20.951 29.0142 21.1524 29.1597 21.2977C29.3053 21.4432 29.5074 21.5266 29.7132 21.5266C29.919 21.5266 30.1211 21.4432 30.2666 21.2977C30.4122 21.1524 30.496 20.951 30.496 20.7456Z" fill="url(#paint3_linear)"/>
<path d="M28.5272 24.9482C28.3214 24.9482 28.1193 25.0319 27.9737 25.1771C27.8282 25.3227 27.7444 25.5232 27.7444 25.7295C27.7444 25.9352 27.8282 26.1366 27.9737 26.2819C28.1193 26.4271 28.3214 26.5107 28.5272 26.5107C28.7339 26.5107 28.9351 26.4271 29.0806 26.2819C29.2268 26.1366 29.3099 25.9352 29.3099 25.7295C29.3099 25.5232 29.2268 25.3227 29.0806 25.1771C28.9351 25.0322 28.7339 24.9482 28.5272 24.9482Z" fill="url(#paint4_linear)"/>
<path d="M31.3559 24.051C31.562 24.051 31.7629 23.9673 31.9093 23.8221C32.0549 23.6762 32.1387 23.4754 32.1387 23.27C32.1387 23.0637 32.0549 22.8629 31.9093 22.7167C31.7638 22.5715 31.562 22.4888 31.3559 22.4888C31.1492 22.4888 30.9483 22.5715 30.8018 22.7167C30.6563 22.862 30.5725 23.0637 30.5725 23.27C30.5725 23.4754 30.6563 23.6768 30.8018 23.8221C30.9483 23.9673 31.1492 24.051 31.3559 24.051Z" fill="url(#paint5_linear)"/>
<path d="M26.2049 17.4019C25.9991 17.4019 25.797 17.4855 25.6514 17.6307C25.5059 17.7763 25.4221 17.9777 25.4221 18.1831C25.4221 18.3888 25.5059 18.5902 25.6514 18.7355C25.797 18.8807 25.9991 18.9644 26.2049 18.9644C26.4107 18.9644 26.6128 18.8807 26.7583 18.7355C26.9039 18.5902 26.9877 18.3888 26.9877 18.1831C26.9877 17.9777 26.9039 17.7763 26.7583 17.6307C26.6128 17.4855 26.4107 17.4019 26.2049 17.4019Z" fill="url(#paint6_linear)"/>
<path d="M26.6358 11.8981C26.7814 12.0433 26.9835 12.127 27.1893 12.127C27.3951 12.127 27.5972 12.0433 27.7427 11.8981C27.8883 11.7528 27.9721 11.5511 27.9721 11.3457C27.9721 11.1403 27.8883 10.9386 27.7427 10.7933C27.5972 10.6481 27.3951 10.5645 27.1893 10.5645C26.9835 10.5645 26.7814 10.6481 26.6358 10.7933C26.4903 10.9386 26.4065 11.1403 26.4065 11.3457C26.4065 11.5511 26.4903 11.7525 26.6358 11.8981Z" fill="url(#paint7_linear)"/>
<path d="M19.2008 5.54884L10.3362 3.17854C10.1356 3.12483 9.92216 3.15291 9.74237 3.25636C9.56257 3.36012 9.4314 3.53071 9.37758 3.73091L4.95824 20.1927C4.58673 21.5758 4.77723 23.0205 5.49457 24.2604C6.07982 25.272 6.95861 26.0484 8.01475 26.5016L5.88474 34.4353L3.68592 33.8472C3.26854 33.7355 2.83924 33.983 2.72732 34.3995C2.61541 34.8164 2.86309 35.2449 3.28077 35.3566L9.19045 36.9368C9.25833 36.9551 9.32652 36.9636 9.39348 36.9636C9.73901 36.9636 10.0555 36.7335 10.149 36.3844C10.261 35.9678 10.0133 35.5394 9.5956 35.4277L7.39678 34.8396L9.5268 26.9057C9.73625 26.9304 9.94601 26.9432 10.1552 26.9432C11.0856 26.9432 12.0045 26.6997 12.8319 26.2227C14.0746 25.5067 14.9631 24.3507 15.3347 22.9677L17.9169 13.3488L17.9172 13.3485V13.3482L19.7543 6.50587C19.8662 6.089 19.6182 5.66054 19.2008 5.54884ZM13.8226 22.5633C13.5596 23.5432 12.9297 24.3623 12.0494 24.8695C11.1688 25.377 10.1432 25.5116 9.1614 25.2492C8.17956 24.9864 7.35887 24.358 6.85037 23.4794C6.34217 22.6008 6.20702 21.577 6.47029 20.5971L8.85012 11.7323L16.2024 13.6986L13.8226 22.5633ZM16.6076 12.1895L9.25527 10.2232L10.6872 4.88966L18.0395 6.85591L16.6076 12.1895Z" fill="url(#paint8_linear)"/>
<path d="M11.1978 17.7871C11.1978 17.5817 11.1149 17.38 10.9684 17.2347C10.8229 17.0895 10.6211 17.0059 10.415 17.0059C10.2092 17.0059 10.0074 17.0895 9.86184 17.2347C9.71598 17.38 9.6322 17.5808 9.6322 17.7871C9.6322 17.9925 9.71598 18.1942 9.86184 18.3395C10.0074 18.4847 10.2092 18.5684 10.415 18.5684C10.6211 18.5684 10.8229 18.4847 10.9684 18.3395C11.114 18.1942 11.1978 17.9925 11.1978 17.7871Z" fill="url(#paint9_linear)"/>
<path d="M11.6013 21.9902C11.3946 21.9902 11.1934 22.0739 11.0478 22.2194C10.9023 22.3647 10.8185 22.5661 10.8185 22.7715C10.8185 22.9772 10.9023 23.1786 11.0478 23.3239C11.1934 23.4691 11.3952 23.5527 11.6013 23.5527C11.807 23.5527 12.0089 23.4691 12.1544 23.3239C12.3 23.1786 12.3837 22.9772 12.3837 22.7715C12.3837 22.5661 12.3 22.3647 12.1544 22.2194C12.0089 22.0739 11.807 21.9902 11.6013 21.9902Z" fill="url(#paint10_linear)"/>
<path d="M8.77314 19.5298C8.56643 19.5298 8.36523 19.6128 8.21969 19.759C8.07414 19.9042 7.99036 20.105 7.99036 20.311C7.99036 20.5167 8.07414 20.7181 8.21969 20.8634C8.36523 21.0087 8.56643 21.0923 8.77314 21.0923C8.97892 21.0923 9.18073 21.0087 9.32658 20.8634C9.47213 20.7181 9.55591 20.5167 9.55591 20.311C9.55591 20.105 9.47213 19.9042 9.32658 19.759C9.18073 19.6128 8.97892 19.5298 8.77314 19.5298Z" fill="url(#paint11_linear)"/>
<path d="M14.4776 14.6727C14.3311 14.5275 14.1299 14.4438 13.9235 14.4438C13.7174 14.4438 13.5165 14.5275 13.3701 14.6727C13.2245 14.818 13.1407 15.0197 13.1407 15.2251C13.1407 15.4305 13.2245 15.6322 13.3701 15.7775C13.5156 15.9227 13.7174 16.0063 13.9235 16.0063C14.1299 16.0063 14.3311 15.9227 14.4776 15.7775C14.6231 15.6322 14.7063 15.4305 14.7063 15.2251C14.7063 15.0197 14.6231 14.818 14.4776 14.6727Z" fill="url(#paint12_linear)"/>
<path d="M12.939 9.16815C13.1457 9.16815 13.3469 9.08453 13.4925 8.93927C13.6389 8.79401 13.7218 8.59259 13.7218 8.3869C13.7218 8.18152 13.6389 7.9801 13.4925 7.83484C13.3469 7.68927 13.1457 7.60596 12.939 7.60596C12.7332 7.60596 12.5314 7.68927 12.3859 7.83484C12.24 7.9801 12.1562 8.18152 12.1562 8.3869C12.1562 8.59259 12.24 8.79401 12.3859 8.93927C12.5314 9.08484 12.7332 9.16815 12.939 9.16815Z" fill="url(#paint13_linear)"/>
<path d="M21.2271 3.39813C21.6595 3.39813 22.0099 3.0484 22.0099 2.61688V0.703125C22.0099 0.271606 21.6595 -0.078125 21.2271 -0.078125C20.7948 -0.078125 20.4443 0.271606 20.4443 0.703125V2.61688C20.4443 3.0484 20.7948 3.39813 21.2271 3.39813Z" fill="url(#paint14_linear)"/>
<path d="M17.678 3.95488C17.8306 4.10716 18.0309 4.18346 18.2312 4.18346C18.4314 4.18346 18.632 4.10686 18.7849 3.95427C19.0904 3.64909 19.0901 3.1544 18.7843 2.84953L17.6597 1.72801C17.3539 1.42314 16.8582 1.42345 16.5528 1.72832C16.2473 2.0338 16.2476 2.52818 16.5534 2.83336L17.678 3.95488Z" fill="url(#paint15_linear)"/>
<path d="M24.1532 4.25767C24.3535 4.25767 24.554 4.18137 24.7069 4.02879L25.9025 2.83433C26.208 2.52915 26.208 2.03446 25.9022 1.72959C25.5964 1.42472 25.1008 1.42472 24.7953 1.7299L23.5994 2.92435C23.2936 3.22953 23.2939 3.72422 23.5997 4.02909C23.7526 4.18137 23.9529 4.25767 24.1532 4.25767Z" fill="url(#paint16_linear)"/>
</g>
<defs>
<linearGradient id="paint0_linear" x1="27.8512" y1="6.10986" x2="27.8512" y2="29.9013" gradientUnits="userSpaceOnUse">
<stop stop-color="#0553C8"/>
<stop offset="1" stop-color="#FF5652"/>
</linearGradient>
<linearGradient id="paint1_linear" x1="31.8582" y1="30.7456" x2="31.8582" y2="32.3081" gradientUnits="userSpaceOnUse">
<stop stop-color="#0553C8"/>
<stop offset="1" stop-color="#FF5652"/>
</linearGradient>
<linearGradient id="paint2_linear" x1="33.69" y1="33.5151" x2="33.69" y2="39.922" gradientUnits="userSpaceOnUse">
<stop stop-color="#0553C8"/>
<stop offset="1" stop-color="#FF5652"/>
</linearGradient>
<linearGradient id="paint3_linear" x1="29.7132" y1="19.9644" x2="29.7132" y2="21.5266" gradientUnits="userSpaceOnUse">
<stop stop-color="#0553C8"/>
<stop offset="1" stop-color="#FF5652"/>
</linearGradient>
<linearGradient id="paint4_linear" x1="28.5272" y1="24.9482" x2="28.5272" y2="26.5107" gradientUnits="userSpaceOnUse">
<stop stop-color="#0553C8"/>
<stop offset="1" stop-color="#FF5652"/>
</linearGradient>
<linearGradient id="paint5_linear" x1="31.3556" y1="22.4888" x2="31.3556" y2="24.051" gradientUnits="userSpaceOnUse">
<stop stop-color="#0553C8"/>
<stop offset="1" stop-color="#FF5652"/>
</linearGradient>
<linearGradient id="paint6_linear" x1="26.2049" y1="17.4019" x2="26.2049" y2="18.9644" gradientUnits="userSpaceOnUse">
<stop stop-color="#0553C8"/>
<stop offset="1" stop-color="#FF5652"/>
</linearGradient>
<linearGradient id="paint7_linear" x1="27.1893" y1="10.5645" x2="27.1893" y2="12.127" gradientUnits="userSpaceOnUse">
<stop stop-color="#0553C8"/>
<stop offset="1" stop-color="#FF5652"/>
</linearGradient>
<linearGradient id="paint8_linear" x1="11.2408" y1="3.15186" x2="11.2408" y2="36.9636" gradientUnits="userSpaceOnUse">
<stop stop-color="#0553C8"/>
<stop offset="1" stop-color="#FF5652"/>
</linearGradient>
<linearGradient id="paint9_linear" x1="10.415" y1="17.0059" x2="10.415" y2="18.5684" gradientUnits="userSpaceOnUse">
<stop stop-color="#0553C8"/>
<stop offset="1" stop-color="#FF5652"/>
</linearGradient>
<linearGradient id="paint10_linear" x1="11.6011" y1="21.9902" x2="11.6011" y2="23.5527" gradientUnits="userSpaceOnUse">
<stop stop-color="#0553C8"/>
<stop offset="1" stop-color="#FF5652"/>
</linearGradient>
<linearGradient id="paint11_linear" x1="8.77314" y1="19.5298" x2="8.77314" y2="21.0923" gradientUnits="userSpaceOnUse">
<stop stop-color="#0553C8"/>
<stop offset="1" stop-color="#FF5652"/>
</linearGradient>
<linearGradient id="paint12_linear" x1="13.9235" y1="14.4438" x2="13.9235" y2="16.0063" gradientUnits="userSpaceOnUse">
<stop stop-color="#0553C8"/>
<stop offset="1" stop-color="#FF5652"/>
</linearGradient>
<linearGradient id="paint13_linear" x1="12.939" y1="7.60596" x2="12.939" y2="9.16815" gradientUnits="userSpaceOnUse">
<stop stop-color="#0553C8"/>
<stop offset="1" stop-color="#FF5652"/>
</linearGradient>
<linearGradient id="paint14_linear" x1="21.2271" y1="-0.078125" x2="21.2271" y2="3.39813" gradientUnits="userSpaceOnUse">
<stop stop-color="#0553C8"/>
<stop offset="1" stop-color="#FF5652"/>
</linearGradient>
<linearGradient id="paint15_linear" x1="17.6688" y1="1.49951" x2="17.6688" y2="4.18346" gradientUnits="userSpaceOnUse">
<stop stop-color="#0553C8"/>
<stop offset="1" stop-color="#FF5652"/>
</linearGradient>
<linearGradient id="paint16_linear" x1="24.7509" y1="1.50098" x2="24.7509" y2="4.25767" gradientUnits="userSpaceOnUse">
<stop stop-color="#0553C8"/>
<stop offset="1" stop-color="#FF5652"/>
</linearGradient>
<clipPath id="clip0">
<rect width="40" height="40" fill="white"/>
</clipPath>
</defs>
</svg>
