<svg width="70" height="38" viewBox="0 0 70 38" fill="none" xmlns="http://www.w3.org/2000/svg">
<g clip-path="url(#clip0)">
<path d="M15.131 37.9179H14.9734C14.9734 35.9361 14.1929 34.0355 12.8037 32.6342C11.4144 31.2329 9.53021 30.4456 7.56552 30.4456C5.60083 30.4456 3.71661 31.2329 2.32736 32.6342C0.938114 34.0355 0.157645 35.9361 0.157645 37.9179H3.05176e-05C3.05475e-05 35.894 0.797105 33.9529 2.21591 32.5218C3.63471 31.0906 5.55903 30.2866 7.56552 30.2866C9.57201 30.2866 11.4963 31.0906 12.9151 32.5218C14.3339 33.9529 15.131 35.894 15.131 37.9179Z" fill="#3F3D56"/>
<path d="M69.9808 37.9179H69.8232C69.8232 35.9361 69.0427 34.0355 67.6535 32.6342C66.2642 31.2329 64.38 30.4456 62.4153 30.4456C60.4506 30.4456 58.5664 31.2329 57.1771 32.6342C55.7879 34.0355 55.0074 35.9361 55.0074 37.9179H54.8498C54.8498 35.894 55.6469 33.9529 57.0657 32.5218C58.4845 31.0906 60.4088 30.2866 62.4153 30.2866C64.4218 30.2866 66.3461 31.0906 67.7649 32.5218C69.1837 33.9529 69.9808 35.894 69.9808 37.9179Z" fill="#3F3D56"/>
<path d="M51.4611 19.714H51.3035C51.3035 12.1748 45.2228 6.04131 37.7486 6.04131C30.2745 6.04131 24.1938 12.1748 24.1938 19.714H24.0362C24.0362 12.0872 30.1876 5.88232 37.7486 5.88232C45.3097 5.88232 51.4611 12.0872 51.4611 19.714Z" fill="#3F3D56"/>
<path d="M11.4664 6.2799C13.1856 6.2799 14.5793 4.8741 14.5793 3.13995C14.5793 1.4058 13.1856 0 11.4664 0C9.74722 0 8.35353 1.4058 8.35353 3.13995C8.35353 4.8741 9.74722 6.2799 11.4664 6.2799Z" fill="#FFB573"/>
<path d="M12.1277 24.7525L17.4756 18.3281H27.99L34.4155 24.6411L34.2857 24.7253H34.332V37.8562H12.135V24.7253L12.1277 24.7525Z" fill="#3F3D56"/>
<path d="M15.3453 21.9595H16.5576V17.7266H15.3453V21.9595Z" fill="#3F3D56"/>
<path d="M17.3923 18.2441L23.9845 26.0402V37.8564H12.135V24.5571L17.3923 18.2441Z" fill="#0553C8"/>
<path d="M22.4611 27.5874H20.0411V30.0833H22.4611V27.5874Z" fill="#3F3D56"/>
<path d="M22.4611 30.9834H20.0411V33.4793H22.4611V30.9834Z" fill="#3F3D56"/>
<path d="M22.4611 27.5874H20.0411V30.0833H22.4611V27.5874Z" fill="white"/>
<path d="M22.4611 30.9834H20.0411V33.4793H22.4611V30.9834Z" fill="white"/>
<path d="M19.1143 27.5874H16.6943V30.0833H19.1143V27.5874Z" fill="#3F3D56"/>
<path d="M19.1143 30.9834H16.6943V33.4793H19.1143V30.9834Z" fill="#3F3D56"/>
<path d="M19.1143 27.5874H16.6943V30.0833H19.1143V27.5874Z" fill="white"/>
<path d="M19.1143 30.9834H16.6943V33.4793H19.1143V30.9834Z" fill="white"/>
<path d="M15.7675 27.5874H13.3475V30.0833H15.7675V27.5874Z" fill="#3F3D56"/>
<path d="M15.7675 30.9834H13.3475V33.4793H15.7675V30.9834Z" fill="#3F3D56"/>
<path d="M15.7675 27.5874H13.3475V30.0833H15.7675V27.5874Z" fill="white"/>
<path d="M15.7675 30.9834H13.3475V33.4793H15.7675V30.9834Z" fill="white"/>
<path d="M39.3248 3.17969H38.2215V5.96192H39.3248V3.17969Z" fill="#0553C8"/>
<path d="M39.2459 5.72363H29.8679V37.9181H39.2459V5.72363Z" fill="#0553C8"/>
<path d="M43.0287 5.72363H39.2459V37.9181H43.0287V5.72363Z" fill="#3F3D56"/>
<path d="M32.9808 8.50586H31.5622V9.93672H32.9808V8.50586Z" fill="white"/>
<path d="M35.2662 8.50586H33.8477V9.93672H35.2662V8.50586Z" fill="white"/>
<path d="M37.5516 8.50586H36.1331V9.93672H37.5516V8.50586Z" fill="white"/>
<path d="M33.0202 11.7651H31.6017V13.196H33.0202V11.7651Z" fill="white"/>
<path d="M35.3056 11.7651H33.887V13.196H35.3056V11.7651Z" fill="white"/>
<path d="M37.591 11.7651H36.1725V13.196H37.591V11.7651Z" fill="white"/>
<path d="M33.0596 15.0239H31.6411V16.4548H33.0596V15.0239Z" fill="white"/>
<path d="M35.345 15.0239H33.9265V16.4548H35.345V15.0239Z" fill="white"/>
<path d="M37.6304 15.0239H36.2119V16.4548H37.6304V15.0239Z" fill="white"/>
<path d="M33.099 18.2832H31.6805V19.7141H33.099V18.2832Z" fill="white"/>
<path d="M35.3844 18.2832H33.9659V19.7141H35.3844V18.2832Z" fill="white"/>
<path d="M37.6698 18.2832H36.2513V19.7141H37.6698V18.2832Z" fill="white"/>
<path d="M33.1384 21.5425H31.7199V22.9733H33.1384V21.5425Z" fill="white"/>
<path d="M35.4238 21.5425H34.0053V22.9733H35.4238V21.5425Z" fill="white"/>
<path d="M37.7092 21.5425H36.2907V22.9733H37.7092V21.5425Z" fill="white"/>
<path d="M33.1778 24.8018H31.7593V26.2326H33.1778V24.8018Z" fill="white"/>
<path d="M35.4632 24.8018H34.0447V26.2326H35.4632V24.8018Z" fill="white"/>
<path d="M37.7486 24.8018H36.3301V26.2326H37.7486V24.8018Z" fill="white"/>
<path d="M33.2172 28.061H31.7987V29.4919H33.2172V28.061Z" fill="white"/>
<path d="M35.5026 28.061H34.0841V29.4919H35.5026V28.061Z" fill="white"/>
<path d="M37.7881 28.061H36.3695V29.4919H37.7881V28.061Z" fill="white"/>
<path d="M33.2566 31.3203H31.8381V32.7512H33.2566V31.3203Z" fill="white"/>
<path d="M35.542 31.3203H34.1235V32.7512H35.542V31.3203Z" fill="white"/>
<path d="M35.542 35.1357H34.1235V37.8385H35.542V35.1357Z" fill="white"/>
<path d="M37.8275 31.3203H36.4089V32.7512H37.8275V31.3203Z" fill="white"/>
<path d="M39.8764 3.17969H39.2459V5.88243H39.8764V3.17969Z" fill="#3F3D56"/>
<path d="M51.1459 17.3291H50.0426V18.9781H51.1459V17.3291Z" fill="#0553C8"/>
<path d="M51.0671 18.8369H41.689V37.9178H51.0671V18.8369Z" fill="#0553C8"/>
<path d="M54.8498 18.8369H51.067V37.9178H54.8498V18.8369Z" fill="#3F3D56"/>
<path d="M44.9595 21.5425H43.541V22.9733H44.9595V21.5425Z" fill="white"/>
<path d="M47.2449 21.5425H45.8264V22.9733H47.2449V21.5425Z" fill="white"/>
<path d="M49.5303 21.5425H48.1118V22.9733H49.5303V21.5425Z" fill="white"/>
<path d="M44.9989 24.8018H43.5804V26.2326H44.9989V24.8018Z" fill="white"/>
<path d="M47.2843 24.8018H45.8658V26.2326H47.2843V24.8018Z" fill="white"/>
<path d="M49.5697 24.8018H48.1512V26.2326H49.5697V24.8018Z" fill="white"/>
<path d="M45.0383 28.061H43.6198V29.4919H45.0383V28.061Z" fill="white"/>
<path d="M47.3237 28.061H45.9052V29.4919H47.3237V28.061Z" fill="white"/>
<path d="M49.6091 28.061H48.1906V29.4919H49.6091V28.061Z" fill="white"/>
<path d="M45.0777 31.3203H43.6592V32.7512H45.0777V31.3203Z" fill="white"/>
<path d="M47.3631 31.3203H45.9446V32.7512H47.3631V31.3203Z" fill="white"/>
<path d="M47.3631 35.1357H45.9446V37.8385H47.3631V35.1357Z" fill="white"/>
<path d="M49.6485 31.3203H48.23V32.7512H49.6485V31.3203Z" fill="white"/>
<path d="M51.6975 17.3291H51.067V18.931H51.6975V17.3291Z" fill="#3F3D56"/>
<path d="M70.0003 37.8218H0.0195007V37.9999H70.0003V37.8218Z" fill="#3F3D56"/>
<path d="M57.7388 34.1884C58.8722 34.1884 59.791 33.2616 59.791 32.1184C59.791 30.9751 58.8722 30.0483 57.7388 30.0483C56.6054 30.0483 55.6866 30.9751 55.6866 32.1184C55.6866 33.2616 56.6054 34.1884 57.7388 34.1884Z" fill="#08B29B"/>
<path opacity="0.2" d="M59.2654 30.7354C59.4568 31.187 59.4827 31.6926 59.3386 32.1618C59.1945 32.631 58.8897 33.0332 58.4786 33.2966C58.0675 33.56 57.577 33.6673 57.0947 33.5995C56.6124 33.5316 56.1698 33.293 55.8458 32.9262C55.9628 33.2022 56.1378 33.4492 56.3587 33.6501C56.5797 33.8511 56.8413 34.0012 57.1255 34.09C57.4097 34.1788 57.7096 34.2042 58.0045 34.1645C58.2994 34.1248 58.5823 34.0209 58.8334 33.86C59.0845 33.6991 59.298 33.4851 59.459 33.2327C59.6199 32.9803 59.7246 32.6957 59.7657 32.3985C59.8068 32.1012 59.7833 31.7985 59.6969 31.5114C59.6105 31.2242 59.4633 30.9594 59.2654 30.7354Z" fill="black"/>
<path d="M57.7445 32.1182H57.7501L57.8516 37.987H57.6374L57.7445 32.1182Z" fill="#3F3D56"/>
<path d="M58.1182 35.3152L58.0709 35.2246L57.7316 35.4048L57.7789 35.4953L58.1182 35.3152Z" fill="#3F3D56"/>
<path d="M63.7722 32.2102C65.4957 32.2102 66.8929 30.8009 66.8929 29.0624C66.8929 27.3239 65.4957 25.9146 63.7722 25.9146C62.0487 25.9146 60.6515 27.3239 60.6515 29.0624C60.6515 30.8009 62.0487 32.2102 63.7722 32.2102Z" fill="#08B29B"/>
<path opacity="0.2" d="M66.0936 26.96C66.3847 27.6468 66.4242 28.4157 66.205 29.1292C65.9859 29.8427 65.5223 30.4543 64.8972 30.8548C64.2721 31.2553 63.5262 31.4185 62.7928 31.3153C62.0594 31.2122 61.3862 30.8493 60.8936 30.2915C61.0714 30.7112 61.3376 31.0868 61.6736 31.3924C62.0096 31.6979 62.4075 31.9262 62.8396 32.0613C63.2718 32.1963 63.7279 32.235 64.1763 32.1746C64.6248 32.1143 65.0548 31.9563 65.4367 31.7116C65.8186 31.4669 66.1432 31.1414 66.388 30.7576C66.6328 30.3739 66.792 29.941 66.8545 29.489C66.917 29.037 66.8813 28.5767 66.7499 28.14C66.6185 27.7033 66.3946 27.3007 66.0936 26.96Z" fill="black"/>
<path d="M63.7808 29.0625H63.7894L63.9437 37.9872H63.6179L63.7808 29.0625Z" fill="#3F3D56"/>
<path d="M64.349 33.9234L64.2771 33.7856L63.7612 34.0596L63.8331 34.1973L64.349 33.9234Z" fill="#3F3D56"/>
<path d="M2.10159 34.1088C3.23498 34.1088 4.15377 33.182 4.15377 32.0388C4.15377 30.8955 3.23498 29.9688 2.10159 29.9688C0.968202 29.9688 0.049408 30.8955 0.049408 32.0388C0.049408 33.182 0.968202 34.1088 2.10159 34.1088Z" fill="#08B29B"/>
<path opacity="0.2" d="M3.62752 30.6562C3.81894 31.1079 3.8449 31.6135 3.70078 32.0827C3.55665 32.5519 3.25182 32.9541 2.84076 33.2175C2.4297 33.4809 1.93919 33.5882 1.45689 33.5204C0.974582 33.4525 0.531913 33.2139 0.207977 32.8471C0.324912 33.1231 0.499927 33.3701 0.720896 33.571C0.941865 33.772 1.2035 33.9221 1.48769 34.0109C1.77187 34.0997 2.0718 34.1252 2.3667 34.0854C2.6616 34.0457 2.94441 33.9418 3.19555 33.7809C3.44669 33.62 3.66014 33.406 3.82112 33.1536C3.98211 32.9012 4.08677 32.6166 4.12786 32.3194C4.16895 32.0221 4.14548 31.7194 4.05909 31.4323C3.9727 31.1451 3.82544 30.8803 3.62752 30.6562H3.62752Z" fill="black"/>
<path d="M2.10661 32.0386H2.11228L2.21371 37.9074H1.99951L2.10661 32.0386Z" fill="#3F3D56"/>
<path d="M2.48024 35.2356L2.43297 35.145L2.09373 35.3252L2.14101 35.4157L2.48024 35.2356Z" fill="#3F3D56"/>
<path d="M47.7897 2.96799L48.5152 2.38271C47.9516 2.31999 47.72 2.63003 47.6253 2.87543C47.185 2.69101 46.7057 2.9327 46.7057 2.9327L48.1572 3.46425C48.084 3.26695 47.9565 3.09481 47.7897 2.96799Z" fill="#3F3D56"/>
<path d="M11.3808 5.90891L12.1063 5.32363C11.5427 5.26091 11.3111 5.57095 11.2164 5.81635C10.7761 5.63193 10.2968 5.87362 10.2968 5.87362L11.7483 6.40516C11.6751 6.20787 11.5476 6.03573 11.3808 5.90891Z" fill="#3F3D56"/>
<path d="M58.8227 8.92991L59.5482 8.34462C58.9846 8.2819 58.753 8.59194 58.6583 8.83735C58.218 8.65292 57.7386 8.89462 57.7386 8.89462L59.1902 9.42616C59.117 9.22887 58.9895 9.05672 58.8227 8.92991Z" fill="#3F3D56"/>
<path d="M17.3702 4.31907L18.0957 3.73378C17.5321 3.67106 17.3005 3.9811 17.2057 4.22651C16.7654 4.04208 16.2861 4.28378 16.2861 4.28378L17.7377 4.81532C17.6644 4.61803 17.537 4.44588 17.3702 4.31907Z" fill="#3F3D56"/>
<path d="M18.7099 10.6784L19.4353 10.0932C18.8718 10.0304 18.6402 10.3405 18.5454 10.5859C18.1051 10.4015 17.6258 10.6432 17.6258 10.6432L19.0773 11.1747C19.0041 10.9774 18.8766 10.8053 18.7099 10.6784Z" fill="#3F3D56"/>
<path d="M46.9229 14.0173L47.6484 13.432C47.0848 13.3693 46.8532 13.6793 46.7584 13.9247C46.3181 13.7403 45.8388 13.982 45.8388 13.982L47.2904 14.5136C47.2171 14.3163 47.0897 14.1441 46.9229 14.0173Z" fill="#3F3D56"/>
<path d="M8.35356 36.2485H3.46751V36.4075H4.2295V37.9179H4.38711V36.4075H7.35515V37.9179H7.51276V36.4075H8.35356V36.2485Z" fill="#3F3D56"/>
<path d="M13.3184 36.8846C13.1256 36.8845 12.9361 36.9358 12.7692 37.0332C12.5997 36.8785 12.3892 36.7769 12.1635 36.7405C11.9378 36.7041 11.7064 36.7346 11.4976 36.8283C11.2887 36.922 11.1113 37.0748 10.9869 37.2683C10.8624 37.4617 10.7963 37.6874 10.7966 37.918H14.4178C14.398 37.6374 14.2737 37.3749 14.0697 37.1831C13.8657 36.9914 13.5973 36.8847 13.3184 36.8846Z" fill="#3F3D56"/>
<path d="M31.9958 36.8846C31.8029 36.8845 31.6134 36.9358 31.4465 37.0332C31.277 36.8785 31.0665 36.7769 30.8408 36.7405C30.6151 36.7041 30.3837 36.7346 30.1749 36.8283C29.966 36.922 29.7886 37.0748 29.6642 37.2683C29.5397 37.4617 29.4736 37.6874 29.4739 37.918H33.0951C33.0753 37.6374 32.951 37.3749 32.747 37.1831C32.543 36.9914 32.2746 36.8847 31.9958 36.8846Z" fill="#3F3D56"/>
<path d="M44.2108 36.8846C44.018 36.8845 43.8285 36.9358 43.6616 37.0332C43.492 36.8785 43.2816 36.7769 43.0559 36.7405C42.8301 36.7041 42.5988 36.7346 42.3899 36.8283C42.1811 36.922 42.0036 37.0748 41.8792 37.2683C41.7548 37.4617 41.6887 37.6874 41.689 37.918H45.3101C45.2904 37.6374 45.166 37.3749 44.962 37.1831C44.7581 36.9914 44.4896 36.8847 44.2108 36.8846Z" fill="#3F3D56"/>
<path d="M60.2875 36.8846C60.0947 36.8845 59.9052 36.9358 59.7383 37.0332C59.5687 36.8785 59.3583 36.7769 59.1326 36.7405C58.9068 36.7041 58.6755 36.7346 58.4666 36.8283C58.2578 36.922 58.0803 37.0748 57.9559 37.2683C57.8315 37.4617 57.7654 37.6874 57.7657 37.918H61.3868C61.3671 37.6374 61.2427 37.3749 61.0387 37.1831C60.8348 36.9914 60.5663 36.8847 60.2875 36.8846Z" fill="#3F3D56"/>
<path d="M68.0106 36.8846C67.8178 36.8845 67.6283 36.9358 67.4614 37.0332C67.2918 36.8785 67.0814 36.7769 66.8557 36.7405C66.6299 36.7041 66.3986 36.7346 66.1897 36.8283C65.9809 36.922 65.8034 37.0748 65.679 37.2683C65.5546 37.4617 65.4885 37.6874 65.4888 37.918H69.1099C69.0902 37.6374 68.9658 37.3749 68.7618 37.1831C68.5578 36.9914 68.2894 36.8847 68.0106 36.8846Z" fill="#3F3D56"/>
<path d="M10.1661 32.3535H8.90518V33.6254H9.48969V37.911H9.64731V33.6254H10.1661V32.3535Z" fill="#F20000"/>
<path d="M8.36317 35.7729H3.47713V35.9319H8.36317V35.7729Z" fill="#3F3D56"/>
<path d="M8.36317 35.3755H3.47713V35.5345H8.36317V35.3755Z" fill="#3F3D56"/>
<path d="M8.36317 34.978H3.47713V35.137H8.36317V34.978Z" fill="#3F3D56"/>
</g>
<defs>
<clipPath id="clip0">
<rect width="70" height="38" fill="white"/>
</clipPath>
</defs>
</svg>
