<svg width="70" height="53" viewBox="0 0 70 53" fill="none" xmlns="http://www.w3.org/2000/svg">
<path d="M62.986 48.7886H58.3492V48.8236H62.986V48.7886Z" fill="#EBEBEB"/>
<path d="M46.3708 49.1694H45.1542V49.2044H46.3708V49.1694Z" fill="#EBEBEB"/>
<path d="M58.2092 47.4897H55.5226V47.5247H58.2092V47.4897Z" fill="#EBEBEB"/>
<path d="M13.391 47.7246H7.34441V47.7596H13.391V47.7246Z" fill="#EBEBEB"/>
<path d="M15.5246 47.7246H14.6384V47.7596H15.5246V47.7246Z" fill="#EBEBEB"/>
<path d="M31.521 48.3154H18.4058V48.3504H31.521V48.3154Z" fill="#EBEBEB"/>
<path d="M33.18 40.2922H6.14881C5.9368 40.2922 5.73347 40.208 5.58355 40.0581C5.43363 39.9081 5.34941 39.7048 5.34941 39.4928V1.4926C5.35126 1.2818 5.43629 1.08026 5.58601 0.931854C5.73573 0.783448 5.938 0.700187 6.14881 0.700195H33.18C33.392 0.700195 33.5953 0.784418 33.7453 0.934334C33.8952 1.08425 33.9794 1.28758 33.9794 1.4996V39.4928C33.9794 39.7048 33.8952 39.9081 33.7453 40.0581C33.5953 40.208 33.392 40.2922 33.18 40.2922ZM6.14881 0.728195C5.94619 0.728566 5.75198 0.809219 5.60871 0.952492C5.46544 1.09576 5.38478 1.28998 5.38441 1.4926V39.4928C5.38478 39.6954 5.46544 39.8896 5.60871 40.0329C5.75198 40.1762 5.94619 40.2568 6.14881 40.2572H33.18C33.3826 40.2568 33.5768 40.1762 33.7201 40.0329C33.8634 39.8896 33.944 39.6954 33.9444 39.4928V1.4926C33.944 1.28998 33.8634 1.09576 33.7201 0.952492C33.5768 0.809219 33.3826 0.728566 33.18 0.728195H6.14881Z" fill="#EBEBEB"/>
<path d="M63.4634 40.2922H36.4294C36.2175 40.2918 36.0144 40.2075 35.8646 40.0577C35.7147 39.9078 35.6304 39.7047 35.63 39.4928V1.4926C35.6322 1.28191 35.7174 1.08059 35.867 0.932258C36.0167 0.783931 36.2187 0.700552 36.4294 0.700195H63.4634C63.6737 0.700924 63.8753 0.78451 64.0244 0.932837C64.1735 1.08116 64.2582 1.28228 64.26 1.4926V39.4928C64.26 39.7043 64.1762 39.9072 64.0269 40.0571C63.8776 40.2069 63.6749 40.2915 63.4634 40.2922ZM36.4294 0.728195C36.2268 0.728566 36.0326 0.809219 35.8893 0.952492C35.746 1.09576 35.6654 1.28998 35.665 1.4926V39.4928C35.6654 39.6954 35.746 39.8896 35.8893 40.0329C36.0326 40.1762 36.2268 40.2568 36.4294 40.2572H63.4634C63.666 40.2568 63.8602 40.1762 64.0035 40.0329C64.1468 39.8896 64.2274 39.6954 64.2278 39.4928V1.4926C64.2274 1.28998 64.1468 1.09576 64.0035 0.952492C63.8602 0.809219 63.666 0.728566 63.4634 0.728195H36.4294Z" fill="#EBEBEB"/>
<path d="M70 46.5361H0V46.5711H70V46.5361Z" fill="#EBEBEB"/>
<path d="M52.3698 32.2168V46.6214H53.312H58.786H59.7282V32.2168H52.3698Z" fill="#EBEBEB"/>
<path d="M53.7824 30.439V33.631H54.3634H57.7346H58.3156V30.439H53.7824Z" fill="#EBEBEB"/>
<path d="M53.7824 32.689H52.8402V33.6312H53.7824V32.689Z" fill="#FAFAFA"/>
<path d="M55.608 32.689H54.6658V33.6312H55.608V32.689Z" fill="#FAFAFA"/>
<path d="M57.4322 32.689H56.49V33.6312H57.4322V32.689Z" fill="#FAFAFA"/>
<path d="M59.2578 32.689H58.3156V33.6312H59.2578V32.689Z" fill="#F0F0F0"/>
<path d="M53.7824 34.3994H52.8402V35.3416H53.7824V34.3994Z" fill="#F0F0F0"/>
<path d="M55.608 34.3994H54.6658V35.3416H55.608V34.3994Z" fill="#F0F0F0"/>
<path d="M57.4322 34.3994H56.49V35.3416H57.4322V34.3994Z" fill="#FAFAFA"/>
<path d="M59.2578 34.3994H58.3156V35.3416H59.2578V34.3994Z" fill="#FAFAFA"/>
<path d="M53.7824 36.1118H52.8402V37.054H53.7824V36.1118Z" fill="#F0F0F0"/>
<path d="M55.608 36.1118H54.6658V37.054H55.608V36.1118Z" fill="#FAFAFA"/>
<path d="M57.4322 36.1118H56.49V37.054H57.4322V36.1118Z" fill="#FAFAFA"/>
<path d="M55.608 31.209H54.6658V32.1512H55.608V31.209Z" fill="#FAFAFA"/>
<path d="M57.4322 31.209H56.49V32.1512H57.4322V31.209Z" fill="#F0F0F0"/>
<path d="M59.2578 36.1118H58.3156V37.054H59.2578V36.1118Z" fill="#F0F0F0"/>
<path d="M53.7824 37.8242H52.8402V38.7664H53.7824V37.8242Z" fill="#FAFAFA"/>
<path d="M55.608 37.8242H54.6658V38.7664H55.608V37.8242Z" fill="#F0F0F0"/>
<path d="M57.4322 37.8242H56.49V38.7664H57.4322V37.8242Z" fill="#F0F0F0"/>
<path d="M59.2578 37.8242H58.3156V38.7664H59.2578V37.8242Z" fill="#FAFAFA"/>
<path d="M53.7824 39.5361H52.8402V40.4783H53.7824V39.5361Z" fill="#F0F0F0"/>
<path d="M55.608 39.5361H54.6658V40.4783H55.608V39.5361Z" fill="#FAFAFA"/>
<path d="M57.4322 39.5361H56.49V40.4783H57.4322V39.5361Z" fill="#FAFAFA"/>
<path d="M59.2578 39.5361H58.3156V40.4783H59.2578V39.5361Z" fill="#F0F0F0"/>
<path d="M53.7824 41.2471H52.8402V42.1893H53.7824V41.2471Z" fill="#F0F0F0"/>
<path d="M55.608 41.2471H54.6658V42.1893H55.608V41.2471Z" fill="#FAFAFA"/>
<path d="M57.4322 41.2471H56.49V42.1893H57.4322V41.2471Z" fill="#F0F0F0"/>
<path d="M59.2578 41.2471H58.3156V42.1893H59.2578V41.2471Z" fill="#FAFAFA"/>
<path d="M53.7824 42.9595H52.8402V43.9017H53.7824V42.9595Z" fill="#FAFAFA"/>
<path d="M55.608 42.9595H54.6658V43.9017H55.608V42.9595Z" fill="#FAFAFA"/>
<path d="M57.4322 42.9595H56.49V43.9017H57.4322V42.9595Z" fill="#F0F0F0"/>
<path d="M59.2578 42.9595H58.3156V43.9017H59.2578V42.9595Z" fill="#F0F0F0"/>
<path d="M53.7824 44.6714H52.8402V45.6136H53.7824V44.6714Z" fill="#F0F0F0"/>
<path d="M59.2578 44.6714H58.3156V45.6136H59.2578V44.6714Z" fill="#FAFAFA"/>
<path d="M57.4336 44.6714H54.6658V44.9416H54.7778V46.6216H55.048V44.9416H57.05V46.6216H57.3216V44.9416H57.4336V44.6714Z" fill="#F5F5F5"/>
<path d="M56.049 44.9414H55.048V46.6214H56.049V44.9414Z" fill="#E6E6E6"/>
<path d="M57.05 44.9414H56.049V46.6214H57.05V44.9414Z" fill="#EBEBEB"/>
<path d="M9.373 32.2168V46.6214H10.3138H15.7892H16.7314V32.2168H9.373Z" fill="#F5F5F5"/>
<path d="M9.84341 32.689V34.3998V34.8716V35.342H10.7856V34.8716V34.3998V32.689H9.84341Z" fill="#E6E6E6"/>
<path d="M11.669 32.689V34.3998V34.8716V35.342H12.6112V34.8716V34.3998V32.689H11.669Z" fill="#F0F0F0"/>
<path d="M13.4932 32.689V34.3998V34.8716V35.342H14.4354V34.8716V34.3998V32.689H13.4932Z" fill="#E6E6E6"/>
<path d="M15.3188 32.689V34.3998V35.1278V35.342H16.261V35.1278V34.3998V32.689H15.3188Z" fill="#F0F0F0"/>
<path d="M9.84341 36.1118V37.824V38.2944V38.7662H10.7856V38.2944V37.824V36.1118H9.84341Z" fill="#F0F0F0"/>
<path d="M11.669 36.1118V37.824V38.4876V38.7662H12.6112V38.4876V37.824V36.1118H11.669Z" fill="#F0F0F0"/>
<path d="M13.4932 36.1118V37.824V38.2944V38.7662H14.4354V38.2944V37.824V36.1118H13.4932Z" fill="#E6E6E6"/>
<path d="M15.3188 36.1118V37.824V38.2944V38.7662H16.261V38.2944V37.824V36.1118H15.3188Z" fill="#F0F0F0"/>
<path d="M9.84341 39.5361V41.2469V41.7187V42.1891H10.7856V41.7187V41.2469V39.5361H9.84341Z" fill="#E6E6E6"/>
<path d="M11.669 39.5361V41.2469V41.7187V42.1891H12.6112V41.7187V41.2469V39.5361H11.669Z" fill="#F0F0F0"/>
<path d="M13.4932 39.5361V41.2469V41.7187V42.1891H14.4354V41.7187V41.2469V39.5361H13.4932Z" fill="#F0F0F0"/>
<path d="M15.3188 39.5361V41.2469V41.8979V42.1891H16.261V41.8979V41.2469V39.5361H15.3188Z" fill="#E6E6E6"/>
<path d="M15.7892 42.9595H15.3188H14.4354H13.4932H12.6112H11.669H9.84341V43.9017H11.669H12.6112H13.4932H14.4354H15.3188H15.7892H16.261V42.9595H15.7892Z" fill="#F0F0F0"/>
<path d="M14.4354 44.6714H11.669V44.9416H11.781V46.6216H12.0512V44.9416H14.0532V46.6216H14.3234V44.9416H14.4354V44.6714Z" fill="#EBEBEB"/>
<path d="M13.0522 44.9414H12.0512V46.6214H13.0522V44.9414Z" fill="#FAFAFA"/>
<path d="M14.0532 44.9414H13.0522V46.6214H14.0532V44.9414Z" fill="#F5F5F5"/>
<path d="M16.7314 38.7661V46.6215H17.6736H23.149H24.0898V38.7661H16.7314Z" fill="#E6E6E6"/>
<path d="M18.1454 39.5361H17.2032V40.4783H18.1454V39.5361Z" fill="#F0F0F0"/>
<path d="M19.9696 39.5361H19.0274V40.4783H19.9696V39.5361Z" fill="#F0F0F0"/>
<path d="M21.7952 39.5361H20.853V40.4783H21.7952V39.5361Z" fill="#F0F0F0"/>
<path d="M23.6194 39.5361H22.6772V40.4783H23.6194V39.5361Z" fill="#F0F0F0"/>
<path d="M18.1454 41.2471H17.2032V42.1893H18.1454V41.2471Z" fill="#F0F0F0"/>
<path d="M19.9696 41.2471H19.0274V42.1893H19.9696V41.2471Z" fill="#F0F0F0"/>
<path d="M21.7952 41.2471H20.853V42.1893H21.7952V41.2471Z" fill="#F0F0F0"/>
<path d="M23.6194 41.2471H22.6772V42.1893H23.6194V41.2471Z" fill="#F0F0F0"/>
<path d="M18.1454 42.9595H17.2032V43.9017H18.1454V42.9595Z" fill="#F0F0F0"/>
<path d="M19.9696 42.9595H19.0274V43.9017H19.9696V42.9595Z" fill="#F0F0F0"/>
<path d="M21.7952 42.9595H20.853V43.9017H21.7952V42.9595Z" fill="#F0F0F0"/>
<path d="M23.6194 42.9595H22.6772V43.9017H23.6194V42.9595Z" fill="#F0F0F0"/>
<path d="M18.1454 44.6714H17.2032V45.6136H18.1454V44.6714Z" fill="#F0F0F0"/>
<path d="M23.6194 44.6714H22.6772V45.6136H23.6194V44.6714Z" fill="#F0F0F0"/>
<path d="M21.7952 44.6714H19.0274V44.9416H19.1394V46.6216H19.4096V44.9416H21.413V46.6216H21.6832V44.9416H21.7952V44.6714Z" fill="#F5F5F5"/>
<path d="M20.4106 44.9414H19.4096V46.6214H20.4106V44.9414Z" fill="#E6E6E6"/>
<path d="M21.4116 44.9414H20.4106V46.6214H21.4116V44.9414Z" fill="#EBEBEB"/>
<path d="M43.7136 32.2168V46.6214H44.6558H50.1312H51.0734V32.2168H43.7136Z" fill="#FAFAFA"/>
<path d="M46.3918 42.9595H46.0096H44.1854V43.4313V43.9017V45.6139H45.1276V43.9017H46.0096H46.3918H46.9518V42.9595H46.3918Z" fill="#F0F0F0"/>
<path d="M49.959 42.9595H49.6594H47.8352V43.9017H49.6594V45.6139H50.6016V43.9017V43.2199V42.9595H49.959Z" fill="#F0F0F0"/>
<path d="M48.7774 44.6714H46.0096V44.9416H46.1216V46.6216H46.3918V44.9416H48.3952V46.6216H48.6654V44.9416H48.7774V44.6714Z" fill="#F5F5F5"/>
<path d="M47.3928 44.9414H46.3918V46.6214H47.3928V44.9414Z" fill="#EBEBEB"/>
<path d="M48.3938 44.9414H47.3928V46.6214H48.3938V44.9414Z" fill="#E0E0E0"/>
<path d="M46.9518 32.689H44.1854V35.3434H46.9518V32.689Z" fill="#F0F0F0"/>
<path d="M50.6016 32.689H47.8352V35.3434H50.6016V32.689Z" fill="#F0F0F0"/>
<path d="M46.9518 36.1118H44.1854V38.7662H46.9518V36.1118Z" fill="#F0F0F0"/>
<path d="M50.6016 36.1118H47.8352V38.7662H50.6016V36.1118Z" fill="#F0F0F0"/>
<path d="M46.9518 39.5361H44.1854V42.1905H46.9518V39.5361Z" fill="#F0F0F0"/>
<path d="M50.6016 39.5361H47.8352V42.1905H50.6016V39.5361Z" fill="#F0F0F0"/>
<path d="M17.6078 28.7968C17.5542 28.8438 17.5154 28.9053 17.4961 28.9739C17.4768 29.0425 17.4778 29.1152 17.499 29.1832C17.5202 29.2512 17.5607 29.3117 17.6155 29.3571C17.6704 29.4026 17.7372 29.4312 17.808 29.4394C20.0914 29.6858 24.7072 30.026 25.956 28.927C27.5618 27.513 22.988 28.85 22.6352 28.528C22.2824 28.206 23.5354 27.4948 22.5498 27.513C21.8596 27.5256 20.7844 28.7492 19.6812 28.5868C18.781 28.4552 19.9808 27.8014 19.145 27.8014C18.4226 27.8014 18.0908 28.3656 17.6078 28.7968Z" fill="#F0F0F0"/>
<path d="M22.0024 28.4316C21.9638 28.4649 21.9357 28.5087 21.9215 28.5577C21.9073 28.6066 21.9076 28.6587 21.9225 28.7075C21.9373 28.7562 21.966 28.7997 22.005 28.8325C22.0441 28.8653 22.0918 28.886 22.1424 28.8922C23.7776 29.0686 27.0816 29.3122 27.9762 28.5254C29.1256 27.5132 25.851 28.4694 25.5962 28.2454C25.3414 28.0214 26.2402 27.5062 25.5346 27.5188C25.0404 27.5272 24.2746 28.4036 23.4808 28.2874C22.8368 28.1936 23.695 27.7274 23.0972 27.7274C22.5848 27.7204 22.3482 28.1236 22.0024 28.4316Z" fill="#F5F5F5"/>
<path d="M38.3992 17.3181C41.6466 17.3181 44.2792 14.6855 44.2792 11.4381C44.2792 8.19067 41.6466 5.55811 38.3992 5.55811C35.1518 5.55811 32.5192 8.19067 32.5192 11.4381C32.5192 14.6855 35.1518 17.3181 38.3992 17.3181Z" fill="#F0F0F0"/>
<path d="M37.4066 13.212C37.3462 13.2493 37.2989 13.3044 37.2713 13.3698C37.2437 13.4352 37.2372 13.5075 37.2525 13.5768C37.2679 13.6461 37.3045 13.7088 37.3572 13.7564C37.4099 13.8039 37.4761 13.8338 37.5466 13.842C41.1166 14.262 49.9548 15.053 52.2382 13.0426C54.9934 10.6178 47.1492 12.911 46.543 12.3608C45.9368 11.8106 48.083 10.5884 46.403 10.6192C45.2088 10.6402 43.365 12.7402 41.4722 12.4602C39.9322 12.2334 41.986 11.1134 40.5538 11.1134C39.0768 11.1148 38.5532 12.4854 37.4066 13.212Z" fill="#FAFAFA"/>
<path d="M46.4716 4.34028C46.4237 4.38015 46.3887 4.4332 46.3707 4.49285C46.3527 4.5525 46.3527 4.61611 46.3706 4.67577C46.3885 4.73544 46.4235 4.78853 46.4714 4.82844C46.5192 4.86836 46.5777 4.89334 46.6396 4.90028C48.8404 5.14248 53.4772 5.50088 54.719 4.40888C56.2926 3.02288 51.8126 4.33328 51.4654 4.01828C51.1182 3.70328 52.3474 3.00608 51.3828 3.02428C50.7052 3.03548 49.6524 4.23528 48.5716 4.07568C47.691 3.94688 48.8656 3.30708 48.0466 3.30708C47.3046 3.30428 46.984 3.91048 46.4716 4.34028Z" fill="#F5F5F5"/>
<path d="M34.3252 52.3195C49.3168 52.3195 61.4698 51.61 61.4698 50.7347C61.4698 49.8594 49.3168 49.1499 34.3252 49.1499C19.3337 49.1499 7.18063 49.8594 7.18063 50.7347C7.18063 51.61 19.3337 52.3195 34.3252 52.3195Z" fill="#F5F5F5"/>
<path d="M19.6168 47.7988H15.0346V50.0892H19.6168V47.7988Z" fill="#08B29B"/>
<path opacity="0.3" d="M19.6168 47.7988H15.0346V50.0892H19.6168V47.7988Z" fill="#0553C8"/>
<path opacity="0.2" d="M19.6154 50.0892V47.7988H18.4702V50.0892H19.6154Z" fill="black"/>
<path d="M28.7784 43.2178H24.1976V50.0904H28.7784V43.2178Z" fill="#08B29B"/>
<path opacity="0.4" d="M28.7784 43.2178H24.1976V50.0904H28.7784V43.2178Z" fill="#0553C8"/>
<path opacity="0.2" d="M28.7784 50.0904V43.2178H27.6332V50.0904H28.7784Z" fill="black"/>
<path d="M37.9428 38.6357H33.3605V50.0891H37.9428V38.6357Z" fill="#08B29B"/>
<path opacity="0.3" d="M37.9428 38.6357H33.3605V50.0891H37.9428V38.6357Z" fill="#0553C8"/>
<path opacity="0.2" d="M37.9414 50.0906V38.6372H36.7962V50.0906H37.9414Z" fill="black"/>
<path d="M47.1044 31.7632H42.5236V50.0892H47.1044V31.7632Z" fill="#08B29B"/>
<path opacity="0.2" d="M47.1044 31.7632H42.5236V50.0892H47.1044V31.7632Z" fill="#0553C8"/>
<path opacity="0.2" d="M47.1058 50.0892V31.7632H45.9605V50.0892H47.1058Z" fill="black"/>
<path d="M56.2687 22.6001H51.6865V50.0891H56.2687V22.6001Z" fill="#0553C8"/>
<path opacity="0.2" d="M56.2673 50.0906V22.6016H55.1221V50.0906H56.2673Z" fill="black"/>
<path d="M47.0822 31.8633H42.5V50.0346H47.0822V31.8633Z" fill="#0553C8"/>
<path opacity="0.2" d="M47.0808 50.0356V31.8643H45.9356V50.0356H47.0808Z" fill="black"/>
<path d="M37.764 38.6816H33.1818V50.0351H37.764V38.6816Z" fill="#0553C8"/>
<path opacity="0.2" d="M37.7626 50.0356V38.6821H36.6174V50.0356H37.7626Z" fill="black"/>
<path d="M28.6731 43H24.0909V50.0356H28.6731V43Z" fill="#0553C8"/>
<path opacity="0.2" d="M28.6717 50.036V43.0005H27.5265V50.036H28.6717Z" fill="black"/>
<path d="M19.5822 46.6362H15V50.2629H19.5822V46.6362Z" fill="#0553C8"/>
<path opacity="0.2" d="M19.5808 50.2629L19.5808 46.6362H18.4356L18.4356 50.2629H19.5808Z" fill="black"/>
<path d="M21.0826 44.3953H15.1046L12.9486 43.4797H18.7264V38.8975H27.8894V34.3167H37.0524V27.4441H46.2154V18.2811H53.9448V10.2969H56.301V19.1981H48.5716V28.3597H39.4086V35.2323H30.2456V39.8145H21.0826V44.3953Z" fill="#08B29B"/>
<g opacity="0.4">
<path opacity="0.4" d="M21.0826 44.3953H15.1046L12.9486 43.4797H18.7264V38.8975H27.8894V34.3167H37.0524V27.4441H46.2154V18.2811H53.9448V10.2969H56.301V19.1981H48.5716V28.3597H39.4086V35.2323H30.2456V39.8145H21.0826V44.3953Z" fill="#08B29B"/>
</g>
<path d="M53.9448 18.2811V10.2969H56.301V19.1981L53.9448 18.2811Z" fill="#08B29B"/>
<path d="M46.2154 27.4438V18.2808L48.5716 19.1978V28.3594L46.2154 27.4438Z" fill="#08B29B"/>
<path d="M37.0524 34.3164V27.4438L39.4086 28.3594V35.232L37.0524 34.3164Z" fill="#08B29B"/>
<path d="M27.8894 38.8977V34.3169L30.2456 35.2325V39.8147L27.8894 38.8977Z" fill="#08B29B"/>
<path d="M18.7263 43.4797V38.8975L21.0826 39.8145V44.3953L18.7263 43.4797Z" fill="#08B29B"/>
<path d="M52.3698 10.9493L55.1222 7.63965L57.8746 12.9527L52.3698 10.9493Z" fill="#08B29B"/>
<path d="M27.2692 15.7627C27.0548 16.1919 26.8818 16.6405 26.7526 17.1025L26.7442 17.1361C26.7246 17.2075 26.6868 17.3671 26.6854 17.3741C26.6686 17.4469 26.6546 17.5141 26.6406 17.5939C26.6406 17.5939 26.6126 17.7591 26.6028 17.8375C26.6021 17.8463 26.6021 17.8552 26.6028 17.8641C26.5818 18.0237 26.5678 18.3611 26.5678 18.3667C26.5678 18.4493 26.5678 18.5305 26.5678 18.6117C26.5678 18.6117 26.5818 18.7909 26.593 18.8735V18.8973C26.5923 18.8894 26.5923 18.8814 26.593 18.8735C26.8058 20.2077 27.0046 20.3813 27.1684 20.8769C27.6472 22.3343 28.0182 26.9543 28.0182 26.9543C25.249 27.7005 21.9156 30.7343 21.9156 30.7343L22.5134 32.1175C22.5134 32.1175 29.6982 28.7197 30.2134 28.0295C30.8182 27.2105 30.471 22.8705 30.6614 21.1611C30.7314 20.5283 30.8112 19.9781 30.8924 19.4811L31.7926 18.0923L27.2692 15.7627Z" fill="#263238"/>
<path opacity="0.2" d="M28.6076 19.4139L28.0714 18.8413C28.0714 18.8413 27.0746 19.6701 30.5914 22.7179C30.5914 22.1089 30.611 21.5643 30.6558 21.1653C30.6558 21.1121 30.667 21.0645 30.674 21.0141L28.6076 19.4139Z" fill="black"/>
<path d="M22.0178 30.9834L20.5604 31.7254L21.0098 32.4604L22.3664 31.8584L22.0178 30.9834Z" fill="#FFC3BD"/>
<path d="M21.0728 32.6454C21.0702 32.6411 21.0691 32.6361 21.0696 32.6311C21.0702 32.6261 21.0725 32.6214 21.076 32.6179C21.0796 32.6143 21.0843 32.6121 21.0893 32.6115C21.0942 32.6109 21.0993 32.612 21.1036 32.6146C21.1204 32.6216 21.4802 32.7938 21.5376 32.9562C21.5496 32.9859 21.5496 33.019 21.5376 33.0486C21.5317 33.0662 21.5204 33.0815 21.5053 33.0923C21.4902 33.1031 21.4721 33.1089 21.4536 33.1088C21.3864 33.1088 21.2954 33.0136 21.2254 32.9114C21.1669 32.8273 21.1159 32.7383 21.0728 32.6454ZM21.1414 32.6902C21.2282 32.8554 21.3724 33.0612 21.4522 33.0612C21.462 33.0612 21.4774 33.0612 21.4914 33.029C21.4955 33.02 21.4977 33.0102 21.4977 33.0003C21.4977 32.9904 21.4955 32.9806 21.4914 32.9716C21.4858 32.9574 21.4788 32.9438 21.4704 32.931C21.3762 32.8309 21.2642 32.7492 21.14 32.6902H21.1414Z" fill="#F20000"/>
<path d="M21.0658 32.6342C21.0656 32.6298 21.0668 32.6255 21.069 32.6218C21.0712 32.6181 21.0745 32.6151 21.0784 32.6132C21.2005 32.5415 21.342 32.5097 21.483 32.5222C21.5055 32.5283 21.5265 32.5388 21.5448 32.5533C21.5631 32.5677 21.5783 32.5857 21.5894 32.6062C21.6216 32.6636 21.6062 32.6986 21.5894 32.7168C21.5096 32.798 21.196 32.7238 21.0854 32.6552C21.0824 32.6536 21.08 32.6512 21.0784 32.6482C21.0755 32.6468 21.0728 32.6449 21.0707 32.6425C21.0685 32.6401 21.0668 32.6373 21.0658 32.6342ZM21.5446 32.6188C21.5272 32.5943 21.5021 32.5766 21.4732 32.5684C21.3608 32.5571 21.2476 32.58 21.1484 32.6342C21.2786 32.6944 21.5054 32.7266 21.5572 32.6832C21.5572 32.6832 21.574 32.6664 21.5572 32.63L21.5488 32.6188H21.5446Z" fill="#F20000"/>
<path d="M21.1288 32.4802L20.5114 31.587C20.4999 31.5708 20.4833 31.559 20.4643 31.5534C20.4452 31.5478 20.4248 31.5488 20.4064 31.5562L19.5664 31.8978C19.5484 31.9043 19.5318 31.9144 19.5179 31.9275C19.5039 31.9406 19.4927 31.9564 19.4851 31.974C19.4775 31.9916 19.4736 32.0106 19.4736 32.0297C19.4736 32.0489 19.4776 32.0678 19.4852 32.0854C19.489 32.0952 19.4937 32.1045 19.4992 32.1134C19.7274 32.4312 19.943 32.7056 20.2202 33.106C20.5464 33.5792 20.4078 33.498 20.7802 34.0594C21.007 34.3968 21.4298 34.1994 21.3514 34.0398C20.9832 33.3398 21.133 33.1298 21.1918 32.7182C21.2006 32.6339 21.1782 32.5492 21.1288 32.4802Z" fill="#263238"/>
<path opacity="0.2" d="M21.7882 31.1011L21.2422 31.3783L21.637 32.1819L22.0878 31.9831L21.7882 31.1011Z" fill="black"/>
<path d="M21.9128 30.2793L21.2954 30.6377L22.0682 32.4087L22.785 32.2099L21.9128 30.2793Z" fill="#F20000"/>
<path d="M34.9146 25.9395C34.9146 25.9395 28.6048 20.6195 28.0672 19.6731C27.5296 18.7267 28.9674 17.4331 28.9674 17.4331L30.5676 17.6571C30.5676 17.6571 37.3114 23.7765 37.0356 25.0001L34.9146 25.9395Z" fill="#263238"/>
<path d="M37.0356 25C36.8578 26.2432 34.1936 32.2212 34.1936 32.2212C34.1936 32.2212 33.6434 32.189 32.6354 31.559C32.6354 31.559 33.6882 26.834 34.7578 25H37.0356Z" fill="#263238"/>
<path d="M33.0876 31.8418L32.6116 33.4056L33.453 33.5918L33.9598 32.1974L33.0876 31.8418Z" fill="#FFC3BD"/>
<path d="M33.6294 33.6756C33.625 33.6736 33.6213 33.6704 33.6186 33.6665C33.6159 33.6625 33.6143 33.6579 33.614 33.6532C33.6137 33.6483 33.6151 33.6434 33.6179 33.6394C33.6207 33.6353 33.6247 33.6323 33.6294 33.6308C33.6462 33.6238 34.02 33.4838 34.1768 33.5566C34.2059 33.5694 34.229 33.5929 34.2412 33.6224C34.2496 33.6386 34.2526 33.6572 34.2498 33.6753C34.2471 33.6934 34.2387 33.7101 34.2258 33.7232C34.1324 33.7695 34.0251 33.7795 33.9248 33.7512C33.8244 33.7342 33.7256 33.7089 33.6294 33.6756ZM33.7106 33.656C33.8884 33.7078 34.1306 33.747 34.1922 33.691C34.2006 33.691 34.209 33.6714 34.1922 33.6392C34.1897 33.6308 34.1856 33.623 34.1801 33.6163C34.1746 33.6095 34.1677 33.604 34.16 33.6C34.146 33.5943 34.1314 33.5901 34.1166 33.5874C33.9781 33.5842 33.8403 33.6075 33.7106 33.656Z" fill="#F20000"/>
<path d="M33.6182 33.6717C33.6159 33.6684 33.6147 33.6645 33.6147 33.6605C33.6147 33.6565 33.6159 33.6526 33.6182 33.6493C33.6498 33.5109 33.7248 33.3863 33.8324 33.2937C33.8533 33.2812 33.8764 33.2732 33.9005 33.27C33.9246 33.2669 33.9491 33.2688 33.9724 33.2755C34.0354 33.2923 34.0494 33.3287 34.048 33.3553C34.048 33.4687 33.7806 33.6437 33.6546 33.6759H33.6448C33.6407 33.6788 33.6356 33.6799 33.6307 33.6791C33.6257 33.6783 33.6213 33.6757 33.6182 33.6717ZM33.9374 33.3175C33.9085 33.312 33.8785 33.3175 33.8534 33.3329C33.7667 33.406 33.7042 33.5036 33.6742 33.6129C33.8072 33.5611 33.9892 33.4197 33.9934 33.3525C33.9934 33.3455 33.9934 33.3287 33.9514 33.3175H33.9374Z" fill="#F20000"/>
<path d="M33.5524 33.5215L32.48 33.3479C32.4604 33.3446 32.4403 33.348 32.423 33.3577C32.4057 33.3674 32.3922 33.3827 32.3848 33.4011L32.0502 34.2411C32.0423 34.2587 32.0381 34.2777 32.0379 34.2969C32.0377 34.3162 32.0414 34.3353 32.0489 34.353C32.0564 34.3708 32.0675 34.3868 32.0814 34.4C32.0954 34.4133 32.1119 34.4235 32.13 34.4301L32.1594 34.4399C32.5472 34.4959 32.893 34.5295 33.3746 34.6093C33.9416 34.7003 33.7862 34.7493 34.4526 34.8627C34.853 34.9341 35.0014 34.4889 34.8348 34.4427C34.0704 34.2187 34.027 33.9695 33.7722 33.6419C33.7162 33.5761 33.638 33.5333 33.5524 33.5215Z" fill="#263238"/>
<path opacity="0.2" d="M33.0134 32.0879L32.8342 32.6745L33.6868 32.9475L33.8562 32.4841L33.0134 32.0879Z" fill="black"/>
<path d="M32.508 31.4287L32.3386 32.1217L34.1502 32.7937L34.503 32.1399L32.508 31.4287Z" fill="#F20000"/>
<path d="M25.2714 13.6137L25.3764 12.6001L26.2612 12.7849L25.9602 13.8125C25.9602 13.8125 26.2584 14.2871 26.2402 14.7099C26.222 15.1327 25.9756 15.0739 25.9756 15.0739C25.9756 15.0739 26.0008 15.5205 25.6214 15.3889C25.242 15.2573 24.752 15.0627 24.8346 14.6889C24.942 14.3161 25.0884 13.9558 25.2714 13.6137Z" fill="#FFC3BD"/>
<path d="M31.7156 9.35078C31.4118 8.20558 27.9146 9.29758 27.9146 9.29758C27.9146 9.29758 26.208 9.84778 25.76 10.2622C25.312 10.6766 25.06 13.1126 25.06 13.1126L26.285 13.38L27.0452 11.28C30.4598 10.6962 32.011 10.461 31.7156 9.35078Z" fill="#F20000"/>
<path d="M26.32 12.9881C26.3009 13.0071 26.2753 13.0181 26.2483 13.0189C26.2214 13.0198 26.1951 13.0104 26.1748 12.9926C26.1546 12.9748 26.1418 12.95 26.1391 12.9232C26.1364 12.8963 26.144 12.8695 26.1604 12.8481C26.179 12.827 26.2052 12.8141 26.2333 12.8122C26.2614 12.8104 26.289 12.8198 26.3102 12.8383C26.3208 12.8474 26.3295 12.8585 26.3358 12.871C26.342 12.8835 26.3457 12.8971 26.3466 12.9111C26.3475 12.9251 26.3456 12.939 26.3411 12.9523C26.3365 12.9655 26.3293 12.9777 26.32 12.9881Z" fill="white"/>
<path opacity="0.1" d="M30.8322 10.0422L30.8406 8.9614C30.8406 8.9614 30.1056 8.8354 28.987 10.9424C29.4896 10.8472 29.9236 10.7562 30.289 10.6624L30.8322 10.0422Z" fill="black"/>
<path d="M35.336 7.27148L35.476 7.95048C35.3963 7.96701 35.3139 7.96459 35.2354 7.94344C35.1568 7.92228 35.0843 7.88297 35.0238 7.82868L35.336 7.27148Z" fill="#BA4D3C"/>
<path d="M35.4858 7.00017C35.4858 7.07017 35.4382 7.12477 35.392 7.12197C35.3458 7.11917 35.3108 7.05477 35.3178 6.98197C35.3248 6.90917 35.3654 6.85737 35.4116 6.86157C35.4578 6.86577 35.4914 6.93157 35.4858 7.00017Z" fill="#263238"/>
<path d="M32.2266 9.16451C32.2266 9.16451 32.8342 9.20791 33.019 8.10891C33.019 8.10891 33.6154 7.95491 33.915 8.34131C34.2146 8.72771 33.4012 9.36751 33.7876 9.76511C34.174 10.1627 32.2266 9.16451 32.2266 9.16451Z" fill="#FFC3BD"/>
<path opacity="0.2" d="M33.5062 8.72754C33.5727 8.88733 33.6588 9.03827 33.7624 9.17694C33.8198 9.03694 33.8926 8.89694 33.9388 8.76814L33.5062 8.72754Z" fill="black"/>
<path d="M32.7684 6.49185C32.6494 7.42985 32.578 7.82465 32.9546 8.39025C33.5776 9.01185 34.7018 9.18405 35.1008 8.29925C35.4592 7.50405 35.595 6.10825 34.7578 5.55945C34.5734 5.43964 34.3615 5.36881 34.1421 5.35366C33.9228 5.33851 33.7031 5.37953 33.504 5.47285C33.3049 5.56618 33.1329 5.70872 33.0042 5.88702C32.8754 6.06531 32.7943 6.27348 32.7684 6.49185Z" fill="#FFC3BD"/>
<path d="M35.1862 6.62467C35.1906 6.62875 35.196 6.63165 35.2019 6.63312C35.2078 6.63459 35.2139 6.63457 35.2198 6.63307C35.2642 6.61978 35.3113 6.61743 35.3568 6.6262C35.4024 6.63498 35.4452 6.65462 35.4816 6.68347C35.4887 6.69048 35.4982 6.69441 35.5082 6.69441C35.5181 6.69441 35.5277 6.69048 35.5348 6.68347C35.5382 6.68008 35.5409 6.67605 35.5428 6.6716C35.5446 6.66716 35.5456 6.66239 35.5456 6.65757C35.5456 6.65275 35.5446 6.64798 35.5428 6.64353C35.5409 6.63909 35.5382 6.63506 35.5348 6.63167C35.4893 6.59452 35.4355 6.56889 35.378 6.55695C35.3205 6.54501 35.2609 6.54711 35.2044 6.56307C35.1947 6.56569 35.1865 6.57203 35.1815 6.58068C35.1766 6.58934 35.1752 6.59962 35.1778 6.60927C35.1793 6.61501 35.1822 6.6203 35.1862 6.62467Z" fill="#263238"/>
<path d="M34.6164 7.36406L34.9496 7.34586C34.9048 7.21188 34.8958 7.06851 34.9235 6.92998C34.9513 6.79145 35.0148 6.66261 35.1078 6.55626C35.4298 6.13626 36.2278 5.92065 35.5796 5.20385C35.4025 4.99695 35.1796 4.83427 34.9285 4.72879C34.6774 4.6233 34.4051 4.57791 34.1334 4.59625L34.6668 4.97845C34.6668 4.97845 33.5664 4.17065 32.9168 5.04845C33.0771 4.9974 33.2498 5.00035 33.4082 5.05686C33.4082 5.05686 30.485 6.04526 32.9546 8.39026C32.9546 8.39026 33.0484 8.19986 33.4432 8.50926C33.7241 8.31587 33.9584 8.06241 34.1292 7.76726C34.3658 7.32066 34.5338 6.90066 34.6164 7.36406Z" fill="#263238"/>
<path d="M34.6024 7.04924C34.6613 7.12462 34.7047 7.21097 34.7299 7.30327C34.7552 7.39557 34.7618 7.49196 34.7494 7.58684C34.7144 7.84164 34.4624 7.86684 34.2748 7.71564C34.0872 7.56444 33.9206 7.27744 34.0508 7.06184C34.0796 7.01521 34.1196 6.97651 34.1672 6.94927C34.2148 6.92203 34.2684 6.9071 34.3232 6.90585C34.378 6.9046 34.4322 6.91706 34.481 6.9421C34.5298 6.96714 34.5715 7.00397 34.6024 7.04924Z" fill="#FFC3BD"/>
<path d="M35.8932 5.45996C35.8932 5.45996 35.9786 5.96956 35.1778 6.27196C35.1778 6.27196 36.2922 6.38536 35.8932 5.45996Z" fill="#263238"/>
<path d="M32.1412 9.3059L32.459 8.8999C32.459 8.8999 33.9822 9.0399 34.0746 9.9037L32.1412 9.3059Z" fill="#F20000"/>
<path opacity="0.5" d="M32.1412 9.3059L32.459 8.8999C32.459 8.8999 33.9822 9.0399 34.0746 9.9037L32.1412 9.3059Z" fill="white"/>
<path d="M28.7854 12.8159C29.2054 11.7715 29.8816 8.99671 30.9582 8.87071C32.0348 8.74471 35.1302 9.98091 35.4956 11.0813C35.861 12.1817 31.6218 18.4411 31.6218 18.4411L27.1236 15.9603C27.1236 15.9603 28.4536 13.6419 28.7854 12.8159Z" fill="#F20000"/>
<path opacity="0.1" d="M34.0718 10.7183C34.0718 10.7183 33.2556 12.2751 34.2398 14.2351C34.6097 13.5958 34.9425 12.9358 35.2366 12.2583L34.8908 11.4407L34.0718 10.7183Z" fill="black"/>
<path d="M29.5666 12.9209C30.1546 13.0091 30.8 12.8355 31.3236 12.5793C31.9228 12.2881 32.368 11.8485 32.8076 11.3585C33.1996 10.9203 33.726 10.4218 34.3378 10.3406C35.7266 10.1544 36.0178 12.3707 35.8778 13.3367C35.7056 14.4847 35.0602 15.5361 34.3532 16.4349C33.9333 16.9768 33.4647 17.4791 32.9532 17.9357C32.788 18.0757 33.047 18.3053 33.2108 18.1625C34.538 16.9977 35.826 15.3499 36.1774 13.5915C36.3902 12.5303 36.1228 11.0168 35.1764 10.3294C34.321 9.70785 33.376 10.2819 32.7502 10.9119C31.9102 11.7519 30.9526 12.7809 29.6282 12.5849C29.4112 12.5527 29.3482 12.8887 29.5624 12.9209H29.5666Z" fill="#F20000"/>
<g opacity="0.3">
<path opacity="0.3" d="M29.5666 12.9209C30.1546 13.0091 30.8 12.8355 31.3236 12.5793C31.9228 12.2881 32.368 11.8485 32.8076 11.3585C33.1996 10.9203 33.726 10.4218 34.3378 10.3406C35.7266 10.1544 36.0178 12.3707 35.8778 13.3367C35.7056 14.4847 35.0602 15.5361 34.3532 16.4349C33.9333 16.9768 33.4647 17.4791 32.9532 17.9357C32.788 18.0757 33.047 18.3053 33.2108 18.1625C34.538 16.9977 35.826 15.3499 36.1774 13.5915C36.3902 12.5303 36.1228 11.0168 35.1764 10.3294C34.321 9.70785 33.376 10.2819 32.7502 10.9119C31.9102 11.7519 30.9526 12.7809 29.6282 12.5849C29.4112 12.5527 29.3482 12.8887 29.5624 12.9209H29.5666Z" fill="black"/>
</g>
<path d="M39.5598 14.7882L38.6148 15.1088L38.486 14.3962L39.4548 14.0925C39.4548 14.0925 39.6466 13.5926 40.0316 13.4401C40.4166 13.2875 40.5734 13.5675 40.5734 13.5675C40.5734 13.5675 40.9598 13.3617 40.9934 13.7537C41.027 14.1457 41.0186 14.7714 40.656 14.8484C40.2934 14.9254 39.8776 14.7924 39.5598 14.7882Z" fill="#FFC3BD"/>
<path d="M39.06 14.0224L37.0664 14.3359C35.7574 11.2686 35.1876 9.91195 34.1936 10.444C33.1492 11.004 35.0014 13.9776 35.0014 13.9776C35.0014 13.9776 35.8806 15.5932 36.3468 15.9907C36.3751 16.0169 36.4072 16.0386 36.442 16.0551C37.0342 16.2147 39.2686 15.1395 39.2686 15.1395L39.06 14.0224Z" fill="#F20000"/>
<path d="M39.06 15.1118C39.0511 15.1234 39.04 15.133 39.0273 15.1402C39.0145 15.1473 39.0005 15.1517 38.9859 15.1531C38.9714 15.1546 38.9568 15.153 38.9429 15.1486C38.929 15.1441 38.9162 15.1369 38.9052 15.1272C38.8942 15.1176 38.8854 15.1059 38.8792 15.0927C38.8729 15.0795 38.8695 15.0651 38.869 15.0506C38.8686 15.036 38.8711 15.0215 38.8765 15.0079C38.8819 14.9944 38.89 14.9821 38.9004 14.9718C38.9192 14.9509 38.9455 14.9383 38.9735 14.9367C39.0016 14.9351 39.0292 14.9447 39.0502 14.9634C39.0606 14.9725 39.0691 14.9835 39.0752 14.9959C39.0813 15.0083 39.085 15.0218 39.0859 15.0356C39.0868 15.0493 39.085 15.0632 39.0805 15.0763C39.0761 15.0893 39.0691 15.1014 39.06 15.1118Z" fill="white"/>
<path d="M29.8596 12.7862L33.2326 17.6555C33.2665 17.7045 33.2904 17.7597 33.303 17.8179C33.3156 17.8761 33.3166 17.9363 33.306 17.9949C33.2953 18.0535 33.2733 18.1094 33.241 18.1595C33.2087 18.2096 33.1669 18.2528 33.118 18.2867L30.6194 20.0174C30.535 20.0759 30.4398 20.1172 30.3393 20.139C30.2389 20.1607 30.1351 20.1625 30.034 20.1441C29.9329 20.1257 29.8364 20.0876 29.75 20.032C29.6636 19.9763 29.589 19.9042 29.5305 19.8197L26.5354 15.4959C26.4769 15.4114 26.4356 15.3163 26.4139 15.2158C26.3921 15.1154 26.3904 15.0116 26.4088 14.9105C26.4271 14.8094 26.4652 14.7129 26.5209 14.6265C26.5765 14.5401 26.6487 14.4655 26.7331 14.407L29.2317 12.6763C29.2806 12.6423 29.3358 12.6184 29.394 12.6058C29.4522 12.5932 29.5124 12.5922 29.571 12.6028C29.6296 12.6135 29.6855 12.6356 29.7356 12.6678C29.7857 12.7001 29.8289 12.7419 29.8628 12.7908L29.8596 12.7862Z" fill="#F20000"/>
<path opacity="0.3" d="M29.8596 12.7862L33.2326 17.6555C33.2665 17.7045 33.2904 17.7597 33.303 17.8179C33.3156 17.8761 33.3166 17.9363 33.306 17.9949C33.2953 18.0535 33.2733 18.1094 33.241 18.1595C33.2087 18.2096 33.1669 18.2528 33.118 18.2867L30.6194 20.0174C30.535 20.0759 30.4398 20.1172 30.3393 20.139C30.2389 20.1607 30.1351 20.1625 30.034 20.1441C29.9329 20.1257 29.8364 20.0876 29.75 20.032C29.6636 19.9763 29.589 19.9042 29.5305 19.8197L26.5354 15.4959C26.4769 15.4114 26.4356 15.3163 26.4139 15.2158C26.3921 15.1154 26.3904 15.0116 26.4088 14.9105C26.4271 14.8094 26.4652 14.7129 26.5209 14.6265C26.5765 14.5401 26.6487 14.4655 26.7331 14.407L29.2317 12.6763C29.2806 12.6423 29.3358 12.6184 29.394 12.6058C29.4522 12.5932 29.5124 12.5922 29.571 12.6028C29.6296 12.6135 29.6855 12.6356 29.7356 12.6678C29.7857 12.7001 29.8289 12.7419 29.8628 12.7908L29.8596 12.7862Z" fill="white"/>
<path opacity="0.1" d="M32.97 17.9623L29.47 12.9139C29.4441 12.8765 29.4111 12.8446 29.3728 12.8201C29.3346 12.7955 29.2919 12.7787 29.2472 12.7706C29.2024 12.7626 29.1566 12.7634 29.1121 12.7731C29.0677 12.7828 29.0257 12.8011 28.9884 12.8271L28.8834 12.8999C28.6723 13.0479 28.528 13.2732 28.4819 13.5269C28.4358 13.7805 28.4915 14.0422 28.637 14.2551L31.4188 18.2689C31.5668 18.4799 31.7921 18.6242 32.0458 18.6703C32.2995 18.7164 32.5611 18.6607 32.774 18.5153L32.8776 18.4439C32.9536 18.3922 33.006 18.3124 33.0233 18.2222C33.0406 18.1319 33.0215 18.0384 32.97 17.9623Z" fill="black"/>
<path d="M33.292 17.745L29.792 12.6966C29.7661 12.6592 29.7331 12.6274 29.6949 12.6028C29.6566 12.5782 29.6139 12.5614 29.5692 12.5533C29.5245 12.5453 29.4786 12.5461 29.4342 12.5558C29.3898 12.5655 29.3477 12.5838 29.3104 12.6098L29.2068 12.6826C28.9957 12.8306 28.8515 13.0559 28.8054 13.3096C28.7592 13.5633 28.8149 13.8249 28.9604 14.0378L31.7408 18.0516C31.8889 18.2627 32.1141 18.4069 32.3678 18.453C32.6215 18.4991 32.8831 18.4434 33.096 18.298L33.201 18.2266C33.2387 18.201 33.2709 18.1682 33.2959 18.1301C33.3209 18.0921 33.3381 18.0494 33.3466 18.0047C33.355 17.9599 33.3546 17.9139 33.3452 17.8694C33.3358 17.8248 33.3178 17.7825 33.292 17.745Z" fill="#F20000"/>
<path d="M33.292 17.745L29.792 12.6966C29.7661 12.6592 29.7331 12.6274 29.6949 12.6028C29.6566 12.5782 29.6139 12.5614 29.5692 12.5533C29.5245 12.5453 29.4786 12.5461 29.4342 12.5558C29.3898 12.5655 29.3477 12.5838 29.3104 12.6098L29.2068 12.6826C28.9957 12.8306 28.8515 13.0559 28.8054 13.3096C28.7592 13.5633 28.8149 13.8249 28.9604 14.0378L31.7408 18.0516C31.8889 18.2627 32.1141 18.4069 32.3678 18.453C32.6215 18.4991 32.8831 18.4434 33.096 18.298L33.201 18.2266C33.2387 18.201 33.2709 18.1682 33.2959 18.1301C33.3209 18.0921 33.3381 18.0494 33.3466 18.0047C33.355 17.9599 33.3546 17.9139 33.3452 17.8694C33.3358 17.8248 33.3178 17.7825 33.292 17.745Z" fill="#F20000"/>
<path opacity="0.5" d="M33.292 17.745L29.792 12.6966C29.7661 12.6592 29.7331 12.6274 29.6949 12.6028C29.6566 12.5782 29.6139 12.5614 29.5692 12.5533C29.5245 12.5453 29.4786 12.5461 29.4342 12.5558C29.3898 12.5655 29.3477 12.5838 29.3104 12.6098L29.2068 12.6826C28.9957 12.8306 28.8515 13.0559 28.8054 13.3096C28.7592 13.5633 28.8149 13.8249 28.9604 14.0378L31.7408 18.0516C31.8889 18.2627 32.1141 18.4069 32.3678 18.453C32.6215 18.4991 32.8831 18.4434 33.096 18.298L33.201 18.2266C33.2387 18.201 33.2709 18.1682 33.2959 18.1301C33.3209 18.0921 33.3381 18.0494 33.3466 18.0047C33.355 17.9599 33.3546 17.9139 33.3452 17.8694C33.3358 17.8248 33.3178 17.7825 33.292 17.745Z" fill="white"/>
<path d="M29.9289 14.4009L29.8675 14.3123C29.7816 14.1884 29.6116 14.1575 29.4876 14.2433L28.8075 14.7145C28.6835 14.8003 28.6526 14.9704 28.7385 15.0944L28.7999 15.183C28.8857 15.3069 29.0558 15.3378 29.1797 15.2519L29.8599 14.7808C29.9838 14.6949 30.0147 14.5249 29.9289 14.4009Z" fill="#F20000"/>
<path d="M31.8107 17.1196L31.7493 17.031C31.6635 16.9071 31.4934 16.8763 31.3695 16.9621L30.6894 17.4334C30.5655 17.5193 30.5346 17.6894 30.6205 17.8133L30.6819 17.9019C30.7678 18.0258 30.9378 18.0567 31.0618 17.9708L31.7418 17.4995C31.8658 17.4136 31.8966 17.2436 31.8107 17.1196Z" fill="#F20000"/>
<path opacity="0.3" d="M29.9289 14.4009L29.8675 14.3123C29.7816 14.1884 29.6116 14.1575 29.4876 14.2433L28.8075 14.7145C28.6835 14.8003 28.6526 14.9704 28.7385 15.0944L28.7999 15.183C28.8857 15.3069 29.0558 15.3378 29.1797 15.2519L29.8599 14.7808C29.9838 14.6949 30.0147 14.5249 29.9289 14.4009Z" fill="black"/>
<path opacity="0.3" d="M31.8107 17.1196L31.7493 17.031C31.6635 16.9071 31.4934 16.8763 31.3695 16.9621L30.6894 17.4334C30.5655 17.5193 30.5346 17.6894 30.6205 17.8133L30.6819 17.9019C30.7678 18.0258 30.9378 18.0567 31.0618 17.9708L31.7418 17.4995C31.8658 17.4136 31.8966 17.2436 31.8107 17.1196Z" fill="black"/>
<path opacity="0.2" d="M26.6924 15.7236C26.6924 15.7236 27.86 17.6402 28.861 17.0802L28.0294 17.657L26.6924 15.7236Z" fill="black"/>
<path d="M31.0688 14.6775C31.3488 14.6383 31.4888 14.4843 31.7226 14.3765C31.8794 14.3023 31.6918 14.2365 31.8318 14.3667C31.8789 14.4209 31.9193 14.4806 31.9522 14.5445C32.046 14.6929 32.1258 14.8511 32.2224 14.9981C32.3064 15.1227 32.5248 15.2571 32.5794 15.3859C32.6676 15.5959 32.2126 15.8899 32.081 15.9977C31.9242 16.1265 32.1048 16.3911 32.2644 16.2609C32.4912 16.0733 32.9434 15.7737 32.928 15.4209C32.9182 15.2053 32.7292 15.1059 32.599 14.9617C32.354 14.6915 32.256 14.2099 31.9312 14.0153C31.8846 13.9834 31.8295 13.9663 31.773 13.9663C31.7165 13.9663 31.6614 13.9834 31.6148 14.0153C31.4888 14.0839 31.4286 14.2225 31.283 14.2869C31.2069 14.3196 31.1269 14.3427 31.045 14.3555C30.8406 14.3835 30.8644 14.7027 31.0688 14.6747V14.6775Z" fill="#F20000"/>
<g opacity="0.3">
<path opacity="0.3" d="M31.0688 14.6775C31.3488 14.6383 31.4888 14.4843 31.7226 14.3765C31.8794 14.3023 31.6918 14.2365 31.8318 14.3667C31.8789 14.4209 31.9193 14.4806 31.9522 14.5445C32.046 14.6929 32.1258 14.8511 32.2224 14.9981C32.3064 15.1227 32.5248 15.2571 32.5794 15.3859C32.6676 15.5959 32.2126 15.8899 32.081 15.9977C31.9242 16.1265 32.1048 16.3911 32.2644 16.2609C32.4912 16.0733 32.9434 15.7737 32.928 15.4209C32.9182 15.2053 32.7292 15.1059 32.599 14.9617C32.354 14.6915 32.256 14.2099 31.9312 14.0153C31.8846 13.9834 31.8295 13.9663 31.773 13.9663C31.7165 13.9663 31.6614 13.9834 31.6148 14.0153C31.4888 14.0839 31.4286 14.2225 31.283 14.2869C31.2069 14.3196 31.1269 14.3427 31.045 14.3555C30.8406 14.3835 30.8644 14.7027 31.0688 14.6747V14.6775Z" fill="black"/>
</g>
</svg>
