<svg width="73" height="40" viewBox="0 0 73 40" fill="none" xmlns="http://www.w3.org/2000/svg">
<g clip-path="url(#clip0)">
<path d="M28.4266 7.95476L25.2635 11.8831L27.7847 7.50328C27.3997 7.26606 26.9905 7.07092 26.5641 6.92121C26.6491 6.05993 26.5562 5.19033 26.2913 4.36661C26.0264 3.54288 25.5952 2.78269 25.0244 2.13339C24.4537 1.4841 23.7557 0.959626 22.974 0.592654C22.1922 0.225681 21.3435 0.0240768 20.4806 0.000404939C19.6177 -0.023267 18.7593 0.131501 17.9587 0.455063C17.1581 0.778625 16.4325 1.26405 15.8272 1.88108C15.2219 2.49811 14.7499 3.23352 14.4405 4.04149C14.131 4.84946 13.9909 5.71266 14.0288 6.57731L19.7423 6.95417L14.1293 7.45975C14.2875 8.3042 14.6159 9.10737 15.0946 9.82007C15.5732 10.5328 16.1919 11.14 16.9128 11.6045L20.0406 9.56976L17.4394 11.908C17.6974 12.0411 17.9644 12.1563 18.2382 12.2525C18.1004 13.6586 18.4378 15.0704 19.1964 16.2612C19.9549 17.4519 21.0906 18.3525 22.421 18.8182C22.315 19.892 22.4857 20.975 22.9168 21.9636C23.3479 22.9522 24.025 23.8132 24.8831 24.4643C25.7412 25.1154 26.7516 25.5347 27.8177 25.682C28.8837 25.8293 29.9696 25.6997 30.9714 25.3056C31.027 25.5524 31.1255 25.7875 31.2622 26.0002C31.457 26.3134 31.7317 26.5687 32.058 26.7396C32.079 27.1077 32.1938 27.4641 32.3916 27.7749C32.5893 28.0857 32.8634 28.3403 33.1874 28.5144C33.2088 28.8823 33.3239 29.2385 33.5216 29.5491C33.7193 29.8597 33.9931 30.1143 34.3168 30.2886C34.3379 30.6567 34.4527 31.0131 34.6503 31.324C34.8479 31.6348 35.1218 31.8896 35.4456 32.0641C35.4632 32.4326 35.5784 32.7898 35.7793 33.0989C36.2898 33.9005 37.199 34.2338 37.8099 33.8451C38.4208 33.4565 38.5021 32.4876 37.9916 31.6854C37.797 31.3722 37.5228 31.1166 37.1971 30.9447C37.1759 30.5763 37.0608 30.2194 36.8627 29.9084C36.6647 29.5973 36.3903 29.3424 36.0659 29.168C36.0445 28.8001 35.9294 28.4438 35.7316 28.1332C35.5337 27.8226 35.2597 27.568 34.9358 27.3938C34.9148 27.0259 34.7998 26.6696 34.6021 26.3589C34.4043 26.0483 34.1304 25.7937 33.8064 25.6196C33.7886 25.251 33.6733 24.8939 33.4721 24.5848C33.3398 24.3737 33.1719 24.1873 32.9759 24.0339C33.7639 23.2925 34.3479 22.36 34.6715 21.3264C34.9952 20.2928 35.0477 19.1929 34.8238 18.1331C34.5999 17.0732 34.1073 16.0891 33.3934 15.2758C32.6796 14.4625 31.7687 13.8474 30.7487 13.49C30.851 12.4467 30.6924 11.3943 30.287 10.4279C29.8817 9.46155 29.2425 8.61175 28.4272 7.95538L28.4266 7.95476Z" fill="#08B29B"/>
<path d="M41.4041 4.80163L40.8397 5.16045L41.1827 4.53547C41.0858 4.45693 40.9655 4.41315 40.8409 4.41109H40.8322C40.793 4.41164 40.7538 4.40873 40.715 4.40238L40.5234 4.52676L40.6059 4.37689C40.4703 4.32954 40.3531 4.24054 40.2709 4.12254L39.9286 4.3402L40.145 3.94593C40.0539 3.82807 39.9378 3.73199 39.8051 3.66466C39.6724 3.59733 39.5265 3.56043 39.3778 3.55664C39.0212 3.55664 38.7042 3.76932 38.4996 4.10016C38.4387 4.1987 38.353 4.27936 38.251 4.33396C38.1491 4.38857 38.0346 4.41518 37.919 4.41109H37.8998C37.5066 4.41109 37.1878 4.85822 37.1878 5.40609C37.1878 5.95395 37.5066 6.40419 37.8998 6.40419C37.9863 6.40389 38.0714 6.38255 38.1479 6.342C38.2817 6.27681 38.4281 6.24154 38.5768 6.23865C38.7256 6.23575 38.8732 6.26528 39.0094 6.32521C39.1247 6.37666 39.2495 6.40325 39.3756 6.40325C39.5018 6.40325 39.6266 6.37666 39.7419 6.32521C39.8771 6.26648 40.0234 6.23759 40.1707 6.24048C40.3181 6.24338 40.4631 6.278 40.5959 6.342C40.6724 6.38257 40.7575 6.40391 40.844 6.40419C41.2372 6.40419 41.556 5.95768 41.556 5.40609C41.5566 5.19502 41.5044 4.98719 41.4041 4.80163Z" fill="#F2F2F2"/>
<path opacity="0.03" d="M40.3404 6.26205C40.1351 6.22317 39.9229 6.24633 39.7307 6.32859C39.6154 6.38004 39.4907 6.40663 39.3645 6.40663C39.2383 6.40663 39.1135 6.38004 38.9982 6.32859C38.8619 6.26865 38.7142 6.23911 38.5653 6.24201C38.4165 6.24491 38.2701 6.28018 38.1361 6.34538C38.0597 6.38609 37.9746 6.40744 37.888 6.40757C37.5382 6.40757 37.248 6.05497 37.1872 5.58981C37.2568 5.53929 37.3161 5.47598 37.3621 5.40324C37.5668 5.07241 37.8843 4.86035 38.2403 4.86035C38.5963 4.86035 38.9095 5.06992 39.1142 5.39703C39.1753 5.49597 39.2608 5.5774 39.3625 5.63341C39.4643 5.68942 39.5787 5.7181 39.6947 5.71667H39.704C39.9825 5.71232 40.2213 5.93619 40.3404 6.26205Z" fill="black"/>
<path d="M62.3055 2.37633L61.7411 2.73515L62.0841 2.11017C61.9872 2.03164 61.8669 1.98786 61.7424 1.9858H61.7337C61.6944 1.98635 61.6552 1.98344 61.6165 1.97709L61.4248 2.10147L61.5073 1.9516C61.3718 1.90425 61.2546 1.81525 61.1724 1.69725L60.83 1.91491L61.0465 1.52064C60.9554 1.40277 60.8393 1.3067 60.7066 1.23937C60.5739 1.17204 60.4279 1.13514 60.2793 1.13135C59.9226 1.13135 59.6057 1.34403 59.401 1.67486C59.3402 1.7734 59.2545 1.85406 59.1525 1.90867C59.0506 1.96328 58.936 1.98988 58.8205 1.9858H58.8013C58.4081 1.9858 58.0893 2.43292 58.0893 2.98079C58.0893 3.52866 58.4081 3.9789 58.8013 3.9789C58.8878 3.97859 58.9729 3.95726 59.0494 3.91671C59.1832 3.85152 59.3295 3.81625 59.4783 3.81335C59.627 3.81045 59.7746 3.83999 59.9109 3.89992C60.0261 3.95137 60.1509 3.97796 60.2771 3.97796C60.4033 3.97796 60.5281 3.95137 60.6433 3.89992C60.7786 3.84119 60.9248 3.8123 61.0722 3.81519C61.2195 3.81809 61.3645 3.85271 61.4974 3.91671C61.5738 3.95728 61.659 3.97862 61.7455 3.9789C62.1387 3.9789 62.4575 3.53239 62.4575 2.98079C62.4581 2.76973 62.4058 2.5619 62.3055 2.37633Z" fill="#F2F2F2"/>
<path opacity="0.03" d="M61.2419 3.83676C61.0366 3.79788 60.8244 3.82104 60.6322 3.9033C60.5169 3.95475 60.3922 3.98134 60.266 3.98134C60.1398 3.98134 60.015 3.95475 59.8997 3.9033C59.7634 3.84336 59.6157 3.81381 59.4668 3.81671C59.318 3.81961 59.1715 3.85488 59.0376 3.92009C58.9612 3.9608 58.8761 3.98215 58.7895 3.98227C58.4397 3.98227 58.1495 3.62967 58.0887 3.16451C58.1582 3.114 58.2176 3.05069 58.2636 2.97795C58.4683 2.64712 58.7858 2.43506 59.1418 2.43506C59.4978 2.43506 59.811 2.64463 60.0157 2.97173C60.0768 3.07068 60.1623 3.15211 60.264 3.20812C60.3658 3.26413 60.4802 3.29281 60.5962 3.29138H60.6055C60.884 3.28702 61.1228 3.5109 61.2419 3.83676Z" fill="black"/>
<path d="M48.3673 8.24678L49.2766 8.82637L48.7258 7.82205C48.882 7.6974 49.0751 7.62848 49.2747 7.62616H49.289C49.3513 7.62709 49.4135 7.62251 49.475 7.61248L49.7821 7.80774L49.6487 7.5677C49.8662 7.49102 50.0543 7.34791 50.1864 7.15851L50.7366 7.508L50.393 6.87431C50.7149 6.48751 51.1484 6.25244 51.6253 6.25244C52.1978 6.25244 52.707 6.59323 53.0363 7.12306C53.1334 7.28183 53.2705 7.41208 53.4339 7.50065C53.5973 7.58921 53.781 7.63293 53.9667 7.6274H53.9977C54.6291 7.6274 55.1408 8.34504 55.1408 9.23059C55.1408 10.1161 54.6291 10.8344 53.9977 10.8344C53.8586 10.8338 53.7218 10.7995 53.5989 10.7343C53.384 10.6296 53.1489 10.5729 52.91 10.5683C52.671 10.5637 52.434 10.6112 52.2152 10.7075C52.0298 10.7906 51.829 10.8336 51.626 10.8336C51.4229 10.8336 51.2221 10.7906 51.0368 10.7075C50.8195 10.6132 50.5846 10.5667 50.3479 10.5713C50.1112 10.576 49.8782 10.6315 49.6648 10.7343C49.5432 10.7978 49.4081 10.8312 49.271 10.8319C48.639 10.8319 48.1273 10.1143 48.1273 9.2281C48.1239 8.88598 48.2065 8.54851 48.3673 8.24678Z" fill="#F2F2F2"/>
<path opacity="0.03" d="M50.076 10.5956C50.406 10.5332 50.7471 10.5705 51.056 10.7026C51.2413 10.7856 51.4421 10.8286 51.6452 10.8286C51.8482 10.8286 52.049 10.7856 52.2344 10.7026C52.4533 10.6062 52.6905 10.5587 52.9295 10.5633C53.1685 10.5679 53.4037 10.6246 53.6187 10.7293C53.7414 10.7945 53.878 10.8289 54.0169 10.8294C54.5782 10.8294 55.0446 10.2629 55.142 9.5154C55.03 9.43321 54.9348 9.33018 54.8616 9.21193C54.5323 8.68085 54.0231 8.34131 53.4506 8.34131C52.8782 8.34131 52.3758 8.67836 52.0465 9.20447C51.9485 9.36296 51.8114 9.49345 51.6484 9.58332C51.4854 9.67318 51.3021 9.7194 51.1161 9.71751H51.1019C50.6516 9.71316 50.2646 10.0726 50.076 10.5956Z" fill="black"/>
<path d="M37 40C54.1208 40 68 39.3284 68 38.5C68 37.6716 54.1208 37 37 37C19.8792 37 6 37.6716 6 38.5C6 39.3284 19.8792 40 37 40Z" fill="#DDDDDD"/>
<path d="M61.0967 9.69922H11.9033C11.2038 9.69922 10.6368 10.2678 10.6368 10.9691V36.7867C10.6368 37.488 11.2038 38.0565 11.9033 38.0565H61.0967C61.7962 38.0565 62.3632 37.488 62.3632 36.7867V10.9691C62.3632 10.2678 61.7962 9.69922 61.0967 9.69922Z" fill="#F2F2F2"/>
<path d="M62.3632 10.9691V11.6892H10.6368V10.9691C10.6368 10.6323 10.7702 10.3093 11.0078 10.0712C11.2453 9.83301 11.5674 9.69922 11.9033 9.69922H61.0967C61.4326 9.69922 61.7548 9.83301 61.9923 10.0712C62.2298 10.3093 62.3632 10.6323 62.3632 10.9691Z" fill="#0553C8"/>
<path d="M11.9702 11.0983C12.1758 11.0983 12.3424 10.9312 12.3424 10.7252C12.3424 10.5191 12.1758 10.3521 11.9702 10.3521C11.7647 10.3521 11.5981 10.5191 11.5981 10.7252C11.5981 10.9312 11.7647 11.0983 11.9702 11.0983Z" fill="white"/>
<path d="M12.9006 11.0983C13.1061 11.0983 13.2727 10.9312 13.2727 10.7252C13.2727 10.5191 13.1061 10.3521 12.9006 10.3521C12.6951 10.3521 12.5285 10.5191 12.5285 10.7252C12.5285 10.9312 12.6951 11.0983 12.9006 11.0983Z" fill="white"/>
<path d="M13.8309 11.0983C14.0365 11.0983 14.2031 10.9312 14.2031 10.7252C14.2031 10.5191 14.0365 10.3521 13.8309 10.3521C13.6254 10.3521 13.4588 10.5191 13.4588 10.7252C13.4588 10.9312 13.6254 11.0983 13.8309 11.0983Z" fill="white"/>
<path d="M23.8915 14.9854H19.0898C18.7715 14.9854 18.5136 15.244 18.5136 15.5631V19.2582C18.5136 19.5773 18.7715 19.8359 19.0898 19.8359H23.8915C24.2097 19.8359 24.4677 19.5773 24.4677 19.2582V15.5631C24.4677 15.244 24.2097 14.9854 23.8915 14.9854Z" fill="white"/>
<path d="M30.838 14.9854H26.0362C25.718 14.9854 25.4601 15.244 25.4601 15.5631V19.2582C25.4601 19.5773 25.718 19.8359 26.0362 19.8359H30.838C31.1562 19.8359 31.4142 19.5773 31.4142 19.2582V15.5631C31.4142 15.244 31.1562 14.9854 30.838 14.9854Z" fill="#BDD6FD"/>
<path d="M37.7845 14.9854H32.9828C32.6646 14.9854 32.4066 15.244 32.4066 15.5631V19.2582C32.4066 19.5773 32.6646 19.8359 32.9828 19.8359H37.7845C38.1027 19.8359 38.3607 19.5773 38.3607 19.2582V15.5631C38.3607 15.244 38.1027 14.9854 37.7845 14.9854Z" fill="white"/>
<path d="M44.731 14.9854H39.9292C39.611 14.9854 39.353 15.244 39.353 15.5631V19.2582C39.353 19.5773 39.611 19.8359 39.9292 19.8359H44.731C45.0492 19.8359 45.3072 19.5773 45.3072 19.2582V15.5631C45.3072 15.244 45.0492 14.9854 44.731 14.9854Z" fill="white"/>
<path d="M51.6774 14.9854H46.8757C46.5575 14.9854 46.2995 15.244 46.2995 15.5631V19.2582C46.2995 19.5773 46.5575 19.8359 46.8757 19.8359H51.6774C51.9957 19.8359 52.2536 19.5773 52.2536 19.2582V15.5631C52.2536 15.244 51.9957 14.9854 51.6774 14.9854Z" fill="#BDD6FD"/>
<path d="M23.8915 23.1318H19.0898C18.7715 23.1318 18.5136 23.3905 18.5136 23.7096V27.4047C18.5136 27.7238 18.7715 27.9824 19.0898 27.9824H23.8915C24.2097 27.9824 24.4677 27.7238 24.4677 27.4047V23.7096C24.4677 23.3905 24.2097 23.1318 23.8915 23.1318Z" fill="white"/>
<path d="M30.838 23.1318H26.0362C25.718 23.1318 25.4601 23.3905 25.4601 23.7096V27.4047C25.4601 27.7238 25.718 27.9824 26.0362 27.9824H30.838C31.1562 27.9824 31.4142 27.7238 31.4142 27.4047V23.7096C31.4142 23.3905 31.1562 23.1318 30.838 23.1318Z" fill="white"/>
<path d="M37.7845 23.1318H32.9828C32.6646 23.1318 32.4066 23.3905 32.4066 23.7096V27.4047C32.4066 27.7238 32.6646 27.9824 32.9828 27.9824H37.7845C38.1027 27.9824 38.3607 27.7238 38.3607 27.4047V23.7096C38.3607 23.3905 38.1027 23.1318 37.7845 23.1318Z" fill="#BDD6FD"/>
<path d="M44.731 23.1318H39.9292C39.611 23.1318 39.353 23.3905 39.353 23.7096V27.4047C39.353 27.7238 39.611 27.9824 39.9292 27.9824H44.731C45.0492 27.9824 45.3072 27.7238 45.3072 27.4047V23.7096C45.3072 23.3905 45.0492 23.1318 44.731 23.1318Z" fill="white"/>
<path d="M51.6774 23.1318H46.8757C46.5575 23.1318 46.2995 23.3905 46.2995 23.7096V27.4047C46.2995 27.7238 46.5575 27.9824 46.8757 27.9824H51.6774C51.9957 27.9824 52.2536 27.7238 52.2536 27.4047V23.7096C52.2536 23.3905 51.9957 23.1318 51.6774 23.1318Z" fill="white"/>
<path d="M23.8915 31.2783H19.0898C18.7715 31.2783 18.5136 31.537 18.5136 31.856V35.5512C18.5136 35.8703 18.7715 36.1289 19.0898 36.1289H23.8915C24.2097 36.1289 24.4677 35.8703 24.4677 35.5512V31.856C24.4677 31.537 24.2097 31.2783 23.8915 31.2783Z" fill="white"/>
<path d="M30.838 31.2783H26.0362C25.718 31.2783 25.4601 31.537 25.4601 31.856V35.5512C25.4601 35.8703 25.718 36.1289 26.0362 36.1289H30.838C31.1562 36.1289 31.4142 35.8703 31.4142 35.5512V31.856C31.4142 31.537 31.1562 31.2783 30.838 31.2783Z" fill="white"/>
<path d="M37.7845 31.2783H32.9828C32.6646 31.2783 32.4066 31.537 32.4066 31.856V35.5512C32.4066 35.8703 32.6646 36.1289 32.9828 36.1289H37.7845C38.1027 36.1289 38.3607 35.8703 38.3607 35.5512V31.856C38.3607 31.537 38.1027 31.2783 37.7845 31.2783Z" fill="white"/>
<path d="M44.731 31.2783H39.9292C39.611 31.2783 39.353 31.537 39.353 31.856V35.5512C39.353 35.8703 39.611 36.1289 39.9292 36.1289H44.731C45.0492 36.1289 45.3072 35.8703 45.3072 35.5512V31.856C45.3072 31.537 45.0492 31.2783 44.731 31.2783Z" fill="#BDD6FD"/>
<path d="M51.6774 31.2783H46.8757C46.5575 31.2783 46.2995 31.537 46.2995 31.856V35.5512C46.2995 35.8703 46.5575 36.1289 46.8757 36.1289H51.6774C51.9957 36.1289 52.2536 35.8703 52.2536 35.5512V31.856C52.2536 31.537 51.9957 31.2783 51.6774 31.2783Z" fill="white"/>
<path d="M32.7923 14.092L32.4785 13.7755C32.463 13.7598 32.4446 13.7474 32.4243 13.7389C32.404 13.7304 32.3823 13.7261 32.3603 13.7261C32.3383 13.7261 32.3166 13.7304 32.2963 13.7389C32.276 13.7474 32.2576 13.7598 32.2422 13.7755L30.2723 15.7338L29.4394 14.8918C29.424 14.8762 29.4058 14.8639 29.3857 14.8555C29.3655 14.8471 29.344 14.8428 29.3222 14.8428C29.3004 14.8428 29.2788 14.8471 29.2587 14.8555C29.2385 14.8639 29.2203 14.8762 29.2049 14.8918L28.888 15.2058C28.8569 15.2375 28.8394 15.2801 28.8394 15.3246C28.8394 15.369 28.8569 15.4117 28.888 15.4434L30.1526 16.7213C30.1842 16.7525 30.2268 16.77 30.2711 16.77C30.3154 16.77 30.358 16.7525 30.3896 16.7213L32.7923 14.3296C32.808 14.3141 32.8205 14.2956 32.829 14.2752C32.8375 14.2548 32.8419 14.2329 32.8419 14.2108C32.8419 14.1887 32.8375 14.1668 32.829 14.1464C32.8205 14.126 32.808 14.1076 32.7923 14.092Z" fill="#08B29B"/>
<path d="M53.8798 14.092L53.566 13.7755C53.5505 13.7598 53.5321 13.7474 53.5118 13.7389C53.4916 13.7304 53.4698 13.7261 53.4478 13.7261C53.4258 13.7261 53.4041 13.7304 53.3838 13.7389C53.3635 13.7474 53.3451 13.7598 53.3297 13.7755L51.3598 15.7338L50.5269 14.8918C50.5116 14.8762 50.4933 14.8639 50.4732 14.8555C50.4531 14.8471 50.4315 14.8428 50.4097 14.8428C50.3879 14.8428 50.3663 14.8471 50.3462 14.8555C50.326 14.8639 50.3078 14.8762 50.2924 14.8918L49.9755 15.2058C49.9444 15.2375 49.9269 15.2801 49.9269 15.3246C49.9269 15.369 49.9444 15.4117 49.9755 15.4434L51.2401 16.7213C51.2717 16.7525 51.3143 16.77 51.3586 16.77C51.4029 16.77 51.4455 16.7525 51.4771 16.7213L53.8798 14.3296C53.8955 14.3141 53.908 14.2956 53.9165 14.2752C53.925 14.2548 53.9294 14.2329 53.9294 14.2108C53.9294 14.1887 53.925 14.1668 53.9165 14.1464C53.908 14.126 53.8955 14.1076 53.8798 14.092Z" fill="#08B29B"/>
<path d="M39.7388 22.1765L39.425 21.86C39.4095 21.8443 39.3911 21.8319 39.3708 21.8234C39.3505 21.8149 39.3288 21.8105 39.3068 21.8105C39.2848 21.8105 39.2631 21.8149 39.2428 21.8234C39.2225 21.8319 39.2041 21.8443 39.1887 21.86L37.2188 23.8182L36.3859 22.9762C36.3705 22.9607 36.3523 22.9484 36.3322 22.94C36.312 22.9316 36.2905 22.9272 36.2687 22.9272C36.2469 22.9272 36.2253 22.9316 36.2052 22.94C36.185 22.9484 36.1668 22.9607 36.1514 22.9762L35.8345 23.2903C35.8034 23.3219 35.7859 23.3646 35.7859 23.4091C35.7859 23.4535 35.8034 23.4962 35.8345 23.5278L37.0991 24.8058C37.1307 24.837 37.1733 24.8545 37.2176 24.8545C37.2619 24.8545 37.3045 24.837 37.3361 24.8058L39.7388 22.4141C39.7545 22.3986 39.767 22.3801 39.7755 22.3597C39.784 22.3393 39.7884 22.3174 39.7884 22.2953C39.7884 22.2732 39.784 22.2513 39.7755 22.2309C39.767 22.2105 39.7545 22.192 39.7388 22.1765Z" fill="#08B29B"/>
<path d="M46.6232 30.634L46.3094 30.3175C46.294 30.3018 46.2756 30.2894 46.2553 30.2809C46.235 30.2724 46.2132 30.2681 46.1913 30.2681C46.1693 30.2681 46.1475 30.2724 46.1273 30.2809C46.107 30.2894 46.0886 30.3018 46.0731 30.3175L44.1033 32.2758L43.2703 31.4338C43.255 31.4182 43.2367 31.4059 43.2166 31.3975C43.1965 31.3891 43.1749 31.3847 43.1531 31.3847C43.1313 31.3847 43.1097 31.3891 43.0896 31.3975C43.0695 31.4059 43.0512 31.4182 43.0359 31.4338L42.719 31.7447C42.6878 31.7764 42.6704 31.819 42.6704 31.8635C42.6704 31.9079 42.6878 31.9506 42.719 31.9823L43.9836 33.2602C44.0152 33.2914 44.0577 33.3089 44.102 33.3089C44.1464 33.3089 44.1889 33.2914 44.2205 33.2602L46.6232 30.8685C46.654 30.8373 46.6713 30.7952 46.6713 30.7513C46.6713 30.7074 46.654 30.6652 46.6232 30.634Z" fill="#08B29B"/>
<path d="M62.7912 38.4558C62.6051 38.1132 62.816 37.6928 63.0572 37.3874C63.2985 37.0821 63.5912 36.7656 63.585 36.3744C63.5757 35.8147 62.9834 35.4839 62.5102 35.1873C62.1588 34.9673 61.8348 34.7062 61.5451 34.4093C61.4237 34.2952 61.3234 34.1604 61.2487 34.0113C61.1507 33.7924 61.1532 33.5436 61.1594 33.3042C61.1805 32.5057 61.2199 31.7079 61.2778 30.9106" stroke="#3F3D56" stroke-width="4" stroke-miterlimit="10"/>
<path d="M60.3785 30.867C60.3851 30.7208 60.4284 30.5786 60.5042 30.4536C60.5801 30.3286 60.6862 30.2248 60.8127 30.1518L61.0074 30.5386L61.0012 30.0704C61.0944 30.043 61.1914 30.0312 61.2884 30.0355C61.4597 30.0439 61.6248 30.103 61.7626 30.2054C61.9005 30.3077 62.0051 30.4487 62.0631 30.6106C62.1211 30.7724 62.1301 30.9479 62.0887 31.1149C62.0474 31.2818 61.9577 31.4327 61.8309 31.5486C61.7041 31.6645 61.5459 31.7401 61.3763 31.7659C61.2067 31.7917 61.0333 31.7666 60.8779 31.6936C60.7225 31.6207 60.5922 31.5033 60.5033 31.3562C60.4144 31.209 60.371 31.0388 60.3785 30.867Z" fill="#08B29B"/>
<path d="M61.9291 36.7742C62.0204 36.9516 62.1698 37.0922 62.3521 37.1724C62.5345 37.2525 62.7388 37.2674 62.9309 37.2145C63.1229 37.1616 63.2909 37.0441 63.4068 36.8818C63.5227 36.7194 63.5795 36.522 63.5675 36.3227C63.5555 36.1234 63.4756 35.9343 63.3411 35.787C63.2066 35.6398 63.0257 35.5434 62.8288 35.5139C62.6318 35.4845 62.4308 35.5238 62.2593 35.6253C62.0878 35.7268 61.9563 35.8844 61.8869 36.0715L62.4309 36.5149L61.8323 36.3762C61.8326 36.5147 61.8657 36.6511 61.9291 36.7742Z" fill="#08B29B"/>
<path d="M62.3632 35.0797C62.5772 35.0908 62.7877 35.0222 62.9542 34.8871C63.1208 34.752 63.2316 34.5599 63.2655 34.3478C63.2994 34.1357 63.2538 33.9186 63.1376 33.7381C63.0214 33.5576 62.8428 33.4266 62.6361 33.3702L62.6411 33.7296L62.4438 33.3384C62.3296 33.3328 62.2155 33.3499 62.1078 33.3887C62.0002 33.4274 61.9013 33.4871 61.8168 33.5643C61.7322 33.6415 61.6637 33.7347 61.6152 33.8385C61.5667 33.9423 61.5391 34.0547 61.534 34.1693C61.5289 34.27 61.5415 34.3708 61.5712 34.4671C61.6241 34.6387 61.7286 34.7896 61.8704 34.8992C62.0122 35.0089 62.1843 35.0719 62.3632 35.0797Z" fill="#08B29B"/>
<path d="M60.247 33.6699C60.3806 33.6748 60.5136 33.6487 60.6355 33.5936C60.7574 33.5386 60.865 33.456 60.9498 33.3525C61.0347 33.2489 61.0946 33.127 61.1248 32.9964C61.155 32.8658 61.1547 32.73 61.1239 32.5995C61.0932 32.4691 61.0328 32.3475 60.9474 32.2443C60.8621 32.141 60.7542 32.059 60.632 32.0045C60.5099 31.9499 60.3768 31.9244 60.2432 31.9299C60.1096 31.9354 59.9791 31.9718 59.8619 32.0362L60.0157 32.4591L59.6994 32.1544C59.5298 32.31 59.4288 32.5267 59.4184 32.7569C59.4143 32.8378 59.4216 32.9188 59.4401 32.9976C59.4831 33.1826 59.5852 33.3484 59.7309 33.4697C59.8765 33.5911 60.0578 33.6614 60.247 33.6699Z" fill="#08B29B"/>
<path opacity="0.1" d="M60.4951 31.0997C60.6961 31.1215 60.8914 31.1843 61.093 31.1968C61.2946 31.2092 61.516 31.1613 61.6438 31.004C61.712 30.9194 61.7467 30.8124 61.8044 30.7198C61.8595 30.6337 61.9349 30.5626 62.024 30.5127C62.0765 30.6228 62.1053 30.7427 62.1086 30.8647C62.112 30.9866 62.0897 31.108 62.0432 31.2207C61.9968 31.3335 61.9272 31.4353 61.839 31.5193C61.7508 31.6034 61.646 31.668 61.5313 31.7088C61.4166 31.7497 61.2946 31.7659 61.1733 31.7564C61.052 31.7469 60.934 31.712 60.827 31.6539C60.72 31.5957 60.6264 31.5157 60.5522 31.419C60.478 31.3222 60.425 31.2109 60.3965 31.0923C60.4296 31.0935 60.4624 31.096 60.4951 31.0997Z" fill="black"/>
<path opacity="0.1" d="M60.247 33.67C60.3971 33.6776 60.5467 33.6461 60.681 33.5784C60.8153 33.5107 60.9298 33.4092 61.0132 33.2839C61.0967 33.1585 61.1463 33.0136 61.1571 32.8632C61.1679 32.7129 61.1396 32.5624 61.075 32.4263C61.006 32.4728 60.9466 32.5324 60.9001 32.6016C60.8381 32.6955 60.8003 32.8044 60.7277 32.8902C60.5919 33.05 60.3605 33.1022 60.1503 33.0929C59.94 33.0836 59.7372 33.0233 59.53 33.004C59.5009 33.004 59.4717 32.9996 59.442 32.999C59.4851 33.1834 59.587 33.3487 59.7323 33.4698C59.8776 33.5909 60.0583 33.6612 60.247 33.67Z" fill="black"/>
<path opacity="0.1" d="M62.3632 35.0799C62.5119 35.0874 62.6601 35.0565 62.7935 34.9901C62.9268 34.9236 63.0409 34.8239 63.1247 34.7005C63.2086 34.5771 63.2594 34.4342 63.2722 34.2854C63.285 34.1366 63.2595 33.9871 63.198 33.8511C63.1258 33.8984 63.0628 33.9584 63.0119 34.0283C62.9443 34.1241 62.9022 34.2341 62.8259 34.3225C62.6789 34.4866 62.432 34.5445 62.21 34.5395C61.988 34.5345 61.7864 34.4817 61.5724 34.4649C61.6248 34.6367 61.729 34.788 61.8705 34.8981C62.0121 35.0082 62.1842 35.0717 62.3632 35.0799Z" fill="black"/>
<path opacity="0.1" d="M61.9291 36.7745C62.0232 36.9856 62.1972 37.1504 62.4126 37.2329C62.628 37.3154 62.8672 37.3086 63.0777 37.2142C63.2882 37.1198 63.4526 36.9454 63.5349 36.7294C63.6171 36.5134 63.6104 36.2735 63.5162 36.0625C63.4442 36.1094 63.3798 36.1671 63.3252 36.2335C63.2421 36.3343 63.1875 36.4493 63.092 36.5444C62.914 36.7198 62.6268 36.7932 62.3707 36.7988C62.2231 36.7995 62.0757 36.7914 61.9291 36.7745Z" fill="black"/>
<path d="M64.1042 38.0611C64.1042 38.0611 63.417 38.04 63.2098 37.892C63.0027 37.744 62.1554 37.568 62.1021 37.8049C62.0488 38.0418 61.0694 38.9865 61.8447 38.9902C62.62 38.9939 63.6471 38.8658 63.8542 38.7415C64.0614 38.6171 64.1042 38.0611 64.1042 38.0611Z" fill="#656380"/>
<path opacity="0.2" d="M61.8311 38.9079C62.607 38.9142 63.6335 38.7867 63.84 38.6592C63.9975 38.5628 64.0602 38.2183 64.0812 38.0591H64.1042C64.1042 38.0591 64.0608 38.615 63.8561 38.7431C63.6514 38.8712 62.6225 38.9969 61.8466 38.9919C61.6227 38.9919 61.5458 38.9104 61.5501 38.7923C61.5793 38.8619 61.6642 38.9048 61.8311 38.9079Z" fill="black"/>
<path d="M11.43 38.1499C11.1578 37.645 11.4666 37.0256 11.8214 36.5747C12.1762 36.1239 12.6091 35.6556 12.6004 35.0822C12.5867 34.257 11.7135 33.7701 11.0151 33.3323C10.4973 33.0077 10.0197 32.6228 9.59232 32.1855C9.41451 32.0168 9.26757 31.8181 9.15816 31.5985C9.01365 31.2758 9.01799 30.9088 9.0273 30.555C9.05707 29.3776 9.11495 28.2012 9.20096 27.0259" stroke="#3F3D56" stroke-width="4" stroke-miterlimit="10"/>
<path d="M7.87121 26.9606C7.88076 26.7446 7.94447 26.5345 8.05645 26.3497C8.16844 26.1649 8.32508 26.0114 8.5119 25.9034L8.79968 26.4737L8.791 25.7834C9.05208 25.7063 9.33084 25.7144 9.58703 25.8065C9.84322 25.8986 10.0636 26.07 10.2163 26.2958C10.369 26.5217 10.4462 26.7904 10.4367 27.0631C10.4273 27.3358 10.3316 27.5985 10.1635 27.8131C9.99544 28.0278 9.7637 28.1833 9.50172 28.2573C9.23975 28.3313 8.96111 28.3199 8.70603 28.2247C8.45094 28.1296 8.23262 27.9556 8.08256 27.7279C7.93251 27.5003 7.8585 27.2307 7.87121 26.9581V26.9606Z" fill="#08B29B"/>
<path d="M10.1604 35.6711C10.2951 35.9336 10.5157 36.1417 10.7852 36.2605C11.0548 36.3792 11.3568 36.4015 11.6408 36.3234C11.9247 36.2454 12.1732 36.0718 12.3447 35.8319C12.5162 35.5919 12.6001 35.3001 12.5825 35.0055C12.5648 34.7108 12.4467 34.4312 12.2478 34.2135C12.049 33.9958 11.7815 33.8533 11.4903 33.8099C11.1991 33.7665 10.9018 33.8248 10.6484 33.975C10.395 34.1253 10.2008 34.3583 10.0984 34.6351L10.8997 35.2887L10.0165 35.0841C10.0171 35.2885 10.0665 35.4897 10.1604 35.6711Z" fill="#08B29B"/>
<path d="M10.7943 33.1726C11.109 33.1868 11.4179 33.0846 11.6623 32.8854C11.9067 32.6861 12.0695 32.4037 12.1198 32.0919C12.17 31.7801 12.1042 31.4607 11.9348 31.1944C11.7654 30.9281 11.5044 30.7336 11.2012 30.6478L11.208 31.1776L10.9172 30.6011H10.9141C10.7441 30.5905 10.5738 30.6139 10.4129 30.6699C10.2521 30.726 10.104 30.8135 9.97718 30.9275C9.85041 31.0415 9.74752 31.1796 9.6745 31.3339C9.60148 31.4881 9.55978 31.6553 9.55184 31.8259C9.5439 31.9964 9.56988 32.1669 9.62826 32.3272C9.68663 32.4876 9.77624 32.6347 9.89188 32.7601C10.0075 32.8854 10.1468 32.9864 10.3018 33.0572C10.4567 33.128 10.6242 33.1672 10.7943 33.1726Z" fill="#08B29B"/>
<path d="M7.67831 31.0935C8.01834 31.1092 8.35069 30.9889 8.60235 30.7591C8.85401 30.5293 9.00439 30.2087 9.02047 29.8678C9.0302 29.6573 8.98757 29.4476 8.89642 29.2577C8.82138 29.098 8.7143 28.9554 8.58188 28.839C8.44946 28.7225 8.29453 28.6347 8.12675 28.581C7.95898 28.5272 7.78196 28.5087 7.60674 28.5266C7.43152 28.5445 7.26185 28.5984 7.10833 28.685L7.33471 29.3068L6.8683 28.8579C6.68158 29.0296 6.54972 29.2529 6.48933 29.4996C6.42894 29.7464 6.44271 30.0055 6.52892 30.2444C6.61513 30.4833 6.76992 30.6913 6.97379 30.8422C7.17766 30.993 7.4215 31.0801 7.67459 31.0922L7.67831 31.0935Z" fill="#08B29B"/>
<path opacity="0.1" d="M8.04425 27.303C8.3401 27.336 8.6285 27.4274 8.92558 27.4467C9.22267 27.4659 9.54953 27.3938 9.73745 27.1618C9.83855 27.0375 9.88941 26.8795 9.975 26.7433C10.0561 26.6165 10.1671 26.5117 10.2981 26.438C10.3808 26.6012 10.4278 26.7801 10.436 26.9629C10.4443 27.1457 10.4135 27.3282 10.3459 27.4982C10.2782 27.6682 10.1752 27.8217 10.0436 27.9486C9.91212 28.0755 9.75512 28.1728 9.58313 28.234C9.41113 28.2953 9.22809 28.319 9.04621 28.3037C8.86433 28.2885 8.68779 28.2345 8.52837 28.1454C8.36895 28.0562 8.23031 27.9341 8.12169 27.787C8.01308 27.6399 7.93699 27.4713 7.8985 27.2924C7.94688 27.2943 7.99587 27.298 8.04425 27.303Z" fill="black"/>
<path opacity="0.1" d="M7.67836 31.0936C8.0184 31.1093 8.35075 30.989 8.6024 30.7592C8.85406 30.5294 9.00444 30.2088 9.02052 29.8679C9.03025 29.6573 8.98762 29.4477 8.89648 29.2578C8.79468 29.3266 8.70708 29.4144 8.63846 29.5165C8.54729 29.6552 8.49147 29.815 8.38417 29.9419C8.18446 30.1776 7.84272 30.2528 7.53323 30.2404C7.22374 30.2279 6.92417 30.1384 6.61592 30.1098C6.57313 30.106 6.52971 30.1029 6.4863 30.1017C6.55008 30.3747 6.70104 30.6193 6.91622 30.7983C7.1314 30.9774 7.39902 31.081 7.67836 31.0936Z" fill="black"/>
<path opacity="0.1" d="M10.7944 33.1725C11.0134 33.1828 11.2315 33.1367 11.4278 33.0385C11.624 32.9404 11.7919 32.7934 11.9154 32.6116C12.0388 32.4299 12.1138 32.2194 12.1331 32.0004C12.1523 31.7813 12.1153 31.561 12.0255 31.3604C11.92 31.4303 11.8281 31.519 11.7545 31.6222C11.6546 31.7633 11.5926 31.9256 11.4754 32.0575C11.2589 32.2994 10.8948 32.3846 10.5667 32.3771C10.2492 32.3697 9.9428 32.2919 9.62711 32.2677C9.70535 32.5205 9.85938 32.743 10.0682 32.9049C10.2771 33.0668 10.5306 33.1602 10.7944 33.1725Z" fill="black"/>
<path opacity="0.1" d="M10.1604 35.6709C10.3108 35.9636 10.5673 36.1874 10.8771 36.2963C11.187 36.4052 11.5266 36.3909 11.8263 36.2564C12.126 36.1219 12.3629 35.8774 12.4883 35.5731C12.6137 35.2689 12.6181 34.928 12.5005 34.6206C12.3949 34.6893 12.2998 34.7731 12.2183 34.8694C12.0943 35.0186 12.0161 35.1878 11.8747 35.3271C11.6124 35.5851 11.1888 35.6915 10.8117 35.7002C10.5942 35.7033 10.3767 35.6935 10.1604 35.6709Z" fill="black"/>
<path d="M13.3658 37.5683C13.3658 37.5683 12.3529 37.5372 12.0472 37.3195C11.7414 37.1019 10.4892 36.8413 10.4135 37.1908C10.3378 37.5403 8.89086 38.932 10.0345 38.9389C11.1782 38.9457 12.6922 38.7604 12.9967 38.5738C13.3013 38.3873 13.3658 37.5683 13.3658 37.5683Z" fill="#656380"/>
<path opacity="0.2" d="M10.0166 38.8167C11.1603 38.826 12.6742 38.6382 12.9788 38.4523C13.2107 38.3105 13.3038 37.8018 13.3341 37.5674H13.3683C13.3683 37.5674 13.3062 38.3864 12.9992 38.5723C12.6922 38.7583 11.1807 38.9454 10.0371 38.9374C9.70709 38.9374 9.59297 38.8167 9.59918 38.6426C9.64445 38.7489 9.7685 38.8148 10.0166 38.8167Z" fill="black"/>
<path d="M53.4172 35.0493C53.4068 35.0754 53.4001 35.1028 53.3973 35.1307C53.2987 35.7818 52.7312 36.2626 52.524 36.8875C52.3912 37.2938 52.4174 37.7355 52.5972 38.1232C52.6296 38.1775 52.6489 38.2386 52.6537 38.3017C52.6537 38.3639 52.604 38.4316 52.5414 38.426C52.3913 38.4161 52.2728 38.3017 52.1476 38.2208C51.9909 38.124 51.8547 37.9972 51.7469 37.8477C51.6934 37.7726 51.6554 37.6875 51.6351 37.5975C51.6148 37.5075 51.6125 37.4144 51.6284 37.3235C51.7029 36.9839 51.9615 36.6811 52.0421 36.3428L52.2536 35.4653C52.2824 35.2999 52.3413 35.1412 52.4273 34.997C52.4605 34.94 52.5121 34.8962 52.5737 34.8727C52.6097 34.8638 52.647 34.8609 52.6841 34.864C52.929 34.8745 53.184 34.9666 53.4172 35.0493Z" fill="#B16666"/>
<path d="M52.5482 38.0199C52.5706 38.015 52.5939 38.0167 52.6152 38.0249C52.6436 38.0444 52.6653 38.0722 52.6772 38.1045C52.7441 38.2289 52.8456 38.3311 52.9694 38.3986C53.0194 38.4209 53.0672 38.448 53.112 38.4795C53.1343 38.4956 53.1523 38.5169 53.1643 38.5417C53.1763 38.5664 53.182 38.5938 53.1809 38.6213C53.1709 38.7027 53.0822 38.7457 53.0041 38.7699C52.8363 38.8191 52.6606 38.8345 52.4868 38.8153C52.4218 38.8115 52.3583 38.7937 52.3008 38.7631C52.2444 38.7239 52.1958 38.6746 52.1575 38.6175C52.0216 38.4292 51.8679 38.2545 51.6985 38.0958C51.6123 38.0277 51.5319 37.9526 51.4579 37.8713C51.4211 37.8304 51.3932 37.7823 51.3758 37.7301C51.3584 37.6779 51.3519 37.6227 51.3568 37.5678C51.381 37.4061 51.5336 37.3004 51.6297 37.168C51.7841 37.367 51.9398 37.5691 52.0341 37.8029C52.0651 37.8969 52.1037 37.9882 52.1494 38.0759C52.1935 38.1487 52.2567 38.2326 52.3355 38.1853C52.4143 38.1381 52.4335 38.0398 52.5482 38.0199Z" fill="#F20000"/>
<path d="M54.4126 30.2778C54.4589 30.3947 54.4778 30.5206 54.4678 30.646L54.4622 31.5744C54.4658 31.755 54.4562 31.9356 54.4337 32.1148C54.3847 32.4376 54.2526 32.7429 54.1949 33.0644C54.1403 33.366 54.1509 33.6795 54.0622 33.973C53.9245 34.4276 53.5598 34.7876 53.4314 35.2453C53.4267 35.2731 53.4139 35.2988 53.3948 35.3193C53.3798 35.3314 53.3618 35.3391 53.3427 35.3417C53.24 35.3513 53.1367 35.3319 53.0444 35.2858L52.3776 35.0233C52.3317 35.0432 52.3001 34.9904 52.3026 34.9394C52.3104 34.8894 52.3336 34.8431 52.369 34.8069C52.4502 34.703 52.522 34.5921 52.5836 34.4755C52.7697 34.1018 52.8753 33.6931 52.8937 33.2759C52.9105 32.8609 52.8983 32.4453 52.8571 32.0321C52.8343 31.7328 52.8116 31.4339 52.7889 31.1354C52.7783 30.993 52.7702 30.8388 52.8509 30.72C52.9315 30.6012 53.0686 30.5521 53.2007 30.511C53.595 30.3894 54.0014 30.3113 54.4126 30.2778Z" fill="#3C354C"/>
<path opacity="0.1" d="M54.4126 30.2778C54.4589 30.3947 54.4778 30.5206 54.4678 30.646L54.4622 31.5744C54.4658 31.755 54.4562 31.9356 54.4337 32.1148C54.3847 32.4376 54.2526 32.7429 54.1949 33.0644C54.1403 33.366 54.1509 33.6795 54.0622 33.973C53.9245 34.4276 53.5598 34.7876 53.4314 35.2453C53.4267 35.2731 53.4139 35.2988 53.3948 35.3193C53.3798 35.3314 53.3618 35.3391 53.3427 35.3417C53.24 35.3513 53.1367 35.3319 53.0444 35.2858L52.3776 35.0233C52.3317 35.0432 52.3001 34.9904 52.3026 34.9394C52.3104 34.8894 52.3336 34.8431 52.369 34.8069C52.4502 34.703 52.522 34.5921 52.5836 34.4755C52.7697 34.1018 52.8753 33.6931 52.8937 33.2759C52.9105 32.8609 52.8983 32.4453 52.8571 32.0321C52.8343 31.7328 52.8116 31.4339 52.7889 31.1354C52.7783 30.993 52.7702 30.8388 52.8509 30.72C52.9315 30.6012 53.0686 30.5521 53.2007 30.511C53.595 30.3894 54.0014 30.3113 54.4126 30.2778Z" fill="black"/>
<path d="M55.8726 31.6845C55.7807 31.8178 55.7059 31.9622 55.6499 32.1142C55.6159 32.2286 55.5908 32.3454 55.5749 32.4637C55.4881 33.0128 55.4006 33.5669 55.4341 34.1216C55.38 34.1345 55.3237 34.1342 55.2697 34.1208C55.2158 34.1073 55.1658 34.0812 55.124 34.0445C55.0405 33.9704 54.9717 33.8811 54.9212 33.7814C54.8582 33.6738 54.8024 33.562 54.7543 33.4469C54.6479 33.1884 54.5941 32.9112 54.5962 32.6316C54.5945 32.6088 54.5983 32.586 54.6073 32.565C54.616 32.5502 54.6271 32.537 54.6402 32.5259C55.0043 32.1801 55.2139 31.7056 55.4143 31.2448C55.486 31.0942 55.5418 30.9364 55.5805 30.774C55.6134 30.6099 55.6158 30.4283 55.7194 30.2971C55.8124 30.1802 55.9675 30.131 56.1126 30.1105C56.2182 30.0918 56.3265 30.0962 56.4302 30.1236C56.5431 30.1584 56.8104 30.2909 56.8259 30.4246C56.8414 30.5583 56.6032 30.7293 56.5257 30.8182C56.2876 31.0909 56.0694 31.3804 55.8726 31.6845Z" fill="#B16666"/>
<path d="M55.6512 34.1165C55.7306 34.2502 55.8416 34.3994 55.7851 34.5437C55.7287 34.688 55.5222 34.7203 55.3981 34.6314C55.3625 34.6041 55.33 34.5728 55.3014 34.5381C54.9588 34.1547 54.6477 33.7442 54.371 33.3105C54.2681 33.1495 54.1676 32.9778 54.1502 32.7876C54.147 32.7664 54.15 32.7448 54.1589 32.7254C54.1711 32.7076 54.1878 32.6934 54.2073 32.6843C54.3767 32.5882 54.557 32.513 54.7444 32.4604C54.7399 32.6734 54.7949 32.8835 54.9032 33.0668C54.9824 33.1995 55.0508 33.3385 55.1079 33.4822C55.15 33.5867 55.1935 33.5947 55.302 33.596C55.3894 33.596 55.4521 33.5854 55.4943 33.6743C55.5612 33.8136 55.5662 33.9735 55.6512 34.1165Z" fill="#F20000"/>
<path d="M53.3266 28.7062C54.1242 28.7186 54.9206 28.7746 55.7163 28.8306L56.2336 28.8673C56.386 28.8717 56.5373 28.8943 56.6845 28.9344C56.8246 28.9853 56.9586 29.0518 57.0839 29.1328C57.1269 29.1546 57.1649 29.1851 57.1955 29.2223C57.2194 29.2602 57.2354 29.3025 57.2427 29.3467C57.272 29.4395 57.2819 29.5373 57.2718 29.634C57.2565 29.7032 57.2308 29.7697 57.1955 29.8312L56.8333 30.5488C56.7174 30.5109 56.6274 30.435 56.5139 30.3902C56.3773 30.344 56.2349 30.3168 56.0909 30.3094L55.7138 30.2721C55.7015 30.2493 55.6977 30.2228 55.7033 30.1974C55.3721 30.3131 55.0421 30.4207 54.7109 30.5364C54.1031 30.7484 53.4941 30.9611 52.9086 31.2297C52.8217 31.2695 52.7225 31.3112 52.6338 31.2776C52.6018 31.264 52.5726 31.2446 52.5476 31.2204C52.4026 31.0821 52.3086 30.8986 52.2809 30.6999C52.2534 30.5027 52.2563 30.3024 52.2896 30.106C52.3454 29.7012 52.4676 29.2777 52.7765 29.0109C52.9396 28.866 53.1108 28.7006 53.3266 28.7062Z" fill="#3C354C"/>
<path opacity="0.1" d="M56.4997 29.4053C56.3214 29.4921 56.1501 29.5927 55.9874 29.7063C55.963 29.7223 55.9403 29.7408 55.9198 29.7616C55.9047 29.7789 55.8908 29.7972 55.8782 29.8163C55.7981 29.9205 55.7387 30.0392 55.7033 30.1658" stroke="black" stroke-miterlimit="10"/>
<path d="M48.2904 28.4358C48.1788 28.5297 48.113 28.6652 48.0343 28.7884C47.8451 29.0868 47.5734 29.3269 47.3867 29.6273C47.3067 29.7566 47.2404 29.8996 47.1263 30.0004C46.9898 30.1248 46.8013 30.1677 46.6189 30.182C46.4546 30.1938 46.2809 30.1857 46.1358 30.2647C46.0117 30.3331 45.9249 30.4568 45.8455 30.5756V30.5793C45.829 30.6042 45.8208 30.6337 45.8221 30.6636C45.8234 30.6934 45.8342 30.7221 45.8528 30.7454C45.8715 30.7686 45.8971 30.7854 45.9259 30.7931C45.9547 30.8008 45.9852 30.7991 46.013 30.7883C46.1463 30.7365 46.2839 30.6964 46.4242 30.6683C46.548 30.6493 46.6703 30.6215 46.7901 30.5849C46.9052 30.5388 47.015 30.4802 47.1176 30.4102C47.2077 30.3563 47.2937 30.2958 47.375 30.2292C47.4748 30.144 47.561 30.0427 47.6553 29.9525C47.7934 29.8384 47.9384 29.7329 48.0895 29.6366C48.4865 29.3578 48.8176 28.995 49.0595 28.5738C49.0885 28.5325 49.1039 28.4832 49.1035 28.4326C49.0947 28.3862 49.0732 28.3432 49.0415 28.3083C48.9317 28.1683 48.8319 28.0539 48.6793 28.1839C48.559 28.284 48.4082 28.3331 48.2904 28.4358Z" fill="#B16666"/>
<path d="M51.4107 25.4056C51.412 25.4454 51.4259 25.4837 51.4504 25.515C51.4914 25.5567 51.559 25.548 51.6173 25.5443C51.6969 25.5363 51.7773 25.5458 51.8529 25.5721C51.9286 25.5984 51.9976 25.6409 52.0551 25.6966C52.1612 25.8079 52.2028 25.9653 52.2276 26.1176C52.2556 26.2443 52.2517 26.3759 52.2164 26.5007C52.1576 26.645 52.044 26.7599 51.9007 26.8203C51.7589 26.8799 51.6086 26.9168 51.4554 26.9298C51.3282 26.9522 51.1981 26.9522 51.0709 26.9298C50.9201 26.895 50.7893 26.8054 50.6534 26.7302C50.5584 26.6847 50.4666 26.6328 50.3787 26.5747C50.2901 26.5154 50.2263 26.4256 50.1994 26.3222C50.1916 26.2961 50.1917 26.2682 50.1998 26.2422C50.2079 26.2162 50.2235 26.1931 50.2447 26.1761C50.2668 26.1658 50.2901 26.1587 50.3142 26.1549C50.3647 26.1421 50.4109 26.1161 50.448 26.0795C50.4852 26.0429 50.512 25.997 50.5257 25.9466C50.5672 25.7855 50.4674 25.6232 50.4574 25.4572C50.4525 25.4091 50.4627 25.3606 50.4866 25.3185C50.5226 25.2726 50.5711 25.2381 50.6262 25.219L50.9363 25.0797C51.0297 25.0281 51.1275 24.9846 51.2284 24.9498C51.327 24.9243 51.3338 24.9927 51.3524 25.0741C51.3754 25.1854 51.3958 25.2955 51.4107 25.4056Z" fill="#FFC1C7"/>
<path d="M51.4107 25.4056C51.412 25.4454 51.4259 25.4837 51.4504 25.515C51.4914 25.5567 51.559 25.548 51.6173 25.5443C51.6969 25.5363 51.7773 25.5458 51.8529 25.5721C51.9286 25.5984 51.9976 25.6409 52.0551 25.6966C52.1612 25.8079 52.2028 25.9653 52.2276 26.1176C52.2556 26.2443 52.2517 26.3759 52.2164 26.5007C52.1576 26.645 52.044 26.7599 51.9007 26.8203C51.7589 26.8799 51.6086 26.9168 51.4554 26.9298C51.3282 26.9522 51.1981 26.9522 51.0709 26.9298C50.9201 26.895 50.7893 26.8054 50.6534 26.7302C50.5584 26.6847 50.4666 26.6328 50.3787 26.5747C50.2901 26.5154 50.2263 26.4256 50.1994 26.3222C50.1916 26.2961 50.1917 26.2682 50.1998 26.2422C50.2079 26.2162 50.2235 26.1931 50.2447 26.1761C50.2668 26.1658 50.2901 26.1587 50.3142 26.1549C50.3647 26.1421 50.4109 26.1161 50.448 26.0795C50.4852 26.0429 50.512 25.997 50.5257 25.9466C50.5672 25.7855 50.4674 25.6232 50.4574 25.4572C50.4525 25.4091 50.4627 25.3606 50.4866 25.3185C50.5226 25.2726 50.5711 25.2381 50.6262 25.219L50.9363 25.0797C51.0297 25.0281 51.1275 24.9846 51.2284 24.9498C51.327 24.9243 51.3338 24.9927 51.3524 25.0741C51.3754 25.1854 51.3958 25.2955 51.4107 25.4056Z" fill="#985555"/>
<path d="M50.6038 25.6652C51.031 25.6652 51.3772 25.318 51.3772 24.8897C51.3772 24.4614 51.031 24.1143 50.6038 24.1143C50.1767 24.1143 49.8304 24.4614 49.8304 24.8897C49.8304 25.318 50.1767 25.6652 50.6038 25.6652Z" fill="#B16666"/>
<path d="M51.5025 25.5967C51.6173 25.5447 51.7403 25.5136 51.866 25.5047C51.9288 25.5009 51.9917 25.5109 52.0502 25.5341C52.1087 25.5573 52.1614 25.5931 52.2046 25.639C52.2772 25.7242 52.3014 25.8393 52.359 25.9344C52.4732 26.121 52.6958 26.2062 52.8738 26.3337C52.9158 26.3612 52.952 26.3967 52.9805 26.4381C53.0425 26.5327 53.0258 26.6539 53.0245 26.7659C53.0306 27.0429 53.1091 27.3135 53.2522 27.5507C53.3953 27.7869 53.5593 28.0098 53.7421 28.2167C53.7851 28.2641 53.8211 28.3175 53.8488 28.3753C53.8922 28.4797 53.8798 28.606 53.9443 28.6986C53.7892 28.6792 53.6316 28.7007 53.4872 28.7608C53.2633 28.8535 53.2528 29.1818 53.1473 29.4007C52.9526 29.8056 52.6822 30.1681 52.4248 30.5363C52.3571 30.6241 52.2996 30.7195 52.2536 30.8204C52.2077 30.7228 52.2393 30.6065 52.2338 30.4989C52.2214 30.2583 52.0824 30.0425 52.0433 29.8049C52.03 29.686 52.0232 29.5664 52.0229 29.4467C52.0124 29.2655 51.9732 29.0871 51.9069 28.9181C51.8302 28.7378 51.7381 28.5645 51.6315 28.4001C51.5817 28.3027 51.5107 28.2177 51.4237 28.1514C51.3208 28.0842 51.1788 28.0649 51.1136 27.9605C51.0979 27.9241 51.077 27.8902 51.0516 27.8597C51.03 27.8434 51.0056 27.831 50.9797 27.823C50.8529 27.7633 50.7303 27.6951 50.6125 27.6191C50.4885 27.5513 50.3477 27.5009 50.2106 27.5314C49.9565 27.827 49.6686 28.0917 49.3528 28.3199C49.2548 28.392 49.1494 28.466 49.101 28.578C48.9466 28.5039 48.8082 28.4001 48.6935 28.2726C48.6754 28.2548 48.6606 28.2337 48.6501 28.2105C48.6185 28.1197 48.7121 28.0382 48.7866 27.981C49.0652 27.7704 49.2789 27.4852 49.4031 27.1583C49.4831 26.9474 49.5358 26.7049 49.7181 26.5725C49.7759 26.5392 49.8305 26.5007 49.8813 26.4574C49.9262 26.3951 49.9676 26.3303 50.0053 26.2634C50.0448 26.2121 50.0985 26.1736 50.1598 26.1528C50.221 26.132 50.287 26.1298 50.3495 26.1465C50.4203 26.1742 50.4889 26.2073 50.5548 26.2453C50.7266 26.3231 50.9238 26.3075 51.113 26.2864L51.8393 26.2124C51.8512 26.1717 51.8526 26.1286 51.8433 26.0873C51.8339 26.0459 51.8142 26.0076 51.786 25.9761C51.7561 25.9479 51.724 25.9223 51.6898 25.8996C51.5947 25.823 51.5286 25.7162 51.5025 25.5967Z" fill="#F20000"/>
<path d="M51.0132 23.5495C51.1011 23.5823 51.1811 23.6332 51.2481 23.699C51.3151 23.7648 51.3676 23.8439 51.4021 23.9314C51.4239 24.0061 51.4513 24.079 51.4839 24.1496C51.5419 24.2325 51.6095 24.3081 51.6855 24.3748C51.755 24.4488 51.8145 24.5452 51.7984 24.6453C51.7922 24.6826 51.7761 24.7174 51.7711 24.7541C51.7494 24.9152 51.9317 25.0259 51.9876 25.1782C52.0601 25.3785 51.902 25.6173 51.9987 25.8063C52.0353 25.8772 52.1017 25.9307 52.1432 25.9929C52.1848 26.0551 52.1891 26.167 52.119 26.2049C52.0099 26.264 51.8834 26.0911 51.7674 26.1365C51.7376 26.1483 51.7147 26.1738 51.6855 26.1869C51.6043 26.2236 51.5094 26.1514 51.4827 26.0663C51.4658 25.9786 51.4674 25.8883 51.4877 25.8013C51.4975 25.7578 51.4982 25.7127 51.4897 25.6689C51.4811 25.6251 51.4635 25.5836 51.438 25.547C51.3909 25.4929 51.314 25.4717 51.265 25.4226C51.1757 25.3318 51.1924 25.1857 51.203 25.0588C51.2222 24.8026 51.1763 24.5221 50.9933 24.3418C50.9894 24.3367 50.9845 24.3324 50.9788 24.3293C50.9731 24.3262 50.9669 24.3243 50.9605 24.3238C50.9473 24.3262 50.9356 24.3335 50.9276 24.3443C50.8443 24.4318 50.751 24.5093 50.6497 24.575C50.6212 24.597 50.5865 24.6096 50.5505 24.6111C50.5152 24.6111 50.4798 24.575 50.4885 24.5408C50.4006 24.5816 50.3218 24.6395 50.2565 24.7112C50.2424 24.6774 50.236 24.6408 50.2379 24.6042C50.2039 24.6722 50.1623 24.736 50.1139 24.7945C50.0645 24.8476 50.0189 24.9042 49.9774 24.9637C49.9569 24.9936 49.9432 25.0276 49.9372 25.0634C49.9312 25.0991 49.9331 25.1358 49.9427 25.1708C50.0122 25.3704 50.3663 25.3244 50.4432 25.5215C50.46 25.5656 50.4593 25.6142 50.4767 25.6577C50.5108 25.7423 50.6007 25.7821 50.6752 25.838C50.7496 25.894 50.8141 25.9891 50.7694 26.0681C50.7304 26.1359 50.6392 26.1434 50.5635 26.1608C50.4988 26.1769 50.438 26.2059 50.3847 26.246C50.3315 26.2862 50.2868 26.3367 50.2534 26.3946C50.2357 26.4371 50.2083 26.4748 50.1734 26.5047C50.1421 26.5208 50.1075 26.5293 50.0723 26.5295C49.9669 26.5383 49.8459 26.5407 49.7734 26.4674C49.676 26.3648 49.7219 26.1782 49.6227 26.0774C49.5997 26.0551 49.5712 26.0389 49.5495 26.0153C49.5269 25.986 49.5104 25.9525 49.5009 25.9167C49.4914 25.8809 49.4892 25.8436 49.4943 25.8069C49.5042 25.5999 49.5805 25.3971 49.5687 25.19C49.5504 25.053 49.5241 24.9172 49.4899 24.7833C49.4596 24.627 49.4637 24.466 49.5018 24.3115C49.5399 24.1569 49.6112 24.0125 49.7107 23.8885C49.8794 23.6901 50.0996 23.6124 50.3489 23.5775C50.571 23.5446 50.7856 23.4668 51.0132 23.5495Z" fill="#3C354C"/>
</g>
<defs>
<clipPath id="clip0">
<rect width="73" height="40" fill="white"/>
</clipPath>
</defs>
</svg>
