<svg width="108" height="16" viewBox="0 0 108 16" fill="none" xmlns="http://www.w3.org/2000/svg">
<g clip-path="url(#clip0)">
<path d="M9.43486 15.338C11.9656 15.3678 14.0795 14.1663 15.6102 12.9365C13.8925 13.8923 11.7779 14.6504 9.35845 14.6137C7.08464 14.5793 5.08734 13.8511 3.44409 12.9365C4.94417 14.1416 6.99087 15.3091 9.43486 15.338Z" fill="#F20000"/>
<path d="M9.43486 15.338C11.9656 15.3678 14.0795 14.1663 15.6102 12.9365C13.8925 13.8923 11.7779 14.6504 9.35845 14.6137C7.08464 14.5793 5.08734 13.8511 3.44409 12.9365C4.94417 14.1416 6.99087 15.3091 9.43486 15.338Z" fill="#F20000"/>
<path d="M9.43486 15.9998C11.9656 16.0379 14.0795 14.5053 15.6102 12.9365C13.8925 14.1557 11.7779 15.1227 9.35845 15.0759C7.08438 15.0317 5.08734 14.1036 3.44409 12.9368C4.94417 14.4737 6.99087 15.9629 9.43486 15.9998Z" fill="#F20000"/>
<path d="M8.6041 4.97979L8.17986 4.55224C8.11206 4.4847 8.0317 4.43132 7.94338 4.39514C7.85506 4.35896 7.76052 4.34071 7.66519 4.34142C7.57059 4.3397 7.47664 4.35752 7.38914 4.39378C7.30163 4.43004 7.22242 4.48396 7.15639 4.55224L4.40676 7.32262L1.6574 4.55233C1.59137 4.48405 1.51216 4.43012 1.42465 4.39387C1.33715 4.35761 1.2432 4.33979 1.1486 4.34151C1.05325 4.34078 0.958697 4.35903 0.870362 4.39521C0.782026 4.43139 0.701648 4.48478 0.633837 4.55233L0.214866 4.97988C0.145746 5.04695 0.0910108 5.12759 0.0540439 5.21682C0.017077 5.30605 -0.00133609 5.40197 -5.75511e-05 5.49865C-0.00230046 5.59457 0.0156994 5.68987 0.0527506 5.77825C0.0898018 5.86663 0.14506 5.94607 0.214866 6.01132L3.89752 9.7222C3.96228 9.79253 4.04113 9.8482 4.12884 9.88554C4.21655 9.92287 4.31113 9.94101 4.40632 9.93876C4.50229 9.94006 4.5975 9.92151 4.68607 9.88426C4.77464 9.84701 4.85469 9.79185 4.92126 9.7222L8.60392 6.0115C8.67171 5.94498 8.72526 5.86517 8.76128 5.777C8.79729 5.68883 8.815 5.59416 8.81332 5.49883C8.81408 5.40269 8.79599 5.30735 8.76009 5.21828C8.72418 5.12921 8.67117 5.04816 8.6041 4.97979V4.97979Z" fill="#0553C8"/>
<path d="M18.863 9.07492L18.2889 9.65363C18.1971 9.74504 18.0883 9.8173 17.9688 9.86626C17.8493 9.91523 17.7213 9.93993 17.5923 9.93896C17.4641 9.94134 17.3369 9.91726 17.2184 9.86819C17.0998 9.81911 16.9925 9.74609 16.9031 9.65363L13.182 5.90404L9.46104 9.6531C9.37161 9.74558 9.26432 9.81862 9.14579 9.86771C9.02726 9.9168 8.9 9.9409 8.77188 9.93851C8.64282 9.93948 8.51484 9.91477 8.39528 9.86579C8.27573 9.81681 8.16694 9.74453 8.07517 9.6531L7.50856 9.07439C7.41509 8.98366 7.34105 8.87459 7.29102 8.75391C7.24099 8.63324 7.21603 8.50351 7.21767 8.37274C7.21458 8.24286 7.23892 8.11381 7.28907 7.99412C7.33922 7.87444 7.41403 7.76686 7.50856 7.67851L12.493 2.65617C12.5807 2.56091 12.6875 2.48551 12.8063 2.43498C12.9251 2.38445 13.0532 2.35993 13.1821 2.36306C13.3119 2.36137 13.4407 2.3865 13.5606 2.43692C13.6804 2.48733 13.7887 2.56195 13.8787 2.65617L18.8631 7.67851C18.9549 7.76859 19.0274 7.87667 19.0761 7.99606C19.1249 8.11546 19.1488 8.24366 19.1465 8.37274C19.1474 8.50282 19.1229 8.63181 19.0742 8.75231C19.0256 8.87281 18.9538 8.98244 18.863 9.07492V9.07492Z" fill="#08B29B"/>
<path d="M26.889 14.6091C26.7978 14.6118 26.707 14.5957 26.6222 14.5618C26.5374 14.5279 26.4604 14.4768 26.3959 14.4117C26.3314 14.3467 26.2807 14.2692 26.247 14.1837C26.2133 14.0983 26.1973 14.0068 26.2001 13.9149V7.85736C26.196 7.76426 26.2114 7.67134 26.2451 7.58457C26.2788 7.4978 26.3302 7.4191 26.3959 7.35353C26.4614 7.2903 26.5388 7.24087 26.6234 7.20814C26.7081 7.17542 26.7984 7.16006 26.889 7.16296C26.9809 7.15877 27.0726 7.17351 27.1586 7.20628C27.2445 7.23904 27.323 7.28915 27.3891 7.35353C27.453 7.42012 27.5027 7.49916 27.5352 7.58579C27.5677 7.67242 27.5824 7.76483 27.5782 7.85736V13.9149C27.5811 14.0062 27.5658 14.0972 27.5334 14.1825C27.5009 14.2678 27.4518 14.3457 27.3891 14.4117C27.324 14.4779 27.2459 14.5297 27.1598 14.5637C27.0737 14.5977 26.9814 14.6132 26.889 14.6091V14.6091ZM26.889 5.95163C26.7719 5.953 26.6557 5.93018 26.5477 5.88458C26.4397 5.83897 26.342 5.77154 26.2608 5.68646C26.1764 5.60465 26.1095 5.50629 26.0642 5.39742C26.019 5.28856 25.9963 5.17151 25.9977 5.05348C25.9963 4.93546 26.019 4.8184 26.0642 4.70954C26.1095 4.60068 26.1764 4.50231 26.2608 4.42051C26.342 4.33542 26.4397 4.26799 26.5477 4.22239C26.6557 4.17678 26.7719 4.15396 26.889 4.15533C27.0062 4.15396 27.1223 4.17678 27.2304 4.22239C27.3384 4.26799 27.436 4.33542 27.5172 4.42051C27.6017 4.50231 27.6686 4.60068 27.7139 4.70954C27.7591 4.8184 27.7818 4.93546 27.7804 5.05348C27.7818 5.17151 27.7591 5.28856 27.7139 5.39742C27.6686 5.50629 27.6017 5.60465 27.5172 5.68646C27.436 5.77154 27.3384 5.83897 27.2304 5.88458C27.1223 5.93018 27.0062 5.953 26.889 5.95163ZM36.089 14.6227C35.9978 14.6255 35.907 14.6094 35.8222 14.5754C35.7374 14.5415 35.6604 14.4904 35.5959 14.4253C35.5313 14.3604 35.4807 14.2828 35.447 14.1973C35.4133 14.1119 35.3973 14.0204 35.4 13.9285V10.5798C35.4 10.0626 35.3055 9.64058 35.1163 9.31388C34.9402 8.99951 34.6742 8.74578 34.3531 8.58562C34.0093 8.42146 33.6324 8.33991 33.252 8.34741C32.8966 8.34226 32.545 8.42154 32.2256 8.57882C31.9346 8.72013 31.6837 8.93316 31.4961 9.19818C31.3152 9.45934 31.2207 9.77134 31.2259 10.0898H30.375C30.3663 9.55036 30.5093 9.01945 30.7873 8.5584C31.0629 8.10822 31.4518 7.73955 31.9146 7.48983C32.4084 7.22253 32.9617 7.08666 33.5222 7.09507C34.103 7.08518 34.6769 7.22331 35.1906 7.49663C35.6836 7.76649 36.0875 8.17579 36.3525 8.6741C36.6362 9.19137 36.778 9.82662 36.778 10.5798V13.9285C36.7807 14.0204 36.7648 14.1119 36.7311 14.1973C36.6974 14.2828 36.6467 14.3604 36.5821 14.4253C36.5176 14.4904 36.4406 14.5415 36.3558 14.5754C36.271 14.6094 36.1802 14.6255 36.089 14.6227V14.6227ZM30.5366 14.6227C30.4454 14.6255 30.3546 14.6094 30.2698 14.5754C30.185 14.5415 30.108 14.4904 30.0435 14.4253C29.9789 14.3604 29.9282 14.2828 29.8946 14.1973C29.8609 14.1119 29.8449 14.0204 29.8476 13.9285V7.85736C29.8436 7.76426 29.8589 7.67134 29.8927 7.58457C29.9264 7.4978 29.9778 7.4191 30.0435 7.35353C30.109 7.2903 30.1863 7.24087 30.271 7.20814C30.3557 7.17542 30.446 7.16006 30.5366 7.16296C30.6284 7.15877 30.7202 7.17351 30.8061 7.20628C30.8921 7.23904 30.9705 7.28915 31.0366 7.35353C31.1005 7.42012 31.1503 7.49916 31.1828 7.58579C31.2153 7.67242 31.2299 7.76483 31.2258 7.85736V13.9285C31.2286 14.0198 31.2134 14.1108 31.1809 14.1961C31.1484 14.2814 31.0994 14.3594 31.0366 14.4253C30.9716 14.4915 30.8935 14.5433 30.8073 14.5773C30.7212 14.6113 30.629 14.6268 30.5366 14.6227V14.6227ZM40.8579 14.5955C40.5787 14.5955 40.3625 14.4457 40.2094 14.1463L37.3454 8.06155C37.31 7.99136 37.29 7.91438 37.2865 7.83574C37.283 7.75711 37.2962 7.67863 37.3251 7.60553C37.3904 7.44882 37.5141 7.32417 37.6696 7.25842C37.7399 7.21851 37.8179 7.19422 37.8983 7.18718C37.9787 7.18014 38.0596 7.1905 38.1357 7.21758C38.2913 7.27032 38.42 7.38284 38.4937 7.53067L41.1686 13.3431H40.5201L43.168 7.53067C43.206 7.4561 43.2585 7.38997 43.3223 7.33619C43.3861 7.28241 43.46 7.24208 43.5395 7.21758C43.7071 7.16317 43.8892 7.17786 44.0461 7.25842C44.1211 7.28872 44.1888 7.33473 44.2447 7.3934C44.3007 7.45207 44.3436 7.52206 44.3707 7.59873C44.3975 7.6737 44.409 7.75337 44.4043 7.83293C44.3997 7.91249 44.379 7.99026 44.3437 8.06155L41.4793 14.1463C41.3442 14.4457 41.1371 14.5955 40.8579 14.5955ZM48.6662 14.6635C47.9719 14.6766 47.2859 14.5103 46.6735 14.1803C46.1055 13.8707 45.6333 13.4091 45.3091 12.8463C44.9733 12.2517 44.8029 11.5768 44.816 10.8928C44.8018 10.2077 44.9623 9.53026 45.2822 8.92549C45.5821 8.36954 46.0286 7.90788 46.5724 7.59148C47.1484 7.26236 47.8017 7.09544 48.4637 7.10824C49.1662 7.10824 49.7696 7.26478 50.274 7.57787C50.7751 7.88726 51.1763 8.33647 51.4291 8.87104C51.7044 9.46493 51.8408 10.1146 51.8276 10.77C51.8298 10.8498 51.8154 10.9293 51.7851 11.0032C51.7549 11.077 51.7096 11.1437 51.6521 11.1988C51.5927 11.2555 51.5227 11.2998 51.4462 11.329C51.3697 11.3582 51.2881 11.3718 51.2063 11.3689H45.7618V10.2799H51.1656L50.6117 10.6611C50.6101 10.2401 50.5179 9.82442 50.3415 9.44276C50.1811 9.09669 49.9286 8.8022 49.612 8.59199C49.2685 8.37527 48.8688 8.2663 48.4637 8.2789C48.0016 8.26535 47.5451 8.38329 47.1465 8.61921C46.7855 8.84195 46.4967 9.16601 46.3157 9.55166C46.1212 9.97106 46.0242 10.4296 46.032 10.8925C46.0238 11.3596 46.1405 11.8204 46.3698 12.2265C46.5921 12.6139 46.9142 12.9337 47.3019 13.1521C47.7192 13.3844 48.1898 13.5017 48.6664 13.4924C48.9591 13.49 49.2492 13.4371 49.5242 13.3359C49.7772 13.252 50.0163 13.1304 50.2335 12.9752C50.3601 12.8783 50.5136 12.8236 50.6725 12.8186C50.823 12.8115 50.9705 12.8627 51.0848 12.9616C51.1536 13.0158 51.2107 13.0836 51.2525 13.1608C51.2943 13.2381 51.32 13.3231 51.328 13.4108C51.3311 13.4939 51.3128 13.5764 51.275 13.6504C51.2371 13.7243 51.1809 13.7871 51.1119 13.8327C50.7686 14.0977 50.3822 14.3005 49.97 14.4323C49.5508 14.5803 49.1104 14.6584 48.6662 14.6635V14.6635ZM55.9748 14.6635C55.3792 14.6694 54.7871 14.5704 54.2254 14.3709C53.6895 14.1758 53.2729 13.9285 52.9757 13.629C52.9116 13.5648 52.863 13.4866 52.8337 13.4004C52.8044 13.3143 52.7952 13.2225 52.8069 13.1321C52.8169 13.0419 52.8456 12.9548 52.8909 12.8763C52.9362 12.7978 52.9972 12.7296 53.07 12.6761C53.1416 12.6101 53.226 12.5597 53.3178 12.5281C53.4096 12.4965 53.5069 12.4843 53.6037 12.4924C53.778 12.5144 53.9387 12.599 54.0562 12.7306C54.2093 12.903 54.4548 13.0641 54.7925 13.2138C55.1489 13.3674 55.5334 13.4439 55.921 13.4384C56.4433 13.4384 56.8419 13.3522 57.1166 13.1798C57.3913 13.0074 57.5331 12.785 57.5421 12.5128C57.5511 12.2405 57.4228 12.0046 57.1571 11.8049C56.8914 11.6053 56.4073 11.4419 55.7048 11.3149C54.7952 11.1334 54.1355 10.8612 53.7257 10.4982C53.5311 10.3359 53.375 10.132 53.2687 9.90117C53.1623 9.67038 53.1085 9.41858 53.111 9.16415C53.0962 8.74278 53.2411 8.33153 53.5163 8.0139C53.7996 7.7012 54.1577 7.46687 54.5565 7.33329C54.982 7.18318 55.4297 7.10723 55.8804 7.10868C56.4208 7.09868 56.9579 7.1958 57.4611 7.39454C57.8862 7.56024 58.2627 7.83188 58.5553 8.18406C58.6134 8.24437 58.6588 8.3158 58.689 8.39414C58.7191 8.47247 58.7333 8.5561 58.7308 8.64007C58.7254 8.72021 58.7019 8.79805 58.6621 8.86764C58.6223 8.93724 58.5672 8.99675 58.5011 9.04164C58.4264 9.09172 58.3424 9.12599 58.2541 9.14237C58.1659 9.15875 58.0753 9.1569 57.9878 9.13692C57.8009 9.10625 57.6271 9.02106 57.4877 8.8919C57.2829 8.68654 57.033 8.53265 56.7582 8.44269C56.4643 8.35644 56.1592 8.31514 55.8531 8.32018C55.5065 8.30973 55.1622 8.37959 54.8466 8.52437C54.5717 8.66049 54.4343 8.86014 54.4343 9.12331C54.4325 9.28036 54.4772 9.43439 54.5627 9.56571C54.6482 9.6973 54.8171 9.81515 55.0693 9.91928C55.4288 10.0541 55.7995 10.1566 56.177 10.2256C56.8525 10.3617 57.3861 10.5341 57.7779 10.7428C58.1697 10.9516 58.4513 11.1943 58.6229 11.4712C58.7973 11.7599 58.8863 12.0929 58.8796 12.4308C58.8842 12.8324 58.7689 13.2261 58.5486 13.5607C58.3056 13.9151 57.9685 14.1935 57.5759 14.3638C57.1481 14.5636 56.6145 14.6635 55.975 14.6635H55.9748ZM63.0135 14.6091C62.5833 14.6149 62.1608 14.4943 61.7976 14.262C61.4356 14.0285 61.1418 13.7021 60.9467 13.3162C60.7354 12.8993 60.6287 12.4366 60.636 11.9686V5.47546C60.6327 5.3851 60.6477 5.29502 60.6803 5.21074C60.7128 5.12647 60.7621 5.04979 60.8251 4.98542C60.889 4.92191 60.9651 4.87225 61.0487 4.83947C61.1324 4.8067 61.2218 4.79151 61.3114 4.79485C61.4011 4.79151 61.4905 4.8067 61.5742 4.83947C61.6578 4.87225 61.7339 4.92191 61.7978 4.98542C61.8608 5.04979 61.9101 5.12647 61.9426 5.21074C61.9752 5.29502 61.9902 5.3851 61.9869 5.47546V11.9686C61.9759 12.2984 62.0812 12.6215 62.2841 12.8806C62.3689 12.9949 62.4789 13.0876 62.6056 13.1513C62.7322 13.2151 62.8719 13.2482 63.0135 13.2479H63.4728C63.5512 13.247 63.6288 13.2637 63.7001 13.2966C63.7714 13.3296 63.8346 13.378 63.8851 13.4384C64.0008 13.5744 64.061 13.7495 64.0537 13.9285C64.056 14.0219 64.0372 14.1146 63.9985 14.1995C63.9599 14.2844 63.9025 14.3593 63.8308 14.4185C63.6687 14.5502 63.4646 14.618 63.2566 14.6091H63.0135ZM60.0144 8.60604C59.846 8.6136 59.6814 8.55504 59.555 8.44269C59.4983 8.3914 59.4532 8.32834 59.423 8.25785C59.3927 8.18737 59.3779 8.11111 59.3796 8.03432C59.376 7.95328 59.3899 7.87241 59.4201 7.79724C59.4504 7.72207 59.4964 7.65436 59.555 7.59873C59.6814 7.48638 59.846 7.42782 60.0144 7.43538H63.1351C63.3034 7.42782 63.468 7.48638 63.5944 7.59873C63.653 7.65436 63.699 7.72207 63.7293 7.79724C63.7595 7.87241 63.7734 7.95328 63.7698 8.03432C63.7715 8.11111 63.7567 8.18737 63.7264 8.25785C63.6962 8.32834 63.6511 8.3914 63.5944 8.44269C63.468 8.55504 63.3034 8.6136 63.1351 8.60604H60.0144Z" fill="#0553C8"/>
<path d="M26.8667 6.18781C27.4481 6.18781 27.9194 5.71292 27.9194 5.12711C27.9194 4.5413 27.4481 4.06641 26.8667 4.06641C26.2853 4.06641 25.814 4.5413 25.814 5.12711C25.814 5.71292 26.2853 6.18781 26.8667 6.18781Z" fill="#F20000"/>
<path d="M69.9808 14.5664C69.8566 14.5681 69.7334 14.5442 69.6187 14.4961C69.5041 14.448 69.4004 14.3767 69.3141 14.2866C69.2236 14.1968 69.1522 14.0892 69.1044 13.9706C69.0567 13.8519 69.0336 13.7246 69.0365 13.5966V9.25095L64.0947 1.51091C63.9343 1.2498 63.8726 1.00422 63.9096 0.774161C63.9418 0.552484 64.0579 0.351968 64.2336 0.21464C64.4093 0.0727691 64.6286 -0.00304763 64.8537 0.00020122C65.0311 -0.00938235 65.2067 0.0397246 65.3538 0.140037C65.4936 0.251724 65.6126 0.387467 65.7054 0.540983L70.4066 8.0573H69.6662L74.4417 0.466468C74.5315 0.326158 74.6517 0.208272 74.7934 0.12174C74.9462 0.0366104 75.1189 -0.00526574 75.2934 0.000554593C75.397 -0.00206545 75.5 0.0173368 75.5957 0.0574976C75.6914 0.0976585 75.7776 0.157678 75.8487 0.233645C75.9977 0.391125 76.0891 0.595033 76.1078 0.811817C76.1281 1.05947 76.0627 1.30655 75.9227 1.51117L70.9434 9.25095V13.5966C70.9463 13.7246 70.9232 13.8519 70.8754 13.9706C70.8277 14.0892 70.7563 14.1968 70.6657 14.2866C70.5766 14.3779 70.4698 14.4498 70.352 14.498C70.2342 14.5461 70.1079 14.5694 69.9808 14.5664V14.5664ZM78.5879 14.5664C78.4629 14.5701 78.3386 14.5481 78.2224 14.5016C78.1062 14.455 78.0007 14.3851 77.9124 14.2959C77.824 14.2069 77.7545 14.1006 77.7084 13.9836C77.6622 13.8665 77.6403 13.7412 77.6441 13.6153V5.3153C77.6386 5.18778 77.6596 5.06051 77.7058 4.94167C77.752 4.82283 77.8224 4.71504 77.9124 4.62522C78.0021 4.5386 78.108 4.47089 78.224 4.42605C78.34 4.38122 78.4637 4.36016 78.5879 4.36411C78.7137 4.35843 78.8393 4.37865 78.957 4.42354C79.0748 4.46844 79.1822 4.53706 79.2728 4.62522C79.3602 4.71645 79.4284 4.8247 79.4729 4.94335C79.5175 5.062 79.5375 5.18856 79.5319 5.3153V13.6153C79.5358 13.7404 79.5149 13.8651 79.4704 13.9819C79.4259 14.0988 79.3587 14.2055 79.2728 14.2959C79.1836 14.3866 79.0767 14.4575 78.9587 14.5041C78.8408 14.5507 78.7145 14.5719 78.5879 14.5664V14.5664ZM78.5879 2.7042C78.4274 2.706 78.2682 2.67466 78.1202 2.6121C77.9721 2.54955 77.8384 2.4571 77.7271 2.34047C77.6114 2.22841 77.5197 2.09365 77.4576 1.9445C77.3955 1.79536 77.3644 1.63498 77.3662 1.47325C77.3644 1.31151 77.3955 1.15112 77.4576 1.00195C77.5196 0.85279 77.6114 0.718019 77.7271 0.605951C77.8384 0.489331 77.9721 0.396902 78.1202 0.33436C78.2682 0.271819 78.4274 0.240491 78.5879 0.242307C78.7484 0.240503 78.9076 0.271837 79.0556 0.334378C79.2036 0.396919 79.3373 0.489342 79.4486 0.605951C79.5643 0.718019 79.6561 0.85279 79.7181 1.00195C79.7802 1.15112 79.8113 1.31151 79.8095 1.47325C79.8113 1.63498 79.7802 1.79536 79.7181 1.9445C79.656 2.09365 79.5643 2.22841 79.4486 2.34047C79.3373 2.45709 79.2036 2.54953 79.0556 2.61209C78.9076 2.67464 78.7484 2.70599 78.5879 2.7042ZM87.3985 14.641C86.3743 14.641 85.4643 14.4203 84.6684 13.9789C83.8901 13.5547 83.2432 12.9222 82.7989 12.1511C82.3486 11.374 82.1234 10.4819 82.1234 9.47476C82.1234 8.4553 82.3363 7.55695 82.762 6.77969C83.1728 6.01795 83.7846 5.38542 84.5297 4.95192C85.2824 4.51049 86.1462 4.28977 87.1211 4.28977C88.0836 4.28977 88.9104 4.50427 89.6014 4.93327C90.2879 5.35718 90.8376 5.97266 91.1839 6.70508C91.5479 7.45736 91.7299 8.32469 91.7299 9.30708C91.7329 9.41652 91.7131 9.52538 91.6716 9.62659C91.6302 9.7278 91.568 9.81909 91.4893 9.89453C91.4079 9.97227 91.312 10.0329 91.2071 10.073C91.1023 10.113 90.9905 10.1316 90.8785 10.1277H83.4189V8.6353H90.8229L90.064 9.15752C90.0617 8.58067 89.9354 8.01117 89.6938 7.48824C89.474 7.01421 89.1282 6.61081 88.6947 6.32279C88.2628 6.03681 87.7383 5.89382 87.1213 5.89382C86.418 5.89382 85.8164 6.04924 85.3167 6.36009C84.8219 6.66526 84.4263 7.10924 84.1783 7.63762C83.9116 8.21232 83.7786 8.84071 83.7891 9.47502C83.7779 10.1151 83.9378 10.7464 84.2519 11.3028C84.5566 11.8337 84.9978 12.2718 85.5291 12.571C86.1008 12.8892 86.7456 13.05 87.3985 13.0372C87.7997 13.0339 88.1973 12.9613 88.574 12.8227C88.9206 12.7077 89.2481 12.5411 89.5456 12.3283C89.7192 12.1956 89.9294 12.1206 90.1472 12.1138C90.3533 12.1041 90.5552 12.1742 90.7117 12.3096C90.806 12.3838 90.8842 12.4767 90.9415 12.5826C90.9989 12.6884 91.0341 12.805 91.0451 12.925C91.0574 13.149 90.9587 13.3417 90.7489 13.5032C90.2786 13.8659 89.7494 14.1435 89.1849 14.3238C88.6105 14.5267 88.0071 14.6339 87.3985 14.641V14.641ZM96.1352 14.5664C95.619 14.5748 95.1136 14.418 94.6914 14.1188C94.2615 13.8076 93.9227 13.3857 93.7104 12.8971C93.4668 12.336 93.3468 11.7284 93.3587 11.116V0.932736C93.3541 0.808875 93.3748 0.685384 93.4193 0.569857C93.4639 0.45433 93.5315 0.349209 93.6178 0.260957C93.7054 0.173927 93.8097 0.105867 93.9244 0.0609639C94.0391 0.0160605 94.1616 -0.00473742 94.2845 -0.000152154C94.4075 -0.00473742 94.53 0.0160605 94.6447 0.0609639C94.7593 0.105867 94.8637 0.173927 94.9512 0.260957C95.0376 0.349209 95.1052 0.45433 95.1497 0.569857C95.1943 0.685384 95.2149 0.808875 95.2104 0.932736V11.116C95.2104 11.5761 95.2968 11.9553 95.4695 12.2537C95.6423 12.5521 95.8645 12.7013 96.1362 12.7013H96.599C96.7121 12.6975 96.8247 12.719 96.9287 12.7641C97.0327 12.8092 97.1255 12.877 97.2005 12.9624C97.3592 13.1488 97.4419 13.3888 97.4319 13.6342C97.4331 13.7668 97.4016 13.8976 97.3402 14.0148C97.2788 14.1321 97.1895 14.2322 97.0802 14.306C96.8135 14.4897 96.4949 14.581 96.1722 14.5664H96.1352ZM102.91 14.641C101.998 14.6544 101.099 14.4192 100.309 13.9604C99.5466 13.5154 98.9144 12.8752 98.4766 12.1047C98.0203 11.2987 97.7871 10.3841 97.8011 9.45628C97.7859 8.53823 97.9991 7.63095 98.4213 6.81725C98.8144 6.06214 99.3987 5.42516 100.115 4.97083C100.841 4.51393 101.683 4.27763 102.54 4.29022C103.238 4.28346 103.929 4.43985 104.557 4.74711C105.16 5.04014 105.691 5.46353 106.112 5.98708V0.951387C106.106 0.823868 106.127 0.696601 106.174 0.577759C106.22 0.458917 106.29 0.351127 106.38 0.261311C106.47 0.174691 106.576 0.10698 106.692 0.0621441C106.808 0.0173079 106.932 -0.00375109 107.056 0.00020122C107.182 -0.00548402 107.307 0.0147387 107.425 0.0596341C107.543 0.104529 107.65 0.173154 107.741 0.261311C107.828 0.352537 107.896 0.460786 107.941 0.579438C107.985 0.698091 108.005 0.824653 108 0.951387V9.45611C108.014 10.3839 107.781 11.2985 107.324 12.1045C106.888 12.8732 106.26 13.5131 105.501 13.9602C104.715 14.4198 103.819 14.6551 102.91 14.641V14.641ZM102.91 12.9624C103.503 12.9724 104.086 12.814 104.594 12.5055C105.089 12.1998 105.492 11.7647 105.76 11.2465C106.048 10.6948 106.194 10.0793 106.186 9.45602C106.197 8.83242 106.051 8.21617 105.76 7.66555C105.488 7.15531 105.085 6.72732 104.594 6.4255C104.086 6.11694 103.503 5.95858 102.91 5.96851C102.32 5.96096 101.74 6.11921 101.234 6.4255C100.738 6.72666 100.33 7.15452 100.05 7.66581C99.7535 8.21456 99.6036 8.83156 99.6151 9.45628C99.6066 10.0807 99.7563 10.6969 100.05 11.2467C100.325 11.766 100.734 12.2009 101.234 12.5057C101.74 12.8119 102.32 12.97 102.91 12.9624V12.9624Z" fill="#08B29B"/>
</g>
<defs>
<clipPath id="clip0">
<rect width="108" height="16" fill="white"/>
</clipPath>
</defs>
</svg>
